<?xml version="1.0" encoding="UTF-8" standalone="no"?>
<!DOCTYPE svg PUBLIC "-//W3C//DTD SVG 1.1//EN"
    "http://www.w3.org/Graphics/SVG/1.1/DTD/svg11.dtd">
<svg xmlns="http://www.w3.org/2000/svg" width="206" height="528">
  <desc>algae LSystem</desc>
  <rect width="100%" height="100%" style="fill: white"/>
  <g stroke="black" fill="none" stroke-width="1">
    <path d="M 130.368 526.4111 L 130.368 521.4111 L 130.368 516.4111 L 130.368 511.4111 L 130.368 506.4111 L 130.368 501.4111 L 130.368 496.4111 L 130.368 491.4111 L 130.368 486.4111 L 130.368 481.4111 L 130.368 476.4111 L 130.368 471.4111 L 130.368 466.4111 L 130.368 461.4111 L 130.368 456.4111 M 126.6523 453.0654 L 122.9365 449.7198 L 119.2208 446.3741 L 115.5051 443.0285 M 111.7894 439.6828 L 108.0736 436.3372 L 104.3579 432.9915 L 100.6422 429.6459 M 97.70326 425.6008 L 94.76434 421.5557 M 91.82542 417.5106 L 88.88649 413.4655 M 96.92647 426.3002 L 93.21075 422.9546 L 89.49502 419.6089 L 85.7793 416.2633 M 82.84036 412.2182 L 79.90144 408.1731 M 76.96252 404.128 L 74.02359 400.0829 M 82.06357 412.9176 L 78.34785 409.572 L 74.63211 406.2263 L 70.9164 402.8807 M 67.97746 398.8356 L 65.03854 394.7905 M 62.09961 390.7454 L 59.16068 386.7003 M 67.20067 399.535 L 63.48494 396.1894 L 59.7692 392.8437 L 56.05349 389.498 M 134.0837 453.0654 L 137.7994 449.7198 L 141.5152 446.3741 L 145.2309 443.0284 M 148.9466 439.6828 L 152.6624 436.3371 L 156.3781 432.9915 L 160.0938 429.6458 M 163.0327 425.6007 L 165.9716 421.5556 M 168.9106 417.5106 L 171.8495 413.4655 M 163.8095 426.3001 L 167.5252 422.9545 L 171.241 419.6088 L 174.9567 416.2632 M 177.8956 412.2181 L 180.8345 408.173 M 183.7735 404.1279 L 186.7124 400.0828 M 178.6724 412.9175 L 182.3882 409.5719 L 186.1039 406.2262 L 189.8196 402.8806 M 192.7585 398.8354 L 195.6974 394.7904 M 198.6364 390.7453 L 201.5753 386.7002 M 193.5353 399.5349 L 197.251 396.1892 L 200.9668 392.8436 L 204.6825 389.4979 M 130.368 451.4111 L 129.3284 446.5203 L 128.2889 441.6296 L 127.2493 436.7389 L 126.2098 431.8481 L 125.1702 426.9574 L 124.1306 422.0667 L 123.0911 417.1759 L 122.0515 412.2852 L 121.012 407.3944 L 119.9724 402.5037 L 118.9328 397.6129 L 117.8933 392.7222 L 116.8537 387.8315 M 112.5236 385.3315 L 108.1935 382.8315 L 103.8633 380.3315 L 99.53322 377.8315 M 95.20309 375.3315 L 90.87297 372.8315 L 86.54283 370.3315 L 82.21271 367.8315 M 78.49699 364.4858 L 74.78126 361.1402 M 71.06554 357.7945 L 67.34981 354.4489 M 77.88258 365.3315 L 73.55246 362.8315 L 69.22232 360.3315 L 64.8922 357.8315 M 61.17647 354.4858 L 57.46074 351.1402 M 53.745 347.7945 L 50.02929 344.4489 M 60.56207 355.3315 L 56.23193 352.8315 L 51.90181 350.3315 L 47.57166 347.8315 M 43.85595 344.4858 L 40.14021 341.1402 M 36.42448 337.7945 L 32.70876 334.4489 M 43.24154 345.3315 L 38.91141 342.8315 L 34.58128 340.3315 L 30.25114 337.8315 M 119.7927 383.7864 L 122.7316 379.7413 L 125.6705 375.6962 L 128.6094 371.6511 M 131.5484 367.606 L 134.4873 363.5609 L 137.4262 359.5159 L 140.3651 355.4708 M 142.3988 350.903 L 144.4325 346.3353 M 146.4662 341.7676 L 148.4999 337.1998 M 143.3041 351.4257 L 146.243 347.3806 L 149.1819 343.3355 L 152.1208 339.2904 M 154.1545 334.7227 L 156.1882 330.1549 M 158.2219 325.5872 L 160.2556 321.0195 M 155.0598 335.2453 L 157.9987 331.2002 L 160.9376 327.1552 L 163.8766 323.11 M 165.9102 318.5423 L 167.9439 313.9746 M 169.9776 309.4069 L 172.0113 304.8391 M 166.8155 319.0649 L 169.7544 315.0199 L 172.6933 310.9748 L 175.6323 306.9297 M 115.8142 382.9407 L 114.7746 378.05 L 113.7351 373.1593 L 112.6955 368.2686 L 111.6559 363.3778 L 110.6164 358.4871 L 109.5768 353.5964 L 108.5373 348.7056 L 107.4977 343.8149 L 106.4581 338.9242 L 105.4186 334.0334 L 104.379 329.1427 L 103.3395 324.252 M 99.00935 321.752 L 94.67921 319.252 L 90.34909 316.752 L 86.01895 314.252 M 81.68884 311.752 L 77.3587 309.252 L 73.02858 306.752 L 68.69844 304.252 M 64.98272 300.9063 L 61.26698 297.5607 M 57.55127 294.215 L 53.83553 290.8693 M 64.36832 301.752 L 60.03819 299.252 L 55.70805 296.752 L 51.37793 294.252 M 47.66219 290.9063 L 43.94646 287.5607 M 40.23074 284.215 L 36.51501 280.8693 M 47.04778 291.752 L 42.71766 289.252 L 38.38753 286.752 L 34.0574 284.252 M 30.34167 280.9063 L 26.62594 277.5607 M 22.91021 274.215 L 19.19447 270.8693 M 29.72726 281.752 L 25.39713 279.252 L 21.06701 276.752 L 16.73687 274.252 M 106.2784 320.2069 L 109.2173 316.1618 L 112.1563 312.1167 L 115.0952 308.0716 M 118.0341 304.0265 L 120.973 299.9814 L 123.912 295.9363 L 126.8509 291.8912 M 128.8846 287.3235 L 130.9182 282.7558 M 132.9519 278.188 L 134.9856 273.6203 M 129.7898 287.8462 L 132.7287 283.8011 L 135.6677 279.756 L 138.6066 275.7109 M 140.6403 271.1432 L 142.674 266.5754 M 144.7076 262.0077 L 146.7413 257.44 M 141.5455 271.6658 L 144.4845 267.6207 L 147.4234 263.5757 L 150.3623 259.5306 M 152.396 254.9629 L 154.4297 250.3951 M 156.4633 245.8274 L 158.497 241.2597 M 153.3012 255.4855 L 156.2401 251.4404 L 159.1791 247.3954 L 162.118 243.3503 M 102.2999 319.3612 L 102.2999 314.3612 L 102.2999 309.3612 L 102.2999 304.3612 L 102.2999 299.3612 L 102.2999 294.3612 L 102.2999 289.3612 L 102.2999 284.3612 L 102.2999 279.3612 L 102.2999 274.3612 L 102.2999 269.3612 L 102.2999 264.3612 M 98.58418 261.0156 L 94.86847 257.67 L 91.15274 254.3243 L 87.43701 250.9787 M 83.72128 247.633 L 80.00557 244.2874 L 76.28984 240.9417 L 72.57411 237.5961 M 69.63519 233.551 L 66.69626 229.506 M 63.75734 225.4609 L 60.81841 221.4158 M 68.85838 234.2505 L 65.14267 230.9048 L 61.42693 227.5592 L 57.7112 224.2135 M 54.77228 220.1685 L 51.83334 216.1234 M 48.89442 212.0783 L 45.9555 208.0332 M 53.99548 220.8679 L 50.27975 217.5222 L 46.56402 214.1766 L 42.84829 210.831 M 39.90936 206.7859 L 36.97044 202.7408 M 34.03151 198.6957 L 31.09258 194.6507 M 39.13255 207.4853 L 35.41684 204.1397 L 31.7011 200.794 L 27.98537 197.4484 M 106.0156 261.0156 L 109.7314 257.67 L 113.4471 254.3243 L 117.1628 250.9787 M 120.8785 247.633 L 124.5943 244.2874 L 128.31 240.9417 L 132.0257 237.5961 M 134.9646 233.551 L 137.9036 229.506 M 140.8425 225.4609 L 143.7814 221.4158 M 135.7414 234.2505 L 139.4572 230.9048 L 143.1729 227.5592 L 146.8886 224.2135 M 149.8275 220.1685 L 152.7665 216.1234 M 155.7054 212.0783 L 158.6443 208.0332 M 150.6043 220.8679 L 154.3201 217.5222 L 158.0358 214.1766 L 161.7515 210.831 M 164.6904 206.7859 L 167.6294 202.7408 M 170.5683 198.6957 L 173.5072 194.6507 M 165.4672 207.4853 L 169.183 204.1397 L 172.8987 200.794 L 176.6144 197.4484 M 102.2999 259.3612 L 102.2999 254.3612 L 102.2999 249.3612 L 102.2999 244.3612 L 102.2999 239.3612 L 102.2999 234.3612 L 102.2999 229.3612 L 102.2999 224.3612 L 102.2999 219.3612 L 102.2999 214.3612 L 102.2999 209.3612 M 98.58418 206.0156 L 94.86847 202.67 L 91.15274 199.3243 L 87.43701 195.9787 M 83.72128 192.633 L 80.00557 189.2874 L 76.28984 185.9417 L 72.57411 182.5961 M 69.63519 178.551 L 66.69626 174.506 M 63.75734 170.4609 L 60.81841 166.4158 M 68.85838 179.2505 L 65.14267 175.9048 L 61.42693 172.5592 L 57.7112 169.2135 M 54.77228 165.1685 L 51.83334 161.1234 M 48.89442 157.0783 L 45.9555 153.0332 M 53.99548 165.8679 L 50.27975 162.5222 L 46.56402 159.1766 L 42.84829 155.831 M 39.13255 152.4853 L 35.41684 149.1397 L 31.7011 145.794 L 27.98537 142.4484 M 106.0156 206.0156 L 109.7314 202.67 L 113.4471 199.3243 L 117.1628 195.9787 M 120.8785 192.633 L 124.5943 189.2874 L 128.31 185.9417 L 132.0257 182.5961 M 134.9646 178.551 L 137.9036 174.506 M 140.8425 170.4609 L 143.7814 166.4158 M 135.7414 179.2505 L 139.4572 175.9048 L 143.1729 172.5592 L 146.8886 169.2135 M 149.8275 165.1685 L 152.7665 161.1234 M 155.7054 157.0783 L 158.6443 153.0332 M 150.6043 165.8679 L 154.3201 162.5222 L 158.0358 159.1766 L 161.7515 155.831 M 165.4672 152.4853 L 169.183 149.1397 L 172.8987 145.794 L 176.6144 142.4484 M 102.2999 204.3612 L 102.2999 199.3612 L 102.2999 194.3612 L 102.2999 189.3612 L 102.2999 184.3612 L 102.2999 179.3612 L 102.2999 174.3612 L 102.2999 169.3612 L 102.2999 164.3612 L 102.2999 159.3612 M 99.36098 155.3162 L 96.42206 151.2711 L 93.48314 147.226 L 90.5442 143.1809 L 87.60528 139.1359 L 84.66635 135.0908 L 81.72742 131.0457 L 78.7885 127.0006 L 75.84958 122.9556 M 70.87695 122.4329 L 65.90434 121.9103 L 60.93174 121.3876 L 55.95913 120.865 M 50.98652 120.3423 L 46.01391 119.8197 L 41.0413 119.2971 L 36.06869 118.7744 M 31.09608 118.2518 L 26.12347 117.7291 L 21.15086 117.2065 L 16.17825 116.6838 M 76.88913 118.0648 L 77.92869 113.1741 L 78.96825 108.2833 L 80.0078 103.3926 M 81.04736 98.50183 L 82.08693 93.61108 L 83.12648 88.72034 L 84.16603 83.82959 M 85.2056 78.93884 L 86.24516 74.0481 L 87.28471 69.15735 L 88.32428 64.2666 M 72.91064 118.9105 L 69.19492 115.5648 L 65.47919 112.2192 L 61.76347 108.8736 L 58.04774 105.5279 L 54.33201 102.1823 L 50.61628 98.83664 L 46.90054 95.491 M 41.92793 96.01364 L 36.95533 96.53629 L 31.98272 97.05893 L 27.01011 97.58157 M 22.0375 98.10422 L 17.06489 98.62686 L 12.09228 99.14951 L 7.119667 99.67215 M 46.90054 90.491 L 46.90054 85.491 L 46.90054 80.491 L 46.90054 75.491 M 46.90054 70.491 L 46.90054 65.491 L 46.90054 60.491 L 46.90054 55.491 M 43.18483 92.14536 L 39.46909 88.79971 L 35.75336 85.45407 L 32.03764 82.10843 L 28.32191 78.76279 L 24.60618 75.41714 L 20.89045 72.0715 M 15.91784 72.59415 L 10.94523 73.11679 L 5.972618 73.63943 L 1 74.16208 M 20.89045 67.0715 L 20.89045 62.0715 L 20.89045 57.0715 L 20.89045 52.0715 M 17.17471 68.72586 L 14.23579 64.68079 L 11.29687 60.63571 L 8.357933 56.59064 L 5.419014 52.54556 L 2.480087 48.50049 M 102.2999 154.3612 L 102.2999 149.3612 L 102.2999 144.3612 L 102.2999 139.3612 L 102.2999 134.3612 L 102.2999 129.3612 L 102.2999 124.3612 L 102.2999 119.3612 L 102.2999 114.3612 M 98.58418 111.0156 L 94.86847 107.67 L 91.15274 104.3243 L 87.43701 100.9787 M 83.72128 97.63303 L 80.00557 94.28738 L 76.28984 90.94174 L 72.57411 87.5961 M 68.85838 84.25046 L 65.14267 80.90482 L 61.42693 77.55917 L 57.7112 74.21353 M 106.0156 111.0156 L 109.7314 107.67 L 113.4471 104.3243 L 117.1628 100.9787 M 120.8785 97.63303 L 124.5943 94.28738 L 128.31 90.94174 L 132.0257 87.5961 M 135.7414 84.25046 L 139.4572 80.90482 L 143.1729 77.55917 L 146.8886 74.21353 M 102.2999 109.3612 L 101.2604 104.4705 L 100.2208 99.57974 L 99.18124 94.689 L 98.14168 89.79825 L 97.10211 84.9075 L 96.06256 80.01675 L 95.02301 75.12601 M 90.69287 72.62601 L 86.36275 70.12601 L 82.03262 67.62601 L 77.7025 65.12601 M 73.37237 62.62601 L 69.04224 60.12601 L 64.7121 57.62601 L 60.38197 55.12601 M 97.96193 71.08093 L 100.9009 67.03586 L 103.8398 62.99078 L 106.7787 58.94571 M 109.7176 54.90063 L 112.6566 50.85556 L 115.5955 46.81049 L 118.5344 42.76541 M 93.98344 70.23526 L 92.94389 65.34451 L 91.90433 60.45377 L 90.86476 55.56302 L 89.82521 50.67227 L 88.78566 45.78152 L 87.74609 40.89078 M 83.41597 38.39078 L 79.08583 35.89078 L 74.75571 33.39078 L 70.42558 30.89078 M 90.68501 36.8457 L 93.62395 32.80063 L 96.56288 28.75555 L 99.5018 24.71048 M 86.70654 36.00003 L 86.70654 31.00003 L 86.70654 26.00003 L 86.70654 21.00003 L 86.70654 16.00003 L 86.70654 11 M 86.70654 6 L 86.70654 1 " />
  </g>
</svg>
