<?xml version="1.0" encoding="UTF-8" standalone="no"?>
<!DOCTYPE svg PUBLIC "-//W3C//DTD SVG 1.1//EN"
    "http://www.w3.org/Graphics/SVG/1.1/DTD/svg11.dtd">
<svg xmlns="http://www.w3.org/2000/svg" width="206" height="528">
  <desc>algae LSystem</desc>
  <rect width="100%" height="100%" style="fill: white"/>
  <g stroke="black" fill="none" stroke-width="1">
    <path d="M 130.3679 526.4111 L 130.3679 521.4111 L 130.3679 516.4111 L 130.3679 511.4111 L 130.3679 506.4111 L 130.3679 501.4111 L 130.3679 496.4111 L 130.3679 491.4111 L 130.3679 486.4111 L 130.3679 481.4111 L 130.3679 476.4111 L 130.3679 471.4111 L 130.3679 466.4111 L 130.3679 461.4111 L 130.3679 456.4111 M 126.6522 453.0654 L 122.9365 449.7198 L 119.2208 446.3741 L 115.505 443.0285 M 111.7893 439.6828 L 108.0736 436.3372 L 104.3579 432.9915 L 100.6422 429.6459 M 97.70322 425.6008 L 94.76429 421.5557 M 91.82536 417.5106 L 88.88643 413.4655 M 96.92643 426.3002 L 93.2107 422.9546 L 89.49498 419.6089 L 85.77925 416.2633 M 82.84032 412.2182 L 79.90139 408.1731 M 76.96246 404.128 L 74.02353 400.0829 M 82.06353 412.9176 L 78.34781 409.572 L 74.63208 406.2263 L 70.91636 402.8807 M 67.97743 398.8356 L 65.03851 394.7905 M 62.09959 390.7454 L 59.16066 386.7003 M 67.20063 399.535 L 63.48491 396.1894 L 59.76919 392.8437 L 56.05347 389.498 M 134.0836 453.0654 L 137.7994 449.7198 L 141.5151 446.3741 L 145.2308 443.0285 M 148.9465 439.6828 L 152.6622 436.3372 L 156.378 432.9915 L 160.0937 429.6459 M 163.0326 425.6008 L 165.9716 421.5557 M 168.9105 417.5106 L 171.8494 413.4655 M 163.8094 426.3002 L 167.5251 422.9546 L 171.2409 419.6089 L 174.9566 416.2633 M 177.8955 412.2182 L 180.8344 408.1731 M 183.7734 404.128 L 186.7123 400.0829 M 178.6723 412.9176 L 182.388 409.572 L 186.1038 406.2263 L 189.8195 402.8807 M 192.7584 398.8356 L 195.6973 394.7905 M 198.6363 390.7454 L 201.5752 386.7003 M 193.5352 399.535 L 197.2509 396.1894 L 200.9666 392.8437 L 204.6824 389.498 M 130.3679 451.4111 L 129.3284 446.5203 L 128.2888 441.6296 L 127.2492 436.7389 L 126.2097 431.8481 L 125.1701 426.9574 L 124.1306 422.0667 L 123.091 417.1759 L 122.0514 412.2852 L 121.0119 407.3944 L 119.9723 402.5037 L 118.9328 397.6129 L 117.8932 392.7222 L 116.8536 387.8315 M 112.5235 385.3315 L 108.1934 382.8315 L 103.8633 380.3315 L 99.53312 377.8315 M 95.20299 375.3315 L 90.87286 372.8315 L 86.54272 370.3315 L 82.2126 367.8315 M 78.49688 364.4858 L 74.78115 361.1401 M 71.06543 357.7945 L 67.3497 354.4489 M 77.88247 365.3315 L 73.55234 362.8315 L 69.22221 360.3315 L 64.89208 357.8315 M 61.17636 354.4858 L 57.46064 351.1401 M 53.74492 347.7945 L 50.0292 344.4489 M 60.56196 355.3315 L 56.23183 352.8315 L 51.9017 350.3315 L 47.57158 347.8315 M 43.85586 344.4858 L 40.14014 341.1401 M 36.42442 337.7945 L 32.7087 334.4489 M 43.24146 345.3315 L 38.91134 342.8315 L 34.58121 340.3315 L 30.25108 337.8315 M 119.7926 383.7864 L 122.7315 379.7413 L 125.6704 375.6962 L 128.6094 371.6511 M 131.5483 367.606 L 134.4872 363.5609 L 137.4261 359.5158 L 140.3651 355.4708 M 142.3988 350.903 L 144.4324 346.3353 M 146.4661 341.7675 L 148.4998 337.1998 M 143.304 351.4257 L 146.2429 347.3806 L 149.1819 343.3355 L 152.1208 339.2904 M 154.1545 334.7227 L 156.1882 330.1549 M 158.2218 325.5872 L 160.2555 321.0195 M 155.0597 335.2453 L 157.9987 331.2002 L 160.9376 327.1551 L 163.8765 323.11 M 165.9102 318.5423 L 167.9439 313.9745 M 169.9776 309.4068 L 172.0112 304.8391 M 166.8154 319.0649 L 169.7544 315.0198 L 172.6933 310.9748 L 175.6322 306.9297 M 115.8141 382.9407 L 114.7745 378.05 L 113.735 373.1593 L 112.6954 368.2686 L 111.6558 363.3778 L 110.6163 358.4871 L 109.5767 353.5963 L 108.5372 348.7056 L 107.4976 343.8149 L 106.458 338.9241 L 105.4185 334.0334 L 104.3789 329.1427 L 103.3394 324.252 M 99.00923 321.752 L 94.6791 319.252 L 90.34897 316.752 L 86.01884 314.252 M 81.68871 311.752 L 77.35858 309.252 L 73.02845 306.752 L 68.69832 304.252 M 64.9826 300.9063 L 61.26688 297.5606 M 57.55116 294.215 L 53.83544 290.8693 M 64.36819 301.752 L 60.03806 299.252 L 55.70794 296.752 L 51.37782 294.252 M 47.6621 290.9063 L 43.94638 287.5606 M 40.23066 284.215 L 36.51494 280.8693 M 47.0477 291.752 L 42.71758 289.252 L 38.38746 286.752 L 34.05733 284.252 M 30.34161 280.9063 L 26.62589 277.5606 M 22.91017 274.215 L 19.19445 270.8693 M 29.7272 281.752 L 25.39708 279.252 L 21.06696 276.752 L 16.73684 274.252 M 106.2783 320.2068 L 109.2172 316.1618 L 112.1562 312.1167 L 115.0951 308.0716 M 118.034 304.0265 L 120.9729 299.9814 L 123.9119 295.9363 L 126.8508 291.8912 M 128.8845 287.3235 L 130.9182 282.7558 M 132.9518 278.188 L 134.9855 273.6203 M 129.7897 287.8461 L 132.7287 283.8011 L 135.6676 279.756 L 138.6065 275.7109 M 140.6402 271.1431 L 142.6739 266.5754 M 144.7076 262.0077 L 146.7412 257.44 M 141.5455 271.6658 L 144.4844 267.6207 L 147.4233 263.5756 L 150.3622 259.5305 M 152.3959 254.9628 L 154.4296 250.3951 M 156.4633 245.8274 L 158.497 241.2597 M 153.3012 255.4855 L 156.2401 251.4404 L 159.179 247.3953 L 162.118 243.3503 M 102.2998 319.3612 L 102.2998 314.3612 L 102.2998 309.3612 L 102.2998 304.3612 L 102.2998 299.3612 L 102.2998 294.3612 L 102.2998 289.3612 L 102.2998 284.3612 L 102.2998 279.3612 L 102.2998 274.3612 L 102.2998 269.3612 L 102.2998 264.3612 M 98.58408 261.0156 L 94.86835 257.6699 L 91.15263 254.3243 L 87.4369 250.9786 M 83.72118 247.633 L 80.00546 244.2874 L 76.28973 240.9417 L 72.57401 237.5961 M 69.63508 233.551 L 66.69615 229.5059 M 63.75723 225.4608 L 60.81831 221.4158 M 68.85828 234.2504 L 65.14256 230.9048 L 61.42684 227.5591 L 57.71112 224.2135 M 54.77219 220.1684 L 51.83326 216.1234 M 48.89433 212.0783 L 45.95541 208.0332 M 53.9954 220.8679 L 50.27968 217.5222 L 46.56396 214.1766 L 42.84824 210.8309 M 39.90932 206.7859 L 36.97039 202.7408 M 34.03146 198.6957 L 31.09254 194.6506 M 39.13252 207.4853 L 35.4168 204.1396 L 31.70108 200.794 L 27.98536 197.4484 M 106.0155 261.0156 L 109.7312 257.6699 L 113.447 254.3243 L 117.1627 250.9786 M 120.8784 247.633 L 124.5941 244.2874 L 128.3099 240.9417 L 132.0256 237.5961 M 134.9645 233.551 L 137.9034 229.5059 M 140.8424 225.4608 L 143.7813 221.4158 M 135.7413 234.2504 L 139.457 230.9048 L 143.1727 227.5591 L 146.8885 224.2135 M 149.8274 220.1684 L 152.7663 216.1234 M 155.7052 212.0783 L 158.6442 208.0332 M 150.6042 220.8679 L 154.3199 217.5222 L 158.0356 214.1766 L 161.7513 210.8309 M 164.6903 206.7859 L 167.6292 202.7408 M 170.5681 198.6957 L 173.5071 194.6506 M 165.4671 207.4853 L 169.1828 204.1396 L 172.8985 200.794 L 176.6143 197.4484 M 102.2998 259.3612 L 102.2998 254.3612 L 102.2998 249.3612 L 102.2998 244.3612 L 102.2998 239.3612 L 102.2998 234.3612 L 102.2998 229.3612 L 102.2998 224.3612 L 102.2998 219.3612 L 102.2998 214.3612 L 102.2998 209.3612 M 98.58408 206.0156 L 94.86835 202.6699 L 91.15263 199.3243 L 87.4369 195.9786 M 83.72118 192.633 L 80.00546 189.2874 L 76.28973 185.9417 L 72.57401 182.5961 M 69.63508 178.551 L 66.69615 174.5059 M 63.75723 170.4608 L 60.81831 166.4158 M 68.85828 179.2504 L 65.14256 175.9048 L 61.42684 172.5591 L 57.71112 169.2135 M 54.77219 165.1684 L 51.83326 161.1234 M 48.89433 157.0783 L 45.95541 153.0332 M 53.9954 165.8679 L 50.27968 162.5222 L 46.56396 159.1766 L 42.84824 155.8309 M 39.13252 152.4853 L 35.4168 149.1396 L 31.70108 145.794 L 27.98536 142.4484 M 106.0155 206.0156 L 109.7312 202.6699 L 113.447 199.3243 L 117.1627 195.9786 M 120.8784 192.633 L 124.5941 189.2874 L 128.3099 185.9417 L 132.0256 182.5961 M 134.9645 178.551 L 137.9034 174.5059 M 140.8424 170.4608 L 143.7813 166.4158 M 135.7413 179.2504 L 139.457 175.9048 L 143.1727 172.5591 L 146.8885 169.2135 M 149.8274 165.1684 L 152.7663 161.1234 M 155.7052 157.0783 L 158.6442 153.0332 M 150.6042 165.8679 L 154.3199 162.5222 L 158.0356 159.1766 L 161.7513 155.8309 M 165.4671 152.4853 L 169.1828 149.1396 L 172.8985 145.794 L 176.6143 142.4484 M 102.2998 204.3612 L 102.2998 199.3612 L 102.2998 194.3612 L 102.2998 189.3612 L 102.2998 184.3612 L 102.2998 179.3612 L 102.2998 174.3612 L 102.2998 169.3612 L 102.2998 164.3612 L 102.2998 159.3612 M 99.36087 155.3161 L 96.42194 151.2711 L 93.48301 147.226 L 90.54408 143.1809 L 87.60515 139.1358 L 84.66622 135.0908 L 81.72729 131.0457 L 78.78837 127.0006 L 75.84944 122.9555 M 70.87683 122.4329 L 65.90422 121.9102 L 60.93161 121.3876 L 55.959 120.865 M 50.98639 120.3423 L 46.01378 119.8197 L 41.04117 119.297 L 36.06856 118.7744 M 31.09595 118.2517 L 26.12334 117.7291 L 21.15073 117.2065 L 16.17812 116.6838 M 76.889 118.0648 L 77.92856 113.174 L 78.96812 108.2833 L 80.00768 103.3925 M 81.04724 98.5018 L 82.0868 93.61105 L 83.12636 88.72031 L 84.16592 83.82956 M 85.20547 78.93881 L 86.24504 74.04807 L 87.2846 69.15732 L 88.32416 64.26657 M 72.91051 118.9105 L 69.19479 115.5648 L 65.47907 112.2192 L 61.76335 108.8735 L 58.04763 105.5279 L 54.33191 102.1823 L 50.61619 98.83661 L 46.90047 95.49097 M 41.92786 96.01361 L 36.95525 96.53625 L 31.98264 97.0589 L 27.01003 97.58154 M 22.03742 98.10419 L 17.06481 98.62683 L 12.0922 99.14948 L 7.119591 99.67212 M 46.90047 90.49097 L 46.90047 85.49097 L 46.90047 80.49097 L 46.90047 75.49097 M 46.90047 70.49097 L 46.90047 65.49097 L 46.90047 60.49097 L 46.90047 55.49097 M 43.18475 92.14532 L 39.46903 88.79968 L 35.75331 85.45404 L 32.03759 82.1084 L 28.32187 78.76276 L 24.60615 75.41711 L 20.89043 72.07147 M 15.91782 72.59412 L 10.94521 73.11676 L 5.972603 73.6394 L 1 74.16205 M 20.89043 67.07147 L 20.89043 62.07147 L 20.89043 57.07147 L 20.89043 52.07147 M 17.17471 68.72583 L 14.23579 64.68076 L 11.29686 60.63568 L 8.357933 56.59061 L 5.419006 52.54553 L 2.48008 48.50046 M 102.2998 154.3612 L 102.2998 149.3612 L 102.2998 144.3612 L 102.2998 139.3612 L 102.2998 134.3612 L 102.2998 129.3612 L 102.2998 124.3612 L 102.2998 119.3612 L 102.2998 114.3612 M 98.58408 111.0156 L 94.86835 107.6699 L 91.15263 104.3243 L 87.4369 100.9786 M 83.72118 97.633 L 80.00546 94.28735 L 76.28973 90.94171 L 72.57401 87.59607 M 68.85828 84.25043 L 65.14256 80.90479 L 61.42684 77.55914 L 57.71112 74.2135 M 106.0155 111.0156 L 109.7312 107.6699 L 113.447 104.3243 L 117.1627 100.9786 M 120.8784 97.633 L 124.5941 94.28735 L 128.3099 90.94171 L 132.0256 87.59607 M 135.7413 84.25043 L 139.457 80.90479 L 143.1727 77.55914 L 146.8885 74.2135 M 102.2998 109.3612 L 101.2602 104.4705 L 100.2207 99.57971 L 99.18112 94.68896 L 98.14156 89.79822 L 97.10201 84.90747 L 96.06244 80.01672 L 95.02288 75.12598 M 90.69275 72.62598 L 86.36263 70.12598 L 82.03249 67.62598 L 77.70236 65.12598 M 73.37223 62.62598 L 69.0421 60.12598 L 64.71198 57.62598 L 60.38186 55.12598 M 97.96181 71.0809 L 100.9007 67.03583 L 103.8397 62.99075 L 106.7786 58.94568 M 109.7175 54.9006 L 112.6565 50.85553 L 115.5954 46.81046 L 118.5343 42.76538 M 93.98332 70.23523 L 92.94376 65.34448 L 91.90421 60.45374 L 90.86464 55.56299 L 89.82508 50.67224 L 88.78552 45.78149 L 87.74596 40.89075 M 83.41583 38.39075 L 79.0857 35.89075 L 74.75557 33.39075 L 70.42545 30.89075 M 90.68489 36.84567 L 93.62383 32.8006 L 96.56275 28.75552 L 99.50168 24.71045 M 86.70641 36 L 86.70641 31 L 86.70641 26 L 86.70641 21 L 86.70641 16 L 86.70641 11 M 86.70641 6 L 86.70641 1 " />
  </g>
</svg>
