<?xml version="1.0" encoding="UTF-8" standalone="no"?>
<!DOCTYPE svg PUBLIC "-//W3C//DTD SVG 1.1//EN"
    "http://www.w3.org/Graphics/SVG/1.1/DTD/svg11.dtd">
<svg xmlns="http://www.w3.org/2000/svg" width="237" height="157">
  <desc>dragon LSystem</desc>
  <g stroke="black" fill="none" stroke-width="1">
    <path d="M 186 106 L 186 101 L 181 101 L 181 106 L 176 106 L 176 111 L 181 111 L 181 116 L 176 116 L 176 121 L 181 121 L 181 116 L 186 116 L 186 121 L 191 121 L 191 126 L 186 126 L 186 131 L 191 131 L 191 126 L 196 126 L 196 121 L 191 121 L 191 116 L 196 116 L 196 121 L 201 121 L 201 116 L 206 116 L 206 121 L 211 121 L 211 126 L 206 126 L 206 131 L 211 131 L 211 126 L 216 126 L 216 121 L 211 121 L 211 116 L 216 116 L 216 111 L 211 111 L 211 116 L 206 116 L 206 111 L 201 111 L 201 106 L 206 106 L 206 111 L 211 111 L 211 106 L 216 106 L 216 101 L 211 101 L 211 96 L 216 96 L 216 101 L 221 101 L 221 96 L 226 96 L 226 101 L 231 101 L 231 106 L 226 106 L 226 111 L 231 111 L 231 106 L 236 106 L 236 101 L 231 101 L 231 96 L 236 96 L 236 91 L 231 91 L 231 96 L 226 96 L 226 91 L 221 91 L 221 86 L 226 86 L 226 81 L 221 81 L 221 86 L 216 86 L 216 91 L 221 91 L 221 96 L 216 96 L 216 91 L 211 91 L 211 96 L 206 96 L 206 91 L 201 91 L 201 86 L 206 86 L 206 91 L 211 91 L 211 86 L 216 86 L 216 81 L 211 81 L 211 76 L 216 76 L 216 71 L 211 71 L 211 76 L 206 76 L 206 71 L 201 71 L 201 66 L 206 66 L 206 71 L 211 71 L 211 66 L 216 66 L 216 61 L 211 61 L 211 56 L 216 56 L 216 61 L 221 61 L 221 56 L 226 56 L 226 61 L 231 61 L 231 66 L 226 66 L 226 71 L 231 71 L 231 66 L 236 66 L 236 61 L 231 61 L 231 56 L 236 56 L 236 51 L 231 51 L 231 56 L 226 56 L 226 51 L 221 51 L 221 46 L 226 46 L 226 41 L 221 41 L 221 46 L 216 46 L 216 51 L 221 51 L 221 56 L 216 56 L 216 51 L 211 51 L 211 56 L 206 56 L 206 51 L 201 51 L 201 46 L 206 46 L 206 41 L 201 41 L 201 46 L 196 46 L 196 51 L 201 51 L 201 56 L 196 56 L 196 61 L 201 61 L 201 56 L 206 56 L 206 61 L 211 61 L 211 66 L 206 66 L 206 61 L 201 61 L 201 66 L 196 66 L 196 71 L 201 71 L 201 76 L 196 76 L 196 71 L 191 71 L 191 76 L 186 76 L 186 71 L 181 71 L 181 66 L 186 66 L 186 71 L 191 71 L 191 66 L 196 66 L 196 61 L 191 61 L 191 56 L 196 56 L 196 51 L 191 51 L 191 56 L 186 56 L 186 51 L 181 51 L 181 46 L 186 46 L 186 41 L 181 41 L 181 46 L 176 46 L 176 51 L 181 51 L 181 56 L 176 56 L 176 51 L 171 51 L 171 56 L 166 56 L 166 51 L 161 51 L 161 46 L 166 46 L 166 51 L 171 51 L 171 46 L 176 46 L 176 41 L 171 41 L 171 36 L 176 36 L 176 31 L 171 31 L 171 36 L 166 36 L 166 31 L 161 31 L 161 26 L 166 26 L 166 31 L 171 31 L 171 26 L 176 26 L 176 21 L 171 21 L 171 16 L 176 16 L 176 21 L 181 21 L 181 16 L 186 16 L 186 21 L 191 21 L 191 26 L 186 26 L 186 31 L 191 31 L 191 26 L 196 26 L 196 21 L 191 21 L 191 16 L 196 16 L 196 11 L 191 11 L 191 16 L 186 16 L 186 11 L 181 11 L 181 6 L 186 6 L 186 1 L 181 1 L 181 6 L 176 6 L 176 11 L 181 11 L 181 16 L 176 16 L 176 11 L 171 11 L 171 16 L 166 16 L 166 11 L 161 11 L 161 6 L 166 6 L 166 1 L 161 1 L 161 6 L 156 6 L 156 11 L 161 11 L 161 16 L 156 16 L 156 21 L 161 21 L 161 16 L 166 16 L 166 21 L 171 21 L 171 26 L 166 26 L 166 21 L 161 21 L 161 26 L 156 26 L 156 31 L 161 31 L 161 36 L 156 36 L 156 31 L 151 31 L 151 36 L 146 36 L 146 31 L 141 31 L 141 26 L 146 26 L 146 21 L 141 21 L 141 26 L 136 26 L 136 31 L 141 31 L 141 36 L 136 36 L 136 41 L 141 41 L 141 36 L 146 36 L 146 41 L 151 41 L 151 46 L 146 46 L 146 51 L 151 51 L 151 46 L 156 46 L 156 41 L 151 41 L 151 36 L 156 36 L 156 41 L 161 41 L 161 36 L 166 36 L 166 41 L 171 41 L 171 46 L 166 46 L 166 41 L 161 41 L 161 46 L 156 46 L 156 51 L 161 51 L 161 56 L 156 56 L 156 61 L 161 61 L 161 56 L 166 56 L 166 61 L 171 61 L 171 66 L 166 66 L 166 61 L 161 61 L 161 66 L 156 66 L 156 71 L 161 71 L 161 76 L 156 76 L 156 71 L 151 71 L 151 76 L 146 76 L 146 71 L 141 71 L 141 66 L 146 66 L 146 71 L 151 71 L 151 66 L 156 66 L 156 61 L 151 61 L 151 56 L 156 56 L 156 51 L 151 51 L 151 56 L 146 56 L 146 51 L 141 51 L 141 46 L 146 46 L 146 41 L 141 41 L 141 46 L 136 46 L 136 51 L 141 51 L 141 56 L 136 56 L 136 51 L 131 51 L 131 56 L 126 56 L 126 51 L 121 51 L 121 46 L 126 46 L 126 41 L 121 41 L 121 46 L 116 46 L 116 51 L 121 51 L 121 56 L 116 56 L 116 61 L 121 61 L 121 56 L 126 56 L 126 61 L 131 61 L 131 66 L 126 66 L 126 61 L 121 61 L 121 66 L 116 66 L 116 71 L 121 71 L 121 76 L 116 76 L 116 71 L 111 71 L 111 76 L 106 76 L 106 71 L 101 71 L 101 66 L 106 66 L 106 71 L 111 71 L 111 66 L 116 66 L 116 61 L 111 61 L 111 56 L 116 56 L 116 51 L 111 51 L 111 56 L 106 56 L 106 51 L 101 51 L 101 46 L 106 46 L 106 41 L 101 41 L 101 46 L 96 46 L 96 51 L 101 51 L 101 56 L 96 56 L 96 51 L 91 51 L 91 56 L 86 56 L 86 51 L 81 51 L 81 46 L 86 46 L 86 51 L 91 51 L 91 46 L 96 46 L 96 41 L 91 41 L 91 36 L 96 36 L 96 31 L 91 31 L 91 36 L 86 36 L 86 31 L 81 31 L 81 26 L 86 26 L 86 31 L 91 31 L 91 26 L 96 26 L 96 21 L 91 21 L 91 16 L 96 16 L 96 21 L 101 21 L 101 16 L 106 16 L 106 21 L 111 21 L 111 26 L 106 26 L 106 31 L 111 31 L 111 26 L 116 26 L 116 21 L 111 21 L 111 16 L 116 16 L 116 11 L 111 11 L 111 16 L 106 16 L 106 11 L 101 11 L 101 6 L 106 6 L 106 1 L 101 1 L 101 6 L 96 6 L 96 11 L 101 11 L 101 16 L 96 16 L 96 11 L 91 11 L 91 16 L 86 16 L 86 11 L 81 11 L 81 6 L 86 6 L 86 1 L 81 1 L 81 6 L 76 6 L 76 11 L 81 11 L 81 16 L 76 16 L 76 21 L 81 21 L 81 16 L 86 16 L 86 21 L 91 21 L 91 26 L 86 26 L 86 21 L 81 21 L 81 26 L 76 26 L 76 31 L 81 31 L 81 36 L 76 36 L 76 31 L 71 31 L 71 36 L 66 36 L 66 31 L 61 31 L 61 26 L 66 26 L 66 21 L 61 21 L 61 26 L 56 26 L 56 31 L 61 31 L 61 36 L 56 36 L 56 41 L 61 41 L 61 36 L 66 36 L 66 41 L 71 41 L 71 46 L 66 46 L 66 51 L 71 51 L 71 46 L 76 46 L 76 41 L 71 41 L 71 36 L 76 36 L 76 41 L 81 41 L 81 36 L 86 36 L 86 41 L 91 41 L 91 46 L 86 46 L 86 41 L 81 41 L 81 46 L 76 46 L 76 51 L 81 51 L 81 56 L 76 56 L 76 61 L 81 61 L 81 56 L 86 56 L 86 61 L 91 61 L 91 66 L 86 66 L 86 61 L 81 61 L 81 66 L 76 66 L 76 71 L 81 71 L 81 76 L 76 76 L 76 71 L 71 71 L 71 76 L 66 76 L 66 71 L 61 71 L 61 66 L 66 66 L 66 61 L 61 61 L 61 66 L 56 66 L 56 71 L 61 71 L 61 76 L 56 76 L 56 81 L 61 81 L 61 76 L 66 76 L 66 81 L 71 81 L 71 86 L 66 86 L 66 91 L 71 91 L 71 86 L 76 86 L 76 81 L 71 81 L 71 76 L 76 76 L 76 81 L 81 81 L 81 76 L 86 76 L 86 81 L 91 81 L 91 86 L 86 86 L 86 91 L 91 91 L 91 86 L 96 86 L 96 81 L 91 81 L 91 76 L 96 76 L 96 71 L 91 71 L 91 76 L 86 76 L 86 71 L 81 71 L 81 66 L 86 66 L 86 71 L 91 71 L 91 66 L 96 66 L 96 61 L 91 61 L 91 56 L 96 56 L 96 61 L 101 61 L 101 56 L 106 56 L 106 61 L 111 61 L 111 66 L 106 66 L 106 61 L 101 61 L 101 66 L 96 66 L 96 71 L 101 71 L 101 76 L 96 76 L 96 81 L 101 81 L 101 76 L 106 76 L 106 81 L 111 81 L 111 86 L 106 86 L 106 91 L 111 91 L 111 86 L 116 86 L 116 81 L 111 81 L 111 76 L 116 76 L 116 81 L 121 81 L 121 76 L 126 76 L 126 81 L 131 81 L 131 86 L 126 86 L 126 81 L 121 81 L 121 86 L 116 86 L 116 91 L 121 91 L 121 96 L 116 96 L 116 101 L 121 101 L 121 96 L 126 96 L 126 101 L 131 101 L 131 106 L 126 106 L 126 101 L 121 101 L 121 106 L 116 106 L 116 111 L 121 111 L 121 116 L 116 116 L 116 111 L 111 111 L 111 116 L 106 116 L 106 111 L 101 111 L 101 106 L 106 106 L 106 111 L 111 111 L 111 106 L 116 106 L 116 101 L 111 101 L 111 96 L 116 96 L 116 91 L 111 91 L 111 96 L 106 96 L 106 91 L 101 91 L 101 86 L 106 86 L 106 81 L 101 81 L 101 86 L 96 86 L 96 91 L 101 91 L 101 96 L 96 96 L 96 91 L 91 91 L 91 96 L 86 96 L 86 91 L 81 91 L 81 86 L 86 86 L 86 81 L 81 81 L 81 86 L 76 86 L 76 91 L 81 91 L 81 96 L 76 96 L 76 101 L 81 101 L 81 96 L 86 96 L 86 101 L 91 101 L 91 106 L 86 106 L 86 101 L 81 101 L 81 106 L 76 106 L 76 111 L 81 111 L 81 116 L 76 116 L 76 111 L 71 111 L 71 116 L 66 116 L 66 111 L 61 111 L 61 106 L 66 106 L 66 101 L 61 101 L 61 106 L 56 106 L 56 111 L 61 111 L 61 116 L 56 116 L 56 121 L 61 121 L 61 116 L 66 116 L 66 121 L 71 121 L 71 126 L 66 126 L 66 131 L 71 131 L 71 126 L 76 126 L 76 121 L 71 121 L 71 116 L 76 116 L 76 121 L 81 121 L 81 116 L 86 116 L 86 121 L 91 121 L 91 126 L 86 126 L 86 121 L 81 121 L 81 126 L 76 126 L 76 131 L 81 131 L 81 136 L 76 136 L 76 141 L 81 141 L 81 136 L 86 136 L 86 141 L 91 141 L 91 146 L 86 146 L 86 141 L 81 141 L 81 146 L 76 146 L 76 151 L 81 151 L 81 156 L 76 156 L 76 151 L 71 151 L 71 156 L 66 156 L 66 151 L 61 151 L 61 146 L 66 146 L 66 151 L 71 151 L 71 146 L 76 146 L 76 141 L 71 141 L 71 136 L 76 136 L 76 131 L 71 131 L 71 136 L 66 136 L 66 131 L 61 131 L 61 126 L 66 126 L 66 121 L 61 121 L 61 126 L 56 126 L 56 131 L 61 131 L 61 136 L 56 136 L 56 131 L 51 131 L 51 136 L 46 136 L 46 131 L 41 131 L 41 126 L 46 126 L 46 121 L 41 121 L 41 126 L 36 126 L 36 131 L 41 131 L 41 136 L 36 136 L 36 141 L 41 141 L 41 136 L 46 136 L 46 141 L 51 141 L 51 146 L 46 146 L 46 141 L 41 141 L 41 146 L 36 146 L 36 151 L 41 151 L 41 156 L 36 156 L 36 151 L 31 151 L 31 156 L 26 156 L 26 151 L 21 151 L 21 146 L 26 146 L 26 151 L 31 151 L 31 146 L 36 146 L 36 141 L 31 141 L 31 136 L 36 136 L 36 131 L 31 131 L 31 136 L 26 136 L 26 131 L 21 131 L 21 126 L 26 126 L 26 121 L 21 121 L 21 126 L 16 126 L 16 131 L 21 131 L 21 136 L 16 136 L 16 131 L 11 131 L 11 136 L 6 136 L 6 131 L 1 131 L 1 126 L 6 126 L 6 131 L 11 131 L 11 126 L 16 126 L 16 121 L 11 121 L 11 116 L 16 116 L 16 111 L 11 111 L 11 116 L 6 116 L 6 111 L 1 111 L 1 106 L 6 106 L 6 111 L 11 111 L 11 106 L 16 106 L 16 101 L 11 101 L 11 96 L 16 96 L 16 101 L 21 101 L 21 96 L 26 96 L 26 101 L 31 101 L 31 106 L 26 106 " />
  </g>
</svg>
