<?xml version="1.0" encoding="UTF-8" standalone="no"?>
<!DOCTYPE svg PUBLIC "-//W3C//DTD SVG 1.1//EN"
    "http://www.w3.org/Graphics/SVG/1.1/DTD/svg11.dtd">
<svg xmlns="http://www.w3.org/2000/svg" width="539" height="573">
  <desc>gosper LSystem</desc>
  <rect width="100%" height="100%" style="fill: white"/>
  <g stroke="black" fill="none" stroke-width="1">
    <path d="M 537.9448 206.0011 L 537.9448 196.0011 L 529.2845 191.0011 L 529.2845 201.0011 L 520.6243 206.0011 L 520.6243 196.0011 L 520.6243 186.0011 L 529.2845 181.0011 L 529.2845 171.0011 L 520.6243 166.0011 L 511.9641 161.0011 L 511.9641 171.0011 L 520.6243 176.0011 L 511.9641 181.0011 L 503.3038 176.0011 L 494.6436 181.0011 L 494.6436 191.0011 L 494.6436 201.0011 L 503.3038 196.0011 L 503.3038 186.0011 L 511.9641 191.0011 L 511.9641 201.0011 L 503.3038 206.0011 L 503.3038 216.0011 L 511.9641 211.0011 L 520.6243 216.0011 L 511.9641 221.0011 L 503.3038 226.0011 L 494.6436 221.0011 L 494.6436 211.0011 L 485.9833 206.0011 L 485.9833 216.0011 L 477.323 221.0011 L 477.323 211.0011 L 477.323 201.0011 L 485.9833 196.0011 L 485.9833 186.0011 L 477.323 181.0011 L 477.323 191.0011 L 468.6628 196.0011 L 468.6628 186.0011 L 468.6628 176.0011 L 477.323 171.0011 L 485.9833 176.0011 L 494.6436 171.0011 L 503.3038 166.0011 L 494.6436 161.0011 L 485.9833 166.0011 L 485.9833 156.0011 L 494.6436 151.0011 L 494.6436 141.0011 L 485.9833 136.0011 L 485.9833 146.0011 L 477.323 151.0011 L 477.323 141.0011 L 477.323 131.0011 L 485.9833 126.0011 L 485.9833 116.001 L 477.323 111.001 L 468.6628 106.001 L 468.6628 116.0011 L 477.323 121.0011 L 468.6628 126.0011 L 460.0025 121.001 L 460.0025 111.001 L 451.3423 106.001 L 442.682 101.001 L 442.682 111.001 L 451.3423 116.001 L 442.682 121.001 L 434.0218 116.001 L 425.3615 121.001 L 425.3615 131.0011 L 425.3615 141.0011 L 434.0217 136.0011 L 434.0217 126.001 L 442.682 131.001 L 442.682 141.0011 L 451.3423 146.0011 L 460.0025 141.0011 L 451.3423 136.0011 L 451.3423 126.001 L 460.0025 131.001 L 468.6628 136.001 L 468.6628 146.0011 L 460.0025 151.0011 L 460.0025 161.0011 L 468.6628 156.0011 L 477.3231 161.0011 L 468.6628 166.0011 L 460.0025 171.0011 L 451.3423 166.0011 L 451.3423 156.0011 L 442.682 151.0011 L 434.0217 146.0011 L 434.0217 156.0011 L 442.682 161.0011 L 434.0217 166.0011 L 425.3615 161.0011 L 416.7012 166.0011 L 416.7012 176.0011 L 425.3615 171.0011 L 434.0217 176.0011 L 425.3615 181.0011 L 416.7012 186.0011 L 408.041 181.0011 L 399.3807 186.0011 L 399.3807 196.0011 L 399.3807 206.0011 L 408.041 201.0011 L 408.041 191.0011 L 416.7012 196.0011 L 416.7012 206.0011 L 408.041 211.0011 L 408.041 221.0011 L 408.041 231.0011 L 416.7012 226.0011 L 416.7012 216.0011 L 425.3615 221.0011 L 425.3615 231.0011 L 434.0217 236.0011 L 442.682 231.0011 L 451.3423 226.0011 L 442.682 221.0011 L 434.0217 226.0011 L 434.0217 216.0011 L 442.682 211.0011 L 442.682 201.0011 L 434.0217 196.0011 L 434.0218 206.0011 L 425.3615 211.0011 L 425.3615 201.0011 L 425.3615 191.0011 L 434.0218 186.0011 L 442.682 191.0011 L 451.3423 186.0011 L 442.682 181.0011 L 442.682 171.0011 L 451.3423 176.0011 L 460.0025 181.0011 L 460.0025 191.0011 L 451.3423 196.0011 L 451.3423 206.0011 L 451.3423 216.0011 L 460.0025 211.0011 L 460.0025 201.0011 L 468.6628 206.0011 L 468.6628 216.0011 L 460.0025 221.0011 L 460.0025 231.0011 L 468.6628 226.0011 L 477.3231 231.0011 L 468.6628 236.0011 L 460.0025 241.0011 L 451.3423 236.0011 L 442.682 241.0011 L 442.682 251.0012 L 442.682 261.0012 L 451.3423 256.0012 L 451.3423 246.0011 L 460.0025 251.0012 L 460.0025 261.0012 L 468.6628 266.0012 L 477.3231 261.0012 L 485.9833 256.0012 L 477.3231 251.0012 L 468.6628 256.0012 L 468.6628 246.0011 L 477.3231 241.0011 L 485.9833 246.0011 L 494.6436 241.0011 L 485.9833 236.0011 L 485.9833 226.0011 L 494.6436 231.0011 L 503.3039 236.0011 L 503.3039 246.0011 L 494.6436 251.0012 L 494.6436 261.0012 L 503.3039 256.0012 L 511.9641 261.0012 L 503.3039 266.0012 L 494.6436 271.0012 L 485.9833 266.0012 L 477.3231 271.0012 L 477.3231 281.0012 L 485.9833 276.0012 L 494.6436 281.0012 L 485.9833 286.0012 L 477.323 291.0012 L 468.6628 286.0012 L 468.6628 276.0012 L 460.0025 271.0012 L 451.3422 266.0012 L 451.3422 276.0012 L 460.0025 281.0012 L 451.3422 286.0012 L 442.6819 281.0012 L 442.6819 271.0012 L 434.0217 266.0012 L 434.0217 276.0012 L 425.3614 281.0012 L 425.3614 271.0012 L 425.3614 261.0012 L 434.0217 256.0012 L 434.0217 246.0011 L 425.3614 241.0011 L 416.7011 236.0011 L 416.7011 246.0011 L 425.3614 251.0011 L 416.7011 256.0011 L 408.0409 251.0011 L 399.3806 256.0011 L 399.3806 266.0012 L 399.3806 276.0012 L 408.0409 271.0012 L 408.0409 261.0012 L 416.7011 266.0012 L 416.7011 276.0012 L 408.0409 281.0012 L 408.0409 291.0012 L 416.7011 286.0012 L 425.3614 291.0012 L 416.7011 296.0012 L 408.0409 301.0012 L 399.3806 296.0012 L 399.3806 286.0012 L 390.7203 281.0012 L 390.7203 291.0012 L 382.06 296.0012 L 382.06 286.0012 L 382.06 276.0012 L 390.7203 271.0012 L 390.7203 261.0011 L 382.06 256.0011 L 382.06 266.0011 L 373.3997 271.0012 L 373.3997 261.0011 L 373.3997 251.0011 L 382.06 246.0011 L 390.7203 251.0011 L 399.3806 246.0011 L 408.0409 241.0011 L 399.3806 236.0011 L 390.7203 241.0011 L 390.7203 231.0011 L 399.3806 226.001 L 399.3806 216.001 L 390.7203 211.001 L 390.7203 221.001 L 382.06 226.001 L 382.06 216.001 L 382.06 206.001 L 390.7203 201.001 L 390.7203 191.0009 L 382.06 186.0009 L 373.3997 181.0009 L 373.3997 191.0009 L 382.06 196.0009 L 373.3997 201.001 L 364.7395 196.0009 L 356.0792 201.001 L 356.0792 211.001 L 356.0792 221.001 L 364.7395 216.001 L 364.7395 206.001 L 373.3997 211.001 L 373.3997 221.001 L 364.7395 226.001 L 364.7395 236.0011 L 373.3997 231.0011 L 382.06 236.0011 L 373.3997 241.0011 L 364.7394 246.0011 L 356.0792 241.0011 L 356.0792 231.0011 L 347.4189 226.001 L 347.4189 236.0011 L 338.7586 241.0011 L 338.7586 231.0011 L 338.7586 221.001 L 347.4189 216.001 L 347.4189 206.001 L 338.7586 201.0009 L 338.7586 211.001 L 330.0983 216.001 L 330.0983 206.0009 L 330.0983 196.0009 L 338.7586 191.0009 L 347.4189 196.0009 L 356.0792 191.0009 L 364.7395 186.0009 L 356.0792 181.0009 L 347.4189 186.0009 L 347.4189 176.0009 L 356.0792 171.0008 L 364.7395 176.0009 L 373.3998 171.0008 L 364.7395 166.0008 L 364.7395 156.0008 L 373.3997 161.0008 L 382.06 166.0008 L 382.06 176.0009 L 390.7203 181.0009 L 399.3806 176.0009 L 408.0409 171.0009 L 399.3806 166.0008 L 390.7203 171.0009 L 390.7203 161.0008 L 399.3806 156.0008 L 408.0409 161.0008 L 416.7012 156.0008 L 425.3615 151.0008 L 416.7012 146.0008 L 408.0409 151.0008 L 408.0409 141.0007 L 416.7012 136.0007 L 416.7012 126.0007 L 408.0409 121.0007 L 399.3806 116.0006 L 399.3806 126.0007 L 408.0409 131.0007 L 399.3806 136.0007 L 390.7203 131.0007 L 382.06 136.0007 L 382.06 146.0008 L 390.7203 141.0007 L 399.3806 146.0008 L 390.7203 151.0008 L 382.06 156.0008 L 373.3997 151.0008 L 373.3997 141.0007 L 364.7394 136.0007 L 364.7394 146.0007 L 356.0792 151.0008 L 356.0792 141.0007 L 356.0792 131.0007 L 364.7394 126.0007 L 373.3997 131.0007 L 382.06 126.0007 L 390.7203 121.0006 L 382.06 116.0006 L 373.3997 121.0006 L 373.3997 111.0006 L 382.06 106.0006 L 382.06 96.00052 L 373.3997 91.00049 L 373.3997 101.0005 L 364.7394 106.0006 L 364.7394 96.00051 L 364.7394 86.00047 L 373.3997 81.00043 L 373.3997 71.0004 L 364.7394 66.00037 L 356.0792 61.00034 L 356.0792 71.00038 L 364.7394 76.00041 L 356.0792 81.00043 L 347.4189 76.00041 L 338.7585 81.00043 L 338.7585 91.00049 L 338.7585 101.0005 L 347.4189 96.00051 L 347.4189 86.00046 L 356.0792 91.00049 L 356.0792 101.0005 L 347.4189 106.0006 L 347.4189 116.0006 L 356.0792 111.0006 L 364.7394 116.0006 L 356.0792 121.0006 L 347.4189 126.0007 L 338.7585 121.0006 L 338.7585 111.0006 L 330.0983 106.0005 L 330.0983 116.0006 L 321.438 121.0006 L 321.438 111.0006 L 321.438 101.0005 L 330.0983 96.0005 L 330.0983 86.00043 L 321.438 81.00041 L 321.438 91.00047 L 312.7776 96.00049 L 312.7776 86.00043 L 312.7776 76.00038 L 321.438 71.00037 L 330.0983 76.0004 L 338.7586 71.00037 L 347.4189 66.00034 L 338.7586 61.00031 L 330.0983 66.00034 L 330.0983 56.00027 L 338.7586 51.00026 L 338.7586 41.00021 L 330.0983 36.00018 L 330.0983 46.00024 L 321.438 51.00027 L 321.438 41.00021 L 321.438 31.00015 L 330.0983 26.00014 L 330.0983 16.00009 L 321.438 11.00006 L 312.7777 6.000031 L 312.7777 16.00009 L 321.438 21.00012 L 312.7777 26.00015 L 304.1174 21.00012 L 304.1174 11.00006 L 295.4571 6.000031 L 286.7968 1 L 286.7968 11.00006 L 295.4571 16.00009 L 286.7968 21.00012 L 278.1365 16.00009 L 269.4762 21.00012 L 269.4762 31.00018 L 269.4762 41.00024 L 278.1365 36.00021 L 278.1365 26.00015 L 286.7968 31.00018 L 286.7968 41.00024 L 295.4571 46.00027 L 304.1174 41.00024 L 295.4571 36.00021 L 295.4571 26.00015 L 304.1174 31.00018 L 312.7777 36.00021 L 312.7777 46.00027 L 304.1174 51.00031 L 304.1174 61.00037 L 312.7777 56.00034 L 321.438 61.00037 L 312.7777 66.0004 L 304.1174 71.00043 L 295.4571 66.0004 L 295.4571 56.00034 L 286.7968 51.00031 L 278.1365 46.00027 L 278.1365 56.00034 L 286.7968 61.00037 L 278.1365 66.0004 L 269.4762 61.00037 L 269.4762 51.00031 L 260.8159 46.00027 L 260.8159 56.00034 L 252.1556 61.00037 L 252.1556 51.00031 L 252.1556 41.00024 L 260.8159 36.00021 L 260.8159 26.00015 L 252.1556 21.00012 L 243.4953 16.00009 L 243.4953 26.00015 L 252.1556 31.00018 L 243.4953 36.00021 L 234.835 31.00018 L 234.835 21.00012 L 226.1747 16.00009 L 217.5143 11.00006 L 217.5143 21.00012 L 226.1747 26.00015 L 217.5143 31.00018 L 208.854 26.00015 L 200.1937 31.00018 L 200.1937 41.00024 L 200.1937 51.00031 L 208.854 46.00027 L 208.854 36.00021 L 217.5143 41.00024 L 217.5143 51.00031 L 226.1747 56.00034 L 234.835 51.00031 L 226.1747 46.00027 L 226.1747 36.00021 L 234.835 41.00024 L 243.4953 46.00027 L 243.4953 56.00034 L 234.835 61.00037 L 234.835 71.00043 L 243.4953 66.0004 L 252.1556 71.00043 L 243.4953 76.00046 L 234.835 81.00049 L 226.1747 76.00046 L 226.1747 66.0004 L 217.5143 61.00037 L 208.854 56.00034 L 208.854 66.0004 L 217.5143 71.00043 L 208.854 76.00046 L 200.1937 71.00043 L 191.5334 76.00046 L 191.5334 86.00052 L 200.1937 81.00049 L 208.854 86.00052 L 200.1937 91.00055 L 191.5334 96.00058 L 182.8731 91.00055 L 174.2128 96.00058 L 174.2128 106.0006 L 174.2128 116.0007 L 182.8731 111.0007 L 182.8731 101.0006 L 191.5334 106.0006 L 191.5334 116.0007 L 182.8731 121.0007 L 182.8731 131.0008 L 182.8731 141.0009 L 191.5334 136.0008 L 191.5334 126.0008 L 200.1937 131.0008 L 200.1937 141.0009 L 208.854 146.0009 L 217.5143 141.0009 L 226.1747 136.0008 L 217.5143 131.0008 L 208.854 136.0008 L 208.854 126.0008 L 217.5143 121.0007 L 217.5143 111.0007 L 208.854 106.0006 L 208.854 116.0007 L 200.1937 121.0007 L 200.1937 111.0007 L 200.1937 101.0006 L 208.854 96.00058 L 217.5143 101.0006 L 226.1747 96.00058 L 217.5143 91.00055 L 217.5143 81.00049 L 226.1747 86.00052 L 234.835 91.00055 L 234.835 101.0006 L 226.1747 106.0006 L 226.1747 116.0007 L 226.1747 126.0008 L 234.835 121.0007 L 234.835 111.0007 L 243.4953 116.0007 L 243.4953 126.0008 L 252.1556 131.0008 L 260.8159 126.0008 L 252.1556 121.0007 L 252.1556 111.0007 L 260.8159 116.0007 L 269.4762 121.0007 L 269.4762 131.0008 L 278.1365 136.0008 L 286.7968 131.0008 L 295.4571 126.0008 L 286.7968 121.0007 L 278.1365 126.0008 L 278.1365 116.0007 L 286.7968 111.0007 L 286.7968 101.0006 L 278.1365 96.00058 L 269.4762 91.00055 L 269.4762 101.0006 L 278.1365 106.0006 L 269.4762 111.0007 L 260.8159 106.0006 L 260.8159 96.00057 L 252.1556 91.00054 L 252.1556 101.0006 L 243.4953 106.0006 L 243.4953 96.00057 L 243.4953 86.0005 L 252.1556 81.00047 L 260.8159 86.0005 L 269.4762 81.00047 L 260.8159 76.00044 L 260.8159 66.00038 L 269.4762 71.00041 L 278.1365 76.00044 L 278.1365 86.00051 L 286.7968 91.00055 L 295.4571 86.00052 L 286.7968 81.00049 L 286.7968 71.00043 L 295.4571 76.00046 L 304.1174 81.0005 L 304.1174 91.00057 L 295.4571 96.0006 L 295.4571 106.0007 L 295.4571 116.0007 L 304.1174 111.0007 L 304.1174 101.0006 L 312.7777 106.0007 L 312.7777 116.0007 L 304.1174 121.0008 L 304.1174 131.0008 L 312.7777 126.0008 L 321.438 131.0009 L 312.7777 136.0009 L 304.1174 141.0009 L 295.4571 136.0009 L 286.7968 141.0009 L 286.7968 151.001 L 286.7968 161.001 L 295.4571 156.001 L 295.4571 146.0009 L 304.1174 151.001 L 304.1174 161.001 L 312.7777 166.0011 L 321.438 161.001 L 330.0984 156.001 L 321.438 151.001 L 312.7777 156.001 L 312.7777 146.0009 L 321.438 141.0009 L 330.0984 146.0009 L 338.7587 141.0009 L 330.0984 136.0009 L 330.0984 126.0008 L 338.7587 131.0008 L 347.419 136.0009 L 347.419 146.0009 L 338.7587 151.001 L 338.7587 161.0011 L 347.419 156.001 L 356.0793 161.0011 L 347.4189 166.0011 L 338.7586 171.0011 L 330.0983 166.0011 L 321.438 171.0011 L 321.438 181.0012 L 330.0983 176.0012 L 338.7587 181.0012 L 330.0983 186.0012 L 321.438 191.0013 L 312.7777 186.0012 L 312.7777 176.0011 L 304.1174 171.0011 L 295.457 166.0011 L 295.457 176.0011 L 304.1174 181.0012 L 295.457 186.0012 L 286.7967 181.0012 L 286.7967 171.0011 L 278.1364 166.0011 L 278.1364 176.0011 L 269.4761 181.0012 L 269.4761 171.0011 L 269.4761 161.001 L 278.1364 156.001 L 278.1364 146.0009 L 269.4761 141.0009 L 260.8158 136.0008 L 260.8158 146.0009 L 269.4761 151.0009 L 260.8158 156.001 L 252.1555 151.0009 L 252.1555 141.0009 L 243.4952 136.0008 L 234.8349 131.0008 L 234.8349 141.0009 L 243.4952 146.0009 L 234.8348 151.0009 L 226.1745 146.0009 L 217.5142 151.0009 L 217.5142 161.001 L 217.5142 171.0011 L 226.1745 166.0011 L 226.1745 156.001 L 234.8348 161.001 L 234.8348 171.0011 L 243.4952 176.0011 L 252.1555 171.0011 L 243.4952 166.0011 L 243.4952 156.001 L 252.1555 161.001 L 260.8159 166.0011 L 260.8159 176.0011 L 252.1555 181.0012 L 252.1555 191.0013 L 260.8159 186.0012 L 269.4762 191.0013 L 260.8159 196.0013 L 252.1555 201.0013 L 243.4952 196.0013 L 243.4952 186.0012 L 234.8348 181.0012 L 226.1745 176.0011 L 226.1745 186.0012 L 234.8348 191.0013 L 226.1745 196.0013 L 217.5142 191.0013 L 208.8538 196.0013 L 208.8538 206.0014 L 217.5142 201.0013 L 226.1745 206.0014 L 217.5142 211.0014 L 208.8538 216.0015 L 200.1935 211.0014 L 191.5331 216.0015 L 191.5331 226.0016 L 191.5331 236.0016 L 200.1935 231.0016 L 200.1935 221.0015 L 208.8538 226.0016 L 208.8538 236.0016 L 217.5142 241.0017 L 226.1745 236.0016 L 234.8348 231.0016 L 226.1745 226.0016 L 217.5142 231.0016 L 217.5142 221.0015 L 226.1745 216.0015 L 234.8348 221.0015 L 243.4952 216.0015 L 234.8348 211.0014 L 234.8348 201.0013 L 243.4952 206.0014 L 252.1555 211.0014 L 252.1555 221.0015 L 243.4952 226.0016 L 243.4952 236.0016 L 252.1555 231.0016 L 260.8159 236.0016 L 252.1555 241.0017 L 243.4952 246.0017 L 234.8348 241.0017 L 226.1745 246.0017 L 226.1745 256.0018 L 234.8348 251.0018 L 243.4952 256.0018 L 234.8348 261.0019 L 226.1745 266.0019 L 217.5142 261.0019 L 217.5142 251.0018 L 208.8538 246.0017 L 200.1935 241.0017 L 200.1935 251.0018 L 208.8538 256.0018 L 200.1935 261.0019 L 191.5331 256.0018 L 182.8728 261.0019 L 182.8728 271.002 L 191.5331 266.0019 L 200.1935 271.002 L 191.5331 276.002 L 182.8728 281.0021 L 174.2125 276.002 L 165.5521 281.0021 L 165.5521 291.0022 L 165.5521 301.0023 L 174.2125 296.0022 L 174.2125 286.0021 L 182.8728 291.0021 L 182.8728 301.0023 L 174.2125 306.0023 L 174.2125 316.0024 L 174.2125 326.0025 L 182.8728 321.0024 L 182.8728 311.0023 L 191.5331 316.0024 L 191.5331 326.0025 L 200.1935 331.0025 L 208.8538 326.0025 L 217.5142 321.0024 L 208.8538 316.0024 L 200.1935 321.0024 L 200.1935 311.0023 L 208.8538 306.0023 L 208.8538 296.0022 L 200.1935 291.0021 L 200.1935 301.0022 L 191.5331 306.0023 L 191.5331 296.0022 L 191.5331 286.0021 L 200.1935 281.002 L 208.8538 286.0021 L 217.5142 281.002 L 208.8538 276.002 L 208.8538 266.0019 L 217.5142 271.002 L 226.1745 276.002 L 226.1745 286.0021 L 217.5142 291.0021 L 217.5142 301.0022 L 217.5142 311.0023 L 226.1745 306.0023 L 226.1745 296.0022 L 234.8348 301.0022 L 234.8348 311.0023 L 226.1745 316.0024 L 226.1745 326.0025 L 234.8348 321.0024 L 243.4952 326.0025 L 234.8348 331.0025 L 226.1745 336.0026 L 217.5142 331.0025 L 208.8538 336.0026 L 208.8538 346.0027 L 208.8538 356.0028 L 217.5142 351.0027 L 217.5142 341.0026 L 226.1745 346.0027 L 226.1745 356.0028 L 217.5142 361.0028 L 217.5142 371.0029 L 217.5142 381.0031 L 226.1745 376.003 L 226.1745 366.0029 L 234.8348 371.0029 L 234.8348 381.0031 L 243.4952 386.0031 L 252.1555 381.0031 L 260.8159 376.003 L 252.1555 371.003 L 243.4952 376.003 L 243.4952 366.0029 L 252.1555 361.0029 L 252.1555 351.0027 L 243.4952 346.0027 L 243.4952 356.0028 L 234.8348 361.0029 L 234.8348 351.0028 L 234.8348 341.0027 L 243.4952 336.0026 L 252.1555 341.0027 L 260.8159 336.0026 L 252.1555 331.0025 L 252.1555 321.0024 L 260.8159 326.0025 L 269.4762 331.0025 L 269.4762 341.0027 L 260.8159 346.0027 L 260.8159 356.0028 L 260.8159 366.0029 L 269.4762 361.0029 L 269.4762 351.0027 L 278.1365 356.0028 L 278.1365 366.0029 L 286.7969 371.003 L 295.4572 366.0029 L 286.7969 361.0029 L 286.7969 351.0027 L 295.4572 356.0028 L 304.1176 361.0029 L 304.1176 371.003 L 312.7779 376.0031 L 321.4383 371.003 L 330.0986 366.0029 L 321.4383 361.0029 L 312.7779 366.0029 L 312.7779 356.0028 L 321.4383 351.0027 L 330.0986 356.0028 L 338.759 351.0027 L 347.4193 346.0027 L 338.759 341.0026 L 330.0986 346.0027 L 330.0986 336.0026 L 338.759 331.0025 L 338.759 321.0024 L 330.0986 316.0024 L 321.4383 311.0023 L 321.4383 321.0024 L 330.0986 326.0025 L 321.4383 331.0025 L 312.7779 326.0025 L 304.1176 331.0026 L 304.1176 341.0027 L 312.7779 336.0026 L 321.4383 341.0027 L 312.7779 346.0027 L 304.1176 351.0028 L 295.4572 346.0027 L 295.4572 336.0026 L 286.7969 331.0025 L 286.7969 341.0027 L 278.1365 346.0027 L 278.1365 336.0026 L 278.1365 326.0025 L 286.7969 321.0024 L 295.4572 326.0025 L 304.1176 321.0024 L 312.7779 316.0023 L 304.1176 311.0023 L 295.4572 316.0023 L 295.4572 306.0022 L 304.1176 301.0022 L 304.1176 291.002 L 295.4572 286.002 L 295.4572 296.0021 L 286.7969 301.0022 L 286.7969 291.0021 L 286.7969 281.002 L 295.4572 276.0019 L 295.4572 266.0018 L 286.7969 261.0017 L 278.1365 256.0016 L 278.1365 266.0018 L 286.7969 271.0018 L 278.1365 276.0019 L 269.4761 271.0018 L 260.8158 276.0019 L 260.8158 286.002 L 260.8158 296.0021 L 269.4761 291.002 L 269.4761 281.0019 L 278.1365 286.002 L 278.1365 296.0021 L 269.4761 301.0022 L 269.4761 311.0023 L 278.1365 306.0022 L 286.7969 311.0023 L 278.1365 316.0023 L 269.4761 321.0024 L 260.8158 316.0023 L 260.8158 306.0022 L 252.1554 301.0021 L 252.1554 311.0023 L 243.495 316.0023 L 243.495 306.0022 L 243.495 296.0021 L 252.1554 291.002 L 252.1554 281.0019 L 243.495 276.0018 L 243.495 286.002 L 234.8347 291.002 L 234.8347 281.0019 L 234.8347 271.0018 L 243.495 266.0017 L 252.1554 271.0018 L 260.8158 266.0017 L 269.4761 261.0016 L 260.8158 256.0016 L 252.1554 261.0017 L 252.1554 251.0015 L 260.8158 246.0015 L 269.4761 251.0015 L 278.1365 246.0015 L 269.4761 241.0014 L 269.4761 231.0013 L 278.1365 236.0013 L 286.7969 241.0014 L 286.7969 251.0015 L 295.4572 256.0016 L 304.1176 251.0015 L 312.778 246.0015 L 304.1176 241.0014 L 295.4572 246.0015 L 295.4572 236.0013 L 304.1176 231.0013 L 304.1176 221.0011 L 295.4572 216.0011 L 286.7969 211.001 L 286.7969 221.0011 L 295.4572 226.0012 L 286.7969 231.0013 L 278.1365 226.0012 L 278.1365 216.0011 L 269.4761 211.001 L 269.4761 221.0011 L 260.8158 226.0012 L 260.8158 216.0011 L 260.8158 206.0009 L 269.4761 201.0009 L 278.1365 206.0009 L 286.7969 201.0009 L 278.1365 196.0008 L 278.1365 186.0007 L 286.7969 191.0007 L 295.4572 196.0008 L 295.4572 206.001 L 304.1176 211.001 L 312.778 206.001 L 304.1176 201.0009 L 304.1176 191.0008 L 312.778 196.0008 L 321.4384 201.0009 L 321.4384 211.001 L 312.778 216.0011 L 312.778 226.0012 L 312.778 236.0014 L 321.4384 231.0013 L 321.4384 221.0012 L 330.0987 226.0012 L 330.0987 236.0014 L 321.4384 241.0014 L 321.4384 251.0016 L 330.0987 246.0015 L 338.7591 251.0016 L 330.0987 256.0016 L 321.4384 261.0017 L 312.778 256.0016 L 304.1176 261.0017 L 304.1176 271.0018 L 304.1176 281.002 L 312.778 276.0019 L 312.778 266.0017 L 321.4384 271.0018 L 321.4384 281.002 L 312.778 286.002 L 312.778 296.0022 L 312.778 306.0023 L 321.4384 301.0022 L 321.4384 291.0021 L 330.0987 296.0022 L 330.0987 306.0023 L 338.7591 311.0024 L 347.4195 306.0023 L 356.0798 301.0022 L 347.4195 296.0022 L 338.7591 301.0022 L 338.7591 291.0021 L 347.4195 286.002 L 347.4195 276.0019 L 338.7591 271.0018 L 338.7591 281.002 L 330.0987 286.002 L 330.0987 276.0019 L 330.0987 266.0017 L 338.7591 261.0016 L 347.4195 266.0017 L 356.0798 261.0016 L 347.4194 256.0016 L 347.4194 246.0014 L 356.0798 251.0015 L 364.7402 256.0016 L 364.7402 266.0017 L 356.0798 271.0018 L 356.0798 281.002 L 356.0798 291.0021 L 364.7402 286.002 L 364.7402 276.0019 L 373.4006 281.002 L 373.4006 291.0021 L 364.7402 296.0022 L 364.7402 306.0023 L 373.4006 301.0023 L 382.061 306.0023 L 373.4006 311.0024 L 364.7402 316.0025 L 356.0798 311.0024 L 347.4194 316.0024 L 347.4194 326.0026 L 347.4194 336.0027 L 356.0798 331.0027 L 356.0798 321.0025 L 364.7402 326.0026 L 364.7402 336.0027 L 373.4006 341.0028 L 382.061 336.0027 L 390.7214 331.0027 L 382.061 326.0026 L 373.4006 331.0027 L 373.4006 321.0025 L 382.061 316.0024 L 390.7214 321.0025 L 399.3817 316.0024 L 390.7214 311.0024 L 390.7214 301.0022 L 399.3817 306.0023 L 408.0421 311.0024 L 408.0421 321.0025 L 399.3817 326.0026 L 399.3817 336.0027 L 408.0421 331.0027 L 416.7025 336.0027 L 408.0421 341.0028 L 399.3817 346.0029 L 390.7214 341.0028 L 382.061 346.0029 L 382.061 356.0031 L 390.7214 351.003 L 399.3817 356.0031 L 390.7214 361.0031 L 382.061 366.0032 L 373.4006 361.0031 L 373.4006 351.003 L 364.7402 346.0029 L 356.0798 341.0028 L 356.0798 351.003 L 364.7402 356.0031 L 356.0798 361.0031 L 347.4194 356.0031 L 338.759 361.0031 L 338.759 371.0033 L 347.4194 366.0032 L 356.0798 371.0033 L 347.4194 376.0034 L 338.759 381.0034 L 330.0987 376.0034 L 321.4383 381.0034 L 321.4383 391.0036 L 321.4383 401.0037 L 330.0987 396.0037 L 330.0987 386.0035 L 338.759 391.0036 L 338.759 401.0037 L 330.0987 406.0038 L 330.0987 416.004 L 330.0987 426.0041 L 338.759 421.004 L 338.759 411.0039 L 347.4194 416.004 L 347.4194 426.0041 L 356.0798 431.0042 L 364.7402 426.0041 L 373.4006 421.004 L 364.7402 416.004 L 356.0798 421.004 L 356.0798 411.0039 L 364.7402 406.0038 L 364.7402 396.0037 L 356.0798 391.0036 L 356.0798 401.0037 L 347.4194 406.0038 L 347.4194 396.0037 L 347.4194 386.0035 L 356.0798 381.0034 L 364.7402 386.0035 L 373.4006 381.0034 L 364.7402 376.0034 L 364.7402 366.0032 L 373.4006 371.0033 L 382.061 376.0034 L 382.061 386.0035 L 373.4006 391.0036 L 373.4006 401.0038 L 373.4006 411.0039 L 382.061 406.0038 L 382.061 396.0037 L 390.7214 401.0037 L 390.7214 411.0039 L 399.3817 416.004 L 408.0421 411.0039 L 399.3817 406.0038 L 399.3817 396.0037 L 408.0421 401.0037 L 416.7025 406.0038 L 416.7025 416.004 L 425.3629 421.004 L 434.0233 416.004 L 442.6837 411.0039 L 434.0233 406.0038 L 425.3629 411.0039 L 425.3629 401.0037 L 434.0233 396.0037 L 442.6837 401.0037 L 451.3441 396.0037 L 460.0045 391.0036 L 451.3441 386.0035 L 442.6837 391.0036 L 442.6837 381.0034 L 451.3441 376.0033 L 451.3441 366.0032 L 442.6837 361.0031 L 434.0233 356.003 L 434.0233 366.0032 L 442.6837 371.0032 L 434.0233 376.0033 L 425.3629 371.0032 L 416.7025 376.0033 L 416.7025 386.0035 L 425.3629 381.0034 L 434.0233 386.0035 L 425.3629 391.0035 L 416.7025 396.0036 L 408.0421 391.0035 L 408.0421 381.0034 L 399.3817 376.0033 L 399.3817 386.0035 L 390.7213 391.0035 L 390.7213 381.0034 L 390.7213 371.0032 L 399.3817 366.0031 L 408.0421 371.0032 L 416.7025 366.0031 L 425.3629 361.0031 L 416.7025 356.003 L 408.0421 361.0031 L 408.0421 351.0029 L 416.7025 346.0028 L 425.3629 351.0029 L 434.0233 346.0029 L 425.3629 341.0028 L 425.3629 331.0026 L 434.0233 336.0027 L 442.6837 341.0028 L 442.6837 351.003 L 451.3441 356.0031 L 460.0045 351.003 L 468.6649 346.0029 L 460.0045 341.0028 L 451.3441 346.0029 L 451.3441 336.0027 L 460.0045 331.0027 L 460.0045 321.0025 L 451.3441 316.0024 L 442.6837 311.0023 L 442.6837 321.0025 L 451.3441 326.0026 L 442.6837 331.0027 L 434.0233 326.0026 L 434.0233 316.0024 L 425.3629 311.0023 L 425.3629 321.0025 L 416.7025 326.0026 L 416.7025 316.0024 L 416.7025 306.0022 L 425.3629 301.0021 L 434.0233 306.0022 L 442.6837 301.0021 L 434.0233 296.0021 L 434.0233 286.0019 L 442.6837 291.002 L 451.3441 296.0021 L 451.3441 306.0022 L 460.0045 311.0023 L 468.6649 306.0022 L 460.0045 301.0021 L 460.0045 291.002 L 468.6649 296.0021 L 477.3253 301.0021 L 477.3253 311.0023 L 468.6649 316.0024 L 468.6649 326.0026 L 468.6649 336.0027 L 477.3253 331.0027 L 477.3253 321.0025 L 485.9857 326.0026 L 485.9857 336.0027 L 477.3253 341.0028 L 477.3253 351.003 L 485.9857 346.0029 L 494.6461 351.003 L 485.9857 356.0031 L 477.3253 361.0031 L 468.6649 356.0031 L 460.0045 361.0031 L 460.0045 371.0033 L 460.0045 381.0034 L 468.6649 376.0034 L 468.6649 366.0032 L 477.3253 371.0033 L 477.3253 381.0034 L 485.9857 386.0035 L 494.6461 381.0034 L 503.3065 376.0034 L 494.6461 371.0033 L 485.9857 376.0034 L 485.9857 366.0032 L 494.6461 361.0031 L 503.3065 366.0032 L 511.9669 361.0031 L 503.3065 356.003 L 503.3065 346.0028 L 511.9669 351.0029 L 520.6273 356.003 L 520.6273 366.0032 L 511.9669 371.0033 L 511.9669 381.0034 L 520.6273 376.0034 L 529.2877 381.0034 L 520.6273 386.0035 L 511.9669 391.0036 L 503.3065 386.0035 L 494.6461 391.0036 L 494.6461 401.0038 L 503.3065 396.0037 L 511.9669 401.0038 L 503.3065 406.0039 L 494.6461 411.004 L 485.9857 406.0039 L 485.9857 396.0037 L 477.3253 391.0036 L 468.6649 386.0035 L 468.6649 396.0037 L 477.3253 401.0038 L 468.6649 406.0039 L 460.0045 401.0038 L 451.344 406.0039 L 451.344 416.0041 L 460.0045 411.004 L 468.6649 416.0041 L 460.0045 421.0042 L 451.344 426.0043 L 442.6836 421.0042 L 434.0232 426.0043 L 434.0232 436.0045 L 434.0232 446.0046 L 442.6836 441.0045 L 442.6836 431.0044 L 451.344 436.0045 L 451.344 446.0046 L 460.0045 451.0047 L 468.6649 446.0046 L 477.3253 441.0045 L 468.6649 436.0045 L 460.0045 441.0045 L 460.0045 431.0044 L 468.6649 426.0043 L 477.3253 431.0044 L 485.9857 426.0043 L 477.3253 421.0042 L 477.3253 411.004 L 485.9857 416.0041 L 494.6461 421.0042 L 494.6461 431.0044 L 485.9857 436.0045 L 485.9857 446.0046 L 494.6461 441.0045 L 503.3065 446.0046 L 494.6461 451.0047 L 485.9857 456.0048 L 477.3253 451.0047 L 468.6649 456.0048 L 468.6649 466.005 L 477.3253 461.0049 L 485.9857 466.005 L 477.3253 471.0051 L 468.6649 476.0052 L 460.0044 471.0051 L 460.0044 461.0049 L 451.344 456.0048 L 442.6836 451.0047 L 442.6836 461.0049 L 451.344 466.005 L 442.6836 471.0051 L 434.0232 466.005 L 434.0232 456.0048 L 425.3627 451.0047 L 425.3627 461.0049 L 416.7023 466.005 L 416.7023 456.0048 L 416.7023 446.0046 L 425.3627 441.0045 L 425.3627 431.0043 L 416.7023 426.0042 L 408.0419 421.0042 L 408.0419 431.0043 L 416.7023 436.0044 L 408.0419 441.0045 L 399.3815 436.0044 L 399.3815 426.0042 L 390.7211 421.0042 L 382.0607 416.004 L 382.0607 426.0042 L 390.7211 431.0043 L 382.0607 436.0044 L 373.4002 431.0043 L 364.7398 436.0044 L 364.7398 446.0046 L 364.7398 456.0048 L 373.4002 451.0047 L 373.4002 441.0045 L 382.0607 446.0046 L 382.0607 456.0048 L 390.7211 461.0049 L 399.3815 456.0048 L 390.7211 451.0047 L 390.7211 441.0045 L 399.3815 446.0046 L 408.0419 451.0047 L 408.0419 461.0049 L 399.3815 466.005 L 399.3815 476.0052 L 408.0419 471.0051 L 416.7023 476.0052 L 408.0419 481.0053 L 399.3815 486.0054 L 390.7211 481.0053 L 390.7211 471.0051 L 382.0607 466.005 L 373.4002 461.0049 L 373.4002 471.0051 L 382.0607 476.0052 L 373.4003 481.0053 L 364.7398 476.0052 L 364.7398 466.005 L 356.0794 461.0049 L 356.0794 471.0051 L 347.419 476.0052 L 347.419 466.005 L 347.419 456.0048 L 356.0794 451.0047 L 356.0794 441.0045 L 347.419 436.0044 L 338.7586 431.0043 L 338.7586 441.0045 L 347.419 446.0046 L 338.7586 451.0047 L 330.0982 446.0046 L 321.4378 451.0047 L 321.4378 461.0049 L 321.4378 471.0051 L 330.0982 466.005 L 330.0982 456.0048 L 338.7586 461.0049 L 338.7586 471.0051 L 330.0982 476.0052 L 330.0982 486.0054 L 338.7586 481.0053 L 347.419 486.0054 L 338.7586 491.0055 L 330.0982 496.0056 L 321.4377 491.0055 L 321.4377 481.0053 L 312.7773 476.0052 L 312.7773 486.0054 L 304.1169 491.0055 L 304.1169 481.0053 L 304.1169 471.0051 L 312.7773 466.005 L 312.7773 456.0048 L 304.1169 451.0047 L 304.1169 461.0049 L 295.4565 466.005 L 295.4565 456.0048 L 295.4565 446.0046 L 304.1169 441.0045 L 312.7773 446.0046 L 321.4378 441.0045 L 330.0982 436.0045 L 321.4378 431.0043 L 312.7774 436.0044 L 312.7774 426.0042 L 321.4378 421.0042 L 321.4378 411.0039 L 312.7774 406.0038 L 312.7774 416.004 L 304.1169 421.0041 L 304.1169 411.0039 L 304.1169 401.0037 L 312.7774 396.0036 L 312.7774 386.0034 L 304.1169 381.0033 L 295.4565 376.0032 L 295.4565 386.0034 L 304.1169 391.0035 L 295.4565 396.0036 L 286.7961 391.0035 L 286.7961 381.0033 L 278.1357 376.0032 L 269.4752 371.0031 L 269.4752 381.0033 L 278.1357 386.0034 L 269.4752 391.0035 L 260.8148 386.0034 L 252.1544 391.0035 L 252.1544 401.0037 L 252.1544 411.0039 L 260.8148 406.0038 L 260.8148 396.0036 L 269.4752 401.0037 L 269.4752 411.0039 L 278.1357 416.004 L 286.7961 411.0039 L 278.1357 406.0038 L 278.1357 396.0036 L 286.7961 401.0037 L 295.4565 406.0038 L 295.4565 416.004 L 286.7961 421.0042 L 286.7961 431.0043 L 295.4565 426.0042 L 304.1169 431.0043 L 295.4565 436.0045 L 286.7961 441.0045 L 278.1357 436.0045 L 278.1357 426.0042 L 269.4752 421.0042 L 260.8148 416.004 L 260.8148 426.0042 L 269.4752 431.0043 L 260.8148 436.0045 L 252.1544 431.0043 L 243.4939 436.0045 L 243.4939 446.0047 L 252.1544 441.0046 L 260.8148 446.0047 L 252.1544 451.0048 L 243.4939 456.0049 L 234.8335 451.0048 L 226.1731 456.0049 L 226.1731 466.0051 L 226.1731 476.0053 L 234.8335 471.0052 L 234.8335 461.005 L 243.4939 466.0051 L 243.4939 476.0053 L 234.8335 481.0054 L 234.8335 491.0056 L 234.8335 501.0058 L 243.4939 496.0057 L 243.4939 486.0055 L 252.1544 491.0056 L 252.1544 501.0058 L 260.8148 506.0059 L 269.4752 501.0057 L 278.1357 496.0056 L 269.4752 491.0055 L 260.8148 496.0056 L 260.8148 486.0054 L 269.4752 481.0053 L 269.4752 471.0051 L 260.8148 466.005 L 260.8148 476.0052 L 252.1544 481.0053 L 252.1544 471.0051 L 252.1544 461.0049 L 260.8148 456.0048 L 269.4752 461.0049 L 278.1357 456.0048 L 269.4752 451.0047 L 269.4752 441.0045 L 278.1357 446.0046 L 286.7961 451.0047 L 286.7961 461.0049 L 278.1357 466.005 L 278.1357 476.0052 L 278.1357 486.0055 L 286.7961 481.0053 L 286.7961 471.0051 L 295.4565 476.0052 L 295.4565 486.0055 L 286.7961 491.0056 L 286.7961 501.0058 L 295.4565 496.0057 L 304.117 501.0058 L 295.4565 506.0059 L 286.7961 511.006 L 278.1357 506.0059 L 269.4752 511.006 L 269.4752 521.0062 L 269.4752 531.0065 L 278.1357 526.0063 L 278.1357 516.0061 L 286.7961 521.0062 L 286.7961 531.0065 L 295.4566 536.0066 L 304.117 531.0065 L 312.7775 526.0063 L 304.117 521.0062 L 295.4566 526.0063 L 295.4566 516.0061 L 304.117 511.006 L 312.7775 516.0061 L 321.4379 511.006 L 312.7775 506.0059 L 312.7775 496.0057 L 321.4379 501.0058 L 330.0984 506.0059 L 330.0984 516.0061 L 321.4379 521.0062 L 321.4379 531.0065 L 330.0984 526.0063 L 338.7588 531.0065 L 330.0984 536.0066 L 321.4379 541.0067 L 312.7775 536.0066 L 304.117 541.0067 L 304.117 551.007 L 312.7775 546.0068 L 321.4379 551.007 L 312.7775 556.0071 L 304.117 561.0072 L 295.4565 556.0071 L 295.4565 546.0068 L 286.7961 541.0067 L 278.1357 536.0066 L 278.1357 546.0068 L 286.7961 551.007 L 278.1357 556.0071 L 269.4752 551.007 L 269.4752 541.0067 L 260.8147 536.0066 L 260.8147 546.0068 L 252.1543 551.007 L 252.1543 541.0067 L 252.1543 531.0065 L 260.8147 526.0063 L 260.8147 516.0061 L 252.1543 511.006 L 243.4938 506.0059 L 243.4938 516.0061 L 252.1543 521.0062 L 243.4938 526.0063 L 234.8333 521.0062 L 226.1729 526.0063 L 226.1729 536.0066 L 226.1729 546.0068 L 234.8333 541.0067 L 234.8333 531.0065 L 243.4938 536.0066 L 243.4938 546.0068 L 234.8333 551.007 L 234.8333 561.0072 L 243.4938 556.0071 L 252.1543 561.0072 L 243.4938 566.0073 L 234.8333 571.0074 L 226.1729 566.0073 L 226.1729 556.0071 L 217.5124 551.007 L 217.5124 561.0072 L 208.852 566.0073 L 208.852 556.0071 L 208.852 546.0068 L 217.5124 541.0067 L 217.5124 531.0065 L 208.852 526.0063 L 208.852 536.0066 L 200.1915 541.0067 L 200.1915 531.0065 L 200.1915 521.0062 L 208.852 516.0061 L 217.5124 521.0062 L 226.1729 516.0061 L 234.8333 511.006 L 226.1729 506.0059 L 217.5124 511.006 L 217.5124 501.0057 L 226.1729 496.0056 L 226.1729 486.0054 L 217.5124 481.0052 L 217.5124 491.0055 L 208.852 496.0056 L 208.852 486.0054 L 208.852 476.0051 L 217.5124 471.005 L 217.5124 461.0048 L 208.852 456.0046 L 200.1915 451.0045 L 200.1915 461.0048 L 208.852 466.0049 L 200.1915 471.005 L 191.531 466.0049 L 182.8706 471.005 L 182.8706 481.0052 L 182.8706 491.0055 L 191.531 486.0054 L 191.531 476.0051 L 200.1915 481.0052 L 200.1915 491.0055 L 191.531 496.0056 L 191.531 506.0059 L 200.1915 501.0057 L 208.852 506.0059 L 200.1915 511.006 L 191.531 516.0061 L 182.8706 511.006 L 182.8706 501.0057 L 174.2101 496.0056 L 174.2101 506.0059 L 165.5497 511.006 L 165.5497 501.0057 L 165.5497 491.0055 L 174.2101 486.0054 L 174.2101 476.0051 L 165.5497 471.005 L 165.5497 481.0052 L 156.8892 486.0054 L 156.8892 476.0051 L 156.8892 466.0049 L 165.5497 461.0048 L 174.2101 466.0049 L 182.8706 461.0048 L 191.531 456.0046 L 182.8706 451.0045 L 174.2101 456.0046 L 174.2101 446.0044 L 182.8706 441.0043 L 191.531 446.0044 L 200.1915 441.0043 L 191.531 436.0042 L 191.531 426.0039 L 200.1915 431.004 L 208.852 436.0042 L 208.852 446.0044 L 217.5124 451.0045 L 226.1729 446.0044 L 234.8333 441.0043 L 226.1729 436.0042 L 217.5124 441.0043 L 217.5124 431.004 L 226.1729 426.0039 L 234.8333 431.004 L 243.4938 426.0039 L 252.1543 421.0038 L 243.4938 416.0037 L 234.8333 421.0038 L 234.8333 411.0035 L 243.4938 406.0034 L 243.4938 396.0031 L 234.8333 391.003 L 226.1729 386.0029 L 226.1729 396.0032 L 234.8333 401.0033 L 226.1729 406.0034 L 217.5124 401.0033 L 208.852 406.0034 L 208.852 416.0037 L 217.5124 411.0035 L 226.1729 416.0037 L 217.5124 421.0038 L 208.852 426.0039 L 200.1915 421.0038 L 200.1915 411.0035 L 191.531 406.0034 L 191.531 416.0037 L 182.8706 421.0038 L 182.8706 411.0035 L 182.8706 401.0033 L 191.5311 396.0031 L 200.1915 401.0033 L 208.852 396.0032 L 217.5125 391.0031 L 208.8521 386.0029 L 200.1916 391.003 L 200.1916 381.0027 L 208.8521 376.0026 L 208.8521 366.0024 L 200.1916 361.0023 L 200.1916 371.0025 L 191.5311 376.0026 L 191.5311 366.0024 L 191.5311 356.0021 L 200.1916 351.002 L 200.1916 341.0017 L 191.5311 336.0016 L 182.8706 331.0015 L 182.8706 341.0017 L 191.5311 346.0019 L 182.8706 351.002 L 174.2101 346.0018 L 165.5496 351.002 L 165.5496 361.0022 L 165.5496 371.0025 L 174.2101 366.0023 L 174.2101 356.0021 L 182.8706 361.0022 L 182.8706 371.0025 L 174.2101 376.0026 L 174.2101 386.0029 L 182.8706 381.0027 L 191.5311 386.0029 L 182.8706 391.003 L 174.2101 396.0032 L 165.5496 391.003 L 165.5496 381.0027 L 156.8891 376.0026 L 156.8891 386.0029 L 148.2286 391.003 L 148.2286 381.0027 L 148.2286 371.0025 L 156.8891 366.0023 L 156.8891 356.0021 L 148.2286 351.002 L 148.2286 361.0022 L 139.5681 366.0023 L 139.5681 356.0021 L 139.5681 346.0018 L 148.2286 341.0016 L 156.8891 346.0018 L 165.5496 341.0016 L 174.2101 336.0015 L 165.5496 331.0014 L 156.8891 336.0015 L 156.8891 326.0013 L 165.5496 321.0011 L 165.5496 311.0009 L 156.8891 306.0007 L 156.8891 316.001 L 148.2286 321.0011 L 148.2286 311.0009 L 148.2286 301.0006 L 156.8891 296.0005 L 156.8891 286.0002 L 148.2286 281.0001 L 139.5681 275.9999 L 139.5681 286.0002 L 148.2286 291.0003 L 139.5681 296.0005 L 130.9077 291.0003 L 130.9077 281.0001 L 122.2472 275.9999 L 113.5867 270.9998 L 113.5867 281.0001 L 122.2472 286.0002 L 113.5867 291.0003 L 104.9262 286.0002 L 96.26569 291.0003 L 96.26569 301.0006 L 96.26569 311.0009 L 104.9262 306.0007 L 104.9262 296.0005 L 113.5867 301.0006 L 113.5867 311.0009 L 122.2472 316.001 L 130.9077 311.0009 L 122.2472 306.0007 L 122.2472 296.0005 L 130.9077 301.0006 L 139.5681 306.0007 L 139.5681 316.001 L 130.9077 321.0012 L 130.9077 331.0014 L 139.5681 326.0013 L 148.2286 331.0014 L 139.5681 336.0016 L 130.9077 341.0017 L 122.2472 336.0016 L 122.2472 326.0013 L 113.5867 321.0012 L 104.9262 316.001 L 104.9262 326.0013 L 113.5867 331.0014 L 104.9262 336.0016 L 96.26569 331.0014 L 87.60519 336.0016 L 87.60519 346.0018 L 96.26569 341.0017 L 104.9262 346.0018 L 96.26569 351.002 L 87.60519 356.0021 L 78.9447 351.002 L 70.28421 356.0021 L 70.28421 366.0024 L 70.28421 376.0027 L 78.9447 371.0025 L 78.9447 361.0023 L 87.60519 366.0024 L 87.60519 376.0027 L 78.9447 381.0028 L 78.9447 391.0031 L 78.9447 401.0034 L 87.60519 396.0032 L 87.60519 386.0029 L 96.26569 391.0031 L 96.26569 401.0034 L 104.9262 406.0035 L 113.5867 401.0034 L 122.2472 396.0032 L 113.5867 391.0031 L 104.9262 396.0032 L 104.9262 386.0029 L 113.5867 381.0028 L 113.5867 371.0025 L 104.9262 366.0024 L 104.9262 376.0027 L 96.26569 381.0028 L 96.26569 371.0025 L 96.26569 361.0023 L 104.9262 356.0021 L 113.5867 361.0023 L 122.2472 356.0021 L 113.5867 351.002 L 113.5867 341.0017 L 122.2472 346.0018 L 130.9077 351.002 L 130.9077 361.0023 L 122.2472 366.0024 L 122.2472 376.0027 L 122.2472 386.0029 L 130.9077 381.0028 L 130.9077 371.0025 L 139.5681 376.0027 L 139.5681 386.0029 L 130.9077 391.0031 L 130.9077 401.0034 L 139.5681 396.0032 L 148.2286 401.0034 L 139.5681 406.0035 L 130.9077 411.0036 L 122.2472 406.0035 L 113.5867 411.0036 L 113.5867 421.0039 L 113.5867 431.0042 L 122.2472 426.004 L 122.2472 416.0038 L 130.9077 421.0039 L 130.9077 431.0042 L 139.5681 436.0043 L 148.2286 431.0042 L 156.8891 426.004 L 148.2286 421.0039 L 139.5681 426.004 L 139.5681 416.0038 L 148.2286 411.0036 L 156.8891 416.0038 L 165.5496 411.0036 L 156.8891 406.0035 L 156.8891 396.0032 L 165.5496 401.0033 L 174.2101 406.0035 L 174.2101 416.0038 L 165.5496 421.0039 L 165.5496 431.0042 L 174.2101 426.004 L 182.8706 431.0042 L 174.2101 436.0043 L 165.5496 441.0045 L 156.8891 436.0043 L 148.2286 441.0045 L 148.2286 451.0047 L 156.8891 446.0046 L 165.5496 451.0047 L 156.8891 456.0049 L 148.2286 461.005 L 139.5681 456.0049 L 139.5681 446.0046 L 130.9077 441.0044 L 122.2472 436.0043 L 122.2472 446.0045 L 130.9077 451.0047 L 122.2472 456.0048 L 113.5867 451.0047 L 113.5867 441.0044 L 104.9262 436.0042 L 104.9262 446.0045 L 96.26569 451.0046 L 96.26569 441.0044 L 96.26569 431.0041 L 104.9262 426.0039 L 104.9262 416.0037 L 96.26572 411.0035 L 87.60522 406.0034 L 87.60522 416.0036 L 96.26572 421.0038 L 87.60522 426.0039 L 78.94473 421.0038 L 70.28421 426.0039 L 70.28421 436.0042 L 70.28421 446.0045 L 78.9447 441.0043 L 78.9447 431.004 L 87.60519 436.0042 L 87.60519 446.0045 L 78.94467 451.0046 L 78.94467 461.0049 L 87.60516 456.0048 L 96.26569 461.0049 L 87.60516 466.0051 L 78.94464 471.0052 L 70.28415 466.0051 L 70.28415 456.0048 L 61.62366 451.0046 L 61.62366 461.0049 L 52.96313 466.0051 L 52.96313 456.0048 L 52.96313 446.0045 L 61.62366 441.0043 L 61.62366 431.0041 L 52.96313 426.0039 L 52.96313 436.0042 L 44.30261 441.0043 L 44.30261 431.0041 L 44.30261 421.0038 L 52.96313 416.0036 L 61.62363 421.0038 L 70.28415 416.0037 L 78.94467 411.0035 L 70.28415 406.0034 L 61.62363 411.0035 L 61.62363 401.0032 L 70.28415 396.0031 L 70.28415 386.0028 L 61.62363 381.0026 L 61.62363 391.0029 L 52.9631 396.0031 L 52.9631 386.0028 L 52.9631 376.0025 L 61.62363 371.0023 L 61.62363 361.002 L 52.9631 356.0019 L 44.30258 351.0017 L 44.30258 361.002 L 52.9631 366.0022 L 44.30258 371.0023 L 35.64206 366.0022 L 26.98154 371.0023 L 26.98154 381.0026 L 26.98154 391.0029 L 35.64206 386.0028 L 35.64206 376.0025 L 44.30258 381.0026 L 44.30258 391.0029 L 35.64206 396.0031 L 35.64206 406.0034 L 44.30258 401.0032 L 52.9631 406.0034 L 44.30258 411.0035 L 35.64206 416.0037 L 26.98154 411.0035 L 26.98154 401.0032 L 18.32104 396.0031 L 18.32104 406.0034 L 9.660522 411.0035 L 9.660522 401.0032 L 9.660522 391.0029 L 18.32104 386.0028 L 18.32104 376.0025 L 9.660522 371.0023 L 9.660522 381.0026 L 1 386.0028 L 1 376.0025 L 1 366.0022 L 9.660522 361.002 L 18.32104 366.0022 L 26.98157 361.002 L 35.64209 356.0019 L 26.98157 351.0017 L 18.32104 356.0019 L 18.32104 346.0016 L 26.98157 341.0014 L 35.64209 346.0016 L 44.30261 341.0014 L 35.64209 336.0013 L 35.64209 326.0009 L 44.30261 331.0011 L 52.96313 336.0013 L 52.96313 346.0016 L 61.62366 351.0017 L 70.28418 346.0016 L 78.9447 341.0014 L 70.28418 336.0013 L 61.62366 341.0014 L 61.62366 331.0011 L 70.28418 326.001 L 78.9447 331.0011 L 87.60522 326.001 L 96.26575 321.0008 L 87.60522 316.0007 L 78.9447 321.0008 L 78.9447 311.0005 L 87.60522 306.0003 L 87.60522 296 L 78.9447 290.9999 L 70.28418 285.9997 L 70.28418 296 L 78.9447 301.0002 L 70.28418 306.0003 L 61.62366 301.0002 L 52.96313 306.0003 L 52.96313 316.0006 L 61.62366 311.0005 L 70.28418 316.0006 L 61.62366 321.0008 L 52.96313 326.001 L 44.30261 321.0008 L 44.30261 311.0005 L 35.64209 306.0003 L 35.64209 316.0006 L 26.98157 321.0008 L 26.98157 311.0005 L 26.98157 301.0002 L 35.64209 296 L 44.30261 301.0002 L 52.96313 296 L 61.62366 290.9998 L 52.96313 285.9997 L 44.30261 290.9998 L 44.30261 280.9995 L 52.96313 275.9994 L 61.62366 280.9995 L 70.28418 275.9994 L 61.62366 270.9992 L 61.62366 260.9989 L 70.28418 265.9991 L 78.9447 270.9993 L 78.9447 280.9996 L 87.60522 285.9997 L 96.26575 280.9996 L 104.9263 275.9994 L 96.26575 270.9993 L 87.60522 275.9994 L 87.60522 265.9991 L 96.26575 260.9989 L 96.26575 250.9986 L 87.60522 245.9985 L 78.9447 240.9983 L 78.9447 250.9986 L 87.60522 255.9988 L 78.9447 260.9989 L 70.28418 255.9988 L 70.28418 245.9985 L 61.62366 240.9983 L 61.62366 250.9986 L 52.96313 255.9988 L 52.96313 245.9985 L 52.96313 235.9981 L 61.62366 230.998 L 70.28418 235.9982 L 78.9447 230.998 L 70.28418 225.9978 L 70.28418 215.9975 L 78.9447 220.9977 L 87.60522 225.9978 L 87.60522 235.9982 L 96.26575 240.9983 L 104.9263 235.9982 L 96.26575 230.998 L 96.26575 220.9977 L 104.9263 225.9978 L 113.5868 230.998 L 113.5868 240.9983 L 104.9263 245.9985 L 104.9263 255.9988 L 104.9263 265.9991 L 113.5868 260.999 L 113.5868 250.9987 L 122.2473 255.9988 L 122.2473 265.9991 L 130.9078 270.9993 L 139.5684 265.9991 L 130.9078 260.999 L 130.9078 250.9987 L 139.5684 255.9988 L 148.2289 260.999 L 148.2289 270.9993 L 156.8894 275.9995 L 165.5499 270.9993 L 174.2104 265.9992 L 165.5499 260.999 L 156.8894 265.9992 L 156.8894 255.9988 L 165.5499 250.9987 L 174.2104 255.9989 L 182.871 250.9987 L 191.5315 245.9985 L 182.871 240.9984 L 174.2104 245.9985 L 174.2104 235.9982 L 182.871 230.998 L 182.871 220.9977 L 174.2105 215.9975 L 165.55 210.9974 L 165.55 220.9977 L 174.2105 225.9979 L 165.55 230.998 L 156.8894 225.9979 L 148.2289 230.998 L 148.2289 240.9984 L 156.8894 235.9982 L 165.55 240.9984 L 156.8894 245.9985 L 148.2289 250.9987 L 139.5683 245.9985 L 139.5683 235.9982 L 130.9078 230.998 L 130.9078 240.9984 L 122.2472 245.9985 L 122.2472 235.9982 L 122.2472 225.9978 L 130.9078 220.9977 L 139.5683 225.9979 L 148.2289 220.9977 L 156.8894 215.9975 L 148.2289 210.9974 L 139.5683 215.9975 L 139.5683 205.9972 L 148.2289 200.997 L 156.8894 205.9972 L 165.55 200.997 L 156.8894 195.9969 L 156.8894 185.9965 L 165.55 190.9967 L 174.2105 195.9969 L 174.2105 205.9972 L 182.8711 210.9974 L 191.5316 205.9972 L 200.1922 200.997 L 191.5316 195.9969 L 182.8711 200.997 L 182.8711 190.9967 L 191.5316 185.9965 L 200.1922 190.9967 L 208.8528 185.9965 L 217.5133 180.9964 L 208.8528 175.9962 L 200.1922 180.9964 L 200.1922 170.996 L 208.8528 165.9959 L 208.8528 155.9955 L 200.1922 150.9954 L 191.5316 145.9952 L 191.5316 155.9955 L 200.1922 160.9957 L 191.5316 165.9959 L 182.8711 160.9957 L 174.2105 165.9959 L 174.2105 175.9962 L 182.8711 170.996 L 191.5316 175.9962 L 182.8711 180.9964 L 174.2105 185.9966 L 165.55 180.9964 L 165.55 170.996 L 156.8894 165.9959 L 156.8894 175.9962 L 148.2289 180.9964 L 148.2289 170.996 L 148.2289 160.9957 L 156.8894 155.9955 L 165.55 160.9957 L 174.2105 155.9955 L 182.8711 150.9954 L 174.2105 145.9952 L 165.55 150.9954 L 165.55 140.995 L 174.2105 135.9948 L 174.2105 125.9945 L 165.55 120.9943 L 165.55 130.9947 L 156.8894 135.9948 L 156.8894 125.9945 L 156.8894 115.9942 L 165.55 110.994 L 165.55 100.9937 L 156.8894 95.99348 L 148.2289 90.99331 L 148.2289 100.9937 L 156.8894 105.9938 L 148.2289 110.994 L 139.5683 105.9938 L 139.5683 95.99349 L 130.9078 90.99332 L 122.2472 85.99315 L 122.2472 95.99349 L 130.9078 100.9937 L 122.2472 105.9938 L 113.5867 100.9937 L 104.9261 105.9938 L 104.9261 115.9942 L 104.9261 125.9945 L 113.5867 120.9944 L 113.5867 110.994 L 122.2472 115.9942 L 122.2472 125.9945 L 130.9078 130.9947 L 139.5683 125.9945 L 130.9078 120.9943 L 130.9078 110.994 L 139.5683 115.9942 L 148.2289 120.9943 L 148.2289 130.9947 L 139.5683 135.9949 L 139.5683 145.9952 L 148.2289 140.995 L 156.8894 145.9952 L 148.2289 150.9954 L 139.5683 155.9955 L 130.9078 150.9954 L 130.9078 140.995 L 122.2472 135.9949 L 113.5867 130.9947 L 113.5867 140.995 L 122.2472 145.9952 L 113.5867 150.9954 L 104.9261 145.9952 L 96.26556 150.9954 L 96.26556 160.9957 L 104.9261 155.9956 L 113.5867 160.9957 L 104.9261 165.9959 L 96.26556 170.9961 L 87.60501 165.9959 L 78.94446 170.9961 L 78.94446 180.9964 L 78.94446 190.9968 L 87.60501 185.9966 L 87.60501 175.9963 L 96.26556 180.9964 L 96.26556 190.9968 L 104.9261 195.9969 L 113.5867 190.9968 L 122.2472 185.9966 L 113.5867 180.9964 L 104.9261 185.9966 L 104.9261 175.9962 L 113.5867 170.9961 L 122.2472 175.9962 L 130.9078 170.9961 L 122.2472 165.9959 L 122.2472 155.9955 L 130.9078 160.9957 L 139.5683 165.9959 L 139.5683 175.9962 L 130.9078 180.9964 L 130.9078 190.9968 L 139.5683 185.9966 L 148.2289 190.9968 L 139.5683 195.9969 L 130.9078 200.9971 L 122.2472 195.9969 L 113.5867 200.9971 L 113.5867 210.9975 L 122.2472 205.9973 L 130.9078 210.9975 L 122.2472 215.9977 L 113.5867 220.9978 L 104.9261 215.9977 L 104.9261 205.9973 L 96.26556 200.9971 L 87.60501 195.9969 L 87.60501 205.9973 L 96.26556 210.9975 L 87.60501 215.9977 L 78.94446 210.9975 L 78.94446 200.9971 L 70.28391 195.9969 L 70.28391 205.9973 L 61.62335 210.9975 L 61.62335 200.9971 L 61.62335 190.9968 L 70.28391 185.9966 L 70.28391 175.9962 L 61.62335 170.9961 L 52.9628 165.9959 L 52.9628 175.9962 L 61.62335 180.9964 L 52.9628 185.9966 L 44.30225 180.9964 L 35.64169 185.9966 L 35.64169 195.997 L 35.64169 205.9973 L 44.30225 200.9971 L 44.30225 190.9968 L 52.96283 195.9969 L 52.96283 205.9973 L 44.30228 210.9975 L 44.30228 220.9979 L 52.96283 215.9977 L 61.62341 220.9979 L 52.96283 225.998 L 44.30225 230.9982 L 35.64166 225.998 L 35.64166 215.9977 L 26.98108 210.9975 L 26.98108 220.9979 L 18.3205 225.998 L 18.3205 215.9977 L 18.3205 205.9973 L 26.98108 200.9971 L 26.98108 190.9968 L 18.3205 185.9966 L 18.3205 195.9969 L 9.659912 200.9971 L 9.659912 190.9968 L 9.659912 180.9964 L 18.3205 175.9962 L 26.98108 180.9964 L 35.64166 175.9962 L 44.30225 170.996 L 35.64166 165.9958 L 26.98108 170.996 L 26.98108 160.9957 L 35.64166 155.9955 L 44.30225 160.9957 L 52.96283 155.9955 L 44.30225 150.9953 L 44.30225 140.9949 L 52.96283 145.9951 L 61.62341 150.9953 L 61.62341 160.9957 L 70.284 165.9959 L 78.94458 160.9957 L 87.60516 155.9955 L 78.94458 150.9953 L 70.284 155.9955 L 70.284 145.9951 L 78.94458 140.9949 L 87.60516 145.9951 L 96.26575 140.9949 L 104.9263 135.9948 L 96.26575 130.9946 L 87.60516 135.9948 L 87.60516 125.9944 L 96.26575 120.9942 L 96.26575 110.9939 L 87.60516 105.9937 L 78.94458 100.9935 L 78.94458 110.9939 L 87.60516 115.994 L 78.94458 120.9942 L 70.284 115.994 L 61.62341 120.9942 L 61.62341 130.9946 L 70.284 125.9944 L 78.94458 130.9946 L 70.284 135.9948 L 61.62341 140.9949 L 52.96283 135.9948 L 52.96283 125.9944 L 44.30225 120.9942 L 44.30225 130.9946 L 35.64166 135.9948 L 35.64166 125.9944 L 35.64166 115.994 L 44.30225 110.9938 L 52.96283 115.994 L 61.62341 110.9938 L 70.284 105.9937 L 61.62341 100.9935 L 52.96283 105.9937 L 52.96283 95.99329 L 61.62341 90.9931 " />
  </g>
</svg>
