<?xml version="1.0" encoding="UTF-8" standalone="no"?>
<!DOCTYPE svg PUBLIC "-//W3C//DTD SVG 1.1//EN"
    "http://www.w3.org/Graphics/SVG/1.1/DTD/svg11.dtd">
<svg xmlns="http://www.w3.org/2000/svg" width="539" height="572">
  <desc>gosper LSystem</desc>
  <rect width="100%" height="100%" style="fill: white"/>
  <g stroke="black" fill="none" stroke-width="1">
    <path d="M 537.9355 206 L 537.9355 196 L 529.2752 191 L 529.2752 201 L 520.615 206 L 520.615 196 L 520.615 186 L 529.2752 181 L 529.2752 171 L 520.615 166 L 511.9547 161 L 511.9547 171 L 520.615 176 L 511.9547 181 L 503.2945 176 L 494.6342 181 L 494.6342 191 L 494.6342 201 L 503.2945 196 L 503.2945 186 L 511.9547 191 L 511.9547 201 L 503.2945 206 L 503.2945 216 L 511.9547 211 L 520.615 216 L 511.9547 221 L 503.2945 226 L 494.6342 221 L 494.6342 211 L 485.974 206 L 485.974 216 L 477.3137 221 L 477.3137 211 L 477.3137 201 L 485.974 196 L 485.974 186 L 477.3138 181 L 477.3138 191 L 468.6535 196 L 468.6535 186 L 468.6535 176 L 477.3138 171 L 485.974 176 L 494.6343 171 L 503.2945 166 L 494.6343 161 L 485.974 166 L 485.974 156 L 494.6343 151 L 494.6343 141 L 485.974 136 L 485.974 146 L 477.3138 151 L 477.3138 141 L 477.3138 131 L 485.974 126 L 485.974 116 L 477.3138 111 L 468.6535 106 L 468.6535 116 L 477.3138 121 L 468.6535 126 L 459.9933 121 L 459.9933 111 L 451.333 106 L 442.6727 101 L 442.6727 111 L 451.333 116 L 442.6727 121 L 434.0125 116 L 425.3522 121 L 425.3522 131 L 425.3522 141 L 434.0125 136 L 434.0125 126 L 442.6727 131 L 442.6727 141 L 451.333 146 L 459.9933 141 L 451.333 136 L 451.333 126 L 459.9933 131 L 468.6535 136 L 468.6535 146 L 459.9933 151 L 459.9933 161 L 468.6535 156 L 477.3138 161 L 468.6535 166 L 459.9933 171 L 451.333 166 L 451.333 156 L 442.6727 151 L 434.0125 146 L 434.0125 156 L 442.6727 161 L 434.0125 166 L 425.3522 161 L 416.692 166 L 416.692 176 L 425.3522 171 L 434.0125 176 L 425.3522 181 L 416.692 186 L 408.0317 181 L 399.3715 186 L 399.3715 196 L 399.3715 206 L 408.0317 201 L 408.0317 191 L 416.692 196 L 416.692 206 L 408.0317 211 L 408.0317 221 L 408.0317 231 L 416.692 226 L 416.692 216 L 425.3522 221 L 425.3522 231 L 434.0125 236 L 442.6727 231 L 451.333 226 L 442.6727 221 L 434.0125 226 L 434.0125 216 L 442.6727 211 L 442.6727 201 L 434.0125 196 L 434.0125 206 L 425.3522 211 L 425.3522 201 L 425.3522 191 L 434.0125 186 L 442.6727 191 L 451.333 186 L 442.6727 181 L 442.6727 171 L 451.333 176 L 459.9933 181 L 459.9933 191 L 451.333 196 L 451.333 206 L 451.333 216 L 459.9933 211 L 459.9933 201 L 468.6535 206 L 468.6535 216 L 459.9933 221 L 459.9933 231 L 468.6535 226 L 477.3138 231 L 468.6535 236 L 459.9933 241 L 451.333 236 L 442.6727 241 L 442.6727 251 L 442.6727 261 L 451.333 256 L 451.333 246 L 459.9933 251 L 459.9933 261 L 468.6535 266 L 477.3138 261 L 485.974 256 L 477.3138 251 L 468.6535 256 L 468.6535 246 L 477.3138 241 L 485.974 246 L 494.6343 241 L 485.974 236 L 485.974 226 L 494.6343 231 L 503.2945 236 L 503.2945 246 L 494.6343 251 L 494.6343 261 L 503.2945 256 L 511.9548 261 L 503.2945 266 L 494.6343 271 L 485.974 266 L 477.3138 271 L 477.3138 281 L 485.974 276 L 494.6343 281 L 485.974 286 L 477.3138 291 L 468.6535 286 L 468.6535 276 L 459.9933 271 L 451.333 266 L 451.333 276 L 459.9933 281 L 451.333 286 L 442.6727 281 L 442.6727 271 L 434.0125 266 L 434.0125 276 L 425.3522 281 L 425.3522 271 L 425.3522 261 L 434.0125 256 L 434.0125 246 L 425.3522 241 L 416.692 236 L 416.692 246 L 425.3522 251 L 416.692 256 L 408.0317 251 L 399.3715 256 L 399.3715 266 L 399.3715 276 L 408.0317 271 L 408.0317 261 L 416.692 266 L 416.692 276 L 408.0317 281 L 408.0317 291 L 416.692 286 L 425.3522 291 L 416.692 296 L 408.0317 301 L 399.3715 296 L 399.3715 286 L 390.7112 281 L 390.7112 291 L 382.051 296 L 382.051 286 L 382.051 276 L 390.7112 271 L 390.7112 261 L 382.051 256 L 382.051 266 L 373.3907 271 L 373.3907 261 L 373.3907 251 L 382.051 246 L 390.7112 251 L 399.3715 246 L 408.0317 241 L 399.3715 236 L 390.7112 241 L 390.7112 231 L 399.3715 226 L 399.3715 216 L 390.7112 211 L 390.7112 221 L 382.051 226 L 382.051 216 L 382.051 206 L 390.7112 201 L 390.7112 191 L 382.051 186 L 373.3907 181 L 373.3907 191 L 382.051 196 L 373.3907 201 L 364.7305 196 L 356.0703 201 L 356.0703 211 L 356.0703 221 L 364.7305 216 L 364.7305 206 L 373.3907 211 L 373.3907 221 L 364.7305 226 L 364.7305 236 L 373.3907 231 L 382.051 236 L 373.3907 241 L 364.7305 246 L 356.0703 241 L 356.0703 231 L 347.41 226 L 347.41 236 L 338.7498 241 L 338.7498 231 L 338.7498 221 L 347.41 216 L 347.41 206 L 338.7498 201 L 338.7498 211 L 330.0895 216 L 330.0895 206 L 330.0895 196 L 338.7498 191 L 347.41 196 L 356.0703 191 L 364.7305 186 L 356.0703 181 L 347.41 186 L 347.41 176 L 356.0703 171 L 364.7305 176 L 373.3907 171 L 364.7305 166 L 364.7305 156 L 373.3907 161 L 382.051 166 L 382.051 176 L 390.7112 181 L 399.3715 176 L 408.0317 171 L 399.3715 166 L 390.7112 171 L 390.7112 161 L 399.3715 156 L 408.0317 161 L 416.692 156 L 425.3522 151 L 416.692 146 L 408.0317 151 L 408.0317 141 L 416.692 136 L 416.692 126 L 408.0317 121 L 399.3715 116 L 399.3715 126 L 408.0317 131 L 399.3715 136 L 390.7112 131 L 382.051 136 L 382.051 146 L 390.7112 141 L 399.3715 146 L 390.7112 151 L 382.051 156 L 373.3907 151 L 373.3907 141 L 364.7305 136 L 364.7305 146 L 356.0703 151 L 356.0703 141 L 356.0703 131 L 364.7305 126 L 373.3907 131 L 382.051 126 L 390.7112 121 L 382.051 116 L 373.3907 121 L 373.3907 111 L 382.051 106 L 382.051 96 L 373.3907 91 L 373.3907 101 L 364.7305 106 L 364.7305 96 L 364.7305 86 L 373.3907 81 L 373.3907 71 L 364.7305 66 L 356.0703 61 L 356.0703 71 L 364.7305 76 L 356.0703 81 L 347.41 76 L 338.7498 81 L 338.7498 91 L 338.7498 101 L 347.41 96 L 347.41 86 L 356.0703 91 L 356.0703 101 L 347.41 106 L 347.41 116 L 356.0703 111 L 364.7305 116 L 356.0703 121 L 347.41 126 L 338.7498 121 L 338.7498 111 L 330.0895 106 L 330.0895 116 L 321.4293 121 L 321.4293 111 L 321.4293 101 L 330.0895 96 L 330.0895 86 L 321.4293 81 L 321.4293 91 L 312.769 96 L 312.769 86 L 312.769 76 L 321.4293 71 L 330.0895 76 L 338.7498 71 L 347.41 66 L 338.7498 61 L 330.0895 66 L 330.0895 56 L 338.7498 51 L 338.7498 41 L 330.0895 36 L 330.0895 46 L 321.4293 51 L 321.4293 41 L 321.4293 31 L 330.0895 26 L 330.0895 16 L 321.4293 11 L 312.769 6 L 312.769 16 L 321.4293 21 L 312.769 26 L 304.1088 21 L 304.1088 11 L 295.4485 6 L 286.7883 1 L 286.7883 11 L 295.4485 16 L 286.7883 21 L 278.128 16 L 269.4677 21 L 269.4677 31 L 269.4677 41 L 278.128 36 L 278.128 26 L 286.7882 31 L 286.7882 41 L 295.4485 46 L 304.1087 41 L 295.4485 36 L 295.4485 26 L 304.1087 31 L 312.769 36 L 312.769 46 L 304.1087 51 L 304.1087 61 L 312.769 56 L 321.4292 61 L 312.769 66 L 304.1087 71 L 295.4485 66 L 295.4485 56 L 286.7882 51 L 278.128 46 L 278.128 56 L 286.7882 61 L 278.128 66 L 269.4677 61 L 269.4677 51 L 260.8075 46 L 260.8075 56 L 252.1472 61 L 252.1472 51 L 252.1472 41 L 260.8075 36 L 260.8075 26 L 252.1472 21 L 243.487 16 L 243.487 26 L 252.1472 31 L 243.487 36 L 234.8268 31 L 234.8268 21 L 226.1665 16 L 217.5063 11 L 217.5063 21 L 226.1665 26 L 217.5063 31 L 208.846 26 L 200.1858 31 L 200.1858 41 L 200.1858 51 L 208.846 46 L 208.846 36 L 217.5063 41 L 217.5063 51 L 226.1665 56 L 234.8268 51 L 226.1665 46 L 226.1665 36 L 234.8268 41 L 243.487 46 L 243.487 56 L 234.8268 61 L 234.8268 71 L 243.487 66 L 252.1472 71 L 243.487 76 L 234.8268 81 L 226.1665 76 L 226.1665 66 L 217.5063 61 L 208.846 56 L 208.846 66 L 217.5063 71 L 208.846 76 L 200.1858 71 L 191.5255 76 L 191.5255 86 L 200.1858 81 L 208.846 86 L 200.1858 91 L 191.5255 96 L 182.8653 91 L 174.205 96 L 174.205 106 L 174.205 116 L 182.8653 111 L 182.8653 101 L 191.5255 106 L 191.5255 116 L 182.8653 121 L 182.8653 131 L 182.8653 141 L 191.5255 136 L 191.5255 126 L 200.1858 131 L 200.1858 141 L 208.846 146 L 217.5063 141 L 226.1665 136 L 217.5063 131 L 208.846 136 L 208.846 126 L 217.5063 121 L 217.5063 111 L 208.846 106 L 208.846 116 L 200.1858 121 L 200.1858 111 L 200.1858 101 L 208.846 96 L 217.5063 101 L 226.1665 96 L 217.5063 91 L 217.5063 81 L 226.1665 86 L 234.8268 91 L 234.8268 101 L 226.1665 106 L 226.1665 116 L 226.1665 126 L 234.8268 121 L 234.8268 111 L 243.487 116 L 243.487 126 L 252.1472 131 L 260.8075 126 L 252.1472 121 L 252.1472 111 L 260.8075 116 L 269.4677 121 L 269.4677 131 L 278.128 136 L 286.7882 131 L 295.4485 126 L 286.7882 121 L 278.128 126 L 278.128 116 L 286.7882 111 L 286.7882 101 L 278.128 96 L 269.4677 91 L 269.4677 101 L 278.128 106 L 269.4677 111 L 260.8075 106 L 260.8075 96 L 252.1472 91 L 252.1472 101 L 243.487 106 L 243.487 96 L 243.487 86 L 252.1472 81 L 260.8075 86 L 269.4677 81 L 260.8075 76 L 260.8075 66 L 269.4677 71 L 278.128 76 L 278.128 86 L 286.7882 91 L 295.4485 86 L 286.7882 81 L 286.7882 71 L 295.4485 76 L 304.1087 81 L 304.1087 91 L 295.4485 96 L 295.4485 106 L 295.4485 116 L 304.1087 111 L 304.1087 101 L 312.769 106 L 312.769 116 L 304.1087 121 L 304.1087 131 L 312.769 126 L 321.4292 131 L 312.769 136 L 304.1087 141 L 295.4485 136 L 286.7882 141 L 286.7882 151 L 286.7882 161 L 295.4485 156 L 295.4485 146 L 304.1087 151 L 304.1087 161 L 312.769 166 L 321.4292 161 L 330.0895 156 L 321.4292 151 L 312.769 156 L 312.769 146 L 321.4292 141 L 330.0895 146 L 338.7497 141 L 330.0895 136 L 330.0895 126 L 338.7497 131 L 347.41 136 L 347.41 146 L 338.7497 151 L 338.7497 161 L 347.41 156 L 356.0702 161 L 347.41 166 L 338.7497 171 L 330.0895 166 L 321.4292 171 L 321.4292 181 L 330.0895 176 L 338.7497 181 L 330.0895 186 L 321.4292 191 L 312.769 186 L 312.769 176 L 304.1087 171 L 295.4485 166 L 295.4485 176 L 304.1087 181 L 295.4485 186 L 286.7882 181 L 286.7882 171 L 278.128 166 L 278.128 176 L 269.4677 181 L 269.4677 171 L 269.4677 161 L 278.128 156 L 278.128 146 L 269.4677 141 L 260.8075 136 L 260.8075 146 L 269.4677 151 L 260.8075 156 L 252.1472 151 L 252.1472 141 L 243.487 136 L 234.8268 131 L 234.8268 141 L 243.487 146 L 234.8268 151 L 226.1665 146 L 217.5063 151 L 217.5063 161 L 217.5063 171 L 226.1665 166 L 226.1665 156 L 234.8268 161 L 234.8268 171 L 243.487 176 L 252.1472 171 L 243.487 166 L 243.487 156 L 252.1472 161 L 260.8075 166 L 260.8075 176 L 252.1472 181 L 252.1472 191 L 260.8075 186 L 269.4677 191 L 260.8075 196 L 252.1472 201 L 243.487 196 L 243.487 186 L 234.8268 181 L 226.1665 176 L 226.1665 186 L 234.8268 191 L 226.1665 196 L 217.5063 191 L 208.846 196 L 208.846 206 L 217.5063 201 L 226.1665 206 L 217.5063 211 L 208.846 216 L 200.1858 211 L 191.5255 216 L 191.5255 226 L 191.5255 236 L 200.1858 231 L 200.1858 221 L 208.846 226 L 208.846 236 L 217.5063 241 L 226.1665 236 L 234.8268 231 L 226.1665 226 L 217.5063 231 L 217.5063 221 L 226.1665 216 L 234.8268 221 L 243.487 216 L 234.8268 211 L 234.8268 201 L 243.487 206 L 252.1472 211 L 252.1472 221 L 243.487 226 L 243.487 236 L 252.1472 231 L 260.8075 236 L 252.1472 241 L 243.487 246 L 234.8268 241 L 226.1665 246 L 226.1665 256 L 234.8268 251 L 243.487 256 L 234.8268 261 L 226.1665 266 L 217.5063 261 L 217.5063 251 L 208.846 246 L 200.1858 241 L 200.1858 251 L 208.846 256 L 200.1858 261 L 191.5255 256 L 182.8653 261 L 182.8653 271 L 191.5255 266 L 200.1858 271 L 191.5255 276 L 182.8653 281 L 174.205 276 L 165.5448 281 L 165.5448 291 L 165.5448 301 L 174.205 296 L 174.205 286 L 182.8653 291 L 182.8653 301 L 174.205 306 L 174.205 316 L 174.205 326 L 182.8653 321 L 182.8653 311 L 191.5255 316 L 191.5255 326 L 200.1858 331 L 208.846 326 L 217.5063 321 L 208.846 316 L 200.1858 321 L 200.1858 311 L 208.846 306 L 208.846 296 L 200.1858 291 L 200.1858 301 L 191.5255 306 L 191.5255 296 L 191.5255 286 L 200.1858 281 L 208.846 286 L 217.5063 281 L 208.846 276 L 208.846 266 L 217.5063 271 L 226.1665 276 L 226.1665 286 L 217.5063 291 L 217.5063 301 L 217.5063 311 L 226.1665 306 L 226.1665 296 L 234.8268 301 L 234.8268 311 L 226.1665 316 L 226.1665 326 L 234.8268 321 L 243.487 326 L 234.8268 331 L 226.1665 336 L 217.5063 331 L 208.846 336 L 208.846 346 L 208.846 356 L 217.5063 351 L 217.5063 341 L 226.1665 346 L 226.1665 356 L 217.5063 361 L 217.5063 371 L 217.5063 381 L 226.1665 376 L 226.1665 366 L 234.8268 371 L 234.8268 381 L 243.487 386 L 252.1472 381 L 260.8075 376 L 252.1472 371 L 243.487 376 L 243.487 366 L 252.1472 361 L 252.1472 351 L 243.487 346 L 243.487 356 L 234.8268 361 L 234.8268 351 L 234.8268 341 L 243.487 336 L 252.1472 341 L 260.8075 336 L 252.1472 331 L 252.1472 321 L 260.8075 326 L 269.4677 331 L 269.4677 341 L 260.8075 346 L 260.8075 356 L 260.8075 366 L 269.4677 361 L 269.4677 351 L 278.128 356 L 278.128 366 L 286.7882 371 L 295.4485 366 L 286.7882 361 L 286.7882 351 L 295.4485 356 L 304.1087 361 L 304.1087 371 L 312.769 376 L 321.4292 371 L 330.0895 366 L 321.4292 361 L 312.769 366 L 312.769 356 L 321.4292 351 L 330.0895 356 L 338.7497 351 L 347.41 346 L 338.7497 341 L 330.0895 346 L 330.0895 336 L 338.7497 331 L 338.7497 321 L 330.0895 316 L 321.4292 311 L 321.4292 321 L 330.0895 326 L 321.4292 331 L 312.769 326 L 304.1087 331 L 304.1087 341 L 312.769 336 L 321.4292 341 L 312.769 346 L 304.1087 351 L 295.4485 346 L 295.4485 336 L 286.7882 331 L 286.7882 341 L 278.128 346 L 278.128 336 L 278.128 326 L 286.7882 321 L 295.4485 326 L 304.1087 321 L 312.769 316 L 304.1087 311 L 295.4485 316 L 295.4485 306 L 304.1087 301 L 304.1087 291 L 295.4485 286 L 295.4485 296 L 286.7882 301 L 286.7882 291 L 286.7882 281 L 295.4485 276 L 295.4485 266 L 286.7882 261 L 278.128 256 L 278.128 266 L 286.7882 271 L 278.128 276 L 269.4677 271 L 260.8075 276 L 260.8075 286 L 260.8075 296 L 269.4677 291 L 269.4677 281 L 278.128 286 L 278.128 296 L 269.4677 301 L 269.4677 311 L 278.128 306 L 286.7882 311 L 278.128 316 L 269.4677 321 L 260.8075 316 L 260.8075 306 L 252.1472 301 L 252.1472 311 L 243.487 316 L 243.487 306 L 243.487 296 L 252.1472 291 L 252.1472 281 L 243.487 276 L 243.487 286 L 234.8268 291 L 234.8268 281 L 234.8268 271 L 243.487 266 L 252.1472 271 L 260.8075 266 L 269.4677 261 L 260.8075 256 L 252.1472 261 L 252.1472 251 L 260.8075 246 L 269.4677 251 L 278.128 246 L 269.4677 241 L 269.4677 231 L 278.128 236 L 286.7882 241 L 286.7882 251 L 295.4485 256 L 304.1087 251 L 312.769 246 L 304.1087 241 L 295.4485 246 L 295.4485 236 L 304.1087 231 L 304.1087 221 L 295.4485 216 L 286.7882 211 L 286.7882 221 L 295.4485 226 L 286.7882 231 L 278.128 226 L 278.128 216 L 269.4677 211 L 269.4677 221 L 260.8075 226 L 260.8075 216 L 260.8075 206 L 269.4677 201 L 278.128 206 L 286.7882 201 L 278.128 196 L 278.128 186 L 286.7882 191 L 295.4485 196 L 295.4485 206 L 304.1087 211 L 312.769 206 L 304.1087 201 L 304.1087 191 L 312.769 196 L 321.4292 201 L 321.4292 211 L 312.769 216 L 312.769 226 L 312.769 236 L 321.4292 231 L 321.4292 221 L 330.0895 226 L 330.0895 236 L 321.4292 241 L 321.4292 251 L 330.0895 246 L 338.7497 251 L 330.0895 256 L 321.4292 261 L 312.769 256 L 304.1087 261 L 304.1087 271 L 304.1087 281 L 312.769 276 L 312.769 266 L 321.4292 271 L 321.4292 281 L 312.769 286 L 312.769 296 L 312.769 306 L 321.4292 301 L 321.4292 291 L 330.0895 296 L 330.0895 306 L 338.7497 311 L 347.41 306 L 356.0702 301 L 347.41 296 L 338.7497 301 L 338.7497 291 L 347.41 286 L 347.41 276 L 338.7497 271 L 338.7497 281 L 330.0895 286 L 330.0895 276 L 330.0895 266 L 338.7497 261 L 347.41 266 L 356.0702 261 L 347.41 256 L 347.41 246 L 356.0702 251 L 364.7305 256 L 364.7305 266 L 356.0702 271 L 356.0702 281 L 356.0702 291 L 364.7305 286 L 364.7305 276 L 373.3907 281 L 373.3907 291 L 364.7305 296 L 364.7305 306 L 373.3907 301 L 382.051 306 L 373.3907 311 L 364.7305 316 L 356.0702 311 L 347.41 316 L 347.41 326 L 347.41 336 L 356.0702 331 L 356.0702 321 L 364.7305 326 L 364.7305 336 L 373.3907 341 L 382.051 336 L 390.7112 331 L 382.051 326 L 373.3907 331 L 373.3907 321 L 382.051 316 L 390.7112 321 L 399.3715 316 L 390.7112 311 L 390.7112 301 L 399.3715 306 L 408.0317 311 L 408.0317 321 L 399.3715 326 L 399.3715 336 L 408.0317 331 L 416.692 336 L 408.0317 341 L 399.3715 346 L 390.7112 341 L 382.051 346 L 382.051 356 L 390.7112 351 L 399.3715 356 L 390.7112 361 L 382.051 366 L 373.3907 361 L 373.3907 351 L 364.7305 346 L 356.0702 341 L 356.0702 351 L 364.7305 356 L 356.0702 361 L 347.41 356 L 338.7497 361 L 338.7497 371 L 347.41 366 L 356.0702 371 L 347.41 376 L 338.7497 381 L 330.0895 376 L 321.4292 381 L 321.4292 391 L 321.4292 401 L 330.0895 396 L 330.0895 386 L 338.7497 391 L 338.7497 401 L 330.0895 406 L 330.0895 416 L 330.0895 426 L 338.7497 421 L 338.7497 411 L 347.41 416 L 347.41 426 L 356.0702 431 L 364.7305 426 L 373.3907 421 L 364.7305 416 L 356.0702 421 L 356.0702 411 L 364.7305 406 L 364.7305 396 L 356.0702 391 L 356.0702 401 L 347.41 406 L 347.41 396 L 347.41 386 L 356.0702 381 L 364.7305 386 L 373.3907 381 L 364.7305 376 L 364.7305 366 L 373.3907 371 L 382.051 376 L 382.051 386 L 373.3907 391 L 373.3907 401 L 373.3907 411 L 382.051 406 L 382.051 396 L 390.7112 401 L 390.7112 411 L 399.3715 416 L 408.0317 411 L 399.3715 406 L 399.3715 396 L 408.0317 401 L 416.692 406 L 416.692 416 L 425.3522 421 L 434.0125 416 L 442.6727 411 L 434.0125 406 L 425.3522 411 L 425.3522 401 L 434.0125 396 L 442.6727 401 L 451.333 396 L 459.9932 391 L 451.333 386 L 442.6727 391 L 442.6727 381 L 451.333 376 L 451.333 366 L 442.6727 361 L 434.0125 356 L 434.0125 366 L 442.6727 371 L 434.0125 376 L 425.3522 371 L 416.692 376 L 416.692 386 L 425.3522 381 L 434.0125 386 L 425.3522 391 L 416.692 396 L 408.0317 391 L 408.0317 381 L 399.3715 376 L 399.3715 386 L 390.7112 391 L 390.7112 381 L 390.7112 371 L 399.3715 366 L 408.0317 371 L 416.692 366 L 425.3522 361 L 416.692 356 L 408.0317 361 L 408.0317 351 L 416.692 346 L 425.3522 351 L 434.0125 346 L 425.3522 341 L 425.3522 331 L 434.0125 336 L 442.6727 341 L 442.6727 351 L 451.333 356 L 459.9932 351 L 468.6535 346 L 459.9932 341 L 451.333 346 L 451.333 336 L 459.9932 331 L 459.9932 321 L 451.333 316 L 442.6727 311 L 442.6727 321 L 451.333 326 L 442.6727 331 L 434.0125 326 L 434.0125 316 L 425.3522 311 L 425.3522 321 L 416.692 326 L 416.692 316 L 416.692 306 L 425.3522 301 L 434.0125 306 L 442.6727 301 L 434.0125 296 L 434.0125 286 L 442.6727 291 L 451.333 296 L 451.333 306 L 459.9932 311 L 468.6535 306 L 459.9932 301 L 459.9932 291 L 468.6535 296 L 477.3138 301 L 477.3138 311 L 468.6535 316 L 468.6535 326 L 468.6535 336 L 477.3138 331 L 477.3138 321 L 485.974 326 L 485.974 336 L 477.3138 341 L 477.3138 351 L 485.974 346 L 494.6343 351 L 485.974 356 L 477.3138 361 L 468.6535 356 L 459.9933 361 L 459.9933 371 L 459.9933 381 L 468.6535 376 L 468.6535 366 L 477.3138 371 L 477.3138 381 L 485.974 386 L 494.6343 381 L 503.2945 376 L 494.6343 371 L 485.974 376 L 485.974 366 L 494.6343 361 L 503.2945 366 L 511.9548 361 L 503.2945 356 L 503.2945 346 L 511.9548 351 L 520.6151 356 L 520.6151 366 L 511.9548 371 L 511.9548 381 L 520.6151 376 L 529.2753 381 L 520.6151 386 L 511.9548 391 L 503.2945 386 L 494.6343 391 L 494.6343 401 L 503.2945 396 L 511.9548 401 L 503.2945 406 L 494.6343 411 L 485.974 406 L 485.974 396 L 477.3138 391 L 468.6535 386 L 468.6535 396 L 477.3138 401 L 468.6535 406 L 459.9933 401 L 451.333 406 L 451.333 416 L 459.9933 411 L 468.6535 416 L 459.9933 421 L 451.333 426 L 442.6727 421 L 434.0125 426 L 434.0125 436 L 434.0125 446 L 442.6727 441 L 442.6727 431 L 451.333 436 L 451.333 446 L 459.9933 451 L 468.6535 446 L 477.3138 441 L 468.6535 436 L 459.9933 441 L 459.9933 431 L 468.6535 426 L 477.3138 431 L 485.974 426 L 477.3138 421 L 477.3138 411 L 485.974 416 L 494.6343 421 L 494.6343 431 L 485.974 436 L 485.974 446 L 494.6343 441 L 503.2945 446 L 494.6343 451 L 485.974 456 L 477.3138 451 L 468.6535 456 L 468.6535 466 L 477.3138 461 L 485.974 466 L 477.3138 471 L 468.6535 476 L 459.9933 471 L 459.9933 461 L 451.333 456 L 442.6727 451 L 442.6727 461 L 451.333 466 L 442.6727 471 L 434.0125 466 L 434.0125 456 L 425.3522 451 L 425.3522 461 L 416.692 466 L 416.692 456 L 416.692 446 L 425.3522 441 L 425.3522 431 L 416.692 426 L 408.0317 421 L 408.0317 431 L 416.692 436 L 408.0317 441 L 399.3715 436 L 399.3715 426 L 390.7112 421 L 382.051 416 L 382.051 426 L 390.7112 431 L 382.051 436 L 373.3907 431 L 364.7305 436 L 364.7305 446 L 364.7305 456 L 373.3907 451 L 373.3907 441 L 382.051 446 L 382.051 456 L 390.7112 461 L 399.3715 456 L 390.7112 451 L 390.7112 441 L 399.3715 446 L 408.0317 451 L 408.0317 461 L 399.3715 466 L 399.3715 476 L 408.0317 471 L 416.692 476 L 408.0317 481 L 399.3715 486 L 390.7112 481 L 390.7112 471 L 382.051 466 L 373.3907 461 L 373.3907 471 L 382.051 476 L 373.3907 481 L 364.7305 476 L 364.7305 466 L 356.0703 461 L 356.0703 471 L 347.41 476 L 347.41 466 L 347.41 456 L 356.0703 451 L 356.0703 441 L 347.41 436 L 338.7498 431 L 338.7498 441 L 347.41 446 L 338.7498 451 L 330.0895 446 L 321.4293 451 L 321.4293 461 L 321.4293 471 L 330.0895 466 L 330.0895 456 L 338.7498 461 L 338.7498 471 L 330.0895 476 L 330.0895 486 L 338.7498 481 L 347.41 486 L 338.7498 491 L 330.0895 496 L 321.4293 491 L 321.4293 481 L 312.769 476 L 312.769 486 L 304.1088 491 L 304.1088 481 L 304.1088 471 L 312.769 466 L 312.769 456 L 304.1088 451 L 304.1088 461 L 295.4485 466 L 295.4485 456 L 295.4485 446 L 304.1088 441 L 312.769 446 L 321.4293 441 L 330.0895 436 L 321.4293 431 L 312.769 436 L 312.769 426 L 321.4293 421 L 321.4293 411 L 312.769 406 L 312.769 416 L 304.1088 421 L 304.1088 411 L 304.1088 401 L 312.769 396 L 312.769 386 L 304.1088 381 L 295.4485 376 L 295.4485 386 L 304.1088 391 L 295.4485 396 L 286.7883 391 L 286.7883 381 L 278.128 376 L 269.4677 371 L 269.4677 381 L 278.128 386 L 269.4677 391 L 260.8075 386 L 252.1472 391 L 252.1472 401 L 252.1472 411 L 260.8075 406 L 260.8075 396 L 269.4677 401 L 269.4677 411 L 278.128 416 L 286.7882 411 L 278.128 406 L 278.128 396 L 286.7882 401 L 295.4485 406 L 295.4485 416 L 286.7882 421 L 286.7882 431 L 295.4485 426 L 304.1087 431 L 295.4485 436 L 286.7882 441 L 278.128 436 L 278.128 426 L 269.4677 421 L 260.8075 416 L 260.8075 426 L 269.4677 431 L 260.8075 436 L 252.1472 431 L 243.487 436 L 243.487 446 L 252.1472 441 L 260.8075 446 L 252.1472 451 L 243.487 456 L 234.8268 451 L 226.1665 456 L 226.1665 466 L 226.1665 476 L 234.8268 471 L 234.8268 461 L 243.487 466 L 243.487 476 L 234.8268 481 L 234.8268 491 L 234.8268 501 L 243.487 496 L 243.487 486 L 252.1472 491 L 252.1472 501 L 260.8075 506 L 269.4677 501 L 278.128 496 L 269.4677 491 L 260.8075 496 L 260.8075 486 L 269.4677 481 L 269.4677 471 L 260.8075 466 L 260.8075 476 L 252.1472 481 L 252.1472 471 L 252.1472 461 L 260.8075 456 L 269.4677 461 L 278.128 456 L 269.4677 451 L 269.4677 441 L 278.128 446 L 286.7882 451 L 286.7882 461 L 278.128 466 L 278.128 476 L 278.128 486 L 286.7882 481 L 286.7882 471 L 295.4485 476 L 295.4485 486 L 286.7882 491 L 286.7882 501 L 295.4485 496 L 304.1087 501 L 295.4485 506 L 286.7882 511 L 278.128 506 L 269.4677 511 L 269.4677 521 L 269.4677 531 L 278.128 526 L 278.128 516 L 286.7882 521 L 286.7882 531 L 295.4485 536 L 304.1087 531 L 312.769 526 L 304.1087 521 L 295.4485 526 L 295.4485 516 L 304.1087 511 L 312.769 516 L 321.4292 511 L 312.769 506 L 312.769 496 L 321.4292 501 L 330.0895 506 L 330.0895 516 L 321.4292 521 L 321.4292 531 L 330.0895 526 L 338.7497 531 L 330.0895 536 L 321.4292 541 L 312.769 536 L 304.1087 541 L 304.1087 551 L 312.769 546 L 321.4292 551 L 312.769 556 L 304.1087 561 L 295.4485 556 L 295.4485 546 L 286.7882 541 L 278.128 536 L 278.128 546 L 286.7882 551 L 278.128 556 L 269.4677 551 L 269.4677 541 L 260.8075 536 L 260.8075 546 L 252.1472 551 L 252.1472 541 L 252.1472 531 L 260.8075 526 L 260.8075 516 L 252.1472 511 L 243.487 506 L 243.487 516 L 252.1472 521 L 243.487 526 L 234.8268 521 L 226.1665 526 L 226.1665 536 L 226.1665 546 L 234.8268 541 L 234.8268 531 L 243.487 536 L 243.487 546 L 234.8268 551 L 234.8268 561 L 243.487 556 L 252.1472 561 L 243.487 566 L 234.8268 571 L 226.1665 566 L 226.1665 556 L 217.5063 551 L 217.5063 561 L 208.846 566 L 208.846 556 L 208.846 546 L 217.5063 541 L 217.5063 531 L 208.846 526 L 208.846 536 L 200.1858 541 L 200.1858 531 L 200.1858 521 L 208.846 516 L 217.5063 521 L 226.1665 516 L 234.8268 511 L 226.1665 506 L 217.5063 511 L 217.5063 501 L 226.1665 496 L 226.1665 486 L 217.5063 481 L 217.5063 491 L 208.846 496 L 208.846 486 L 208.846 476 L 217.5063 471 L 217.5063 461 L 208.846 456 L 200.1858 451 L 200.1858 461 L 208.846 466 L 200.1858 471 L 191.5255 466 L 182.8653 471 L 182.8653 481 L 182.8653 491 L 191.5255 486 L 191.5255 476 L 200.1858 481 L 200.1858 491 L 191.5255 496 L 191.5255 506 L 200.1858 501 L 208.846 506 L 200.1858 511 L 191.5255 516 L 182.8653 511 L 182.8653 501 L 174.205 496 L 174.205 506 L 165.5448 511 L 165.5448 501 L 165.5448 491 L 174.205 486 L 174.205 476 L 165.5448 471 L 165.5448 481 L 156.8845 486 L 156.8845 476 L 156.8845 466 L 165.5448 461 L 174.205 466 L 182.8653 461 L 191.5255 456 L 182.8653 451 L 174.205 456 L 174.205 446 L 182.8653 441 L 191.5255 446 L 200.1858 441 L 191.5255 436 L 191.5255 426 L 200.1858 431 L 208.846 436 L 208.846 446 L 217.5063 451 L 226.1665 446 L 234.8268 441 L 226.1665 436 L 217.5063 441 L 217.5063 431 L 226.1665 426 L 234.8268 431 L 243.487 426 L 252.1472 421 L 243.487 416 L 234.8268 421 L 234.8268 411 L 243.487 406 L 243.487 396 L 234.8268 391 L 226.1665 386 L 226.1665 396 L 234.8268 401 L 226.1665 406 L 217.5063 401 L 208.846 406 L 208.846 416 L 217.5063 411 L 226.1665 416 L 217.5063 421 L 208.846 426 L 200.1858 421 L 200.1858 411 L 191.5255 406 L 191.5255 416 L 182.8653 421 L 182.8653 411 L 182.8653 401 L 191.5255 396 L 200.1858 401 L 208.846 396 L 217.5063 391 L 208.846 386 L 200.1858 391 L 200.1858 381 L 208.846 376 L 208.846 366 L 200.1858 361 L 200.1858 371 L 191.5255 376 L 191.5255 366 L 191.5255 356 L 200.1858 351 L 200.1858 341 L 191.5255 336 L 182.8653 331 L 182.8653 341 L 191.5255 346 L 182.8653 351 L 174.205 346 L 165.5448 351 L 165.5448 361 L 165.5448 371 L 174.205 366 L 174.205 356 L 182.8653 361 L 182.8653 371 L 174.205 376 L 174.205 386 L 182.8653 381 L 191.5255 386 L 182.8653 391 L 174.205 396 L 165.5448 391 L 165.5448 381 L 156.8845 376 L 156.8845 386 L 148.2243 391 L 148.2243 381 L 148.2243 371 L 156.8845 366 L 156.8845 356 L 148.2243 351 L 148.2243 361 L 139.564 366 L 139.564 356 L 139.564 346 L 148.2243 341 L 156.8845 346 L 165.5448 341 L 174.205 336 L 165.5448 331 L 156.8845 336 L 156.8845 326 L 165.5448 321 L 165.5448 311 L 156.8845 306 L 156.8845 316 L 148.2243 321 L 148.2243 311 L 148.2243 301 L 156.8845 296 L 156.8845 286 L 148.2243 281 L 139.564 276 L 139.564 286 L 148.2243 291 L 139.564 296 L 130.9038 291 L 130.9038 281 L 122.2435 276 L 113.5833 271 L 113.5833 281 L 122.2435 286 L 113.5833 291 L 104.923 286 L 96.26279 291 L 96.26279 301 L 96.26279 311 L 104.923 306 L 104.923 296 L 113.5833 301 L 113.5833 311 L 122.2435 316 L 130.9038 311 L 122.2435 306 L 122.2435 296 L 130.9038 301 L 139.564 306 L 139.564 316 L 130.9038 321 L 130.9038 331 L 139.564 326 L 148.2243 331 L 139.564 336 L 130.9038 341 L 122.2435 336 L 122.2435 326 L 113.5833 321 L 104.923 316 L 104.923 326 L 113.5833 331 L 104.923 336 L 96.26279 331 L 87.60254 336 L 87.60254 346 L 96.26279 341 L 104.923 346 L 96.26279 351 L 87.60254 356 L 78.94229 351 L 70.28204 356 L 70.28204 366 L 70.28204 376 L 78.94229 371 L 78.94229 361 L 87.60254 366 L 87.60254 376 L 78.94229 381 L 78.94229 391 L 78.94229 401 L 87.60254 396 L 87.60254 386 L 96.26279 391 L 96.26279 401 L 104.923 406 L 113.5833 401 L 122.2435 396 L 113.5833 391 L 104.923 396 L 104.923 386 L 113.5833 381 L 113.5833 371 L 104.923 366 L 104.923 376 L 96.26279 381 L 96.26279 371 L 96.26279 361 L 104.923 356 L 113.5833 361 L 122.2435 356 L 113.5833 351 L 113.5833 341 L 122.2435 346 L 130.9038 351 L 130.9038 361 L 122.2435 366 L 122.2435 376 L 122.2435 386 L 130.9038 381 L 130.9038 371 L 139.564 376 L 139.564 386 L 130.9038 391 L 130.9038 401 L 139.564 396 L 148.2243 401 L 139.564 406 L 130.9038 411 L 122.2435 406 L 113.5833 411 L 113.5833 421 L 113.5833 431 L 122.2435 426 L 122.2435 416 L 130.9038 421 L 130.9038 431 L 139.564 436 L 148.2243 431 L 156.8845 426 L 148.2243 421 L 139.564 426 L 139.564 416 L 148.2243 411 L 156.8845 416 L 165.5448 411 L 156.8845 406 L 156.8845 396 L 165.5448 401 L 174.205 406 L 174.205 416 L 165.5448 421 L 165.5448 431 L 174.205 426 L 182.8653 431 L 174.205 436 L 165.5448 441 L 156.8845 436 L 148.2243 441 L 148.2243 451 L 156.8845 446 L 165.5448 451 L 156.8845 456 L 148.2243 461 L 139.564 456 L 139.564 446 L 130.9038 441 L 122.2435 436 L 122.2435 446 L 130.9038 451 L 122.2435 456 L 113.5833 451 L 113.5833 441 L 104.923 436 L 104.923 446 L 96.26279 451 L 96.26279 441 L 96.26279 431 L 104.923 426 L 104.923 416 L 96.26279 411 L 87.60254 406 L 87.60254 416 L 96.26279 421 L 87.60254 426 L 78.94229 421 L 70.28204 426 L 70.28204 436 L 70.28204 446 L 78.94229 441 L 78.94229 431 L 87.60254 436 L 87.60254 446 L 78.94229 451 L 78.94229 461 L 87.60254 456 L 96.26279 461 L 87.60254 466 L 78.94229 471 L 70.28204 466 L 70.28204 456 L 61.6218 451 L 61.6218 461 L 52.96155 466 L 52.96155 456 L 52.96155 446 L 61.6218 441 L 61.6218 431 L 52.96155 426 L 52.96155 436 L 44.3013 441 L 44.3013 431 L 44.3013 421 L 52.96155 416 L 61.6218 421 L 70.28204 416 L 78.94229 411 L 70.28204 406 L 61.6218 411 L 61.6218 401 L 70.28204 396 L 70.28204 386 L 61.6218 381 L 61.6218 391 L 52.96155 396 L 52.96155 386 L 52.96155 376 L 61.6218 371 L 61.6218 361 L 52.96155 356 L 44.3013 351 L 44.3013 361 L 52.96155 366 L 44.3013 371 L 35.64105 366 L 26.9808 371 L 26.9808 381 L 26.9808 391 L 35.64105 386 L 35.64105 376 L 44.3013 381 L 44.3013 391 L 35.64105 396 L 35.64105 406 L 44.3013 401 L 52.96155 406 L 44.3013 411 L 35.64105 416 L 26.9808 411 L 26.9808 401 L 18.32056 396 L 18.32056 406 L 9.660278 411 L 9.660278 401 L 9.660278 391 L 18.32056 386 L 18.32056 376 L 9.660278 371 L 9.660278 381 L 1 386 L 1 376 L 1 366 L 9.660278 361 L 18.32056 366 L 26.9808 361 L 35.64105 356 L 26.9808 351 L 18.32056 356 L 18.32056 346 L 26.9808 341 L 35.64105 346 L 44.3013 341 L 35.64105 336 L 35.64105 326 L 44.3013 331 L 52.96155 336 L 52.96155 346 L 61.6218 351 L 70.28204 346 L 78.94229 341 L 70.28204 336 L 61.6218 341 L 61.6218 331 L 70.28204 326 L 78.94229 331 L 87.60254 326 L 96.26279 321 L 87.60254 316 L 78.94229 321 L 78.94229 311 L 87.60254 306 L 87.60254 296 L 78.94229 291 L 70.28204 286 L 70.28204 296 L 78.94229 301 L 70.28204 306 L 61.6218 301 L 52.96155 306 L 52.96155 316 L 61.6218 311 L 70.28204 316 L 61.6218 321 L 52.96155 326 L 44.3013 321 L 44.3013 311 L 35.64105 306 L 35.64105 316 L 26.9808 321 L 26.9808 311 L 26.9808 301 L 35.64105 296 L 44.3013 301 L 52.96155 296 L 61.6218 291 L 52.96155 286 L 44.3013 291 L 44.3013 281 L 52.96155 276 L 61.6218 281 L 70.28204 276 L 61.6218 271 L 61.6218 261 L 70.28204 266 L 78.94229 271 L 78.94229 281 L 87.60254 286 L 96.26279 281 L 104.923 276 L 96.26279 271 L 87.60254 276 L 87.60254 266 L 96.26279 261 L 96.26279 251 L 87.60254 246 L 78.94229 241 L 78.94229 251 L 87.60254 256 L 78.94229 261 L 70.28204 256 L 70.28204 246 L 61.6218 241 L 61.6218 251 L 52.96155 256 L 52.96155 246 L 52.96155 236 L 61.6218 231 L 70.28204 236 L 78.94229 231 L 70.28204 226 L 70.28204 216 L 78.94229 221 L 87.60254 226 L 87.60254 236 L 96.26279 241 L 104.923 236 L 96.26279 231 L 96.26279 221 L 104.923 226 L 113.5833 231 L 113.5833 241 L 104.923 246 L 104.923 256 L 104.923 266 L 113.5833 261 L 113.5833 251 L 122.2435 256 L 122.2435 266 L 130.9038 271 L 139.564 266 L 130.9038 261 L 130.9038 251 L 139.564 256 L 148.2243 261 L 148.2243 271 L 156.8845 276 L 165.5448 271 L 174.205 266 L 165.5448 261 L 156.8845 266 L 156.8845 256 L 165.5448 251 L 174.205 256 L 182.8653 251 L 191.5255 246 L 182.8653 241 L 174.205 246 L 174.205 236 L 182.8653 231 L 182.8653 221 L 174.205 216 L 165.5448 211 L 165.5448 221 L 174.205 226 L 165.5448 231 L 156.8845 226 L 148.2243 231 L 148.2243 241 L 156.8845 236 L 165.5448 241 L 156.8845 246 L 148.2243 251 L 139.564 246 L 139.564 236 L 130.9038 231 L 130.9038 241 L 122.2435 246 L 122.2435 236 L 122.2435 226 L 130.9038 221 L 139.564 226 L 148.2243 221 L 156.8845 216 L 148.2243 211 L 139.564 216 L 139.564 206 L 148.2243 201 L 156.8845 206 L 165.5448 201 L 156.8845 196 L 156.8845 186 L 165.5448 191 L 174.205 196 L 174.205 206 L 182.8653 211 L 191.5255 206 L 200.1858 201 L 191.5255 196 L 182.8653 201 L 182.8653 191 L 191.5255 186 L 200.1858 191 L 208.846 186 L 217.5063 181 L 208.846 176 L 200.1858 181 L 200.1858 171 L 208.846 166 L 208.846 156 L 200.1858 151 L 191.5255 146 L 191.5255 156 L 200.1858 161 L 191.5255 166 L 182.8653 161 L 174.205 166 L 174.205 176 L 182.8653 171 L 191.5255 176 L 182.8653 181 L 174.205 186 L 165.5448 181 L 165.5448 171 L 156.8845 166 L 156.8845 176 L 148.2243 181 L 148.2243 171 L 148.2243 161 L 156.8845 156 L 165.5448 161 L 174.205 156 L 182.8653 151 L 174.205 146 L 165.5448 151 L 165.5448 141 L 174.205 136 L 174.205 126 L 165.5448 121 L 165.5448 131 L 156.8845 136 L 156.8845 126 L 156.8845 116 L 165.5448 111 L 165.5448 101 L 156.8845 96 L 148.2243 91 L 148.2243 101 L 156.8845 106 L 148.2243 111 L 139.564 106 L 139.564 96 L 130.9038 91 L 122.2435 86 L 122.2435 96 L 130.9038 101 L 122.2435 106 L 113.5833 101 L 104.923 106 L 104.923 116 L 104.923 126 L 113.5833 121 L 113.5833 111 L 122.2435 116 L 122.2435 126 L 130.9038 131 L 139.564 126 L 130.9038 121 L 130.9038 111 L 139.564 116 L 148.2243 121 L 148.2243 131 L 139.564 136 L 139.564 146 L 148.2243 141 L 156.8845 146 L 148.2243 151 L 139.564 156 L 130.9038 151 L 130.9038 141 L 122.2435 136 L 113.5833 131 L 113.5833 141 L 122.2435 146 L 113.5833 151 L 104.923 146 L 96.26279 151 L 96.26279 161 L 104.923 156 L 113.5833 161 L 104.923 166 L 96.26279 171 L 87.60254 166 L 78.94229 171 L 78.94229 181 L 78.94229 191 L 87.60254 186 L 87.60254 176 L 96.26279 181 L 96.26279 191 L 104.923 196 L 113.5833 191 L 122.2435 186 L 113.5833 181 L 104.923 186 L 104.923 176 L 113.5833 171 L 122.2435 176 L 130.9038 171 L 122.2435 166 L 122.2435 156 L 130.9038 161 L 139.564 166 L 139.564 176 L 130.9038 181 L 130.9038 191 L 139.564 186 L 148.2243 191 L 139.564 196 L 130.9038 201 L 122.2435 196 L 113.5833 201 L 113.5833 211 L 122.2435 206 L 130.9038 211 L 122.2435 216 L 113.5833 221 L 104.923 216 L 104.923 206 L 96.26279 201 L 87.60254 196 L 87.60254 206 L 96.26279 211 L 87.60254 216 L 78.94229 211 L 78.94229 201 L 70.28204 196 L 70.28204 206 L 61.6218 211 L 61.6218 201 L 61.6218 191 L 70.28204 186 L 70.28204 176 L 61.6218 171 L 52.96155 166 L 52.96155 176 L 61.6218 181 L 52.96155 186 L 44.3013 181 L 35.64105 186 L 35.64105 196 L 35.64105 206 L 44.3013 201 L 44.3013 191 L 52.96155 196 L 52.96155 206 L 44.3013 211 L 44.3013 221 L 52.96155 216 L 61.6218 221 L 52.96155 226 L 44.3013 231 L 35.64105 226 L 35.64105 216 L 26.9808 211 L 26.9808 221 L 18.32056 226 L 18.32056 216 L 18.32056 206 L 26.9808 201 L 26.9808 191 L 18.32056 186 L 18.32056 196 L 9.660278 201 L 9.660278 191 L 9.660278 181 L 18.32056 176 L 26.9808 181 L 35.64105 176 L 44.3013 171 L 35.64105 166 L 26.9808 171 L 26.9808 161 L 35.64105 156 L 44.3013 161 L 52.96155 156 L 44.3013 151 L 44.3013 141 L 52.96155 146 L 61.6218 151 L 61.6218 161 L 70.28204 166 L 78.94229 161 L 87.60254 156 L 78.94229 151 L 70.28204 156 L 70.28204 146 L 78.94229 141 L 87.60254 146 L 96.26279 141 L 104.923 136 L 96.26279 131 L 87.60254 136 L 87.60254 126 L 96.26279 121 L 96.26279 111 L 87.60254 106 L 78.94229 101 L 78.94229 111 L 87.60254 116 L 78.94229 121 L 70.28204 116 L 61.6218 121 L 61.6218 131 L 70.28204 126 L 78.94229 131 L 70.28204 136 L 61.6218 141 L 52.96155 136 L 52.96155 126 L 44.3013 121 L 44.3013 131 L 35.64105 136 L 35.64105 126 L 35.64105 116 L 44.3013 111 L 52.96155 116 L 61.6218 111 L 70.28204 106 L 61.6218 101 L 52.96155 106 L 52.96155 96 L 61.6218 91 " />
  </g>
</svg>
