<?xml version="1.0" encoding="UTF-8" standalone="no"?>
<!DOCTYPE svg PUBLIC "-//W3C//DTD SVG 1.1//EN"
    "http://www.w3.org/Graphics/SVG/1.1/DTD/svg11.dtd">
<svg xmlns="http://www.w3.org/2000/svg" width="317" height="317">
  <desc>hilbert LSystem</desc>
  <rect width="100%" height="100%" style="fill: white"/>
  <g stroke="black" fill="none" stroke-width="1">
    <path d="M 316 316 L 316 311 L 311 311 L 311 316 L 306 316 L 301 316 L 301 311 L 306 311 L 306 306 L 301 306 L 301 301 L 306 301 L 311 301 L 311 306 L 316 306 L 316 301 L 316 296 L 311 296 L 311 291 L 316 291 L 316 286 L 316 281 L 311 281 L 311 286 L 306 286 L 306 281 L 301 281 L 301 286 L 301 291 L 306 291 L 306 296 L 301 296 L 296 296 L 291 296 L 291 291 L 296 291 L 296 286 L 296 281 L 291 281 L 291 286 L 286 286 L 286 281 L 281 281 L 281 286 L 281 291 L 286 291 L 286 296 L 281 296 L 281 301 L 281 306 L 286 306 L 286 301 L 291 301 L 296 301 L 296 306 L 291 306 L 291 311 L 296 311 L 296 316 L 291 316 L 286 316 L 286 311 L 281 311 L 281 316 L 276 316 L 271 316 L 271 311 L 276 311 L 276 306 L 276 301 L 271 301 L 271 306 L 266 306 L 266 301 L 261 301 L 261 306 L 261 311 L 266 311 L 266 316 L 261 316 L 256 316 L 256 311 L 251 311 L 251 316 L 246 316 L 241 316 L 241 311 L 246 311 L 246 306 L 241 306 L 241 301 L 246 301 L 251 301 L 251 306 L 256 306 L 256 301 L 256 296 L 256 291 L 251 291 L 251 296 L 246 296 L 241 296 L 241 291 L 246 291 L 246 286 L 241 286 L 241 281 L 246 281 L 251 281 L 251 286 L 256 286 L 256 281 L 261 281 L 266 281 L 266 286 L 261 286 L 261 291 L 261 296 L 266 296 L 266 291 L 271 291 L 271 296 L 276 296 L 276 291 L 276 286 L 271 286 L 271 281 L 276 281 L 276 276 L 271 276 L 271 271 L 276 271 L 276 266 L 276 261 L 271 261 L 271 266 L 266 266 L 266 261 L 261 261 L 261 266 L 261 271 L 266 271 L 266 276 L 261 276 L 256 276 L 256 271 L 251 271 L 251 276 L 246 276 L 241 276 L 241 271 L 246 271 L 246 266 L 241 266 L 241 261 L 246 261 L 251 261 L 251 266 L 256 266 L 256 261 L 256 256 L 256 251 L 251 251 L 251 256 L 246 256 L 241 256 L 241 251 L 246 251 L 246 246 L 241 246 L 241 241 L 246 241 L 251 241 L 251 246 L 256 246 L 256 241 L 261 241 L 266 241 L 266 246 L 261 246 L 261 251 L 261 256 L 266 256 L 266 251 L 271 251 L 271 256 L 276 256 L 276 251 L 276 246 L 271 246 L 271 241 L 276 241 L 281 241 L 281 246 L 286 246 L 286 241 L 291 241 L 296 241 L 296 246 L 291 246 L 291 251 L 296 251 L 296 256 L 291 256 L 286 256 L 286 251 L 281 251 L 281 256 L 281 261 L 286 261 L 286 266 L 281 266 L 281 271 L 281 276 L 286 276 L 286 271 L 291 271 L 291 276 L 296 276 L 296 271 L 296 266 L 291 266 L 291 261 L 296 261 L 301 261 L 306 261 L 306 266 L 301 266 L 301 271 L 301 276 L 306 276 L 306 271 L 311 271 L 311 276 L 316 276 L 316 271 L 316 266 L 311 266 L 311 261 L 316 261 L 316 256 L 316 251 L 311 251 L 311 256 L 306 256 L 301 256 L 301 251 L 306 251 L 306 246 L 301 246 L 301 241 L 306 241 L 311 241 L 311 246 L 316 246 L 316 241 L 316 236 L 311 236 L 311 231 L 316 231 L 316 226 L 316 221 L 311 221 L 311 226 L 306 226 L 306 221 L 301 221 L 301 226 L 301 231 L 306 231 L 306 236 L 301 236 L 296 236 L 296 231 L 291 231 L 291 236 L 286 236 L 281 236 L 281 231 L 286 231 L 286 226 L 281 226 L 281 221 L 286 221 L 291 221 L 291 226 L 296 226 L 296 221 L 296 216 L 296 211 L 291 211 L 291 216 L 286 216 L 281 216 L 281 211 L 286 211 L 286 206 L 281 206 L 281 201 L 286 201 L 291 201 L 291 206 L 296 206 L 296 201 L 301 201 L 306 201 L 306 206 L 301 206 L 301 211 L 301 216 L 306 216 L 306 211 L 311 211 L 311 216 L 316 216 L 316 211 L 316 206 L 311 206 L 311 201 L 316 201 L 316 196 L 316 191 L 311 191 L 311 196 L 306 196 L 301 196 L 301 191 L 306 191 L 306 186 L 301 186 L 301 181 L 306 181 L 311 181 L 311 186 L 316 186 L 316 181 L 316 176 L 311 176 L 311 171 L 316 171 L 316 166 L 316 161 L 311 161 L 311 166 L 306 166 L 306 161 L 301 161 L 301 166 L 301 171 L 306 171 L 306 176 L 301 176 L 296 176 L 291 176 L 291 171 L 296 171 L 296 166 L 296 161 L 291 161 L 291 166 L 286 166 L 286 161 L 281 161 L 281 166 L 281 171 L 286 171 L 286 176 L 281 176 L 281 181 L 281 186 L 286 186 L 286 181 L 291 181 L 296 181 L 296 186 L 291 186 L 291 191 L 296 191 L 296 196 L 291 196 L 286 196 L 286 191 L 281 191 L 281 196 L 276 196 L 276 191 L 271 191 L 271 196 L 266 196 L 261 196 L 261 191 L 266 191 L 266 186 L 261 186 L 261 181 L 266 181 L 271 181 L 271 186 L 276 186 L 276 181 L 276 176 L 271 176 L 271 171 L 276 171 L 276 166 L 276 161 L 271 161 L 271 166 L 266 166 L 266 161 L 261 161 L 261 166 L 261 171 L 266 171 L 266 176 L 261 176 L 256 176 L 251 176 L 251 171 L 256 171 L 256 166 L 256 161 L 251 161 L 251 166 L 246 166 L 246 161 L 241 161 L 241 166 L 241 171 L 246 171 L 246 176 L 241 176 L 241 181 L 241 186 L 246 186 L 246 181 L 251 181 L 256 181 L 256 186 L 251 186 L 251 191 L 256 191 L 256 196 L 251 196 L 246 196 L 246 191 L 241 191 L 241 196 L 241 201 L 246 201 L 246 206 L 241 206 L 241 211 L 241 216 L 246 216 L 246 211 L 251 211 L 251 216 L 256 216 L 256 211 L 256 206 L 251 206 L 251 201 L 256 201 L 261 201 L 261 206 L 266 206 L 266 201 L 271 201 L 276 201 L 276 206 L 271 206 L 271 211 L 276 211 L 276 216 L 271 216 L 266 216 L 266 211 L 261 211 L 261 216 L 261 221 L 261 226 L 266 226 L 266 221 L 271 221 L 276 221 L 276 226 L 271 226 L 271 231 L 276 231 L 276 236 L 271 236 L 266 236 L 266 231 L 261 231 L 261 236 L 256 236 L 251 236 L 251 231 L 256 231 L 256 226 L 256 221 L 251 221 L 251 226 L 246 226 L 246 221 L 241 221 L 241 226 L 241 231 L 246 231 L 246 236 L 241 236 L 236 236 L 231 236 L 231 231 L 236 231 L 236 226 L 236 221 L 231 221 L 231 226 L 226 226 L 226 221 L 221 221 L 221 226 L 221 231 L 226 231 L 226 236 L 221 236 L 216 236 L 216 231 L 211 231 L 211 236 L 206 236 L 201 236 L 201 231 L 206 231 L 206 226 L 201 226 L 201 221 L 206 221 L 211 221 L 211 226 L 216 226 L 216 221 L 216 216 L 216 211 L 211 211 L 211 216 L 206 216 L 201 216 L 201 211 L 206 211 L 206 206 L 201 206 L 201 201 L 206 201 L 211 201 L 211 206 L 216 206 L 216 201 L 221 201 L 226 201 L 226 206 L 221 206 L 221 211 L 221 216 L 226 216 L 226 211 L 231 211 L 231 216 L 236 216 L 236 211 L 236 206 L 231 206 L 231 201 L 236 201 L 236 196 L 236 191 L 231 191 L 231 196 L 226 196 L 221 196 L 221 191 L 226 191 L 226 186 L 221 186 L 221 181 L 226 181 L 231 181 L 231 186 L 236 186 L 236 181 L 236 176 L 231 176 L 231 171 L 236 171 L 236 166 L 236 161 L 231 161 L 231 166 L 226 166 L 226 161 L 221 161 L 221 166 L 221 171 L 226 171 L 226 176 L 221 176 L 216 176 L 211 176 L 211 171 L 216 171 L 216 166 L 216 161 L 211 161 L 211 166 L 206 166 L 206 161 L 201 161 L 201 166 L 201 171 L 206 171 L 206 176 L 201 176 L 201 181 L 201 186 L 206 186 L 206 181 L 211 181 L 216 181 L 216 186 L 211 186 L 211 191 L 216 191 L 216 196 L 211 196 L 206 196 L 206 191 L 201 191 L 201 196 L 196 196 L 196 191 L 191 191 L 191 196 L 186 196 L 181 196 L 181 191 L 186 191 L 186 186 L 181 186 L 181 181 L 186 181 L 191 181 L 191 186 L 196 186 L 196 181 L 196 176 L 191 176 L 191 171 L 196 171 L 196 166 L 196 161 L 191 161 L 191 166 L 186 166 L 186 161 L 181 161 L 181 166 L 181 171 L 186 171 L 186 176 L 181 176 L 176 176 L 171 176 L 171 171 L 176 171 L 176 166 L 176 161 L 171 161 L 171 166 L 166 166 L 166 161 L 161 161 L 161 166 L 161 171 L 166 171 L 166 176 L 161 176 L 161 181 L 161 186 L 166 186 L 166 181 L 171 181 L 176 181 L 176 186 L 171 186 L 171 191 L 176 191 L 176 196 L 171 196 L 166 196 L 166 191 L 161 191 L 161 196 L 161 201 L 166 201 L 166 206 L 161 206 L 161 211 L 161 216 L 166 216 L 166 211 L 171 211 L 171 216 L 176 216 L 176 211 L 176 206 L 171 206 L 171 201 L 176 201 L 181 201 L 181 206 L 186 206 L 186 201 L 191 201 L 196 201 L 196 206 L 191 206 L 191 211 L 196 211 L 196 216 L 191 216 L 186 216 L 186 211 L 181 211 L 181 216 L 181 221 L 181 226 L 186 226 L 186 221 L 191 221 L 196 221 L 196 226 L 191 226 L 191 231 L 196 231 L 196 236 L 191 236 L 186 236 L 186 231 L 181 231 L 181 236 L 176 236 L 171 236 L 171 231 L 176 231 L 176 226 L 176 221 L 171 221 L 171 226 L 166 226 L 166 221 L 161 221 L 161 226 L 161 231 L 166 231 L 166 236 L 161 236 L 161 241 L 161 246 L 166 246 L 166 241 L 171 241 L 176 241 L 176 246 L 171 246 L 171 251 L 176 251 L 176 256 L 171 256 L 166 256 L 166 251 L 161 251 L 161 256 L 161 261 L 166 261 L 166 266 L 161 266 L 161 271 L 161 276 L 166 276 L 166 271 L 171 271 L 171 276 L 176 276 L 176 271 L 176 266 L 171 266 L 171 261 L 176 261 L 181 261 L 186 261 L 186 266 L 181 266 L 181 271 L 181 276 L 186 276 L 186 271 L 191 271 L 191 276 L 196 276 L 196 271 L 196 266 L 191 266 L 191 261 L 196 261 L 196 256 L 196 251 L 191 251 L 191 256 L 186 256 L 181 256 L 181 251 L 186 251 L 186 246 L 181 246 L 181 241 L 186 241 L 191 241 L 191 246 L 196 246 L 196 241 L 201 241 L 206 241 L 206 246 L 201 246 L 201 251 L 201 256 L 206 256 L 206 251 L 211 251 L 211 256 L 216 256 L 216 251 L 216 246 L 211 246 L 211 241 L 216 241 L 221 241 L 221 246 L 226 246 L 226 241 L 231 241 L 236 241 L 236 246 L 231 246 L 231 251 L 236 251 L 236 256 L 231 256 L 226 256 L 226 251 L 221 251 L 221 256 L 221 261 L 221 266 L 226 266 L 226 261 L 231 261 L 236 261 L 236 266 L 231 266 L 231 271 L 236 271 L 236 276 L 231 276 L 226 276 L 226 271 L 221 271 L 221 276 L 216 276 L 211 276 L 211 271 L 216 271 L 216 266 L 216 261 L 211 261 L 211 266 L 206 266 L 206 261 L 201 261 L 201 266 L 201 271 L 206 271 L 206 276 L 201 276 L 201 281 L 206 281 L 206 286 L 201 286 L 201 291 L 201 296 L 206 296 L 206 291 L 211 291 L 211 296 L 216 296 L 216 291 L 216 286 L 211 286 L 211 281 L 216 281 L 221 281 L 221 286 L 226 286 L 226 281 L 231 281 L 236 281 L 236 286 L 231 286 L 231 291 L 236 291 L 236 296 L 231 296 L 226 296 L 226 291 L 221 291 L 221 296 L 221 301 L 221 306 L 226 306 L 226 301 L 231 301 L 236 301 L 236 306 L 231 306 L 231 311 L 236 311 L 236 316 L 231 316 L 226 316 L 226 311 L 221 311 L 221 316 L 216 316 L 211 316 L 211 311 L 216 311 L 216 306 L 216 301 L 211 301 L 211 306 L 206 306 L 206 301 L 201 301 L 201 306 L 201 311 L 206 311 L 206 316 L 201 316 L 196 316 L 196 311 L 191 311 L 191 316 L 186 316 L 181 316 L 181 311 L 186 311 L 186 306 L 181 306 L 181 301 L 186 301 L 191 301 L 191 306 L 196 306 L 196 301 L 196 296 L 191 296 L 191 291 L 196 291 L 196 286 L 196 281 L 191 281 L 191 286 L 186 286 L 186 281 L 181 281 L 181 286 L 181 291 L 186 291 L 186 296 L 181 296 L 176 296 L 171 296 L 171 291 L 176 291 L 176 286 L 176 281 L 171 281 L 171 286 L 166 286 L 166 281 L 161 281 L 161 286 L 161 291 L 166 291 L 166 296 L 161 296 L 161 301 L 161 306 L 166 306 L 166 301 L 171 301 L 176 301 L 176 306 L 171 306 L 171 311 L 176 311 L 176 316 L 171 316 L 166 316 L 166 311 L 161 311 L 161 316 L 156 316 L 151 316 L 151 311 L 156 311 L 156 306 L 156 301 L 151 301 L 151 306 L 146 306 L 146 301 L 141 301 L 141 306 L 141 311 L 146 311 L 146 316 L 141 316 L 136 316 L 136 311 L 131 311 L 131 316 L 126 316 L 121 316 L 121 311 L 126 311 L 126 306 L 121 306 L 121 301 L 126 301 L 131 301 L 131 306 L 136 306 L 136 301 L 136 296 L 136 291 L 131 291 L 131 296 L 126 296 L 121 296 L 121 291 L 126 291 L 126 286 L 121 286 L 121 281 L 126 281 L 131 281 L 131 286 L 136 286 L 136 281 L 141 281 L 146 281 L 146 286 L 141 286 L 141 291 L 141 296 L 146 296 L 146 291 L 151 291 L 151 296 L 156 296 L 156 291 L 156 286 L 151 286 L 151 281 L 156 281 L 156 276 L 156 271 L 151 271 L 151 276 L 146 276 L 141 276 L 141 271 L 146 271 L 146 266 L 141 266 L 141 261 L 146 261 L 151 261 L 151 266 L 156 266 L 156 261 L 156 256 L 151 256 L 151 251 L 156 251 L 156 246 L 156 241 L 151 241 L 151 246 L 146 246 L 146 241 L 141 241 L 141 246 L 141 251 L 146 251 L 146 256 L 141 256 L 136 256 L 131 256 L 131 251 L 136 251 L 136 246 L 136 241 L 131 241 L 131 246 L 126 246 L 126 241 L 121 241 L 121 246 L 121 251 L 126 251 L 126 256 L 121 256 L 121 261 L 121 266 L 126 266 L 126 261 L 131 261 L 136 261 L 136 266 L 131 266 L 131 271 L 136 271 L 136 276 L 131 276 L 126 276 L 126 271 L 121 271 L 121 276 L 116 276 L 116 271 L 111 271 L 111 276 L 106 276 L 101 276 L 101 271 L 106 271 L 106 266 L 101 266 L 101 261 L 106 261 L 111 261 L 111 266 L 116 266 L 116 261 L 116 256 L 111 256 L 111 251 L 116 251 L 116 246 L 116 241 L 111 241 L 111 246 L 106 246 L 106 241 L 101 241 L 101 246 L 101 251 L 106 251 L 106 256 L 101 256 L 96 256 L 91 256 L 91 251 L 96 251 L 96 246 L 96 241 L 91 241 L 91 246 L 86 246 L 86 241 L 81 241 L 81 246 L 81 251 L 86 251 L 86 256 L 81 256 L 81 261 L 81 266 L 86 266 L 86 261 L 91 261 L 96 261 L 96 266 L 91 266 L 91 271 L 96 271 L 96 276 L 91 276 L 86 276 L 86 271 L 81 271 L 81 276 L 81 281 L 86 281 L 86 286 L 81 286 L 81 291 L 81 296 L 86 296 L 86 291 L 91 291 L 91 296 L 96 296 L 96 291 L 96 286 L 91 286 L 91 281 L 96 281 L 101 281 L 101 286 L 106 286 L 106 281 L 111 281 L 116 281 L 116 286 L 111 286 L 111 291 L 116 291 L 116 296 L 111 296 L 106 296 L 106 291 L 101 291 L 101 296 L 101 301 L 101 306 L 106 306 L 106 301 L 111 301 L 116 301 L 116 306 L 111 306 L 111 311 L 116 311 L 116 316 L 111 316 L 106 316 L 106 311 L 101 311 L 101 316 L 96 316 L 91 316 L 91 311 L 96 311 L 96 306 L 96 301 L 91 301 L 91 306 L 86 306 L 86 301 L 81 301 L 81 306 L 81 311 L 86 311 L 86 316 L 81 316 L 76 316 L 76 311 L 71 311 L 71 316 L 66 316 L 61 316 L 61 311 L 66 311 L 66 306 L 61 306 L 61 301 L 66 301 L 71 301 L 71 306 L 76 306 L 76 301 L 76 296 L 71 296 L 71 291 L 76 291 L 76 286 L 76 281 L 71 281 L 71 286 L 66 286 L 66 281 L 61 281 L 61 286 L 61 291 L 66 291 L 66 296 L 61 296 L 56 296 L 51 296 L 51 291 L 56 291 L 56 286 L 56 281 L 51 281 L 51 286 L 46 286 L 46 281 L 41 281 L 41 286 L 41 291 L 46 291 L 46 296 L 41 296 L 41 301 L 41 306 L 46 306 L 46 301 L 51 301 L 56 301 L 56 306 L 51 306 L 51 311 L 56 311 L 56 316 L 51 316 L 46 316 L 46 311 L 41 311 L 41 316 L 36 316 L 31 316 L 31 311 L 36 311 L 36 306 L 36 301 L 31 301 L 31 306 L 26 306 L 26 301 L 21 301 L 21 306 L 21 311 L 26 311 L 26 316 L 21 316 L 16 316 L 16 311 L 11 311 L 11 316 L 6 316 L 1 316 L 1 311 L 6 311 L 6 306 L 1 306 L 1 301 L 6 301 L 11 301 L 11 306 L 16 306 L 16 301 L 16 296 L 16 291 L 11 291 L 11 296 L 6 296 L 1 296 L 1 291 L 6 291 L 6 286 L 1 286 L 1 281 L 6 281 L 11 281 L 11 286 L 16 286 L 16 281 L 21 281 L 26 281 L 26 286 L 21 286 L 21 291 L 21 296 L 26 296 L 26 291 L 31 291 L 31 296 L 36 296 L 36 291 L 36 286 L 31 286 L 31 281 L 36 281 L 36 276 L 31 276 L 31 271 L 36 271 L 36 266 L 36 261 L 31 261 L 31 266 L 26 266 L 26 261 L 21 261 L 21 266 L 21 271 L 26 271 L 26 276 L 21 276 L 16 276 L 16 271 L 11 271 L 11 276 L 6 276 L 1 276 L 1 271 L 6 271 L 6 266 L 1 266 L 1 261 L 6 261 L 11 261 L 11 266 L 16 266 L 16 261 L 16 256 L 16 251 L 11 251 L 11 256 L 6 256 L 1 256 L 1 251 L 6 251 L 6 246 L 1 246 L 1 241 L 6 241 L 11 241 L 11 246 L 16 246 L 16 241 L 21 241 L 26 241 L 26 246 L 21 246 L 21 251 L 21 256 L 26 256 L 26 251 L 31 251 L 31 256 L 36 256 L 36 251 L 36 246 L 31 246 L 31 241 L 36 241 L 41 241 L 41 246 L 46 246 L 46 241 L 51 241 L 56 241 L 56 246 L 51 246 L 51 251 L 56 251 L 56 256 L 51 256 L 46 256 L 46 251 L 41 251 L 41 256 L 41 261 L 46 261 L 46 266 L 41 266 L 41 271 L 41 276 L 46 276 L 46 271 L 51 271 L 51 276 L 56 276 L 56 271 L 56 266 L 51 266 L 51 261 L 56 261 L 61 261 L 66 261 L 66 266 L 61 266 L 61 271 L 61 276 L 66 276 L 66 271 L 71 271 L 71 276 L 76 276 L 76 271 L 76 266 L 71 266 L 71 261 L 76 261 L 76 256 L 76 251 L 71 251 L 71 256 L 66 256 L 61 256 L 61 251 L 66 251 L 66 246 L 61 246 L 61 241 L 66 241 L 71 241 L 71 246 L 76 246 L 76 241 L 76 236 L 76 231 L 71 231 L 71 236 L 66 236 L 61 236 L 61 231 L 66 231 L 66 226 L 61 226 L 61 221 L 66 221 L 71 221 L 71 226 L 76 226 L 76 221 L 76 216 L 71 216 L 71 211 L 76 211 L 76 206 L 76 201 L 71 201 L 71 206 L 66 206 L 66 201 L 61 201 L 61 206 L 61 211 L 66 211 L 66 216 L 61 216 L 56 216 L 51 216 L 51 211 L 56 211 L 56 206 L 56 201 L 51 201 L 51 206 L 46 206 L 46 201 L 41 201 L 41 206 L 41 211 L 46 211 L 46 216 L 41 216 L 41 221 L 41 226 L 46 226 L 46 221 L 51 221 L 56 221 L 56 226 L 51 226 L 51 231 L 56 231 L 56 236 L 51 236 L 46 236 L 46 231 L 41 231 L 41 236 L 36 236 L 31 236 L 31 231 L 36 231 L 36 226 L 36 221 L 31 221 L 31 226 L 26 226 L 26 221 L 21 221 L 21 226 L 21 231 L 26 231 L 26 236 L 21 236 L 16 236 L 16 231 L 11 231 L 11 236 L 6 236 L 1 236 L 1 231 L 6 231 L 6 226 L 1 226 L 1 221 L 6 221 L 11 221 L 11 226 L 16 226 L 16 221 L 16 216 L 16 211 L 11 211 L 11 216 L 6 216 L 1 216 L 1 211 L 6 211 L 6 206 L 1 206 L 1 201 L 6 201 L 11 201 L 11 206 L 16 206 L 16 201 L 21 201 L 26 201 L 26 206 L 21 206 L 21 211 L 21 216 L 26 216 L 26 211 L 31 211 L 31 216 L 36 216 L 36 211 L 36 206 L 31 206 L 31 201 L 36 201 L 36 196 L 31 196 L 31 191 L 36 191 L 36 186 L 36 181 L 31 181 L 31 186 L 26 186 L 26 181 L 21 181 L 21 186 L 21 191 L 26 191 L 26 196 L 21 196 L 16 196 L 16 191 L 11 191 L 11 196 L 6 196 L 1 196 L 1 191 L 6 191 L 6 186 L 1 186 L 1 181 L 6 181 L 11 181 L 11 186 L 16 186 L 16 181 L 16 176 L 16 171 L 11 171 L 11 176 L 6 176 L 1 176 L 1 171 L 6 171 L 6 166 L 1 166 L 1 161 L 6 161 L 11 161 L 11 166 L 16 166 L 16 161 L 21 161 L 26 161 L 26 166 L 21 166 L 21 171 L 21 176 L 26 176 L 26 171 L 31 171 L 31 176 L 36 176 L 36 171 L 36 166 L 31 166 L 31 161 L 36 161 L 41 161 L 41 166 L 46 166 L 46 161 L 51 161 L 56 161 L 56 166 L 51 166 L 51 171 L 56 171 L 56 176 L 51 176 L 46 176 L 46 171 L 41 171 L 41 176 L 41 181 L 46 181 L 46 186 L 41 186 L 41 191 L 41 196 L 46 196 L 46 191 L 51 191 L 51 196 L 56 196 L 56 191 L 56 186 L 51 186 L 51 181 L 56 181 L 61 181 L 66 181 L 66 186 L 61 186 L 61 191 L 61 196 L 66 196 L 66 191 L 71 191 L 71 196 L 76 196 L 76 191 L 76 186 L 71 186 L 71 181 L 76 181 L 76 176 L 76 171 L 71 171 L 71 176 L 66 176 L 61 176 L 61 171 L 66 171 L 66 166 L 61 166 L 61 161 L 66 161 L 71 161 L 71 166 L 76 166 L 76 161 L 81 161 L 86 161 L 86 166 L 81 166 L 81 171 L 81 176 L 86 176 L 86 171 L 91 171 L 91 176 L 96 176 L 96 171 L 96 166 L 91 166 L 91 161 L 96 161 L 101 161 L 101 166 L 106 166 L 106 161 L 111 161 L 116 161 L 116 166 L 111 166 L 111 171 L 116 171 L 116 176 L 111 176 L 106 176 L 106 171 L 101 171 L 101 176 L 101 181 L 101 186 L 106 186 L 106 181 L 111 181 L 116 181 L 116 186 L 111 186 L 111 191 L 116 191 L 116 196 L 111 196 L 106 196 L 106 191 L 101 191 L 101 196 L 96 196 L 91 196 L 91 191 L 96 191 L 96 186 L 96 181 L 91 181 L 91 186 L 86 186 L 86 181 L 81 181 L 81 186 L 81 191 L 86 191 L 86 196 L 81 196 L 81 201 L 81 206 L 86 206 L 86 201 L 91 201 L 96 201 L 96 206 L 91 206 L 91 211 L 96 211 L 96 216 L 91 216 L 86 216 L 86 211 L 81 211 L 81 216 L 81 221 L 86 221 L 86 226 L 81 226 L 81 231 L 81 236 L 86 236 L 86 231 L 91 231 L 91 236 L 96 236 L 96 231 L 96 226 L 91 226 L 91 221 L 96 221 L 101 221 L 106 221 L 106 226 L 101 226 L 101 231 L 101 236 L 106 236 L 106 231 L 111 231 L 111 236 L 116 236 L 116 231 L 116 226 L 111 226 L 111 221 L 116 221 L 116 216 L 116 211 L 111 211 L 111 216 L 106 216 L 101 216 L 101 211 L 106 211 L 106 206 L 101 206 L 101 201 L 106 201 L 111 201 L 111 206 L 116 206 L 116 201 L 121 201 L 121 206 L 126 206 L 126 201 L 131 201 L 136 201 L 136 206 L 131 206 L 131 211 L 136 211 L 136 216 L 131 216 L 126 216 L 126 211 L 121 211 L 121 216 L 121 221 L 126 221 L 126 226 L 121 226 L 121 231 L 121 236 L 126 236 L 126 231 L 131 231 L 131 236 L 136 236 L 136 231 L 136 226 L 131 226 L 131 221 L 136 221 L 141 221 L 146 221 L 146 226 L 141 226 L 141 231 L 141 236 L 146 236 L 146 231 L 151 231 L 151 236 L 156 236 L 156 231 L 156 226 L 151 226 L 151 221 L 156 221 L 156 216 L 156 211 L 151 211 L 151 216 L 146 216 L 141 216 L 141 211 L 146 211 L 146 206 L 141 206 L 141 201 L 146 201 L 151 201 L 151 206 L 156 206 L 156 201 L 156 196 L 151 196 L 151 191 L 156 191 L 156 186 L 156 181 L 151 181 L 151 186 L 146 186 L 146 181 L 141 181 L 141 186 L 141 191 L 146 191 L 146 196 L 141 196 L 136 196 L 136 191 L 131 191 L 131 196 L 126 196 L 121 196 L 121 191 L 126 191 L 126 186 L 121 186 L 121 181 L 126 181 L 131 181 L 131 186 L 136 186 L 136 181 L 136 176 L 136 171 L 131 171 L 131 176 L 126 176 L 121 176 L 121 171 L 126 171 L 126 166 L 121 166 L 121 161 L 126 161 L 131 161 L 131 166 L 136 166 L 136 161 L 141 161 L 146 161 L 146 166 L 141 166 L 141 171 L 141 176 L 146 176 L 146 171 L 151 171 L 151 176 L 156 176 L 156 171 L 156 166 L 151 166 L 151 161 L 156 161 L 156 156 L 151 156 L 151 151 L 156 151 L 156 146 L 156 141 L 151 141 L 151 146 L 146 146 L 146 141 L 141 141 L 141 146 L 141 151 L 146 151 L 146 156 L 141 156 L 136 156 L 136 151 L 131 151 L 131 156 L 126 156 L 121 156 L 121 151 L 126 151 L 126 146 L 121 146 L 121 141 L 126 141 L 131 141 L 131 146 L 136 146 L 136 141 L 136 136 L 136 131 L 131 131 L 131 136 L 126 136 L 121 136 L 121 131 L 126 131 L 126 126 L 121 126 L 121 121 L 126 121 L 131 121 L 131 126 L 136 126 L 136 121 L 141 121 L 146 121 L 146 126 L 141 126 L 141 131 L 141 136 L 146 136 L 146 131 L 151 131 L 151 136 L 156 136 L 156 131 L 156 126 L 151 126 L 151 121 L 156 121 L 156 116 L 156 111 L 151 111 L 151 116 L 146 116 L 141 116 L 141 111 L 146 111 L 146 106 L 141 106 L 141 101 L 146 101 L 151 101 L 151 106 L 156 106 L 156 101 L 156 96 L 151 96 L 151 91 L 156 91 L 156 86 L 156 81 L 151 81 L 151 86 L 146 86 L 146 81 L 141 81 L 141 86 L 141 91 L 146 91 L 146 96 L 141 96 L 136 96 L 131 96 L 131 91 L 136 91 L 136 86 L 136 81 L 131 81 L 131 86 L 126 86 L 126 81 L 121 81 L 121 86 L 121 91 L 126 91 L 126 96 L 121 96 L 121 101 L 121 106 L 126 106 L 126 101 L 131 101 L 136 101 L 136 106 L 131 106 L 131 111 L 136 111 L 136 116 L 131 116 L 126 116 L 126 111 L 121 111 L 121 116 L 116 116 L 116 111 L 111 111 L 111 116 L 106 116 L 101 116 L 101 111 L 106 111 L 106 106 L 101 106 L 101 101 L 106 101 L 111 101 L 111 106 L 116 106 L 116 101 L 116 96 L 111 96 L 111 91 L 116 91 L 116 86 L 116 81 L 111 81 L 111 86 L 106 86 L 106 81 L 101 81 L 101 86 L 101 91 L 106 91 L 106 96 L 101 96 L 96 96 L 91 96 L 91 91 L 96 91 L 96 86 L 96 81 L 91 81 L 91 86 L 86 86 L 86 81 L 81 81 L 81 86 L 81 91 L 86 91 L 86 96 L 81 96 L 81 101 L 81 106 L 86 106 L 86 101 L 91 101 L 96 101 L 96 106 L 91 106 L 91 111 L 96 111 L 96 116 L 91 116 L 86 116 L 86 111 L 81 111 L 81 116 L 81 121 L 86 121 L 86 126 L 81 126 L 81 131 L 81 136 L 86 136 L 86 131 L 91 131 L 91 136 L 96 136 L 96 131 L 96 126 L 91 126 L 91 121 L 96 121 L 101 121 L 101 126 L 106 126 L 106 121 L 111 121 L 116 121 L 116 126 L 111 126 L 111 131 L 116 131 L 116 136 L 111 136 L 106 136 L 106 131 L 101 131 L 101 136 L 101 141 L 101 146 L 106 146 L 106 141 L 111 141 L 116 141 L 116 146 L 111 146 L 111 151 L 116 151 L 116 156 L 111 156 L 106 156 L 106 151 L 101 151 L 101 156 L 96 156 L 91 156 L 91 151 L 96 151 L 96 146 L 96 141 L 91 141 L 91 146 L 86 146 L 86 141 L 81 141 L 81 146 L 81 151 L 86 151 L 86 156 L 81 156 L 76 156 L 76 151 L 71 151 L 71 156 L 66 156 L 61 156 L 61 151 L 66 151 L 66 146 L 61 146 L 61 141 L 66 141 L 71 141 L 71 146 L 76 146 L 76 141 L 76 136 L 71 136 L 71 131 L 76 131 L 76 126 L 76 121 L 71 121 L 71 126 L 66 126 L 66 121 L 61 121 L 61 126 L 61 131 L 66 131 L 66 136 L 61 136 L 56 136 L 51 136 L 51 131 L 56 131 L 56 126 L 56 121 L 51 121 L 51 126 L 46 126 L 46 121 L 41 121 L 41 126 L 41 131 L 46 131 L 46 136 L 41 136 L 41 141 L 41 146 L 46 146 L 46 141 L 51 141 L 56 141 L 56 146 L 51 146 L 51 151 L 56 151 L 56 156 L 51 156 L 46 156 L 46 151 L 41 151 L 41 156 L 36 156 L 31 156 L 31 151 L 36 151 L 36 146 L 36 141 L 31 141 L 31 146 L 26 146 L 26 141 L 21 141 L 21 146 L 21 151 L 26 151 L 26 156 L 21 156 L 16 156 L 16 151 L 11 151 L 11 156 L 6 156 L 1 156 L 1 151 L 6 151 L 6 146 L 1 146 L 1 141 L 6 141 L 11 141 L 11 146 L 16 146 L 16 141 L 16 136 L 16 131 L 11 131 L 11 136 L 6 136 L 1 136 L 1 131 L 6 131 L 6 126 L 1 126 L 1 121 L 6 121 L 11 121 L 11 126 L 16 126 L 16 121 L 21 121 L 26 121 L 26 126 L 21 126 L 21 131 L 21 136 L 26 136 L 26 131 L 31 131 L 31 136 L 36 136 L 36 131 L 36 126 L 31 126 L 31 121 L 36 121 L 36 116 L 31 116 L 31 111 L 36 111 L 36 106 L 36 101 L 31 101 L 31 106 L 26 106 L 26 101 L 21 101 L 21 106 L 21 111 L 26 111 L 26 116 L 21 116 L 16 116 L 16 111 L 11 111 L 11 116 L 6 116 L 1 116 L 1 111 L 6 111 L 6 106 L 1 106 L 1 101 L 6 101 L 11 101 L 11 106 L 16 106 L 16 101 L 16 96 L 16 91 L 11 91 L 11 96 L 6 96 L 1 96 L 1 91 L 6 91 L 6 86 L 1 86 L 1 81 L 6 81 L 11 81 L 11 86 L 16 86 L 16 81 L 21 81 L 26 81 L 26 86 L 21 86 L 21 91 L 21 96 L 26 96 L 26 91 L 31 91 L 31 96 L 36 96 L 36 91 L 36 86 L 31 86 L 31 81 L 36 81 L 41 81 L 41 86 L 46 86 L 46 81 L 51 81 L 56 81 L 56 86 L 51 86 L 51 91 L 56 91 L 56 96 L 51 96 L 46 96 L 46 91 L 41 91 L 41 96 L 41 101 L 46 101 L 46 106 L 41 106 L 41 111 L 41 116 L 46 116 L 46 111 L 51 111 L 51 116 L 56 116 L 56 111 L 56 106 L 51 106 L 51 101 L 56 101 L 61 101 L 66 101 L 66 106 L 61 106 L 61 111 L 61 116 L 66 116 L 66 111 L 71 111 L 71 116 L 76 116 L 76 111 L 76 106 L 71 106 L 71 101 L 76 101 L 76 96 L 76 91 L 71 91 L 71 96 L 66 96 L 61 96 L 61 91 L 66 91 L 66 86 L 61 86 L 61 81 L 66 81 L 71 81 L 71 86 L 76 86 L 76 81 L 76 76 L 76 71 L 71 71 L 71 76 L 66 76 L 61 76 L 61 71 L 66 71 L 66 66 L 61 66 L 61 61 L 66 61 L 71 61 L 71 66 L 76 66 L 76 61 L 76 56 L 71 56 L 71 51 L 76 51 L 76 46 L 76 41 L 71 41 L 71 46 L 66 46 L 66 41 L 61 41 L 61 46 L 61 51 L 66 51 L 66 56 L 61 56 L 56 56 L 51 56 L 51 51 L 56 51 L 56 46 L 56 41 L 51 41 L 51 46 L 46 46 L 46 41 L 41 41 L 41 46 L 41 51 L 46 51 L 46 56 L 41 56 L 41 61 L 41 66 L 46 66 L 46 61 L 51 61 L 56 61 L 56 66 L 51 66 L 51 71 L 56 71 L 56 76 L 51 76 L 46 76 L 46 71 L 41 71 L 41 76 L 36 76 L 31 76 L 31 71 L 36 71 L 36 66 L 36 61 L 31 61 L 31 66 L 26 66 L 26 61 L 21 61 L 21 66 L 21 71 L 26 71 L 26 76 L 21 76 L 16 76 L 16 71 L 11 71 L 11 76 L 6 76 L 1 76 L 1 71 L 6 71 L 6 66 L 1 66 L 1 61 L 6 61 L 11 61 L 11 66 L 16 66 L 16 61 L 16 56 L 16 51 L 11 51 L 11 56 L 6 56 L 1 56 L 1 51 L 6 51 L 6 46 L 1 46 L 1 41 L 6 41 L 11 41 L 11 46 L 16 46 L 16 41 L 21 41 L 26 41 L 26 46 L 21 46 L 21 51 L 21 56 L 26 56 L 26 51 L 31 51 L 31 56 L 36 56 L 36 51 L 36 46 L 31 46 L 31 41 L 36 41 L 36 36 L 31 36 L 31 31 L 36 31 L 36 26 L 36 21 L 31 21 L 31 26 L 26 26 L 26 21 L 21 21 L 21 26 L 21 31 L 26 31 L 26 36 L 21 36 L 16 36 L 16 31 L 11 31 L 11 36 L 6 36 L 1 36 L 1 31 L 6 31 L 6 26 L 1 26 L 1 21 L 6 21 L 11 21 L 11 26 L 16 26 L 16 21 L 16 16 L 16 11 L 11 11 L 11 16 L 6 16 L 1 16 L 1 11 L 6 11 L 6 6 L 1 6 L 1 1 L 6 1 L 11 1 L 11 6 L 16 6 L 16 1 L 21 1 L 26 1 L 26 6 L 21 6 L 21 11 L 21 16 L 26 16 L 26 11 L 31 11 L 31 16 L 36 16 L 36 11 L 36 6 L 31 6 L 31 1 L 36 1 L 41 1 L 41 6 L 46 6 L 46 1 L 51 1 L 56 1 L 56 6 L 51 6 L 51 11 L 56 11 L 56 16 L 51 16 L 46 16 L 46 11 L 41 11 L 41 16 L 41 21 L 46 21 L 46 26 L 41 26 L 41 31 L 41 36 L 46 36 L 46 31 L 51 31 L 51 36 L 56 36 L 56 31 L 56 26 L 51 26 L 51 21 L 56 21 L 61 21 L 66 21 L 66 26 L 61 26 L 61 31 L 61 36 L 66 36 L 66 31 L 71 31 L 71 36 L 76 36 L 76 31 L 76 26 L 71 26 L 71 21 L 76 21 L 76 16 L 76 11 L 71 11 L 71 16 L 66 16 L 61 16 L 61 11 L 66 11 L 66 6 L 61 6 L 61 1 L 66 1 L 71 1 L 71 6 L 76 6 L 76 1 L 81 1 L 86 1 L 86 6 L 81 6 L 81 11 L 81 16 L 86 16 L 86 11 L 91 11 L 91 16 L 96 16 L 96 11 L 96 6 L 91 6 L 91 1 L 96 1 L 101 1 L 101 6 L 106 6 L 106 1 L 111 1 L 116 1 L 116 6 L 111 6 L 111 11 L 116 11 L 116 16 L 111 16 L 106 16 L 106 11 L 101 11 L 101 16 L 101 21 L 101 26 L 106 26 L 106 21 L 111 21 L 116 21 L 116 26 L 111 26 L 111 31 L 116 31 L 116 36 L 111 36 L 106 36 L 106 31 L 101 31 L 101 36 L 96 36 L 91 36 L 91 31 L 96 31 L 96 26 L 96 21 L 91 21 L 91 26 L 86 26 L 86 21 L 81 21 L 81 26 L 81 31 L 86 31 L 86 36 L 81 36 L 81 41 L 81 46 L 86 46 L 86 41 L 91 41 L 96 41 L 96 46 L 91 46 L 91 51 L 96 51 L 96 56 L 91 56 L 86 56 L 86 51 L 81 51 L 81 56 L 81 61 L 86 61 L 86 66 L 81 66 L 81 71 L 81 76 L 86 76 L 86 71 L 91 71 L 91 76 L 96 76 L 96 71 L 96 66 L 91 66 L 91 61 L 96 61 L 101 61 L 106 61 L 106 66 L 101 66 L 101 71 L 101 76 L 106 76 L 106 71 L 111 71 L 111 76 L 116 76 L 116 71 L 116 66 L 111 66 L 111 61 L 116 61 L 116 56 L 116 51 L 111 51 L 111 56 L 106 56 L 101 56 L 101 51 L 106 51 L 106 46 L 101 46 L 101 41 L 106 41 L 111 41 L 111 46 L 116 46 L 116 41 L 121 41 L 121 46 L 126 46 L 126 41 L 131 41 L 136 41 L 136 46 L 131 46 L 131 51 L 136 51 L 136 56 L 131 56 L 126 56 L 126 51 L 121 51 L 121 56 L 121 61 L 126 61 L 126 66 L 121 66 L 121 71 L 121 76 L 126 76 L 126 71 L 131 71 L 131 76 L 136 76 L 136 71 L 136 66 L 131 66 L 131 61 L 136 61 L 141 61 L 146 61 L 146 66 L 141 66 L 141 71 L 141 76 L 146 76 L 146 71 L 151 71 L 151 76 L 156 76 L 156 71 L 156 66 L 151 66 L 151 61 L 156 61 L 156 56 L 156 51 L 151 51 L 151 56 L 146 56 L 141 56 L 141 51 L 146 51 L 146 46 L 141 46 L 141 41 L 146 41 L 151 41 L 151 46 L 156 46 L 156 41 L 156 36 L 151 36 L 151 31 L 156 31 L 156 26 L 156 21 L 151 21 L 151 26 L 146 26 L 146 21 L 141 21 L 141 26 L 141 31 L 146 31 L 146 36 L 141 36 L 136 36 L 136 31 L 131 31 L 131 36 L 126 36 L 121 36 L 121 31 L 126 31 L 126 26 L 121 26 L 121 21 L 126 21 L 131 21 L 131 26 L 136 26 L 136 21 L 136 16 L 136 11 L 131 11 L 131 16 L 126 16 L 121 16 L 121 11 L 126 11 L 126 6 L 121 6 L 121 1 L 126 1 L 131 1 L 131 6 L 136 6 L 136 1 L 141 1 L 146 1 L 146 6 L 141 6 L 141 11 L 141 16 L 146 16 L 146 11 L 151 11 L 151 16 L 156 16 L 156 11 L 156 6 L 151 6 L 151 1 L 156 1 L 161 1 L 161 6 L 166 6 L 166 1 L 171 1 L 176 1 L 176 6 L 171 6 L 171 11 L 176 11 L 176 16 L 171 16 L 166 16 L 166 11 L 161 11 L 161 16 L 161 21 L 166 21 L 166 26 L 161 26 L 161 31 L 161 36 L 166 36 L 166 31 L 171 31 L 171 36 L 176 36 L 176 31 L 176 26 L 171 26 L 171 21 L 176 21 L 181 21 L 186 21 L 186 26 L 181 26 L 181 31 L 181 36 L 186 36 L 186 31 L 191 31 L 191 36 L 196 36 L 196 31 L 196 26 L 191 26 L 191 21 L 196 21 L 196 16 L 196 11 L 191 11 L 191 16 L 186 16 L 181 16 L 181 11 L 186 11 L 186 6 L 181 6 L 181 1 L 186 1 L 191 1 L 191 6 L 196 6 L 196 1 L 201 1 L 206 1 L 206 6 L 201 6 L 201 11 L 201 16 L 206 16 L 206 11 L 211 11 L 211 16 L 216 16 L 216 11 L 216 6 L 211 6 L 211 1 L 216 1 L 221 1 L 221 6 L 226 6 L 226 1 L 231 1 L 236 1 L 236 6 L 231 6 L 231 11 L 236 11 L 236 16 L 231 16 L 226 16 L 226 11 L 221 11 L 221 16 L 221 21 L 221 26 L 226 26 L 226 21 L 231 21 L 236 21 L 236 26 L 231 26 L 231 31 L 236 31 L 236 36 L 231 36 L 226 36 L 226 31 L 221 31 L 221 36 L 216 36 L 211 36 L 211 31 L 216 31 L 216 26 L 216 21 L 211 21 L 211 26 L 206 26 L 206 21 L 201 21 L 201 26 L 201 31 L 206 31 L 206 36 L 201 36 L 201 41 L 206 41 L 206 46 L 201 46 L 201 51 L 201 56 L 206 56 L 206 51 L 211 51 L 211 56 L 216 56 L 216 51 L 216 46 L 211 46 L 211 41 L 216 41 L 221 41 L 221 46 L 226 46 L 226 41 L 231 41 L 236 41 L 236 46 L 231 46 L 231 51 L 236 51 L 236 56 L 231 56 L 226 56 L 226 51 L 221 51 L 221 56 L 221 61 L 221 66 L 226 66 L 226 61 L 231 61 L 236 61 L 236 66 L 231 66 L 231 71 L 236 71 L 236 76 L 231 76 L 226 76 L 226 71 L 221 71 L 221 76 L 216 76 L 211 76 L 211 71 L 216 71 L 216 66 L 216 61 L 211 61 L 211 66 L 206 66 L 206 61 L 201 61 L 201 66 L 201 71 L 206 71 L 206 76 L 201 76 L 196 76 L 196 71 L 191 71 L 191 76 L 186 76 L 181 76 L 181 71 L 186 71 L 186 66 L 181 66 L 181 61 L 186 61 L 191 61 L 191 66 L 196 66 L 196 61 L 196 56 L 191 56 L 191 51 L 196 51 L 196 46 L 196 41 L 191 41 L 191 46 L 186 46 L 186 41 L 181 41 L 181 46 L 181 51 L 186 51 L 186 56 L 181 56 L 176 56 L 171 56 L 171 51 L 176 51 L 176 46 L 176 41 L 171 41 L 171 46 L 166 46 L 166 41 L 161 41 L 161 46 L 161 51 L 166 51 L 166 56 L 161 56 L 161 61 L 161 66 L 166 66 L 166 61 L 171 61 L 176 61 L 176 66 L 171 66 L 171 71 L 176 71 L 176 76 L 171 76 L 166 76 L 166 71 L 161 71 L 161 76 L 161 81 L 166 81 L 166 86 L 161 86 L 161 91 L 161 96 L 166 96 L 166 91 L 171 91 L 171 96 L 176 96 L 176 91 L 176 86 L 171 86 L 171 81 L 176 81 L 181 81 L 181 86 L 186 86 L 186 81 L 191 81 L 196 81 L 196 86 L 191 86 L 191 91 L 196 91 L 196 96 L 191 96 L 186 96 L 186 91 L 181 91 L 181 96 L 181 101 L 181 106 L 186 106 L 186 101 L 191 101 L 196 101 L 196 106 L 191 106 L 191 111 L 196 111 L 196 116 L 191 116 L 186 116 L 186 111 L 181 111 L 181 116 L 176 116 L 171 116 L 171 111 L 176 111 L 176 106 L 176 101 L 171 101 L 171 106 L 166 106 L 166 101 L 161 101 L 161 106 L 161 111 L 166 111 L 166 116 L 161 116 L 161 121 L 161 126 L 166 126 L 166 121 L 171 121 L 176 121 L 176 126 L 171 126 L 171 131 L 176 131 L 176 136 L 171 136 L 166 136 L 166 131 L 161 131 L 161 136 L 161 141 L 166 141 L 166 146 L 161 146 L 161 151 L 161 156 L 166 156 L 166 151 L 171 151 L 171 156 L 176 156 L 176 151 L 176 146 L 171 146 L 171 141 L 176 141 L 181 141 L 186 141 L 186 146 L 181 146 L 181 151 L 181 156 L 186 156 L 186 151 L 191 151 L 191 156 L 196 156 L 196 151 L 196 146 L 191 146 L 191 141 L 196 141 L 196 136 L 196 131 L 191 131 L 191 136 L 186 136 L 181 136 L 181 131 L 186 131 L 186 126 L 181 126 L 181 121 L 186 121 L 191 121 L 191 126 L 196 126 L 196 121 L 201 121 L 201 126 L 206 126 L 206 121 L 211 121 L 216 121 L 216 126 L 211 126 L 211 131 L 216 131 L 216 136 L 211 136 L 206 136 L 206 131 L 201 131 L 201 136 L 201 141 L 206 141 L 206 146 L 201 146 L 201 151 L 201 156 L 206 156 L 206 151 L 211 151 L 211 156 L 216 156 L 216 151 L 216 146 L 211 146 L 211 141 L 216 141 L 221 141 L 226 141 L 226 146 L 221 146 L 221 151 L 221 156 L 226 156 L 226 151 L 231 151 L 231 156 L 236 156 L 236 151 L 236 146 L 231 146 L 231 141 L 236 141 L 236 136 L 236 131 L 231 131 L 231 136 L 226 136 L 221 136 L 221 131 L 226 131 L 226 126 L 221 126 L 221 121 L 226 121 L 231 121 L 231 126 L 236 126 L 236 121 L 236 116 L 231 116 L 231 111 L 236 111 L 236 106 L 236 101 L 231 101 L 231 106 L 226 106 L 226 101 L 221 101 L 221 106 L 221 111 L 226 111 L 226 116 L 221 116 L 216 116 L 216 111 L 211 111 L 211 116 L 206 116 L 201 116 L 201 111 L 206 111 L 206 106 L 201 106 L 201 101 L 206 101 L 211 101 L 211 106 L 216 106 L 216 101 L 216 96 L 216 91 L 211 91 L 211 96 L 206 96 L 201 96 L 201 91 L 206 91 L 206 86 L 201 86 L 201 81 L 206 81 L 211 81 L 211 86 L 216 86 L 216 81 L 221 81 L 226 81 L 226 86 L 221 86 L 221 91 L 221 96 L 226 96 L 226 91 L 231 91 L 231 96 L 236 96 L 236 91 L 236 86 L 231 86 L 231 81 L 236 81 L 241 81 L 246 81 L 246 86 L 241 86 L 241 91 L 241 96 L 246 96 L 246 91 L 251 91 L 251 96 L 256 96 L 256 91 L 256 86 L 251 86 L 251 81 L 256 81 L 261 81 L 261 86 L 266 86 L 266 81 L 271 81 L 276 81 L 276 86 L 271 86 L 271 91 L 276 91 L 276 96 L 271 96 L 266 96 L 266 91 L 261 91 L 261 96 L 261 101 L 261 106 L 266 106 L 266 101 L 271 101 L 276 101 L 276 106 L 271 106 L 271 111 L 276 111 L 276 116 L 271 116 L 266 116 L 266 111 L 261 111 L 261 116 L 256 116 L 251 116 L 251 111 L 256 111 L 256 106 L 256 101 L 251 101 L 251 106 L 246 106 L 246 101 L 241 101 L 241 106 L 241 111 L 246 111 L 246 116 L 241 116 L 241 121 L 241 126 L 246 126 L 246 121 L 251 121 L 256 121 L 256 126 L 251 126 L 251 131 L 256 131 L 256 136 L 251 136 L 246 136 L 246 131 L 241 131 L 241 136 L 241 141 L 246 141 L 246 146 L 241 146 L 241 151 L 241 156 L 246 156 L 246 151 L 251 151 L 251 156 L 256 156 L 256 151 L 256 146 L 251 146 L 251 141 L 256 141 L 261 141 L 266 141 L 266 146 L 261 146 L 261 151 L 261 156 L 266 156 L 266 151 L 271 151 L 271 156 L 276 156 L 276 151 L 276 146 L 271 146 L 271 141 L 276 141 L 276 136 L 276 131 L 271 131 L 271 136 L 266 136 L 261 136 L 261 131 L 266 131 L 266 126 L 261 126 L 261 121 L 266 121 L 271 121 L 271 126 L 276 126 L 276 121 L 281 121 L 281 126 L 286 126 L 286 121 L 291 121 L 296 121 L 296 126 L 291 126 L 291 131 L 296 131 L 296 136 L 291 136 L 286 136 L 286 131 L 281 131 L 281 136 L 281 141 L 286 141 L 286 146 L 281 146 L 281 151 L 281 156 L 286 156 L 286 151 L 291 151 L 291 156 L 296 156 L 296 151 L 296 146 L 291 146 L 291 141 L 296 141 L 301 141 L 306 141 L 306 146 L 301 146 L 301 151 L 301 156 L 306 156 L 306 151 L 311 151 L 311 156 L 316 156 L 316 151 L 316 146 L 311 146 L 311 141 L 316 141 L 316 136 L 316 131 L 311 131 L 311 136 L 306 136 L 301 136 L 301 131 L 306 131 L 306 126 L 301 126 L 301 121 L 306 121 L 311 121 L 311 126 L 316 126 L 316 121 L 316 116 L 311 116 L 311 111 L 316 111 L 316 106 L 316 101 L 311 101 L 311 106 L 306 106 L 306 101 L 301 101 L 301 106 L 301 111 L 306 111 L 306 116 L 301 116 L 296 116 L 296 111 L 291 111 L 291 116 L 286 116 L 281 116 L 281 111 L 286 111 L 286 106 L 281 106 L 281 101 L 286 101 L 291 101 L 291 106 L 296 106 L 296 101 L 296 96 L 296 91 L 291 91 L 291 96 L 286 96 L 281 96 L 281 91 L 286 91 L 286 86 L 281 86 L 281 81 L 286 81 L 291 81 L 291 86 L 296 86 L 296 81 L 301 81 L 306 81 L 306 86 L 301 86 L 301 91 L 301 96 L 306 96 L 306 91 L 311 91 L 311 96 L 316 96 L 316 91 L 316 86 L 311 86 L 311 81 L 316 81 L 316 76 L 316 71 L 311 71 L 311 76 L 306 76 L 301 76 L 301 71 L 306 71 L 306 66 L 301 66 L 301 61 L 306 61 L 311 61 L 311 66 L 316 66 L 316 61 L 316 56 L 311 56 L 311 51 L 316 51 L 316 46 L 316 41 L 311 41 L 311 46 L 306 46 L 306 41 L 301 41 L 301 46 L 301 51 L 306 51 L 306 56 L 301 56 L 296 56 L 291 56 L 291 51 L 296 51 L 296 46 L 296 41 L 291 41 L 291 46 L 286 46 L 286 41 L 281 41 L 281 46 L 281 51 L 286 51 L 286 56 L 281 56 L 281 61 L 281 66 L 286 66 L 286 61 L 291 61 L 296 61 L 296 66 L 291 66 L 291 71 L 296 71 L 296 76 L 291 76 L 286 76 L 286 71 L 281 71 L 281 76 L 276 76 L 271 76 L 271 71 L 276 71 L 276 66 L 276 61 L 271 61 L 271 66 L 266 66 L 266 61 L 261 61 L 261 66 L 261 71 L 266 71 L 266 76 L 261 76 L 256 76 L 256 71 L 251 71 L 251 76 L 246 76 L 241 76 L 241 71 L 246 71 L 246 66 L 241 66 L 241 61 L 246 61 L 251 61 L 251 66 L 256 66 L 256 61 L 256 56 L 256 51 L 251 51 L 251 56 L 246 56 L 241 56 L 241 51 L 246 51 L 246 46 L 241 46 L 241 41 L 246 41 L 251 41 L 251 46 L 256 46 L 256 41 L 261 41 L 266 41 L 266 46 L 261 46 L 261 51 L 261 56 L 266 56 L 266 51 L 271 51 L 271 56 L 276 56 L 276 51 L 276 46 L 271 46 L 271 41 L 276 41 L 276 36 L 271 36 L 271 31 L 276 31 L 276 26 L 276 21 L 271 21 L 271 26 L 266 26 L 266 21 L 261 21 L 261 26 L 261 31 L 266 31 L 266 36 L 261 36 L 256 36 L 256 31 L 251 31 L 251 36 L 246 36 L 241 36 L 241 31 L 246 31 L 246 26 L 241 26 L 241 21 L 246 21 L 251 21 L 251 26 L 256 26 L 256 21 L 256 16 L 256 11 L 251 11 L 251 16 L 246 16 L 241 16 L 241 11 L 246 11 L 246 6 L 241 6 L 241 1 L 246 1 L 251 1 L 251 6 L 256 6 L 256 1 L 261 1 L 266 1 L 266 6 L 261 6 L 261 11 L 261 16 L 266 16 L 266 11 L 271 11 L 271 16 L 276 16 L 276 11 L 276 6 L 271 6 L 271 1 L 276 1 L 281 1 L 281 6 L 286 6 L 286 1 L 291 1 L 296 1 L 296 6 L 291 6 L 291 11 L 296 11 L 296 16 L 291 16 L 286 16 L 286 11 L 281 11 L 281 16 L 281 21 L 286 21 L 286 26 L 281 26 L 281 31 L 281 36 L 286 36 L 286 31 L 291 31 L 291 36 L 296 36 L 296 31 L 296 26 L 291 26 L 291 21 L 296 21 L 301 21 L 306 21 L 306 26 L 301 26 L 301 31 L 301 36 L 306 36 L 306 31 L 311 31 L 311 36 L 316 36 L 316 31 L 316 26 L 311 26 L 311 21 L 316 21 L 316 16 L 316 11 L 311 11 L 311 16 L 306 16 L 301 16 L 301 11 L 306 11 L 306 6 L 301 6 L 301 1 L 306 1 L 311 1 L 311 6 L 316 6 L 316 1 " />
  </g>
</svg>
