<?xml version="1.0" encoding="UTF-8" standalone="no"?>
<!DOCTYPE svg PUBLIC "-//W3C//DTD SVG 1.1//EN"
    "http://www.w3.org/Graphics/SVG/1.1/DTD/svg11.dtd">
<svg xmlns="http://www.w3.org/2000/svg" width="73" height="282">
  <desc>hogeweg_c LSystem</desc>
  <rect width="100%" height="100%" style="fill: white"/>
  <g stroke="black" fill="none" stroke-width="1">
    <path d="M 21.85944 280.5733 L 21.85944 275.5733 L 21.85944 270.5733 L 21.85944 265.5733 L 21.85944 260.5733 L 19.68721 256.0699 L 17.51499 251.5663 M 21.85944 260.5733 L 24.03166 256.0699 L 26.20389 251.5663 M 21.85944 260.5733 L 21.85944 255.5733 L 24.03166 251.0698 L 26.20389 246.5663 M 21.85944 255.5733 L 21.85944 250.5733 L 19.68721 246.0698 L 17.51499 241.5663 M 21.85944 250.5733 L 24.03166 246.0698 L 24.03166 241.0698 L 24.03166 236.0698 M 24.03166 246.0698 L 26.20389 241.5663 L 26.20389 236.5663 L 26.20389 231.5663 M 26.20389 241.5663 L 28.37612 237.0629 L 32.28916 233.9503 L 36.2022 230.8377 M 28.37612 237.0629 L 28.37612 232.0629 L 30.54834 227.5594 L 32.72057 223.0559 M 28.37612 232.0629 L 28.37612 227.0629 L 30.54834 222.5594 L 32.72057 218.0559 M 28.37612 227.0629 L 28.37612 222.0629 L 28.37612 217.0629 L 28.37612 212.0629 M 28.37612 237.0629 L 30.54834 232.5594 M 21.85944 250.5733 L 21.85944 245.5733 L 19.68721 241.0698 L 17.51499 236.5663 M 21.85944 245.5733 L 21.85944 240.5733 L 24.03166 236.0698 L 24.03166 231.0698 L 24.03166 226.0698 M 24.03166 236.0698 L 26.20389 231.5663 M 21.85944 240.5733 L 19.68721 236.0698 L 15.77417 232.9573 L 11.86113 229.8447 M 19.68721 236.0698 L 19.68721 231.0698 L 19.68721 226.0698 M 19.68721 236.0698 L 17.51499 231.5663 L 17.51499 226.5663 L 17.51499 221.5663 M 17.51499 231.5663 L 15.34276 227.0629 L 13.17053 222.5594 L 9.25749 219.4468 L 5.34445 216.3342 M 13.17053 222.5594 L 13.17053 217.5594 L 10.99831 213.0559 L 8.82608 208.5524 M 13.17053 217.5594 L 13.17053 212.5594 L 10.99831 208.0559 L 8.82608 203.5524 M 13.17053 212.5594 L 13.17053 207.5594 L 10.99831 203.0559 L 8.82608 198.5524 M 13.17053 207.5594 L 13.17053 202.5594 L 13.17053 197.5594 M 13.17053 222.5594 L 10.99831 218.0559 M 21.85944 240.5733 L 24.03166 236.0698 L 24.03166 231.0698 L 21.85944 226.5663 L 19.68721 222.0629 M 24.03166 231.0698 L 26.20389 226.5663 L 28.37612 222.0629 M 24.03166 231.0698 L 24.03166 226.0698 M 24.03166 236.0698 L 26.20389 231.5663 L 26.20389 226.5663 L 26.20389 221.5663 M 26.20389 231.5663 L 30.11693 228.4538 L 34.02997 225.3412 M 26.20389 231.5663 L 26.20389 226.5663 L 28.37612 222.0629 L 30.54834 217.5594 M 26.20389 226.5663 L 26.20389 221.5663 L 26.20389 216.5663 L 26.20389 211.5663 M 26.20389 231.5663 L 28.37612 227.0629 L 32.28916 223.9503 L 36.2022 220.8377 M 28.37612 227.0629 L 30.54834 222.5594 L 30.54834 217.5594 L 30.54834 212.5594 M 30.54834 222.5594 L 32.72057 218.0559 L 32.72057 213.0559 L 32.72057 208.0559 M 32.72057 218.0559 L 34.89279 213.5524 L 34.89279 208.5524 L 34.89279 203.5524 M 34.89279 213.5524 L 37.06502 209.0489 L 39.23725 204.5454 M 21.85944 240.5733 L 21.85944 235.5733 L 24.03166 231.0698 L 24.03166 226.0698 L 24.03166 221.0698 M 24.03166 231.0698 L 26.20389 226.5663 M 21.85944 235.5733 L 21.85944 230.5733 L 19.68721 226.0698 L 15.77417 222.9573 L 11.86113 219.8447 M 19.68721 226.0698 L 19.68721 221.0698 L 19.68721 216.0699 M 19.68721 226.0698 L 17.51499 221.5663 M 21.85944 230.5733 L 24.03166 226.0698 L 27.9447 222.9573 L 31.85774 219.8447 M 24.03166 226.0698 L 24.03166 221.0698 L 24.03166 216.0699 L 24.03166 211.0699 M 24.03166 226.0698 L 26.20389 221.5663 L 28.37612 217.0629 L 28.37612 212.0629 L 28.37612 207.0629 M 28.37612 217.0629 L 30.54834 212.5594 L 30.54834 207.5594 L 30.54834 202.5594 M 30.54834 212.5594 L 32.72057 208.0559 L 36.63361 204.9433 L 40.54665 201.8307 M 32.72057 208.0559 L 32.72057 203.0559 L 32.72057 198.0559 L 34.89279 193.5524 L 34.89279 188.5524 L 34.89279 183.5524 M 34.89279 193.5524 L 37.06502 189.0489 M 32.72057 198.0559 L 32.72057 193.0559 L 30.54834 188.5524 L 28.37612 184.0489 M 32.72057 193.0559 L 34.89279 188.5524 L 37.06502 184.0489 M 32.72057 193.0559 L 32.72057 188.0559 L 34.89279 183.5524 L 37.06502 179.0489 M 32.72057 188.0559 L 32.72057 183.0559 L 32.72057 178.0559 L 32.72057 173.0559 M 32.72057 208.0559 L 34.89279 203.5524 M 21.85944 230.5733 L 21.85944 225.5733 L 19.68721 221.0698 L 15.77417 217.9573 L 11.86113 214.8447 M 19.68721 221.0698 L 19.68721 216.0699 L 19.68721 211.0699 M 19.68721 221.0698 L 17.51498 216.5663 M 21.85944 225.5733 L 21.85944 220.5733 L 24.03166 216.0699 L 24.03166 211.0699 L 24.03166 206.0699 M 24.03166 216.0699 L 27.9447 212.9573 L 31.85774 209.8447 M 24.03166 216.0699 L 24.03166 211.0699 L 24.03166 206.0699 L 24.03166 201.0699 M 24.03166 216.0699 L 26.20389 211.5663 M 21.85944 220.5733 L 19.68721 216.0699 L 15.77417 212.9573 L 11.86113 209.8447 M 19.68721 216.0699 L 19.68721 211.0699 L 17.51498 206.5663 L 15.34276 202.0629 M 19.68721 211.0699 L 19.68721 206.0699 L 19.68721 201.0699 M 19.68721 216.0699 L 17.51498 211.5663 L 13.60194 208.4538 L 9.6889 205.3412 M 17.51498 211.5663 L 15.34276 207.0629 L 15.34276 202.0629 L 15.34276 197.0629 M 15.34276 207.0629 L 13.17053 202.5594 L 13.17053 197.5594 L 13.17053 192.5594 M 13.17053 202.5594 L 10.9983 198.0559 L 8.82608 193.5524 L 4.91304 190.4398 L 1 187.3272 M 8.82608 193.5524 L 8.82608 188.5524 L 6.65385 184.0489 L 4.48163 179.5454 M 8.82608 188.5524 L 8.82608 183.5524 L 6.65385 179.0489 L 6.65385 174.0489 L 6.65385 169.0489 M 6.65385 179.0489 L 4.48163 174.5454 M 8.82608 183.5524 L 8.82608 178.5524 L 10.9983 174.0489 L 13.17053 169.5454 M 8.82608 178.5524 L 6.65385 174.0489 L 4.48163 169.5454 L 2.309401 165.0419 M 8.82608 178.5524 L 8.82608 173.5524 L 8.82608 168.5524 L 6.65385 164.0489 L 4.48163 159.5454 M 8.82608 168.5524 L 8.82608 163.5524 L 6.65385 159.0489 L 4.48163 154.5454 M 8.82608 163.5524 L 8.82608 158.5524 L 8.82608 153.5524 M 8.82608 193.5524 L 6.65385 189.0489 M 21.85944 220.5733 L 24.03166 216.0699 L 27.9447 212.9573 L 31.85774 209.8447 M 24.03166 216.0699 L 26.20389 211.5663 L 28.37611 207.0629 L 28.37611 202.0629 L 28.37611 197.0629 M 28.37611 207.0629 L 32.28916 203.9503 L 34.46138 199.4468 L 36.63361 194.9433 M 32.28916 203.9503 L 36.2022 200.8377 L 41.07891 199.7342 L 45.95562 198.6307 M 36.2022 200.8377 L 38.37442 196.3342 L 42.28746 193.2216 L 46.2005 190.1091 M 38.37442 196.3342 L 40.54665 191.8307 L 42.71887 187.3272 L 44.8911 182.8237 M 36.2022 200.8377 L 40.11524 197.7251 M 28.37611 207.0629 L 28.37611 202.0629 L 28.37611 197.0629 L 26.20389 192.5594 L 24.03166 188.0559 M 28.37611 197.0629 L 30.54834 192.5594 L 30.54834 187.5594 L 30.54834 182.5594 M 30.54834 192.5594 L 32.72057 188.0559 L 32.72057 183.0559 L 32.72057 178.0559 M 32.72057 188.0559 L 34.89279 183.5524 L 37.06502 179.0489 M 28.37611 197.0629 L 28.37611 192.0629 L 26.20389 187.5594 L 24.03166 183.0559 M 28.37611 192.0629 L 28.37611 187.0629 L 30.54834 182.5594 L 30.54834 177.5594 L 30.54834 172.5594 M 30.54834 182.5594 L 32.72057 178.0559 M 28.37611 187.0629 L 28.37611 182.0629 L 26.20389 177.5594 L 24.03166 173.0559 M 28.37611 182.0629 L 30.54834 177.5594 L 32.72057 173.0559 M 28.37611 182.0629 L 28.37611 177.0629 L 30.54834 172.5594 L 32.72057 168.0559 M 28.37611 177.0629 L 28.37611 172.0629 L 28.37611 167.0629 L 28.37611 162.0629 M 28.37611 207.0629 L 30.54834 202.5594 L 30.54834 197.5594 L 30.54834 192.5594 M 30.54834 202.5594 L 32.72057 198.0559 L 36.63361 194.9433 L 40.54665 191.8307 M 32.72057 198.0559 L 36.63361 194.9433 L 41.51032 193.8398 L 46.38703 192.7363 M 36.63361 194.9433 L 40.54665 191.8307 L 44.45969 188.7181 L 46.63191 184.2147 L 48.80414 179.7112 M 44.45969 188.7181 L 48.37273 185.6056 M 32.72057 198.0559 L 34.89279 193.5524 L 38.80583 190.4398 L 42.71887 187.3272 M 34.89279 193.5524 L 37.06502 189.0489 L 37.06502 184.0489 L 37.06502 179.0489 M 37.06502 189.0489 L 37.06502 184.0489 L 34.89279 179.5454 L 32.72057 175.0419 M 37.06502 184.0489 L 37.06502 179.0489 L 34.89279 174.5454 L 32.72057 170.0419 M 37.06502 179.0489 L 37.06502 174.0489 L 39.23724 169.5454 L 41.40947 165.0419 M 37.06502 174.0489 L 37.06502 169.0489 M 37.06502 189.0489 L 39.23724 184.5454 L 39.23724 179.5454 L 39.23724 174.5454 M 39.23724 184.5454 L 41.40947 180.0419 L 45.32251 176.9293 L 47.49474 172.4258 L 49.66696 167.9223 M 45.32251 176.9293 L 49.23555 173.8167 M 41.40947 180.0419 L 41.40947 175.0419 L 39.23724 170.5384 L 37.06502 166.0349 M 41.40947 175.0419 L 43.5817 170.5384 L 45.75392 166.0349 M 41.40947 175.0419 L 41.40947 170.0419 L 43.5817 165.5384 L 45.75392 161.0349 M 41.40947 170.0419 L 41.40947 165.0419 L 41.40947 160.0419 L 41.40947 155.0419 M 41.40947 180.0419 L 43.5817 175.5384 L 47.49474 172.4258 L 49.66696 167.9223 L 51.83919 163.4188 M 47.49474 172.4258 L 51.40778 169.3132 M 43.5817 175.5384 L 45.75392 171.0349 L 45.75392 166.0349 L 45.75392 161.0349 M 45.75392 171.0349 L 45.75392 166.0349 L 47.92615 161.5314 L 50.09837 157.0279 M 45.75392 166.0349 L 45.75392 161.0349 M 45.75392 171.0349 L 47.92615 166.5314 L 51.83919 163.4188 L 55.75223 160.3063 M 47.92615 166.5314 L 47.92615 161.5314 L 47.92615 156.5314 L 47.92615 151.5314 M 47.92615 166.5314 L 50.09837 162.0279 L 52.2706 157.5244 L 52.2706 152.5244 L 52.2706 147.5244 M 52.2706 157.5244 L 54.44283 153.0209 L 54.44283 148.0209 L 54.44283 143.0209 M 54.44283 153.0209 L 56.61505 148.5174 L 58.78728 144.0139 M 21.85944 220.5733 L 21.85944 215.5733 L 24.03166 211.0699 L 24.03166 206.0699 L 24.03166 201.0699 M 24.03166 211.0699 L 27.9447 207.9573 L 31.85774 204.8447 M 24.03166 211.0699 L 24.03166 206.0699 L 24.03166 201.0699 L 24.03166 196.0699 M 24.03166 211.0699 L 26.20389 206.5663 M 21.85944 215.5733 L 21.85944 210.5733 L 19.68721 206.0699 L 15.77417 202.9573 L 11.86113 199.8447 M 19.68721 206.0699 L 19.68721 201.0699 L 19.68721 196.0699 M 19.68721 206.0699 L 15.77417 202.9573 L 11.86113 199.8447 L 7.94809 196.7321 M 19.68721 206.0699 L 19.68721 201.0699 L 19.68721 196.0699 L 19.68721 191.0699 M 19.68721 206.0699 L 17.51498 201.5663 M 21.85944 210.5733 L 19.68721 206.0699 L 15.77417 202.9573 L 11.86113 199.8447 M 19.68721 206.0699 L 19.68721 201.0699 L 19.68721 196.0699 M 19.68721 206.0699 L 15.77417 202.9573 L 13.60194 198.4538 L 11.42972 193.9503 M 15.77417 202.9573 L 11.86113 199.8447 L 7.94809 196.7321 L 4.035049 193.6196 M 19.68721 206.0699 L 17.51498 201.5663 L 17.51498 196.5663 L 17.51498 191.5663 M 17.51498 201.5663 L 15.34276 197.0629 L 11.42972 193.9503 L 7.51668 190.8377 M 15.34276 197.0629 L 13.17053 192.5594 L 9.25749 189.4468 L 5.34445 186.3342 M 13.17053 192.5594 L 10.9983 188.0559 L 7.085259 184.9433 L 3.17222 181.8307 M 10.9983 188.0559 L 8.82608 183.5524 L 8.82608 178.5524 L 8.82608 173.5524 M 8.82608 183.5524 L 6.65385 179.0489 M 21.85944 210.5733 L 21.85944 205.5733 L 19.68721 201.0699 L 17.51498 196.5663 M 21.85944 205.5733 L 19.68721 201.0699 L 19.68721 196.0699 L 19.68721 191.0699 M 19.68721 201.0699 L 15.77417 197.9573 L 11.86113 194.8447 L 7.94809 191.7321 M 19.68721 201.0699 L 19.68721 196.0699 L 19.68721 191.0699 L 19.68721 186.0699 M 19.68721 201.0699 L 17.51498 196.5663 M 21.85944 205.5733 L 21.85944 200.5733 L 24.03166 196.0699 L 26.20389 191.5663 M 21.85944 200.5733 L 24.03166 196.0699 L 26.20389 191.5663 L 26.20389 186.5663 L 26.20389 181.5663 M 26.20389 191.5663 L 30.11693 188.4538 L 32.28915 183.9503 L 34.46138 179.4468 M 30.11693 188.4538 L 34.02997 185.3412 L 37.94301 182.2286 M 26.20389 191.5663 L 26.20389 186.5663 L 26.20389 181.5663 L 26.20389 176.5663 M 26.20389 191.5663 L 28.37611 187.0629 M 21.85944 200.5733 L 24.03166 196.0699 L 24.03166 191.0699 L 24.03166 186.0699 M 24.03166 196.0699 L 27.9447 192.9573 L 30.11693 188.4538 L 32.28915 183.9503 M 27.9447 192.9573 L 31.85774 189.8447 L 34.02997 185.3412 L 36.2022 180.8377 M 31.85774 189.8447 L 35.77078 186.7321 L 39.68382 183.6196 M 24.03166 196.0699 L 26.20389 191.5663 L 26.20389 186.5663 L 26.20389 181.5663 M 26.20389 191.5663 L 28.37611 187.0629 L 32.28915 183.9503 L 34.46138 179.4468 L 36.63361 174.9433 M 32.28915 183.9503 L 36.20219 180.8377 M 28.37611 187.0629 L 30.54834 182.5594 L 30.54834 177.5594 L 30.54834 172.5594 M 30.54834 182.5594 L 34.46138 179.4468 L 38.37442 176.3342 M 30.54834 182.5594 L 32.72057 178.0559 L 36.63361 174.9433 L 40.54665 171.8307 M 32.72057 178.0559 L 34.89279 173.5524 L 37.06502 169.0489 L 37.06502 164.0489 L 37.06502 159.0489 M 37.06502 169.0489 L 39.23724 164.5454 M 21.85944 200.5733 L 21.85944 195.5733 L 21.85944 190.5733 L 19.68721 186.0699 L 17.51498 181.5663 M 21.85944 190.5733 L 24.03166 186.0699 L 24.03166 181.0699 L 24.03166 176.0699 M 24.03166 186.0699 L 26.20389 181.5663 L 30.11693 178.4538 L 34.02997 175.3412 M 26.20389 181.5663 L 26.20389 176.5663 L 28.37611 172.0629 L 30.54834 167.5594 M 26.20389 176.5663 L 26.20389 171.5663 L 26.20389 166.5663 L 26.20389 161.5663 M 26.20389 181.5663 L 28.37611 177.0629 M 21.85944 190.5733 L 21.85944 185.5733 L 19.68721 181.0699 L 17.51498 176.5663 M 21.85944 185.5733 L 21.85944 180.5733 L 24.03166 176.0699 L 26.20389 171.5663 M 21.85944 180.5733 L 19.68721 176.0699 L 19.68721 171.0699 L 19.68721 166.0699 M 19.68721 176.0699 L 17.51498 171.5663 L 15.34276 167.0629 L 11.42972 163.9503 L 7.51668 160.8377 M 15.34276 167.0629 L 15.34276 162.0629 L 13.17053 157.5594 L 10.9983 153.0559 M 15.34276 162.0629 L 15.34276 157.0629 L 13.17053 152.5594 L 10.9983 148.0559 M 15.34276 157.0629 L 15.34276 152.0629 L 15.34276 147.0629 M 15.34276 167.0629 L 13.17053 162.5594 M 21.85944 180.5733 L 24.03166 176.0699 L 26.20389 171.5663 L 30.11693 168.4538 L 32.28915 163.9503 L 34.46138 159.4468 M 30.11693 168.4538 L 34.02997 165.3412 M 26.20389 171.5663 L 26.20389 166.5663 L 24.03166 162.0629 L 21.85944 157.5594 M 26.20389 166.5663 L 28.37611 162.0629 L 30.54834 157.5594 M 26.20389 166.5663 L 26.20389 161.5663 L 28.37611 157.0629 L 30.54834 152.5594 M 26.20389 161.5663 L 26.20389 156.5663 L 26.20389 151.5663 L 26.20389 146.5663 M 26.20389 171.5663 L 28.37611 167.0629 L 32.28915 163.9503 L 34.46138 159.4468 L 36.63361 154.9433 M 32.28915 163.9503 L 36.20219 160.8377 M 28.37611 167.0629 L 30.54834 162.5594 L 30.54834 157.5594 L 30.54834 152.5594 M 30.54834 162.5594 L 30.54834 157.5594 L 32.72057 153.0559 L 34.89279 148.5524 M 30.54834 157.5594 L 30.54834 152.5594 M 30.54834 162.5594 L 32.72057 158.0559 L 36.63361 154.9433 L 40.54665 151.8307 M 32.72057 158.0559 L 32.72057 153.0559 L 32.72057 148.0559 L 32.72057 143.0559 M 32.72057 158.0559 L 34.89279 153.5524 L 37.06502 149.0489 L 37.06502 144.0489 L 37.06502 139.0489 M 37.06502 149.0489 L 39.23724 144.5454 L 39.23724 139.5454 L 39.23724 134.5454 M 39.23724 144.5454 L 41.40947 140.0419 L 43.5817 135.5384 M 21.85944 180.5733 L 21.85944 175.5733 L 24.03166 171.0699 L 26.20389 166.5663 M 21.85944 175.5733 L 21.85944 170.5733 L 19.68721 166.0699 L 17.51498 161.5663 M 21.85944 170.5733 L 19.68721 166.0699 L 15.77417 162.9573 L 11.86113 159.8447 M 19.68721 166.0699 L 17.51498 161.5663 L 13.60194 158.4538 L 9.6889 155.3412 M 17.51498 161.5663 L 15.34276 157.0629 L 15.34276 152.0629 L 15.34276 147.0629 M 15.34276 157.0629 L 13.17053 152.5594 M 21.85944 170.5733 L 21.85943 165.5733 L 19.68721 161.0699 L 17.51498 156.5663 M 21.85943 165.5733 L 21.85943 160.5733 L 24.03166 156.0699 L 24.03166 151.0698 L 24.03166 146.0698 M 24.03166 156.0699 L 26.20389 151.5663 M 21.85943 160.5733 L 24.03166 156.0699 L 24.03166 151.0698 L 24.03166 146.0698 M 24.03166 156.0699 L 27.9447 152.9573 L 31.85774 149.8447 M 24.03166 156.0699 L 26.20389 151.5663 L 30.11693 148.4538 L 34.02997 145.3412 M 26.20389 151.5663 L 28.37611 147.0629 L 30.54834 142.5594 L 30.54834 137.5594 L 30.54834 132.5594 M 30.54834 142.5594 L 32.72056 138.0559 M 21.85943 160.5733 L 21.85943 155.5733 L 24.03166 151.0698 L 24.03166 146.0698 L 24.03166 141.0698 M 24.03166 151.0698 L 26.20389 146.5663 M 21.85943 155.5733 L 21.85943 150.5733 L 19.68721 146.0698 L 15.77417 142.9573 L 11.86113 139.8447 M 19.68721 146.0698 L 19.68721 141.0698 L 19.68721 136.0698 M 19.68721 146.0698 L 17.51498 141.5663 M 21.85943 150.5733 L 24.03166 146.0698 L 27.9447 142.9573 L 31.85774 139.8447 M 24.03166 146.0698 L 24.03166 141.0698 L 24.03166 136.0698 L 24.03166 131.0698 M 24.03166 146.0698 L 26.20389 141.5663 L 28.37611 137.0629 L 28.37611 132.0629 L 28.37611 127.0629 M 28.37611 137.0629 L 30.54834 132.5594 L 30.54834 127.5594 L 30.54834 122.5594 M 30.54834 132.5594 L 32.72056 128.0559 L 34.89279 123.5524 M 21.85943 150.5733 L 21.85943 145.5733 L 19.68721 141.0698 L 17.51498 136.5663 M 21.85943 145.5733 L 19.68721 141.0698 L 19.68721 136.0698 L 19.68721 131.0698 M 19.68721 141.0698 L 17.51498 136.5663 M 21.85943 145.5733 L 21.85943 140.5733 L 24.03166 136.0698 L 26.20389 131.5663 M 21.85943 140.5733 L 24.03166 136.0698 L 26.20389 131.5663 L 26.20389 126.5663 L 26.20389 121.5663 M 26.20389 131.5663 L 28.37611 127.0629 M 21.85943 140.5733 L 21.85943 135.5733 L 21.85943 130.5733 L 19.68721 126.0698 L 17.51498 121.5663 M 21.85943 130.5733 L 24.03166 126.0698 L 24.03166 121.0698 L 24.03166 116.0698 M 24.03166 126.0698 L 26.20389 121.5663 L 28.37611 117.0629 M 21.85943 130.5733 L 21.85943 125.5733 L 19.68721 121.0698 L 17.51498 116.5663 M 21.85943 125.5733 L 21.85943 120.5733 L 24.03166 116.0698 L 26.20389 111.5663 M 21.85943 120.5733 L 21.85943 115.5733 L 24.03166 111.0698 L 26.20388 106.5663 M 21.85943 115.5733 L 21.85943 110.5733 L 21.85943 105.5733 L 19.68721 101.0698 L 17.51498 96.56635 M 21.85943 105.5733 L 24.03166 101.0698 L 24.03166 96.06984 L 21.85943 91.56635 L 19.68721 87.06285 M 24.03166 96.06984 L 26.20388 91.56635 L 26.20388 86.56635 L 26.20388 81.56635 M 26.20388 91.56635 L 28.37611 87.06285 L 30.54834 82.55936 M 24.03166 96.06984 L 24.03166 91.06984 M 24.03166 101.0698 L 26.20388 96.56635 L 26.20388 91.56635 L 26.20388 86.56635 M 26.20388 96.56635 L 26.20388 91.56635 L 24.03166 87.06285 L 21.85943 82.55936 M 26.20388 91.56635 L 26.20388 86.56635 L 28.37611 82.06285 L 30.54834 77.55936 M 26.20388 86.56635 L 24.03166 82.06285 L 24.03166 77.06285 L 24.03166 72.06285 M 24.03166 82.06285 L 21.85943 77.55936 L 19.68721 73.05586 L 17.51498 68.55237 M 26.20388 86.56635 L 28.37611 82.06285 L 30.54834 77.55936 L 32.72056 73.05586 L 32.72056 68.05586 L 32.72056 63.05586 M 32.72056 73.05586 L 34.89279 68.55237 M 26.20388 86.56635 L 26.20388 81.56635 M 26.20388 96.56635 L 28.37611 92.06285 L 28.37611 87.06285 L 28.37611 82.06285 M 28.37611 92.06285 L 30.54834 87.55936 L 34.46138 84.44678 L 38.37442 81.3342 M 30.54834 87.55936 L 34.46138 84.44678 L 39.33809 83.34329 L 44.2148 82.23981 M 34.46138 84.44678 L 38.37442 81.3342 L 42.28746 78.22162 L 44.45968 73.71812 L 46.63191 69.21463 M 42.28746 78.22162 L 46.2005 75.10904 M 30.54834 87.55936 L 30.54834 82.55936 L 30.54834 77.55936 L 32.72056 73.05586 L 32.72056 68.05586 L 32.72056 63.05586 M 32.72056 73.05586 L 34.89279 68.55237 M 30.54834 77.55936 L 30.54834 72.55936 L 28.37611 68.05586 L 26.20388 63.55237 M 30.54834 72.55936 L 32.72056 68.05586 L 34.89279 63.55237 M 30.54834 72.55936 L 30.54834 67.55936 L 32.72056 63.05586 L 34.89279 58.55237 M 30.54834 67.55936 L 30.54834 62.55936 L 30.54834 57.55936 L 28.37611 53.05586 L 26.20388 48.55237 M 30.54834 57.55936 L 32.72056 53.05586 L 32.72056 48.05586 L 32.72056 43.05586 M 32.72056 53.05586 L 34.89279 48.55237 L 34.89279 43.55237 L 37.06501 39.04887 L 39.23724 34.54538 M 34.89279 43.55237 L 34.89279 38.55237 M 34.89279 48.55237 L 37.06501 44.04887 L 40.97805 40.93629 L 44.89109 37.82372 M 37.06501 44.04887 L 37.06501 39.04887 L 37.06501 34.04887 L 37.06501 29.04887 M 37.06501 44.04887 L 39.23724 39.54538 L 41.40947 35.04189 L 41.40947 30.04189 L 41.40947 25.04189 M 41.40947 35.04189 L 43.58169 30.53839 L 43.58169 25.53839 L 43.58169 20.53839 M 43.58169 30.53839 L 45.75392 26.0349 L 47.92614 21.5314 M 30.54834 57.55936 L 30.54834 52.55936 M 30.54834 87.55936 L 32.72056 83.05586 L 36.6336 79.94328 L 40.54664 76.8307 M 32.72056 83.05586 L 34.89279 78.55237 L 34.89279 73.55237 L 34.89279 68.55237 M 34.89279 78.55237 L 34.89279 73.55237 L 32.72056 69.04887 L 30.54834 64.54538 M 34.89279 73.55237 L 34.89279 68.55237 L 32.72056 64.04887 L 30.54834 59.54538 M 34.89279 68.55237 L 34.89279 63.55237 L 37.06501 59.04887 L 39.23724 54.54538 M 34.89279 63.55237 L 34.89279 58.55237 M 34.89279 78.55237 L 38.80583 75.43979 L 42.71887 72.32721 L 44.89109 67.82372 L 47.06332 63.32022 M 42.71887 72.32721 L 44.89109 67.82372 L 48.80413 64.71114 L 52.71717 61.59856 M 44.89109 67.82372 L 47.06332 63.32022 M 42.71887 72.32721 L 46.63191 69.21463 L 51.50862 68.11115 L 56.38533 67.00766 M 46.63191 69.21463 L 48.80413 64.71114 L 50.97636 60.20764 L 53.14859 55.70415 M 46.63191 69.21463 L 50.54495 66.10205 L 54.45799 62.98947 L 56.63021 58.48598 L 58.80244 53.98248 M 54.45799 62.98947 L 58.37103 59.87689 L 60.54326 55.3734 L 62.71548 50.8699 M 58.37103 59.87689 L 62.28407 56.76431 L 66.19711 53.65173 M 34.89279 78.55237 L 34.89279 73.55237 L 32.72056 69.04887 L 30.54834 64.54538 M 34.89279 73.55237 L 34.89279 68.55237 L 32.72056 64.04887 L 28.80752 60.93629 L 24.89448 57.82372 M 32.72056 64.04887 L 32.72056 59.04887 L 32.72056 54.04887 M 32.72056 64.04887 L 30.54834 59.54538 M 34.89279 68.55237 L 34.89279 63.55237 L 32.72056 59.04887 L 30.54834 54.54538 M 34.89279 63.55237 L 37.06501 59.04887 L 39.23724 54.54538 M 34.89279 63.55237 L 37.06501 59.04887 L 40.97805 55.93629 L 44.89109 52.82372 M 37.06501 59.04887 L 39.23724 54.54538 L 41.40947 50.04189 L 41.40947 45.04189 L 41.40947 40.04189 M 41.40947 50.04189 L 43.58169 45.53839 M 34.89279 63.55237 L 34.89279 58.55237 L 37.06501 54.04887 L 39.23724 49.54538 M 34.89279 58.55237 L 34.89279 53.55237 L 32.72056 49.04887 L 30.54834 44.54538 M 34.89279 53.55237 L 37.06501 49.04887 L 37.06501 44.04887 L 37.06501 39.04887 M 37.06501 49.04887 L 39.23724 44.54538 L 39.23724 39.54538 L 39.23724 34.54538 M 39.23724 44.54538 L 41.40947 40.04189 L 43.58169 35.53839 M 34.89279 53.55237 L 34.89279 48.55237 L 32.72056 44.04887 L 30.54834 39.54538 M 34.89279 48.55237 L 34.89279 43.55237 L 37.06501 39.04887 L 37.06501 34.04887 L 37.06501 29.04887 M 37.06501 39.04887 L 39.23724 34.54538 M 34.89279 43.55237 L 34.89279 38.55237 L 32.72056 34.04887 L 30.54834 29.54538 M 34.89279 38.55237 L 37.06501 34.04887 L 39.23724 29.54538 M 34.89279 38.55237 L 34.89279 33.55237 L 37.06501 29.04887 L 39.23724 24.54538 M 34.89279 33.55237 L 34.89279 28.55237 L 34.89279 23.55237 L 34.89279 18.55237 M 34.89279 78.55237 L 37.06501 74.04887 L 37.06501 69.04887 L 37.06501 64.04887 M 37.06501 74.04887 L 39.23724 69.54538 L 43.15028 66.4328 L 45.32251 61.92931 L 47.49473 57.42581 M 43.15028 66.4328 L 47.06332 63.32022 M 39.23724 69.54538 L 43.15028 66.4328 L 45.32251 61.92931 L 47.49473 57.42581 M 43.15028 66.4328 L 48.02699 65.32932 L 52.9037 64.22583 M 43.15028 66.4328 L 47.06332 63.32022 L 51.94003 62.21674 L 56.81674 61.11325 M 47.06332 63.32022 L 50.97636 60.20764 L 54.8894 57.09506 L 57.06163 52.59157 L 59.23385 48.08807 M 54.8894 57.09506 L 58.80244 53.98248 M 39.23724 69.54538 L 41.40947 65.04189 L 45.32251 61.92931 L 47.49473 57.42581 L 49.66696 52.92232 M 45.32251 61.92931 L 49.23555 58.81673 M 41.40947 65.04189 L 43.58169 60.53839 L 43.58169 55.53839 L 41.40947 51.0349 L 39.23724 46.5314 M 43.58169 55.53839 L 45.75392 51.0349 L 47.92614 46.5314 M 43.58169 55.53839 L 43.58169 50.53839 M 43.58169 60.53839 L 43.58169 55.53839 L 45.75392 51.0349 L 47.92614 46.5314 M 43.58169 55.53839 L 41.40947 51.0349 L 39.23724 46.5314 L 37.06501 42.02791 M 43.58169 55.53839 L 43.58169 50.53839 L 43.58169 45.53839 L 41.40947 41.0349 L 39.23724 36.5314 M 43.58169 45.53839 L 43.58169 40.53839 L 41.40947 36.0349 L 39.23724 31.5314 M 43.58169 40.53839 L 43.58169 35.53839 L 45.75392 31.0349 L 47.92614 26.5314 M 43.58169 35.53839 L 43.58169 30.53839 M 43.58169 60.53839 L 45.75392 56.0349 L 45.75392 51.0349 L 43.58169 46.5314 L 41.40947 42.02791 M 45.75392 51.0349 L 47.92614 46.5314 L 50.09837 42.02791 M 45.75392 51.0349 L 45.75392 46.0349 M 45.75392 56.0349 L 47.92614 51.5314 L 47.92614 46.5314 L 47.92614 41.5314 M 47.92614 51.5314 L 51.83918 48.41882 L 56.7159 47.31534 L 61.59261 46.21185 M 51.83918 48.41882 L 54.01141 43.91533 L 56.18364 39.41183 L 58.35586 34.90834 M 51.83918 48.41882 L 55.75222 45.30624 M 47.92614 51.5314 L 47.92614 46.5314 L 47.92614 41.5314 L 45.75392 37.02791 L 43.58169 32.52441 M 47.92614 41.5314 L 50.09837 37.02791 L 50.09837 32.02791 L 50.09837 27.02791 M 50.09837 37.02791 L 52.2706 32.52441 L 54.44282 28.02092 M 47.92614 41.5314 L 47.92614 36.5314 L 45.75392 32.02791 L 43.58169 27.52441 M 47.92614 36.5314 L 47.92614 31.5314 L 50.09837 27.02791 L 52.2706 22.52441 M 47.92614 31.5314 L 47.92614 26.5314 L 50.09837 22.02792 L 52.2706 17.52444 M 47.92614 26.5314 L 47.92614 21.5314 L 47.92614 16.5314 L 47.92614 11.5314 M 47.92614 51.5314 L 50.09837 47.02791 L 54.01141 43.91533 L 57.92445 40.80275 M 50.09837 47.02791 L 54.01141 43.91533 L 57.92445 40.80275 L 60.09668 36.29926 L 62.2689 31.79576 M 57.92445 40.80275 L 61.83749 37.69017 M 50.09837 47.02791 L 52.2706 42.52441 L 54.44282 38.02092 L 54.44282 33.02092 L 54.44282 28.02092 M 54.44282 38.02092 L 54.44282 33.02092 L 52.2706 28.51743 L 50.09837 24.01395 M 54.44282 33.02092 L 54.44282 28.02092 L 56.61505 23.51743 L 58.78727 19.01395 M 54.44282 28.02092 L 54.44282 23.02094 M 54.44282 38.02092 L 56.61505 33.51743 L 56.61505 28.51743 L 56.61505 23.51743 M 56.61505 33.51743 L 58.78727 29.01393 L 62.70031 25.90135 L 66.61335 22.78879 M 58.78727 29.01393 L 58.78727 24.01395 L 60.9595 19.51047 L 63.13173 15.00699 M 58.78727 24.01395 L 58.78727 19.01395 L 58.78727 14.01395 L 58.78727 9.013947 M 58.78727 29.01393 L 60.9595 24.51044 L 64.87254 21.39786 L 68.78558 18.28528 M 60.9595 24.51044 L 63.13173 20.00696 L 63.13173 15.00696 L 63.13173 10.00696 M 63.13173 20.00696 L 65.30396 15.50348 L 65.30396 10.50348 L 65.30396 5.503479 M 65.30396 15.50348 L 67.47618 11 L 67.47618 6 L 67.47618 1 M 67.47618 11 L 69.6484 6.496521 L 71.82063 1.993042 M 21.85943 105.5733 L 21.85943 100.5733 " />
  </g>
</svg>
