<?xml version="1.0" encoding="UTF-8" standalone="no"?>
<!DOCTYPE svg PUBLIC "-//W3C//DTD SVG 1.1//EN"
    "http://www.w3.org/Graphics/SVG/1.1/DTD/svg11.dtd">
<svg xmlns="http://www.w3.org/2000/svg" width="245" height="309">
  <desc>hogeweg_e LSystem</desc>
  <rect width="100%" height="100%" style="fill: white"/>
  <g stroke="black" fill="none" stroke-width="1">
    <path d="M 99.16912 307.8854 L 99.16912 302.8854 L 99.16912 297.8854 L 99.16912 292.8854 L 99.16912 287.8854 L 97.2557 283.266 L 95.34228 278.6466 M 99.16912 287.8854 L 99.16912 282.8854 L 101.0825 278.266 L 102.996 273.6466 L 104.9094 269.0272 M 99.16912 282.8854 L 97.2557 278.266 L 95.34228 273.6466 L 93.42886 269.0272 L 91.51544 264.4078 M 99.16912 282.8854 L 99.16912 277.8854 L 101.0825 273.266 L 102.996 268.6466 L 106.5315 265.1111 L 110.067 261.5756 M 102.996 268.6466 L 104.9094 264.0272 L 104.9094 259.0272 L 104.9094 254.0272 M 104.9094 264.0272 L 108.4449 260.4917 L 111.9804 256.9561 L 115.516 253.4206 L 119.0515 249.8851 M 104.9094 264.0272 L 106.8228 259.4078 M 99.16912 277.8854 L 99.16912 272.8854 L 99.16912 267.8854 L 99.16912 262.8854 L 97.2557 258.266 L 95.34228 253.6466 M 99.16912 262.8854 L 99.16912 257.8854 L 101.0825 253.266 L 102.996 248.6466 L 106.5315 245.1111 L 110.067 241.5755 M 102.996 248.6466 L 104.9094 244.0272 M 99.16912 257.8854 L 97.2557 253.266 L 95.34228 248.6466 L 93.42886 244.0272 L 91.51544 239.4078 L 91.51544 234.4078 L 91.51544 229.4078 M 91.51544 239.4078 L 87.97991 235.8723 L 84.44438 232.3367 L 80.90885 228.8012 M 91.51544 239.4078 L 89.60202 234.7884 M 99.16912 257.8854 L 101.0825 253.266 L 102.996 248.6466 L 106.5315 245.1111 L 110.067 241.5755 M 102.996 248.6466 L 106.5315 245.1111 L 111.1509 243.1977 L 115.7703 241.2843 M 106.5315 245.1111 L 111.1509 243.1977 L 116.1509 243.1977 L 121.1509 243.1977 M 111.1509 243.1977 L 115.7703 241.2843 M 106.5315 245.1111 L 110.067 241.5755 M 102.996 248.6466 L 104.9094 244.0272 L 104.9094 239.0272 L 104.9094 234.0272 L 104.9094 229.0272 L 102.996 224.4078 L 101.0825 219.7884 M 104.9094 229.0272 L 104.9094 224.0272 M 104.9094 244.0272 L 106.8228 239.4078 L 108.7362 234.7884 L 110.6496 230.169 L 110.6496 225.169 L 110.6496 220.169 M 110.6496 230.169 L 114.1852 226.6335 L 117.7207 223.0979 L 121.2562 219.5624 L 125.8756 217.649 L 130.495 215.7356 M 121.2562 219.5624 L 124.7918 216.0269 M 110.6496 230.169 L 112.5631 225.5496 M 99.16912 257.8854 L 99.16912 252.8854 L 97.2557 248.266 L 95.34228 243.6466 L 93.42886 239.0272 L 91.51544 234.4078 L 87.97991 230.8723 L 84.44438 227.3367 M 91.51544 234.4078 L 91.51544 229.4078 L 91.51544 224.4078 L 91.51544 219.4078 L 91.51544 214.4078 M 91.51544 234.4078 L 89.60202 229.7884 L 86.06649 226.2529 L 82.53096 222.7173 L 78.99543 219.1818 L 77.08201 214.5624 L 75.16859 209.943 M 78.99543 219.1818 L 74.37603 217.2684 L 69.75663 215.355 L 65.13723 213.4415 M 78.99543 219.1818 L 75.4599 215.6463 M 89.60202 229.7884 L 87.6886 225.169 L 85.77518 220.5496 L 83.86176 215.9302 L 83.86176 210.9302 L 83.86176 205.9302 M 83.86176 215.9302 L 80.32623 212.3947 L 76.7907 208.8591 L 73.25517 205.3236 M 83.86176 215.9302 L 83.86176 210.9302 L 83.86176 205.9302 L 83.86176 200.9302 L 83.86176 195.9302 L 85.77518 191.3108 L 87.6886 186.6914 L 89.60202 182.072 M 83.86176 195.9302 L 83.86176 190.9302 M 83.86176 215.9302 L 80.32623 212.3947 L 76.7907 208.8591 L 72.1713 206.9457 L 67.1713 206.9457 L 62.1713 206.9457 M 72.1713 206.9457 L 67.5519 205.0323 M 76.7907 208.8591 L 73.25517 205.3236 L 71.34175 200.7042 L 69.42833 196.0848 L 69.42833 191.0848 L 69.42833 186.0848 M 69.42833 196.0848 L 67.51491 191.4654 M 73.25517 205.3236 L 69.71964 201.7881 L 66.1841 198.2525 L 64.27068 193.6331 L 62.35726 189.0137 M 66.1841 198.2525 L 61.5647 196.3391 L 56.9453 194.4257 L 52.3259 192.5123 L 47.7065 190.5989 M 66.1841 198.2525 L 62.64857 194.717 M 83.86176 215.9302 L 81.94834 211.3108 M 99.16912 252.8854 L 99.16912 247.8854 L 101.0825 243.266 L 102.996 238.6466 M 99.16912 247.8854 L 99.16912 242.8854 L 97.2557 238.266 L 95.34228 233.6466 M 99.16912 242.8854 L 99.16912 237.8854 L 101.0825 233.266 L 102.996 228.6466 L 104.9094 224.0272 M 99.16912 237.8854 L 97.2557 233.266 L 95.34228 228.6466 L 93.42886 224.0272 L 91.51544 219.4078 M 99.16912 237.8854 L 99.16912 232.8854 L 101.0825 228.266 L 102.996 223.6466 L 106.5315 220.1111 L 110.067 216.5755 M 102.996 223.6466 L 104.9094 219.0272 L 104.9094 214.0272 L 104.9094 209.0272 M 104.9094 219.0272 L 108.4449 215.4917 L 111.9804 211.9561 L 115.516 208.4206 L 119.0515 204.8851 M 104.9094 219.0272 L 106.8228 214.4078 M 99.16912 232.8854 L 101.0825 228.266 L 102.996 223.6466 L 104.9094 219.0272 L 108.4449 215.4917 L 111.9804 211.9561 L 115.516 208.4206 M 104.9094 219.0272 L 106.8228 214.4078 L 108.7362 209.7884 L 108.7362 204.7884 L 108.7362 199.7884 L 108.7362 194.7884 M 108.7362 209.7884 L 110.6496 205.169 L 114.1852 201.6335 L 117.7207 198.0979 L 121.2562 194.5624 L 125.8756 192.649 L 130.495 190.7356 L 135.1144 188.8221 M 121.2562 194.5624 L 124.7918 191.0269 M 110.6496 205.169 L 112.5631 200.5496 L 114.4765 195.9302 L 116.3899 191.3108 L 119.9254 187.7753 L 123.461 184.2397 L 126.9965 180.7042 M 116.3899 191.3108 L 116.3899 186.3108 L 116.3899 181.3108 L 116.3899 176.3108 L 116.3899 171.3108 L 114.4765 166.6914 L 112.5631 162.072 M 116.3899 171.3108 L 116.3899 166.3108 M 116.3899 191.3108 L 119.9254 187.7753 L 123.461 184.2397 L 128.0804 182.3263 L 133.0804 182.3263 L 138.0804 182.3263 M 128.0804 182.3263 L 132.6998 180.4129 M 123.461 184.2397 L 126.9965 180.7042 L 128.9099 176.0848 L 130.8233 171.4654 L 132.7368 166.846 M 126.9965 180.7042 L 130.532 177.1687 L 134.0676 173.6331 L 138.687 171.7197 L 143.3064 169.8063 L 147.9258 167.8929 L 152.5452 165.9794 M 134.0676 173.6331 L 137.6031 170.0976 M 116.3899 191.3108 L 118.3033 186.6914 M 99.16912 232.8854 L 97.2557 228.266 L 95.34228 223.6466 L 95.34228 218.6466 L 95.34228 213.6466 M 95.34228 223.6466 L 91.80675 220.1111 L 89.89333 215.4917 L 87.97991 210.8723 M 91.80675 220.1111 L 89.89333 215.4917 L 89.89333 210.4917 L 89.89333 205.4917 M 89.89333 215.4917 L 87.97991 210.8723 M 91.80675 220.1111 L 88.27122 216.5755 L 83.65182 214.6621 L 79.03242 212.7487 L 74.41302 210.8353 M 88.27122 216.5755 L 84.73569 213.04 L 81.20016 209.5045 L 79.28674 204.8851 L 77.37332 200.2657 L 75.4599 195.6463 L 73.54648 191.0269 M 81.20016 209.5045 L 76.58076 207.591 L 71.96136 205.6776 L 68.42583 202.1421 L 64.8903 198.6066 M 71.96136 205.6776 L 67.34196 203.7642 L 62.34196 203.7642 L 57.34196 203.7642 M 67.34196 203.7642 L 62.72256 201.8508 M 81.20016 209.5045 L 77.66463 205.9689 M 95.34228 223.6466 L 93.42886 219.0272 L 89.89333 215.4917 L 86.3578 211.9561 L 82.82226 208.4206 M 93.42886 219.0272 L 91.51544 214.4078 L 89.60202 209.7884 L 89.60202 204.7884 L 89.60202 199.7884 L 89.60202 194.7884 L 89.60202 189.7884 M 89.60202 209.7884 L 89.60202 204.7884 L 87.6886 200.169 L 85.77518 195.5496 L 83.86176 190.9302 L 83.86176 185.9302 L 83.86176 180.9302 M 83.86176 190.9302 L 80.32623 187.3947 L 76.7907 183.8591 L 73.25517 180.3236 M 83.86176 190.9302 L 81.94834 186.3108 M 89.60202 204.7884 L 89.60202 199.7884 L 89.60202 194.7884 L 89.60202 189.7884 L 91.51544 185.169 L 93.42886 180.5496 M 89.60202 189.7884 L 87.6886 185.169 L 85.77518 180.5496 L 83.86176 175.9302 M 89.60202 189.7884 L 91.51544 185.169 L 93.42886 180.5496 L 95.34228 175.9302 L 97.2557 171.3108 L 100.7912 167.7753 L 104.3268 164.2397 L 107.8623 160.7042 M 97.2557 171.3108 L 99.16912 166.6914 M 89.60202 189.7884 L 89.60202 184.7884 M 89.60202 209.7884 L 87.6886 205.169 L 84.15307 201.6335 L 80.61754 198.0979 L 77.08201 194.5624 L 75.16859 189.943 L 73.25517 185.3236 M 77.08201 194.5624 L 72.46261 192.649 L 67.84321 190.7356 L 63.22381 188.8221 M 77.08201 194.5624 L 73.54648 191.0269 M 87.6886 205.169 L 85.77518 200.5496 L 83.86176 195.9302 L 81.94834 191.3108 L 81.94834 186.3108 L 81.94834 181.3108 M 81.94834 191.3108 L 78.41281 187.7753 L 74.87728 184.2397 L 71.34175 180.7042 M 81.94834 191.3108 L 81.94834 186.3108 L 81.94834 181.3108 L 81.94834 176.3108 L 81.94834 171.3108 L 83.86176 166.6914 L 85.77518 162.072 L 87.6886 157.4526 M 81.94834 171.3108 L 81.94834 166.3108 M 81.94834 191.3108 L 78.41281 187.7753 L 74.87728 184.2397 L 71.34175 180.7042 L 69.42833 176.0848 L 67.51491 171.4654 M 71.34175 180.7042 L 67.80622 177.1687 L 63.18682 175.2552 L 58.56742 173.3418 L 53.94802 171.4284 M 67.80622 177.1687 L 64.27069 173.6331 L 60.73516 170.0976 L 58.82174 165.4782 L 56.90832 160.8588 L 54.9949 156.2394 L 53.08148 151.62 M 60.73516 170.0976 L 56.11576 168.1842 L 51.49636 166.2707 L 47.96083 162.7352 L 44.4253 159.1997 M 51.49636 166.2707 L 46.87696 164.3573 L 41.87696 164.3573 L 36.87696 164.3573 M 46.87696 164.3573 L 42.25756 162.4439 M 60.73516 170.0976 L 57.19963 166.562 M 81.94834 191.3108 L 80.03492 186.6914 M 99.16912 232.8854 L 99.16912 227.8854 L 99.16912 222.8854 L 101.0825 218.266 L 102.996 213.6466 M 99.16912 222.8854 L 97.2557 218.266 L 95.34228 213.6466 L 93.42886 209.0272 L 91.51544 204.4078 L 91.51544 199.4078 L 91.51544 194.4078 M 91.51544 204.4078 L 87.97991 200.8723 L 84.44438 197.3367 L 80.90885 193.8012 M 91.51544 204.4078 L 89.60202 199.7884 M 99.16912 222.8854 L 101.0825 218.266 L 101.0825 213.266 L 101.0825 208.266 M 101.0825 218.266 L 104.6181 214.7305 L 108.1536 211.1949 L 111.6891 207.6594 L 115.2247 204.1239 M 101.0825 218.266 L 104.6181 214.7305 L 106.5315 210.1111 L 110.067 206.5755 L 113.6026 203.04 M 106.5315 210.1111 L 108.4449 205.4917 L 108.4449 200.4917 L 108.4449 195.4917 M 108.4449 205.4917 L 110.3583 200.8723 M 104.6181 214.7305 L 108.1536 211.1949 L 112.773 209.2815 L 117.3924 207.3681 M 108.1536 211.1949 L 111.6891 207.6594 L 113.6026 203.04 L 115.516 198.4206 M 111.6891 207.6594 L 116.3085 205.746 L 120.9279 203.8326 L 125.5473 201.9191 L 130.5473 201.9191 L 135.5473 201.9191 M 125.5473 201.9191 L 130.1667 200.0057 M 111.6891 207.6594 L 115.2247 204.1239 M 101.0825 218.266 L 102.996 213.6466 L 102.996 208.6466 L 102.996 203.6466 L 102.996 198.6466 L 101.0825 194.0272 L 99.16912 189.4078 M 102.996 198.6466 L 102.996 193.6466 M 102.996 213.6466 L 104.9094 209.0272 L 106.8228 204.4078 L 110.3583 200.8723 L 113.8939 197.3367 L 117.4294 193.8012 L 122.0488 191.8878 L 126.6682 189.9744 M 117.4294 193.8012 L 120.9649 190.2657 M 106.8228 204.4078 L 106.8228 199.4078 L 106.8228 194.4078 L 106.8228 189.4078 L 106.8228 184.4078 L 104.9094 179.7884 L 102.996 175.169 M 106.8228 184.4078 L 106.8228 179.4078 L 108.7362 174.7884 L 110.6496 170.169 L 112.5631 165.5496 M 106.8228 179.4078 L 104.9094 174.7884 L 102.996 170.169 L 101.0825 165.5496 L 99.16912 160.9302 M 106.8228 179.4078 L 106.8228 174.4078 M 106.8228 204.4078 L 108.7362 199.7884 L 108.7362 194.7884 L 108.7362 189.7884 M 108.7362 199.7884 L 112.2718 196.2529 L 116.8912 194.3394 L 121.5106 192.426 L 126.13 190.5126 M 112.2718 196.2529 L 115.8073 192.7173 L 119.3428 189.1818 L 121.2562 184.5624 L 123.1696 179.943 L 125.0831 175.3236 M 119.3428 189.1818 L 122.8783 185.6463 L 127.4977 183.7328 L 132.1171 181.8194 L 136.7365 179.906 L 141.7365 179.906 L 146.7365 179.906 L 151.7365 179.906 M 136.7365 179.906 L 141.3559 177.9926 M 122.8783 185.6463 L 126.4139 182.1107 L 129.9494 178.5752 L 133.4849 175.0396 L 138.1043 173.1262 L 142.7237 171.2128 L 147.3431 169.2994 M 133.4849 175.0396 L 135.3983 170.4202 L 137.3118 165.8008 L 139.2252 161.1814 L 141.1386 156.562 L 141.1386 151.562 L 141.1386 146.562 M 141.1386 156.562 L 143.052 151.9426 M 133.4849 175.0396 L 138.1043 173.1262 L 142.7237 171.2128 L 147.7237 171.2128 L 152.3431 173.1262 L 156.9625 175.0396 M 147.7237 171.2128 L 152.7237 171.2128 M 142.7237 171.2128 L 147.3431 169.2994 L 150.8787 165.7638 L 154.4142 162.2283 L 157.9497 158.6928 M 147.3431 169.2994 L 151.9625 167.386 L 156.5819 165.4725 L 161.5819 165.4725 L 166.5819 165.4725 L 171.5819 165.4725 L 176.5819 165.4725 M 156.5819 165.4725 L 161.2013 163.5591 M 133.4849 175.0396 L 137.0205 171.5041 M 108.7362 199.7884 L 110.6496 195.169 L 114.1852 191.6335 L 117.7207 188.0979 L 121.2562 184.5624 M 110.6496 195.169 L 112.5631 190.5496 L 114.4765 185.9302 L 114.4765 180.9302 L 114.4765 175.9302 L 114.4765 170.9302 M 114.4765 185.9302 L 116.3899 181.3108 L 119.9254 177.7753 L 123.461 174.2397 L 126.9965 170.7042 L 131.6159 168.7908 L 136.2353 166.8773 L 140.8547 164.9639 M 126.9965 170.7042 L 130.532 167.1687 M 116.3899 181.3108 L 118.3033 176.6914 L 120.2167 172.072 L 122.1302 167.4526 L 125.6657 163.9171 L 129.2012 160.3815 L 132.7368 156.846 M 122.1302 167.4526 L 122.1302 162.4526 L 122.1302 157.4526 L 122.1302 152.4526 L 122.1302 147.4526 L 120.2167 142.8332 L 118.3033 138.2138 M 122.1302 147.4526 L 122.1302 142.4526 M 122.1302 167.4526 L 125.6657 163.9171 L 129.2012 160.3815 L 133.8206 158.4681 L 138.8206 158.4681 L 143.8206 158.4681 M 133.8206 158.4681 L 138.44 156.5547 M 129.2012 160.3815 L 132.7368 156.846 L 134.6502 152.2266 L 136.5636 147.6072 L 138.477 142.9878 M 132.7368 156.846 L 136.2723 153.3105 L 139.8078 149.7749 L 144.4272 147.8615 L 149.0466 145.9481 L 153.666 144.0347 L 158.2854 142.1212 M 139.8078 149.7749 L 143.3433 146.2394 M 122.1302 167.4526 L 122.1302 162.4526 L 122.1302 157.4526 L 122.1302 152.4526 L 120.2167 147.8332 L 118.3033 143.2138 M 122.1302 152.4526 L 122.1302 147.4526 L 124.0436 142.8332 L 125.957 138.2138 L 127.8704 133.5944 M 122.1302 147.4526 L 122.1302 142.4526 L 120.2167 137.8332 L 118.3033 133.2138 L 116.3899 128.5944 L 112.8544 125.0589 L 109.3188 121.5233 M 116.3899 128.5944 L 114.4765 123.975 M 122.1302 142.4526 L 122.1302 137.4526 L 122.1302 132.4526 L 122.1302 127.4526 L 120.2167 122.8332 L 118.3033 118.2138 M 122.1302 127.4526 L 124.0436 122.8332 L 125.957 118.2138 L 127.8704 113.5944 L 131.4059 110.0589 L 134.9415 106.5233 M 127.8704 113.5944 L 129.7838 108.975 M 122.1302 127.4526 L 120.2167 122.8332 L 116.6812 119.2977 L 113.1457 115.7621 M 120.2167 122.8332 L 118.3033 118.2138 L 118.3033 113.2138 L 118.3033 108.2138 L 118.3033 103.2138 M 118.3033 118.2138 L 116.3899 113.5944 L 114.4765 108.975 L 110.9409 105.4395 L 107.4054 101.9039 L 103.8699 98.36839 M 114.4765 108.975 L 112.5631 104.3556 M 122.1302 127.4526 L 122.1302 122.4526 M 122.1302 167.4526 L 125.6657 163.9171 L 129.2012 160.3815 L 132.7368 156.846 L 137.3562 154.9326 L 141.9756 153.0191 M 132.7368 156.846 L 137.3562 154.9326 L 142.3562 154.9326 L 147.3562 154.9326 L 151.9756 156.846 L 156.595 158.7594 M 147.3562 154.9326 L 152.3562 154.9326 M 137.3562 154.9326 L 142.3562 154.9326 L 147.3562 154.9326 L 151.9756 156.846 L 156.595 158.7594 M 147.3562 154.9326 L 151.9756 156.846 L 155.5111 160.3815 L 159.0466 163.9171 M 151.9756 156.846 L 155.5111 160.3815 L 157.4245 165.0009 L 159.3379 169.6203 M 155.5111 160.3815 L 159.0466 163.9171 M 151.9756 156.846 L 156.595 158.7594 M 147.3562 154.9326 L 152.3562 154.9326 M 137.3562 154.9326 L 142.3562 154.9326 L 147.3562 154.9326 L 151.9756 156.846 L 156.595 158.7594 M 147.3562 154.9326 L 151.9756 156.846 L 155.5111 160.3815 L 159.0466 163.9171 M 151.9756 156.846 L 155.5111 160.3815 L 157.4245 165.0009 L 159.3379 169.6203 M 155.5111 160.3815 L 159.0466 163.9171 M 151.9756 156.846 L 156.595 158.7594 M 147.3562 154.9326 L 151.9756 156.846 L 155.5111 160.3815 L 159.0466 163.9171 M 151.9756 156.846 L 155.5111 160.3815 L 157.4245 165.0009 L 159.3379 169.6203 M 155.5111 160.3815 L 159.0466 163.9171 M 151.9756 156.846 L 155.5111 160.3815 L 157.4245 165.0009 L 159.3379 169.6203 M 155.5111 160.3815 L 157.4245 165.0009 L 157.4245 170.0009 L 157.4245 175.0009 M 157.4245 165.0009 L 159.3379 169.6203 M 155.5111 160.3815 L 159.0466 163.9171 M 151.9756 156.846 L 156.595 158.7594 M 147.3562 154.9326 L 152.3562 154.9326 M 137.3562 154.9326 L 141.9756 153.0191 M 132.7368 156.846 L 136.2723 153.3105 L 138.1857 148.6911 L 140.0991 144.0717 M 136.2723 153.3105 L 138.1857 148.6911 L 141.7212 145.1555 L 145.2568 141.62 L 148.7923 138.0844 M 138.1857 148.6911 L 140.0991 144.0717 L 140.0991 139.0717 L 140.0991 134.0717 L 140.0991 129.0717 M 140.0991 144.0717 L 142.0125 139.4523 L 143.926 134.8329 L 147.4615 131.2973 L 150.997 127.7618 L 154.5325 124.2262 L 158.0681 120.6907 M 143.926 134.8329 L 143.926 129.8329 L 143.926 124.8329 L 145.8394 120.2135 L 147.7528 115.5941 M 143.926 124.8329 L 143.926 119.8329 L 142.0125 115.2135 L 140.0991 110.5941 M 143.926 119.8329 L 143.926 114.8329 M 143.926 134.8329 L 145.8394 130.2135 M 136.2723 153.3105 L 139.8078 149.7749 L 144.4272 147.8615 L 149.0466 145.9481 L 153.666 144.0347 M 139.8078 149.7749 L 143.3433 146.2394 L 145.2568 141.62 L 147.1702 137.0006 L 149.0836 132.3812 M 143.3433 146.2394 L 146.8789 142.7038 L 150.4144 139.1683 L 155.0338 137.2549 L 159.6532 135.3415 L 164.2726 133.428 L 168.892 131.5146 M 150.4144 139.1683 L 152.3278 134.5489 L 154.2412 129.9295 L 157.7768 126.394 L 161.3123 122.8584 M 154.2412 129.9295 L 156.1547 125.3101 L 156.1547 120.3101 L 156.1547 115.3101 M 156.1547 125.3101 L 158.0681 120.6907 M 150.4144 139.1683 L 155.0338 137.2549 L 159.6532 135.3415 L 164.2726 133.428 L 168.892 131.5146 L 173.892 131.5146 L 178.892 131.5146 L 183.892 131.5146 M 168.892 131.5146 L 173.5114 129.6012 L 178.1308 127.6878 L 181.6664 124.1522 L 185.2019 120.6167 L 188.7374 117.0812 M 178.1308 127.6878 L 183.1308 127.6878 L 188.1308 127.6878 L 193.1308 127.6878 L 197.7502 129.6012 L 202.3696 131.5146 M 193.1308 127.6878 L 198.1308 127.6878 M 178.1308 127.6878 L 182.7502 125.7744 M 150.4144 139.1683 L 153.9499 135.6328 M 122.1302 167.4526 L 124.0436 162.8332 M 99.16912 222.8854 L 99.16912 217.8854 L 97.2557 213.266 L 95.34228 208.6466 M 99.16912 217.8854 L 101.0825 213.266 L 102.996 208.6466 L 104.9094 204.0272 L 106.8228 199.4078 M 99.16912 217.8854 L 101.0825 213.266 L 101.0825 208.266 L 102.996 203.6466 L 104.9094 199.0272 M 101.0825 208.266 L 101.0825 203.266 L 99.16912 198.6466 L 97.2557 194.0272 M 101.0825 203.266 L 101.0825 198.266 M 101.0825 213.266 L 102.996 208.6466 L 106.5315 205.1111 L 110.067 201.5755 M 102.996 208.6466 L 104.9094 204.0272 L 104.9094 199.0272 L 104.9094 194.0272 M 104.9094 204.0272 L 108.4449 200.4917 L 111.9804 196.9561 L 115.516 193.4206 L 120.1354 191.5072 L 124.7548 189.5938 M 115.516 193.4206 L 119.0515 189.8851 M 104.9094 204.0272 L 106.8228 199.4078 M 99.16912 217.8854 L 99.16912 212.8854 L 97.2557 208.266 L 95.34228 203.6466 L 93.42886 199.0272 L 89.89333 195.4917 L 86.3578 191.9561 M 93.42886 199.0272 L 91.51544 194.4078 M 99.16912 212.8854 L 99.16912 207.8854 L 99.16912 202.8854 L 101.0825 198.266 L 102.996 193.6466 L 104.9094 189.0272 L 108.4449 185.4917 L 111.9804 181.9561 M 104.9094 189.0272 L 106.8228 184.4078 M 99.16912 202.8854 L 97.2557 198.266 L 95.34228 193.6466 L 93.42886 189.0272 L 91.51544 184.4078 L 87.97991 180.8723 L 84.44438 177.3367 M 91.51544 184.4078 L 89.60202 179.7884 L 89.60202 174.7884 L 89.60202 169.7884 L 89.60202 164.7884 M 89.60202 179.7884 L 86.06649 176.2529 L 82.53096 172.7173 L 78.99543 169.1818 L 75.4599 165.6463 M 89.60202 179.7884 L 87.6886 175.169 M 99.16912 202.8854 L 99.16912 197.8854 L 97.2557 193.266 L 95.34228 188.6466 M 99.16912 197.8854 L 101.0825 193.266 L 104.6181 189.7305 L 108.1536 186.1949 L 111.6891 182.6594 M 101.0825 193.266 L 102.996 188.6466 L 104.9094 184.0272 L 104.9094 179.0272 L 104.9094 174.0272 L 104.9094 169.0272 M 104.9094 184.0272 L 106.8228 179.4078 L 110.3583 175.8723 L 113.8939 172.3367 L 117.4294 168.8012 L 122.0488 166.8878 L 126.6682 164.9743 L 131.2876 163.0609 M 117.4294 168.8012 L 120.9649 165.2657 M 106.8228 179.4078 L 108.7362 174.7884 L 110.6496 170.169 L 112.5631 165.5496 L 116.0986 162.0141 L 119.6341 158.4785 L 123.1696 154.943 M 112.5631 165.5496 L 112.5631 160.5496 L 112.5631 155.5496 L 112.5631 150.5496 L 112.5631 145.5496 L 110.6496 140.9302 L 108.7362 136.3108 M 112.5631 145.5496 L 112.5631 140.5496 M 112.5631 165.5496 L 116.0986 162.0141 L 119.6341 158.4785 L 124.2535 156.5651 L 129.2535 156.5651 L 134.2535 156.5651 M 124.2535 156.5651 L 128.8729 154.6517 M 119.6341 158.4785 L 123.1696 154.943 L 125.0831 150.3236 L 126.9965 145.7042 L 128.9099 141.0848 M 123.1696 154.943 L 126.7052 151.4075 L 130.2407 147.8719 L 134.8601 145.9585 L 139.4795 144.0451 L 144.0989 142.1317 L 148.7183 140.2182 M 130.2407 147.8719 L 133.7762 144.3364 M 112.5631 165.5496 L 114.4765 160.9302 M 99.16912 197.8854 L 99.16912 192.8854 L 101.0825 188.266 L 102.996 183.6466 L 104.9094 179.0272 M 99.16912 192.8854 L 99.16912 187.8854 L 99.16912 182.8854 L 97.2557 178.266 L 95.34228 173.6466 L 93.42886 169.0272 M 99.16912 182.8854 L 99.16912 177.8854 L 101.0825 173.266 L 102.996 168.6466 L 104.9094 164.0272 L 108.4449 160.4917 L 111.9804 156.9561 L 115.516 153.4206 M 104.9094 164.0272 L 106.8228 159.4078 M 99.16912 177.8854 L 99.16912 172.8854 L 99.16912 167.8854 L 99.16912 162.8854 L 101.0825 158.266 L 102.996 153.6466 L 104.9094 149.0272 M 99.16912 162.8854 L 97.2557 158.266 L 95.34228 153.6466 L 93.42886 149.0272 L 91.51544 144.4078 L 87.97991 140.8723 L 84.44438 137.3367 M 91.51544 144.4078 L 89.60202 139.7884 M 99.16912 162.8854 L 101.0825 158.266 L 102.996 153.6466 L 106.5315 150.1111 L 111.1509 148.1976 L 115.7703 146.2842 M 106.5315 150.1111 L 110.067 146.5755 M 102.996 153.6466 L 104.9094 149.0272 L 104.9094 144.0272 L 104.9094 139.0272 L 104.9094 134.0272 M 104.9094 149.0272 L 106.8228 144.4078 L 108.7362 139.7884 L 112.2718 136.2529 L 115.8073 132.7173 L 119.3428 129.1818 L 122.8783 125.6463 M 108.7362 139.7884 L 110.6496 135.169 M 99.16912 162.8854 L 97.2557 158.266 L 95.34228 153.6466 L 93.42886 149.0272 L 89.89333 145.4917 L 86.3578 141.9561 M 93.42886 149.0272 L 91.51544 144.4078 L 91.51544 139.4078 L 91.51544 134.4078 L 91.51544 129.4078 M 91.51544 144.4078 L 89.60202 139.7884 L 86.06649 136.2529 L 82.53096 132.7173 L 78.99543 129.1818 L 74.37603 127.2684 L 69.75663 125.3549 M 78.99543 129.1818 L 75.4599 125.6463 M 89.60202 139.7884 L 87.6886 135.169 L 85.77518 130.5496 L 83.86176 125.9302 L 80.32623 122.3947 L 76.7907 118.8591 M 83.86176 125.9302 L 83.86176 120.9302 L 83.86176 115.9302 L 83.86176 110.9302 L 85.77518 106.3108 L 87.6886 101.6914 M 83.86176 110.9302 L 83.86176 105.9302 M 83.86176 125.9302 L 80.32623 122.3947 L 75.70683 120.4812 L 71.08743 118.5678 M 80.32623 122.3947 L 76.7907 118.8591 L 74.87728 114.2397 L 72.96386 109.6203 L 71.05045 105.0009 M 76.7907 118.8591 L 73.25517 115.3236 L 69.71964 111.7881 L 65.10024 109.8746 L 60.48085 107.9612 L 55.86145 106.0478 M 69.71964 111.7881 L 66.1841 108.2525 M 83.86176 125.9302 L 81.94834 121.3108 M 99.16912 162.8854 L 101.0825 158.266 L 102.996 153.6466 L 104.9094 149.0272 L 108.4449 145.4917 L 111.9804 141.9561 M 104.9094 149.0272 L 108.4449 145.4917 L 113.0643 143.5782 L 117.6837 141.6648 L 122.6837 141.6648 L 127.6837 141.6648 M 117.6837 141.6648 L 122.3031 139.7514 M 108.4449 145.4917 L 113.0643 143.5782 L 117.6837 141.6648 L 122.6837 141.6648 L 127.6837 141.6648 M 117.6837 141.6648 L 122.6837 141.6648 L 127.3031 143.5782 L 131.9225 145.4917 M 122.6837 141.6648 L 127.3031 143.5782 L 130.8386 147.1138 L 134.3742 150.6493 M 127.3031 143.5782 L 131.9225 145.4917 M 122.6837 141.6648 L 127.6837 141.6648 M 117.6837 141.6648 L 122.3031 139.7514 M 108.4449 145.4917 L 113.0643 143.5782 L 117.6837 141.6648 L 122.6837 141.6648 L 127.6837 141.6648 M 117.6837 141.6648 L 122.6837 141.6648 L 127.3031 143.5782 L 131.9225 145.4917 M 122.6837 141.6648 L 127.3031 143.5782 L 130.8386 147.1138 L 134.3742 150.6493 M 127.3031 143.5782 L 131.9225 145.4917 M 122.6837 141.6648 L 127.6837 141.6648 M 117.6837 141.6648 L 122.6837 141.6648 L 127.3031 143.5782 L 131.9225 145.4917 M 122.6837 141.6648 L 127.3031 143.5782 L 130.8386 147.1138 L 134.3742 150.6493 M 127.3031 143.5782 L 131.9225 145.4917 M 122.6837 141.6648 L 127.3031 143.5782 L 130.8386 147.1138 L 134.3742 150.6493 M 127.3031 143.5782 L 130.8386 147.1138 L 132.7521 151.7332 L 134.6655 156.3526 M 130.8386 147.1138 L 134.3742 150.6493 M 127.3031 143.5782 L 131.9225 145.4917 M 122.6837 141.6648 L 127.6837 141.6648 M 117.6837 141.6648 L 122.3031 139.7514 M 108.4449 145.4917 L 111.9804 141.9561 M 104.9094 149.0272 L 106.8228 144.4078 L 106.8228 139.4078 L 106.8228 134.4078 M 106.8228 144.4078 L 106.8228 139.4078 L 108.7362 134.7884 L 110.6496 130.169 L 112.5631 125.5496 M 106.8228 139.4078 L 106.8228 134.4078 L 104.9094 129.7884 L 102.996 125.169 L 101.0825 120.5496 M 106.8228 134.4078 L 106.8228 129.4078 L 106.8228 124.4078 L 108.7362 119.7884 L 110.6496 115.169 L 112.5631 110.5496 L 114.4765 105.9302 M 106.8228 124.4078 L 104.9094 119.7884 L 102.996 115.169 L 102.996 110.169 L 102.996 105.169 M 102.996 115.169 L 101.0825 110.5496 L 97.54701 107.0141 L 94.01148 103.4785 M 101.0825 110.5496 L 99.16912 105.9302 M 106.8228 124.4078 L 106.8228 119.4078 M 106.8228 144.4078 L 108.7362 139.7884 L 112.2718 136.2529 L 115.8073 132.7173 L 119.3428 129.1818 M 108.7362 139.7884 L 110.6496 135.169 L 110.6496 130.169 L 110.6496 125.169 L 110.6496 120.169 M 110.6496 135.169 L 112.5631 130.5496 L 114.4765 125.9302 L 118.012 122.3947 L 121.5475 118.8591 L 125.0831 115.3236 L 128.6186 111.7881 M 114.4765 125.9302 L 114.4765 120.9302 L 114.4765 115.9302 L 116.3899 111.3108 L 118.3033 106.6914 M 114.4765 115.9302 L 114.4765 110.9302 L 112.5631 106.3108 L 110.6496 101.6914 M 114.4765 110.9302 L 114.4765 105.9302 M 114.4765 125.9302 L 118.012 122.3947 L 121.5475 118.8591 L 125.0831 115.3236 L 128.6186 111.7881 L 133.238 109.8746 L 137.8574 107.9612 L 142.4768 106.0478 M 128.6186 111.7881 L 132.1541 108.2525 L 135.6897 104.717 L 137.6031 100.0976 L 139.5165 95.47818 L 141.4299 90.85878 M 135.6897 104.717 L 140.3091 102.8036 L 144.9285 100.8901 L 149.5479 98.97672 L 154.5479 98.97672 L 159.5479 98.97672 M 149.5479 98.97672 L 154.1673 97.06329 M 135.6897 104.717 L 139.2252 101.1814 M 114.4765 125.9302 L 116.3899 121.3108 M 99.16912 162.8854 L 97.2557 158.266 L 97.2557 153.266 L 99.16912 148.6466 L 101.0825 144.0272 M 97.2557 153.266 L 97.2557 148.266 M 97.2557 158.266 L 95.34228 153.6466 L 95.34228 148.6466 L 95.34228 143.6466 M 95.34228 153.6466 L 91.80675 150.1111 L 88.27122 146.5755 L 84.73569 143.04 M 95.34228 153.6466 L 93.42886 149.0272 L 93.42886 144.0272 L 93.42886 139.0272 L 95.34228 134.4078 L 97.2557 129.7884 M 93.42886 139.0272 L 93.42886 134.0272 M 93.42886 149.0272 L 91.51544 144.4078 L 87.97991 140.8723 L 86.06649 136.2529 L 84.15307 131.6335 M 87.97991 140.8723 L 84.44438 137.3367 L 79.82498 135.4233 L 75.20558 133.5099 M 84.44438 137.3367 L 80.90885 133.8012 L 78.99543 129.1818 L 77.08201 124.5624 L 75.16859 119.943 M 80.90885 133.8012 L 76.28945 131.8878 L 71.67005 129.9743 L 67.05065 128.0609 L 62.43125 126.1475 M 80.90885 133.8012 L 77.37332 130.2657 M 91.51544 144.4078 L 89.60202 139.7884 L 87.6886 135.169 L 85.77518 130.5496 L 82.23965 127.0141 L 78.70412 123.4785 L 75.16859 119.943 L 71.63306 116.4075 M 85.77518 130.5496 L 85.77518 125.5496 L 85.77518 120.5496 L 85.77518 115.5496 L 87.6886 110.9302 L 89.60202 106.3108 M 85.77518 115.5496 L 85.77518 110.5496 L 83.86176 105.9302 L 81.94834 101.3108 M 85.77518 110.5496 L 87.6886 105.9302 L 89.60202 101.3108 L 91.51544 96.69141 L 93.42886 92.07201 M 85.77518 110.5496 L 85.77518 105.5496 M 85.77518 130.5496 L 83.86176 125.9302 L 83.86176 120.9302 L 83.86176 115.9302 M 83.86176 125.9302 L 80.32623 122.3947 L 75.70683 120.4812 L 71.08743 118.5678 M 80.32623 122.3947 L 76.7907 118.8591 L 74.87728 114.2397 L 72.96386 109.6203 L 71.05045 105.0009 M 76.7907 118.8591 L 73.25517 115.3236 L 68.63577 113.4102 L 64.01637 111.4967 L 59.39698 109.5833 L 54.39698 109.5833 L 49.39698 109.5833 M 59.39698 109.5833 L 54.77758 107.6699 M 73.25517 115.3236 L 69.71964 111.7881 L 66.1841 108.2525 L 62.64857 104.717 L 58.02917 102.8036 L 53.40977 100.8901 M 62.64857 104.717 L 60.73515 100.0976 L 58.82173 95.47818 L 56.90831 90.85878 L 56.90831 85.85878 L 56.90831 80.85878 M 56.90831 90.85878 L 54.99489 86.23938 M 62.64857 104.717 L 58.02917 102.8036 L 53.02917 102.8036 L 48.02917 102.8036 M 58.02917 102.8036 L 53.40977 100.8901 L 49.87424 97.3546 L 46.33871 93.81906 L 42.80318 90.28352 M 53.40977 100.8901 L 48.79037 98.97672 L 44.17097 97.06329 L 39.17097 97.06329 L 34.17097 97.06329 L 29.17097 97.06329 M 44.17097 97.06329 L 39.55157 95.14987 M 62.64857 104.717 L 59.11304 101.1814 M 83.86176 125.9302 L 81.94834 121.3108 L 78.41281 117.7753 L 74.87728 114.2397 M 81.94834 121.3108 L 80.03492 116.6914 L 80.03492 111.6914 L 80.03492 106.6914 L 80.03492 101.6914 M 80.03492 116.6914 L 78.1215 112.072 L 74.58597 108.5365 L 71.05045 105.0009 L 67.51491 101.4654 L 62.89551 99.55197 L 58.27611 97.63855 M 67.51491 101.4654 L 63.97938 97.92986 M 78.1215 112.072 L 76.20808 107.4526 L 74.29466 102.8332 L 72.38124 98.21381 L 68.84571 94.67827 L 65.31018 91.14273 M 72.38124 98.21381 L 72.38124 93.21381 L 72.38124 88.21381 L 72.38124 83.21381 L 74.29466 78.59441 L 76.20808 73.97501 M 72.38124 83.21381 L 72.38124 78.21381 M 72.38124 98.21381 L 68.84571 94.67827 L 64.22631 92.76485 L 59.60691 90.85143 M 68.84571 94.67827 L 65.31018 91.14273 L 63.39676 86.52333 L 61.48334 81.90393 L 59.56992 77.28453 M 65.31018 91.14273 L 61.77465 87.60719 L 58.23912 84.07166 L 53.61972 82.15823 L 49.00032 80.24481 L 44.38092 78.33139 M 58.23912 84.07166 L 54.70359 80.53612 M 72.38124 98.21381 L 72.38124 93.21381 L 72.38124 88.21381 L 74.29466 83.59441 L 76.20808 78.97501 M 72.38124 88.21381 L 72.38124 83.21381 L 70.46782 78.59441 L 68.5544 73.97501 M 72.38124 83.21381 L 72.38124 78.21381 L 74.29466 73.59441 L 76.20808 68.97501 L 79.74361 65.43947 L 83.27914 61.90393 M 76.20808 68.97501 L 78.1215 64.35561 M 72.38124 78.21381 L 72.38124 73.21381 L 72.38124 68.21381 L 74.29466 63.59441 L 76.20808 58.97501 M 72.38124 68.21381 L 70.46782 63.59441 L 68.5544 58.97501 L 66.64098 54.35561 L 64.72756 49.73621 M 72.38124 68.21381 L 74.29466 63.59441 L 77.83019 60.05887 L 81.36572 56.52333 M 74.29466 63.59441 L 76.20808 58.97501 L 76.20808 53.97501 L 76.20808 48.97501 M 76.20808 58.97501 L 78.1215 54.35561 L 81.65703 50.82007 L 85.19256 47.28455 L 88.72809 43.74902 M 78.1215 54.35561 L 80.03492 49.73621 M 72.38124 68.21381 L 72.38124 63.21381 M 72.38124 98.21381 L 68.84571 94.67827 L 65.31018 91.14273 L 61.77465 87.60719 L 57.15525 85.69377 L 52.15525 85.69377 L 47.15525 85.69377 L 42.15525 85.69377 M 57.15525 85.69377 L 52.15525 85.69377 L 47.15525 85.69377 L 42.53585 87.60719 L 39.00032 91.14273 L 35.46479 94.67827 M 42.53585 87.60719 L 37.91645 89.52061 M 47.15525 85.69377 L 42.15525 85.69377 M 57.15525 85.69377 L 52.15525 85.69377 L 47.15525 85.69377 L 42.53585 87.60719 L 39.00032 91.14273 L 35.46479 94.67827 M 42.53585 87.60719 L 37.91645 89.52061 M 47.15525 85.69377 L 42.53585 87.60719 L 39.00032 91.14273 L 35.46479 94.67827 M 42.53585 87.60719 L 39.00032 91.14273 L 37.0869 95.76213 L 35.17348 100.3815 M 39.00032 91.14273 L 35.46479 94.67827 M 42.53585 87.60719 L 37.91645 89.52061 M 47.15525 85.69377 L 42.15525 85.69377 M 57.15525 85.69377 L 52.53585 83.78035 M 61.77465 87.60719 L 58.23912 84.07166 L 56.3257 79.45226 L 54.41228 74.83286 M 58.23912 84.07166 L 56.3257 79.45226 L 52.79017 75.91672 L 49.25464 72.38118 M 56.3257 79.45226 L 54.41228 74.83286 L 54.41228 69.83286 L 54.41228 64.83286 L 54.41228 59.83286 M 54.41228 74.83286 L 52.49886 70.21346 L 50.58544 65.59406 L 47.04991 62.05852 L 43.51438 58.52298 L 39.97885 54.98744 M 50.58544 65.59406 L 50.58544 60.59406 L 50.58544 55.59406 L 50.58544 50.59406 L 52.49886 45.97467 L 54.41228 41.35529 M 50.58544 50.59406 L 50.58544 45.59406 M 50.58544 65.59406 L 48.67202 60.97466 M 58.23912 84.07166 L 54.70359 80.53612 L 50.08419 78.6227 L 45.46479 76.70927 M 54.70359 80.53612 L 51.16806 77.00058 L 49.25464 72.38118 L 47.34122 67.76178 L 45.4278 63.14238 M 51.16806 77.00058 L 47.63253 73.46504 L 44.097 69.9295 L 39.4776 68.01608 L 34.8582 66.10266 L 30.2388 64.18924 M 44.097 69.9295 L 42.18358 65.3101 L 40.27016 60.6907 L 38.35674 56.0713 L 38.35674 51.07132 L 38.35674 46.07132 M 38.35674 56.0713 L 36.44332 51.4519 M 44.097 69.9295 L 39.4776 68.01608 L 34.8582 66.10266 L 30.2388 64.18924 L 25.6194 62.27582 L 20.6194 62.27582 L 15.6194 62.27582 M 25.6194 62.27582 L 21 60.3624 L 17.46447 56.82686 L 13.92893 53.29132 L 10.39339 49.7558 M 21 60.3624 L 16 60.3624 L 11 60.3624 L 6 60.3624 L 1 60.3624 M 21 60.3624 L 16.3806 58.44897 M 44.097 69.9295 L 40.56147 66.39397 M 72.38124 98.21381 L 70.46782 93.59441 M 99.16912 162.8854 L 101.0825 158.266 L 102.996 153.6466 L 104.9094 149.0272 L 106.8228 144.4078 L 106.8228 139.4078 L 106.8228 134.4078 M 106.8228 144.4078 L 110.3583 140.8723 L 113.8939 137.3367 L 117.4294 133.8012 L 120.9649 130.2657 M 106.8228 144.4078 L 108.7362 139.7884 L 108.7362 134.7884 L 108.7362 129.7884 L 108.7362 124.7884 L 110.6496 120.169 L 112.5631 115.5496 M 108.7362 124.7884 L 106.8228 120.169 L 104.9094 115.5496 L 102.996 110.9302 M 108.7362 124.7884 L 108.7362 119.7884 M 108.7362 139.7884 L 110.6496 135.169 L 112.5631 130.5496 L 114.4765 125.9302 L 118.012 122.3947 L 121.5475 118.8591 M 114.4765 125.9302 L 114.4765 120.9302 L 114.4765 115.9302 L 114.4765 110.9302 M 114.4765 125.9302 L 118.012 122.3947 L 121.5475 118.8591 L 125.0831 115.3236 L 128.6186 111.7881 L 133.238 109.8746 L 137.8574 107.9612 L 142.4768 106.0478 M 128.6186 111.7881 L 132.1541 108.2525 M 114.4765 125.9302 L 118.012 122.3947 L 121.5475 118.8591 L 125.0831 115.3236 L 128.6186 111.7881 L 133.238 109.8746 L 137.8574 107.9612 L 142.4768 106.0478 M 128.6186 111.7881 L 133.238 109.8746 L 137.8574 107.9612 L 142.8574 107.9612 L 147.8574 107.9612 M 137.8574 107.9612 L 142.4768 106.0478 L 146.0123 102.5123 L 149.5479 98.97672 M 142.4768 106.0478 L 147.0962 104.1344 L 152.0962 104.1344 L 157.0962 104.1344 L 162.0962 104.1344 M 147.0962 104.1344 L 150.6317 100.5988 L 154.1673 97.06329 L 157.7028 93.52776 L 161.2383 89.99222 M 147.0962 104.1344 L 152.0962 104.1344 L 157.0962 104.1344 L 162.0962 104.1344 L 166.7156 102.2209 L 171.335 100.3075 M 162.0962 104.1344 L 167.0962 104.1344 L 171.7156 106.0478 L 176.335 107.9612 L 180.9544 109.8746 M 167.0962 104.1344 L 172.0962 104.1344 M 147.0962 104.1344 L 151.7156 102.2209 M 128.6186 111.7881 L 133.238 109.8746 L 137.8574 107.9612 L 142.8574 107.9612 L 147.8574 107.9612 M 137.8574 107.9612 L 142.4768 106.0478 L 146.0123 102.5123 L 149.5479 98.97672 M 142.4768 106.0478 L 147.0962 104.1344 L 152.0962 104.1344 L 157.0962 104.1344 L 162.0962 104.1344 M 147.0962 104.1344 L 150.6317 100.5988 L 154.1673 97.06329 L 157.7028 93.52776 L 161.2383 89.99222 M 147.0962 104.1344 L 152.0962 104.1344 L 157.0962 104.1344 L 162.0962 104.1344 L 166.7156 102.2209 L 171.335 100.3075 M 162.0962 104.1344 L 167.0962 104.1344 L 171.7156 106.0478 L 176.335 107.9612 L 180.9544 109.8746 M 167.0962 104.1344 L 172.0962 104.1344 M 147.0962 104.1344 L 152.0962 104.1344 L 157.0962 104.1344 L 162.0962 104.1344 L 166.7156 102.2209 L 171.335 100.3075 M 162.0962 104.1344 L 167.0962 104.1344 L 171.7156 106.0478 L 176.335 107.9612 L 180.9544 109.8746 M 167.0962 104.1344 L 171.7156 106.0478 L 176.335 107.9612 L 179.8705 111.4967 L 181.7839 116.1161 L 183.6973 120.7355 M 179.8705 111.4967 L 183.4061 115.0323 M 176.335 107.9612 L 179.8705 111.4967 L 181.7839 116.1161 L 183.6973 120.7355 M 179.8705 111.4967 L 181.7839 116.1161 L 181.7839 121.1161 L 181.7839 126.1161 M 181.7839 116.1161 L 183.6973 120.7355 M 179.8705 111.4967 L 183.4061 115.0323 M 176.335 107.9612 L 179.8705 111.4967 L 181.7839 116.1161 L 183.6973 120.7355 M 179.8705 111.4967 L 181.7839 116.1161 L 181.7839 121.1161 L 181.7839 126.1161 M 181.7839 116.1161 L 183.6973 120.7355 M 179.8705 111.4967 L 181.7839 116.1161 L 181.7839 121.1161 L 181.7839 126.1161 M 181.7839 116.1161 L 181.7839 121.1161 L 179.8705 125.7355 L 177.9571 130.3549 M 181.7839 121.1161 L 181.7839 126.1161 M 181.7839 116.1161 L 183.6973 120.7355 M 179.8705 111.4967 L 183.4061 115.0323 M 176.335 107.9612 L 180.9544 109.8746 M 167.0962 104.1344 L 171.7156 106.0478 L 176.335 107.9612 L 179.8705 111.4967 L 181.7839 116.1161 L 183.6973 120.7355 M 179.8705 111.4967 L 183.4061 115.0323 M 176.335 107.9612 L 179.8705 111.4967 L 181.7839 116.1161 L 183.6973 120.7355 M 179.8705 111.4967 L 181.7839 116.1161 L 181.7839 121.1161 L 181.7839 126.1161 M 181.7839 116.1161 L 183.6973 120.7355 M 179.8705 111.4967 L 183.4061 115.0323 M 176.335 107.9612 L 179.8705 111.4967 L 181.7839 116.1161 L 183.6973 120.7355 M 179.8705 111.4967 L 181.7839 116.1161 L 181.7839 121.1161 L 181.7839 126.1161 M 181.7839 116.1161 L 183.6973 120.7355 M 179.8705 111.4967 L 181.7839 116.1161 L 181.7839 121.1161 L 181.7839 126.1161 M 181.7839 116.1161 L 181.7839 121.1161 L 179.8705 125.7355 L 177.9571 130.3549 M 181.7839 121.1161 L 181.7839 126.1161 M 181.7839 116.1161 L 183.6973 120.7355 M 179.8705 111.4967 L 183.4061 115.0323 M 176.335 107.9612 L 179.8705 111.4967 L 181.7839 116.1161 L 183.6973 120.7355 M 179.8705 111.4967 L 181.7839 116.1161 L 181.7839 121.1161 L 181.7839 126.1161 M 181.7839 116.1161 L 183.6973 120.7355 M 179.8705 111.4967 L 181.7839 116.1161 L 181.7839 121.1161 L 181.7839 126.1161 M 181.7839 116.1161 L 181.7839 121.1161 L 179.8705 125.7355 L 177.9571 130.3549 M 181.7839 121.1161 L 181.7839 126.1161 M 181.7839 116.1161 L 183.6973 120.7355 M 179.8705 111.4967 L 181.7839 116.1161 L 181.7839 121.1161 L 181.7839 126.1161 M 181.7839 116.1161 L 181.7839 121.1161 L 179.8705 125.7355 L 177.9571 130.3549 M 181.7839 121.1161 L 181.7839 126.1161 M 181.7839 116.1161 L 181.7839 121.1161 L 179.8705 125.7355 L 177.9571 130.3549 M 181.7839 121.1161 L 179.8705 125.7355 L 176.335 129.2711 L 172.7995 132.8066 M 179.8705 125.7355 L 177.9571 130.3549 M 181.7839 121.1161 L 181.7839 126.1161 M 181.7839 116.1161 L 183.6973 120.7355 M 179.8705 111.4967 L 183.4061 115.0323 M 176.335 107.9612 L 180.9544 109.8746 M 167.0962 104.1344 L 172.0962 104.1344 M 147.0962 104.1344 L 151.7156 102.2209 M 128.6186 111.7881 L 133.238 109.8746 L 137.8574 107.9612 L 142.8574 107.9612 L 147.8574 107.9612 M 137.8574 107.9612 L 142.4768 106.0478 L 146.0123 102.5123 L 149.5479 98.97672 M 142.4768 106.0478 L 147.0962 104.1344 L 152.0962 104.1344 L 157.0962 104.1344 L 162.0962 104.1344 M 147.0962 104.1344 L 150.6317 100.5988 L 154.1673 97.06329 L 157.7028 93.52776 L 161.2383 89.99222 M 147.0962 104.1344 L 152.0962 104.1344 L 157.0962 104.1344 L 162.0962 104.1344 L 166.7156 102.2209 L 171.335 100.3075 M 162.0962 104.1344 L 167.0962 104.1344 L 171.7156 106.0478 L 176.335 107.9612 L 180.9544 109.8746 M 167.0962 104.1344 L 172.0962 104.1344 M 147.0962 104.1344 L 152.0962 104.1344 L 157.0962 104.1344 L 162.0962 104.1344 L 166.7156 102.2209 L 171.335 100.3075 M 162.0962 104.1344 L 167.0962 104.1344 L 171.7156 106.0478 L 176.335 107.9612 L 180.9544 109.8746 M 167.0962 104.1344 L 171.7156 106.0478 L 176.335 107.9612 L 179.8705 111.4967 L 181.7839 116.1161 L 183.6973 120.7355 M 179.8705 111.4967 L 183.4061 115.0323 M 176.335 107.9612 L 179.8705 111.4967 L 181.7839 116.1161 L 183.6973 120.7355 M 179.8705 111.4967 L 181.7839 116.1161 L 181.7839 121.1161 L 181.7839 126.1161 M 181.7839 116.1161 L 183.6973 120.7355 M 179.8705 111.4967 L 183.4061 115.0323 M 176.335 107.9612 L 179.8705 111.4967 L 181.7839 116.1161 L 183.6973 120.7355 M 179.8705 111.4967 L 181.7839 116.1161 L 181.7839 121.1161 L 181.7839 126.1161 M 181.7839 116.1161 L 183.6973 120.7355 M 179.8705 111.4967 L 181.7839 116.1161 L 181.7839 121.1161 L 181.7839 126.1161 M 181.7839 116.1161 L 181.7839 121.1161 L 179.8705 125.7355 L 177.9571 130.3549 M 181.7839 121.1161 L 181.7839 126.1161 M 181.7839 116.1161 L 183.6973 120.7355 M 179.8705 111.4967 L 183.4061 115.0323 M 176.335 107.9612 L 180.9544 109.8746 M 167.0962 104.1344 L 171.7156 106.0478 L 176.335 107.9612 L 179.8705 111.4967 L 181.7839 116.1161 L 183.6973 120.7355 M 179.8705 111.4967 L 183.4061 115.0323 M 176.335 107.9612 L 179.8705 111.4967 L 181.7839 116.1161 L 183.6973 120.7355 M 179.8705 111.4967 L 181.7839 116.1161 L 181.7839 121.1161 L 181.7839 126.1161 M 181.7839 116.1161 L 183.6973 120.7355 M 179.8705 111.4967 L 183.4061 115.0323 M 176.335 107.9612 L 179.8705 111.4967 L 181.7839 116.1161 L 183.6973 120.7355 M 179.8705 111.4967 L 181.7839 116.1161 L 181.7839 121.1161 L 181.7839 126.1161 M 181.7839 116.1161 L 183.6973 120.7355 M 179.8705 111.4967 L 181.7839 116.1161 L 181.7839 121.1161 L 181.7839 126.1161 M 181.7839 116.1161 L 181.7839 121.1161 L 179.8705 125.7355 L 177.9571 130.3549 M 181.7839 121.1161 L 181.7839 126.1161 M 181.7839 116.1161 L 183.6973 120.7355 M 179.8705 111.4967 L 183.4061 115.0323 M 176.335 107.9612 L 179.8705 111.4967 L 181.7839 116.1161 L 183.6973 120.7355 M 179.8705 111.4967 L 181.7839 116.1161 L 181.7839 121.1161 L 181.7839 126.1161 M 181.7839 116.1161 L 183.6973 120.7355 M 179.8705 111.4967 L 181.7839 116.1161 L 181.7839 121.1161 L 181.7839 126.1161 M 181.7839 116.1161 L 181.7839 121.1161 L 179.8705 125.7355 L 177.9571 130.3549 M 181.7839 121.1161 L 181.7839 126.1161 M 181.7839 116.1161 L 183.6973 120.7355 M 179.8705 111.4967 L 181.7839 116.1161 L 181.7839 121.1161 L 181.7839 126.1161 M 181.7839 116.1161 L 181.7839 121.1161 L 179.8705 125.7355 L 177.9571 130.3549 M 181.7839 121.1161 L 181.7839 126.1161 M 181.7839 116.1161 L 181.7839 121.1161 L 179.8705 125.7355 L 177.9571 130.3549 M 181.7839 121.1161 L 179.8705 125.7355 L 176.335 129.2711 L 172.7995 132.8066 M 179.8705 125.7355 L 177.9571 130.3549 M 181.7839 121.1161 L 181.7839 126.1161 M 181.7839 116.1161 L 183.6973 120.7355 M 179.8705 111.4967 L 183.4061 115.0323 M 176.335 107.9612 L 180.9544 109.8746 M 167.0962 104.1344 L 172.0962 104.1344 M 147.0962 104.1344 L 152.0962 104.1344 L 157.0962 104.1344 L 162.0962 104.1344 L 166.7156 102.2209 L 171.335 100.3075 M 162.0962 104.1344 L 167.0962 104.1344 L 171.7156 106.0478 L 176.335 107.9612 L 180.9544 109.8746 M 167.0962 104.1344 L 171.7156 106.0478 L 176.335 107.9612 L 179.8705 111.4967 L 181.7839 116.1161 L 183.6973 120.7355 M 179.8705 111.4967 L 183.4061 115.0323 M 176.335 107.9612 L 179.8705 111.4967 L 181.7839 116.1161 L 183.6973 120.7355 M 179.8705 111.4967 L 181.7839 116.1161 L 181.7839 121.1161 L 181.7839 126.1161 M 181.7839 116.1161 L 183.6973 120.7355 M 179.8705 111.4967 L 183.4061 115.0323 M 176.335 107.9612 L 179.8705 111.4967 L 181.7839 116.1161 L 183.6973 120.7355 M 179.8705 111.4967 L 181.7839 116.1161 L 181.7839 121.1161 L 181.7839 126.1161 M 181.7839 116.1161 L 183.6973 120.7355 M 179.8705 111.4967 L 181.7839 116.1161 L 181.7839 121.1161 L 181.7839 126.1161 M 181.7839 116.1161 L 181.7839 121.1161 L 179.8705 125.7355 L 177.9571 130.3549 M 181.7839 121.1161 L 181.7839 126.1161 M 181.7839 116.1161 L 183.6973 120.7355 M 179.8705 111.4967 L 183.4061 115.0323 M 176.335 107.9612 L 180.9544 109.8746 M 167.0962 104.1344 L 171.7156 106.0478 L 176.335 107.9612 L 179.8705 111.4967 L 181.7839 116.1161 L 183.6973 120.7355 M 179.8705 111.4967 L 183.4061 115.0323 M 176.335 107.9612 L 179.8705 111.4967 L 181.7839 116.1161 L 183.6973 120.7355 M 179.8705 111.4967 L 181.7839 116.1161 L 181.7839 121.1161 L 181.7839 126.1161 M 181.7839 116.1161 L 183.6973 120.7355 M 179.8705 111.4967 L 183.4061 115.0323 M 176.335 107.9612 L 179.8705 111.4967 L 181.7839 116.1161 L 183.6973 120.7355 M 179.8705 111.4967 L 181.7839 116.1161 L 181.7839 121.1161 L 181.7839 126.1161 M 181.7839 116.1161 L 183.6973 120.7355 M 179.8705 111.4967 L 181.7839 116.1161 L 181.7839 121.1161 L 181.7839 126.1161 M 181.7839 116.1161 L 181.7839 121.1161 L 179.8705 125.7355 L 177.9571 130.3549 M 181.7839 121.1161 L 181.7839 126.1161 M 181.7839 116.1161 L 183.6973 120.7355 M 179.8705 111.4967 L 183.4061 115.0323 M 176.335 107.9612 L 179.8705 111.4967 L 181.7839 116.1161 L 183.6973 120.7355 M 179.8705 111.4967 L 181.7839 116.1161 L 181.7839 121.1161 L 181.7839 126.1161 M 181.7839 116.1161 L 183.6973 120.7355 M 179.8705 111.4967 L 181.7839 116.1161 L 181.7839 121.1161 L 181.7839 126.1161 M 181.7839 116.1161 L 181.7839 121.1161 L 179.8705 125.7355 L 177.9571 130.3549 M 181.7839 121.1161 L 181.7839 126.1161 M 181.7839 116.1161 L 183.6973 120.7355 M 179.8705 111.4967 L 181.7839 116.1161 L 181.7839 121.1161 L 181.7839 126.1161 M 181.7839 116.1161 L 181.7839 121.1161 L 179.8705 125.7355 L 177.9571 130.3549 M 181.7839 121.1161 L 181.7839 126.1161 M 181.7839 116.1161 L 181.7839 121.1161 L 179.8705 125.7355 L 177.9571 130.3549 M 181.7839 121.1161 L 179.8705 125.7355 L 176.335 129.2711 L 172.7995 132.8066 M 179.8705 125.7355 L 177.9571 130.3549 M 181.7839 121.1161 L 181.7839 126.1161 M 181.7839 116.1161 L 183.6973 120.7355 M 179.8705 111.4967 L 183.4061 115.0323 M 176.335 107.9612 L 180.9544 109.8746 M 167.0962 104.1344 L 171.7156 106.0478 L 176.335 107.9612 L 179.8705 111.4967 L 181.7839 116.1161 L 183.6973 120.7355 M 179.8705 111.4967 L 183.4061 115.0323 M 176.335 107.9612 L 179.8705 111.4967 L 181.7839 116.1161 L 183.6973 120.7355 M 179.8705 111.4967 L 181.7839 116.1161 L 181.7839 121.1161 L 181.7839 126.1161 M 181.7839 116.1161 L 183.6973 120.7355 M 179.8705 111.4967 L 183.4061 115.0323 M 176.335 107.9612 L 179.8705 111.4967 L 181.7839 116.1161 L 183.6973 120.7355 M 179.8705 111.4967 L 181.7839 116.1161 L 181.7839 121.1161 L 181.7839 126.1161 M 181.7839 116.1161 L 183.6973 120.7355 M 179.8705 111.4967 L 181.7839 116.1161 L 181.7839 121.1161 L 181.7839 126.1161 M 181.7839 116.1161 L 181.7839 121.1161 L 179.8705 125.7355 L 177.9571 130.3549 M 181.7839 121.1161 L 181.7839 126.1161 M 181.7839 116.1161 L 183.6973 120.7355 M 179.8705 111.4967 L 183.4061 115.0323 M 176.335 107.9612 L 179.8705 111.4967 L 181.7839 116.1161 L 183.6973 120.7355 M 179.8705 111.4967 L 181.7839 116.1161 L 181.7839 121.1161 L 181.7839 126.1161 M 181.7839 116.1161 L 183.6973 120.7355 M 179.8705 111.4967 L 181.7839 116.1161 L 181.7839 121.1161 L 181.7839 126.1161 M 181.7839 116.1161 L 181.7839 121.1161 L 179.8705 125.7355 L 177.9571 130.3549 M 181.7839 121.1161 L 181.7839 126.1161 M 181.7839 116.1161 L 183.6973 120.7355 M 179.8705 111.4967 L 181.7839 116.1161 L 181.7839 121.1161 L 181.7839 126.1161 M 181.7839 116.1161 L 181.7839 121.1161 L 179.8705 125.7355 L 177.9571 130.3549 M 181.7839 121.1161 L 181.7839 126.1161 M 181.7839 116.1161 L 181.7839 121.1161 L 179.8705 125.7355 L 177.9571 130.3549 M 181.7839 121.1161 L 179.8705 125.7355 L 176.335 129.2711 L 172.7995 132.8066 M 179.8705 125.7355 L 177.9571 130.3549 M 181.7839 121.1161 L 181.7839 126.1161 M 181.7839 116.1161 L 183.6973 120.7355 M 179.8705 111.4967 L 183.4061 115.0323 M 176.335 107.9612 L 179.8705 111.4967 L 181.7839 116.1161 L 183.6973 120.7355 M 179.8705 111.4967 L 181.7839 116.1161 L 181.7839 121.1161 L 181.7839 126.1161 M 181.7839 116.1161 L 183.6973 120.7355 M 179.8705 111.4967 L 181.7839 116.1161 L 181.7839 121.1161 L 181.7839 126.1161 M 181.7839 116.1161 L 181.7839 121.1161 L 179.8705 125.7355 L 177.9571 130.3549 M 181.7839 121.1161 L 181.7839 126.1161 M 181.7839 116.1161 L 183.6973 120.7355 M 179.8705 111.4967 L 181.7839 116.1161 L 181.7839 121.1161 L 181.7839 126.1161 M 181.7839 116.1161 L 181.7839 121.1161 L 179.8705 125.7355 L 177.9571 130.3549 M 181.7839 121.1161 L 181.7839 126.1161 M 181.7839 116.1161 L 181.7839 121.1161 L 179.8705 125.7355 L 177.9571 130.3549 M 181.7839 121.1161 L 179.8705 125.7355 L 176.335 129.2711 L 172.7995 132.8066 M 179.8705 125.7355 L 177.9571 130.3549 M 181.7839 121.1161 L 181.7839 126.1161 M 181.7839 116.1161 L 183.6973 120.7355 M 179.8705 111.4967 L 181.7839 116.1161 L 181.7839 121.1161 L 181.7839 126.1161 M 181.7839 116.1161 L 181.7839 121.1161 L 179.8705 125.7355 L 177.9571 130.3549 M 181.7839 121.1161 L 181.7839 126.1161 M 181.7839 116.1161 L 181.7839 121.1161 L 179.8705 125.7355 L 177.9571 130.3549 M 181.7839 121.1161 L 179.8705 125.7355 L 176.335 129.2711 L 172.7995 132.8066 M 179.8705 125.7355 L 177.9571 130.3549 M 181.7839 121.1161 L 181.7839 126.1161 M 181.7839 116.1161 L 181.7839 121.1161 L 179.8705 125.7355 L 177.9571 130.3549 M 181.7839 121.1161 L 179.8705 125.7355 L 176.335 129.2711 L 172.7995 132.8066 M 179.8705 125.7355 L 177.9571 130.3549 M 181.7839 121.1161 L 179.8705 125.7355 L 176.335 129.2711 L 172.7995 132.8066 M 179.8705 125.7355 L 176.335 129.2711 L 171.7156 131.1845 L 167.0962 133.0979 M 176.335 129.2711 L 172.7995 132.8066 M 179.8705 125.7355 L 177.9571 130.3549 M 181.7839 121.1161 L 181.7839 126.1161 M 181.7839 116.1161 L 183.6973 120.7355 M 179.8705 111.4967 L 183.4061 115.0323 M 176.335 107.9612 L 180.9544 109.8746 M 167.0962 104.1344 L 172.0962 104.1344 M 147.0962 104.1344 L 151.7156 102.2209 M 128.6186 111.7881 L 132.1541 108.2525 M 114.4765 125.9302 L 116.3899 121.3108 L 116.3899 116.3108 L 116.3899 111.3108 L 116.3899 106.3108 L 114.4765 101.6914 L 112.5631 97.07201 M 116.3899 106.3108 L 116.3899 101.3108 L 118.3033 96.69141 L 120.2167 92.07201 L 122.1302 87.45261 M 116.3899 101.3108 L 114.4765 96.69141 L 112.5631 92.07201 L 110.6496 87.45261 L 108.7362 82.83321 M 116.3899 101.3108 L 116.3899 96.31081 M 116.3899 121.3108 L 116.3899 116.3108 L 116.3899 111.3108 L 118.3033 106.6914 L 120.2167 102.072 L 122.1302 97.45261 L 125.6657 93.91707 L 129.2012 90.38153 M 122.1302 97.45261 L 124.0436 92.83321 L 124.0436 87.83321 L 124.0436 82.83321 M 124.0436 92.83321 L 127.5791 89.29767 L 131.1146 85.76213 L 134.6502 82.22659 L 138.1857 78.69106 M 124.0436 92.83321 L 125.957 88.21381 M 116.3899 111.3108 L 116.3899 106.3108 L 114.4765 101.6914 L 112.5631 97.07201 L 110.6496 92.45261 L 108.7362 87.83321 M 116.3899 106.3108 L 114.4765 101.6914 L 114.4765 96.69141 L 114.4765 91.69141 M 114.4765 101.6914 L 114.4765 96.69141 L 112.5631 92.07201 L 110.6496 87.45261 M 114.4765 96.69141 L 114.4765 91.69141 L 116.3899 87.07201 L 118.3033 82.45261 L 120.2167 77.83321 M 114.4765 91.69141 L 114.4765 86.69141 M 114.4765 101.6914 L 112.5631 97.07201 L 109.0275 93.53647 L 105.492 90.00093 M 112.5631 97.07201 L 110.6496 92.45261 L 110.6496 87.45261 L 110.6496 82.45261 L 110.6496 77.45261 M 110.6496 92.45261 L 107.1141 88.91707 L 103.5786 85.38153 L 100.0431 81.84599 L 96.50752 78.31046 L 91.88812 76.39703 L 87.26872 74.48361 M 96.50752 78.31046 L 92.97199 74.77492 M 110.6496 92.45261 L 108.7362 87.83321 M 116.3899 106.3108 L 116.3899 101.3108 L 118.3033 96.69141 L 120.2167 92.07201 M 116.3899 101.3108 L 118.3033 96.69141 L 118.3033 91.69141 L 118.3033 86.69141 M 118.3033 96.69141 L 120.2167 92.07201 L 123.7523 88.53647 L 127.2878 85.00093 L 130.8233 81.46539 M 120.2167 92.07201 L 122.1302 87.45261 M 116.3899 101.3108 L 116.3899 96.31081 L 114.4765 91.69141 L 112.5631 87.07201 M 116.3899 96.31081 L 116.3899 91.31081 L 118.3033 86.69141 L 120.2167 82.07201 L 122.1302 77.45261 M 116.3899 91.31081 L 114.4765 86.69141 L 112.5631 82.07201 L 110.6496 77.45261 L 108.7362 72.83321 L 105.2007 69.29767 L 101.6652 65.76213 M 108.7362 72.83321 L 106.8228 68.21381 M 116.3899 91.31081 L 118.3033 86.69141 L 120.2167 82.07201 L 122.1302 77.45261 L 124.0436 72.83321 L 127.5791 69.29767 L 131.1146 65.76213 L 134.6502 62.22659 M 124.0436 72.83321 L 125.957 68.21381 L 127.8704 63.59441 L 127.8704 58.59441 L 127.8704 53.59441 L 127.8704 48.59439 M 127.8704 63.59441 L 131.4059 60.05887 L 134.9415 56.52333 L 138.477 52.98779 L 143.0964 51.07437 L 147.7158 49.16095 M 138.477 52.98779 L 142.0125 49.45227 M 127.8704 63.59441 L 129.7838 58.97501 M 116.3899 91.31081 L 114.4765 86.69141 L 112.5631 82.07201 L 110.6496 77.45261 L 107.1141 73.91707 L 102.4947 72.00365 L 97.87531 70.09023 M 107.1141 73.91707 L 102.4947 72.00365 L 97.49471 72.00365 L 92.49471 72.00365 M 102.4947 72.00365 L 97.87531 70.09023 M 107.1141 73.91707 L 102.4947 72.00365 L 97.49471 72.00365 L 92.49471 72.00365 M 102.4947 72.00365 L 97.49471 72.00365 L 92.87531 73.91707 L 88.25591 75.83049 M 97.49471 72.00365 L 92.49471 72.00365 M 102.4947 72.00365 L 97.87531 70.09023 M 107.1141 73.91707 L 103.5786 70.38153 M 110.6496 77.45261 L 108.7362 72.83321 L 108.7362 67.83321 L 108.7362 62.83321 L 110.6496 58.21381 L 112.5631 53.59441 M 108.7362 62.83321 L 108.7362 57.83321 L 106.8228 53.21381 L 104.9094 48.59442 M 108.7362 57.83321 L 110.6496 53.21381 L 112.5631 48.59442 L 114.4765 43.97504 L 116.3899 39.35565 M 108.7362 57.83321 L 108.7362 52.83321 M 108.7362 72.83321 L 106.8228 68.21381 L 104.9094 63.59441 L 104.9094 58.59441 L 104.9094 53.59441 M 104.9094 63.59441 L 102.996 58.97501 L 99.46043 55.43947 L 95.9249 51.90393 M 102.996 58.97501 L 102.996 53.97501 L 102.996 48.97501 L 102.996 43.97501 L 102.996 38.97501 M 102.996 58.97501 L 99.46043 55.43947 L 95.9249 51.90393 L 92.38937 48.36841 L 88.85384 44.83289 L 86.94042 40.2135 L 85.027 35.59412 M 88.85384 44.83289 L 84.23444 42.91946 L 79.61504 41.00604 L 74.99564 39.09262 M 88.85384 44.83289 L 85.31831 41.29736 M 102.996 58.97501 L 101.0825 54.35561 M 116.3899 91.31081 L 116.3899 86.31081 M 116.3899 121.3108 L 118.3033 116.6914 L 120.2167 112.072 L 123.7523 108.5365 L 127.2878 105.0009 L 130.8233 101.4654 L 135.4427 99.55197 L 140.0621 97.63855 M 130.8233 101.4654 L 134.3589 97.92986 L 136.2723 93.31046 L 138.1857 88.69106 M 134.3589 97.92986 L 138.9783 96.01643 L 143.5977 94.10301 L 148.2171 92.18959 L 152.8365 90.27617 M 134.3589 97.92986 L 137.8944 94.39432 M 120.2167 112.072 L 122.1302 107.4526 L 122.1302 102.4526 L 122.1302 97.45261 L 122.1302 92.45261 L 122.1302 87.45261 M 122.1302 107.4526 L 122.1302 102.4526 L 124.0436 97.83321 L 125.957 93.21381 M 122.1302 102.4526 L 124.0436 97.83321 L 124.0436 92.83321 L 124.0436 87.83321 M 124.0436 97.83321 L 125.957 93.21381 L 129.4925 89.67827 L 133.0281 86.14273 L 136.5636 82.60719 M 125.957 93.21381 L 127.8704 88.59441 M 122.1302 102.4526 L 122.1302 97.45261 L 120.2167 92.83321 L 118.3033 88.21381 M 122.1302 97.45261 L 122.1302 92.45261 L 124.0436 87.83321 L 125.957 83.21381 L 127.8704 78.59441 M 122.1302 92.45261 L 120.2167 87.83321 L 118.3033 83.21381 L 116.3899 78.59441 L 114.4765 73.97501 L 110.9409 70.43947 L 107.4054 66.90393 M 114.4765 73.97501 L 112.5631 69.35561 M 122.1302 92.45261 L 122.1302 87.45261 M 122.1302 107.4526 L 124.0436 102.8332 L 127.5791 99.29767 L 131.1146 95.76213 M 124.0436 102.8332 L 127.5791 99.29767 L 129.4925 94.67827 L 131.4059 90.05887 M 127.5791 99.29767 L 131.1146 95.76213 L 135.734 93.84871 L 140.3534 91.93529 L 144.9728 90.02187 M 131.1146 95.76213 L 134.6502 92.22659 M 124.0436 102.8332 L 125.957 98.21381 L 125.957 93.21381 L 125.957 88.21381 M 125.957 98.21381 L 127.8704 93.59441 L 131.4059 90.05887 L 134.9415 86.52333 L 138.477 82.98779 M 127.8704 93.59441 L 127.8704 88.59441 L 127.8704 83.59441 L 127.8704 78.59441 L 127.8704 73.59441 L 125.957 68.97501 L 124.0436 64.35561 M 127.8704 73.59441 L 127.8704 68.59441 M 127.8704 93.59441 L 131.4059 90.05887 L 134.9415 86.52333 L 138.477 82.98779 L 142.0125 79.45226 L 146.632 77.53883 L 151.2513 75.62541 L 155.8708 73.71199 M 142.0125 79.45226 L 145.5481 75.91672 L 149.0836 72.38118 L 150.997 67.76178 L 152.9104 63.14238 L 154.8239 58.52298 M 149.0836 72.38118 L 153.703 70.46776 L 158.3224 68.55434 L 162.9418 66.64091 L 167.9418 66.64091 L 172.9418 66.64091 M 162.9418 66.64091 L 167.5612 64.72749 M 149.0836 72.38118 L 152.6191 68.84564 M 127.8704 93.59441 L 127.8704 88.59441 L 127.8704 83.59441 L 127.8704 78.59441 L 125.957 73.97501 L 122.4215 70.43947 L 118.8859 66.90393 M 125.957 73.97501 L 122.4215 70.43947 L 117.8021 68.52605 L 113.1827 66.61263 M 122.4215 70.43947 L 118.8859 66.90393 M 125.957 73.97501 L 122.4215 70.43947 L 117.8021 68.52605 L 113.1827 66.61263 M 122.4215 70.43947 L 117.8021 68.52605 L 112.8021 68.52605 L 107.8021 68.52605 M 117.8021 68.52605 L 113.1827 66.61263 M 122.4215 70.43947 L 118.8859 66.90393 M 125.957 73.97501 L 124.0436 69.35561 M 127.8704 78.59441 L 127.8704 73.59441 L 129.7838 68.97501 L 131.6973 64.35561 L 135.2328 60.82007 L 138.7683 57.28453 M 131.6973 64.35561 L 133.6107 59.73621 L 133.6107 54.73621 L 133.6107 49.73621 M 133.6107 59.73621 L 137.1462 56.20067 L 140.6817 52.66513 L 144.2173 49.12961 L 147.7528 45.59409 M 133.6107 59.73621 L 135.5241 55.11681 M 127.8704 73.59441 L 127.8704 68.59441 L 127.8704 63.59441 L 129.7838 58.97501 L 131.6973 54.35561 M 127.8704 63.59441 L 127.8704 58.59441 L 125.957 53.97501 L 124.0436 49.35562 M 127.8704 58.59441 L 129.7838 53.97501 L 131.6973 49.35562 L 133.6107 44.73624 L 135.5241 40.11685 M 127.8704 58.59441 L 125.957 53.97501 L 124.0436 49.35562 L 122.1302 44.73624 L 120.2167 40.11685 L 120.2167 35.11685 L 120.2167 30.11685 M 120.2167 40.11685 L 116.6812 36.58133 L 113.1457 33.04581 L 109.6102 29.51028 M 120.2167 40.11685 L 118.3033 35.49747 M 127.8704 58.59441 L 127.8704 53.59441 M 127.8704 93.59441 L 131.4059 90.05887 L 134.9415 86.52333 L 138.477 82.98779 L 142.0125 79.45226 L 143.926 74.83286 L 145.8394 70.21346 M 142.0125 79.45226 L 145.5481 75.91672 L 150.1675 74.0033 L 154.7869 72.08987 L 159.4063 70.17645 L 164.4063 70.17645 L 169.4063 70.17645 L 174.4063 70.17645 M 159.4063 70.17645 L 164.0257 68.26303 M 145.5481 75.91672 L 149.0836 72.38118 L 152.6191 68.84564 L 156.1547 65.3101 L 160.7741 63.39668 L 165.3935 61.48326 L 170.0129 59.56984 M 156.1547 65.3101 L 158.0681 60.6907 L 159.9815 56.0713 L 161.8949 51.4519 L 163.8083 46.83252 L 163.8083 41.83252 L 163.8083 36.83252 M 163.8083 46.83252 L 165.7218 42.21313 M 156.1547 65.3101 L 159.6902 61.77457 L 164.3096 59.86115 L 168.929 57.94772 L 173.5484 56.0343 L 178.5484 56.0343 L 183.5484 56.0343 L 188.5484 56.0343 M 173.5484 56.0343 L 178.1678 54.12088 L 182.7872 52.20746 L 186.3227 48.67194 L 189.8583 45.13641 L 193.3938 41.60089 M 182.7872 52.20746 L 187.7872 52.20746 L 192.7872 52.20746 L 197.7872 52.20746 L 202.4066 54.12088 L 207.026 56.0343 M 197.7872 52.20746 L 202.7872 52.20746 M 182.7872 52.20746 L 187.4066 50.29404 M 159.6902 61.77457 L 163.2257 58.23903 L 166.7613 54.70349 L 170.2968 51.16797 L 174.9162 49.25455 L 179.5356 47.34113 L 184.155 45.4277 M 170.2968 51.16797 L 173.8323 47.63245 L 177.3679 44.09692 L 179.2813 39.47754 L 181.1947 34.85815 L 183.1081 30.23877 M 177.3679 44.09692 L 181.9873 42.1835 L 186.6067 40.27008 L 191.2261 38.35666 L 196.2261 38.35666 L 201.2261 38.35666 M 191.2261 38.35666 L 195.8455 36.44324 M 177.3679 44.09692 L 179.2813 39.47754 L 181.1947 34.85815 L 183.1081 30.23877 L 185.0215 25.61938 L 185.0215 20.61938 L 185.0215 15.61938 M 185.0215 25.61938 L 186.935 21 L 190.4705 17.46448 L 194.006 13.92896 L 197.5416 10.39343 M 186.935 21 L 186.935 16 L 186.935 11 L 186.935 6 L 186.935 1 M 186.935 21 L 188.8484 16.38062 M 177.3679 44.09692 L 181.9873 42.1835 L 186.6067 40.27008 L 191.2261 38.35666 L 196.2261 38.35666 L 200.8455 40.27008 L 205.4649 42.1835 M 196.2261 38.35666 L 200.8455 40.27008 L 204.381 43.8056 L 207.9166 47.34113 M 200.8455 40.27008 L 205.4649 42.1835 M 196.2261 38.35666 L 200.8455 40.27008 L 204.381 43.8056 L 207.9166 47.34113 M 200.8455 40.27008 L 204.381 43.8056 L 206.2944 48.42499 L 208.2079 53.04439 M 204.381 43.8056 L 207.9166 47.34113 M 200.8455 40.27008 L 205.4649 42.1835 M 196.2261 38.35666 L 201.2261 38.35666 M 191.2261 38.35666 L 195.8455 36.44324 L 199.381 32.90771 L 202.9166 29.37219 L 206.4521 25.83667 L 211.0715 23.92325 L 215.6909 22.00983 M 206.4521 25.83667 L 208.3655 21.21729 L 210.2789 16.5979 L 212.1923 11.97852 M 206.4521 25.83667 L 209.9876 22.30115 M 195.8455 36.44324 L 200.4649 34.52982 L 205.0843 32.61639 L 209.7037 30.70297 L 214.7037 30.70297 L 219.7037 30.70297 M 209.7037 30.70297 L 213.2392 27.16745 L 216.7747 23.63193 L 220.3103 20.09641 M 209.7037 30.70297 L 214.7037 30.70297 L 219.7037 30.70297 L 224.7037 30.70297 L 229.7037 30.70297 L 234.3231 32.61639 L 238.9425 34.52982 L 243.5619 36.44324 M 229.7037 30.70297 L 234.7037 30.70297 M 209.7037 30.70297 L 214.3231 28.78955 M 177.3679 44.09692 L 180.9034 40.5614 M 127.8704 93.59441 L 129.7838 88.97501 M 99.16912 162.8854 L 99.16912 157.8854 " />
  </g>
</svg>
