<?xml version="1.0" encoding="UTF-8" standalone="no"?>
<!DOCTYPE svg PUBLIC "-//W3C//DTD SVG 1.1//EN"
    "http://www.w3.org/Graphics/SVG/1.1/DTD/svg11.dtd">
<svg xmlns="http://www.w3.org/2000/svg" width="410" height="550">
  <desc>hogeweg_d LSystem</desc>
  <rect width="100%" height="100%" style="fill: white"/>
  <g stroke="black" fill="none" stroke-width="1">
    <path d="M 133.6172 548.355 L 133.6172 543.355 L 133.6172 538.355 L 133.6172 533.355 L 133.6172 528.355 L 133.6172 523.355 L 133.6172 518.355 L 133.6172 513.355 L 133.6172 508.355 L 131.445 503.8515 L 129.2728 499.348 M 133.6172 508.355 L 133.6172 503.355 L 133.6172 498.355 L 133.6172 493.355 L 133.6172 488.355 L 131.445 483.8515 L 129.2727 479.348 M 133.6172 488.355 L 133.6172 483.355 L 133.6172 478.355 L 133.6172 473.355 L 133.6172 468.355 L 131.445 463.8515 L 129.2727 459.348 L 129.2727 454.348 L 129.2727 449.348 M 129.2727 459.348 L 127.1005 454.8445 M 133.6172 468.355 L 133.6172 463.355 L 133.6172 458.355 L 133.6172 453.355 L 133.6172 448.355 L 131.445 443.8515 L 129.2727 439.348 L 129.2727 434.348 L 129.2727 429.348 L 131.445 424.8445 L 133.6172 420.341 M 129.2727 429.348 L 129.2727 424.348 M 129.2727 439.348 L 127.1005 434.8445 M 133.6172 448.355 L 133.6172 443.355 L 133.6172 438.355 L 133.6172 433.355 L 133.6172 428.355 L 131.445 423.8515 L 129.2727 419.348 L 127.1005 414.8445 L 127.1005 409.8445 L 127.1005 404.8445 M 127.1005 414.8445 L 127.1005 409.8445 L 127.1005 404.8445 L 127.1005 399.8445 L 124.9283 395.341 L 122.7561 390.8375 M 127.1005 399.8445 L 129.2727 395.341 L 131.445 390.8375 L 135.358 387.7249 L 139.2711 384.6124 M 131.445 390.8375 L 133.6172 386.334 M 127.1005 399.8445 L 127.1005 394.8445 M 127.1005 414.8445 L 124.9283 410.341 M 133.6172 428.355 L 133.6172 423.355 L 133.6172 418.355 L 133.6172 413.355 L 133.6172 408.355 L 131.445 403.8515 L 129.2727 399.348 L 127.1005 394.8445 L 124.9283 390.341 L 124.9283 385.341 L 124.9283 380.341 M 124.9283 390.341 L 124.9283 385.341 L 122.7561 380.8375 L 120.5838 376.334 M 124.9283 385.341 L 124.9283 380.341 M 124.9283 390.341 L 124.9283 385.341 L 122.7561 380.8375 L 120.5838 376.334 M 124.9283 385.341 L 124.9283 380.341 L 124.9283 375.341 L 124.9283 370.341 L 124.9283 365.341 L 122.7561 360.8375 L 120.5838 356.334 M 124.9283 365.341 L 122.7561 360.8375 L 120.5838 356.334 M 124.9283 365.341 L 127.1005 360.8375 L 129.2727 356.334 L 133.1858 353.2214 L 137.0988 350.1089 L 141.9755 349.0054 L 146.8522 347.9019 M 137.0988 350.1089 L 141.0119 346.9963 M 129.2727 356.334 L 131.445 351.8305 M 124.9283 365.341 L 124.9283 360.341 M 124.9283 390.341 L 122.7561 385.8375 M 133.6172 408.355 L 133.6172 403.355 L 133.6172 398.355 L 133.6172 393.355 L 133.6172 388.355 L 133.6172 383.355 L 135.7894 378.8515 L 137.9616 374.348 M 133.6172 383.355 L 131.445 378.8515 L 127.5319 375.7389 L 123.6189 372.6263 M 131.445 378.8515 L 129.2727 374.348 L 127.1005 369.8445 L 124.9283 365.341 L 122.7561 360.8375 L 120.5838 356.334 L 120.5838 351.334 L 120.5838 346.334 M 120.5838 356.334 L 120.5838 351.334 L 118.4116 346.8305 L 116.2394 342.327 M 120.5838 351.334 L 120.5838 346.334 M 120.5838 356.334 L 120.5838 351.334 L 120.5838 346.334 L 118.4116 341.8305 L 114.4986 338.718 L 110.5855 335.6053 M 118.4116 341.8305 L 116.2394 337.327 M 120.5838 346.334 L 120.5838 341.334 M 120.5838 356.334 L 120.5838 351.334 L 120.5838 346.334 L 118.4116 341.8305 L 114.4986 338.718 L 110.5855 335.6053 M 118.4116 341.8305 L 116.2394 337.327 M 120.5838 346.334 L 120.5838 341.334 L 120.5838 336.334 L 120.5838 331.334 L 120.5838 326.334 L 118.4116 321.8305 L 116.2394 317.327 M 120.5838 326.334 L 118.4116 321.8305 L 116.2394 317.327 L 116.2394 312.327 L 116.2394 307.327 M 116.2394 317.327 L 114.0672 312.8235 M 120.5838 326.334 L 122.7561 321.8305 L 124.9283 317.327 L 127.1005 312.8235 L 131.0135 309.7109 L 134.9266 306.5984 M 127.1005 312.8235 L 131.0135 309.7109 L 134.9266 306.5984 L 138.8396 303.4858 L 141.0119 298.9823 L 143.1841 294.4788 M 138.8396 303.4858 L 143.7164 302.3823 L 148.5931 301.2788 L 153.4649 302.4036 L 158.3368 303.5283 M 148.5931 301.2788 L 153.4698 300.1754 M 138.8396 303.4858 L 142.7527 300.3732 M 127.1005 312.8235 L 129.2727 308.32 M 120.5838 326.334 L 120.5838 321.334 M 120.5838 356.334 L 118.4116 351.8305 M 133.6172 383.355 L 133.6172 378.355 L 133.6172 373.355 L 133.6172 368.355 L 133.6172 363.355 L 135.7894 358.8515 L 135.7894 353.8515 L 135.7894 348.8515 M 135.7894 358.8515 L 137.9616 354.348 M 133.6172 363.355 L 133.6172 358.355 L 133.6172 353.355 L 133.6172 348.355 L 133.6172 343.355 L 135.7894 338.8515 L 137.9616 334.348 L 137.9616 329.348 L 135.7894 324.8445 L 133.6172 320.341 M 137.9616 329.348 L 137.9616 324.348 M 137.9616 334.348 L 140.1339 329.8445 M 133.6172 343.355 L 131.445 338.8515 L 129.2727 334.348 L 125.3597 331.2354 L 121.4467 328.1228 M 129.2727 334.348 L 127.1005 329.8445 L 124.9283 325.341 L 122.7561 320.8375 L 120.5838 316.334 L 116.6708 313.2214 L 112.7578 310.1089 M 120.5838 316.334 L 116.6708 313.2214 L 112.7578 310.1089 M 120.5838 316.334 L 120.5838 311.334 L 120.5838 306.334 L 122.7561 301.8305 L 124.9283 297.327 M 120.5838 306.334 L 120.5838 301.334 M 120.5838 316.334 L 120.5838 311.334 L 120.5838 306.334 L 120.5838 301.334 L 120.5838 296.334 L 122.7561 291.8305 L 124.9283 287.3271 M 120.5838 296.334 L 118.4116 291.8305 L 116.2394 287.3271 L 112.3263 284.2145 L 107.4496 283.111 L 102.5729 282.0075 M 112.3263 284.2145 L 108.4133 281.1019 M 116.2394 287.3271 L 114.0672 282.8236 M 120.5838 296.334 L 120.5838 291.334 M 120.5838 316.334 L 120.5838 311.334 L 120.5838 306.334 L 120.5838 301.334 L 118.4116 296.8305 L 114.4986 293.718 L 110.5855 290.6054 M 118.4116 296.8305 L 116.2394 292.327 M 120.5838 301.334 L 120.5838 296.334 L 120.5838 291.334 L 120.5838 286.334 L 120.5838 281.334 L 120.5838 276.334 L 122.7561 271.8305 L 124.9283 267.3271 M 120.5838 276.334 L 118.4116 271.8305 L 114.4986 268.718 L 110.5855 265.6054 M 118.4116 271.8305 L 116.2394 267.3271 M 120.5838 276.334 L 118.4116 271.8305 L 116.2394 267.3271 L 114.0672 262.8236 L 110.1541 259.711 L 106.2411 256.5984 M 114.0672 262.8236 L 114.0672 257.8236 L 114.0672 252.8236 L 116.2394 248.3201 L 118.4116 243.8166 M 114.0672 252.8236 L 114.0672 247.8236 M 114.0672 262.8236 L 111.8949 258.3201 M 120.5838 276.334 L 122.7561 271.8305 L 124.9283 267.3271 L 127.1005 262.8236 L 129.2727 258.3201 L 133.1858 255.2075 L 137.0988 252.0949 M 129.2727 258.3201 L 133.1858 255.2075 L 135.358 250.704 L 137.5302 246.2006 M 133.1858 255.2075 L 137.0988 252.0949 M 129.2727 258.3201 L 133.1858 255.2075 L 135.358 250.704 L 137.5302 246.2006 M 133.1858 255.2075 L 137.0988 252.0949 L 141.0119 248.9824 L 144.9249 245.8698 L 148.8379 242.7572 L 151.0102 238.2537 L 153.1824 233.7502 M 148.8379 242.7572 L 151.0102 238.2537 L 153.1824 233.7502 M 148.8379 242.7572 L 153.7147 241.6537 L 158.5914 240.5502 L 163.4632 241.675 L 168.3351 242.7997 L 172.2345 245.9294 L 176.1339 249.059 M 168.3351 242.7997 L 173.2069 243.9245 M 158.5914 240.5502 L 163.4681 239.4467 M 148.8379 242.7572 L 152.751 239.6446 M 129.2727 258.3201 L 131.445 253.8166 M 120.5838 276.334 L 120.5838 271.334 M 120.5838 316.334 L 118.4116 311.8305 M 133.6172 343.355 L 133.6172 338.355 L 133.6172 333.355 L 133.6172 328.355 L 133.6172 323.355 L 135.7894 318.8515 L 137.9616 314.348 L 137.9616 309.348 L 137.9616 304.348 M 137.9616 314.348 L 137.9616 309.348 L 137.9616 304.348 L 137.9616 299.348 L 135.7894 294.8445 L 131.8764 291.7319 L 127.9633 288.6194 M 135.7894 294.8445 L 133.6172 290.341 M 137.9616 299.348 L 137.9616 294.348 M 137.9616 314.348 L 140.1339 309.8445 M 133.6172 323.355 L 133.6172 318.355 L 133.6172 313.355 L 133.6172 308.355 L 133.6172 303.355 L 131.445 298.8515 L 129.2727 294.348 M 133.6172 303.355 L 135.7894 298.8515 L 137.9616 294.348 L 140.1339 289.8445 L 142.3061 285.341 L 142.3061 280.341 L 142.3061 275.341 M 142.3061 285.341 L 142.3061 280.341 L 142.3061 275.341 M 142.3061 285.341 L 142.3061 280.341 L 142.3061 275.341 L 142.3061 270.341 L 142.3061 265.341 L 144.4783 260.8376 L 146.6506 256.3341 M 142.3061 265.341 L 140.1339 260.8376 L 137.9616 256.3341 L 134.0486 253.2215 L 129.1719 252.118 L 124.2952 251.0145 M 134.0486 253.2215 L 130.1356 250.1089 M 137.9616 256.3341 L 135.7894 251.8306 M 142.3061 265.341 L 142.3061 260.341 M 142.3061 285.341 L 144.4783 280.8376 M 133.6172 303.355 L 131.445 298.8515 L 129.2727 294.348 L 127.1005 289.8445 L 124.9283 285.341 L 121.0152 282.2285 L 116.1385 281.125 L 111.2618 280.0215 M 121.0152 282.2285 L 116.1385 281.125 L 111.2618 280.0215 M 121.0152 282.2285 L 117.1022 279.1159 M 124.9283 285.341 L 122.7561 280.8376 L 118.843 277.725 L 114.93 274.6124 M 122.7561 280.8376 L 120.5838 276.3341 L 118.4116 271.8306 L 116.2394 267.3271 L 114.0672 262.8236 L 114.0672 257.8236 L 114.0672 252.8236 M 114.0672 262.8236 L 110.1541 259.7111 L 106.2411 256.5985 L 101.3644 255.495 L 96.48766 254.3915 M 106.2411 256.5985 L 101.3644 255.495 L 96.48766 254.3915 L 91.61095 253.288 L 86.73909 254.4128 L 82.83968 257.5424 L 78.94025 260.672 M 86.73909 254.4128 L 81.86724 255.5375 M 91.61095 253.288 L 86.73422 252.1845 M 106.2411 256.5985 L 101.3644 255.495 L 97.45132 252.3824 L 93.53828 249.2698 M 101.3644 255.495 L 96.48766 254.3915 M 106.2411 256.5985 L 102.328 253.4859 M 114.0672 262.8236 L 111.8949 258.3202 L 109.7227 253.8167 L 107.5505 249.3132 L 103.6374 246.2006 L 99.7244 243.088 M 107.5505 249.3132 L 103.6374 246.2006 L 99.7244 243.088 M 107.5505 249.3132 L 107.5505 244.3132 L 107.5505 239.3132 L 109.7227 234.8097 L 111.8949 230.3062 M 107.5505 239.3132 L 107.5505 234.3132 M 107.5505 249.3132 L 107.5505 244.3132 L 107.5505 239.3132 L 109.7227 234.8097 L 111.8949 230.3062 M 107.5505 239.3132 L 107.5505 234.3132 L 107.5505 229.3132 L 107.5505 224.3132 L 107.5505 219.3132 L 107.5505 214.3132 L 105.3783 209.8097 L 103.206 205.3062 M 107.5505 214.3132 L 105.3783 209.8097 L 103.206 205.3062 L 103.206 200.3062 L 103.206 195.3062 M 103.206 205.3062 L 101.0338 200.8028 M 107.5505 214.3132 L 109.7227 209.8097 L 111.8949 205.3062 L 114.0672 200.8028 L 117.9802 197.6902 L 121.8932 194.5776 M 114.0672 200.8028 L 117.9802 197.6902 L 121.8932 194.5776 L 125.8063 191.465 L 127.9785 186.9615 L 130.1507 182.4581 M 125.8063 191.465 L 130.683 190.3615 L 135.5597 189.2581 L 140.4315 190.3828 L 145.3034 191.5076 M 135.5597 189.2581 L 140.4364 188.1546 M 125.8063 191.465 L 129.7193 188.3524 M 114.0672 200.8028 L 116.2394 196.2993 M 107.5505 214.3132 L 107.5505 209.3132 M 107.5505 249.3132 L 107.5505 244.3132 L 107.5505 239.3132 L 107.5505 234.3132 L 107.5505 229.3132 L 107.5505 224.3132 L 105.3783 219.8097 L 103.206 215.3062 M 107.5505 224.3132 L 109.7227 219.8097 L 111.8949 215.3062 L 114.0672 210.8028 L 114.0672 205.8028 L 111.8949 201.2993 L 109.7227 196.7958 M 114.0672 205.8028 L 114.0672 200.8028 M 114.0672 210.8028 L 117.9802 207.6902 L 122.8569 206.5867 L 127.7336 205.4832 M 117.9802 207.6902 L 121.8932 204.5776 M 114.0672 210.8028 L 116.2394 206.2993 M 107.5505 224.3132 L 107.5505 219.3132 L 107.5505 214.3132 L 107.5505 209.3132 L 109.7227 204.8097 L 109.7227 199.8097 L 109.7227 194.8097 M 109.7227 204.8097 L 109.7227 199.8097 L 109.7227 194.8097 M 109.7227 204.8097 L 111.8949 200.3062 M 107.5505 209.3132 L 107.5505 204.3132 L 105.3783 199.8097 L 103.206 195.3062 M 107.5505 204.3132 L 107.5505 199.3132 L 107.5505 194.3132 L 107.5505 189.3132 L 107.5505 184.3132 L 105.3783 179.8097 L 103.206 175.3062 M 107.5505 184.3132 L 105.3783 179.8097 L 103.206 175.3062 L 103.206 170.3062 L 103.206 165.3062 M 103.206 175.3062 L 101.0338 170.8028 M 107.5505 184.3132 L 105.3783 179.8097 L 103.206 175.3062 L 103.206 170.3062 L 103.206 165.3062 L 105.3783 160.8028 L 107.5505 156.2993 M 103.206 165.3062 L 103.206 160.3062 M 103.206 175.3062 L 101.0338 170.8028 M 107.5505 184.3132 L 105.3783 179.8097 L 103.206 175.3062 L 101.0338 170.8028 L 101.0338 165.8028 L 101.0338 160.8028 M 101.0338 170.8028 L 101.0338 165.8028 L 101.0338 160.8028 L 101.0338 155.8028 L 98.86157 151.2993 L 96.68935 146.7958 M 101.0338 155.8028 L 103.206 151.2993 L 105.3783 146.7958 L 109.2913 143.6832 L 113.2043 140.5706 M 105.3783 146.7958 L 107.5505 142.2923 M 101.0338 155.8028 L 101.0338 150.8028 M 101.0338 170.8028 L 98.86157 166.2993 M 107.5505 184.3132 L 109.7227 179.8097 L 111.8949 175.3062 L 115.808 172.1937 L 119.721 169.0811 M 111.8949 175.3062 L 114.0672 170.8028 L 116.2394 166.2993 L 118.4116 161.7958 L 120.5838 157.2923 L 124.4969 154.1797 L 128.4099 151.0672 M 120.5838 157.2923 L 124.4969 154.1797 L 126.6691 149.6763 L 128.8413 145.1728 M 124.4969 154.1797 L 128.4099 151.0672 M 120.5838 157.2923 L 124.4969 154.1797 L 128.4099 151.0672 L 130.5821 146.5637 L 130.5821 141.5637 L 130.5821 136.5637 M 130.5821 146.5637 L 132.7544 142.0602 M 128.4099 151.0672 L 132.323 147.9546 M 120.5838 157.2923 L 124.4969 154.1797 L 128.4099 151.0672 L 130.5821 146.5637 L 130.5821 141.5637 L 130.5821 136.5637 M 130.5821 146.5637 L 132.7544 142.0602 M 128.4099 151.0672 L 132.323 147.9546 L 136.236 144.842 L 140.149 141.7294 L 144.0621 138.6169 L 146.2343 134.1134 L 148.4065 129.6099 M 144.0621 138.6169 L 146.2343 134.1134 L 148.4065 129.6099 L 152.3196 126.4973 L 156.2326 123.3847 M 148.4065 129.6099 L 150.5788 125.1064 M 144.0621 138.6169 L 148.9388 137.5134 L 153.8155 136.4099 L 158.6922 135.3064 L 163.5641 136.4312 L 168.4359 137.5559 M 158.6922 135.3064 L 163.5641 136.4312 L 168.4359 137.5559 L 173.3078 138.6807 L 178.1845 137.5772 L 183.0612 136.4737 M 173.3078 138.6807 L 177.2072 141.8103 L 181.1066 144.9399 L 183.2592 149.4528 L 185.4117 153.9658 M 181.1066 144.9399 L 185.006 148.0695 M 173.3078 138.6807 L 178.1796 139.8054 M 158.6922 135.3064 L 163.5689 134.2029 M 144.0621 138.6169 L 147.9751 135.5043 M 120.5838 157.2923 L 122.7561 152.7888 M 107.5505 184.3132 L 107.5505 179.3132 M 107.5505 249.3132 L 105.3783 244.8097 M 133.6172 303.355 L 133.6172 298.355 L 133.6172 293.355 L 133.6172 288.355 L 133.6172 283.355 L 131.445 278.8515 L 129.2727 274.348 M 133.6172 283.355 L 133.6172 278.355 L 133.6172 273.355 L 133.6172 268.355 L 133.6172 263.355 L 131.445 258.8515 L 129.2727 254.348 L 129.2727 249.348 L 129.2727 244.348 M 129.2727 254.348 L 127.1005 249.8445 M 133.6172 263.355 L 135.7894 258.8515 L 137.9616 254.348 L 140.1339 249.8445 L 144.0469 246.732 L 148.9236 245.6285 L 153.8003 244.525 M 144.0469 246.732 L 147.9599 243.6194 M 140.1339 249.8445 L 142.3061 245.3411 L 144.4783 240.8376 L 144.4783 235.8376 L 144.4783 230.8376 M 144.4783 240.8376 L 144.4783 235.8376 L 144.4783 230.8376 L 144.4783 225.8376 L 142.3061 221.3341 L 138.3931 218.2215 L 134.48 215.1089 M 142.3061 221.3341 L 140.1339 216.8306 M 144.4783 225.8376 L 144.4783 220.8376 M 144.4783 240.8376 L 144.4783 235.8376 L 144.4783 230.8376 L 144.4783 225.8376 L 142.3061 221.3341 L 138.3931 218.2215 L 134.48 215.1089 M 142.3061 221.3341 L 140.1339 216.8306 M 144.4783 225.8376 L 144.4783 220.8376 L 142.3061 216.3341 L 140.1339 211.8306 M 144.4783 220.8376 L 144.4783 215.8376 L 144.4783 210.8376 L 144.4783 205.8376 L 146.6505 201.3341 L 148.8228 196.8306 M 144.4783 205.8376 L 146.6505 201.3341 L 146.6505 196.3341 L 146.6505 191.3341 M 146.6505 201.3341 L 148.8228 196.8306 M 144.4783 205.8376 L 142.3061 201.3341 L 140.1339 196.8306 L 136.2208 193.718 L 132.3078 190.6055 M 140.1339 196.8306 L 136.2208 193.718 L 132.3078 190.6055 L 128.3947 187.4929 L 123.518 186.3894 L 118.6462 187.5142 L 113.7743 188.6389 M 123.518 186.3894 L 118.6413 185.2859 M 128.3947 187.4929 L 124.4817 184.3803 M 140.1339 196.8306 L 137.9616 192.3271 M 144.4783 205.8376 L 144.4783 200.8376 M 144.4783 240.8376 L 146.6505 236.3341 M 133.6172 263.355 L 133.6172 258.355 L 133.6172 253.355 L 133.6172 248.355 L 133.6172 243.355 L 131.445 238.8515 L 129.2727 234.348 L 129.2727 229.348 L 129.2727 224.348 L 131.445 219.8445 L 133.6172 215.3411 M 129.2727 224.348 L 129.2727 219.348 M 129.2727 234.348 L 127.1005 229.8445 M 133.6172 243.355 L 133.6172 238.355 L 133.6172 233.355 L 133.6172 228.355 L 135.7894 223.8515 L 137.9616 219.348 M 133.6172 228.355 L 133.6172 223.355 L 133.6172 218.355 L 133.6172 213.355 L 133.6172 208.355 L 135.7894 203.8515 L 137.9616 199.348 M 133.6172 208.355 L 135.7894 203.8515 L 135.7894 198.8515 L 135.7894 193.8515 M 135.7894 203.8515 L 137.9616 199.348 M 133.6172 208.355 L 131.445 203.8515 L 129.2727 199.348 L 125.3597 196.2354 L 120.483 195.132 L 115.6063 194.0285 M 125.3597 196.2354 L 121.4467 193.1229 M 129.2727 199.348 L 127.1005 194.8445 M 133.6172 208.355 L 131.445 203.8515 L 127.5319 200.7389 L 123.6189 197.6263 M 131.445 203.8515 L 129.2727 199.348 L 127.1005 194.8445 L 124.9283 190.3411 L 122.7561 185.8376 L 118.843 182.725 L 114.93 179.6124 M 122.7561 185.8376 L 118.843 182.725 L 114.93 179.6124 M 122.7561 185.8376 L 122.7561 180.8376 L 122.7561 175.8376 L 124.9283 171.3341 L 127.1005 166.8306 L 131.0135 163.718 L 134.9266 160.6055 M 127.1005 166.8306 L 129.2727 162.3271 M 122.7561 175.8376 L 122.7561 170.8376 M 122.7561 185.8376 L 120.5838 181.3341 M 133.6172 208.355 L 135.7894 203.8515 L 137.9616 199.348 L 137.9616 194.348 L 135.7894 189.8445 L 133.6172 185.3411 M 137.9616 194.348 L 137.9616 189.348 M 137.9616 199.348 L 140.1339 194.8445 L 142.3061 190.3411 L 146.2191 187.2285 L 150.1322 184.1159 L 155.0089 183.0124 L 159.8856 181.9089 M 150.1322 184.1159 L 154.0452 181.0033 M 142.3061 190.3411 L 146.2191 187.2285 L 150.1322 184.1159 L 155.0089 183.0124 L 159.8856 181.9089 M 150.1322 184.1159 L 154.0452 181.0033 L 157.9583 177.8907 L 161.8713 174.7782 L 164.0435 170.2747 L 166.2157 165.7712 M 161.8713 174.7782 L 164.0435 170.2747 L 166.2157 165.7712 M 161.8713 174.7782 L 166.748 173.6747 L 171.6247 172.5712 L 176.4966 173.696 L 181.3684 174.8207 L 185.2678 177.9503 L 189.1673 181.0799 M 181.3684 174.8207 L 186.2403 175.9455 M 171.6247 172.5712 L 176.5014 171.4677 M 161.8713 174.7782 L 165.7843 171.6656 M 142.3061 190.3411 L 144.4783 185.8376 M 133.6172 208.355 L 135.7894 203.8515 L 137.9616 199.348 L 140.1339 194.8445 L 144.0469 191.732 L 146.2191 187.2285 L 148.3914 182.725 M 144.0469 191.732 L 148.9236 190.6285 L 153.8003 189.525 M 144.0469 191.732 L 147.9599 188.6194 M 140.1339 194.8445 L 142.3061 190.3411 L 144.4783 185.8376 L 144.4783 180.8376 L 144.4783 175.8376 M 144.4783 185.8376 L 146.6505 181.3341 L 148.8228 176.8306 L 150.995 172.3271 L 153.1672 167.8237 L 153.1672 162.8237 L 153.1672 157.8237 M 153.1672 167.8237 L 153.1672 162.8237 L 153.1672 157.8237 M 153.1672 167.8237 L 157.0803 164.7111 L 160.9933 161.5985 L 165.87 160.495 L 170.7467 159.3915 M 160.9933 161.5985 L 164.9063 158.4859 M 153.1672 167.8237 L 157.0803 164.7111 L 160.9933 161.5985 L 164.9063 158.4859 L 168.8194 155.3734 L 173.6961 154.2699 L 178.5728 153.1664 M 168.8194 155.3734 L 170.9916 150.8699 L 173.1638 146.3664 L 173.1638 141.3664 L 170.9916 136.8629 L 168.8194 132.3594 M 173.1638 141.3664 L 173.1638 136.3664 M 173.1638 146.3664 L 175.3361 141.8629 M 168.8194 155.3734 L 172.7324 152.2608 M 153.1672 167.8237 L 153.1672 162.8237 L 153.1672 157.8237 L 153.1672 152.8237 L 153.1672 147.8237 L 150.995 143.3202 L 148.8228 138.8167 M 153.1672 147.8237 L 150.995 143.3202 L 148.8228 138.8167 L 148.8228 133.8167 L 148.8228 128.8167 M 148.8228 138.8167 L 146.6505 134.3132 M 153.1672 147.8237 L 150.995 143.3202 L 148.8228 138.8167 L 148.8228 133.8167 L 148.8228 128.8167 M 148.8228 138.8167 L 146.6505 134.3132 L 144.4783 129.8098 L 142.3061 125.3063 L 140.1339 120.8028 L 140.1339 115.8028 L 140.1339 110.8028 M 140.1339 120.8028 L 140.1339 115.8028 L 137.9616 111.2993 L 135.7894 106.7958 M 140.1339 115.8028 L 140.1339 110.8028 M 140.1339 120.8028 L 136.2208 117.6902 L 132.3078 114.5776 L 127.4311 113.4742 L 122.5544 112.3707 M 132.3078 114.5776 L 127.4311 113.4742 L 122.5544 112.3707 L 117.6777 111.2672 L 112.8058 112.3919 L 108.9064 115.5215 L 105.007 118.6512 M 112.8058 112.3919 L 107.934 113.5167 M 117.6777 111.2672 L 112.8009 110.1637 M 132.3078 114.5776 L 128.3947 111.4651 M 140.1339 120.8028 L 137.9616 116.2993 M 153.1672 147.8237 L 153.1672 142.8237 M 153.1672 167.8237 L 155.3394 163.3202 M 133.6172 208.355 L 131.445 203.8515 L 129.2727 199.348 L 125.3597 196.2354 L 120.483 195.132 L 115.6063 194.0285 M 125.3597 196.2354 L 121.4467 193.1229 M 129.2727 199.348 L 127.1005 194.8445 L 124.9283 190.3411 L 122.7561 185.8376 L 120.5838 181.3341 L 120.5838 176.3341 L 120.5838 171.3341 L 122.7561 166.8306 L 124.9283 162.3271 L 128.8413 159.2146 L 132.7544 156.102 M 124.9283 162.3271 L 127.1005 157.8237 M 120.5838 171.3341 L 122.7561 166.8306 L 122.7561 161.8306 L 122.7561 156.8306 M 122.7561 166.8306 L 124.9283 162.3271 M 120.5838 171.3341 L 120.5838 166.3341 M 120.5838 181.3341 L 118.4116 176.8306 L 116.2394 172.3271 L 114.0672 167.8237 L 114.0672 162.8237 L 114.0672 157.8237 M 114.0672 167.8237 L 110.1541 164.7111 L 105.2774 163.6076 L 100.4007 162.5041 M 110.1541 164.7111 L 106.2411 161.5985 M 114.0672 167.8237 L 110.1541 164.7111 L 105.2774 163.6076 L 100.4007 162.5041 M 110.1541 164.7111 L 106.2411 161.5985 L 102.328 158.4859 L 98.41499 155.3734 L 94.50195 152.2608 L 90.58891 149.1482 L 88.41669 144.6447 L 86.24445 140.1412 M 90.58891 149.1482 L 88.41669 144.6447 L 84.50365 141.5321 L 80.59061 138.4196 M 88.41669 144.6447 L 86.24445 140.1412 M 90.58891 149.1482 L 85.71219 148.0447 L 80.83548 146.9412 L 75.96364 148.066 L 71.09178 149.1907 M 80.83548 146.9412 L 75.96364 148.066 L 71.09178 149.1907 L 66.21993 150.3155 L 62.32051 153.4451 L 60.16795 157.958 L 58.0154 162.471 M 62.32051 153.4451 L 58.42109 156.5747 M 66.21993 150.3155 L 61.34808 151.4402 M 80.83548 146.9412 L 75.95877 145.8377 M 90.58891 149.1482 L 86.67587 146.0356 M 114.0672 167.8237 L 110.1541 164.7111 L 106.2411 161.5985 L 102.328 158.4859 L 98.41499 155.3734 L 93.53827 154.2699 L 88.66156 153.1664 L 84.74852 150.0538 L 80.83548 146.9412 M 88.66156 153.1664 L 83.78971 154.2911 L 79.89029 157.4207 L 75.99088 160.5504 M 83.78971 154.2911 L 78.91786 155.4159 M 88.66156 153.1664 L 83.78485 152.0629 M 98.41499 155.3734 L 94.50195 152.2608 L 90.58891 149.1482 L 85.71219 148.0447 L 81.79915 144.9321 L 77.88611 141.8195 M 85.71219 148.0447 L 80.83548 146.9412 M 90.58891 149.1482 L 86.67587 146.0356 L 84.50365 141.5321 L 82.33141 137.0287 M 86.67587 146.0356 L 82.76283 142.923 L 78.84979 139.8105 L 74.93675 136.6979 L 71.02371 133.5853 L 68.85149 129.0818 L 66.67925 124.5783 M 71.02371 133.5853 L 68.85149 129.0818 L 64.93845 125.9692 L 61.02541 122.8567 M 68.85149 129.0818 L 66.67925 124.5783 M 71.02371 133.5853 L 68.85149 129.0818 L 66.67925 124.5783 L 62.76621 121.4658 L 57.8895 120.3623 L 53.01279 119.2588 M 62.76621 121.4658 L 58.85317 118.3532 M 66.67925 124.5783 L 64.50702 120.0749 M 71.02371 133.5853 L 68.85149 129.0818 L 66.67925 124.5783 L 62.76621 121.4658 L 58.85317 118.3532 M 66.67925 124.5783 L 62.76621 121.4658 L 58.85317 118.3532 L 54.94013 115.2406 L 50.06342 114.1371 L 45.19157 115.2619 L 40.31973 116.3866 M 50.06342 114.1371 L 45.18671 113.0336 M 54.94013 115.2406 L 51.02709 112.128 M 66.67925 124.5783 L 64.50702 120.0749 M 71.02371 133.5853 L 66.147 132.4818 L 61.27515 133.6066 L 56.40329 134.7313 M 66.147 132.4818 L 61.27029 131.3783 L 56.39357 130.2748 L 51.51688 129.1714 L 46.64016 128.0679 L 41.76831 129.1926 L 36.89646 130.3174 M 46.64016 128.0679 L 41.76831 129.1926 L 36.89646 130.3174 M 46.64016 128.0679 L 41.76831 129.1926 L 36.89646 130.3174 L 32.01975 129.2139 L 27.14304 128.1104 M 36.89646 130.3174 L 32.02461 131.4421 M 46.64016 128.0679 L 41.76831 129.1926 L 36.89646 130.3174 L 32.01975 129.2139 L 27.14304 128.1104 M 36.89646 130.3174 L 32.02461 131.4421 L 27.15276 132.5669 L 22.28091 133.6917 L 17.40907 134.8164 L 12.53236 133.7129 L 7.65564 132.6094 M 17.40907 134.8164 L 12.53236 133.7129 L 7.6605 134.8377 L 2.788651 135.9624 M 12.53236 133.7129 L 7.65564 132.6094 M 17.40907 134.8164 L 13.50964 137.946 L 9.610222 141.0756 L 7.457664 145.5886 L 5.305115 150.1015 M 9.610222 141.0756 L 7.457664 145.5886 L 5.305115 150.1015 L 3.152557 154.6144 L 3.174377 159.6144 L 5.366226 164.1083 L 7.558083 168.6023 M 3.174377 159.6144 L 3.196198 164.6143 M 3.152557 154.6144 L 1 159.1274 M 9.610222 141.0756 L 5.7108 144.2052 M 17.40907 134.8164 L 12.53722 135.9412 M 46.64016 128.0679 L 41.76345 126.9644 M 71.02371 133.5853 L 67.11066 130.4727 M 114.0672 167.8237 L 111.8949 163.3202 M 133.6172 208.355 L 131.445 203.8515 L 129.2727 199.348 L 127.1005 194.8445 L 124.9283 190.3411 L 124.9283 185.3411 L 122.7561 180.8376 L 120.5838 176.3341 M 124.9283 185.3411 L 124.9283 180.3411 M 124.9283 190.3411 L 121.0152 187.2285 L 116.1385 186.125 L 111.2618 185.0215 M 121.0152 187.2285 L 117.1022 184.1159 L 113.1892 181.0033 L 109.2761 177.8907 L 105.3631 174.7782 L 100.4864 173.6747 L 95.60965 172.5712 M 105.3631 174.7782 L 100.4864 173.6747 L 95.60965 172.5712 M 105.3631 174.7782 L 103.1909 170.2747 L 101.0186 165.7712 L 101.0186 160.7712 L 101.0186 155.7712 L 103.1909 151.2677 L 105.3631 146.7643 M 101.0186 155.7712 L 101.0186 150.7712 M 101.0186 165.7712 L 98.84641 161.2677 M 105.3631 174.7782 L 100.4864 173.6747 L 95.60965 172.5712 L 91.69661 169.4586 L 87.78357 166.346 M 95.60965 172.5712 L 90.73781 173.696 L 86.83838 176.8256 L 82.93896 179.9552 M 90.73781 173.696 L 85.86597 174.8207 M 95.60965 172.5712 L 90.73294 171.4677 M 105.3631 174.7782 L 101.45 171.6656 M 124.9283 190.3411 L 122.7561 185.8376 L 120.5838 181.3341 L 118.4116 176.8306 L 116.2394 172.3271 L 116.2394 167.3271 L 116.2394 162.3271 L 114.0672 157.8237 L 110.1541 154.7111 L 106.2411 151.5985 M 114.0672 157.8237 L 111.8949 153.3202 M 116.2394 162.3271 L 116.2394 157.3271 M 116.2394 172.3271 L 114.0672 167.8237 L 111.8949 163.3202 L 107.9819 160.2076 L 104.0688 157.095 M 111.8949 163.3202 L 109.7227 158.8167 L 107.5505 154.3132 L 105.3783 149.8098 L 103.206 145.3063 L 99.29298 142.1937 L 95.37994 139.0811 M 103.206 145.3063 L 99.29298 142.1937 L 95.37994 139.0811 M 103.206 145.3063 L 103.206 140.3063 L 103.206 135.3063 L 105.3783 130.8028 L 107.5505 126.2993 M 103.206 135.3063 L 103.206 130.3063 M 103.206 145.3063 L 103.206 140.3063 L 103.206 135.3063 L 103.206 130.3063 L 103.206 125.3063 L 105.3783 120.8028 L 107.5505 116.2993 M 103.206 125.3063 L 101.0338 120.8028 L 98.86157 116.2993 L 94.94853 113.1867 L 90.07181 112.0833 L 85.1951 110.9798 M 94.94853 113.1867 L 91.03549 110.0742 M 98.86157 116.2993 L 96.68935 111.7958 M 103.206 125.3063 L 103.206 120.3063 M 103.206 145.3063 L 99.29298 142.1937 L 95.37994 139.0811 L 93.20772 134.5776 L 91.03549 130.0742 M 95.37994 139.0811 L 91.4669 135.9685 L 87.55386 132.856 L 82.67714 131.7525 L 77.8053 132.8772 L 72.93346 134.002 M 82.67714 131.7525 L 77.80043 130.649 M 87.55386 132.856 L 82.67714 131.7525 L 77.8053 132.8772 L 72.93346 134.002 M 82.67714 131.7525 L 77.80043 130.649 L 72.92372 129.5455 L 68.04701 128.442 L 64.13397 125.3294 L 60.22093 122.2169 M 68.04701 128.442 L 63.17516 129.5668 L 58.30331 130.6915 L 54.40389 133.8211 L 52.25134 138.3341 L 50.09879 142.847 M 54.40389 133.8211 L 50.50447 136.9507 M 58.30331 130.6915 L 53.43147 131.8163 M 68.04701 128.442 L 63.1703 127.3385 M 87.55386 132.856 L 83.64082 129.7434 M 103.206 145.3063 L 99.29298 142.1937 L 95.37994 139.0811 L 91.4669 135.9685 L 86.59018 134.8651 L 81.71834 135.9898 L 76.8465 137.1146 M 86.59018 134.8651 L 81.71347 133.7616 M 91.4669 135.9685 L 87.55386 132.856 L 83.64082 129.7434 L 79.72778 126.6308 L 75.81474 123.5182 L 71.9017 120.4056 L 69.72948 115.9022 L 67.55724 111.3987 M 71.9017 120.4056 L 67.02499 119.3022 L 62.15313 120.4269 L 57.2813 121.5517 M 67.02499 119.3022 L 62.14827 118.1987 M 71.9017 120.4056 L 67.02499 119.3022 L 62.14827 118.1987 L 57.27158 117.0952 L 52.39972 118.2199 L 47.52787 119.3447 M 57.27158 117.0952 L 53.35854 113.9826 L 49.4455 110.87 L 47.27326 106.3665 L 45.10104 101.8631 M 49.4455 110.87 L 45.53246 107.7574 M 57.27158 117.0952 L 52.39486 115.9917 M 71.9017 120.4056 L 69.72948 115.9022 L 67.55724 111.3987 L 65.38501 106.8952 L 63.21279 102.3917 L 63.21279 97.39172 L 63.21279 92.39172 M 63.21279 102.3917 L 63.21279 97.39172 L 61.04057 92.88824 L 58.86834 88.38477 M 63.21279 97.39172 L 63.21279 92.39172 M 63.21279 102.3917 L 63.21279 97.39172 L 61.04057 92.88824 L 58.86834 88.38477 M 63.21279 97.39172 L 63.21279 92.39172 L 63.21279 87.39172 L 63.21279 82.39172 L 63.21279 77.39172 L 61.04057 72.88824 L 58.86834 68.38477 M 63.21279 77.39172 L 61.04057 72.88824 L 58.86834 68.38477 M 63.21279 77.39172 L 65.38501 72.88824 L 67.55724 68.38477 L 71.47028 65.27219 L 75.38332 62.15961 L 80.26003 61.05612 L 85.13675 59.95264 M 75.38332 62.15961 L 79.29636 59.04703 M 67.55724 68.38477 L 69.72948 63.88129 M 63.21279 77.39172 L 63.21279 72.39172 M 63.21279 102.3917 L 61.04057 97.88824 M 71.9017 120.4056 L 67.98866 117.2931 M 103.206 145.3063 L 103.206 140.3063 L 103.206 135.3063 L 105.3783 130.8028 L 107.5505 126.2993 M 103.206 135.3063 L 103.206 130.3063 L 103.206 125.3063 L 101.0338 120.8028 L 97.12076 117.6902 L 93.20772 114.5776 M 101.0338 120.8028 L 98.86157 116.2993 M 103.206 125.3063 L 103.206 120.3063 L 103.206 115.3063 L 103.206 110.3063 L 103.206 105.3063 L 101.0338 100.8028 L 98.86157 96.29932 M 103.206 105.3063 L 101.0338 100.8028 L 98.86157 96.29932 L 98.86157 91.29932 L 98.86157 86.29932 M 98.86157 96.29932 L 96.68935 91.79584 M 103.206 105.3063 L 105.3783 100.8028 L 107.5505 96.29932 L 111.4635 93.18674 L 115.3766 90.07416 L 120.2533 88.97067 L 125.13 87.86719 M 115.3766 90.07416 L 119.2896 86.96158 M 107.5505 96.29932 L 109.7227 91.79584 M 103.206 105.3063 L 105.3783 100.8028 L 107.5505 96.29932 L 111.4635 93.18674 L 115.3766 90.07416 M 107.5505 96.29932 L 109.7227 91.79584 L 111.8949 87.29236 L 114.0672 82.78888 L 116.2394 78.2854 L 120.1524 75.17282 L 124.0655 72.06024 M 116.2394 78.2854 L 120.1524 75.17282 L 122.3246 70.66934 L 124.4969 66.16586 M 120.1524 75.17282 L 124.0655 72.06024 M 116.2394 78.2854 L 116.2394 73.2854 L 116.2394 68.2854 L 114.0672 63.78192 L 111.8949 59.27844 M 116.2394 68.2854 L 114.0672 63.78192 L 111.8949 59.27844 L 109.7227 54.77496 L 105.8097 51.66238 L 100.933 50.5589 L 96.05623 49.45541 M 105.8097 51.66238 L 101.8966 48.5498 M 109.7227 54.77496 L 107.5505 50.27148 M 116.2394 68.2854 L 116.2394 63.2854 M 116.2394 78.2854 L 118.4116 73.78192 M 103.206 105.3063 L 105.3783 100.8028 L 107.5505 96.29932 L 109.7227 91.79584 L 109.7227 86.79584 L 109.7227 81.79584 L 111.8949 77.29236 L 114.0672 72.78888 M 109.7227 81.79584 L 107.5505 77.29236 L 103.6374 74.17978 L 99.7244 71.0672 M 107.5505 77.29236 L 105.3783 72.78888 M 109.7227 81.79584 L 109.7227 76.79584 M 109.7227 91.79584 L 111.8949 87.29236 L 114.0672 82.78888 L 116.2394 78.2854 L 120.1524 75.17282 L 124.0655 72.06024 M 116.2394 78.2854 L 118.4116 73.78192 L 120.5838 69.27844 L 122.7561 64.77496 L 124.9283 60.27148 L 128.8413 57.15891 L 132.7544 54.04633 M 124.9283 60.27148 L 128.8413 57.15891 L 131.0135 52.65543 L 133.1858 48.15195 M 128.8413 57.15891 L 132.7544 54.04633 M 124.9283 60.27148 L 124.9283 55.27148 L 124.9283 50.27148 L 122.7561 45.76801 L 118.843 42.65543 L 114.93 39.54285 M 122.7561 45.76801 L 120.5838 41.26453 M 124.9283 50.27148 L 124.9283 45.27148 M 124.9283 60.27148 L 124.9283 55.27148 L 122.7561 50.76801 L 120.5838 46.26453 M 124.9283 55.27148 L 124.9283 50.27148 L 124.9283 45.27148 L 124.9283 40.27148 L 124.9283 35.27148 L 122.7561 30.76801 L 120.5838 26.26453 M 124.9283 35.27148 L 122.7561 30.76801 L 120.5838 26.26453 M 124.9283 35.27148 L 127.1005 30.76801 L 129.2727 26.26453 L 133.1858 23.15198 L 137.0988 20.03943 L 141.9755 18.93591 L 146.8522 17.8324 M 137.0988 20.03943 L 141.0119 16.92688 M 129.2727 26.26453 L 131.445 21.76105 M 124.9283 35.27148 L 124.9283 30.27148 M 124.9283 60.27148 L 128.8413 57.15891 L 132.7544 54.04633 L 136.6674 50.93375 L 140.5804 47.82117 L 142.7527 43.31769 L 144.9249 38.81421 M 140.5804 47.82117 L 145.4572 46.71768 L 150.3339 45.6142 M 140.5804 47.82117 L 145.4572 46.71768 L 150.3339 45.6142 L 155.2106 44.51071 L 159.1236 41.39813 L 161.2958 36.89465 L 163.4681 32.39117 M 159.1236 41.39813 L 163.0367 38.28555 M 155.2106 44.51071 L 160.0873 43.40723 M 140.5804 47.82117 L 145.4572 46.71768 L 150.3339 45.6142 L 155.2106 44.51071 L 159.1236 41.39813 L 161.2958 36.89465 L 163.4681 32.39117 M 159.1236 41.39813 L 163.0367 38.28555 M 155.2106 44.51071 L 160.0873 43.40723 L 164.964 42.30374 L 169.8407 41.20026 L 174.7174 40.09677 L 178.6305 36.98419 L 182.5435 33.87164 M 174.7174 40.09677 L 178.6305 36.98419 L 182.5435 33.87164 L 187.4202 32.76813 L 192.2969 31.66461 M 182.5435 33.87164 L 186.4565 30.75909 M 174.7174 40.09677 L 179.5893 41.22153 L 184.4611 42.34628 L 189.333 43.47104 L 193.2324 46.60065 L 197.1318 49.73026 M 189.333 43.47104 L 193.2324 46.60065 L 197.1318 49.73026 L 201.0312 52.85986 L 205.9031 53.98462 L 210.7749 55.10938 M 201.0312 52.85986 L 203.1838 57.3728 L 205.3363 61.88574 L 205.3145 66.88568 L 205.2927 71.88562 M 205.3363 61.88574 L 207.4889 66.39868 M 201.0312 52.85986 L 204.9307 55.98947 M 189.333 43.47104 L 194.2048 44.59579 M 174.7174 40.09677 L 179.5941 38.99329 M 140.5804 47.82117 L 144.4935 44.70859 M 124.9283 60.27148 L 127.1005 55.76801 M 103.206 105.3063 L 103.206 100.3063 M 103.206 145.3063 L 101.0338 140.8028 M 133.6172 208.355 L 135.7894 203.8515 L 137.9616 199.348 L 137.9616 194.348 L 135.7894 189.8445 L 133.6172 185.3411 M 137.9616 194.348 L 137.9616 189.348 M 137.9616 199.348 L 140.1339 194.8445 L 140.1339 189.8445 L 140.1339 184.8445 M 140.1339 194.8445 L 142.3061 190.3411 L 144.4783 185.8376 L 146.6505 181.3341 L 148.8228 176.8306 L 148.8228 171.8306 L 148.8228 166.8306 M 148.8228 176.8306 L 152.7358 173.718 L 157.6125 172.6146 L 162.4892 171.5111 M 152.7358 173.718 L 157.6125 172.6146 L 162.4892 171.5111 L 167.3659 170.4076 L 171.279 167.295 L 173.4512 162.7915 L 175.6234 158.2881 M 171.279 167.295 L 175.192 164.1824 M 167.3659 170.4076 L 172.2426 169.3041 M 152.7358 173.718 L 156.6488 170.6055 M 148.8228 176.8306 L 150.995 172.3271 L 153.1672 167.8237 L 155.3394 163.3202 L 157.5117 158.8167 L 157.5117 153.8167 L 157.5117 148.8167 M 157.5117 158.8167 L 159.6839 154.3132 L 161.8561 149.8098 L 164.0284 145.3063 L 166.2006 140.8028 L 166.2006 135.8028 L 166.2006 130.8028 L 168.3728 126.2993 L 170.545 121.7958 M 166.2006 130.8028 L 166.2006 125.8028 M 166.2006 140.8028 L 166.2006 135.8028 L 166.2006 130.8028 L 166.2006 125.8028 L 168.3728 121.2993 L 172.2858 118.1867 L 176.1989 115.0742 M 168.3728 121.2993 L 170.545 116.7958 M 166.2006 125.8028 L 166.2006 120.8028 L 166.2006 115.8028 L 164.0284 111.2993 L 161.8561 106.7958 M 166.2006 115.8028 L 164.0284 111.2993 L 161.8561 106.7958 L 159.6839 102.2924 L 155.7709 99.17978 L 150.8941 98.07629 L 146.0174 96.97281 M 155.7709 99.17978 L 151.8578 96.0672 M 159.6839 102.2924 L 157.5117 97.78888 M 166.2006 115.8028 L 164.0284 111.2993 L 161.8561 106.7958 L 159.6839 102.2924 L 155.7709 99.17978 L 150.8941 98.07629 L 146.0174 96.97281 M 155.7709 99.17978 L 151.8578 96.0672 M 159.6839 102.2924 L 157.5117 97.78888 L 153.5986 94.6763 L 149.6856 91.56372 M 157.5117 97.78888 L 155.3394 93.2854 L 153.1672 88.78192 L 150.995 84.27844 L 150.995 79.27844 L 150.995 74.27844 M 150.995 84.27844 L 150.995 79.27844 L 148.8228 74.77496 L 146.6505 70.27148 M 150.995 79.27844 L 150.995 74.27844 M 150.995 84.27844 L 147.082 81.16586 L 143.1689 78.05328 L 138.2922 76.9498 L 133.4155 75.84631 M 143.1689 78.05328 L 138.2922 76.9498 L 133.4155 75.84631 L 128.5388 74.74283 L 123.6669 75.86758 L 119.7675 78.99719 L 115.8681 82.1268 M 123.6669 75.86758 L 118.7951 76.99234 M 128.5388 74.74283 L 123.6621 73.63934 M 143.1689 78.05328 L 139.2559 74.9407 M 150.995 84.27844 L 148.8228 79.77496 M 166.2006 115.8028 L 164.0284 111.2993 L 164.0284 106.2993 L 164.0284 101.2993 M 164.0284 111.2993 L 164.0284 106.2993 L 164.0284 101.2993 L 164.0284 96.29932 L 161.8561 91.79584 L 157.9431 88.68326 L 154.03 85.57068 M 161.8561 91.79584 L 159.6839 87.29236 M 164.0284 96.29932 L 164.0284 91.29932 M 164.0284 111.2993 L 161.8561 106.7958 M 166.2006 115.8028 L 166.2006 110.8028 M 166.2006 140.8028 L 168.3728 136.2993 L 170.545 131.7958 L 172.7173 127.2924 L 174.8895 122.7889 L 177.0617 118.2854 L 180.9747 115.1728 L 184.8878 112.0602 M 177.0617 118.2854 L 177.0617 113.2854 L 174.8895 108.7819 L 172.7173 104.2784 M 177.0617 113.2854 L 177.0617 108.2854 M 177.0617 118.2854 L 177.0617 113.2854 L 177.0617 108.2854 L 177.0617 103.2854 L 174.8895 98.78192 L 172.7173 94.27844 M 177.0617 103.2854 L 179.2339 98.78192 L 181.4062 94.27844 L 185.3192 91.16586 L 189.2322 88.05328 M 181.4062 94.27844 L 183.5784 89.77496 M 177.0617 103.2854 L 177.0617 98.2854 M 177.0617 118.2854 L 180.9747 115.1728 L 183.147 110.6693 L 185.3192 106.1659 M 180.9747 115.1728 L 184.8878 112.0602 L 188.8008 108.9477 L 193.6776 107.8442 L 198.5543 106.7407 M 188.8008 108.9477 L 193.6776 107.8442 L 198.5543 106.7407 L 203.431 105.6372 L 207.344 102.5246 L 211.257 99.41205 M 203.431 105.6372 L 208.3028 106.762 L 213.1747 107.8867 L 217.0741 111.0163 L 220.9735 114.1459 M 213.1747 107.8867 L 218.0465 109.0115 M 203.431 105.6372 L 208.3077 104.5337 M 188.8008 108.9477 L 192.7139 105.8351 M 177.0617 118.2854 L 180.9747 115.1728 L 183.147 110.6693 L 185.3192 106.1659 M 180.9747 115.1728 L 184.8878 112.0602 L 188.8008 108.9477 L 192.7139 105.8351 L 196.6269 102.7225 L 201.5036 101.619 L 206.3755 102.7438 L 211.2473 103.8685 M 201.5036 101.619 L 206.3755 102.7438 L 211.2522 101.6403 L 216.1289 100.5368 M 206.3755 102.7438 L 211.2473 103.8685 M 201.5036 101.619 L 206.3803 100.5155 M 196.6269 102.7225 L 200.5399 99.60992 L 205.4167 98.50644 L 209.3297 95.39386 L 213.2427 92.28128 M 205.4167 98.50644 L 210.2934 97.40295 M 200.5399 99.60992 L 204.453 96.49734 L 206.6252 91.99387 L 208.7974 87.49039 M 204.453 96.49734 L 208.366 93.38477 L 212.2791 90.27219 L 216.1921 87.15961 L 220.1052 84.04703 L 222.2774 79.54355 L 224.4496 75.04007 M 220.1052 84.04703 L 224.0182 80.93445 L 227.9312 77.82187 L 231.8443 74.70929 L 235.7573 71.59671 L 240.634 70.49323 L 245.5107 69.38974 M 235.7573 71.59671 L 240.634 70.49323 L 244.5471 67.38065 L 248.4601 64.26807 M 240.634 70.49323 L 245.5107 69.38974 M 235.7573 71.59671 L 237.9295 67.09323 L 240.1018 62.58975 L 240.1018 57.58975 L 237.9295 53.08627 L 235.7573 48.58279 M 240.1018 57.58975 L 240.1018 52.58975 M 240.1018 62.58975 L 242.274 58.08627 M 235.7573 71.59671 L 237.9295 67.09323 L 237.9295 62.09323 L 237.9295 57.09323 M 237.9295 67.09323 L 240.1018 62.58975 L 242.274 58.08627 L 244.4462 53.58279 L 246.6184 49.07932 L 246.6184 44.07932 L 246.6184 39.07932 M 246.6184 49.07932 L 246.6184 44.07932 L 246.6184 39.07932 M 246.6184 49.07932 L 250.5315 45.96674 L 254.4445 42.85416 L 259.3212 41.75067 L 264.1979 40.64719 L 269.0698 41.77194 L 273.9417 42.8967 M 264.1979 40.64719 L 269.0746 39.5437 M 254.4445 42.85416 L 258.3575 39.74158 M 246.6184 49.07932 L 248.7907 44.57584 M 235.7573 71.59671 L 240.634 70.49323 L 245.5107 69.38974 L 250.3874 68.28625 L 255.2641 67.18277 L 259.1772 64.07019 L 263.0902 60.95761 M 255.2641 67.18277 L 260.136 68.30753 L 265.0078 69.43228 M 255.2641 67.18277 L 260.136 68.30753 L 265.0078 69.43228 L 269.8797 70.55704 L 274.7564 69.45355 L 278.6694 66.34097 L 282.5825 63.22839 M 274.7564 69.45355 L 279.6331 68.35007 M 269.8797 70.55704 L 274.7516 71.68179 M 255.2641 67.18277 L 260.136 68.30753 L 265.0078 69.43228 L 269.8797 70.55704 L 274.7564 69.45355 L 278.6694 66.34097 L 282.5825 63.22839 M 274.7564 69.45355 L 279.6331 68.35007 M 269.8797 70.55704 L 274.7516 71.68179 L 279.6234 72.80655 L 284.4953 73.9313 L 289.3671 75.05606 L 294.2438 73.95258 L 299.1205 72.84909 M 289.3671 75.05606 L 294.2438 73.95258 L 299.1205 72.84909 L 303.9924 73.97385 L 308.8643 75.0986 M 299.1205 72.84909 L 303.9973 71.74561 M 289.3671 75.05606 L 293.2665 78.18567 L 297.166 81.31528 L 301.0654 84.44489 L 303.218 88.95782 L 305.3705 93.47076 M 301.0654 84.44489 L 303.218 88.95782 L 305.3705 93.47076 L 307.5231 97.9837 L 311.4225 101.1133 L 315.322 104.2429 M 307.5231 97.9837 L 307.5013 102.9836 L 307.4794 107.9836 L 305.2876 112.4775 L 303.0958 116.9715 M 307.4794 107.9836 L 307.4576 112.9835 M 307.5231 97.9837 L 309.6757 102.4966 M 301.0654 84.44489 L 304.9648 87.57449 M 289.3671 75.05606 L 294.239 76.18082 M 255.2641 67.18277 L 260.1409 66.07928 M 235.7573 71.59671 L 239.6703 68.48413 M 177.0617 118.2854 L 180.9747 115.1728 L 184.8878 112.0602 L 188.8008 108.9477 L 193.6776 107.8442 L 198.5494 108.9689 L 203.4212 110.0937 M 193.6776 107.8442 L 198.5543 106.7407 M 188.8008 108.9477 L 192.7139 105.8351 L 197.5906 104.7316 L 202.4673 103.6281 M 192.7139 105.8351 L 196.6269 102.7225 L 200.5399 99.60992 L 204.453 96.49734 L 208.366 93.38477 L 212.2791 90.27219 L 214.4513 85.76871 L 216.6235 81.26523 L 220.5366 78.15265 L 224.4496 75.04007 M 216.6235 81.26523 L 218.7957 76.76175 M 212.2791 90.27219 L 217.1558 89.1687 L 222.0325 88.06522 L 226.9043 89.18997 L 231.7762 90.31473 M 222.0325 88.06522 L 226.9092 86.96173 L 231.7859 85.85825 L 236.6626 84.75476 L 241.5393 83.65128 L 246.4112 84.77603 L 251.283 85.90079 M 241.5393 83.65128 L 246.4112 84.77603 L 251.2879 83.67255 L 256.1646 82.56906 M 246.4112 84.77603 L 251.283 85.90079 M 241.5393 83.65128 L 245.4524 80.5387 L 249.3654 77.42612 L 251.5376 72.92264 L 253.7099 68.41916 M 249.3654 77.42612 L 251.5376 72.92264 L 253.7099 68.41916 L 255.8821 63.91568 L 255.8821 58.91568 L 253.7099 54.4122 L 251.5376 49.90872 M 255.8821 58.91568 L 255.8821 53.91568 M 255.8821 63.91568 L 258.0543 59.4122 M 249.3654 77.42612 L 253.2784 74.31354 M 241.5393 83.65128 L 246.4112 84.77603 L 251.283 85.90079 L 256.1597 84.7973 L 260.0728 81.68472 L 263.9858 78.57214 M 256.1597 84.7973 L 261.0364 83.69382 M 251.283 85.90079 L 255.1824 89.0304 L 257.335 93.54333 L 259.4875 98.05627 M 255.1824 89.0304 L 259.0818 92.16 M 251.283 85.90079 L 256.1549 87.02554 M 241.5393 83.65128 L 246.416 82.54779 M 212.2791 90.27219 L 216.1921 87.15961 L 220.1052 84.04703 L 224.0182 80.93445 L 228.8949 79.83096 L 233.7716 78.72748 L 238.6435 79.85223 L 243.5153 80.97699 M 233.7716 78.72748 L 237.6846 75.6149 L 239.8569 71.11142 L 242.0291 66.60794 M 237.6846 75.6149 L 241.5977 72.50232 M 233.7716 78.72748 L 237.6846 75.6149 L 241.5977 72.50232 L 245.5107 69.38974 L 247.683 64.88626 L 249.8552 60.38278 M 245.5107 69.38974 L 250.3874 68.28625 L 255.2641 67.18277 L 260.136 68.30753 L 265.0078 69.43228 M 255.2641 67.18277 L 260.1409 66.07928 M 245.5107 69.38974 L 249.4238 66.27716 M 233.7716 78.72748 L 238.6483 77.62399 M 224.0182 80.93445 L 227.9312 77.82187 L 230.1035 73.31839 L 232.2757 68.81491 L 236.1887 65.70233 L 240.1018 62.58975 L 244.9785 61.48627 L 249.8552 60.38278 M 240.1018 62.58975 L 244.0148 59.47717 M 232.2757 68.81491 L 234.4479 64.31143 M 227.9312 77.82187 L 231.8443 74.70929 L 235.7573 71.59671 L 239.6703 68.48413 L 244.5471 67.38065 L 249.4238 66.27716 M 239.6703 68.48413 L 243.5834 65.37155 L 247.4964 62.25897 L 251.4095 59.14639 L 255.3225 56.03381 L 260.1992 54.93033 L 265.0759 53.82684 M 255.3225 56.03381 L 260.1992 54.93033 L 264.1122 51.81775 L 268.0253 48.70517 M 260.1992 54.93033 L 265.0759 53.82684 M 255.3225 56.03381 L 257.4948 51.53033 L 259.667 47.02686 L 259.667 42.02686 L 257.4948 37.52338 L 255.3225 33.0199 M 259.667 42.02686 L 259.667 37.02686 M 259.667 47.02686 L 261.8392 42.52338 M 255.3225 56.03381 L 257.4948 51.53033 L 257.4948 46.53033 L 257.4948 41.53033 M 257.4948 51.53033 L 259.667 47.02686 L 261.8392 42.52338 L 264.0114 38.0199 L 266.1837 33.51642 L 266.1837 28.51642 L 266.1837 23.51642 M 266.1837 33.51642 L 266.1837 28.51642 L 266.1837 23.51642 M 266.1837 33.51642 L 270.0967 30.40387 L 274.0097 27.29132 L 278.8864 26.18781 L 283.7631 25.08429 L 288.635 26.20905 L 293.5068 27.3338 M 283.7631 25.08429 L 288.6398 23.98077 M 274.0097 27.29132 L 277.9228 24.17877 M 266.1837 33.51642 L 268.3559 29.01294 M 255.3225 56.03381 L 257.4948 51.53033 L 259.667 47.02686 L 259.667 42.02686 L 257.4948 37.52338 L 255.3225 33.0199 M 259.667 42.02686 L 259.667 37.02686 M 259.667 47.02686 L 261.8392 42.52338 L 264.0114 38.0199 L 267.9244 34.90735 L 271.8375 31.7948 L 276.7142 30.69128 L 281.5909 29.58777 M 271.8375 31.7948 L 275.7505 28.68225 M 264.0114 38.0199 L 267.9244 34.90735 L 271.8375 31.7948 L 276.7142 30.69128 L 281.5909 29.58777 M 271.8375 31.7948 L 275.7505 28.68225 L 279.6636 25.5697 L 283.5766 22.45715 L 285.7488 17.95367 L 287.9211 13.4502 M 283.5766 22.45715 L 285.7488 17.95367 L 287.9211 13.4502 M 283.5766 22.45715 L 288.4533 21.35364 L 293.33 20.25012 L 298.2019 21.37488 L 303.0737 22.49963 L 306.9732 25.62927 L 310.8726 28.75891 M 303.0737 22.49963 L 307.9456 23.62439 M 293.33 20.25012 L 298.2067 19.14661 M 283.5766 22.45715 L 287.4897 19.3446 M 264.0114 38.0199 L 266.1837 33.51642 M 255.3225 56.03381 L 257.4948 51.53033 L 259.667 47.02686 L 261.8392 42.52338 L 264.0114 38.0199 L 264.0114 33.0199 L 264.0114 28.0199 M 264.0114 38.0199 L 267.9244 34.90735 L 271.8375 31.7948 M 264.0114 38.0199 L 267.9244 34.90735 L 271.8375 31.7948 L 275.7505 28.68225 L 277.9228 24.17877 L 277.9228 19.17877 L 277.9228 14.17877 M 277.9228 24.17877 L 280.095 19.67529 M 275.7505 28.68225 L 279.6636 25.5697 M 264.0114 38.0199 L 267.9244 34.90735 L 271.8375 31.7948 L 275.7505 28.68225 L 277.9228 24.17877 L 277.9228 19.17877 L 277.9228 14.17877 M 277.9228 24.17877 L 280.095 19.67529 M 275.7505 28.68225 L 279.6636 25.5697 L 283.5766 22.45715 L 287.4897 19.3446 L 291.4027 16.23206 L 293.5749 11.72858 L 295.7471 7.225098 M 291.4027 16.23206 L 293.5749 11.72858 L 295.7471 7.225098 L 299.6602 4.112549 L 303.5732 1 M 295.7471 7.225098 L 297.9194 2.721619 M 291.4027 16.23206 L 296.2794 15.12854 L 301.1561 14.02502 L 306.0328 12.92151 L 310.9047 14.04626 L 315.7766 15.17102 M 306.0328 12.92151 L 310.9047 14.04626 L 315.7766 15.17102 L 320.6484 16.29578 L 325.5251 15.19226 L 330.4018 14.08875 M 320.6484 16.29578 L 324.5478 19.42542 L 328.4473 22.55505 L 330.5998 27.06799 L 332.7524 31.58093 M 328.4473 22.55505 L 332.3467 25.68469 M 320.6484 16.29578 L 325.5203 17.42053 M 306.0328 12.92151 L 310.9095 11.81799 M 291.4027 16.23206 L 295.3157 13.11951 M 264.0114 38.0199 L 266.1837 33.51642 M 255.3225 56.03381 L 260.1992 54.93033 L 265.0759 53.82684 L 269.9526 52.72336 L 274.8245 53.84811 L 279.7012 52.74463 L 284.5779 51.64114 M 274.8245 53.84811 L 278.7239 56.97772 L 282.6234 60.10733 M 274.8245 53.84811 L 279.6964 54.97287 M 269.9526 52.72336 L 274.8293 51.61987 L 279.7061 50.51639 L 283.6191 47.40381 L 287.5321 44.29123 M 279.7061 50.51639 L 284.5828 49.4129 L 289.4595 48.30942 L 294.3362 47.20593 L 299.2129 46.10245 L 303.1259 42.98987 L 307.039 39.87729 M 299.2129 46.10245 L 303.1259 42.98987 L 307.039 39.87729 M 299.2129 46.10245 L 304.0847 47.2272 L 308.9566 48.35196 L 312.856 51.48157 L 316.7555 54.61118 M 308.9566 48.35196 L 313.8285 49.47672 M 299.2129 46.10245 L 304.0847 47.2272 L 308.9566 48.35196 L 313.8285 49.47672 L 318.7003 50.60147 L 322.5997 53.73108 L 326.4992 56.86069 M 318.7003 50.60147 L 323.577 49.49799 L 328.4537 48.3945 L 332.3668 45.28192 L 334.539 40.77844 L 336.7112 36.27496 M 332.3668 45.28192 L 336.2798 42.16934 M 328.4537 48.3945 L 333.3304 47.29102 M 318.7003 50.60147 L 323.5722 51.72623 M 299.2129 46.10245 L 304.0847 47.2272 L 308.9566 48.35196 L 312.856 51.48157 L 316.7555 54.61118 M 308.9566 48.35196 L 313.8285 49.47672 L 318.7003 50.60147 L 323.577 49.49799 L 327.4901 46.38541 L 331.4031 43.27283 M 323.577 49.49799 L 328.4537 48.3945 M 318.7003 50.60147 L 323.577 49.49799 L 327.4901 46.38541 L 331.4031 43.27283 M 323.577 49.49799 L 328.4537 48.3945 L 333.3304 47.29102 L 338.2072 46.18753 L 343.079 47.31229 L 347.9509 48.43704 M 338.2072 46.18753 L 342.1202 43.07495 L 346.0332 39.96237 L 348.2054 35.45886 L 348.2054 30.45886 L 348.2054 25.45886 M 348.2054 35.45886 L 350.3777 30.95538 M 346.0332 39.96237 L 349.9463 36.84979 M 338.2072 46.18753 L 343.0839 45.08405 M 318.7003 50.60147 L 323.5722 51.72623 M 299.2129 46.10245 L 304.0847 47.2272 L 308.9566 48.35196 L 312.856 51.48157 L 316.7555 54.61118 M 308.9566 48.35196 L 313.8285 49.47672 L 318.7003 50.60147 L 323.5722 51.72623 L 328.444 52.85098 L 333.3207 51.7475 L 337.2338 48.63492 L 341.1468 45.52234 M 333.3207 51.7475 L 337.2338 48.63492 L 341.1468 45.52234 L 346.0235 44.41885 L 350.9002 43.31537 M 341.1468 45.52234 L 345.0599 42.40976 M 333.3207 51.7475 L 338.1974 50.64401 M 328.444 52.85098 L 333.3159 53.97574 L 338.1877 55.10049 L 343.0596 56.22525 L 346.959 59.35486 L 350.8585 62.48447 M 343.0596 56.22525 L 347.9315 57.35001 L 352.8033 58.47476 L 357.6752 59.59952 L 362.547 60.72427 L 366.4465 63.85388 L 370.3459 66.98349 M 362.547 60.72427 L 366.4465 63.85388 L 371.3183 64.97864 L 376.1902 66.10339 M 366.4465 63.85388 L 370.3459 66.98349 M 362.547 60.72427 L 367.4237 59.62079 L 372.3004 58.5173 L 376.2135 55.40472 L 378.3857 50.90125 L 380.5579 46.39777 M 376.2135 55.40472 L 380.1265 52.29214 M 372.3004 58.5173 L 377.1772 57.41382 M 362.547 60.72427 L 367.4237 59.62079 L 371.3368 56.50821 L 375.2498 53.39563 M 367.4237 59.62079 L 372.3004 58.5173 L 377.1772 57.41382 L 382.0539 56.31033 L 386.9306 55.20685 L 390.8436 52.09427 L 394.7567 48.98169 M 386.9306 55.20685 L 390.8436 52.09427 L 394.7567 48.98169 M 386.9306 55.20685 L 391.8024 56.3316 L 396.6743 57.45636 L 400.5737 60.58597 L 404.4731 63.71558 L 406.6257 68.22852 L 408.7782 72.74146 M 404.4731 63.71558 L 408.3725 66.84518 M 396.6743 57.45636 L 401.5461 58.58112 M 386.9306 55.20685 L 391.8073 54.10336 M 362.547 60.72427 L 366.4465 63.85388 L 370.3459 66.98349 L 374.2453 70.1131 L 378.1447 73.24271 L 383.0166 74.36746 L 387.8885 75.49222 M 378.1447 73.24271 L 380.2973 77.75565 L 382.4499 82.26859 M 378.1447 73.24271 L 380.2973 77.75565 L 382.4499 82.26859 L 384.6024 86.78152 L 388.5018 89.91113 L 393.3737 91.03589 L 398.2455 92.16064 M 388.5018 89.91113 L 392.4012 93.04074 M 384.6024 86.78152 L 386.755 91.29446 M 378.1447 73.24271 L 380.2973 77.75565 L 382.4499 82.26859 L 384.6024 86.78152 L 388.5018 89.91113 L 393.3737 91.03589 L 398.2455 92.16064 M 388.5018 89.91113 L 392.4012 93.04074 M 384.6024 86.78152 L 386.755 91.29446 L 388.9075 95.8074 L 391.0601 100.3203 L 393.2126 104.8333 L 397.1121 107.9629 L 401.0115 111.0925 M 393.2126 104.8333 L 397.1121 107.9629 L 401.0115 111.0925 L 403.164 115.6054 L 405.3166 120.1184 M 401.0115 111.0925 L 404.9109 114.2221 M 393.2126 104.8333 L 393.1908 109.8332 L 393.169 114.8332 L 393.1472 119.8331 L 390.9553 124.3271 L 388.7635 128.821 M 393.1472 119.8331 L 390.9553 124.3271 L 388.7635 128.821 L 386.5716 133.315 L 386.5498 138.3149 L 386.528 143.3148 M 386.5716 133.315 L 382.645 136.4104 L 378.7184 139.5059 L 373.8369 140.5881 L 368.9554 141.6703 M 378.7184 139.5059 L 374.7918 142.6013 M 386.5716 133.315 L 384.3798 137.8089 M 393.1472 119.8331 L 393.1254 124.833 M 393.2126 104.8333 L 395.3652 109.3462 M 378.1447 73.24271 L 382.0442 76.37231 M 362.547 60.72427 L 367.4189 61.84903 M 299.2129 46.10245 L 304.0896 44.99896 M 255.3225 56.03381 L 259.2355 52.92123 M 177.0617 118.2854 L 179.2339 113.7819 M 133.6172 208.355 L 133.6172 203.355 " />
  </g>
</svg>
