<?xml version="1.0" encoding="UTF-8" standalone="no"?>
<!DOCTYPE svg PUBLIC "-//W3C//DTD SVG 1.1//EN"
    "http://www.w3.org/Graphics/SVG/1.1/DTD/svg11.dtd">
<svg xmlns="http://www.w3.org/2000/svg" width="164" height="464">
  <desc>hogeweg_a LSystem</desc>
  <rect width="100%" height="100%" style="fill: white"/>
  <g stroke="black" fill="none" stroke-width="1">
    <path d="M 94.08904 462.7305 L 94.08904 457.7305 L 94.08904 452.7305 L 94.08904 447.7305 L 94.08904 442.7305 L 92.17562 438.1111 L 90.2622 433.4917 L 88.34879 428.8723 L 86.43536 424.2529 M 94.08904 442.7305 L 94.08904 437.7305 L 96.00246 433.1111 L 97.91589 428.4917 L 99.8293 423.8723 L 101.7427 419.2529 M 94.08904 437.7305 L 92.17562 433.1111 L 90.2622 428.4917 L 88.34879 423.8723 L 86.43536 419.2529 L 86.43536 414.2529 L 86.43536 409.2529 M 86.43536 419.2529 L 84.52194 414.6335 L 82.60852 410.0141 L 80.6951 405.3947 L 78.78168 400.7753 M 94.08904 437.7305 L 94.08904 432.7305 L 94.08904 427.7305 L 96.00246 423.1111 L 96.00246 418.1111 L 96.00246 413.1111 L 94.08904 408.4917 L 92.17562 403.8723 M 96.00246 413.1111 L 96.00246 408.1111 M 96.00246 423.1111 L 97.91589 418.4917 L 99.8293 413.8723 L 101.7427 409.2529 L 101.7427 404.2529 L 101.7427 399.2529 M 101.7427 409.2529 L 103.6561 404.6335 L 105.5696 400.0141 L 107.483 395.3947 M 94.08904 427.7305 L 92.17562 423.1111 L 92.17562 418.1111 L 92.17562 413.1111 L 92.17562 408.1111 M 92.17562 423.1111 L 88.64009 419.5756 L 85.10456 416.0401 L 80.48516 414.1266 L 75.86576 412.2132 L 71.24636 410.2998 L 66.62696 408.3864 M 85.10456 416.0401 L 81.56903 412.5045 M 92.17562 423.1111 L 90.2622 418.4917 L 88.34879 413.8723 L 84.81326 410.3368 L 81.27773 406.8013 L 77.74218 403.2657 L 74.20665 399.7302 M 88.34879 413.8723 L 88.34879 408.8723 L 88.34879 403.8723 L 88.34879 398.8723 L 86.43536 394.2529 L 84.52194 389.6335 M 88.34879 398.8723 L 88.34879 393.8723 L 88.34879 388.8723 L 88.34879 383.8723 M 88.34879 413.8723 L 86.43536 409.2529 L 84.52194 404.6335 L 82.60852 400.0141 L 79.07299 396.4786 L 75.53746 392.9431 M 82.60852 400.0141 L 80.6951 395.3947 L 78.78168 390.7753 L 75.24615 387.2398 L 71.71062 383.7043 L 69.7972 379.0848 L 69.7972 374.0848 L 69.7972 369.0848 M 69.7972 379.0848 L 67.88378 374.4655 M 71.71062 383.7043 L 68.17509 380.1687 L 66.26167 375.5493 L 64.34825 370.9299 M 68.17509 380.1687 L 64.63956 376.6332 L 61.10402 373.0977 L 57.56849 369.5621 L 54.03296 366.0266 M 78.78168 390.7753 L 76.86826 386.1559 M 94.08904 427.7305 L 94.08904 422.7305 L 94.08904 417.7305 L 92.17562 413.1111 L 92.17562 408.1111 L 92.17562 403.1111 L 92.17562 398.1111 L 94.08904 393.4917 L 96.00246 388.8723 M 92.17562 398.1111 L 92.17562 393.1111 M 92.17562 413.1111 L 90.2622 408.4917 L 88.34879 403.8723 L 84.81326 400.3368 L 81.27773 396.8013 M 88.34879 403.8723 L 86.43536 399.2529 L 86.43536 394.2529 L 86.43536 389.2529 M 86.43536 399.2529 L 84.52194 394.6335 L 82.60852 390.0141 L 80.6951 385.3947 L 78.78168 380.7753 M 94.08904 417.7305 L 96.00246 413.1111 L 96.00246 408.1111 L 96.00246 403.1111 L 94.08904 398.4917 L 92.17562 393.8723 M 96.00246 403.1111 L 96.00246 398.1111 M 96.00246 413.1111 L 99.53799 409.5756 L 103.0735 406.0401 L 104.9869 401.4207 L 106.9004 396.8013 M 103.0735 406.0401 L 107.6929 404.1266 L 111.2285 400.5911 L 114.764 397.0556 M 107.6929 404.1266 L 112.3123 402.2132 L 116.9317 400.2998 L 121.5511 398.3864 M 103.0735 406.0401 L 106.6091 402.5045 M 96.00246 413.1111 L 97.91589 408.4917 L 99.8293 403.8723 L 103.3648 400.3368 L 105.2783 395.7174 L 107.1917 391.098 M 103.3648 400.3368 L 106.9004 396.8013 L 110.4359 393.2657 L 113.9714 389.7302 M 99.8293 403.8723 L 99.8293 398.8723 L 99.8293 393.8723 L 97.91589 389.2529 L 96.00246 384.6335 M 99.8293 393.8723 L 99.8293 388.8723 L 101.7427 384.2529 L 103.6561 379.6335 M 99.8293 388.8723 L 99.8293 383.8723 L 99.8293 378.8723 L 99.8293 373.8723 L 99.8293 368.8723 M 99.8293 403.8723 L 101.7427 399.2529 L 103.6561 394.6335 L 103.6561 389.6335 L 103.6561 384.6335 M 103.6561 394.6335 L 105.5696 390.0141 L 109.1051 386.4786 L 112.6406 382.9431 M 105.5696 390.0141 L 107.483 385.3947 L 109.3964 380.7753 L 111.3098 376.1559 L 114.8454 372.6204 L 118.3809 369.0848 L 120.2943 364.4655 L 120.2943 359.4655 L 120.2943 354.4655 L 120.2943 349.4655 M 120.2943 364.4655 L 122.2077 359.846 M 118.3809 369.0848 L 121.9164 365.5493 L 123.8298 360.9299 L 125.7433 356.3105 L 127.6567 351.6911 M 121.9164 365.5493 L 125.4519 362.0138 L 128.9875 358.4782 L 132.523 354.9427 L 136.0585 351.4072 L 139.5941 347.8716 M 111.3098 376.1559 L 113.2232 371.5365 M 94.08904 417.7305 L 92.17562 413.1111 L 92.17562 408.1111 L 92.17562 403.1111 L 92.17562 398.1111 L 94.08904 393.4917 L 96.00246 388.8723 M 92.17562 398.1111 L 92.17562 393.1111 M 92.17562 413.1111 L 90.2622 408.4917 L 88.34879 403.8723 L 84.81326 400.3368 L 81.27773 396.8013 L 77.74218 393.2657 L 73.12278 391.3523 L 68.50338 389.4389 M 77.74218 393.2657 L 74.20665 389.7302 M 88.34879 403.8723 L 86.43536 399.2529 L 82.89983 395.7174 L 79.3643 392.1819 M 86.43536 399.2529 L 86.43536 394.2529 L 86.43536 389.2529 L 86.43536 384.2529 M 86.43536 399.2529 L 86.43536 394.2529 L 86.43536 389.2529 L 84.52194 384.6335 L 82.60852 380.0141 M 86.43536 389.2529 L 86.43536 384.2529 L 88.34879 379.6335 L 90.2622 375.0141 M 86.43536 384.2529 L 86.43536 379.2529 M 86.43536 399.2529 L 84.52194 394.6335 L 82.60852 390.0141 L 79.07299 386.4786 L 75.53746 382.9431 L 72.00193 379.4075 L 68.4664 375.872 M 82.60852 390.0141 L 79.07299 386.4786 L 75.53746 382.9431 L 72.00193 379.4075 L 70.08852 374.7881 L 68.17509 370.1687 M 72.00193 379.4075 L 68.4664 375.872 L 63.847 373.9586 L 59.2276 372.0451 L 54.60821 370.1317 M 68.4664 375.872 L 64.93087 372.3364 M 82.60852 390.0141 L 82.60852 385.0141 L 82.60852 380.0141 L 82.60852 375.0141 L 82.60852 370.0141 L 80.6951 365.3947 L 78.78168 360.7753 M 82.60852 370.0141 L 82.60852 365.0141 L 84.52194 360.3947 L 86.43536 355.7753 M 82.60852 365.0141 L 80.6951 360.3947 L 78.78168 355.7753 L 76.86826 351.1559 L 74.95484 346.5365 M 82.60852 365.0141 L 82.60852 360.0141 L 82.60852 355.0141 L 82.60852 350.0141 L 80.6951 345.3947 L 78.78168 340.7753 M 82.60852 350.0141 L 82.60852 345.0141 L 82.60852 340.0141 L 82.60852 335.0141 M 82.60852 390.0141 L 80.6951 385.3947 L 78.78168 380.7753 L 78.78168 375.7753 L 76.86826 371.1559 L 74.95484 366.5365 M 78.78168 375.7753 L 78.78168 370.7753 L 78.78168 365.7753 L 78.78168 360.7753 M 78.78168 380.7753 L 76.86826 376.1559 L 74.95484 371.5365 L 71.41931 368.001 L 69.50589 363.3816 L 67.59247 358.7622 M 71.41931 368.001 L 67.88378 364.4655 L 64.34825 360.9299 L 60.81272 357.3944 L 57.27718 353.8588 M 74.95484 371.5365 L 73.04142 366.9171 L 71.12801 362.2977 L 67.59247 358.7622 L 64.05695 355.2267 M 71.12801 362.2977 L 71.12801 357.2977 L 69.21458 352.6783 L 67.30116 348.0589 L 65.38774 343.4395 M 71.12801 357.2977 L 71.12801 352.2977 L 71.12801 347.2977 L 71.12801 342.2977 L 71.12801 337.2977 L 71.12801 332.2977 M 71.12801 362.2977 L 69.21458 357.6783 L 69.21458 352.6783 L 69.21458 347.6783 M 69.21458 357.6783 L 67.30116 353.0589 L 63.76563 349.5234 L 60.2301 345.9879 L 56.69457 342.4523 M 67.30116 353.0589 L 65.38774 348.4395 L 63.47432 343.8201 L 63.47432 338.8201 L 63.47432 333.8201 L 63.47432 328.8201 M 63.47432 343.8201 L 61.5609 339.2007 L 59.64748 334.5813 L 57.73406 329.9619 L 55.82064 325.3425 L 53.90722 320.7231 L 51.9938 316.1037 M 94.08904 417.7305 L 94.08904 412.7305 L 94.08904 407.7305 L 92.17562 403.1111 L 90.2622 398.4917 M 94.08904 407.7305 L 96.00246 403.1111 L 96.00246 398.1111 L 96.00246 393.1111 L 96.00246 388.1111 L 94.08904 383.4917 L 92.17562 378.8723 L 90.2622 374.2529 M 96.00246 388.1111 L 96.00246 383.1111 M 96.00246 403.1111 L 97.91589 398.4917 L 99.8293 393.8723 L 101.7427 389.2529 L 105.2783 385.7174 L 108.8138 382.1819 M 101.7427 389.2529 L 103.6561 384.6335 L 103.6561 379.6335 L 103.6561 374.6335 L 103.6561 369.6335 M 103.6561 384.6335 L 105.5696 380.0141 L 107.483 375.3947 L 109.3964 370.7753 L 111.3098 366.1559 L 113.2232 361.5365 M 94.08904 407.7305 L 94.08904 402.7305 L 96.00246 398.1111 L 97.91589 393.4917 M 94.08904 402.7305 L 94.08904 397.7305 L 92.17562 393.1111 L 90.2622 388.4917 L 88.34879 383.8723 M 94.08904 397.7305 L 92.17562 393.1111 L 90.2622 388.4917 L 90.2622 383.4917 L 90.2622 378.4917 L 90.2622 373.4917 L 88.34879 368.8723 L 86.43536 364.2529 M 90.2622 373.4917 L 92.17562 368.8723 L 94.08904 364.2529 L 96.00246 359.6335 M 90.2622 373.4917 L 90.2622 368.4917 M 90.2622 388.4917 L 88.34879 383.8723 L 86.43536 379.2529 L 84.52194 374.6335 L 80.98641 371.098 L 77.45088 367.5624 L 73.91535 364.0269 M 84.52194 374.6335 L 82.60852 370.0141 L 80.6951 365.3947 L 80.6951 360.3947 L 80.6951 355.3947 L 80.6951 350.3947 M 80.6951 365.3947 L 78.78168 360.7753 L 76.86826 356.1559 L 74.95484 351.5365 L 73.04142 346.9171 L 71.12801 342.2977 L 69.21458 337.6783 M 94.08904 397.7305 L 96.00246 393.1111 L 99.53799 389.5756 L 103.0735 386.04 L 106.6091 382.5045 L 108.5225 377.8851 L 110.4359 373.2657 M 106.6091 382.5045 L 111.2285 380.5911 L 115.8479 378.6777 L 120.4673 376.7643 M 106.6091 382.5045 L 110.1446 378.969 M 96.00246 393.1111 L 96.00246 388.1111 L 96.00246 383.1111 L 94.08904 378.4917 L 92.17562 373.8723 M 96.00246 383.1111 L 97.91589 378.4917 L 101.4514 374.9562 L 104.9869 371.4207 M 97.91589 378.4917 L 97.91589 373.4917 L 97.91589 368.4917 L 97.91589 363.4917 L 97.91589 358.4917 M 97.91589 378.4917 L 99.8293 373.8723 L 101.7427 369.2529 L 103.6561 364.6335 L 107.1917 361.098 L 109.1051 356.4786 L 111.0185 351.8592 M 107.1917 361.098 L 110.7272 357.5624 L 114.2627 354.0269 L 117.7983 350.4914 M 103.6561 364.6335 L 105.5696 360.0141 M 96.00246 383.1111 L 96.00246 378.1111 L 97.91589 373.4917 L 99.8293 368.8723 M 96.00246 378.1111 L 94.08904 373.4917 L 92.17562 368.8723 L 90.2622 364.2529 L 88.34879 359.6335 M 96.00246 378.1111 L 96.00246 373.1111 L 96.00246 368.1111 L 96.00246 363.1111 L 97.91589 358.4917 L 97.91589 353.4917 L 97.91589 348.4917 M 97.91589 358.4917 L 99.8293 353.8723 L 101.7427 349.2529 L 103.6561 344.6335 M 96.00246 363.1111 L 94.08904 358.4917 L 90.55351 354.9562 L 85.93411 353.0428 L 81.31471 351.1294 M 90.55351 354.9562 L 87.01798 351.4207 M 94.08904 358.4917 L 94.08904 353.4917 L 92.17562 348.8723 L 90.2622 344.2529 M 94.08904 353.4917 L 96.00246 348.8723 L 97.91589 344.2529 L 99.8293 339.6335 M 94.08904 353.4917 L 94.08904 348.4917 M 94.08904 358.4917 L 92.17562 353.8723 L 88.64009 350.3368 L 85.10456 346.8012 M 92.17562 353.8723 L 92.17562 348.8723 L 92.17562 343.8723 L 92.17562 338.8723 M 92.17562 353.8723 L 90.2622 349.2529 L 88.34879 344.6335 L 86.43536 340.0141 L 84.52194 335.3947 L 82.60852 330.7753 L 80.6951 326.1559 M 96.00246 363.1111 L 96.00246 358.1111 M 96.00246 393.1111 L 97.91589 388.4917 L 99.8293 383.8723 L 99.8293 378.8723 L 101.7427 374.2529 L 103.6561 369.6335 L 105.5696 365.0141 M 99.8293 378.8723 L 99.8293 373.8723 L 99.8293 368.8723 L 99.8293 363.8723 L 99.8293 358.8723 L 99.8293 353.8723 L 99.8293 348.8723 M 99.8293 383.8723 L 101.7427 379.2529 L 101.7427 374.2529 L 101.7427 369.2529 M 101.7427 379.2529 L 103.6561 374.6335 L 107.1917 371.098 L 110.7272 367.5624 M 103.6561 374.6335 L 107.1917 371.098 L 109.1051 366.4786 L 111.0185 361.8592 L 111.0185 356.8592 L 111.0185 351.8592 M 111.0185 361.8592 L 112.9319 357.2398 M 107.1917 371.098 L 110.7272 367.5624 L 114.2627 364.0269 L 117.7983 360.4914 L 119.7117 355.872 L 121.6251 351.2526 M 117.7983 360.4914 L 121.3338 356.9558 L 124.8693 353.4203 L 128.4048 349.8848 M 103.6561 374.6335 L 105.5696 370.0141 L 105.5696 365.0141 L 105.5696 360.0141 L 105.5696 355.0141 M 105.5696 370.0141 L 107.483 365.3947 L 109.3964 360.7753 L 112.9319 357.2398 L 116.4675 353.7043 L 120.003 350.1687 M 109.3964 360.7753 L 109.3964 355.7753 L 111.3098 351.1559 L 111.3098 346.1559 L 111.3098 341.1559 M 111.3098 351.1559 L 113.2232 346.5365 L 116.7588 343.001 L 120.2943 339.4655 M 113.2232 346.5365 L 115.1367 341.9171 M 109.3964 355.7753 L 109.3964 350.7753 L 109.3964 345.7753 L 107.483 341.1559 L 105.5696 336.5365 M 109.3964 345.7753 L 109.3964 340.7753 L 111.3098 336.1559 L 113.2232 331.5365 M 109.3964 340.7753 L 109.3964 335.7753 L 109.3964 330.7753 L 109.3964 325.7753 L 109.3964 320.7753 M 109.3964 360.7753 L 111.3098 356.1559 L 113.2232 351.5365 L 113.2232 346.5365 L 113.2232 341.5365 L 113.2232 336.5365 L 113.2232 331.5365 M 113.2232 351.5365 L 115.1367 346.9171 L 117.0501 342.2977 L 120.5856 338.7622 L 122.499 334.1428 L 124.4125 329.5234 M 120.5856 338.7622 L 124.1211 335.2267 L 127.6567 331.6911 L 131.1922 328.1556 M 117.0501 342.2977 L 118.9635 337.6783 L 120.8769 333.0589 L 120.8769 328.0589 L 122.7903 323.4395 L 124.7038 318.8201 M 120.8769 328.0589 L 120.8769 323.0589 L 120.8769 318.0589 L 120.8769 313.0589 L 120.8769 308.0589 M 120.8769 333.0589 L 122.7903 328.4395 L 122.7903 323.4395 L 122.7903 318.4395 M 122.7903 328.4395 L 124.7038 323.8201 L 128.2393 320.2846 L 131.7748 316.7491 M 124.7038 323.8201 L 126.6172 319.2007 L 126.6172 314.2007 L 126.6172 309.2007 L 126.6172 304.2007 M 126.6172 319.2007 L 128.5306 314.5813 L 130.444 309.9619 L 132.3574 305.3425 L 134.2709 300.7231 L 136.1843 296.1037 M 94.08904 397.7305 L 92.17562 393.1111 L 90.2622 388.4917 L 90.2622 383.4917 L 90.2622 378.4917 L 90.2622 373.4917 M 90.2622 388.4917 L 88.34879 383.8723 L 86.43536 379.2529 L 82.89983 375.7174 L 79.3643 372.1819 L 75.82877 368.6463 L 72.29324 365.1108 M 86.43536 379.2529 L 86.43536 374.2529 L 88.34879 369.6335 L 90.2622 365.0141 M 86.43536 374.2529 L 84.52194 369.6335 L 82.60852 365.0141 L 80.6951 360.3947 L 78.78168 355.7753 L 78.78168 350.7753 L 78.78168 345.7753 M 78.78168 355.7753 L 75.24615 352.2398 L 71.71062 348.7043 L 68.17509 345.1687 L 64.63956 341.6332 M 78.78168 355.7753 L 76.86826 351.1559 M 86.43536 374.2529 L 86.43536 369.2529 L 84.52194 364.6335 L 82.60852 360.0141 L 80.6951 355.3947 M 86.43536 369.2529 L 86.43536 364.2529 L 86.43536 359.2529 L 88.34879 354.6335 L 90.2622 350.0141 L 92.17562 345.3947 M 86.43536 359.2529 L 86.43536 354.2529 L 86.43536 349.2529 L 84.52194 344.6335 L 82.60852 340.0141 L 80.6951 335.3947 L 78.78168 330.7753 M 86.43536 349.2529 L 86.43536 344.2529 L 86.43536 339.2529 L 86.43536 334.2529 L 84.52194 329.6335 L 82.60852 325.0141 M 86.43536 334.2529 L 86.43536 329.2529 L 86.43536 324.2529 L 86.43536 319.2529 M 86.43536 379.2529 L 84.52194 374.6335 L 82.60852 370.0141 L 82.60852 365.0141 L 80.6951 360.3947 L 78.78168 355.7753 M 82.60852 365.0141 L 82.60852 360.0141 L 82.60852 355.0141 L 82.60852 350.0141 M 82.60852 370.0141 L 80.6951 365.3947 L 78.78168 360.7753 L 75.24615 357.2398 L 73.33273 352.6204 L 71.41931 348.001 M 75.24615 357.2398 L 71.71062 353.7043 L 68.17509 350.1687 L 64.63956 346.6332 L 61.10402 343.0977 M 78.78168 360.7753 L 75.24615 357.2398 L 71.71062 353.7043 L 69.7972 349.0848 L 66.26167 345.5493 L 62.72614 342.0138 L 58.10674 340.1003 L 53.48734 338.187 M 62.72614 342.0138 L 59.19061 338.4782 M 69.7972 349.0848 L 67.88378 344.4655 L 65.97037 339.846 L 62.43483 336.3105 L 58.8993 332.775 M 65.97037 339.846 L 65.97037 334.846 L 64.05695 330.2267 L 62.14352 325.6072 M 65.97037 334.846 L 65.97037 329.846 L 65.97037 324.846 L 65.97037 319.846 M 65.97037 339.846 L 64.05695 335.2267 M 71.71062 353.7043 L 68.17509 350.1687 L 63.55569 348.2553 L 58.93629 346.3419 M 68.17509 350.1687 L 66.26167 345.5493 L 64.34825 340.9299 L 62.43483 336.3105 M 68.17509 350.1687 L 64.63956 346.6332 L 61.10402 343.0977 L 56.48462 341.1842 L 51.86522 339.2708 L 47.24582 337.3574 L 42.62642 335.444 M 61.10402 343.0977 L 57.56849 339.5621 L 54.03296 336.0266 L 52.11954 331.4072 L 48.584 327.8716 L 45.04847 324.3361 M 52.11954 331.4072 L 50.20612 326.7878 L 48.2927 322.1684 L 46.37928 317.549 M 54.03296 336.0266 L 50.49743 332.491 L 46.9619 328.9555 L 42.3425 327.0421 L 37.7231 325.1287 M 46.9619 328.9555 L 43.42637 325.42 L 41.51295 320.8006 L 39.59953 316.1812 M 43.42637 325.42 L 39.89084 321.8844 L 36.35531 318.3489 L 32.81978 314.8134 L 29.28426 311.2778 M 78.78168 360.7753 L 76.86826 356.1559 L 74.95484 351.5365 L 74.95484 346.5365 L 73.04142 341.9171 L 71.12801 337.2977 L 69.21458 332.6783 M 74.95484 346.5365 L 74.95484 341.5365 L 74.95484 336.5365 L 74.95484 331.5365 L 74.95484 326.5365 L 74.95484 321.5365 M 74.95484 351.5365 L 73.04142 346.9171 L 71.12801 342.2977 L 67.59247 338.7622 L 65.67905 334.1428 L 63.76563 329.5234 L 61.85221 324.904 M 67.59247 338.7622 L 64.05695 335.2267 L 60.52141 331.6911 L 56.98588 328.1556 L 53.45035 324.6201 L 49.91482 321.0845 L 46.37929 317.549 M 71.12801 342.2977 L 71.12801 337.2977 L 73.04142 332.6783 L 74.95484 328.0589 L 76.86826 323.4395 M 71.12801 337.2977 L 69.21458 332.6783 L 69.21458 327.6783 L 67.30116 323.0589 L 65.38774 318.4395 M 69.21458 327.6783 L 69.21458 322.6783 L 71.12801 318.0589 L 73.04142 313.4395 M 69.21458 322.6783 L 69.21458 317.6783 M 69.21458 332.6783 L 67.30116 328.0589 L 63.76563 324.5234 L 60.2301 320.9879 M 67.30116 328.0589 L 65.38774 323.4395 L 65.38774 318.4395 L 65.38774 313.4395 M 65.38774 323.4395 L 61.85221 319.904 L 59.93879 315.2846 L 58.02537 310.6652 M 61.85221 319.904 L 58.31667 316.3685 L 54.78114 312.8329 L 51.24561 309.2974 L 47.71008 305.7618 M 65.38774 323.4395 L 63.47432 318.8201 M 71.12801 337.2977 L 71.12801 332.2977 L 71.12801 327.2977 L 69.21458 322.6783 L 67.30116 318.0589 L 65.38774 313.4395 L 63.47432 308.8201 M 71.12801 327.2977 L 71.12801 322.2977 L 71.12801 317.2977 L 73.04142 312.6783 L 73.04142 307.6783 L 73.04142 302.6783 M 73.04142 312.6783 L 74.95484 308.0589 L 76.86826 303.4395 L 78.78168 298.8201 M 71.12801 317.2977 L 71.12801 312.2977 L 71.12801 307.2977 L 69.21458 302.6783 L 69.21458 297.6783 L 69.21458 292.6783 M 69.21458 302.6783 L 67.30116 298.0589 L 65.38774 293.4395 L 63.47432 288.8201 L 61.5609 284.2007 M 71.12801 307.2977 L 71.12801 302.2977 L 69.21458 297.6783 L 67.30116 293.0589 M 71.12801 302.2977 L 71.12801 297.2977 L 73.04142 292.6783 L 74.95484 288.0589 M 71.12801 297.2977 L 71.12801 292.2977 L 69.21458 287.6783 L 67.30116 283.0589 L 65.38774 278.4395 M 71.12801 292.2977 L 71.12801 287.2977 L 71.12801 282.2977 L 71.12801 277.2977 L 71.12801 272.2977 L 71.12801 267.2977 M 71.12801 342.2977 L 69.21458 337.6783 L 67.30116 333.0589 L 63.76563 329.5234 L 60.2301 325.9879 M 67.30116 333.0589 L 67.30116 328.0589 L 65.38774 323.4395 L 63.47432 318.8201 L 59.93879 315.2846 L 56.40326 311.7491 M 63.47432 318.8201 L 61.5609 314.2007 M 67.30116 328.0589 L 67.30116 323.0589 L 67.30116 318.0589 L 67.30116 313.0589 L 65.38774 308.4395 L 63.47432 303.8201 M 67.30116 313.0589 L 67.30116 308.0589 L 67.30116 303.0589 L 67.30116 298.0589 M 67.30116 333.0589 L 65.38774 328.4395 L 65.38774 323.4395 L 65.38774 318.4395 M 65.38774 328.4395 L 63.47432 323.8201 L 59.93879 320.2846 L 56.40326 316.7491 L 52.86773 313.2135 M 63.47432 323.8201 L 59.93879 320.2846 L 58.02537 315.6652 L 54.48983 312.1296 L 50.9543 308.5941 M 58.02537 315.6652 L 56.11195 311.0458 L 56.11195 306.0458 L 56.11195 301.0458 M 56.11195 311.0458 L 54.19853 306.4264 M 59.93879 320.2846 L 56.40326 316.7491 L 52.86773 313.2135 L 48.24833 311.3001 L 43.62893 309.3867 M 52.86773 313.2135 L 49.3322 309.678 L 47.41878 305.0586 L 45.50536 300.4392 M 49.3322 309.678 L 45.79667 306.1425 L 42.26114 302.6069 L 38.72561 299.0714 L 35.19008 295.5358 M 63.47432 323.8201 L 61.5609 319.2007 L 59.64748 314.5813 L 59.64748 309.5813 L 59.64748 304.5813 L 59.64748 299.5813 M 59.64748 314.5813 L 57.73406 309.9619 L 55.82064 305.3425 L 52.28511 301.807 L 48.74958 298.2715 L 45.21405 294.7359 L 41.67852 291.2004 M 55.82064 305.3425 L 55.82064 300.3425 L 53.90722 295.7231 L 53.90722 290.7231 L 53.90722 285.7231 M 53.90722 295.7231 L 51.9938 291.1037 L 48.45826 287.5682 L 44.92273 284.0327 L 41.3872 280.4971 M 51.9938 291.1037 L 50.08038 286.4843 M 55.82064 300.3425 L 55.82064 295.3425 L 53.90722 290.7231 L 51.9938 286.1037 M 55.82064 295.3425 L 55.82064 290.3425 L 57.73406 285.7231 L 59.64748 281.1037 M 55.82064 290.3425 L 55.82064 285.3425 L 53.90722 280.7231 L 51.9938 276.1037 L 50.08038 271.4843 M 55.82064 285.3425 L 55.82064 280.3425 L 55.82064 275.3425 L 55.82064 270.3425 L 55.82064 265.3425 L 55.82064 260.3425 M 55.82064 305.3425 L 53.90722 300.7231 L 51.9938 296.1037 L 51.9938 291.1037 L 50.08038 286.4843 L 48.16696 281.8649 M 51.9938 291.1037 L 51.9938 286.1037 L 51.9938 281.1037 L 51.9938 276.1037 M 51.9938 296.1037 L 50.08038 291.4843 L 48.16696 286.8649 L 44.63143 283.3294 L 42.71801 278.71 L 40.80459 274.0906 M 44.63143 283.3294 L 41.0959 279.7939 L 37.56036 276.2583 L 34.02483 272.7228 L 30.4893 269.1873 M 48.16696 286.8649 L 46.25354 282.2455 L 44.34012 277.6261 L 40.80459 274.0906 L 37.26906 270.5551 M 44.34012 277.6261 L 44.34012 272.6261 L 42.4267 268.0067 L 40.51328 263.3873 L 38.59986 258.7679 M 44.34012 272.6261 L 44.34012 267.6261 L 44.34012 262.6261 L 44.34012 257.6261 L 44.34012 252.6261 L 44.34012 247.6261 M 44.34012 277.6261 L 42.4267 273.0067 L 42.4267 268.0067 L 42.4267 263.0067 M 42.4267 273.0067 L 40.51328 268.3873 L 36.97775 264.8518 L 33.44222 261.3163 L 29.90668 257.7807 M 40.51328 268.3873 L 38.59986 263.7679 L 36.68644 259.1485 L 36.68644 254.1485 L 36.68644 249.1485 L 36.68644 244.1485 M 36.68644 259.1485 L 34.77302 254.5291 L 32.8596 249.9097 L 30.94618 245.2903 L 29.03278 240.6709 L 27.11936 236.0515 L 25.20596 231.4321 M 94.08904 397.7305 L 94.08904 392.7305 L 94.08904 387.7305 L 96.00246 383.1111 L 97.91589 378.4917 L 99.8293 373.8723 M 94.08904 387.7305 L 94.08904 382.7305 L 94.08904 377.7305 L 92.17562 373.1111 L 90.2622 368.4917 L 88.34879 363.8723 L 86.43536 359.2529 M 94.08904 377.7305 L 96.00246 373.1111 L 99.53799 369.5756 L 103.0735 366.04 M 96.00246 373.1111 L 96.00246 368.1111 L 96.00246 363.1111 L 96.00246 358.1111 L 96.00246 353.1111 L 97.91589 348.4917 L 99.8293 343.8723 M 96.00246 353.1111 L 94.08904 348.4917 L 92.17562 343.8723 L 90.2622 339.2529 L 88.34879 334.6335 M 96.00246 353.1111 L 96.00246 348.1111 M 96.00246 373.1111 L 97.91589 368.4917 L 97.91589 363.4917 L 97.91589 358.4917 L 97.91589 353.4917 M 97.91589 368.4917 L 99.8293 363.8723 L 101.7427 359.2529 L 105.2783 355.7174 L 108.8138 352.1819 L 112.3493 348.6463 M 101.7427 359.2529 L 103.6561 354.6335 L 105.5696 350.0141 L 105.5696 345.0141 L 105.5696 340.0141 L 105.5696 335.0141 L 105.5696 330.0141 M 105.5696 350.0141 L 107.483 345.3947 L 109.3964 340.7753 L 111.3098 336.1559 L 111.3098 331.1559 L 111.3098 326.1559 M 111.3098 336.1559 L 113.2232 331.5365 L 115.1367 326.9171 L 117.0501 322.2977 M 94.08904 377.7305 L 94.08904 372.7305 L 94.08904 367.7305 L 96.00246 363.1111 L 96.00246 358.1111 L 96.00246 353.1111 M 96.00246 363.1111 L 97.91589 358.4917 L 99.8293 353.8723 L 101.7427 349.2529 M 94.08904 367.7305 L 94.08904 362.7305 L 94.08904 357.7305 L 92.17562 353.1111 L 92.17562 348.1111 L 92.17562 343.1111 M 92.17562 353.1111 L 90.2622 348.4917 L 88.34879 343.8723 L 86.43536 339.2529 L 84.52194 334.6335 M 94.08904 357.7305 L 92.17562 353.1111 L 90.2622 348.4917 L 90.2622 343.4917 L 88.34879 338.8723 L 86.43536 334.2529 L 82.89983 330.7174 L 79.3643 327.1819 M 86.43536 334.2529 L 84.52194 329.6335 M 90.2622 343.4917 L 90.2622 338.4917 L 90.2622 333.4917 L 88.34879 328.8723 L 86.43536 324.2529 M 90.2622 333.4917 L 92.17562 328.8723 L 92.17562 323.8723 L 92.17562 318.8723 M 92.17562 328.8723 L 94.08904 324.2529 L 96.00246 319.6335 L 97.91589 315.0141 M 90.2622 333.4917 L 90.2622 328.4917 M 90.2622 348.4917 L 88.34879 343.8723 L 84.81326 340.3368 L 81.27773 336.8012 M 88.34879 343.8723 L 88.34879 338.8723 L 88.34879 333.8723 L 88.34879 328.8723 M 88.34879 343.8723 L 86.43536 339.2529 L 84.52194 334.6335 L 80.98641 331.098 L 77.45088 327.5624 L 73.91535 324.0269 L 70.37982 320.4914 M 84.52194 334.6335 L 82.60852 330.0141 L 80.6951 325.3947 L 80.6951 320.3947 L 78.78168 315.7753 L 76.86826 311.1559 M 80.6951 320.3947 L 80.6951 315.3947 L 80.6951 310.3947 L 80.6951 305.3947 M 80.6951 325.3947 L 78.78168 320.7753 L 76.86826 316.1559 L 73.33273 312.6204 L 69.7972 309.0848 M 76.86826 316.1559 L 74.95484 311.5365 L 74.95484 306.5365 L 74.95484 301.5365 M 74.95484 311.5365 L 73.04142 306.9171 L 71.12801 302.2977 L 69.21458 297.6783 L 67.30116 293.0589 M 94.08904 357.7305 L 94.08904 352.7305 L 94.08904 347.7305 L 96.00246 343.1111 L 96.00246 338.1111 L 96.00246 333.1111 L 96.00246 328.1111 M 96.00246 343.1111 L 97.91589 338.4917 L 99.8293 333.8723 L 101.7427 329.2529 L 103.6561 324.6335 L 105.5696 320.0141 M 94.08904 347.7305 L 94.08904 342.7305 L 94.08904 337.7305 L 92.17562 333.1111 L 92.17562 328.1111 L 92.17562 323.1111 L 92.17562 318.1111 M 92.17562 333.1111 L 90.2622 328.4917 L 88.34879 323.8723 L 86.43536 319.2529 L 84.52194 314.6335 L 82.60852 310.0141 L 80.6951 305.3947 M 94.08904 337.7305 L 96.00246 333.1111 L 99.53799 329.5756 L 103.0735 326.04 L 106.6091 322.5045 M 96.00246 333.1111 L 96.00246 328.1111 L 97.91589 323.4917 L 97.91589 318.4917 L 97.91589 313.4917 M 97.91589 323.4917 L 99.8293 318.8723 L 103.3648 315.3368 L 106.9004 311.8013 M 99.8293 318.8723 L 101.7427 314.2529 M 96.00246 328.1111 L 96.00246 323.1111 L 94.08904 318.4917 L 92.17562 313.8723 M 96.00246 323.1111 L 96.00246 318.1111 L 97.91589 313.4917 L 99.8293 308.8723 M 96.00246 318.1111 L 94.08904 313.4917 L 94.08904 308.4917 L 94.08904 303.4917 M 94.08904 313.4917 L 92.17562 308.8723 L 90.2622 304.2529 L 88.34879 299.6335 L 86.43536 295.0141 M 96.00246 318.1111 L 96.00246 313.1111 M 96.00246 333.1111 L 97.91589 328.4917 L 99.8293 323.8723 L 99.8293 318.8723 L 99.8293 313.8723 L 99.8293 308.8723 L 99.8293 303.8723 M 99.8293 323.8723 L 101.7427 319.2529 L 103.6561 314.6335 L 107.1917 311.098 L 109.1051 306.4786 L 111.0185 301.8592 M 107.1917 311.098 L 110.7272 307.5624 L 114.2627 304.0269 L 117.7983 300.4914 M 103.6561 314.6335 L 105.5696 310.0141 L 107.483 305.3947 L 107.483 300.3947 L 109.3964 295.7753 L 111.3098 291.1559 M 107.483 300.3947 L 107.483 295.3947 L 107.483 290.3947 L 107.483 285.3947 L 107.483 280.3947 M 107.483 305.3947 L 109.3964 300.7753 L 109.3964 295.7753 L 109.3964 290.7753 M 109.3964 300.7753 L 111.3098 296.1559 L 114.8454 292.6204 L 118.3809 289.0848 M 111.3098 296.1559 L 113.2232 291.5365 L 113.2232 286.5365 L 113.2232 281.5365 L 113.2232 276.5365 M 113.2232 291.5365 L 115.1367 286.9171 L 117.0501 282.2977 L 118.9635 277.6783 L 120.8769 273.0589 L 122.7903 268.4395 M 94.08904 337.7305 L 94.08904 332.7305 L 94.08904 327.7305 L 92.17562 323.1111 L 90.2622 318.4917 M 94.08904 327.7305 L 96.00246 323.1111 L 96.00246 318.1111 L 96.00246 313.1111 L 94.08904 308.4917 L 92.17562 303.8723 M 96.00246 313.1111 L 96.00246 308.1111 M 96.00246 323.1111 L 97.91589 318.4917 L 99.8293 313.8723 L 101.7427 309.2529 L 101.7427 304.2529 L 101.7427 299.2529 M 101.7427 309.2529 L 103.6561 304.6335 L 105.5696 300.0141 L 107.483 295.3947 M 94.08904 327.7305 L 94.08904 322.7305 L 96.00246 318.1111 L 97.91589 313.4917 M 94.08904 322.7305 L 94.08904 317.7305 L 92.17562 313.1111 L 90.2622 308.4917 L 88.34879 303.8723 M 94.08904 317.7305 L 92.17562 313.1111 L 92.17562 308.1111 L 90.2622 303.4917 L 88.34879 298.8723 M 92.17562 308.1111 L 92.17562 303.1111 L 94.08904 298.4917 L 96.00246 293.8723 M 92.17562 303.1111 L 92.17562 298.1111 M 92.17562 313.1111 L 90.2622 308.4917 L 88.34879 303.8723 L 84.81326 300.3368 L 81.27773 296.8013 M 88.34879 303.8723 L 86.43536 299.2529 L 86.43536 294.2529 L 86.43536 289.2529 M 86.43536 299.2529 L 84.52194 294.6335 L 82.60852 290.0141 L 80.6951 285.3947 L 78.78168 280.7753 M 94.08904 317.7305 L 94.08904 312.7305 L 94.08904 307.7305 L 96.00246 303.1111 L 97.91589 298.4917 L 99.8293 293.8723 M 94.08904 307.7305 L 94.08904 302.7305 L 94.08904 297.7305 L 92.17562 293.1111 L 90.2622 288.4917 L 88.34879 283.8723 L 86.43536 279.2529 M 94.08904 297.7305 L 96.00246 293.1111 L 96.00246 288.1111 L 97.91589 283.4917 L 99.8293 278.8723 M 96.00246 288.1111 L 96.00246 283.1111 L 94.08904 278.4917 L 92.17562 273.8723 L 90.2622 269.2529 M 96.00246 283.1111 L 96.00246 278.1111 M 96.00246 293.1111 L 97.91589 288.4917 L 97.91589 283.4917 L 97.91589 278.4917 M 97.91589 288.4917 L 99.8293 283.8723 L 103.3648 280.3368 L 106.9004 276.8013 M 99.8293 283.8723 L 101.7427 279.2529 L 101.7427 274.2529 L 101.7427 269.2529 L 101.7427 264.2529 M 101.7427 279.2529 L 103.6561 274.6335 L 105.5696 270.0141 L 107.483 265.3947 L 109.3964 260.7753 L 111.3098 256.1559 M 94.08904 297.7305 L 94.08904 292.7305 L 94.08904 287.7305 L 96.00246 283.1111 L 96.00246 278.1111 L 96.00246 273.1111 M 96.00246 283.1111 L 97.91589 278.4917 L 99.8293 273.8723 L 101.7427 269.2529 M 94.08904 287.7305 L 94.08904 282.7305 L 94.08904 277.7305 L 92.17562 273.1111 L 92.17562 268.1111 L 92.17562 263.1111 M 92.17562 273.1111 L 90.2622 268.4917 L 88.34879 263.8723 L 86.43536 259.2529 L 84.52194 254.6335 M 94.08904 277.7305 L 94.08904 272.7305 L 94.08904 267.7305 L 92.17562 263.1111 L 90.2622 258.4917 M 94.08904 267.7305 L 96.00246 263.1111 L 96.00246 258.1111 L 96.00246 253.1111 L 96.00246 248.1111 M 96.00246 263.1111 L 97.91589 258.4917 L 99.8293 253.8723 L 101.7427 249.2529 L 103.6561 244.6335 L 105.5696 240.0141 M 94.08904 267.7305 L 94.08904 262.7305 L 96.00246 258.1111 L 97.91589 253.4917 M 94.08904 262.7305 L 94.08904 257.7305 L 92.17562 253.1111 L 90.2622 248.4917 L 88.34879 243.8723 M 94.08904 257.7305 L 94.08904 252.7305 L 94.08904 247.7305 L 96.00246 243.1111 L 97.91589 238.4917 L 99.8293 233.8723 M 94.08904 247.7305 L 94.08904 242.7305 L 94.08904 237.7305 L 94.08904 232.7305 L 94.08904 227.7305 L 94.08904 222.7305 L 96.00246 218.1111 L 97.91589 213.4917 L 97.91589 208.4917 L 99.8293 203.8723 L 101.7427 199.253 M 97.91589 208.4917 L 96.00246 203.8723 L 94.08904 199.253 L 92.17562 194.6336 L 90.2622 190.0142 M 97.91589 208.4917 L 97.91589 203.4917 M 97.91589 213.4917 L 99.8293 208.8723 L 99.8293 203.8723 L 99.8293 198.8723 L 99.8293 193.8723 L 99.8293 188.8723 M 99.8293 208.8723 L 103.3648 205.3368 L 106.9004 201.8013 L 110.4359 198.2657 L 112.3493 193.6464 L 114.2627 189.027 M 110.4359 198.2657 L 113.9714 194.7302 L 117.507 191.1947 L 121.0425 187.6592 M 99.8293 208.8723 L 101.7427 204.2529 L 103.6561 199.6335 L 103.6561 194.6335 L 105.5696 190.0142 L 107.483 185.3948 L 109.3964 180.7754 M 103.6561 194.6335 L 103.6561 189.6335 L 103.6561 184.6335 L 103.6561 179.6335 L 103.6561 174.6335 L 103.6561 169.6335 L 103.6561 164.6335 M 103.6561 199.6335 L 103.6561 194.6335 L 103.6561 189.6335 L 103.6561 184.6335 L 103.6561 179.6335 L 101.7427 175.0142 L 99.8293 170.3948 L 97.91589 165.7754 M 103.6561 179.6335 L 105.5696 175.0142 L 107.483 170.3948 L 109.3964 165.7754 L 111.3098 161.156 L 113.2232 156.5366 M 103.6561 179.6335 L 103.6561 174.6335 L 103.6561 169.6335 L 103.6561 164.6335 L 103.6561 159.6335 L 101.7427 155.0142 L 101.7427 150.0142 L 101.7427 145.0142 M 101.7427 155.0142 L 99.8293 150.3948 L 97.91589 145.7754 L 96.00246 141.156 L 94.08904 136.5366 M 103.6561 159.6335 L 103.6561 154.6335 M 103.6561 199.6335 L 103.6561 194.6335 L 103.6561 189.6335 L 103.6561 184.6335 L 103.6561 179.6335 L 101.7427 175.0142 L 99.8293 170.3948 L 97.91589 165.7754 M 103.6561 179.6335 L 105.5696 175.0142 L 107.483 170.3948 L 109.3964 165.7754 L 111.3098 161.156 L 113.2232 156.5366 M 103.6561 179.6335 L 103.6561 174.6335 L 103.6561 169.6335 L 103.6561 164.6335 L 103.6561 159.6335 L 101.7427 155.0142 L 101.7427 150.0142 L 101.7427 145.0142 M 101.7427 155.0142 L 99.8293 150.3948 L 97.91589 145.7754 L 96.00246 141.156 L 94.08904 136.5366 M 103.6561 159.6335 L 105.5696 155.0142 L 109.1051 151.4786 L 112.6406 147.9431 M 105.5696 155.0142 L 107.483 150.3948 L 107.483 145.3948 L 107.483 140.3948 L 107.483 135.3948 M 107.483 150.3948 L 107.483 145.3948 L 107.483 140.3948 L 109.3964 135.7754 L 111.3098 131.156 L 113.2232 126.5366 M 107.483 140.3948 L 105.5696 135.7754 L 103.6561 131.156 L 101.7427 126.5366 L 99.8293 121.9172 L 97.91589 117.2979 L 96.00246 112.6785 M 107.483 140.3948 L 107.483 135.3948 M 107.483 150.3948 L 109.3964 145.7754 L 112.9319 142.2399 L 116.4675 138.7043 L 120.003 135.1688 M 109.3964 145.7754 L 109.3964 140.7754 L 109.3964 135.7754 L 109.3964 130.7754 L 109.3964 125.7754 L 109.3964 120.7754 L 109.3964 115.7754 M 109.3964 145.7754 L 111.3098 141.156 L 111.3098 136.156 L 111.3098 131.156 M 111.3098 141.156 L 113.2232 136.5366 L 116.7588 133.0011 L 120.2943 129.4656 M 113.2232 136.5366 L 115.1367 131.9172 L 115.1367 126.9172 L 115.1367 121.9172 L 115.1367 116.9172 M 115.1367 131.9172 L 117.0501 127.2979 L 118.9635 122.6785 L 120.8769 118.0591 L 122.7903 113.4397 L 124.7038 108.8203 M 103.6561 159.6335 L 101.7427 155.0142 L 101.7427 150.0142 L 103.6561 145.3948 L 105.5696 140.7754 M 101.7427 150.0142 L 101.7427 145.0142 M 101.7427 155.0142 L 99.8293 150.3948 L 96.29377 146.8593 L 92.75824 143.3237 L 89.22271 139.7882 L 85.68718 136.2527 M 99.8293 150.3948 L 97.91589 145.7754 L 94.38036 142.2399 L 90.84483 138.7043 M 97.91589 145.7754 L 97.91589 140.7754 L 97.91589 135.7754 L 97.91589 130.7754 L 97.91589 125.7754 M 97.91589 145.7754 L 94.38036 142.2399 L 90.84483 138.7043 L 87.3093 135.1688 L 83.77377 131.6333 L 81.86034 127.0139 L 79.94692 122.3945 M 83.77377 131.6333 L 80.23824 128.0978 L 76.70271 124.5623 L 73.16718 121.0267 L 69.63165 117.4912 M 97.91589 145.7754 L 96.00246 141.156 L 96.00246 136.156 L 96.00246 131.156 M 96.00246 141.156 L 94.08904 136.5366 L 90.55351 133.0011 L 87.01798 129.4656 L 83.48245 125.9301 M 94.08904 136.5366 L 94.08904 131.5366 L 92.17562 126.9172 L 90.2622 122.2979 L 86.72667 118.7623 L 83.19115 115.2268 M 90.2622 122.2979 L 88.34879 117.6785 M 94.08904 131.5366 L 94.08904 126.5366 L 94.08904 121.5366 L 94.08904 116.5366 L 92.17562 111.9172 L 90.2622 107.2979 M 94.08904 116.5366 L 94.08904 111.5366 L 94.08904 106.5366 L 94.08904 101.5366 M 94.08904 136.5366 L 92.17562 131.9172 L 90.2622 127.2979 L 90.2622 122.2979 L 90.2622 117.2979 L 90.2622 112.2979 M 90.2622 127.2979 L 88.34879 122.6785 L 86.43536 118.0591 L 82.89983 114.5236 L 79.3643 110.988 L 75.82877 107.4525 L 72.29324 103.917 M 86.43536 118.0591 L 84.52194 113.4397 L 82.60852 108.8203 L 82.60852 103.8203 L 80.6951 99.20093 L 78.78168 94.58154 M 82.60852 103.8203 L 82.60852 98.82031 L 82.60852 93.82031 L 82.60852 88.82031 M 82.60852 108.8203 L 80.6951 104.2009 L 78.78168 99.58154 L 75.24615 96.04602 L 71.71062 92.5105 M 78.78168 99.58154 L 76.86826 94.96216 L 76.86826 89.96216 L 76.86826 84.96216 M 76.86826 94.96216 L 74.95484 90.34277 L 73.04142 85.72339 L 71.12801 81.104 L 69.21458 76.48462 M 103.6561 159.6335 L 103.6561 154.6335 M 103.6561 199.6335 L 105.5696 195.0142 L 107.483 190.3948 L 111.0185 186.8593 L 112.9319 182.2399 L 114.8454 177.6205 L 114.8454 172.6205 L 114.8454 167.6205 M 114.8454 177.6205 L 116.7588 173.0011 M 111.0185 186.8593 L 114.554 183.3237 L 118.0896 179.7882 L 121.6251 176.2527 L 123.5385 171.6333 L 125.4519 167.0139 M 121.6251 176.2527 L 125.1606 172.7172 L 128.6962 169.1816 L 132.2317 165.6461 M 107.483 190.3948 L 111.0185 186.8593 L 114.554 183.3237 L 118.0896 179.7882 L 121.6251 176.2527 L 123.5385 171.6333 L 125.4519 167.0139 M 121.6251 176.2527 L 126.2445 174.3393 L 130.8639 172.4258 L 135.4833 170.5124 M 121.6251 176.2527 L 123.5385 171.6333 L 125.4519 167.0139 L 127.3654 162.3945 L 129.2788 157.7751 L 131.1922 153.1558 L 133.1056 148.5364 M 121.6251 176.2527 L 125.1606 172.7172 L 128.6962 169.1816 L 132.2317 165.6461 L 135.7672 162.1106 L 139.3027 158.5751 L 143.9221 156.6617 L 147.4577 153.1261 L 149.3711 148.5067 L 151.2845 143.8874 M 147.4577 153.1261 L 150.9932 149.5906 M 143.9221 156.6617 L 148.5415 154.7482 L 152.0771 151.2127 L 155.6126 147.6772 M 148.5415 154.7482 L 153.1609 152.8348 L 157.7803 150.9214 L 162.3997 149.008 M 139.3027 158.5751 L 142.8383 155.0396 M 107.483 190.3948 L 107.483 185.3948 L 105.5696 180.7754 L 103.6561 176.156 L 101.7427 171.5366 M 107.483 185.3948 L 107.483 180.3948 L 109.3964 175.7754 L 111.3098 171.156 L 113.2232 166.5366 M 107.483 180.3948 L 107.483 175.3948 L 105.5696 170.7754 L 103.6561 166.156 M 107.483 175.3948 L 105.5696 170.7754 L 103.6561 166.156 L 101.7427 161.5366 L 99.8293 156.9172 M 107.483 175.3948 L 107.483 170.3948 L 109.3964 165.7754 L 111.3098 161.156 M 107.483 170.3948 L 109.3964 165.7754 L 111.3098 161.156 L 113.2232 156.5366 L 115.1367 151.9172 M 107.483 170.3948 L 107.483 165.3948 L 105.5696 160.7754 L 103.6561 156.156 L 101.7427 151.5366 M 107.483 165.3948 L 105.5696 160.7754 L 103.6561 156.156 L 101.7427 151.5366 L 98.20719 148.0011 L 94.67166 144.4656 M 101.7427 151.5366 L 99.8293 146.9172 M 107.483 165.3948 L 109.3964 160.7754 L 111.3098 156.156 L 113.2232 151.5366 L 115.1367 146.9172 L 117.0501 142.2979 L 117.0501 137.2979 L 117.0501 132.2979 L 117.0501 127.2979 M 117.0501 142.2979 L 118.9635 137.6785 L 120.8769 133.0591 L 122.7903 128.4397 L 124.7038 123.8203 L 126.6172 119.2009 M 107.483 165.3948 L 107.483 160.3948 L 107.483 155.3948 L 109.3964 150.7754 L 111.3098 146.156 L 113.2232 141.5366 M 107.483 155.3948 L 107.483 150.3948 L 107.483 145.3948 L 105.5696 140.7754 L 103.6561 136.156 L 101.7427 131.5366 L 99.8293 126.9172 M 107.483 145.3948 L 107.483 140.3948 L 107.483 135.3948 L 109.3964 130.7754 L 109.3964 125.7754 L 109.3964 120.7754 M 109.3964 130.7754 L 111.3098 126.156 L 113.2232 121.5366 L 115.1367 116.9172 M 107.483 135.3948 L 107.483 130.3948 L 107.483 125.3948 L 105.5696 120.7754 L 103.6561 116.156 M 107.483 125.3948 L 107.483 120.3948 L 109.3964 115.7754 L 111.3098 111.156 M 107.483 120.3948 L 107.483 115.3948 L 107.483 110.3948 L 107.483 105.3948 L 107.483 100.3948 M 107.483 190.3948 L 109.3964 185.7754 L 109.3964 180.7754 L 109.3964 175.7754 M 109.3964 185.7754 L 111.3098 181.156 L 114.8454 177.6205 L 118.3809 174.085 M 111.3098 181.156 L 111.3098 176.156 L 113.2232 171.5366 L 115.1367 166.9172 L 117.0501 162.2979 L 120.5856 158.7623 L 124.1211 155.2268 M 117.0501 162.2979 L 118.9635 157.6785 M 111.3098 176.156 L 111.3098 171.156 L 111.3098 166.156 L 109.3964 161.5366 L 107.483 156.9172 M 111.3098 166.156 L 111.3098 161.156 L 113.2232 156.5366 L 115.1367 151.9172 M 111.3098 161.156 L 111.3098 156.156 L 111.3098 151.156 L 111.3098 146.156 L 111.3098 141.156 M 111.3098 181.156 L 113.2232 176.5366 L 113.2232 171.5366 L 113.2232 166.5366 L 113.2232 161.5366 M 113.2232 176.5366 L 115.1367 171.9172 L 117.0501 167.2979 L 120.5856 163.7623 L 124.1211 160.2268 L 127.6567 156.6913 M 117.0501 167.2979 L 120.5856 163.7623 L 122.499 159.1429 L 126.0346 155.6074 L 129.5701 152.0719 M 122.499 159.1429 L 124.4125 154.5236 L 124.4125 149.5236 L 124.4125 144.5236 L 124.4125 139.5236 M 124.4125 154.5236 L 126.3259 149.9042 M 120.5856 163.7623 L 124.1211 160.2268 L 126.0346 155.6074 L 127.948 150.988 M 124.1211 160.2268 L 127.6567 156.6913 L 132.2761 154.7779 L 136.8955 152.8644 M 127.6567 156.6913 L 131.1922 153.1558 L 133.1056 148.5364 L 135.019 143.917 L 136.9325 139.2976 M 131.1922 153.1558 L 134.7277 149.6202 L 138.2633 146.0847 L 141.7988 142.5492 L 145.3343 139.0137 L 148.8699 135.4781 M 117.0501 167.2979 L 118.9635 162.6785 L 120.8769 158.0591 L 120.8769 153.0591 L 120.8769 148.0591 L 120.8769 143.0591 L 120.8769 138.0591 M 120.8769 158.0591 L 122.7903 153.4397 L 124.7038 148.8203 L 128.2393 145.2848 L 130.1527 140.6654 L 132.0661 136.046 M 128.2393 145.2848 L 131.7748 141.7493 L 135.3103 138.2137 L 138.8459 134.6782 M 124.7038 148.8203 L 124.7038 143.8203 L 122.7903 139.2009 L 120.8769 134.5815 M 124.7038 143.8203 L 126.6172 139.2009 L 126.6172 134.2009 L 126.6172 129.2009 L 126.6172 124.2009 M 126.6172 139.2009 L 128.5306 134.5815 L 130.444 129.9622 L 133.9796 126.4266 L 137.5151 122.8911 L 141.0506 119.3556 M 130.444 129.9622 L 132.3574 125.3428 M 124.7038 143.8203 L 124.7038 138.8203 L 126.6172 134.2009 L 128.5306 129.5815 M 124.7038 138.8203 L 124.7038 133.8203 L 122.7903 129.2009 L 120.8769 124.5815 L 118.9635 119.9622 M 124.7038 133.8203 L 124.7038 128.8203 L 124.7038 123.8203 L 126.6172 119.2009 L 128.5306 114.5815 L 130.444 109.9622 M 124.7038 123.8203 L 124.7038 118.8203 L 124.7038 113.8203 L 124.7038 108.8203 L 124.7038 103.8203 L 124.7038 98.82031 L 124.7038 93.82031 M 124.7038 148.8203 L 126.6172 144.2009 L 128.5306 139.5815 L 128.5306 134.5815 L 130.444 129.9622 L 132.3574 125.3428 M 128.5306 134.5815 L 128.5306 129.5815 L 128.5306 124.5815 L 128.5306 119.5815 L 128.5306 114.5815 M 128.5306 139.5815 L 130.444 134.9622 L 132.3574 130.3428 L 135.893 126.8073 L 137.8064 122.1879 L 139.7198 117.5685 L 141.6332 112.9491 M 135.893 126.8073 L 139.4285 123.2717 L 142.964 119.7362 L 146.4996 116.2007 L 150.0351 112.6652 L 153.5706 109.1296 M 132.3574 130.3428 L 134.2709 125.7234 L 134.2709 120.7234 L 134.2709 115.7234 M 134.2709 125.7234 L 136.1843 121.104 L 139.7198 117.5685 L 143.2554 114.033 M 136.1843 121.104 L 136.1843 116.104 L 138.0977 111.4846 L 140.0111 106.8652 L 141.9245 102.2458 M 136.1843 116.104 L 136.1843 111.104 L 136.1843 106.104 L 136.1843 101.104 L 136.1843 96.104 L 136.1843 91.104 L 136.1843 86.104 M 136.1843 121.104 L 138.0977 116.4846 L 138.0977 111.4846 L 138.0977 106.4846 L 138.0977 101.4846 M 138.0977 116.4846 L 140.0111 111.8652 L 141.9245 107.2458 L 145.4601 103.7103 L 148.9956 100.1748 L 152.5311 96.63928 M 141.9245 107.2458 L 143.838 102.6265 L 145.7514 98.00708 L 145.7514 93.00708 L 145.7514 88.00708 L 145.7514 83.00708 L 145.7514 78.00708 M 145.7514 98.00708 L 147.6648 93.3877 L 149.5782 88.76831 L 151.4916 84.14893 L 151.4916 79.14893 L 151.4916 74.14893 M 151.4916 84.14893 L 153.4051 79.52954 L 155.3185 74.91016 L 157.2319 70.29077 M 94.08904 222.7305 L 92.17562 218.1111 L 90.2622 213.4917 L 88.34879 208.8723 L 84.81326 205.3368 L 81.27773 201.8013 L 77.74218 198.2657 L 74.20665 194.7302 M 88.34879 208.8723 L 86.43536 204.2529 L 86.43536 199.2529 L 86.43536 194.2529 L 86.43536 189.2529 L 86.43536 184.2529 M 86.43536 204.2529 L 82.89983 200.7174 L 79.3643 197.1819 L 75.82877 193.6464 L 72.29324 190.1108 L 70.37982 185.4915 L 68.4664 180.8721 M 72.29324 190.1108 L 68.75771 186.5753 L 65.22218 183.0398 L 61.68665 179.5043 L 58.15112 175.9688 M 86.43536 204.2529 L 84.52194 199.6335 L 82.60852 195.0142 L 82.60852 190.0142 L 80.6951 185.3948 L 78.78168 180.7754 L 75.24615 177.2399 L 71.71062 173.7043 M 78.78168 180.7754 L 76.86826 176.156 M 82.60852 190.0142 L 82.60852 185.0142 L 82.60852 180.0142 L 82.60852 175.0142 L 80.6951 170.3948 L 78.78168 165.7754 M 82.60852 175.0142 L 82.60852 170.0142 L 82.60852 165.0142 L 82.60852 160.0142 M 82.60852 195.0142 L 79.07299 191.4786 L 77.15958 186.8593 L 75.24615 182.2399 L 73.33273 177.6205 M 79.07299 191.4786 L 74.45359 189.5652 L 69.83419 187.6518 L 64.83419 187.6518 L 59.83419 187.6518 L 54.83419 187.6518 L 49.83419 187.6518 M 69.83419 187.6518 L 65.21479 185.7384 M 79.07299 191.4786 L 75.53746 187.9431 L 72.00193 184.4076 L 67.38253 182.4942 L 62.76313 180.5807 L 58.14373 178.6673 L 53.52434 176.7539 M 72.00193 184.4076 L 70.08852 179.7882 L 68.17509 175.1688 L 66.26167 170.5494 L 62.72614 167.0139 L 59.19061 163.4784 M 66.26167 170.5494 L 64.34825 165.9301 L 62.43483 161.3107 L 60.52141 156.6913 M 72.00193 184.4076 L 68.4664 180.8721 L 64.93087 177.3365 L 61.39534 173.801 L 56.77594 171.8876 L 52.15654 169.9742 M 61.39534 173.801 L 57.85981 170.2655 L 54.32428 166.73 L 49.70488 164.8166 L 45.08548 162.9031 L 41.54995 159.3676 L 39.63653 154.7482 L 37.72311 150.1288 M 41.54995 159.3676 L 38.01442 155.8321 M 45.08548 162.9031 L 40.46608 160.9897 L 36.93055 157.4542 L 33.39502 153.9187 M 40.46608 160.9897 L 35.84668 159.0763 L 31.22728 157.1629 L 26.60788 155.2495 L 21.98848 153.336 M 54.32428 166.73 L 50.78875 163.1945 M 82.60852 195.0142 L 80.6951 190.3948 L 78.78168 185.7754 L 75.24615 182.2399 L 73.33273 177.6205 L 71.41931 173.0011 L 69.50589 168.3817 L 69.50589 163.3817 L 69.50589 158.3817 M 69.50589 168.3817 L 67.59247 163.7623 M 75.24615 182.2399 L 71.71062 178.7043 L 68.17509 175.1688 L 63.55569 173.2554 L 58.93629 171.342 M 68.17509 175.1688 L 64.63956 171.6333 L 62.72614 167.0139 L 60.81272 162.3945 M 64.63956 171.6333 L 61.10402 168.0978 L 57.56849 164.5623 L 54.03296 161.0267 L 50.49743 157.4912 M 78.78168 185.7754 L 78.78168 180.7754 L 76.86826 176.156 L 74.95484 171.5366 L 71.41931 168.0011 L 67.88378 164.4656 M 74.95484 171.5366 L 73.04142 166.9172 M 78.78168 180.7754 L 80.6951 176.156 L 82.60852 171.5366 L 82.60852 166.5366 L 82.60852 161.5366 M 82.60852 171.5366 L 86.14405 168.0011 L 88.05747 163.3817 L 89.97089 158.7623 M 86.14405 168.0011 L 89.67958 164.4656 L 93.21511 160.9301 L 96.75064 157.3945 M 82.60852 171.5366 L 84.52194 166.9172 M 78.78168 180.7754 L 78.78168 175.7754 L 78.78168 170.7754 L 80.6951 166.156 L 80.6951 161.156 L 80.6951 156.156 M 80.6951 166.156 L 82.60852 161.5366 L 84.52194 156.9172 L 86.43536 152.2979 M 78.78168 170.7754 L 76.86826 166.156 L 74.95484 161.5366 L 71.41931 158.0011 L 67.88378 154.4656 M 74.95484 161.5366 L 73.04142 156.9172 L 73.04142 151.9172 L 73.04142 146.9172 M 73.04142 156.9172 L 71.12801 152.2979 L 69.21458 147.6785 L 67.30116 143.0591 L 65.38774 138.4397 M 78.78168 170.7754 L 78.78168 165.7754 L 78.78168 160.7754 L 76.86826 156.156 L 74.95484 151.5366 M 78.78168 160.7754 L 78.78168 155.7754 L 80.6951 151.156 L 82.60852 146.5366 M 78.78168 155.7754 L 78.78168 150.7754 L 78.78168 145.7754 L 78.78168 140.7754 L 80.6951 136.156 L 82.60852 131.5366 L 82.60852 126.5366 L 80.6951 121.9172 L 78.78168 117.2979 L 76.86826 112.6785 M 82.60852 126.5366 L 82.60852 121.5366 M 82.60852 131.5366 L 84.52194 126.9172 L 84.52194 121.9172 L 84.52194 116.9172 L 84.52194 111.9172 M 84.52194 126.9172 L 86.43536 122.2979 L 88.34879 117.6785 L 90.2622 113.0591 L 92.17562 108.4397 L 94.08904 103.8203 M 78.78168 140.7754 L 78.78168 135.7754 M 78.78168 185.7754 L 75.24615 182.2399 L 73.33273 177.6205 L 71.41931 173.0011 L 69.50589 168.3817 L 69.50589 163.3817 L 69.50589 158.3817 M 69.50589 168.3817 L 67.59247 163.7623 M 75.24615 182.2399 L 71.71062 178.7043 L 68.17509 175.1688 L 63.55569 173.2554 L 58.93629 171.342 L 54.3169 169.4286 L 49.3169 169.4286 L 44.3169 169.4286 M 54.3169 169.4286 L 49.6975 167.5151 M 68.17509 175.1688 L 64.63956 171.6333 L 60.02016 169.7199 L 55.40077 167.8065 M 64.63956 171.6333 L 62.72614 167.0139 L 60.81272 162.3945 L 58.8993 157.7751 M 64.63956 171.6333 L 62.72614 167.0139 L 60.81272 162.3945 L 57.27718 158.859 L 53.74165 155.3235 M 60.81272 162.3945 L 58.8993 157.7751 L 58.8993 152.7751 L 58.8993 147.7751 M 58.8993 157.7751 L 56.98588 153.1558 M 64.63956 171.6333 L 61.10402 168.0978 L 57.56849 164.5623 L 52.94909 162.6488 L 48.32969 160.7354 L 43.71029 158.822 L 39.09089 156.9086 M 57.56849 164.5623 L 52.94909 162.6488 L 48.32969 160.7354 L 43.71029 158.822 L 40.17476 155.2865 L 36.63923 151.7509 M 43.71029 158.822 L 39.09089 156.9086 L 34.09089 156.9086 L 29.09089 156.9086 L 24.09089 156.9086 M 39.09089 156.9086 L 34.47149 154.9951 M 57.56849 164.5623 L 55.65507 159.9429 L 53.74165 155.3235 L 51.82823 150.7041 L 49.91481 146.0847 L 46.37928 142.5492 L 42.84375 139.0137 M 49.91481 146.0847 L 48.00139 141.4653 L 48.00139 136.4653 L 48.00139 131.4653 M 48.00139 141.4653 L 44.46586 137.9298 L 40.93033 134.3943 L 37.3948 130.8588 L 33.85927 127.3232 M 48.00139 141.4653 L 46.08797 136.8459 L 44.17455 132.2266 L 42.26113 127.6072 L 38.72559 124.0717 L 35.19006 120.5361 M 42.26113 127.6072 L 40.34771 122.9878 L 38.43429 118.3684 L 36.52087 113.749 M 57.56849 164.5623 L 54.03296 161.0267 L 50.49743 157.4912 L 48.58401 152.8718 L 45.04847 149.3363 L 41.51294 145.8008 M 48.58401 152.8718 L 46.67059 148.2524 L 44.75717 143.6331 L 42.84375 139.0137 M 50.49743 157.4912 L 46.9619 153.9557 L 43.42637 150.4202 L 38.80697 148.5067 L 35.27144 144.9712 L 31.73591 141.4357 M 38.80697 148.5067 L 34.18757 146.5933 L 29.56818 144.6799 L 24.94878 142.7665 L 20.32938 140.8531 M 43.42637 150.4202 L 39.89084 146.8846 L 36.35531 143.3491 L 31.73591 141.4357 L 27.11652 139.5223 M 36.35531 143.3491 L 34.44189 138.7297 L 30.90636 135.1942 L 27.37082 131.6587 L 23.83529 128.1232 M 34.44189 138.7297 L 32.52847 134.1104 L 30.61505 129.491 L 28.70163 124.8716 L 26.78822 120.2522 L 24.8748 115.6328 M 36.35531 143.3491 L 32.81978 139.8136 L 30.90636 135.1942 L 28.99295 130.5748 M 32.81978 139.8136 L 29.28426 136.2781 L 24.66486 134.3647 L 20.04546 132.4512 L 15.42606 130.5378 M 29.28426 136.2781 L 25.74873 132.7426 L 22.2132 129.207 L 20.29978 124.5876 L 18.38638 119.9683 L 16.47296 115.3489 M 22.2132 129.207 L 18.67767 125.6715 L 15.14214 122.136 L 11.60661 118.6005 L 8.071075 115.0649 L 4.535545 111.5294 L 1 107.9939 M 78.78168 185.7754 L 76.86826 181.156 L 74.95484 176.5366 L 71.41931 173.0011 L 67.88378 169.4656 M 74.95484 176.5366 L 74.95484 171.5366 L 73.04142 166.9172 L 71.12801 162.2979 L 69.21458 157.6785 L 65.67905 154.1429 L 62.14352 150.6074 L 58.60798 147.0719 M 69.21458 157.6785 L 67.30116 153.0591 M 74.95484 171.5366 L 74.95484 166.5366 L 74.95484 161.5366 L 74.95484 156.5366 L 76.86826 151.9172 L 78.78168 147.2979 M 74.95484 156.5366 L 74.95484 151.5366 L 73.04142 146.9172 L 71.12801 142.2979 L 69.21458 137.6785 M 74.95484 151.5366 L 74.95484 146.5366 L 74.95484 141.5366 L 74.95484 136.5366 L 74.95484 131.5366 L 74.95484 126.5366 M 74.95484 176.5366 L 73.04142 171.9172 L 73.04142 166.9172 L 73.04142 161.9172 M 73.04142 171.9172 L 71.12801 167.2979 L 67.59247 163.7623 L 64.05695 160.2268 L 60.52141 156.6913 M 71.12801 167.2979 L 67.59247 163.7623 L 64.05695 160.2268 L 62.14352 155.6074 L 60.2301 150.988 L 58.31668 146.3687 L 54.78114 142.8331 L 51.24561 139.2976 M 58.31668 146.3687 L 58.31668 141.3687 L 58.31668 136.3687 L 58.31668 131.3687 M 58.31668 146.3687 L 56.40326 141.7493 M 64.05695 160.2268 L 60.52141 156.6913 L 56.98588 153.1558 L 53.45035 149.6202 L 48.83095 147.7068 L 44.21155 145.7934 L 39.59215 143.88 M 53.45035 149.6202 L 49.91482 146.0847 L 46.37929 142.5492 L 44.46587 137.9298 L 42.55245 133.3104 L 40.63903 128.691 M 46.37929 142.5492 L 42.84375 139.0137 L 39.30822 135.4781 L 35.77269 131.9426 L 32.23716 128.4071 L 28.70163 124.8716 L 25.1661 121.3361 M 71.12801 167.2979 L 71.12801 162.2979 L 73.04142 157.6785 L 74.95484 153.0591 L 76.86826 148.4397 L 76.86826 143.4397 L 76.86826 138.4397 M 76.86826 148.4397 L 80.40379 144.9042 L 83.93932 141.3687 L 87.47485 137.8331 M 76.86826 148.4397 L 78.78168 143.8203 M 71.12801 162.2979 L 69.21458 157.6785 L 67.30116 153.0591 L 63.76563 149.5236 L 60.2301 145.988 M 67.30116 153.0591 L 67.30116 148.0591 L 69.21458 143.4397 L 71.12801 138.8203 M 67.30116 148.0591 L 65.38774 143.4397 L 63.47432 138.8203 L 61.5609 134.2009 L 59.64748 129.5815 M 67.30116 148.0591 L 67.30116 143.0591 L 67.30116 138.0591 L 67.30116 133.0591 L 69.21458 128.4397 L 69.21458 123.4397 L 69.21458 118.4397 M 69.21458 128.4397 L 71.12801 123.8203 L 73.04142 119.2009 L 74.95484 114.5815 M 67.30116 133.0591 L 67.30116 128.0591 M 67.30116 153.0591 L 65.38774 148.4397 L 65.38774 143.4397 L 65.38774 138.4397 M 65.38774 148.4397 L 61.85221 144.9042 L 58.31667 141.3687 L 54.78114 137.8331 L 51.24561 134.2976 M 65.38774 148.4397 L 63.47432 143.8203 L 61.5609 139.2009 L 59.64748 134.5815 L 59.64748 129.5815 L 57.73406 124.9622 L 55.82064 120.3428 M 59.64748 129.5815 L 59.64748 124.5815 L 59.64748 119.5815 L 59.64748 114.5815 M 59.64748 134.5815 L 56.11195 131.046 L 51.49255 129.1326 L 46.49255 129.1326 L 41.49255 129.1326 M 51.49255 129.1326 L 46.87315 127.2192 M 56.11195 131.046 L 54.19853 126.4266 L 50.663 122.8911 L 47.12747 119.3556 M 54.19853 126.4266 L 54.19853 121.4266 L 54.19853 116.4266 L 54.19853 111.4266 M 54.19853 126.4266 L 52.28511 121.8073 M 56.11195 131.046 L 52.57642 127.5105 L 47.95702 125.5971 L 43.33762 123.6837 M 52.57642 127.5105 L 50.663 122.8911 L 48.74958 118.2717 L 46.83616 113.6523 M 52.57642 127.5105 L 49.04089 123.975 L 45.50536 120.4395 L 41.96983 116.9039 L 38.4343 113.3684 L 34.89877 109.8329 L 31.36324 106.2974 M 59.64748 134.5815 L 57.73406 129.9622 M 71.12801 162.2979 L 71.12801 157.2979 L 71.12801 152.2979 L 69.21458 147.6785 L 69.21458 142.6785 L 69.21458 137.6785 L 69.21458 132.6785 M 69.21458 147.6785 L 67.30116 143.0591 L 65.38774 138.4397 L 63.47432 133.8203 L 61.5609 129.2009 L 59.64748 124.5815 L 57.73406 119.9622 M 71.12801 152.2979 L 71.12801 147.2979 L 69.21458 142.6785 L 67.30116 138.0591 M 71.12801 147.2979 L 71.12801 142.2979 L 73.04142 137.6785 L 74.95484 133.0591 M 71.12801 142.2979 L 73.04142 137.6785 L 73.04142 132.6785 L 73.04142 127.6785 L 71.12801 123.0591 L 69.21458 118.4397 M 73.04142 127.6785 L 73.04142 122.6785 M 73.04142 137.6785 L 74.95484 133.0591 L 76.86826 128.4397 L 78.78168 123.8203 L 78.78168 118.8203 L 78.78168 113.8203 M 78.78168 123.8203 L 80.6951 119.2009 L 82.60852 114.5815 L 84.52194 109.9622 M 71.12801 142.2979 L 71.12801 137.2979 L 69.21458 132.6785 L 67.30116 128.0591 L 65.38774 123.4397 M 71.12801 137.2979 L 71.12801 132.2979 L 71.12801 127.2979 L 73.04142 122.6785 L 74.95484 118.0591 L 76.86826 113.4397 M 71.12801 127.2979 L 69.21458 122.6785 L 69.21458 117.6785 L 67.30116 113.0591 L 65.38774 108.4397 M 69.21458 117.6785 L 69.21458 112.6785 L 71.12801 108.0591 L 73.04142 103.4397 M 69.21458 112.6785 L 69.21458 107.6785 M 69.21458 122.6785 L 67.30116 118.0591 L 65.38774 113.4397 L 61.85221 109.9042 L 58.31667 106.3687 M 65.38774 113.4397 L 63.47432 108.8203 L 63.47432 103.8203 L 63.47432 98.82031 M 63.47432 108.8203 L 61.5609 104.2009 L 59.64748 99.58154 L 57.73406 94.96216 L 55.82064 90.34277 M 71.12801 127.2979 L 71.12801 122.2979 L 71.12801 117.2979 L 69.21458 112.6785 L 67.30116 108.0591 L 65.38774 103.4397 L 63.47432 98.82031 M 71.12801 117.2979 L 71.12801 112.2979 L 71.12801 107.2979 L 73.04142 102.6785 L 73.04142 97.67847 L 73.04142 92.67847 M 73.04142 102.6785 L 74.95484 98.05908 L 76.86826 93.4397 L 78.78168 88.82031 M 71.12801 107.2979 L 71.12801 102.2979 L 71.12801 97.29785 L 69.21458 92.67847 L 69.21458 87.67847 L 69.21458 82.67847 M 69.21458 92.67847 L 67.30116 88.05908 L 65.38774 83.4397 L 63.47432 78.82031 L 61.5609 74.20093 M 71.12801 97.29785 L 71.12801 92.29785 L 69.21458 87.67847 L 67.30116 83.05908 M 71.12801 92.29785 L 71.12801 87.29785 L 73.04142 82.67847 L 74.95484 78.05908 M 71.12801 87.29785 L 71.12801 82.29785 L 69.21458 77.67847 L 67.30116 73.05908 L 65.38774 68.4397 M 71.12801 82.29785 L 71.12801 77.29785 L 71.12801 72.29785 L 71.12801 67.29785 L 71.12801 62.29785 L 71.12801 57.29785 M 71.12801 167.2979 L 69.21458 162.6785 L 67.30116 158.0591 L 67.30116 153.0591 L 67.30116 148.0591 L 67.30116 143.0591 M 67.30116 158.0591 L 65.38774 153.4397 L 63.47432 148.8203 L 59.93879 145.2848 L 56.40326 141.7493 L 52.86773 138.2137 L 49.3322 134.6782 M 63.47432 148.8203 L 63.47432 143.8203 L 65.38774 139.2009 L 67.30116 134.5815 M 63.47432 143.8203 L 61.5609 139.2009 L 59.64748 134.5815 L 57.73406 129.9622 L 55.82064 125.3428 L 55.82064 120.3428 L 55.82064 115.3428 M 55.82064 125.3428 L 52.28511 121.8073 L 48.74958 118.2717 L 45.21405 114.7362 L 41.67852 111.2007 M 55.82064 125.3428 L 53.90722 120.7234 M 63.47432 143.8203 L 63.47432 138.8203 L 61.5609 134.2009 L 59.64748 129.5815 L 57.73406 124.9622 M 63.47432 138.8203 L 63.47432 133.8203 L 63.47432 128.8203 L 65.38774 124.2009 L 67.30116 119.5815 L 69.21458 114.9622 M 63.47432 128.8203 L 63.47432 123.8203 L 63.47432 118.8203 L 61.5609 114.2009 L 59.64748 109.5815 L 57.73406 104.9622 L 55.82064 100.3428 M 63.47432 118.8203 L 63.47432 113.8203 L 63.47432 108.8203 L 63.47432 103.8203 L 61.5609 99.20093 L 59.64748 94.58154 M 63.47432 103.8203 L 63.47432 98.82031 L 63.47432 93.82031 L 63.47432 88.82031 M 63.47432 148.8203 L 61.5609 144.2009 L 59.64748 139.5815 L 59.64748 134.5815 L 57.73406 129.9622 L 55.82064 125.3428 M 59.64748 134.5815 L 59.64748 129.5815 L 59.64748 124.5815 L 59.64748 119.5815 M 59.64748 139.5815 L 57.73406 134.9622 L 55.82064 130.3428 L 52.28511 126.8073 L 50.37169 122.1879 L 48.45827 117.5685 M 52.28511 126.8073 L 48.74958 123.2717 L 45.21405 119.7362 L 41.67852 116.2007 L 38.14299 112.6652 M 55.82064 130.3428 L 52.28511 126.8073 L 48.74958 123.2717 L 46.83616 118.6523 L 43.30063 115.1168 L 39.7651 111.5813 L 35.1457 109.6679 L 30.5263 107.7545 M 39.7651 111.5813 L 36.22957 108.0458 M 46.83616 118.6523 L 44.92274 114.033 L 43.00932 109.4136 L 39.47379 105.8781 L 35.93826 102.3425 M 43.00932 109.4136 L 43.00932 104.4136 L 41.0959 99.79419 L 39.18248 95.1748 M 43.00932 104.4136 L 43.00932 99.41357 L 43.00932 94.41357 L 43.00932 89.41357 M 43.00932 109.4136 L 41.0959 104.7942 M 48.74958 123.2717 L 45.21405 119.7362 L 40.59466 117.8228 L 35.97526 115.9094 M 45.21405 119.7362 L 43.30063 115.1168 L 41.38721 110.4974 L 39.47379 105.8781 M 45.21405 119.7362 L 41.67852 116.2007 L 38.14299 112.6652 L 33.5236 110.7517 L 28.90421 108.8383 L 24.28481 106.9249 L 19.66541 105.0115 M 38.14299 112.6652 L 34.60746 109.1296 L 31.07193 105.5941 L 29.15852 100.9747 L 25.62299 97.43921 L 22.08746 93.90369 M 29.15852 100.9747 L 27.2451 96.35535 L 25.3317 91.73596 L 23.41828 87.11658 M 31.07193 105.5941 L 27.5364 102.0586 L 24.00086 98.52307 L 19.38146 96.60965 L 14.76206 94.69623 M 24.00086 98.52307 L 20.46532 94.98755 L 18.55191 90.36816 L 16.6385 85.74878 M 20.46532 94.98755 L 16.92978 91.45203 L 13.39425 87.9165 L 9.858711 84.38098 L 6.323174 80.84546 M 55.82064 130.3428 L 53.90722 125.7234 L 51.9938 121.104 L 51.9938 116.104 L 50.08038 111.4846 L 48.16696 106.8652 L 46.25354 102.2458 M 51.9938 116.104 L 51.9938 111.104 L 51.9938 106.104 L 51.9938 101.104 L 51.9938 96.104 L 51.9938 91.104 M 51.9938 121.104 L 50.08038 116.4846 L 48.16696 111.8652 L 44.63143 108.3297 L 42.71801 103.7103 L 40.80459 99.09094 L 38.89117 94.47156 M 44.63143 108.3297 L 41.0959 104.7942 L 37.56036 101.2587 L 34.02483 97.72314 L 30.4893 94.18762 L 26.95377 90.6521 L 23.41824 87.11658 M 48.16696 111.8652 L 48.16696 106.8652 L 50.08038 102.2458 L 51.9938 97.62646 L 53.90722 93.00708 M 48.16696 106.8652 L 46.25354 102.2458 L 46.25354 97.24585 L 44.34012 92.62646 L 42.4267 88.00708 M 46.25354 97.24585 L 46.25354 92.24585 L 48.16696 87.62646 L 50.08038 83.00708 M 46.25354 92.24585 L 46.25354 87.24585 M 46.25354 102.2458 L 44.34012 97.62646 L 40.80459 94.09094 L 37.26906 90.55542 M 44.34012 97.62646 L 42.4267 93.00708 L 42.4267 88.00708 L 42.4267 83.00708 M 42.4267 93.00708 L 38.89117 89.47156 L 36.97775 84.85217 L 35.06433 80.23279 M 38.89117 89.47156 L 35.35564 85.93604 L 31.82011 82.40051 L 28.28458 78.86499 L 24.74905 75.32947 M 42.4267 93.00708 L 40.51328 88.3877 M 48.16696 106.8652 L 48.16696 101.8652 L 48.16696 96.86523 L 46.25354 92.24585 L 44.34012 87.62646 L 42.4267 83.00708 L 40.51328 78.3877 M 48.16696 96.86523 L 48.16696 91.86523 L 48.16696 86.86523 L 50.08038 82.24585 L 50.08038 77.24585 L 50.08038 72.24585 M 50.08038 82.24585 L 51.9938 77.62646 L 53.90722 73.00708 L 55.82064 68.3877 M 48.16696 86.86523 L 48.16696 81.86523 L 48.16696 76.86523 L 46.25354 72.24585 L 46.25354 67.24585 L 46.25354 62.24585 M 46.25354 72.24585 L 44.34012 67.62646 L 42.4267 63.00708 L 40.51328 58.3877 L 38.59986 53.76831 M 48.16696 76.86523 L 48.16696 71.86523 L 46.25354 67.24585 L 44.34012 62.62646 M 48.16696 71.86523 L 48.16696 66.86523 L 50.08038 62.24585 L 51.9938 57.62646 M 48.16696 66.86523 L 48.16696 61.86523 L 46.25354 57.24585 L 44.34012 52.62646 L 42.4267 48.00708 M 48.16696 61.86523 L 48.16696 56.86523 L 48.16696 51.86523 L 48.16696 46.86523 L 48.16696 41.86523 L 48.16696 36.86523 M 48.16696 111.8652 L 46.25354 107.2458 L 44.34012 102.6265 L 40.80459 99.09094 L 37.26906 95.55542 M 44.34012 102.6265 L 44.34012 97.62646 L 42.4267 93.00708 L 40.51328 88.3877 L 36.97775 84.85217 L 33.44222 81.31665 M 40.51328 88.3877 L 38.59986 83.76831 M 44.34012 97.62646 L 44.34012 92.62646 L 44.34012 87.62646 L 44.34012 82.62646 L 42.4267 78.00708 L 40.51328 73.3877 M 44.34012 82.62646 L 44.34012 77.62646 L 44.34012 72.62646 L 44.34012 67.62646 M 44.34012 102.6265 L 42.4267 98.00708 L 42.4267 93.00708 L 42.4267 88.00708 M 42.4267 98.00708 L 40.51328 93.3877 L 36.97775 89.85217 L 33.44222 86.31665 L 29.90668 82.78113 M 40.51328 93.3877 L 36.97775 89.85217 L 35.06433 85.23279 L 31.52879 81.69727 L 27.99326 78.16174 M 35.06433 85.23279 L 33.15091 80.6134 L 33.15091 75.6134 L 33.15091 70.6134 M 33.15091 80.6134 L 31.23749 75.99402 M 36.97775 89.85217 L 33.44222 86.31665 L 29.90668 82.78113 L 25.28728 80.86771 L 20.66788 78.95428 M 29.90668 82.78113 L 26.37114 79.24561 L 24.45773 74.62622 L 22.54431 70.00684 M 26.37114 79.24561 L 22.83561 75.71008 L 19.30007 72.17456 L 15.76453 68.63904 L 12.229 65.10352 M 40.51328 93.3877 L 38.59986 88.76831 L 36.68644 84.14893 L 36.68644 79.14893 L 36.68644 74.14893 L 36.68644 69.14893 M 36.68644 84.14893 L 34.77302 79.52954 L 32.8596 74.91016 L 29.32407 71.37463 L 25.78854 67.83911 L 22.25301 64.30359 L 18.71748 60.76807 M 32.8596 74.91016 L 32.8596 69.91016 L 30.94618 65.29077 L 30.94618 60.29077 L 30.94618 55.29077 M 30.94618 65.29077 L 29.03278 60.67139 L 25.49725 57.13586 L 21.96172 53.60034 L 18.42619 50.06482 M 29.03278 60.67139 L 27.11936 56.052 M 32.8596 69.91016 L 32.8596 64.91016 L 30.94618 60.29077 L 29.03278 55.67139 M 32.8596 64.91016 L 32.8596 59.91016 L 34.77302 55.29077 L 36.68644 50.67139 M 32.8596 59.91016 L 32.8596 54.91016 L 30.94618 50.29077 L 29.03278 45.67139 L 27.11936 41.052 M 32.8596 54.91016 L 32.8596 49.91016 L 32.8596 44.91016 L 32.8596 39.91016 L 32.8596 34.91016 L 32.8596 29.91016 M 32.8596 74.91016 L 30.94618 70.29077 L 29.03278 65.67139 L 29.03278 60.67139 L 27.11936 56.052 L 25.20596 51.43262 M 29.03278 60.67139 L 29.03278 55.67139 L 29.03278 50.67139 L 29.03278 45.67139 M 29.03278 65.67139 L 27.11936 61.052 L 25.20596 56.43262 L 21.67043 52.89709 L 19.75701 48.27771 L 17.84359 43.65833 M 21.67043 52.89709 L 18.1349 49.36157 L 14.59935 45.82605 L 11.06382 42.29053 L 7.528282 38.755 M 25.20596 56.43262 L 23.29254 51.81323 L 21.37912 47.19385 L 17.84359 43.65833 L 14.30805 40.1228 M 21.37912 47.19385 L 21.37912 42.19385 L 19.46571 37.57446 L 17.55229 32.95508 L 15.63889 28.33569 M 21.37912 42.19385 L 21.37912 37.19385 L 21.37912 32.19385 L 21.37912 27.19385 L 21.37912 22.19385 L 21.37912 17.19385 M 21.37912 47.19385 L 19.46571 42.57446 L 19.46571 37.57446 L 19.46571 32.57446 M 19.46571 42.57446 L 17.55229 37.95508 L 14.01676 34.41956 L 10.48122 30.88403 L 6.945686 27.34851 M 17.55229 37.95508 L 15.63889 33.33569 L 13.72547 28.71631 L 13.72547 23.71631 L 13.72547 18.71631 L 13.72547 13.71631 M 13.72547 28.71631 L 11.81205 24.09692 L 9.898636 19.47754 L 7.985222 14.85815 L 6.071815 10.23877 L 4.158401 5.619385 L 2.24498 1 M 94.08904 222.7305 L 94.08904 217.7305 " />
  </g>
</svg>
