<?xml version="1.0" encoding="UTF-8" standalone="no"?>
<!DOCTYPE svg PUBLIC "-//W3C//DTD SVG 1.1//EN"
    "http://www.w3.org/Graphics/SVG/1.1/DTD/svg11.dtd">
<svg xmlns="http://www.w3.org/2000/svg" width="164" height="464">
  <desc>hogeweg_a LSystem</desc>
  <rect width="100%" height="100%" style="fill: white"/>
  <g stroke="black" fill="none" stroke-width="1">
    <path d="M 94.08913 462.7305 L 94.08913 457.7305 L 94.08913 452.7305 L 94.08913 447.7305 L 94.08913 442.7305 L 92.1757 438.1111 L 90.26228 433.4917 L 88.34888 428.8723 L 86.43546 424.2529 M 94.08913 442.7305 L 94.08913 437.7305 L 96.00255 433.1111 L 97.91595 428.4917 L 99.82938 423.8723 L 101.7428 419.2529 M 94.08913 437.7305 L 92.1757 433.1111 L 90.26228 428.4917 L 88.34888 423.8723 L 86.43546 419.2529 L 86.43546 414.2529 L 86.43546 409.2529 M 86.43546 419.2529 L 84.52203 414.6335 L 82.60862 410.0142 L 80.69521 405.3947 L 78.78178 400.7754 M 94.08913 437.7305 L 94.08913 432.7305 L 94.08913 427.7305 L 96.00255 423.1111 L 96.00255 418.1111 L 96.00255 413.1111 L 94.08913 408.4917 L 92.1757 403.8723 M 96.00255 413.1111 L 96.00255 408.1111 M 96.00255 423.1111 L 97.91595 418.4917 L 99.82938 413.8723 L 101.7428 409.253 L 101.7428 404.253 L 101.7428 399.253 M 101.7428 409.253 L 103.6562 404.6335 L 105.5696 400.0142 L 107.483 395.3947 M 94.08913 427.7305 L 92.1757 423.1111 L 92.1757 418.1111 L 92.1757 413.1111 L 92.1757 408.1111 M 92.1757 423.1111 L 88.64017 419.5756 L 85.10464 416.0401 L 80.48524 414.1266 L 75.86584 412.2132 L 71.24644 410.2998 L 66.62704 408.3864 M 85.10464 416.0401 L 81.56911 412.5045 M 92.1757 423.1111 L 90.26228 418.4917 L 88.34888 413.8723 L 84.81334 410.3368 L 81.27781 406.8013 L 77.74226 403.2657 L 74.20674 399.7302 M 88.34888 413.8723 L 88.34888 408.8723 L 88.34888 403.8723 L 88.34888 398.8723 L 86.43546 394.253 L 84.52203 389.6335 M 88.34888 398.8723 L 88.34888 393.8723 L 88.34888 388.8723 L 88.34888 383.8723 M 88.34888 413.8723 L 86.43546 409.253 L 84.52203 404.6335 L 82.60862 400.0142 L 79.07309 396.4786 L 75.53755 392.9431 M 82.60862 400.0142 L 80.69521 395.3947 L 78.78178 390.7754 L 75.24625 387.2398 L 71.71072 383.7043 L 69.79729 379.0849 L 69.79729 374.0849 L 69.79729 369.0849 M 69.79729 379.0849 L 67.88388 374.4655 M 71.71072 383.7043 L 68.17519 380.1688 L 66.26176 375.5494 L 64.34834 370.93 M 68.17519 380.1688 L 64.63965 376.6332 L 61.10412 373.0977 L 57.56858 369.5622 L 54.03305 366.0266 M 78.78178 390.7754 L 76.86836 386.1559 M 94.08913 427.7305 L 94.08913 422.7305 L 94.08913 417.7305 L 92.1757 413.1111 L 92.1757 408.1111 L 92.1757 403.1111 L 92.1757 398.1111 L 94.08913 393.4917 L 96.00255 388.8723 M 92.1757 398.1111 L 92.1757 393.1111 M 92.1757 413.1111 L 90.26228 408.4917 L 88.34888 403.8723 L 84.81334 400.3368 L 81.27781 396.8013 M 88.34888 403.8723 L 86.43546 399.253 L 86.43546 394.253 L 86.43546 389.253 M 86.43546 399.253 L 84.52203 394.6335 L 82.60862 390.0142 L 80.69521 385.3947 L 78.78178 380.7754 M 94.08913 417.7305 L 96.00255 413.1111 L 96.00253 408.1111 L 96.00253 403.1111 L 94.08913 398.4917 L 92.1757 393.8723 M 96.00253 403.1111 L 96.00253 398.1111 M 96.00255 413.1111 L 99.53808 409.5756 L 103.0736 406.0401 L 104.987 401.4207 L 106.9004 396.8013 M 103.0736 406.0401 L 107.693 404.1266 L 111.2285 400.5911 L 114.7641 397.0556 M 107.693 404.1266 L 112.3124 402.2132 L 116.9318 400.2998 L 121.5512 398.3864 M 103.0736 406.0401 L 106.6091 402.5045 M 96.00255 413.1111 L 97.91595 408.4917 L 99.82938 403.8723 L 103.3649 400.3368 L 105.2783 395.7174 L 107.1917 391.098 M 103.3649 400.3368 L 106.9004 396.8013 L 110.436 393.2657 L 113.9715 389.7302 M 99.82938 403.8723 L 99.82938 398.8723 L 99.82938 393.8723 L 97.91595 389.253 L 96.00253 384.6335 M 99.82938 393.8723 L 99.82938 388.8723 L 101.7428 384.253 L 103.6562 379.6335 M 99.82938 388.8723 L 99.82938 383.8723 L 99.82938 378.8723 L 99.82938 373.8723 L 99.82938 368.8723 M 99.82938 403.8723 L 101.7428 399.253 L 103.6562 394.6335 L 103.6562 389.6335 L 103.6562 384.6335 M 103.6562 394.6335 L 105.5696 390.0142 L 109.1052 386.4786 L 112.6407 382.9431 M 105.5696 390.0142 L 107.483 385.3947 L 109.3965 380.7754 L 111.3099 376.1559 L 114.8454 372.6204 L 118.381 369.0849 L 120.2944 364.4655 L 120.2944 359.4655 L 120.2944 354.4655 L 120.2944 349.4655 M 120.2944 364.4655 L 122.2078 359.8461 M 118.381 369.0849 L 121.9165 365.5493 L 123.8299 360.9299 L 125.7433 356.3105 L 127.6567 351.6912 M 121.9165 365.5493 L 125.452 362.0138 L 128.9875 358.4783 L 132.5231 354.9427 L 136.0586 351.4072 L 139.5941 347.8717 M 111.3099 376.1559 L 113.2233 371.5366 M 94.08913 417.7305 L 92.1757 413.1111 L 92.1757 408.1111 L 92.1757 403.1111 L 92.1757 398.1111 L 94.08913 393.4917 L 96.00255 388.8723 M 92.1757 398.1111 L 92.1757 393.1111 M 92.1757 413.1111 L 90.26228 408.4917 L 88.34888 403.8723 L 84.81334 400.3368 L 81.27781 396.8013 L 77.74226 393.2657 L 73.12286 391.3523 L 68.50348 389.4389 M 77.74226 393.2657 L 74.20674 389.7302 M 88.34888 403.8723 L 86.43546 399.253 L 82.89992 395.7174 L 79.36439 392.1819 M 86.43546 399.253 L 86.43546 394.253 L 86.43546 389.253 L 86.43546 384.253 M 86.43546 399.253 L 86.43546 394.253 L 86.43546 389.253 L 84.52203 384.6335 L 82.60862 380.0142 M 86.43546 389.253 L 86.43546 384.253 L 88.34888 379.6335 L 90.26228 375.0142 M 86.43546 384.253 L 86.43546 379.253 M 86.43546 399.253 L 84.52203 394.6335 L 82.60862 390.0142 L 79.07309 386.4786 L 75.53755 382.9431 L 72.00201 379.4075 L 68.46648 375.872 M 82.60862 390.0142 L 79.07309 386.4786 L 75.53755 382.9431 L 72.00201 379.4075 L 70.08859 374.7881 L 68.17519 370.1688 M 72.00201 379.4075 L 68.46648 375.872 L 63.84708 373.9586 L 59.22769 372.0452 L 54.6083 370.1318 M 68.46648 375.872 L 64.93095 372.3365 M 82.60862 390.0142 L 82.60862 385.0142 L 82.60862 380.0142 L 82.60862 375.0142 L 82.60862 370.0142 L 80.69521 365.3947 L 78.78178 360.7754 M 82.60862 370.0142 L 82.60862 365.0142 L 84.52203 360.3947 L 86.43546 355.7754 M 82.60862 365.0142 L 80.69521 360.3947 L 78.78178 355.7754 L 76.86836 351.1559 L 74.95495 346.5366 M 82.60862 365.0142 L 82.60862 360.0142 L 82.60862 355.0142 L 82.60862 350.0142 L 80.69521 345.3947 L 78.78178 340.7754 M 82.60862 350.0142 L 82.60862 345.0142 L 82.60862 340.0142 L 82.60862 335.0142 M 82.60862 390.0142 L 80.69521 385.3947 L 78.78178 380.7754 L 78.78178 375.7754 L 76.86836 371.1559 L 74.95495 366.5366 M 78.78178 375.7754 L 78.78178 370.7754 L 78.78178 365.7754 L 78.78178 360.7754 M 78.78178 380.7754 L 76.86836 376.1559 L 74.95495 371.5366 L 71.41942 368.001 L 69.506 363.3816 L 67.59258 358.7622 M 71.41942 368.001 L 67.88388 364.4655 L 64.34834 360.9299 L 60.81282 357.3944 L 57.27728 353.8589 M 74.95495 371.5366 L 73.04153 366.9171 L 71.12811 362.2977 L 67.59258 358.7622 L 64.05704 355.2267 M 71.12811 362.2977 L 71.12811 357.2977 L 69.2147 352.6783 L 67.30128 348.0589 L 65.38786 343.4395 M 71.12811 357.2977 L 71.12811 352.2977 L 71.12811 347.2977 L 71.12811 342.2977 L 71.12811 337.2977 L 71.12811 332.2977 M 71.12811 362.2977 L 69.2147 357.6783 L 69.2147 352.6783 L 69.2147 347.6783 M 69.2147 357.6783 L 67.30128 353.0589 L 63.76575 349.5234 L 60.23021 345.9879 L 56.69468 342.4523 M 67.30128 353.0589 L 65.38786 348.4395 L 63.47443 343.8201 L 63.47443 338.8201 L 63.47443 333.8201 L 63.47443 328.8201 M 63.47443 343.8201 L 61.56103 339.2007 L 59.64761 334.5814 L 57.73419 329.9619 L 55.82077 325.3425 L 53.90736 320.7231 L 51.99394 316.1038 M 94.08913 417.7305 L 94.08913 412.7305 L 94.08913 407.7305 L 92.1757 403.1111 L 90.26228 398.4917 M 94.08913 407.7305 L 96.00253 403.1111 L 96.00253 398.1111 L 96.00253 393.1111 L 96.00253 388.1111 L 94.08913 383.4917 L 92.1757 378.8723 L 90.26228 374.2529 M 96.00253 388.1111 L 96.00253 383.1111 M 96.00253 403.1111 L 97.91595 398.4917 L 99.82938 393.8723 L 101.7428 389.2529 L 105.2783 385.7174 L 108.8139 382.1819 M 101.7428 389.2529 L 103.6562 384.6335 L 103.6562 379.6335 L 103.6562 374.6335 L 103.6562 369.6335 M 103.6562 384.6335 L 105.5696 380.0141 L 107.483 375.3947 L 109.3965 370.7753 L 111.3099 366.1559 L 113.2233 361.5365 M 94.08913 407.7305 L 94.08913 402.7305 L 96.00253 398.1111 L 97.91595 393.4917 M 94.08913 402.7305 L 94.08913 397.7305 L 92.1757 393.1111 L 90.26228 388.4917 L 88.34887 383.8723 M 94.08913 397.7305 L 92.1757 393.1111 L 90.26228 388.4917 L 90.26228 383.4917 L 90.26228 378.4917 L 90.26228 373.4917 L 88.34887 368.8723 L 86.43546 364.2529 M 90.26228 373.4917 L 92.1757 368.8723 L 94.08913 364.2529 L 96.00253 359.6335 M 90.26228 373.4917 L 90.26228 368.4917 M 90.26228 388.4917 L 88.34887 383.8723 L 86.43546 379.2529 L 84.52203 374.6335 L 80.9865 371.098 L 77.45097 367.5625 L 73.91544 364.0269 M 84.52203 374.6335 L 82.60862 370.0141 L 80.6952 365.3947 L 80.6952 360.3947 L 80.6952 355.3947 L 80.6952 350.3947 M 80.6952 365.3947 L 78.78178 360.7753 L 76.86836 356.1559 L 74.95495 351.5365 L 73.04153 346.9171 L 71.12811 342.2977 L 69.2147 337.6783 M 94.08913 397.7305 L 96.00253 393.1111 L 99.53808 389.5756 L 103.0736 386.0401 L 106.6091 382.5045 L 108.5226 377.8851 L 110.436 373.2657 M 106.6091 382.5045 L 111.2285 380.5911 L 115.8479 378.6777 L 120.4673 376.7643 M 106.6091 382.5045 L 110.1447 378.969 M 96.00253 393.1111 L 96.00253 388.1111 L 96.00253 383.1111 L 94.08913 378.4917 L 92.1757 373.8723 M 96.00253 383.1111 L 97.91595 378.4917 L 101.4515 374.9562 L 104.987 371.4207 M 97.91595 378.4917 L 97.91595 373.4917 L 97.91595 368.4917 L 97.91595 363.4917 L 97.91595 358.4917 M 97.91595 378.4917 L 99.82938 373.8723 L 101.7428 369.2529 L 103.6562 364.6335 L 107.1917 361.098 L 109.1052 356.4786 L 111.0186 351.8592 M 107.1917 361.098 L 110.7273 357.5625 L 114.2628 354.0269 L 117.7983 350.4914 M 103.6562 364.6335 L 105.5696 360.0141 M 96.00253 383.1111 L 96.00253 378.1111 L 97.91595 373.4917 L 99.82938 368.8723 M 96.00253 378.1111 L 94.08913 373.4917 L 92.1757 368.8723 L 90.26228 364.2529 L 88.34887 359.6335 M 96.00253 378.1111 L 96.00253 373.1111 L 96.00253 368.1111 L 96.00253 363.1111 L 97.91595 358.4917 L 97.91595 353.4917 L 97.91595 348.4917 M 97.91595 358.4917 L 99.82938 353.8723 L 101.7428 349.2529 L 103.6562 344.6335 M 96.00253 363.1111 L 94.08913 358.4917 L 90.55359 354.9562 L 85.93419 353.0428 L 81.3148 351.1294 M 90.55359 354.9562 L 87.01806 351.4207 M 94.08913 358.4917 L 94.08913 353.4917 L 92.1757 348.8723 L 90.26228 344.2529 M 94.08913 353.4917 L 96.00253 348.8723 L 97.91595 344.2529 L 99.82938 339.6335 M 94.08913 353.4917 L 94.08913 348.4917 M 94.08913 358.4917 L 92.1757 353.8723 L 88.64017 350.3368 L 85.10464 346.8013 M 92.1757 353.8723 L 92.1757 348.8723 L 92.1757 343.8723 L 92.1757 338.8723 M 92.1757 353.8723 L 90.26228 349.2529 L 88.34887 344.6335 L 86.43546 340.0141 L 84.52203 335.3947 L 82.60862 330.7753 L 80.6952 326.1559 M 96.00253 363.1111 L 96.00253 358.1111 M 96.00253 393.1111 L 97.91595 388.4917 L 99.82938 383.8723 L 99.82938 378.8723 L 101.7428 374.2529 L 103.6562 369.6335 L 105.5696 365.0141 M 99.82938 378.8723 L 99.82938 373.8723 L 99.82938 368.8723 L 99.82938 363.8723 L 99.82938 358.8723 L 99.82938 353.8723 L 99.82938 348.8723 M 99.82938 383.8723 L 101.7428 379.2529 L 101.7428 374.2529 L 101.7428 369.2529 M 101.7428 379.2529 L 103.6562 374.6335 L 107.1917 371.098 L 110.7273 367.5625 M 103.6562 374.6335 L 107.1917 371.098 L 109.1052 366.4786 L 111.0186 361.8592 L 111.0186 356.8592 L 111.0186 351.8592 M 111.0186 361.8592 L 112.932 357.2398 M 107.1917 371.098 L 110.7273 367.5625 L 114.2628 364.0269 L 117.7983 360.4914 L 119.7118 355.872 L 121.6252 351.2526 M 117.7983 360.4914 L 121.3339 356.9559 L 124.8694 353.4203 L 128.4049 349.8848 M 103.6562 374.6335 L 105.5696 370.0141 L 105.5696 365.0141 L 105.5696 360.0141 L 105.5696 355.0141 M 105.5696 370.0141 L 107.483 365.3947 L 109.3965 360.7753 L 112.932 357.2398 L 116.4675 353.7043 L 120.0031 350.1687 M 109.3965 360.7753 L 109.3965 355.7753 L 111.3099 351.1559 L 111.3099 346.1559 L 111.3099 341.1559 M 111.3099 351.1559 L 113.2233 346.5365 L 116.7588 343.001 L 120.2944 339.4655 M 113.2233 346.5365 L 115.1367 341.9171 M 109.3965 355.7753 L 109.3965 350.7753 L 109.3965 345.7753 L 107.483 341.1559 L 105.5696 336.5365 M 109.3965 345.7753 L 109.3965 340.7753 L 111.3099 336.1559 L 113.2233 331.5365 M 109.3965 340.7753 L 109.3965 335.7753 L 109.3965 330.7753 L 109.3965 325.7753 L 109.3965 320.7753 M 109.3965 360.7753 L 111.3099 356.1559 L 113.2233 351.5365 L 113.2233 346.5365 L 113.2233 341.5365 L 113.2233 336.5365 L 113.2233 331.5365 M 113.2233 351.5365 L 115.1367 346.9171 L 117.0501 342.2977 L 120.5857 338.7622 L 122.4991 334.1428 L 124.4125 329.5234 M 120.5857 338.7622 L 124.1212 335.2267 L 127.6567 331.6911 L 131.1923 328.1556 M 117.0501 342.2977 L 118.9635 337.6783 L 120.877 333.0589 L 120.877 328.0589 L 122.7904 323.4395 L 124.7038 318.8201 M 120.877 328.0589 L 120.877 323.0589 L 120.877 318.0589 L 120.877 313.0589 L 120.877 308.0589 M 120.877 333.0589 L 122.7904 328.4395 L 122.7904 323.4395 L 122.7904 318.4395 M 122.7904 328.4395 L 124.7038 323.8201 L 128.2393 320.2846 L 131.7749 316.7491 M 124.7038 323.8201 L 126.6172 319.2007 L 126.6172 314.2007 L 126.6172 309.2007 L 126.6172 304.2007 M 126.6172 319.2007 L 128.5306 314.5813 L 130.4441 309.9619 L 132.3575 305.3425 L 134.2709 300.7231 L 136.1843 296.1037 M 94.08913 397.7305 L 92.1757 393.1111 L 90.26228 388.4917 L 90.26228 383.4917 L 90.26228 378.4917 L 90.26228 373.4917 M 90.26228 388.4917 L 88.34887 383.8723 L 86.43546 379.2529 L 82.89992 375.7174 L 79.36439 372.1819 L 75.82886 368.6463 L 72.29332 365.1108 M 86.43546 379.2529 L 86.43546 374.2529 L 88.34887 369.6335 L 90.26228 365.0141 M 86.43546 374.2529 L 84.52203 369.6335 L 82.60862 365.0141 L 80.69521 360.3947 L 78.78178 355.7753 L 78.78178 350.7753 L 78.78178 345.7753 M 78.78178 355.7753 L 75.24625 352.2398 L 71.71072 348.7043 L 68.17519 345.1687 L 64.63965 341.6332 M 78.78178 355.7753 L 76.86836 351.1559 M 86.43546 374.2529 L 86.43546 369.2529 L 84.52203 364.6335 L 82.60862 360.0141 L 80.69521 355.3947 M 86.43546 369.2529 L 86.43546 364.2529 L 86.43546 359.2529 L 88.34887 354.6335 L 90.26228 350.0141 L 92.1757 345.3947 M 86.43546 359.2529 L 86.43546 354.2529 L 86.43546 349.2529 L 84.52203 344.6335 L 82.60862 340.0141 L 80.69521 335.3947 L 78.78178 330.7753 M 86.43546 349.2529 L 86.43546 344.2529 L 86.43546 339.2529 L 86.43546 334.2529 L 84.52203 329.6335 L 82.60862 325.0141 M 86.43546 334.2529 L 86.43546 329.2529 L 86.43546 324.2529 L 86.43546 319.2529 M 86.43546 379.2529 L 84.52203 374.6335 L 82.60862 370.0141 L 82.60862 365.0141 L 80.69521 360.3947 L 78.78178 355.7753 M 82.60862 365.0141 L 82.60862 360.0141 L 82.60862 355.0141 L 82.60862 350.0141 M 82.60862 370.0141 L 80.6952 365.3947 L 78.78178 360.7753 L 75.24625 357.2398 L 73.33282 352.6204 L 71.41942 348.001 M 75.24625 357.2398 L 71.71072 353.7043 L 68.17518 350.1687 L 64.63965 346.6332 L 61.10411 343.0977 M 78.78178 360.7753 L 75.24625 357.2398 L 71.71072 353.7043 L 69.79729 349.0849 L 66.26176 345.5493 L 62.72623 342.0138 L 58.10683 340.1004 L 53.48744 338.187 M 62.72623 342.0138 L 59.1907 338.4783 M 69.79729 349.0849 L 67.88388 344.4655 L 65.97046 339.8461 L 62.43493 336.3105 L 58.89939 332.775 M 65.97046 339.8461 L 65.97046 334.8461 L 64.05704 330.2267 L 62.14363 325.6073 M 65.97046 334.8461 L 65.97046 329.8461 L 65.97046 324.8461 L 65.97046 319.8461 M 65.97046 339.8461 L 64.05704 335.2267 M 71.71072 353.7043 L 68.17518 350.1687 L 63.55579 348.2553 L 58.93639 346.3419 M 68.17518 350.1687 L 66.26176 345.5493 L 64.34834 340.9299 L 62.43493 336.3105 M 68.17518 350.1687 L 64.63965 346.6332 L 61.10411 343.0977 L 56.48472 341.1843 L 51.86532 339.2708 L 47.24593 337.3574 L 42.62653 335.444 M 61.10411 343.0977 L 57.56858 339.5621 L 54.03305 336.0266 L 52.11963 331.4072 L 48.58409 327.8717 L 45.04856 324.3362 M 52.11963 331.4072 L 50.20621 326.7878 L 48.29279 322.1684 L 46.37938 317.549 M 54.03305 336.0266 L 50.49751 332.4911 L 46.96198 328.9556 L 42.34258 327.0421 L 37.72319 325.1287 M 46.96198 328.9556 L 43.42644 325.42 L 41.51303 320.8006 L 39.59961 316.1812 M 43.42644 325.42 L 39.89091 321.8845 L 36.35538 318.3489 L 32.81984 314.8134 L 29.28431 311.2779 M 78.78178 360.7753 L 76.86836 356.1559 L 74.95495 351.5365 L 74.95495 346.5365 L 73.04153 341.9171 L 71.12811 337.2977 L 69.2147 332.6783 M 74.95495 346.5365 L 74.95495 341.5365 L 74.95495 336.5365 L 74.95495 331.5365 L 74.95495 326.5365 L 74.95495 321.5365 M 74.95495 351.5365 L 73.04153 346.9171 L 71.12811 342.2977 L 67.59258 338.7622 L 65.67915 334.1428 L 63.76575 329.5234 L 61.85233 324.904 M 67.59258 338.7622 L 64.05704 335.2267 L 60.52151 331.6911 L 56.98598 328.1556 L 53.45045 324.6201 L 49.91491 321.0845 L 46.37938 317.549 M 71.12811 342.2977 L 71.12811 337.2977 L 73.04153 332.6783 L 74.95495 328.0589 L 76.86836 323.4395 M 71.12811 337.2977 L 69.2147 332.6783 L 69.2147 327.6783 L 67.30128 323.0589 L 65.38786 318.4395 M 69.2147 327.6783 L 69.2147 322.6783 L 71.12811 318.0589 L 73.04153 313.4395 M 69.2147 322.6783 L 69.2147 317.6783 M 69.2147 332.6783 L 67.30128 328.0589 L 63.76575 324.5234 L 60.23021 320.9879 M 67.30128 328.0589 L 65.38786 323.4395 L 65.38786 318.4395 L 65.38786 313.4395 M 65.38786 323.4395 L 61.85233 319.904 L 59.93891 315.2846 L 58.02549 310.6652 M 61.85233 319.904 L 58.31679 316.3685 L 54.78126 312.8329 L 51.24573 309.2974 L 47.71019 305.7618 M 65.38786 323.4395 L 63.47443 318.8201 M 71.12811 337.2977 L 71.12811 332.2977 L 71.12811 327.2977 L 69.2147 322.6783 L 67.30128 318.0589 L 65.38786 313.4395 L 63.47443 308.8201 M 71.12811 327.2977 L 71.12811 322.2977 L 71.12811 317.2977 L 73.04153 312.6783 L 73.04153 307.6783 L 73.04153 302.6783 M 73.04153 312.6783 L 74.95495 308.0589 L 76.86836 303.4395 L 78.78178 298.8201 M 71.12811 317.2977 L 71.12811 312.2977 L 71.12811 307.2977 L 69.2147 302.6783 L 69.2147 297.6783 L 69.2147 292.6783 M 69.2147 302.6783 L 67.30128 298.0589 L 65.38786 293.4395 L 63.47443 288.8201 L 61.56103 284.2007 M 71.12811 307.2977 L 71.12811 302.2977 L 69.2147 297.6783 L 67.30128 293.0589 M 71.12811 302.2977 L 71.12811 297.2977 L 73.04153 292.6783 L 74.95495 288.0589 M 71.12811 297.2977 L 71.12811 292.2977 L 69.2147 287.6783 L 67.30128 283.0589 L 65.38786 278.4395 M 71.12811 292.2977 L 71.12811 287.2977 L 71.12811 282.2977 L 71.12811 277.2977 L 71.12811 272.2977 L 71.12811 267.2977 M 71.12811 342.2977 L 69.2147 337.6783 L 67.30128 333.0589 L 63.76575 329.5234 L 60.23021 325.9879 M 67.30128 333.0589 L 67.30128 328.0589 L 65.38786 323.4395 L 63.47443 318.8201 L 59.93891 315.2846 L 56.40338 311.7491 M 63.47443 318.8201 L 61.56103 314.2007 M 67.30128 328.0589 L 67.30128 323.0589 L 67.30128 318.0589 L 67.30128 313.0589 L 65.38786 308.4395 L 63.47443 303.8201 M 67.30128 313.0589 L 67.30128 308.0589 L 67.30128 303.0589 L 67.30128 298.0589 M 67.30128 333.0589 L 65.38786 328.4395 L 65.38786 323.4395 L 65.38786 318.4395 M 65.38786 328.4395 L 63.47443 323.8201 L 59.93891 320.2846 L 56.40338 316.7491 L 52.86784 313.2135 M 63.47443 323.8201 L 59.93891 320.2846 L 58.02549 315.6652 L 54.48996 312.1296 L 50.95443 308.5941 M 58.02549 315.6652 L 56.11208 311.0458 L 56.11208 306.0458 L 56.11208 301.0458 M 56.11208 311.0458 L 54.19866 306.4264 M 59.93891 320.2846 L 56.40338 316.7491 L 52.86784 313.2135 L 48.24845 311.3001 L 43.62905 309.3867 M 52.86784 313.2135 L 49.33231 309.678 L 47.41889 305.0586 L 45.50547 300.4392 M 49.33231 309.678 L 45.79678 306.1425 L 42.26124 302.6069 L 38.72571 299.0714 L 35.19017 295.5358 M 63.47443 323.8201 L 61.56103 319.2007 L 59.64761 314.5813 L 59.64761 309.5813 L 59.64761 304.5813 L 59.64761 299.5813 M 59.64761 314.5813 L 57.73419 309.9619 L 55.82077 305.3425 L 52.28524 301.807 L 48.74971 298.2715 L 45.21416 294.7359 L 41.67864 291.2004 M 55.82077 305.3425 L 55.82077 300.3425 L 53.90736 295.7231 L 53.90736 290.7231 L 53.90736 285.7231 M 53.90736 295.7231 L 51.99394 291.1037 L 48.4584 287.5682 L 44.92287 284.0327 L 41.38734 280.4971 M 51.99394 291.1037 L 50.08052 286.4843 M 55.82077 300.3425 L 55.82077 295.3425 L 53.90736 290.7231 L 51.99394 286.1037 M 55.82077 295.3425 L 55.82077 290.3425 L 57.73419 285.7231 L 59.64761 281.1037 M 55.82077 290.3425 L 55.82077 285.3425 L 53.90736 280.7231 L 51.99394 276.1037 L 50.08052 271.4843 M 55.82077 285.3425 L 55.82077 280.3425 L 55.82077 275.3425 L 55.82077 270.3425 L 55.82077 265.3425 L 55.82077 260.3425 M 55.82077 305.3425 L 53.90736 300.7231 L 51.99394 296.1037 L 51.99394 291.1037 L 50.08052 286.4843 L 48.1671 281.8649 M 51.99394 291.1037 L 51.99394 286.1037 L 51.99394 281.1037 L 51.99394 276.1037 M 51.99394 296.1037 L 50.08052 291.4843 L 48.1671 286.8649 L 44.63157 283.3294 L 42.71815 278.71 L 40.80473 274.0906 M 44.63157 283.3294 L 41.09603 279.7939 L 37.5605 276.2583 L 34.02497 272.7228 L 30.48943 269.1873 M 48.1671 286.8649 L 46.25368 282.2455 L 44.34027 277.6261 L 40.80473 274.0906 L 37.2692 270.5551 M 44.34027 277.6261 L 44.34027 272.6261 L 42.42685 268.0067 L 40.51343 263.3873 L 38.60001 258.7679 M 44.34027 272.6261 L 44.34027 267.6261 L 44.34027 262.6261 L 44.34027 257.6261 L 44.34027 252.6261 L 44.34027 247.6261 M 44.34027 277.6261 L 42.42685 273.0067 L 42.42685 268.0067 L 42.42685 263.0067 M 42.42685 273.0067 L 40.51343 268.3873 L 36.9779 264.8518 L 33.44236 261.3163 L 29.90683 257.7807 M 40.51343 268.3873 L 38.60001 263.7679 L 36.6866 259.1485 L 36.6866 254.1485 L 36.6866 249.1485 L 36.6866 244.1485 M 36.6866 259.1485 L 34.77318 254.5291 L 32.85976 249.9097 L 30.94633 245.2903 L 29.03291 240.6709 L 27.11951 236.0515 L 25.20609 231.4321 M 94.08913 397.7305 L 94.08913 392.7305 L 94.08913 387.7305 L 96.00253 383.1111 L 97.91595 378.4917 L 99.82938 373.8723 M 94.08913 387.7305 L 94.08913 382.7305 L 94.08913 377.7305 L 92.1757 373.1111 L 90.26228 368.4917 L 88.34887 363.8723 L 86.43546 359.2529 M 94.08913 377.7305 L 96.00253 373.1111 L 99.53808 369.5756 L 103.0736 366.0401 M 96.00253 373.1111 L 96.00253 368.1111 L 96.00253 363.1111 L 96.00253 358.1111 L 96.00253 353.1111 L 97.91595 348.4917 L 99.82938 343.8723 M 96.00253 353.1111 L 94.08913 348.4917 L 92.1757 343.8723 L 90.26228 339.2529 L 88.34887 334.6335 M 96.00253 353.1111 L 96.00253 348.1111 M 96.00253 373.1111 L 97.91595 368.4917 L 97.91595 363.4917 L 97.91595 358.4917 L 97.91595 353.4917 M 97.91595 368.4917 L 99.82938 363.8723 L 101.7428 359.2529 L 105.2783 355.7174 L 108.8139 352.1819 L 112.3494 348.6463 M 101.7428 359.2529 L 103.6562 354.6335 L 105.5696 350.0141 L 105.5696 345.0141 L 105.5696 340.0141 L 105.5696 335.0141 L 105.5696 330.0141 M 105.5696 350.0141 L 107.483 345.3947 L 109.3965 340.7753 L 111.3099 336.1559 L 111.3099 331.1559 L 111.3099 326.1559 M 111.3099 336.1559 L 113.2233 331.5365 L 115.1367 326.9171 L 117.0501 322.2977 M 94.08913 377.7305 L 94.08913 372.7305 L 94.08913 367.7305 L 96.00253 363.1111 L 96.00253 358.1111 L 96.00253 353.1111 M 96.00253 363.1111 L 97.91595 358.4917 L 99.82938 353.8723 L 101.7428 349.2529 M 94.08913 367.7305 L 94.08913 362.7305 L 94.08913 357.7305 L 92.1757 353.1111 L 92.1757 348.1111 L 92.1757 343.1111 M 92.1757 353.1111 L 90.26228 348.4917 L 88.34887 343.8723 L 86.43546 339.2529 L 84.52203 334.6335 M 94.08913 357.7305 L 92.1757 353.1111 L 90.26228 348.4917 L 90.26228 343.4917 L 88.34887 338.8723 L 86.43546 334.2529 L 82.89992 330.7174 L 79.36439 327.1819 M 86.43546 334.2529 L 84.52203 329.6335 M 90.26228 343.4917 L 90.26228 338.4917 L 90.26228 333.4917 L 88.34887 328.8723 L 86.43546 324.2529 M 90.26228 333.4917 L 92.1757 328.8723 L 92.1757 323.8723 L 92.1757 318.8723 M 92.1757 328.8723 L 94.08913 324.2529 L 96.00253 319.6335 L 97.91595 315.0141 M 90.26228 333.4917 L 90.26228 328.4917 M 90.26228 348.4917 L 88.34887 343.8723 L 84.81334 340.3368 L 81.27779 336.8013 M 88.34887 343.8723 L 88.34887 338.8723 L 88.34887 333.8723 L 88.34887 328.8723 M 88.34887 343.8723 L 86.43546 339.2529 L 84.52203 334.6335 L 80.9865 331.098 L 77.45097 327.5624 L 73.91544 324.0269 L 70.3799 320.4914 M 84.52203 334.6335 L 82.60862 330.0141 L 80.6952 325.3947 L 80.6952 320.3947 L 78.78178 315.7753 L 76.86836 311.1559 M 80.6952 320.3947 L 80.6952 315.3947 L 80.6952 310.3947 L 80.6952 305.3947 M 80.6952 325.3947 L 78.78178 320.7753 L 76.86836 316.1559 L 73.33282 312.6204 L 69.79729 309.0848 M 76.86836 316.1559 L 74.95495 311.5365 L 74.95495 306.5365 L 74.95495 301.5365 M 74.95495 311.5365 L 73.04153 306.9171 L 71.12811 302.2977 L 69.2147 297.6783 L 67.30128 293.0589 M 94.08913 357.7305 L 94.08913 352.7305 L 94.08912 347.7305 L 96.00253 343.1111 L 96.00253 338.1111 L 96.00253 333.1111 L 96.00253 328.1111 M 96.00253 343.1111 L 97.91595 338.4917 L 99.82938 333.8723 L 101.7428 329.2529 L 103.6562 324.6335 L 105.5696 320.0141 M 94.08912 347.7305 L 94.08912 342.7305 L 94.08912 337.7305 L 92.1757 333.1111 L 92.1757 328.1111 L 92.1757 323.1111 L 92.1757 318.1111 M 92.1757 333.1111 L 90.26228 328.4917 L 88.34887 323.8723 L 86.43545 319.2529 L 84.52203 314.6335 L 82.60862 310.0141 L 80.6952 305.3947 M 94.08912 337.7305 L 96.00253 333.1111 L 99.53808 329.5756 L 103.0736 326.04 L 106.6091 322.5045 M 96.00253 333.1111 L 96.00253 328.1111 L 97.91595 323.4917 L 97.91595 318.4917 L 97.91595 313.4917 M 97.91595 323.4917 L 99.82938 318.8723 L 103.3649 315.3368 L 106.9004 311.8013 M 99.82938 318.8723 L 101.7428 314.2529 M 96.00253 328.1111 L 96.00253 323.1111 L 94.08912 318.4917 L 92.1757 313.8723 M 96.00253 323.1111 L 96.00253 318.1111 L 97.91595 313.4917 L 99.82938 308.8723 M 96.00253 318.1111 L 94.08912 313.4917 L 94.08912 308.4917 L 94.08912 303.4917 M 94.08912 313.4917 L 92.1757 308.8723 L 90.26228 304.2529 L 88.34887 299.6335 L 86.43545 295.0141 M 96.00253 318.1111 L 96.00253 313.1111 M 96.00253 333.1111 L 97.91595 328.4917 L 99.82938 323.8723 L 99.82938 318.8723 L 99.82938 313.8723 L 99.82938 308.8723 L 99.82938 303.8723 M 99.82938 323.8723 L 101.7428 319.2529 L 103.6562 314.6335 L 107.1917 311.098 L 109.1052 306.4786 L 111.0186 301.8592 M 107.1917 311.098 L 110.7273 307.5624 L 114.2628 304.0269 L 117.7983 300.4914 M 103.6562 314.6335 L 105.5696 310.0141 L 107.483 305.3947 L 107.483 300.3947 L 109.3965 295.7753 L 111.3099 291.1559 M 107.483 300.3947 L 107.483 295.3947 L 107.483 290.3947 L 107.483 285.3947 L 107.483 280.3947 M 107.483 305.3947 L 109.3965 300.7753 L 109.3965 295.7753 L 109.3965 290.7753 M 109.3965 300.7753 L 111.3099 296.1559 L 114.8454 292.6204 L 118.3809 289.0848 M 111.3099 296.1559 L 113.2233 291.5365 L 113.2233 286.5365 L 113.2233 281.5365 L 113.2233 276.5365 M 113.2233 291.5365 L 115.1367 286.9171 L 117.0501 282.2977 L 118.9635 277.6783 L 120.877 273.0589 L 122.7904 268.4395 M 94.08912 337.7305 L 94.08912 332.7305 L 94.08912 327.7305 L 92.1757 323.1111 L 90.26228 318.4917 M 94.08912 327.7305 L 96.00253 323.1111 L 96.00253 318.1111 L 96.00253 313.1111 L 94.08912 308.4917 L 92.1757 303.8723 M 96.00253 313.1111 L 96.00253 308.1111 M 96.00253 323.1111 L 97.91595 318.4917 L 99.82938 313.8723 L 101.7428 309.2529 L 101.7428 304.2529 L 101.7428 299.2529 M 101.7428 309.2529 L 103.6562 304.6335 L 105.5696 300.0141 L 107.483 295.3947 M 94.08912 327.7305 L 94.08912 322.7305 L 96.00253 318.1111 L 97.91595 313.4917 M 94.08912 322.7305 L 94.08912 317.7305 L 92.1757 313.1111 L 90.26228 308.4917 L 88.34887 303.8723 M 94.08912 317.7305 L 92.1757 313.1111 L 92.1757 308.1111 L 90.26228 303.4917 L 88.34887 298.8723 M 92.1757 308.1111 L 92.1757 303.1111 L 94.08912 298.4917 L 96.00253 293.8723 M 92.1757 303.1111 L 92.1757 298.1111 M 92.1757 313.1111 L 90.26228 308.4917 L 88.34887 303.8723 L 84.81334 300.3368 L 81.27779 296.8013 M 88.34887 303.8723 L 86.43545 299.2529 L 86.43545 294.2529 L 86.43545 289.2529 M 86.43545 299.2529 L 84.52203 294.6335 L 82.60862 290.0141 L 80.6952 285.3947 L 78.78178 280.7753 M 94.08912 317.7305 L 94.08912 312.7305 L 94.08912 307.7305 L 96.00253 303.1111 L 97.91595 298.4917 L 99.82937 293.8723 M 94.08912 307.7305 L 94.08912 302.7305 L 94.08912 297.7305 L 92.1757 293.1111 L 90.26228 288.4917 L 88.34887 283.8723 L 86.43545 279.2529 M 94.08912 297.7305 L 96.00253 293.1111 L 96.00253 288.1111 L 97.91595 283.4917 L 99.82937 278.8723 M 96.00253 288.1111 L 96.00253 283.1111 L 94.08912 278.4917 L 92.1757 273.8723 L 90.26228 269.2529 M 96.00253 283.1111 L 96.00253 278.1111 M 96.00253 293.1111 L 97.91595 288.4917 L 97.91595 283.4917 L 97.91595 278.4917 M 97.91595 288.4917 L 99.82937 283.8723 L 103.3649 280.3368 L 106.9004 276.8013 M 99.82937 283.8723 L 101.7428 279.2529 L 101.7428 274.2529 L 101.7428 269.2529 L 101.7428 264.2529 M 101.7428 279.2529 L 103.6562 274.6335 L 105.5696 270.0141 L 107.483 265.3947 L 109.3965 260.7753 L 111.3099 256.1559 M 94.08912 297.7305 L 94.08912 292.7305 L 94.08912 287.7305 L 96.00253 283.1111 L 96.00253 278.1111 L 96.00253 273.1111 M 96.00253 283.1111 L 97.91595 278.4917 L 99.82937 273.8723 L 101.7428 269.2529 M 94.08912 287.7305 L 94.08912 282.7305 L 94.08912 277.7305 L 92.1757 273.1111 L 92.1757 268.1111 L 92.1757 263.1111 M 92.1757 273.1111 L 90.26228 268.4917 L 88.34887 263.8723 L 86.43545 259.2529 L 84.52203 254.6335 M 94.08912 277.7305 L 94.08912 272.7305 L 94.08912 267.7305 L 92.1757 263.1111 L 90.26228 258.4917 M 94.08912 267.7305 L 96.00253 263.1111 L 96.00253 258.1111 L 96.00253 253.1111 L 96.00253 248.1111 M 96.00253 263.1111 L 97.91595 258.4917 L 99.82937 253.8723 L 101.7428 249.2529 L 103.6562 244.6335 L 105.5696 240.0141 M 94.08912 267.7305 L 94.08912 262.7305 L 96.00253 258.1111 L 97.91595 253.4917 M 94.08912 262.7305 L 94.08912 257.7305 L 92.1757 253.1111 L 90.26228 248.4917 L 88.34887 243.8723 M 94.08912 257.7305 L 94.08912 252.7305 L 94.08912 247.7305 L 96.00253 243.1111 L 97.91595 238.4917 L 99.82937 233.8723 M 94.08912 247.7305 L 94.08912 242.7305 L 94.08912 237.7305 L 94.08912 232.7305 L 94.08912 227.7305 L 94.08912 222.7305 L 96.00253 218.1111 L 97.91595 213.4917 L 97.91595 208.4917 L 99.82937 203.8723 L 101.7428 199.253 M 97.91595 208.4917 L 96.00253 203.8723 L 94.08912 199.253 L 92.1757 194.6336 L 90.26228 190.0142 M 97.91595 208.4917 L 97.91595 203.4917 M 97.91595 213.4917 L 99.82937 208.8723 L 99.82937 203.8723 L 99.82937 198.8723 L 99.82937 193.8723 L 99.82937 188.8723 M 99.82937 208.8723 L 103.3649 205.3368 L 106.9004 201.8013 L 110.436 198.2657 L 112.3494 193.6464 L 114.2628 189.027 M 110.436 198.2657 L 113.9715 194.7302 L 117.507 191.1947 L 121.0426 187.6592 M 99.82937 208.8723 L 101.7428 204.2529 L 103.6562 199.6335 L 103.6562 194.6335 L 105.5696 190.0142 L 107.483 185.3948 L 109.3965 180.7754 M 103.6562 194.6335 L 103.6562 189.6335 L 103.6562 184.6335 L 103.6562 179.6335 L 103.6562 174.6335 L 103.6562 169.6335 L 103.6562 164.6335 M 103.6562 199.6335 L 103.6562 194.6335 L 103.6562 189.6335 L 103.6562 184.6335 L 103.6562 179.6335 L 101.7428 175.0142 L 99.82937 170.3948 L 97.91595 165.7754 M 103.6562 179.6335 L 105.5696 175.0142 L 107.483 170.3948 L 109.3965 165.7754 L 111.3099 161.156 L 113.2233 156.5366 M 103.6562 179.6335 L 103.6562 174.6335 L 103.6562 169.6335 L 103.6562 164.6335 L 103.6562 159.6335 L 101.7428 155.0142 L 101.7428 150.0142 L 101.7428 145.0142 M 101.7428 155.0142 L 99.82937 150.3948 L 97.91595 145.7754 L 96.00253 141.156 L 94.08912 136.5366 M 103.6562 159.6335 L 103.6562 154.6335 M 103.6562 199.6335 L 103.6562 194.6335 L 103.6562 189.6335 L 103.6562 184.6335 L 103.6562 179.6335 L 101.7428 175.0142 L 99.82937 170.3948 L 97.91595 165.7754 M 103.6562 179.6335 L 105.5696 175.0142 L 107.483 170.3948 L 109.3965 165.7754 L 111.3099 161.156 L 113.2233 156.5366 M 103.6562 179.6335 L 103.6562 174.6335 L 103.6562 169.6335 L 103.6562 164.6335 L 103.6562 159.6335 L 101.7428 155.0142 L 101.7428 150.0142 L 101.7428 145.0142 M 101.7428 155.0142 L 99.82937 150.3948 L 97.91595 145.7754 L 96.00253 141.156 L 94.08912 136.5366 M 103.6562 159.6335 L 105.5696 155.0142 L 109.1052 151.4786 L 112.6407 147.9431 M 105.5696 155.0142 L 107.483 150.3948 L 107.483 145.3948 L 107.483 140.3948 L 107.483 135.3948 M 107.483 150.3948 L 107.483 145.3948 L 107.483 140.3948 L 109.3965 135.7754 L 111.3099 131.156 L 113.2233 126.5366 M 107.483 140.3948 L 105.5696 135.7754 L 103.6562 131.156 L 101.7428 126.5366 L 99.82937 121.9172 L 97.91595 117.2979 L 96.00253 112.6785 M 107.483 140.3948 L 107.483 135.3948 M 107.483 150.3948 L 109.3965 145.7754 L 112.932 142.2399 L 116.4675 138.7043 L 120.0031 135.1688 M 109.3965 145.7754 L 109.3965 140.7754 L 109.3965 135.7754 L 109.3965 130.7754 L 109.3965 125.7754 L 109.3965 120.7754 L 109.3965 115.7754 M 109.3965 145.7754 L 111.3099 141.156 L 111.3099 136.156 L 111.3099 131.156 M 111.3099 141.156 L 113.2233 136.5366 L 116.7588 133.0011 L 120.2944 129.4656 M 113.2233 136.5366 L 115.1367 131.9172 L 115.1367 126.9172 L 115.1367 121.9172 L 115.1367 116.9172 M 115.1367 131.9172 L 117.0501 127.2979 L 118.9635 122.6785 L 120.877 118.0591 L 122.7904 113.4397 L 124.7038 108.8203 M 103.6562 159.6335 L 101.7428 155.0142 L 101.7428 150.0142 L 103.6562 145.3948 L 105.5696 140.7754 M 101.7428 150.0142 L 101.7428 145.0142 M 101.7428 155.0142 L 99.82937 150.3948 L 96.29384 146.8593 L 92.75829 143.3237 L 89.22276 139.7882 L 85.68723 136.2527 M 99.82937 150.3948 L 97.91595 145.7754 L 94.38042 142.2399 L 90.84488 138.7043 M 97.91595 145.7754 L 97.91595 140.7754 L 97.91595 135.7754 L 97.91595 130.7754 L 97.91595 125.7754 M 97.91595 145.7754 L 94.38042 142.2399 L 90.84488 138.7043 L 87.30935 135.1688 L 83.77382 131.6333 L 81.8604 127.0139 L 79.94698 122.3945 M 83.77382 131.6333 L 80.23827 128.0978 L 76.70274 124.5623 L 73.16721 121.0267 L 69.63168 117.4912 M 97.91595 145.7754 L 96.00253 141.156 L 96.00253 136.156 L 96.00253 131.156 M 96.00253 141.156 L 94.08912 136.5366 L 90.55357 133.0011 L 87.01804 129.4656 L 83.48251 125.9301 M 94.08912 136.5366 L 94.08912 131.5366 L 92.1757 126.9172 L 90.26228 122.2979 L 86.72675 118.7623 L 83.19122 115.2268 M 90.26228 122.2979 L 88.34887 117.6785 M 94.08912 131.5366 L 94.08912 126.5366 L 94.08912 121.5366 L 94.08912 116.5366 L 92.1757 111.9172 L 90.26228 107.2979 M 94.08912 116.5366 L 94.08912 111.5366 L 94.08912 106.5366 L 94.08912 101.5366 M 94.08912 136.5366 L 92.1757 131.9172 L 90.26228 127.2979 L 90.26228 122.2979 L 90.26228 117.2979 L 90.26228 112.2979 M 90.26228 127.2979 L 88.34887 122.6785 L 86.43545 118.0591 L 82.8999 114.5236 L 79.36438 110.988 L 75.82884 107.4525 L 72.2933 103.917 M 86.43545 118.0591 L 84.52203 113.4397 L 82.6086 108.8203 L 82.6086 103.8203 L 80.6952 99.20093 L 78.78178 94.58154 M 82.6086 103.8203 L 82.6086 98.82031 L 82.6086 93.82031 L 82.6086 88.82031 M 82.6086 108.8203 L 80.69519 104.2009 L 78.78178 99.58154 L 75.24624 96.04602 L 71.71071 92.5105 M 78.78178 99.58154 L 76.86835 94.96216 L 76.86835 89.96216 L 76.86835 84.96216 M 76.86835 94.96216 L 74.95494 90.34277 L 73.04152 85.72339 L 71.12811 81.104 L 69.21469 76.48462 M 103.6562 159.6335 L 103.6562 154.6335 M 103.6562 199.6335 L 105.5696 195.0142 L 107.483 190.3948 L 111.0186 186.8593 L 112.932 182.2399 L 114.8454 177.6205 L 114.8454 172.6205 L 114.8454 167.6205 M 114.8454 177.6205 L 116.7588 173.0011 M 111.0186 186.8593 L 114.5541 183.3237 L 118.0896 179.7882 L 121.6252 176.2527 L 123.5386 171.6333 L 125.452 167.0139 M 121.6252 176.2527 L 125.1607 172.7172 L 128.6962 169.1816 L 132.2318 165.6461 M 107.483 190.3948 L 111.0186 186.8593 L 114.5541 183.3237 L 118.0896 179.7882 L 121.6252 176.2527 L 123.5386 171.6333 L 125.452 167.0139 M 121.6252 176.2527 L 126.2446 174.3393 L 130.864 172.4258 L 135.4834 170.5124 M 121.6252 176.2527 L 123.5386 171.6333 L 125.452 167.0139 L 127.3654 162.3945 L 129.2788 157.7751 L 131.1923 153.1558 L 133.1057 148.5364 M 121.6252 176.2527 L 125.1607 172.7172 L 128.6962 169.1816 L 132.2318 165.6461 L 135.7673 162.1106 L 139.3028 158.5751 L 143.9222 156.6617 L 147.4578 153.1261 L 149.3712 148.5067 L 151.2846 143.8874 M 147.4578 153.1261 L 150.9933 149.5906 M 143.9222 156.6617 L 148.5416 154.7482 L 152.0772 151.2127 L 155.6127 147.6772 M 148.5416 154.7482 L 153.161 152.8348 L 157.7804 150.9214 L 162.3998 149.008 M 139.3028 158.5751 L 142.8384 155.0396 M 107.483 190.3948 L 107.483 185.3948 L 105.5696 180.7754 L 103.6562 176.156 L 101.7428 171.5366 M 107.483 185.3948 L 107.483 180.3948 L 109.3965 175.7754 L 111.3099 171.156 L 113.2233 166.5366 M 107.483 180.3948 L 107.483 175.3948 L 105.5696 170.7754 L 103.6562 166.156 M 107.483 175.3948 L 105.5696 170.7754 L 103.6562 166.156 L 101.7428 161.5366 L 99.82937 156.9172 M 107.483 175.3948 L 107.483 170.3948 L 109.3965 165.7754 L 111.3099 161.156 M 107.483 170.3948 L 109.3965 165.7754 L 111.3099 161.156 L 113.2233 156.5366 L 115.1367 151.9172 M 107.483 170.3948 L 107.483 165.3948 L 105.5696 160.7754 L 103.6562 156.156 L 101.7428 151.5366 M 107.483 165.3948 L 105.5696 160.7754 L 103.6562 156.156 L 101.7428 151.5366 L 98.20724 148.0011 L 94.67171 144.4656 M 101.7428 151.5366 L 99.82937 146.9172 M 107.483 165.3948 L 109.3965 160.7754 L 111.3099 156.156 L 113.2233 151.5366 L 115.1367 146.9172 L 117.0501 142.2979 L 117.0501 137.2979 L 117.0501 132.2979 L 117.0501 127.2979 M 117.0501 142.2979 L 118.9635 137.6785 L 120.877 133.0591 L 122.7904 128.4397 L 124.7038 123.8203 L 126.6172 119.2009 M 107.483 165.3948 L 107.483 160.3948 L 107.483 155.3948 L 109.3965 150.7754 L 111.3099 146.156 L 113.2233 141.5366 M 107.483 155.3948 L 107.483 150.3948 L 107.483 145.3948 L 105.5696 140.7754 L 103.6562 136.156 L 101.7428 131.5366 L 99.82937 126.9172 M 107.483 145.3948 L 107.483 140.3948 L 107.483 135.3948 L 109.3965 130.7754 L 109.3965 125.7754 L 109.3965 120.7754 M 109.3965 130.7754 L 111.3099 126.156 L 113.2233 121.5366 L 115.1367 116.9172 M 107.483 135.3948 L 107.483 130.3948 L 107.483 125.3948 L 105.5696 120.7754 L 103.6562 116.156 M 107.483 125.3948 L 107.483 120.3948 L 109.3965 115.7754 L 111.3099 111.156 M 107.483 120.3948 L 107.483 115.3948 L 107.483 110.3948 L 107.483 105.3948 L 107.483 100.3948 M 107.483 190.3948 L 109.3965 185.7754 L 109.3965 180.7754 L 109.3965 175.7754 M 109.3965 185.7754 L 111.3099 181.156 L 114.8454 177.6205 L 118.3809 174.085 M 111.3099 181.156 L 111.3099 176.156 L 113.2233 171.5366 L 115.1367 166.9172 L 117.0501 162.2979 L 120.5857 158.7623 L 124.1212 155.2268 M 117.0501 162.2979 L 118.9635 157.6785 M 111.3099 176.156 L 111.3099 171.156 L 111.3099 166.156 L 109.3965 161.5366 L 107.483 156.9172 M 111.3099 166.156 L 111.3099 161.156 L 113.2233 156.5366 L 115.1367 151.9172 M 111.3099 161.156 L 111.3099 156.156 L 111.3099 151.156 L 111.3099 146.156 L 111.3099 141.156 M 111.3099 181.156 L 113.2233 176.5366 L 113.2233 171.5366 L 113.2233 166.5366 L 113.2233 161.5366 M 113.2233 176.5366 L 115.1367 171.9172 L 117.0501 167.2979 L 120.5857 163.7623 L 124.1212 160.2268 L 127.6567 156.6913 M 117.0501 167.2979 L 120.5857 163.7623 L 122.4991 159.1429 L 126.0346 155.6074 L 129.5701 152.0719 M 122.4991 159.1429 L 124.4125 154.5236 L 124.4125 149.5236 L 124.4125 144.5236 L 124.4125 139.5236 M 124.4125 154.5236 L 126.3259 149.9042 M 120.5857 163.7623 L 124.1212 160.2268 L 126.0346 155.6074 L 127.948 150.988 M 124.1212 160.2268 L 127.6567 156.6913 L 132.2761 154.7779 L 136.8955 152.8644 M 127.6567 156.6913 L 131.1923 153.1558 L 133.1057 148.5364 L 135.0191 143.917 L 136.9325 139.2976 M 131.1923 153.1558 L 134.7278 149.6202 L 138.2633 146.0847 L 141.7989 142.5492 L 145.3344 139.0137 L 148.8699 135.4781 M 117.0501 167.2979 L 118.9635 162.6785 L 120.877 158.0591 L 120.877 153.0591 L 120.877 148.0591 L 120.877 143.0591 L 120.877 138.0591 M 120.877 158.0591 L 122.7904 153.4397 L 124.7038 148.8203 L 128.2393 145.2848 L 130.1527 140.6654 L 132.0662 136.046 M 128.2393 145.2848 L 131.7749 141.7493 L 135.3104 138.2137 L 138.8459 134.6782 M 124.7038 148.8203 L 124.7038 143.8203 L 122.7904 139.2009 L 120.877 134.5815 M 124.7038 143.8203 L 126.6172 139.2009 L 126.6172 134.2009 L 126.6172 129.2009 L 126.6172 124.2009 M 126.6172 139.2009 L 128.5306 134.5815 L 130.444 129.9622 L 133.9796 126.4266 L 137.5151 122.8911 L 141.0506 119.3556 M 130.444 129.9622 L 132.3575 125.3428 M 124.7038 143.8203 L 124.7038 138.8203 L 126.6172 134.2009 L 128.5306 129.5815 M 124.7038 138.8203 L 124.7038 133.8203 L 122.7904 129.2009 L 120.877 124.5815 L 118.9635 119.9622 M 124.7038 133.8203 L 124.7038 128.8203 L 124.7038 123.8203 L 126.6172 119.2009 L 128.5306 114.5815 L 130.444 109.9622 M 124.7038 123.8203 L 124.7038 118.8203 L 124.7038 113.8203 L 124.7038 108.8203 L 124.7038 103.8203 L 124.7038 98.82031 L 124.7038 93.82031 M 124.7038 148.8203 L 126.6172 144.2009 L 128.5306 139.5815 L 128.5306 134.5815 L 130.444 129.9622 L 132.3575 125.3428 M 128.5306 134.5815 L 128.5306 129.5815 L 128.5306 124.5815 L 128.5306 119.5815 L 128.5306 114.5815 M 128.5306 139.5815 L 130.444 134.9622 L 132.3575 130.3428 L 135.893 126.8073 L 137.8064 122.1879 L 139.7198 117.5685 L 141.6332 112.9491 M 135.893 126.8073 L 139.4285 123.2717 L 142.9641 119.7362 L 146.4996 116.2007 L 150.0351 112.6652 L 153.5707 109.1296 M 132.3575 130.3428 L 134.2709 125.7234 L 134.2709 120.7234 L 134.2709 115.7234 M 134.2709 125.7234 L 136.1843 121.104 L 139.7198 117.5685 L 143.2554 114.033 M 136.1843 121.104 L 136.1843 116.104 L 138.0977 111.4846 L 140.0111 106.8652 L 141.9246 102.2458 M 136.1843 116.104 L 136.1843 111.104 L 136.1843 106.104 L 136.1843 101.104 L 136.1843 96.104 L 136.1843 91.104 L 136.1843 86.104 M 136.1843 121.104 L 138.0977 116.4846 L 138.0977 111.4846 L 138.0977 106.4846 L 138.0977 101.4846 M 138.0977 116.4846 L 140.0111 111.8652 L 141.9246 107.2458 L 145.4601 103.7103 L 148.9956 100.1748 L 152.5312 96.63928 M 141.9246 107.2458 L 143.838 102.6265 L 145.7514 98.00708 L 145.7514 93.00708 L 145.7514 88.00708 L 145.7514 83.00708 L 145.7514 78.00708 M 145.7514 98.00708 L 147.6648 93.3877 L 149.5782 88.76831 L 151.4916 84.14893 L 151.4916 79.14893 L 151.4916 74.14893 M 151.4916 84.14893 L 153.4051 79.52954 L 155.3185 74.91016 L 157.2319 70.29077 M 94.08912 222.7305 L 92.1757 218.1111 L 90.26228 213.4917 L 88.34887 208.8723 L 84.81332 205.3368 L 81.27779 201.8013 L 77.74226 198.2657 L 74.20673 194.7302 M 88.34887 208.8723 L 86.43545 204.2529 L 86.43545 199.2529 L 86.43545 194.2529 L 86.43545 189.2529 L 86.43545 184.2529 M 86.43545 204.2529 L 82.89992 200.7174 L 79.36438 197.1819 L 75.82884 193.6464 L 72.2933 190.1108 L 70.3799 185.4915 L 68.46648 180.8721 M 72.2933 190.1108 L 68.75777 186.5753 L 65.22224 183.0398 L 61.68671 179.5043 L 58.15118 175.9688 M 86.43545 204.2529 L 84.52203 199.6335 L 82.6086 195.0142 L 82.6086 190.0142 L 80.6952 185.3948 L 78.78178 180.7754 L 75.24625 177.2399 L 71.71071 173.7043 M 78.78178 180.7754 L 76.86835 176.156 M 82.6086 190.0142 L 82.6086 185.0142 L 82.6086 180.0142 L 82.6086 175.0142 L 80.6952 170.3948 L 78.78178 165.7754 M 82.6086 175.0142 L 82.6086 170.0142 L 82.6086 165.0142 L 82.6086 160.0142 M 82.6086 195.0142 L 79.07307 191.4786 L 77.15965 186.8593 L 75.24625 182.2399 L 73.33282 177.6205 M 79.07307 191.4786 L 74.45367 189.5652 L 69.83429 187.6518 L 64.83429 187.6518 L 59.83429 187.6518 L 54.83429 187.6518 L 49.83429 187.6518 M 69.83429 187.6518 L 65.21489 185.7384 M 79.07307 191.4786 L 75.53754 187.9431 L 72.00201 184.4076 L 67.38261 182.4942 L 62.76321 180.5807 L 58.14382 178.6673 L 53.52442 176.7539 M 72.00201 184.4076 L 70.08858 179.7882 L 68.17518 175.1688 L 66.26176 170.5494 L 62.72622 167.0139 L 59.19069 163.4784 M 66.26176 170.5494 L 64.34834 165.9301 L 62.43492 161.3107 L 60.52151 156.6913 M 72.00201 184.4076 L 68.46648 180.8721 L 64.93094 177.3365 L 61.3954 173.801 L 56.776 171.8876 L 52.15662 169.9742 M 61.3954 173.801 L 57.85987 170.2655 L 54.32434 166.73 L 49.70494 164.8166 L 45.08555 162.9031 L 41.55001 159.3676 L 39.6366 154.7482 L 37.72318 150.1288 M 41.55001 159.3676 L 38.01448 155.8321 M 45.08555 162.9031 L 40.46615 160.9897 L 36.93062 157.4542 L 33.39508 153.9187 M 40.46615 160.9897 L 35.84676 159.0763 L 31.22736 157.1629 L 26.60796 155.2495 L 21.98856 153.336 M 54.32434 166.73 L 50.78881 163.1945 M 82.6086 195.0142 L 80.6952 190.3948 L 78.78178 185.7754 L 75.24624 182.2399 L 73.33282 177.6205 L 71.4194 173.0011 L 69.50599 168.3817 L 69.50599 163.3817 L 69.50599 158.3817 M 69.50599 168.3817 L 67.59257 163.7623 M 75.24624 182.2399 L 71.71071 178.7043 L 68.17518 175.1688 L 63.55578 173.2554 L 58.93638 171.342 M 68.17518 175.1688 L 64.63963 171.6333 L 62.72622 167.0139 L 60.81281 162.3945 M 64.63963 171.6333 L 61.10411 168.0978 L 57.56857 164.5623 L 54.03304 161.0267 L 50.4975 157.4912 M 78.78178 185.7754 L 78.78178 180.7754 L 76.86835 176.156 L 74.95494 171.5366 L 71.4194 168.0011 L 67.88388 164.4656 M 74.95494 171.5366 L 73.04153 166.9172 M 78.78178 180.7754 L 80.6952 176.156 L 82.6086 171.5366 L 82.6086 166.5366 L 82.6086 161.5366 M 82.6086 171.5366 L 86.14415 168.0011 L 88.05756 163.3817 L 89.97098 158.7623 M 86.14415 168.0011 L 89.67968 164.4656 L 93.21522 160.9301 L 96.75075 157.3945 M 82.6086 171.5366 L 84.52203 166.9172 M 78.78178 180.7754 L 78.78178 175.7754 L 78.78178 170.7754 L 80.6952 166.156 L 80.6952 161.156 L 80.6952 156.156 M 80.6952 166.156 L 82.6086 161.5366 L 84.52203 156.9172 L 86.43545 152.2979 M 78.78178 170.7754 L 76.86835 166.156 L 74.95494 161.5366 L 71.4194 158.0011 L 67.88388 154.4656 M 74.95494 161.5366 L 73.04153 156.9172 L 73.04153 151.9172 L 73.04153 146.9172 M 73.04153 156.9172 L 71.12811 152.2979 L 69.21469 147.6785 L 67.30127 143.0591 L 65.38786 138.4397 M 78.78178 170.7754 L 78.78178 165.7754 L 78.78178 160.7754 L 76.86835 156.156 L 74.95494 151.5366 M 78.78178 160.7754 L 78.78178 155.7754 L 80.6952 151.156 L 82.6086 146.5366 M 78.78178 155.7754 L 78.78178 150.7754 L 78.78178 145.7754 L 78.78178 140.7754 L 80.6952 136.156 L 82.6086 131.5366 L 82.6086 126.5366 L 80.6952 121.9172 L 78.78178 117.2979 L 76.86835 112.6785 M 82.6086 126.5366 L 82.6086 121.5366 M 82.6086 131.5366 L 84.52203 126.9172 L 84.52203 121.9172 L 84.52203 116.9172 L 84.52203 111.9172 M 84.52203 126.9172 L 86.43545 122.2979 L 88.34887 117.6785 L 90.26228 113.0591 L 92.1757 108.4397 L 94.08912 103.8203 M 78.78178 140.7754 L 78.78178 135.7754 M 78.78178 185.7754 L 75.24624 182.2399 L 73.33282 177.6205 L 71.4194 173.0011 L 69.50599 168.3817 L 69.50599 163.3817 L 69.50599 158.3817 M 69.50599 168.3817 L 67.59257 163.7623 M 75.24624 182.2399 L 71.71071 178.7043 L 68.17518 175.1688 L 63.55578 173.2554 L 58.93638 171.342 L 54.31699 169.4286 L 49.31699 169.4286 L 44.31699 169.4286 M 54.31699 169.4286 L 49.69759 167.5151 M 68.17518 175.1688 L 64.63963 171.6333 L 60.02024 169.7199 L 55.40085 167.8065 M 64.63963 171.6333 L 62.72622 167.0139 L 60.81281 162.3945 L 58.89939 157.7751 M 64.63963 171.6333 L 62.72622 167.0139 L 60.81281 162.3945 L 57.27727 158.859 L 53.74174 155.3235 M 60.81281 162.3945 L 58.89939 157.7751 L 58.89939 152.7751 L 58.89939 147.7751 M 58.89939 157.7751 L 56.98597 153.1558 M 64.63963 171.6333 L 61.10411 168.0978 L 57.56857 164.5623 L 52.94918 162.6488 L 48.32978 160.7354 L 43.71038 158.822 L 39.09099 156.9086 M 57.56857 164.5623 L 52.94918 162.6488 L 48.32978 160.7354 L 43.71038 158.822 L 40.17485 155.2865 L 36.63932 151.7509 M 43.71038 158.822 L 39.09099 156.9086 L 34.09099 156.9086 L 29.09099 156.9086 L 24.09099 156.9086 M 39.09099 156.9086 L 34.47159 154.9951 M 57.56857 164.5623 L 55.65515 159.9429 L 53.74174 155.3235 L 51.82832 150.7041 L 49.9149 146.0847 L 46.37937 142.5492 L 42.84383 139.0137 M 49.9149 146.0847 L 48.00148 141.4653 L 48.00148 136.4653 L 48.00148 131.4653 M 48.00148 141.4653 L 44.46595 137.9298 L 40.93042 134.3943 L 37.39488 130.8588 L 33.85935 127.3232 M 48.00148 141.4653 L 46.08807 136.8459 L 44.17465 132.2266 L 42.26123 127.6072 L 38.7257 124.0717 L 35.19016 120.5361 M 42.26123 127.6072 L 40.34781 122.9878 L 38.43439 118.3684 L 36.52098 113.749 M 57.56857 164.5623 L 54.03304 161.0267 L 50.4975 157.4912 L 48.58409 152.8718 L 45.04855 149.3363 L 41.51302 145.8008 M 48.58409 152.8718 L 46.67067 148.2524 L 44.75725 143.6331 L 42.84383 139.0137 M 50.4975 157.4912 L 46.96197 153.9557 L 43.42644 150.4202 L 38.80704 148.5067 L 35.27151 144.9712 L 31.73597 141.4357 M 38.80704 148.5067 L 34.18764 146.5933 L 29.56824 144.6799 L 24.94884 142.7665 L 20.32944 140.8531 M 43.42644 150.4202 L 39.8909 146.8846 L 36.35537 143.3491 L 31.73597 141.4357 L 27.11657 139.5223 M 36.35537 143.3491 L 34.44195 138.7297 L 30.90642 135.1942 L 27.37088 131.6587 L 23.83535 128.1232 M 34.44195 138.7297 L 32.52853 134.1104 L 30.61512 129.491 L 28.7017 124.8716 L 26.78828 120.2522 L 24.87487 115.6328 M 36.35537 143.3491 L 32.81984 139.8136 L 30.90642 135.1942 L 28.993 130.5748 M 32.81984 139.8136 L 29.28429 136.2781 L 24.66489 134.3647 L 20.04549 132.4512 L 15.42609 130.5378 M 29.28429 136.2781 L 25.74876 132.7426 L 22.21322 129.207 L 20.2998 124.5876 L 18.38638 119.9683 L 16.47298 115.3489 M 22.21322 129.207 L 18.67767 125.6715 L 15.14214 122.136 L 11.60661 118.6005 L 8.071068 115.0649 L 4.53553 111.5294 L 1 107.9939 M 78.78178 185.7754 L 76.86835 181.156 L 74.95494 176.5366 L 71.4194 173.0011 L 67.88388 169.4656 M 74.95494 176.5366 L 74.95494 171.5366 L 73.04153 166.9172 L 71.12811 162.2979 L 69.21469 157.6785 L 65.67915 154.1429 L 62.14362 150.6074 L 58.60809 147.0719 M 69.21469 157.6785 L 67.30127 153.0591 M 74.95494 171.5366 L 74.95494 166.5366 L 74.95494 161.5366 L 74.95494 156.5366 L 76.86835 151.9172 L 78.78178 147.2979 M 74.95494 156.5366 L 74.95494 151.5366 L 73.04153 146.9172 L 71.12811 142.2979 L 69.21469 137.6785 M 74.95494 151.5366 L 74.95494 146.5366 L 74.95494 141.5366 L 74.95494 136.5366 L 74.95494 131.5366 L 74.95494 126.5366 M 74.95494 176.5366 L 73.04153 171.9172 L 73.04153 166.9172 L 73.04153 161.9172 M 73.04153 171.9172 L 71.12811 167.2979 L 67.59257 163.7623 L 64.05704 160.2268 L 60.52151 156.6913 M 71.12811 167.2979 L 67.59257 163.7623 L 64.05704 160.2268 L 62.14362 155.6074 L 60.23021 150.988 L 58.31679 146.3687 L 54.78125 142.8331 L 51.24572 139.2976 M 58.31679 146.3687 L 58.31679 141.3687 L 58.31679 136.3687 L 58.31679 131.3687 M 58.31679 146.3687 L 56.40337 141.7493 M 64.05704 160.2268 L 60.52151 156.6913 L 56.98597 153.1558 L 53.45044 149.6202 L 48.83104 147.7068 L 44.21165 145.7934 L 39.59225 143.88 M 53.45044 149.6202 L 49.91491 146.0847 L 46.37937 142.5492 L 44.46595 137.9298 L 42.55254 133.3104 L 40.63912 128.691 M 46.37937 142.5492 L 42.84384 139.0137 L 39.3083 135.4781 L 35.77277 131.9426 L 32.23724 128.4071 L 28.7017 124.8716 L 25.16615 121.3361 M 71.12811 167.2979 L 71.12811 162.2979 L 73.04153 157.6785 L 74.95494 153.0591 L 76.86835 148.4397 L 76.86835 143.4397 L 76.86835 138.4397 M 76.86835 148.4397 L 80.4039 144.9042 L 83.93942 141.3687 L 87.47496 137.8331 M 76.86835 148.4397 L 78.78178 143.8203 M 71.12811 162.2979 L 69.21469 157.6785 L 67.30127 153.0591 L 63.76574 149.5236 L 60.23021 145.988 M 67.30127 153.0591 L 67.30127 148.0591 L 69.21469 143.4397 L 71.12811 138.8203 M 67.30127 148.0591 L 65.38786 143.4397 L 63.47443 138.8203 L 61.56102 134.2009 L 59.6476 129.5815 M 67.30127 148.0591 L 67.30127 143.0591 L 67.30127 138.0591 L 67.30127 133.0591 L 69.21469 128.4397 L 69.21469 123.4397 L 69.21469 118.4397 M 69.21469 128.4397 L 71.12811 123.8203 L 73.04153 119.2009 L 74.95494 114.5815 M 67.30127 133.0591 L 67.30127 128.0591 M 67.30127 153.0591 L 65.38786 148.4397 L 65.38786 143.4397 L 65.38786 138.4397 M 65.38786 148.4397 L 61.85232 144.9042 L 58.31679 141.3687 L 54.78125 137.8331 L 51.24572 134.2976 M 65.38786 148.4397 L 63.47443 143.8203 L 61.56102 139.2009 L 59.6476 134.5815 L 59.6476 129.5815 L 57.73418 124.9622 L 55.82077 120.3428 M 59.6476 129.5815 L 59.6476 124.5815 L 59.6476 119.5815 L 59.6476 114.5815 M 59.6476 134.5815 L 56.11207 131.046 L 51.49267 129.1326 L 46.49267 129.1326 L 41.49267 129.1326 M 51.49267 129.1326 L 46.87328 127.2192 M 56.11207 131.046 L 54.19865 126.4266 L 50.66312 122.8911 L 47.12757 119.3556 M 54.19865 126.4266 L 54.19865 121.4266 L 54.19865 116.4266 L 54.19865 111.4266 M 54.19865 126.4266 L 52.28522 121.8073 M 56.11207 131.046 L 52.57653 127.5105 L 47.95714 125.5971 L 43.33774 123.6837 M 52.57653 127.5105 L 50.66312 122.8911 L 48.74969 118.2717 L 46.83628 113.6523 M 52.57653 127.5105 L 49.041 123.975 L 45.50547 120.4395 L 41.96992 116.9039 L 38.43439 113.3684 L 34.89886 109.8329 L 31.36333 106.2974 M 59.6476 134.5815 L 57.73418 129.9622 M 71.12811 162.2979 L 71.12811 157.2979 L 71.12811 152.2979 L 69.21469 147.6785 L 69.21469 142.6785 L 69.21469 137.6785 L 69.21469 132.6785 M 69.21469 147.6785 L 67.30127 143.0591 L 65.38786 138.4397 L 63.47443 133.8203 L 61.56102 129.2009 L 59.6476 124.5815 L 57.73418 119.9622 M 71.12811 152.2979 L 71.12811 147.2979 L 69.21469 142.6785 L 67.30127 138.0591 M 71.12811 147.2979 L 71.12811 142.2979 L 73.04153 137.6785 L 74.95494 133.0591 M 71.12811 142.2979 L 73.04153 137.6785 L 73.04153 132.6785 L 73.04153 127.6785 L 71.12811 123.0591 L 69.21469 118.4397 M 73.04153 127.6785 L 73.04153 122.6785 M 73.04153 137.6785 L 74.95494 133.0591 L 76.86835 128.4397 L 78.78178 123.8203 L 78.78178 118.8203 L 78.78178 113.8203 M 78.78178 123.8203 L 80.6952 119.2009 L 82.60862 114.5815 L 84.52203 109.9622 M 71.12811 142.2979 L 71.12811 137.2979 L 69.21469 132.6785 L 67.30127 128.0591 L 65.38786 123.4397 M 71.12811 137.2979 L 71.12811 132.2979 L 71.12811 127.2979 L 73.04153 122.6785 L 74.95494 118.0591 L 76.86835 113.4397 M 71.12811 127.2979 L 69.21469 122.6785 L 69.21469 117.6785 L 67.30127 113.0591 L 65.38786 108.4397 M 69.21469 117.6785 L 69.21469 112.6785 L 71.12811 108.0591 L 73.04153 103.4397 M 69.21469 112.6785 L 69.21469 107.6785 M 69.21469 122.6785 L 67.30127 118.0591 L 65.38786 113.4397 L 61.85232 109.9042 L 58.31679 106.3687 M 65.38786 113.4397 L 63.47443 108.8203 L 63.47443 103.8203 L 63.47443 98.82031 M 63.47443 108.8203 L 61.56102 104.2009 L 59.6476 99.58154 L 57.73418 94.96216 L 55.82077 90.34277 M 71.12811 127.2979 L 71.12811 122.2979 L 71.12811 117.2979 L 69.21469 112.6785 L 67.30127 108.0591 L 65.38786 103.4397 L 63.47443 98.82031 M 71.12811 117.2979 L 71.12811 112.2979 L 71.12811 107.2979 L 73.04153 102.6785 L 73.04153 97.67847 L 73.04153 92.67847 M 73.04153 102.6785 L 74.95494 98.05908 L 76.86835 93.4397 L 78.78178 88.82031 M 71.12811 107.2979 L 71.12811 102.2979 L 71.12811 97.29785 L 69.21469 92.67847 L 69.21469 87.67847 L 69.21469 82.67847 M 69.21469 92.67847 L 67.30127 88.05908 L 65.38786 83.4397 L 63.47443 78.82031 L 61.56102 74.20093 M 71.12811 97.29785 L 71.12811 92.29785 L 69.21469 87.67847 L 67.30127 83.05908 M 71.12811 92.29785 L 71.12811 87.29785 L 73.04153 82.67847 L 74.95494 78.05908 M 71.12811 87.29785 L 71.12811 82.29785 L 69.21469 77.67847 L 67.30127 73.05908 L 65.38786 68.4397 M 71.12811 82.29785 L 71.12811 77.29785 L 71.12811 72.29785 L 71.12811 67.29785 L 71.12811 62.29785 L 71.12811 57.29785 M 71.12811 167.2979 L 69.21469 162.6785 L 67.30127 158.0591 L 67.30127 153.0591 L 67.30127 148.0591 L 67.30127 143.0591 M 67.30127 158.0591 L 65.38786 153.4397 L 63.47443 148.8203 L 59.9389 145.2848 L 56.40337 141.7493 L 52.86784 138.2137 L 49.3323 134.6782 M 63.47443 148.8203 L 63.47443 143.8203 L 65.38786 139.2009 L 67.30127 134.5815 M 63.47443 143.8203 L 61.56102 139.2009 L 59.6476 134.5815 L 57.73418 129.9622 L 55.82077 125.3428 L 55.82077 120.3428 L 55.82077 115.3428 M 55.82077 125.3428 L 52.28522 121.8073 L 48.74969 118.2717 L 45.21416 114.7362 L 41.67863 111.2007 M 55.82077 125.3428 L 53.90734 120.7234 M 63.47443 143.8203 L 63.47443 138.8203 L 61.56102 134.2009 L 59.6476 129.5815 L 57.73418 124.9622 M 63.47443 138.8203 L 63.47443 133.8203 L 63.47443 128.8203 L 65.38786 124.2009 L 67.30127 119.5815 L 69.21469 114.9622 M 63.47443 128.8203 L 63.47443 123.8203 L 63.47443 118.8203 L 61.56102 114.2009 L 59.6476 109.5815 L 57.73418 104.9622 L 55.82077 100.3428 M 63.47443 118.8203 L 63.47443 113.8203 L 63.47443 108.8203 L 63.47443 103.8203 L 61.56102 99.20093 L 59.6476 94.58154 M 63.47443 103.8203 L 63.47443 98.82031 L 63.47443 93.82031 L 63.47443 88.82031 M 63.47443 148.8203 L 61.56102 144.2009 L 59.6476 139.5815 L 59.6476 134.5815 L 57.73418 129.9622 L 55.82077 125.3428 M 59.6476 134.5815 L 59.6476 129.5815 L 59.6476 124.5815 L 59.6476 119.5815 M 59.6476 139.5815 L 57.73418 134.9622 L 55.82077 130.3428 L 52.28522 126.8073 L 50.37181 122.1879 L 48.4584 117.5685 M 52.28522 126.8073 L 48.74969 123.2717 L 45.21416 119.7362 L 41.67863 116.2007 L 38.1431 112.6652 M 55.82077 130.3428 L 52.28522 126.8073 L 48.74969 123.2717 L 46.83628 118.6523 L 43.30075 115.1168 L 39.76521 111.5813 L 35.14582 109.6679 L 30.52642 107.7545 M 39.76521 111.5813 L 36.22968 108.0458 M 46.83628 118.6523 L 44.92286 114.033 L 43.00944 109.4136 L 39.47391 105.8781 L 35.93838 102.3425 M 43.00944 109.4136 L 43.00944 104.4136 L 41.09603 99.79419 L 39.18261 95.1748 M 43.00944 104.4136 L 43.00944 99.41357 L 43.00944 94.41357 L 43.00944 89.41357 M 43.00944 109.4136 L 41.09603 104.7942 M 48.74969 123.2717 L 45.21416 119.7362 L 40.59476 117.8228 L 35.97536 115.9094 M 45.21416 119.7362 L 43.30075 115.1168 L 41.38733 110.4974 L 39.47391 105.8781 M 45.21416 119.7362 L 41.67863 116.2007 L 38.1431 112.6652 L 33.5237 110.7517 L 28.9043 108.8383 L 24.2849 106.9249 L 19.6655 105.0115 M 38.1431 112.6652 L 34.60756 109.1296 L 31.07203 105.5941 L 29.15861 100.9747 L 25.62307 97.43921 L 22.08754 93.90369 M 29.15861 100.9747 L 27.24519 96.35535 L 25.33178 91.73596 L 23.41837 87.11658 M 31.07203 105.5941 L 27.53648 102.0586 L 24.00095 98.52307 L 19.38155 96.60965 L 14.76215 94.69623 M 24.00095 98.52307 L 20.46542 94.98755 L 18.55201 90.36816 L 16.63859 85.74878 M 20.46542 94.98755 L 16.92988 91.45203 L 13.39433 87.9165 L 9.858803 84.38098 L 6.323265 80.84546 M 55.82077 130.3428 L 53.90734 125.7234 L 51.99393 121.104 L 51.99393 116.104 L 50.08051 111.4846 L 48.16709 106.8652 L 46.25368 102.2458 M 51.99393 116.104 L 51.99393 111.104 L 51.99393 106.104 L 51.99393 101.104 L 51.99393 96.104 L 51.99393 91.104 M 51.99393 121.104 L 50.08051 116.4846 L 48.16709 111.8652 L 44.63156 108.3297 L 42.71814 103.7103 L 40.80473 99.09094 L 38.89131 94.47156 M 44.63156 108.3297 L 41.09603 104.7942 L 37.56049 101.2587 L 34.02496 97.72314 L 30.48943 94.18762 L 26.95389 90.6521 L 23.41835 87.11658 M 48.16709 111.8652 L 48.16709 106.8652 L 50.08051 102.2458 L 51.99393 97.62646 L 53.90734 93.00708 M 48.16709 106.8652 L 46.25368 102.2458 L 46.25368 97.24585 L 44.34026 92.62646 L 42.42684 88.00708 M 46.25368 97.24585 L 46.25368 92.24585 L 48.16709 87.62646 L 50.08051 83.00708 M 46.25368 92.24585 L 46.25368 87.24585 M 46.25368 102.2458 L 44.34026 97.62646 L 40.80473 94.09094 L 37.26919 90.55542 M 44.34026 97.62646 L 42.42684 93.00708 L 42.42684 88.00708 L 42.42684 83.00708 M 42.42684 93.00708 L 38.89131 89.47156 L 36.97789 84.85217 L 35.06447 80.23279 M 38.89131 89.47156 L 35.35577 85.93604 L 31.82024 82.40051 L 28.2847 78.86499 L 24.74915 75.32947 M 42.42684 93.00708 L 40.51342 88.3877 M 48.16709 106.8652 L 48.16709 101.8652 L 48.16709 96.86523 L 46.25368 92.24585 L 44.34026 87.62646 L 42.42684 83.00708 L 40.51342 78.3877 M 48.16709 96.86523 L 48.16709 91.86523 L 48.16709 86.86523 L 50.08051 82.24585 L 50.08051 77.24585 L 50.08051 72.24585 M 50.08051 82.24585 L 51.99393 77.62646 L 53.90734 73.00708 L 55.82077 68.3877 M 48.16709 86.86523 L 48.16709 81.86523 L 48.16709 76.86523 L 46.25368 72.24585 L 46.25368 67.24585 L 46.25368 62.24585 M 46.25368 72.24585 L 44.34026 67.62646 L 42.42684 63.00708 L 40.51342 58.3877 L 38.60001 53.76831 M 48.16709 76.86523 L 48.16709 71.86523 L 46.25368 67.24585 L 44.34026 62.62646 M 48.16709 71.86523 L 48.16709 66.86523 L 50.08051 62.24585 L 51.99393 57.62646 M 48.16709 66.86523 L 48.16709 61.86523 L 46.25368 57.24585 L 44.34026 52.62646 L 42.42684 48.00708 M 48.16709 61.86523 L 48.16709 56.86523 L 48.16709 51.86523 L 48.16709 46.86523 L 48.16709 41.86523 L 48.16709 36.86523 M 48.16709 111.8652 L 46.25368 107.2458 L 44.34026 102.6265 L 40.80473 99.09094 L 37.26919 95.55542 M 44.34026 102.6265 L 44.34026 97.62646 L 42.42684 93.00708 L 40.51342 88.3877 L 36.97789 84.85217 L 33.44236 81.31665 M 40.51342 88.3877 L 38.60001 83.76831 M 44.34026 97.62646 L 44.34026 92.62646 L 44.34026 87.62646 L 44.34026 82.62646 L 42.42684 78.00708 L 40.51342 73.3877 M 44.34026 82.62646 L 44.34026 77.62646 L 44.34026 72.62646 L 44.34026 67.62646 M 44.34026 102.6265 L 42.42684 98.00708 L 42.42684 93.00708 L 42.42684 88.00708 M 42.42684 98.00708 L 40.51342 93.3877 L 36.97789 89.85217 L 33.44236 86.31665 L 29.90681 82.78113 M 40.51342 93.3877 L 36.97789 89.85217 L 35.06447 85.23279 L 31.52894 81.69727 L 27.99339 78.16174 M 35.06447 85.23279 L 33.15105 80.6134 L 33.15105 75.6134 L 33.15105 70.6134 M 33.15105 80.6134 L 31.23764 75.99402 M 36.97789 89.85217 L 33.44236 86.31665 L 29.90681 82.78113 L 25.28741 80.86771 L 20.66801 78.95428 M 29.90681 82.78113 L 26.37128 79.24561 L 24.45786 74.62622 L 22.54445 70.00684 M 26.37128 79.24561 L 22.83574 75.71008 L 19.30019 72.17456 L 15.76466 68.63904 L 12.22913 65.10352 M 40.51342 93.3877 L 38.60001 88.76831 L 36.68659 84.14893 L 36.68659 79.14893 L 36.68659 74.14893 L 36.68659 69.14893 M 36.68659 84.14893 L 34.77317 79.52954 L 32.85975 74.91016 L 29.3242 71.37463 L 25.78867 67.83911 L 22.25314 64.30359 L 18.7176 60.76807 M 32.85975 74.91016 L 32.85975 69.91016 L 30.94633 65.29077 L 30.94633 60.29077 L 30.94633 55.29077 M 30.94633 65.29077 L 29.03291 60.67139 L 25.49738 57.13586 L 21.96184 53.60034 L 18.4263 50.06482 M 29.03291 60.67139 L 27.1195 56.052 M 32.85975 69.91016 L 32.85975 64.91016 L 30.94633 60.29077 L 29.03291 55.67139 M 32.85975 64.91016 L 32.85975 59.91016 L 34.77317 55.29077 L 36.68659 50.67139 M 32.85975 59.91016 L 32.85975 54.91016 L 30.94633 50.29077 L 29.03291 45.67139 L 27.1195 41.052 M 32.85975 54.91016 L 32.85975 49.91016 L 32.85975 44.91016 L 32.85975 39.91016 L 32.85975 34.91016 L 32.85975 29.91016 M 32.85975 74.91016 L 30.94633 70.29077 L 29.03291 65.67139 L 29.03291 60.67139 L 27.1195 56.052 L 25.20609 51.43262 M 29.03291 60.67139 L 29.03291 55.67139 L 29.03291 50.67139 L 29.03291 45.67139 M 29.03291 65.67139 L 27.1195 61.052 L 25.20609 56.43262 L 21.67055 52.89709 L 19.75713 48.27771 L 17.84372 43.65833 M 21.67055 52.89709 L 18.13501 49.36157 L 14.59948 45.82605 L 11.06393 42.29053 L 7.528397 38.755 M 25.20609 56.43262 L 23.29266 51.81323 L 21.37926 47.19385 L 17.84372 43.65833 L 14.30819 40.1228 M 21.37926 47.19385 L 21.37926 42.19385 L 19.46584 37.57446 L 17.55243 32.95508 L 15.63902 28.33569 M 21.37926 42.19385 L 21.37926 37.19385 L 21.37926 32.19385 L 21.37926 27.19385 L 21.37926 22.19385 L 21.37926 17.19385 M 21.37926 47.19385 L 19.46584 42.57446 L 19.46584 37.57446 L 19.46584 32.57446 M 19.46584 42.57446 L 17.55243 37.95508 L 14.01688 34.41956 L 10.48135 30.88403 L 6.945816 27.34851 M 17.55243 37.95508 L 15.63902 33.33569 L 13.72559 28.71631 L 13.72559 23.71631 L 13.72559 18.71631 L 13.72559 13.71631 M 13.72559 28.71631 L 11.81219 24.09692 L 9.898773 19.47754 L 7.985359 14.85815 L 6.071945 10.23877 L 4.158524 5.619385 L 2.245117 1 M 94.08912 222.7305 L 94.08912 217.7305 " />
  </g>
</svg>
