<?xml version="1.0" encoding="UTF-8" standalone="no"?>
<!DOCTYPE svg PUBLIC "-//W3C//DTD SVG 1.1//EN"
    "http://www.w3.org/Graphics/SVG/1.1/DTD/svg11.dtd">
<svg xmlns="http://www.w3.org/2000/svg" width="73" height="282">
  <desc>hogeweg_c LSystem</desc>
  <rect width="100%" height="100%" style="fill: white"/>
  <g stroke="black" fill="none" stroke-width="1">
    <path d="M 21.85946 280.5733 L 21.85946 275.5733 L 21.85946 270.5733 L 21.85946 265.5733 L 21.85946 260.5733 L 19.68723 256.0699 L 17.515 251.5663 M 21.85946 260.5733 L 24.03169 256.0699 L 26.20392 251.5663 M 21.85946 260.5733 L 21.85946 255.5733 L 24.03169 251.0698 L 26.20392 246.5663 M 21.85946 255.5733 L 21.85946 250.5733 L 19.68723 246.0698 L 17.515 241.5663 M 21.85946 250.5733 L 24.03169 246.0698 L 24.03169 241.0698 L 24.03169 236.0698 M 24.03169 246.0698 L 26.20392 241.5663 L 26.20392 236.5663 L 26.20392 231.5663 M 26.20392 241.5663 L 28.37615 237.0629 L 32.28919 233.9503 L 36.20223 230.8377 M 28.37615 237.0629 L 28.37615 232.0629 L 30.54838 227.5594 L 32.72061 223.0559 M 28.37615 232.0629 L 28.37615 227.0629 L 30.54838 222.5594 L 32.72061 218.0559 M 28.37615 227.0629 L 28.37615 222.0629 L 28.37615 217.0629 L 28.37615 212.0629 M 28.37615 237.0629 L 30.54838 232.5594 M 21.85946 250.5733 L 21.85946 245.5733 L 19.68723 241.0698 L 17.515 236.5663 M 21.85946 245.5733 L 21.85946 240.5733 L 24.03169 236.0698 L 24.03169 231.0698 L 24.03169 226.0698 M 24.03169 236.0698 L 26.20392 231.5663 M 21.85946 240.5733 L 19.68723 236.0698 L 15.77419 232.9573 L 11.86115 229.8447 M 19.68723 236.0698 L 19.68723 231.0698 L 19.68723 226.0698 M 19.68723 236.0698 L 17.515 231.5663 L 17.515 226.5663 L 17.515 221.5663 M 17.515 231.5663 L 15.34277 227.0629 L 13.17054 222.5594 L 9.257501 219.4468 L 5.344461 216.3342 M 13.17054 222.5594 L 13.17054 217.5594 L 10.99831 213.0559 L 8.826081 208.5524 M 13.17054 217.5594 L 13.17054 212.5594 L 10.99831 208.0559 L 8.826081 203.5524 M 13.17054 212.5594 L 13.17054 207.5594 L 10.99831 203.0559 L 8.826081 198.5524 M 13.17054 207.5594 L 13.17054 202.5594 L 13.17054 197.5594 M 13.17054 222.5594 L 10.99831 218.0559 M 21.85946 240.5733 L 24.03169 236.0698 L 24.03169 231.0698 L 21.85946 226.5663 L 19.68723 222.0629 M 24.03169 231.0698 L 26.20392 226.5663 L 28.37615 222.0629 M 24.03169 231.0698 L 24.03169 226.0698 M 24.03169 236.0698 L 26.20392 231.5663 L 26.20392 226.5663 L 26.20392 221.5663 M 26.20392 231.5663 L 30.11696 228.4538 L 34.03 225.3412 M 26.20392 231.5663 L 26.20392 226.5663 L 28.37615 222.0629 L 30.54838 217.5594 M 26.20392 226.5663 L 26.20392 221.5663 L 26.20392 216.5663 L 26.20392 211.5663 M 26.20392 231.5663 L 28.37615 227.0629 L 32.28919 223.9503 L 36.20223 220.8377 M 28.37615 227.0629 L 30.54838 222.5594 L 30.54838 217.5594 L 30.54838 212.5594 M 30.54838 222.5594 L 32.72061 218.0559 L 32.72061 213.0559 L 32.72061 208.0559 M 32.72061 218.0559 L 34.89284 213.5524 L 34.89284 208.5524 L 34.89284 203.5524 M 34.89284 213.5524 L 37.06507 209.0489 L 39.2373 204.5454 M 21.85946 240.5733 L 21.85946 235.5733 L 24.03169 231.0698 L 24.03169 226.0698 L 24.03169 221.0698 M 24.03169 231.0698 L 26.20392 226.5663 M 21.85946 235.5733 L 21.85946 230.5733 L 19.68723 226.0698 L 15.77419 222.9573 L 11.86115 219.8447 M 19.68723 226.0698 L 19.68723 221.0698 L 19.68723 216.0699 M 19.68723 226.0698 L 17.515 221.5663 M 21.85946 230.5733 L 24.03169 226.0698 L 27.94473 222.9573 L 31.85777 219.8447 M 24.03169 226.0698 L 24.03169 221.0698 L 24.03169 216.0699 L 24.03169 211.0699 M 24.03169 226.0698 L 26.20392 221.5663 L 28.37615 217.0629 L 28.37615 212.0629 L 28.37615 207.0629 M 28.37615 217.0629 L 30.54838 212.5594 L 30.54838 207.5594 L 30.54838 202.5594 M 30.54838 212.5594 L 32.72061 208.0559 L 36.63365 204.9433 L 40.54669 201.8307 M 32.72061 208.0559 L 32.72061 203.0559 L 32.72061 198.0559 L 34.89284 193.5524 L 34.89284 188.5524 L 34.89284 183.5524 M 34.89284 193.5524 L 37.06507 189.0489 M 32.72061 198.0559 L 32.72061 193.0559 L 30.54838 188.5524 L 28.37615 184.0489 M 32.72061 193.0559 L 34.89284 188.5524 L 37.06507 184.0489 M 32.72061 193.0559 L 32.72061 188.0559 L 34.89284 183.5524 L 37.06507 179.0489 M 32.72061 188.0559 L 32.72061 183.0559 L 32.72061 178.0559 L 32.72061 173.0559 M 32.72061 208.0559 L 34.89284 203.5524 M 21.85946 230.5733 L 21.85946 225.5733 L 19.68723 221.0698 L 15.77419 217.9573 L 11.86115 214.8447 M 19.68723 221.0698 L 19.68723 216.0699 L 19.68723 211.0699 M 19.68723 221.0698 L 17.515 216.5663 M 21.85946 225.5733 L 21.85946 220.5733 L 24.03169 216.0699 L 24.03169 211.0699 L 24.03169 206.0699 M 24.03169 216.0699 L 27.94473 212.9573 L 31.85777 209.8447 M 24.03169 216.0699 L 24.03169 211.0699 L 24.03169 206.0699 L 24.03169 201.0699 M 24.03169 216.0699 L 26.20392 211.5663 M 21.85946 220.5733 L 19.68723 216.0699 L 15.77419 212.9573 L 11.86115 209.8447 M 19.68723 216.0699 L 19.68723 211.0699 L 17.515 206.5663 L 15.34277 202.0629 M 19.68723 211.0699 L 19.68723 206.0699 L 19.68723 201.0699 M 19.68723 216.0699 L 17.515 211.5663 L 13.60196 208.4538 L 9.688921 205.3412 M 17.515 211.5663 L 15.34277 207.0629 L 15.34277 202.0629 L 15.34277 197.0629 M 15.34277 207.0629 L 13.17054 202.5594 L 13.17054 197.5594 L 13.17054 192.5594 M 13.17054 202.5594 L 10.99831 198.0559 L 8.826081 193.5524 L 4.91304 190.4398 L 1 187.3272 M 8.826081 193.5524 L 8.826081 188.5524 L 6.653851 184.0489 L 4.481621 179.5454 M 8.826081 188.5524 L 8.826081 183.5524 L 6.653851 179.0489 L 6.653851 174.0489 L 6.653851 169.0489 M 6.653851 179.0489 L 4.481621 174.5454 M 8.826081 183.5524 L 8.826081 178.5524 L 10.99831 174.0489 L 13.17054 169.5454 M 8.826081 178.5524 L 6.653851 174.0489 L 4.481621 169.5454 L 2.309391 165.0419 M 8.826081 178.5524 L 8.826081 173.5524 L 8.826081 168.5524 L 6.653851 164.0489 L 4.481621 159.5454 M 8.826081 168.5524 L 8.826081 163.5524 L 6.653851 159.0489 L 4.481621 154.5454 M 8.826081 163.5524 L 8.826081 158.5524 L 8.826081 153.5524 M 8.826081 193.5524 L 6.653851 189.0489 M 21.85946 220.5733 L 24.03169 216.0699 L 27.94473 212.9573 L 31.85777 209.8447 M 24.03169 216.0699 L 26.20392 211.5663 L 28.37615 207.0629 L 28.37615 202.0629 L 28.37615 197.0629 M 28.37615 207.0629 L 32.28919 203.9503 L 34.46142 199.4468 L 36.63365 194.9433 M 32.28919 203.9503 L 36.20223 200.8377 L 41.07894 199.7342 L 45.95565 198.6307 M 36.20223 200.8377 L 38.37446 196.3342 L 42.2875 193.2216 L 46.20054 190.1091 M 38.37446 196.3342 L 40.54669 191.8307 L 42.71892 187.3272 L 44.89115 182.8237 M 36.20223 200.8377 L 40.11527 197.7251 M 28.37615 207.0629 L 28.37615 202.0629 L 28.37615 197.0629 L 26.20392 192.5594 L 24.03169 188.0559 M 28.37615 197.0629 L 30.54838 192.5594 L 30.54838 187.5594 L 30.54838 182.5594 M 30.54838 192.5594 L 32.72061 188.0559 L 32.72061 183.0559 L 32.72061 178.0559 M 32.72061 188.0559 L 34.89284 183.5524 L 37.06507 179.0489 M 28.37615 197.0629 L 28.37615 192.0629 L 26.20392 187.5594 L 24.03169 183.0559 M 28.37615 192.0629 L 28.37615 187.0629 L 30.54838 182.5594 L 30.54838 177.5594 L 30.54838 172.5594 M 30.54838 182.5594 L 32.72061 178.0559 M 28.37615 187.0629 L 28.37615 182.0629 L 26.20392 177.5594 L 24.03169 173.0559 M 28.37615 182.0629 L 30.54838 177.5594 L 32.72061 173.0559 M 28.37615 182.0629 L 28.37615 177.0629 L 30.54838 172.5594 L 32.72061 168.0559 M 28.37615 177.0629 L 28.37615 172.0629 L 28.37615 167.0629 L 28.37615 162.0629 M 28.37615 207.0629 L 30.54838 202.5594 L 30.54838 197.5594 L 30.54838 192.5594 M 30.54838 202.5594 L 32.72061 198.0559 L 36.63365 194.9433 L 40.54669 191.8307 M 32.72061 198.0559 L 36.63365 194.9433 L 41.51036 193.8398 L 46.38707 192.7363 M 36.63365 194.9433 L 40.54669 191.8307 L 44.45973 188.7182 L 46.63196 184.2147 L 48.80419 179.7112 M 44.45973 188.7182 L 48.37277 185.6056 M 32.72061 198.0559 L 34.89284 193.5524 L 38.80588 190.4398 L 42.71892 187.3272 M 34.89284 193.5524 L 37.06507 189.0489 L 37.06507 184.0489 L 37.06507 179.0489 M 37.06507 189.0489 L 37.06507 184.0489 L 34.89284 179.5454 L 32.72061 175.0419 M 37.06507 184.0489 L 37.06507 179.0489 L 34.89284 174.5454 L 32.72061 170.0419 M 37.06507 179.0489 L 37.06507 174.0489 L 39.2373 169.5454 L 41.40953 165.0419 M 37.06507 174.0489 L 37.06507 169.0489 M 37.06507 189.0489 L 39.2373 184.5454 L 39.2373 179.5454 L 39.2373 174.5454 M 39.2373 184.5454 L 41.40953 180.0419 L 45.32257 176.9293 L 47.4948 172.4258 L 49.66703 167.9223 M 45.32257 176.9293 L 49.23561 173.8167 M 41.40953 180.0419 L 41.40953 175.0419 L 39.2373 170.5384 L 37.06507 166.0349 M 41.40953 175.0419 L 43.58176 170.5384 L 45.75399 166.0349 M 41.40953 175.0419 L 41.40953 170.0419 L 43.58176 165.5384 L 45.75399 161.0349 M 41.40953 170.0419 L 41.40953 165.0419 L 41.40953 160.0419 L 41.40953 155.0419 M 41.40953 180.0419 L 43.58176 175.5384 L 47.4948 172.4258 L 49.66703 167.9223 L 51.83926 163.4188 M 47.4948 172.4258 L 51.40784 169.3132 M 43.58176 175.5384 L 45.75399 171.0349 L 45.75399 166.0349 L 45.75399 161.0349 M 45.75399 171.0349 L 45.75399 166.0349 L 47.92622 161.5314 L 50.09845 157.0279 M 45.75399 166.0349 L 45.75399 161.0349 M 45.75399 171.0349 L 47.92622 166.5314 L 51.83926 163.4188 L 55.7523 160.3062 M 47.92622 166.5314 L 47.92622 161.5314 L 47.92622 156.5314 L 47.92622 151.5314 M 47.92622 166.5314 L 50.09845 162.0279 L 52.27068 157.5244 L 52.27068 152.5244 L 52.27068 147.5244 M 52.27068 157.5244 L 54.44291 153.0209 L 54.44291 148.0209 L 54.44291 143.0209 M 54.44291 153.0209 L 56.61514 148.5174 L 58.78737 144.0139 M 21.85946 220.5733 L 21.85946 215.5733 L 24.03169 211.0699 L 24.03169 206.0699 L 24.03169 201.0699 M 24.03169 211.0699 L 27.94473 207.9573 L 31.85777 204.8447 M 24.03169 211.0699 L 24.03169 206.0699 L 24.03169 201.0699 L 24.03169 196.0699 M 24.03169 211.0699 L 26.20392 206.5663 M 21.85946 215.5733 L 21.85946 210.5733 L 19.68723 206.0699 L 15.77419 202.9573 L 11.86115 199.8447 M 19.68723 206.0699 L 19.68723 201.0699 L 19.68723 196.0699 M 19.68723 206.0699 L 15.77419 202.9573 L 11.86115 199.8447 L 7.948111 196.7321 M 19.68723 206.0699 L 19.68723 201.0699 L 19.68723 196.0699 L 19.68723 191.0699 M 19.68723 206.0699 L 17.515 201.5663 M 21.85946 210.5733 L 19.68723 206.0699 L 15.77419 202.9573 L 11.86115 199.8447 M 19.68723 206.0699 L 19.68723 201.0699 L 19.68723 196.0699 M 19.68723 206.0699 L 15.77419 202.9573 L 13.60196 198.4538 L 11.42973 193.9503 M 15.77419 202.9573 L 11.86115 199.8447 L 7.948111 196.7321 L 4.03507 193.6196 M 19.68723 206.0699 L 17.515 201.5663 L 17.515 196.5663 L 17.515 191.5663 M 17.515 201.5663 L 15.34277 197.0629 L 11.42973 193.9503 L 7.516691 190.8377 M 15.34277 197.0629 L 13.17054 192.5594 L 9.257501 189.4468 L 5.344461 186.3342 M 13.17054 192.5594 L 10.99831 188.0559 L 7.085271 184.9433 L 3.172232 181.8307 M 10.99831 188.0559 L 8.826081 183.5524 L 8.826081 178.5524 L 8.826081 173.5524 M 8.826081 183.5524 L 6.653851 179.0489 M 21.85946 210.5733 L 21.85946 205.5733 L 19.68723 201.0699 L 17.515 196.5663 M 21.85946 205.5733 L 19.68723 201.0699 L 19.68723 196.0699 L 19.68723 191.0699 M 19.68723 201.0699 L 15.77419 197.9573 L 11.86115 194.8447 L 7.948111 191.7321 M 19.68723 201.0699 L 19.68723 196.0699 L 19.68723 191.0699 L 19.68723 186.0699 M 19.68723 201.0699 L 17.515 196.5663 M 21.85946 205.5733 L 21.85946 200.5733 L 24.03169 196.0699 L 26.20392 191.5663 M 21.85946 200.5733 L 24.03169 196.0699 L 26.20392 191.5663 L 26.20392 186.5663 L 26.20392 181.5663 M 26.20392 191.5663 L 30.11696 188.4538 L 32.28919 183.9503 L 34.46142 179.4468 M 30.11696 188.4538 L 34.03 185.3412 L 37.94304 182.2286 M 26.20392 191.5663 L 26.20392 186.5663 L 26.20392 181.5663 L 26.20392 176.5663 M 26.20392 191.5663 L 28.37615 187.0629 M 21.85946 200.5733 L 24.03169 196.0699 L 24.03169 191.0699 L 24.03169 186.0699 M 24.03169 196.0699 L 27.94473 192.9573 L 30.11696 188.4538 L 32.28919 183.9503 M 27.94473 192.9573 L 31.85777 189.8447 L 34.03 185.3412 L 36.20223 180.8377 M 31.85777 189.8447 L 35.77081 186.7321 L 39.68385 183.6196 M 24.03169 196.0699 L 26.20392 191.5663 L 26.20392 186.5663 L 26.20392 181.5663 M 26.20392 191.5663 L 28.37615 187.0629 L 32.28919 183.9503 L 34.46142 179.4468 L 36.63365 174.9433 M 32.28919 183.9503 L 36.20223 180.8377 M 28.37615 187.0629 L 30.54838 182.5594 L 30.54838 177.5594 L 30.54838 172.5594 M 30.54838 182.5594 L 34.46142 179.4468 L 38.37446 176.3342 M 30.54838 182.5594 L 32.72061 178.0559 L 36.63365 174.9433 L 40.54669 171.8307 M 32.72061 178.0559 L 34.89284 173.5524 L 37.06507 169.0489 L 37.06507 164.0489 L 37.06507 159.0489 M 37.06507 169.0489 L 39.2373 164.5454 M 21.85946 200.5733 L 21.85946 195.5733 L 21.85946 190.5733 L 19.68723 186.0699 L 17.515 181.5663 M 21.85946 190.5733 L 24.03169 186.0699 L 24.03169 181.0699 L 24.03169 176.0699 M 24.03169 186.0699 L 26.20392 181.5663 L 30.11696 178.4538 L 34.03 175.3412 M 26.20392 181.5663 L 26.20392 176.5663 L 28.37615 172.0629 L 30.54838 167.5594 M 26.20392 176.5663 L 26.20392 171.5663 L 26.20392 166.5663 L 26.20392 161.5663 M 26.20392 181.5663 L 28.37615 177.0629 M 21.85946 190.5733 L 21.85946 185.5733 L 19.68723 181.0699 L 17.515 176.5663 M 21.85946 185.5733 L 21.85946 180.5733 L 24.03169 176.0699 L 26.20392 171.5663 M 21.85946 180.5733 L 19.68723 176.0699 L 19.68723 171.0699 L 19.68723 166.0699 M 19.68723 176.0699 L 17.515 171.5663 L 15.34277 167.0629 L 11.42973 163.9503 L 7.516691 160.8377 M 15.34277 167.0629 L 15.34277 162.0629 L 13.17054 157.5594 L 10.99831 153.0559 M 15.34277 162.0629 L 15.34277 157.0629 L 13.17054 152.5594 L 10.99831 148.0559 M 15.34277 157.0629 L 15.34277 152.0629 L 15.34277 147.0629 M 15.34277 167.0629 L 13.17054 162.5594 M 21.85946 180.5733 L 24.03169 176.0699 L 26.20392 171.5663 L 30.11696 168.4538 L 32.28919 163.9503 L 34.46142 159.4468 M 30.11696 168.4538 L 34.03 165.3412 M 26.20392 171.5663 L 26.20392 166.5663 L 24.03169 162.0629 L 21.85946 157.5594 M 26.20392 166.5663 L 28.37615 162.0629 L 30.54838 157.5594 M 26.20392 166.5663 L 26.20392 161.5663 L 28.37615 157.0629 L 30.54838 152.5594 M 26.20392 161.5663 L 26.20392 156.5663 L 26.20392 151.5663 L 26.20392 146.5663 M 26.20392 171.5663 L 28.37615 167.0629 L 32.28919 163.9503 L 34.46142 159.4468 L 36.63365 154.9433 M 32.28919 163.9503 L 36.20223 160.8377 M 28.37615 167.0629 L 30.54838 162.5594 L 30.54838 157.5594 L 30.54838 152.5594 M 30.54838 162.5594 L 30.54838 157.5594 L 32.72061 153.0559 L 34.89284 148.5524 M 30.54838 157.5594 L 30.54838 152.5594 M 30.54838 162.5594 L 32.72061 158.0559 L 36.63365 154.9433 L 40.54669 151.8307 M 32.72061 158.0559 L 32.72061 153.0559 L 32.72061 148.0559 L 32.72061 143.0559 M 32.72061 158.0559 L 34.89284 153.5524 L 37.06507 149.0489 L 37.06507 144.0489 L 37.06507 139.0489 M 37.06507 149.0489 L 39.2373 144.5454 L 39.2373 139.5454 L 39.2373 134.5454 M 39.2373 144.5454 L 41.40953 140.0419 L 43.58176 135.5384 M 21.85946 180.5733 L 21.85946 175.5733 L 24.03169 171.0699 L 26.20392 166.5663 M 21.85946 175.5733 L 21.85946 170.5733 L 19.68723 166.0699 L 17.515 161.5663 M 21.85946 170.5733 L 19.68723 166.0699 L 15.77419 162.9573 L 11.86115 159.8447 M 19.68723 166.0699 L 17.515 161.5663 L 13.60196 158.4538 L 9.688921 155.3412 M 17.515 161.5663 L 15.34277 157.0629 L 15.34277 152.0629 L 15.34277 147.0629 M 15.34277 157.0629 L 13.17054 152.5594 M 21.85946 170.5733 L 21.85946 165.5733 L 19.68723 161.0699 L 17.515 156.5663 M 21.85946 165.5733 L 21.85946 160.5733 L 24.03169 156.0699 L 24.03169 151.0699 L 24.03169 146.0699 M 24.03169 156.0699 L 26.20392 151.5664 M 21.85946 160.5733 L 24.03169 156.0699 L 24.03169 151.0699 L 24.03169 146.0699 M 24.03169 156.0699 L 27.94473 152.9573 L 31.85777 149.8447 M 24.03169 156.0699 L 26.20392 151.5664 L 30.11696 148.4538 L 34.03 145.3412 M 26.20392 151.5664 L 28.37615 147.0629 L 30.54838 142.5594 L 30.54838 137.5594 L 30.54838 132.5594 M 30.54838 142.5594 L 32.72061 138.0559 M 21.85946 160.5733 L 21.85946 155.5733 L 24.03169 151.0698 L 24.03169 146.0698 L 24.03169 141.0698 M 24.03169 151.0698 L 26.20392 146.5663 M 21.85946 155.5733 L 21.85946 150.5733 L 19.68723 146.0698 L 15.77419 142.9573 L 11.86115 139.8447 M 19.68723 146.0698 L 19.68723 141.0698 L 19.68723 136.0698 M 19.68723 146.0698 L 17.515 141.5663 M 21.85946 150.5733 L 24.03169 146.0698 L 27.94473 142.9573 L 31.85777 139.8447 M 24.03169 146.0698 L 24.03169 141.0698 L 24.03169 136.0698 L 24.03169 131.0698 M 24.03169 146.0698 L 26.20392 141.5663 L 28.37615 137.0629 L 28.37615 132.0629 L 28.37615 127.0629 M 28.37615 137.0629 L 30.54838 132.5594 L 30.54838 127.5594 L 30.54838 122.5594 M 30.54838 132.5594 L 32.72061 128.0559 L 34.89284 123.5524 M 21.85946 150.5733 L 21.85946 145.5733 L 19.68723 141.0698 L 17.515 136.5663 M 21.85946 145.5733 L 19.68723 141.0698 L 19.68723 136.0698 L 19.68723 131.0698 M 19.68723 141.0698 L 17.515 136.5663 M 21.85946 145.5733 L 21.85946 140.5733 L 24.03169 136.0698 L 26.20392 131.5663 M 21.85946 140.5733 L 24.03169 136.0698 L 26.20392 131.5663 L 26.20392 126.5663 L 26.20392 121.5663 M 26.20392 131.5663 L 28.37615 127.0629 M 21.85946 140.5733 L 21.85946 135.5733 L 21.85946 130.5733 L 19.68723 126.0698 L 17.515 121.5663 M 21.85946 130.5733 L 24.03169 126.0698 L 24.03169 121.0698 L 24.03169 116.0698 M 24.03169 126.0698 L 26.20392 121.5663 L 28.37615 117.0629 M 21.85946 130.5733 L 21.85946 125.5733 L 19.68723 121.0698 L 17.515 116.5663 M 21.85946 125.5733 L 21.85946 120.5733 L 24.03169 116.0698 L 26.20392 111.5663 M 21.85946 120.5733 L 21.85946 115.5733 L 24.03169 111.0698 L 26.20392 106.5663 M 21.85946 115.5733 L 21.85946 110.5733 L 21.85946 105.5733 L 19.68723 101.0698 L 17.515 96.56635 M 21.85946 105.5733 L 24.03169 101.0698 L 24.03169 96.06984 L 21.85946 91.56635 L 19.68723 87.06285 M 24.03169 96.06984 L 26.20392 91.56635 L 26.20392 86.56635 L 26.20392 81.56635 M 26.20392 91.56635 L 28.37615 87.06285 L 30.54838 82.55936 M 24.03169 96.06984 L 24.03169 91.06984 M 24.03169 101.0698 L 26.20392 96.56635 L 26.20392 91.56635 L 26.20392 86.56635 M 26.20392 96.56635 L 26.20392 91.56635 L 24.03169 87.06285 L 21.85946 82.55936 M 26.20392 91.56635 L 26.20392 86.56635 L 28.37615 82.06285 L 30.54838 77.55936 M 26.20392 86.56635 L 24.03169 82.06285 L 24.03169 77.06285 L 24.03169 72.06285 M 24.03169 82.06285 L 21.85946 77.55936 L 19.68723 73.05586 L 17.515 68.55237 M 26.20392 86.56635 L 28.37615 82.06285 L 30.54838 77.55936 L 32.72061 73.05586 L 32.72061 68.05586 L 32.72061 63.05586 M 32.72061 73.05586 L 34.89284 68.55237 M 26.20392 86.56635 L 26.20392 81.56635 M 26.20392 96.56635 L 28.37615 92.06285 L 28.37615 87.06285 L 28.37615 82.06285 M 28.37615 92.06285 L 30.54838 87.55936 L 34.46142 84.44678 L 38.37446 81.3342 M 30.54838 87.55936 L 34.46142 84.44678 L 39.33813 83.34329 L 44.21484 82.23981 M 34.46142 84.44678 L 38.37446 81.3342 L 42.2875 78.22162 L 44.45973 73.71812 L 46.63196 69.21463 M 42.2875 78.22162 L 46.20054 75.10904 M 30.54838 87.55936 L 30.54838 82.55936 L 30.54838 77.55936 L 32.72061 73.05586 L 32.72061 68.05586 L 32.72061 63.05586 M 32.72061 73.05586 L 34.89284 68.55237 M 30.54838 77.55936 L 30.54838 72.55936 L 28.37615 68.05586 L 26.20392 63.55237 M 30.54838 72.55936 L 32.72061 68.05586 L 34.89284 63.55237 M 30.54838 72.55936 L 30.54838 67.55936 L 32.72061 63.05586 L 34.89284 58.55237 M 30.54838 67.55936 L 30.54838 62.55936 L 30.54838 57.55936 L 28.37615 53.05586 L 26.20392 48.55237 M 30.54838 57.55936 L 32.72061 53.05586 L 32.72061 48.05586 L 32.72061 43.05586 M 32.72061 53.05586 L 34.89284 48.55237 L 34.89284 43.55237 L 37.06507 39.04887 L 39.2373 34.54538 M 34.89284 43.55237 L 34.89284 38.55237 M 34.89284 48.55237 L 37.06507 44.04887 L 40.97811 40.93629 L 44.89115 37.82372 M 37.06507 44.04887 L 37.06507 39.04887 L 37.06507 34.04887 L 37.06507 29.04887 M 37.06507 44.04887 L 39.2373 39.54538 L 41.40953 35.04189 L 41.40953 30.04189 L 41.40953 25.04189 M 41.40953 35.04189 L 43.58176 30.53839 L 43.58176 25.53839 L 43.58176 20.53839 M 43.58176 30.53839 L 45.75399 26.0349 L 47.92622 21.5314 M 30.54838 57.55936 L 30.54838 52.55936 M 30.54838 87.55936 L 32.72061 83.05586 L 36.63365 79.94328 L 40.54669 76.8307 M 32.72061 83.05586 L 34.89284 78.55237 L 34.89284 73.55237 L 34.89284 68.55237 M 34.89284 78.55237 L 34.89284 73.55237 L 32.72061 69.04887 L 30.54838 64.54538 M 34.89284 73.55237 L 34.89284 68.55237 L 32.72061 64.04887 L 30.54838 59.54538 M 34.89284 68.55237 L 34.89284 63.55237 L 37.06507 59.04887 L 39.2373 54.54538 M 34.89284 63.55237 L 34.89284 58.55237 M 34.89284 78.55237 L 38.80588 75.43979 L 42.71892 72.32721 L 44.89115 67.82372 L 47.06338 63.32022 M 42.71892 72.32721 L 44.89115 67.82372 L 48.80419 64.71114 L 52.71723 61.59856 M 44.89115 67.82372 L 47.06338 63.32022 M 42.71892 72.32721 L 46.63196 69.21463 L 51.50867 68.11115 L 56.38538 67.00766 M 46.63196 69.21463 L 48.80419 64.71114 L 50.97642 60.20764 L 53.14865 55.70415 M 46.63196 69.21463 L 50.545 66.10205 L 54.45804 62.98947 L 56.63027 58.48598 L 58.8025 53.98248 M 54.45804 62.98947 L 58.37108 59.87689 L 60.54331 55.3734 L 62.71554 50.8699 M 58.37108 59.87689 L 62.28412 56.76431 L 66.19716 53.65173 M 34.89284 78.55237 L 34.89284 73.55237 L 32.72061 69.04887 L 30.54838 64.54538 M 34.89284 73.55237 L 34.89284 68.55237 L 32.72061 64.04887 L 28.80757 60.93629 L 24.89453 57.82372 M 32.72061 64.04887 L 32.72061 59.04887 L 32.72061 54.04887 M 32.72061 64.04887 L 30.54838 59.54538 M 34.89284 68.55237 L 34.89284 63.55237 L 32.72061 59.04887 L 30.54838 54.54538 M 34.89284 63.55237 L 37.06507 59.04887 L 39.2373 54.54538 M 34.89284 63.55237 L 37.06507 59.04887 L 40.97811 55.93629 L 44.89115 52.82372 M 37.06507 59.04887 L 39.2373 54.54538 L 41.40953 50.04189 L 41.40953 45.04189 L 41.40953 40.04189 M 41.40953 50.04189 L 43.58176 45.53839 M 34.89284 63.55237 L 34.89284 58.55237 L 37.06507 54.04887 L 39.2373 49.54538 M 34.89284 58.55237 L 34.89284 53.55237 L 32.72061 49.04887 L 30.54838 44.54538 M 34.89284 53.55237 L 37.06507 49.04887 L 37.06507 44.04887 L 37.06507 39.04887 M 37.06507 49.04887 L 39.2373 44.54538 L 39.2373 39.54538 L 39.2373 34.54538 M 39.2373 44.54538 L 41.40953 40.04189 L 43.58176 35.53839 M 34.89284 53.55237 L 34.89284 48.55237 L 32.72061 44.04887 L 30.54838 39.54538 M 34.89284 48.55237 L 34.89284 43.55237 L 37.06507 39.04887 L 37.06507 34.04887 L 37.06507 29.04887 M 37.06507 39.04887 L 39.2373 34.54538 M 34.89284 43.55237 L 34.89284 38.55237 L 32.72061 34.04887 L 30.54838 29.54538 M 34.89284 38.55237 L 37.06507 34.04887 L 39.2373 29.54538 M 34.89284 38.55237 L 34.89284 33.55237 L 37.06507 29.04887 L 39.2373 24.54538 M 34.89284 33.55237 L 34.89284 28.55237 L 34.89284 23.55237 L 34.89284 18.55237 M 34.89284 78.55237 L 37.06507 74.04887 L 37.06507 69.04887 L 37.06507 64.04887 M 37.06507 74.04887 L 39.2373 69.54538 L 43.15034 66.4328 L 45.32257 61.92931 L 47.4948 57.42581 M 43.15034 66.4328 L 47.06338 63.32022 M 39.2373 69.54538 L 43.15034 66.4328 L 45.32257 61.92931 L 47.4948 57.42581 M 43.15034 66.4328 L 48.02705 65.32932 L 52.90376 64.22583 M 43.15034 66.4328 L 47.06338 63.32022 L 51.94009 62.21674 L 56.8168 61.11325 M 47.06338 63.32022 L 50.97642 60.20764 L 54.88946 57.09506 L 57.06168 52.59157 L 59.23391 48.08807 M 54.88946 57.09506 L 58.8025 53.98248 M 39.2373 69.54538 L 41.40953 65.04189 L 45.32257 61.92931 L 47.4948 57.42581 L 49.66703 52.92232 M 45.32257 61.92931 L 49.23561 58.81673 M 41.40953 65.04189 L 43.58176 60.53839 L 43.58176 55.53839 L 41.40953 51.0349 L 39.2373 46.5314 M 43.58176 55.53839 L 45.75399 51.0349 L 47.92622 46.5314 M 43.58176 55.53839 L 43.58176 50.53839 M 43.58176 60.53839 L 43.58176 55.53839 L 45.75399 51.0349 L 47.92622 46.5314 M 43.58176 55.53839 L 41.40953 51.0349 L 39.2373 46.5314 L 37.06507 42.02791 M 43.58176 55.53839 L 43.58176 50.53839 L 43.58176 45.53839 L 41.40953 41.0349 L 39.2373 36.5314 M 43.58176 45.53839 L 43.58176 40.53839 L 41.40953 36.0349 L 39.2373 31.5314 M 43.58176 40.53839 L 43.58176 35.53839 L 45.75399 31.0349 L 47.92622 26.5314 M 43.58176 35.53839 L 43.58176 30.53839 M 43.58176 60.53839 L 45.75399 56.0349 L 45.75399 51.0349 L 43.58176 46.5314 L 41.40953 42.02791 M 45.75399 51.0349 L 47.92622 46.5314 L 50.09845 42.02791 M 45.75399 51.0349 L 45.75399 46.0349 M 45.75399 56.0349 L 47.92622 51.5314 L 47.92622 46.5314 L 47.92622 41.5314 M 47.92622 51.5314 L 51.83926 48.41882 L 56.71597 47.31534 L 61.59268 46.21185 M 51.83926 48.41882 L 54.01149 43.91533 L 56.18372 39.41183 L 58.35595 34.90834 M 51.83926 48.41882 L 55.7523 45.30624 M 47.92622 51.5314 L 47.92622 46.5314 L 47.92622 41.5314 L 45.75399 37.02791 L 43.58176 32.52441 M 47.92622 41.5314 L 50.09845 37.02791 L 50.09845 32.02791 L 50.09845 27.02791 M 50.09845 37.02791 L 52.27068 32.52441 L 54.44291 28.02092 M 47.92622 41.5314 L 47.92622 36.5314 L 45.75399 32.02791 L 43.58176 27.52441 M 47.92622 36.5314 L 47.92622 31.5314 L 50.09845 27.02791 L 52.27068 22.52441 M 47.92622 31.5314 L 47.92622 26.5314 L 50.09845 22.02792 L 52.27068 17.52444 M 47.92622 26.5314 L 47.92622 21.5314 L 47.92622 16.5314 L 47.92622 11.5314 M 47.92622 51.5314 L 50.09845 47.02791 L 54.01149 43.91533 L 57.92453 40.80275 M 50.09845 47.02791 L 54.01149 43.91533 L 57.92453 40.80275 L 60.09676 36.29926 L 62.26899 31.79576 M 57.92453 40.80275 L 61.83757 37.69017 M 50.09845 47.02791 L 52.27068 42.52441 L 54.44291 38.02092 L 54.44291 33.02092 L 54.44291 28.02092 M 54.44291 38.02092 L 54.44291 33.02092 L 52.27068 28.51743 L 50.09845 24.01395 M 54.44291 33.02092 L 54.44291 28.02092 L 56.61514 23.51743 L 58.78737 19.01395 M 54.44291 28.02092 L 54.44291 23.0209 M 54.44291 38.02092 L 56.61514 33.51743 L 56.61514 28.51743 L 56.61514 23.51743 M 56.61514 33.51743 L 58.78737 29.01393 L 62.70041 25.90135 L 66.61345 22.78879 M 58.78737 29.01393 L 58.78737 24.01395 L 60.9596 19.51047 L 63.13183 15.00699 M 58.78737 24.01395 L 58.78737 19.01395 L 58.78737 14.01395 L 58.78737 9.013947 M 58.78737 29.01393 L 60.9596 24.51044 L 64.87264 21.39786 L 68.78568 18.28528 M 60.9596 24.51044 L 63.13183 20.00696 L 63.13183 15.00696 L 63.13183 10.00696 M 63.13183 20.00696 L 65.30406 15.50348 L 65.30406 10.50348 L 65.30406 5.503479 M 65.30406 15.50348 L 67.47629 11 L 67.47629 6 L 67.47629 1 M 67.47629 11 L 69.64851 6.496521 L 71.82074 1.993042 M 21.85946 105.5733 L 21.85946 100.5733 " />
  </g>
</svg>
