<?xml version="1.0" encoding="UTF-8" standalone="no"?>
<!DOCTYPE svg PUBLIC "-//W3C//DTD SVG 1.1//EN"
    "http://www.w3.org/Graphics/SVG/1.1/DTD/svg11.dtd">
<svg xmlns="http://www.w3.org/2000/svg" width="410" height="550">
  <desc>hogeweg_d LSystem</desc>
  <rect width="100%" height="100%" style="fill: white"/>
  <g stroke="black" fill="none" stroke-width="1">
    <path d="M 133.6172 548.355 L 133.6172 543.355 L 133.6172 538.355 L 133.6172 533.355 L 133.6172 528.355 L 133.6172 523.355 L 133.6172 518.355 L 133.6172 513.355 L 133.6172 508.355 L 131.445 503.8515 L 129.2728 499.348 M 133.6172 508.355 L 133.6172 503.355 L 133.6172 498.355 L 133.6172 493.355 L 133.6172 488.355 L 131.445 483.8515 L 129.2728 479.348 M 133.6172 488.355 L 133.6172 483.355 L 133.6172 478.355 L 133.6172 473.355 L 133.6172 468.355 L 131.445 463.8515 L 129.2728 459.348 L 129.2728 454.348 L 129.2728 449.348 M 129.2728 459.348 L 127.1005 454.8445 M 133.6172 468.355 L 133.6172 463.355 L 133.6172 458.355 L 133.6172 453.355 L 133.6172 448.355 L 131.445 443.8515 L 129.2728 439.348 L 129.2728 434.348 L 129.2728 429.348 L 131.445 424.8445 L 133.6172 420.341 M 129.2728 429.348 L 129.2728 424.348 M 129.2728 439.348 L 127.1005 434.8445 M 133.6172 448.355 L 133.6172 443.355 L 133.6172 438.355 L 133.6172 433.355 L 133.6172 428.355 L 131.445 423.8515 L 129.2728 419.348 L 127.1005 414.8445 L 127.1005 409.8445 L 127.1005 404.8445 M 127.1005 414.8445 L 127.1005 409.8445 L 127.1005 404.8445 L 127.1005 399.8445 L 124.9283 395.341 L 122.7561 390.8375 M 127.1005 399.8445 L 129.2728 395.341 L 131.445 390.8375 L 135.358 387.7249 L 139.2711 384.6124 M 131.445 390.8375 L 133.6172 386.334 M 127.1005 399.8445 L 127.1005 394.8445 M 127.1005 414.8445 L 124.9283 410.341 M 133.6172 428.355 L 133.6172 423.355 L 133.6172 418.355 L 133.6172 413.355 L 133.6172 408.355 L 131.445 403.8515 L 129.2728 399.348 L 127.1005 394.8445 L 124.9283 390.341 L 124.9283 385.341 L 124.9283 380.341 M 124.9283 390.341 L 124.9283 385.341 L 122.7561 380.8375 L 120.5839 376.334 M 124.9283 385.341 L 124.9283 380.341 M 124.9283 390.341 L 124.9283 385.341 L 122.7561 380.8375 L 120.5839 376.334 M 124.9283 385.341 L 124.9283 380.341 L 124.9283 375.341 L 124.9283 370.341 L 124.9283 365.341 L 122.7561 360.8375 L 120.5839 356.334 M 124.9283 365.341 L 122.7561 360.8375 L 120.5839 356.334 M 124.9283 365.341 L 127.1005 360.8375 L 129.2728 356.334 L 133.1858 353.2214 L 137.0988 350.1089 L 141.9756 349.0054 L 146.8523 347.9019 M 137.0988 350.1089 L 141.0119 346.9963 M 129.2728 356.334 L 131.445 351.8305 M 124.9283 365.341 L 124.9283 360.341 M 124.9283 390.341 L 122.7561 385.8375 M 133.6172 408.355 L 133.6172 403.355 L 133.6172 398.355 L 133.6172 393.355 L 133.6172 388.355 L 133.6172 383.355 L 135.7895 378.8515 L 137.9617 374.348 M 133.6172 383.355 L 131.445 378.8515 L 127.532 375.7389 L 123.6189 372.6263 M 131.445 378.8515 L 129.2728 374.348 L 127.1005 369.8445 L 124.9283 365.341 L 122.7561 360.8375 L 120.5839 356.334 L 120.5839 351.334 L 120.5839 346.334 M 120.5839 356.334 L 120.5839 351.334 L 118.4116 346.8305 L 116.2394 342.327 M 120.5839 351.334 L 120.5839 346.334 M 120.5839 356.334 L 120.5839 351.334 L 120.5839 346.334 L 118.4116 341.8305 L 114.4986 338.718 L 110.5855 335.6053 M 118.4116 341.8305 L 116.2394 337.327 M 120.5839 346.334 L 120.5839 341.334 M 120.5839 356.334 L 120.5839 351.334 L 120.5839 346.334 L 118.4116 341.8305 L 114.4986 338.718 L 110.5855 335.6053 M 118.4116 341.8305 L 116.2394 337.327 M 120.5839 346.334 L 120.5839 341.334 L 120.5839 336.334 L 120.5839 331.334 L 120.5839 326.334 L 118.4116 321.8305 L 116.2394 317.327 M 120.5839 326.334 L 118.4116 321.8305 L 116.2394 317.327 L 116.2394 312.327 L 116.2394 307.327 M 116.2394 317.327 L 114.0672 312.8235 M 120.5839 326.334 L 122.7561 321.8305 L 124.9283 317.327 L 127.1005 312.8235 L 131.0136 309.7109 L 134.9266 306.5984 M 127.1005 312.8235 L 131.0136 309.7109 L 134.9266 306.5984 L 138.8397 303.4858 L 141.0119 298.9823 L 143.1841 294.4788 M 138.8397 303.4858 L 143.7164 302.3823 L 148.5931 301.2788 L 153.4649 302.4036 L 158.3368 303.5283 M 148.5931 301.2788 L 153.4698 300.1754 M 138.8397 303.4858 L 142.7527 300.3732 M 127.1005 312.8235 L 129.2728 308.32 M 120.5839 326.334 L 120.5839 321.334 M 120.5839 356.334 L 118.4116 351.8305 M 133.6172 383.355 L 133.6172 378.355 L 133.6172 373.355 L 133.6172 368.355 L 133.6172 363.355 L 135.7895 358.8515 L 135.7895 353.8515 L 135.7895 348.8515 M 135.7895 358.8515 L 137.9617 354.348 M 133.6172 363.355 L 133.6172 358.355 L 133.6172 353.355 L 133.6172 348.355 L 133.6172 343.355 L 135.7895 338.8515 L 137.9617 334.348 L 137.9617 329.348 L 135.7895 324.8445 L 133.6172 320.341 M 137.9617 329.348 L 137.9617 324.348 M 137.9617 334.348 L 140.1339 329.8445 M 133.6172 343.355 L 131.445 338.8515 L 129.2728 334.348 L 125.3597 331.2354 L 121.4467 328.1228 M 129.2728 334.348 L 127.1005 329.8445 L 124.9283 325.341 L 122.7561 320.8375 L 120.5839 316.334 L 116.6708 313.2214 L 112.7578 310.1089 M 120.5839 316.334 L 116.6708 313.2214 L 112.7578 310.1089 M 120.5839 316.334 L 120.5839 311.334 L 120.5839 306.334 L 122.7561 301.8305 L 124.9283 297.327 M 120.5839 306.334 L 120.5839 301.334 M 120.5839 316.334 L 120.5839 311.334 L 120.5839 306.334 L 120.5839 301.334 L 120.5839 296.334 L 122.7561 291.8305 L 124.9283 287.3271 M 120.5839 296.334 L 118.4116 291.8305 L 116.2394 287.3271 L 112.3264 284.2145 L 107.4496 283.111 L 102.5729 282.0075 M 112.3264 284.2145 L 108.4133 281.1019 M 116.2394 287.3271 L 114.0672 282.8236 M 120.5839 296.334 L 120.5839 291.334 M 120.5839 316.334 L 120.5839 311.334 L 120.5839 306.334 L 120.5839 301.334 L 118.4116 296.8305 L 114.4986 293.718 L 110.5855 290.6054 M 118.4116 296.8305 L 116.2394 292.327 M 120.5839 301.334 L 120.5839 296.334 L 120.5839 291.334 L 120.5839 286.334 L 120.5839 281.334 L 120.5839 276.334 L 122.7561 271.8305 L 124.9283 267.3271 M 120.5839 276.334 L 118.4116 271.8305 L 114.4986 268.718 L 110.5855 265.6054 M 118.4116 271.8305 L 116.2394 267.3271 M 120.5839 276.334 L 118.4116 271.8305 L 116.2394 267.3271 L 114.0672 262.8236 L 110.1541 259.711 L 106.2411 256.5984 M 114.0672 262.8236 L 114.0672 257.8236 L 114.0672 252.8236 L 116.2394 248.3201 L 118.4116 243.8166 M 114.0672 252.8236 L 114.0672 247.8236 M 114.0672 262.8236 L 111.8949 258.3201 M 120.5839 276.334 L 122.7561 271.8305 L 124.9283 267.3271 L 127.1005 262.8236 L 129.2728 258.3201 L 133.1858 255.2075 L 137.0988 252.0949 M 129.2728 258.3201 L 133.1858 255.2075 L 135.358 250.704 L 137.5303 246.2006 M 133.1858 255.2075 L 137.0988 252.0949 M 129.2728 258.3201 L 133.1858 255.2075 L 135.358 250.704 L 137.5303 246.2006 M 133.1858 255.2075 L 137.0988 252.0949 L 141.0119 248.9824 L 144.9249 245.8698 L 148.838 242.7572 L 151.0102 238.2537 L 153.1824 233.7502 M 148.838 242.7572 L 151.0102 238.2537 L 153.1824 233.7502 M 148.838 242.7572 L 153.7147 241.6537 L 158.5914 240.5502 L 163.4632 241.675 L 168.3351 242.7997 L 172.2345 245.9294 L 176.1339 249.059 M 168.3351 242.7997 L 173.2069 243.9245 M 158.5914 240.5502 L 163.4681 239.4467 M 148.838 242.7572 L 152.751 239.6446 M 129.2728 258.3201 L 131.445 253.8166 M 120.5839 276.334 L 120.5839 271.334 M 120.5839 316.334 L 118.4116 311.8305 M 133.6172 343.355 L 133.6172 338.355 L 133.6172 333.355 L 133.6172 328.355 L 133.6172 323.355 L 135.7895 318.8515 L 137.9617 314.348 L 137.9617 309.348 L 137.9617 304.348 M 137.9617 314.348 L 137.9617 309.348 L 137.9617 304.348 L 137.9617 299.348 L 135.7895 294.8445 L 131.8764 291.7319 L 127.9634 288.6194 M 135.7895 294.8445 L 133.6172 290.341 M 137.9617 299.348 L 137.9617 294.348 M 137.9617 314.348 L 140.1339 309.8445 M 133.6172 323.355 L 133.6172 318.355 L 133.6172 313.355 L 133.6172 308.355 L 133.6172 303.355 L 131.445 298.8515 L 129.2728 294.348 M 133.6172 303.355 L 135.7895 298.8515 L 137.9617 294.348 L 140.1339 289.8445 L 142.3062 285.341 L 142.3062 280.341 L 142.3062 275.341 M 142.3062 285.341 L 142.3062 280.341 L 142.3062 275.341 M 142.3062 285.341 L 142.3062 280.341 L 142.3062 275.341 L 142.3062 270.341 L 142.3062 265.341 L 144.4784 260.8376 L 146.6506 256.3341 M 142.3062 265.341 L 140.1339 260.8376 L 137.9617 256.3341 L 134.0487 253.2215 L 129.1719 252.118 L 124.2952 251.0145 M 134.0487 253.2215 L 130.1356 250.1089 M 137.9617 256.3341 L 135.7895 251.8306 M 142.3062 265.341 L 142.3062 260.341 M 142.3062 285.341 L 144.4784 280.8376 M 133.6172 303.355 L 131.445 298.8515 L 129.2728 294.348 L 127.1005 289.8445 L 124.9283 285.341 L 121.0153 282.2285 L 116.1386 281.125 L 111.2619 280.0215 M 121.0153 282.2285 L 116.1386 281.125 L 111.2619 280.0215 M 121.0153 282.2285 L 117.1022 279.1159 M 124.9283 285.341 L 122.7561 280.8376 L 118.843 277.725 L 114.93 274.6124 M 122.7561 280.8376 L 120.5839 276.3341 L 118.4116 271.8306 L 116.2394 267.3271 L 114.0672 262.8236 L 114.0672 257.8236 L 114.0672 252.8236 M 114.0672 262.8236 L 110.1541 259.7111 L 106.2411 256.5985 L 101.3644 255.495 L 96.48766 254.3915 M 106.2411 256.5985 L 101.3644 255.495 L 96.48766 254.3915 L 91.61095 253.288 L 86.73911 254.4128 L 82.83968 257.5424 L 78.94026 260.672 M 86.73911 254.4128 L 81.86725 255.5375 M 91.61095 253.288 L 86.73424 252.1845 M 106.2411 256.5985 L 101.3644 255.495 L 97.45133 252.3824 L 93.53829 249.2698 M 101.3644 255.495 L 96.48766 254.3915 M 106.2411 256.5985 L 102.328 253.4859 M 114.0672 262.8236 L 111.8949 258.3202 L 109.7227 253.8167 L 107.5505 249.3132 L 103.6374 246.2006 L 99.7244 243.088 M 107.5505 249.3132 L 103.6374 246.2006 L 99.7244 243.088 M 107.5505 249.3132 L 107.5505 244.3132 L 107.5505 239.3132 L 109.7227 234.8097 L 111.8949 230.3062 M 107.5505 239.3132 L 107.5505 234.3132 M 107.5505 249.3132 L 107.5505 244.3132 L 107.5505 239.3132 L 109.7227 234.8097 L 111.8949 230.3062 M 107.5505 239.3132 L 107.5505 234.3132 L 107.5505 229.3132 L 107.5505 224.3132 L 107.5505 219.3132 L 107.5505 214.3132 L 105.3782 209.8097 L 103.206 205.3062 M 107.5505 214.3132 L 105.3782 209.8097 L 103.206 205.3062 L 103.206 200.3062 L 103.206 195.3062 M 103.206 205.3062 L 101.0338 200.8028 M 107.5505 214.3132 L 109.7227 209.8097 L 111.8949 205.3062 L 114.0672 200.8028 L 117.9802 197.6902 L 121.8932 194.5776 M 114.0672 200.8028 L 117.9802 197.6902 L 121.8932 194.5776 L 125.8063 191.465 L 127.9785 186.9615 L 130.1507 182.4581 M 125.8063 191.465 L 130.683 190.3615 L 135.5597 189.2581 L 140.4315 190.3828 L 145.3034 191.5076 M 135.5597 189.2581 L 140.4364 188.1546 M 125.8063 191.465 L 129.7193 188.3524 M 114.0672 200.8028 L 116.2394 196.2993 M 107.5505 214.3132 L 107.5505 209.3132 M 107.5505 249.3132 L 107.5505 244.3132 L 107.5505 239.3132 L 107.5505 234.3132 L 107.5505 229.3132 L 107.5505 224.3132 L 105.3782 219.8097 L 103.206 215.3062 M 107.5505 224.3132 L 109.7227 219.8097 L 111.8949 215.3062 L 114.0672 210.8028 L 114.0672 205.8028 L 111.8949 201.2993 L 109.7227 196.7958 M 114.0672 205.8028 L 114.0672 200.8028 M 114.0672 210.8028 L 117.9802 207.6902 L 122.8569 206.5867 L 127.7336 205.4832 M 117.9802 207.6902 L 121.8932 204.5776 M 114.0672 210.8028 L 116.2394 206.2993 M 107.5505 224.3132 L 107.5505 219.3132 L 107.5505 214.3132 L 107.5505 209.3132 L 109.7227 204.8097 L 109.7227 199.8097 L 109.7227 194.8097 M 109.7227 204.8097 L 109.7227 199.8097 L 109.7227 194.8097 M 109.7227 204.8097 L 111.8949 200.3062 M 107.5505 209.3132 L 107.5505 204.3132 L 105.3782 199.8097 L 103.206 195.3062 M 107.5505 204.3132 L 107.5505 199.3132 L 107.5505 194.3132 L 107.5505 189.3132 L 107.5505 184.3132 L 105.3782 179.8097 L 103.206 175.3062 M 107.5505 184.3132 L 105.3782 179.8097 L 103.206 175.3062 L 103.206 170.3062 L 103.206 165.3062 M 103.206 175.3062 L 101.0338 170.8028 M 107.5505 184.3132 L 105.3782 179.8097 L 103.206 175.3062 L 103.206 170.3062 L 103.206 165.3062 L 105.3782 160.8028 L 107.5505 156.2993 M 103.206 165.3062 L 103.206 160.3062 M 103.206 175.3062 L 101.0338 170.8028 M 107.5505 184.3132 L 105.3782 179.8097 L 103.206 175.3062 L 101.0338 170.8028 L 101.0338 165.8028 L 101.0338 160.8028 M 101.0338 170.8028 L 101.0338 165.8028 L 101.0338 160.8028 L 101.0338 155.8028 L 98.86156 151.2993 L 96.68932 146.7958 M 101.0338 155.8028 L 103.206 151.2993 L 105.3782 146.7958 L 109.2913 143.6832 L 113.2043 140.5706 M 105.3782 146.7958 L 107.5505 142.2923 M 101.0338 155.8028 L 101.0338 150.8028 M 101.0338 170.8028 L 98.86156 166.2993 M 107.5505 184.3132 L 109.7227 179.8097 L 111.8949 175.3062 L 115.808 172.1937 L 119.721 169.0811 M 111.8949 175.3062 L 114.0672 170.8028 L 116.2394 166.2993 L 118.4116 161.7958 L 120.5839 157.2923 L 124.4969 154.1797 L 128.4099 151.0672 M 120.5839 157.2923 L 124.4969 154.1797 L 126.6691 149.6763 L 128.8414 145.1728 M 124.4969 154.1797 L 128.4099 151.0672 M 120.5839 157.2923 L 124.4969 154.1797 L 128.4099 151.0672 L 130.5822 146.5637 L 130.5822 141.5637 L 130.5822 136.5637 M 130.5822 146.5637 L 132.7544 142.0602 M 128.4099 151.0672 L 132.323 147.9546 M 120.5839 157.2923 L 124.4969 154.1797 L 128.4099 151.0672 L 130.5822 146.5637 L 130.5822 141.5637 L 130.5822 136.5637 M 130.5822 146.5637 L 132.7544 142.0602 M 128.4099 151.0672 L 132.323 147.9546 L 136.236 144.842 L 140.149 141.7294 L 144.0621 138.6169 L 146.2343 134.1134 L 148.4066 129.6099 M 144.0621 138.6169 L 146.2343 134.1134 L 148.4066 129.6099 L 152.3196 126.4973 L 156.2326 123.3847 M 148.4066 129.6099 L 150.5788 125.1064 M 144.0621 138.6169 L 148.9388 137.5134 L 153.8155 136.4099 L 158.6922 135.3064 L 163.5641 136.4312 L 168.4359 137.5559 M 158.6922 135.3064 L 163.5641 136.4312 L 168.4359 137.5559 L 173.3078 138.6807 L 178.1845 137.5772 L 183.0612 136.4737 M 173.3078 138.6807 L 177.2072 141.8103 L 181.1066 144.9399 L 183.2592 149.4528 L 185.4117 153.9658 M 181.1066 144.9399 L 185.006 148.0695 M 173.3078 138.6807 L 178.1796 139.8054 M 158.6922 135.3064 L 163.5689 134.2029 M 144.0621 138.6169 L 147.9751 135.5043 M 120.5839 157.2923 L 122.7561 152.7888 M 107.5505 184.3132 L 107.5505 179.3132 M 107.5505 249.3132 L 105.3782 244.8097 M 133.6172 303.355 L 133.6172 298.355 L 133.6172 293.355 L 133.6172 288.355 L 133.6172 283.355 L 131.445 278.8515 L 129.2728 274.348 M 133.6172 283.355 L 133.6172 278.355 L 133.6172 273.355 L 133.6172 268.355 L 133.6172 263.355 L 131.445 258.8515 L 129.2728 254.348 L 129.2728 249.348 L 129.2728 244.348 M 129.2728 254.348 L 127.1005 249.8445 M 133.6172 263.355 L 135.7895 258.8515 L 137.9617 254.348 L 140.1339 249.8445 L 144.047 246.732 L 148.9237 245.6285 L 153.8004 244.525 M 144.047 246.732 L 147.96 243.6194 M 140.1339 249.8445 L 142.3062 245.3411 L 144.4784 240.8376 L 144.4784 235.8376 L 144.4784 230.8376 M 144.4784 240.8376 L 144.4784 235.8376 L 144.4784 230.8376 L 144.4784 225.8376 L 142.3062 221.3341 L 138.3931 218.2215 L 134.4801 215.1089 M 142.3062 221.3341 L 140.1339 216.8306 M 144.4784 225.8376 L 144.4784 220.8376 M 144.4784 240.8376 L 144.4784 235.8376 L 144.4784 230.8376 L 144.4784 225.8376 L 142.3062 221.3341 L 138.3931 218.2215 L 134.4801 215.1089 M 142.3062 221.3341 L 140.1339 216.8306 M 144.4784 225.8376 L 144.4784 220.8376 L 142.3062 216.3341 L 140.1339 211.8306 M 144.4784 220.8376 L 144.4784 215.8376 L 144.4784 210.8376 L 144.4784 205.8376 L 146.6506 201.3341 L 148.8228 196.8306 M 144.4784 205.8376 L 146.6506 201.3341 L 146.6506 196.3341 L 146.6506 191.3341 M 146.6506 201.3341 L 148.8228 196.8306 M 144.4784 205.8376 L 142.3062 201.3341 L 140.1339 196.8306 L 136.2209 193.718 L 132.3078 190.6055 M 140.1339 196.8306 L 136.2209 193.718 L 132.3078 190.6055 L 128.3948 187.4929 L 123.5181 186.3894 L 118.6462 187.5142 L 113.7744 188.6389 M 123.5181 186.3894 L 118.6414 185.2859 M 128.3948 187.4929 L 124.4818 184.3803 M 140.1339 196.8306 L 137.9617 192.3271 M 144.4784 205.8376 L 144.4784 200.8376 M 144.4784 240.8376 L 146.6506 236.3341 M 133.6172 263.355 L 133.6172 258.355 L 133.6172 253.355 L 133.6172 248.355 L 133.6172 243.355 L 131.445 238.8515 L 129.2728 234.348 L 129.2728 229.348 L 129.2728 224.348 L 131.445 219.8445 L 133.6172 215.3411 M 129.2728 224.348 L 129.2728 219.348 M 129.2728 234.348 L 127.1005 229.8445 M 133.6172 243.355 L 133.6172 238.355 L 133.6172 233.355 L 133.6172 228.355 L 135.7895 223.8515 L 137.9617 219.348 M 133.6172 228.355 L 133.6172 223.355 L 133.6172 218.355 L 133.6172 213.355 L 133.6172 208.355 L 135.7895 203.8515 L 137.9617 199.348 M 133.6172 208.355 L 135.7895 203.8515 L 135.7895 198.8515 L 135.7895 193.8515 M 135.7895 203.8515 L 137.9617 199.348 M 133.6172 208.355 L 131.445 203.8515 L 129.2728 199.348 L 125.3597 196.2354 L 120.483 195.132 L 115.6063 194.0285 M 125.3597 196.2354 L 121.4467 193.1229 M 129.2728 199.348 L 127.1005 194.8445 M 133.6172 208.355 L 131.445 203.8515 L 127.532 200.7389 L 123.6189 197.6263 M 131.445 203.8515 L 129.2728 199.348 L 127.1005 194.8445 L 124.9283 190.3411 L 122.7561 185.8376 L 118.843 182.725 L 114.93 179.6124 M 122.7561 185.8376 L 118.843 182.725 L 114.93 179.6124 M 122.7561 185.8376 L 122.7561 180.8376 L 122.7561 175.8376 L 124.9283 171.3341 L 127.1005 166.8306 L 131.0136 163.718 L 134.9266 160.6055 M 127.1005 166.8306 L 129.2728 162.3271 M 122.7561 175.8376 L 122.7561 170.8376 M 122.7561 185.8376 L 120.5839 181.3341 M 133.6172 208.355 L 135.7895 203.8515 L 137.9617 199.348 L 137.9617 194.348 L 135.7895 189.8445 L 133.6172 185.3411 M 137.9617 194.348 L 137.9617 189.348 M 137.9617 199.348 L 140.1339 194.8445 L 142.3062 190.3411 L 146.2192 187.2285 L 150.1322 184.1159 L 155.0089 183.0124 L 159.8857 181.9089 M 150.1322 184.1159 L 154.0453 181.0033 M 142.3062 190.3411 L 146.2192 187.2285 L 150.1322 184.1159 L 155.0089 183.0124 L 159.8857 181.9089 M 150.1322 184.1159 L 154.0453 181.0033 L 157.9583 177.8907 L 161.8714 174.7782 L 164.0436 170.2747 L 166.2158 165.7712 M 161.8714 174.7782 L 164.0436 170.2747 L 166.2158 165.7712 M 161.8714 174.7782 L 166.7481 173.6747 L 171.6248 172.5712 L 176.4966 173.696 L 181.3685 174.8207 L 185.2679 177.9503 L 189.1673 181.0799 M 181.3685 174.8207 L 186.2403 175.9455 M 171.6248 172.5712 L 176.5015 171.4677 M 161.8714 174.7782 L 165.7844 171.6656 M 142.3062 190.3411 L 144.4784 185.8376 M 133.6172 208.355 L 135.7895 203.8515 L 137.9617 199.348 L 140.1339 194.8445 L 144.047 191.732 L 146.2192 187.2285 L 148.3914 182.725 M 144.047 191.732 L 148.9237 190.6285 L 153.8004 189.525 M 144.047 191.732 L 147.96 188.6194 M 140.1339 194.8445 L 142.3062 190.3411 L 144.4784 185.8376 L 144.4784 180.8376 L 144.4784 175.8376 M 144.4784 185.8376 L 146.6506 181.3341 L 148.8228 176.8306 L 150.9951 172.3271 L 153.1673 167.8237 L 153.1673 162.8237 L 153.1673 157.8237 M 153.1673 167.8237 L 153.1673 162.8237 L 153.1673 157.8237 M 153.1673 167.8237 L 157.0803 164.7111 L 160.9934 161.5985 L 165.8701 160.495 L 170.7468 159.3915 M 160.9934 161.5985 L 164.9064 158.4859 M 153.1673 167.8237 L 157.0803 164.7111 L 160.9934 161.5985 L 164.9064 158.4859 L 168.8195 155.3734 L 173.6962 154.2699 L 178.5729 153.1664 M 168.8195 155.3734 L 170.9917 150.8699 L 173.1639 146.3664 L 173.1639 141.3664 L 170.9917 136.8629 L 168.8195 132.3594 M 173.1639 141.3664 L 173.1639 136.3664 M 173.1639 146.3664 L 175.3362 141.8629 M 168.8195 155.3734 L 172.7325 152.2608 M 153.1673 167.8237 L 153.1673 162.8237 L 153.1673 157.8237 L 153.1673 152.8237 L 153.1673 147.8237 L 150.9951 143.3202 L 148.8228 138.8167 M 153.1673 147.8237 L 150.9951 143.3202 L 148.8228 138.8167 L 148.8228 133.8167 L 148.8228 128.8167 M 148.8228 138.8167 L 146.6506 134.3132 M 153.1673 147.8237 L 150.9951 143.3202 L 148.8228 138.8167 L 148.8228 133.8167 L 148.8228 128.8167 M 148.8228 138.8167 L 146.6506 134.3132 L 144.4784 129.8098 L 142.3062 125.3063 L 140.1339 120.8028 L 140.1339 115.8028 L 140.1339 110.8028 M 140.1339 120.8028 L 140.1339 115.8028 L 137.9617 111.2993 L 135.7895 106.7958 M 140.1339 115.8028 L 140.1339 110.8028 M 140.1339 120.8028 L 136.2209 117.6902 L 132.3078 114.5776 L 127.4311 113.4742 L 122.5544 112.3707 M 132.3078 114.5776 L 127.4311 113.4742 L 122.5544 112.3707 L 117.6777 111.2672 L 112.8059 112.3919 L 108.9064 115.5215 L 105.007 118.6512 M 112.8059 112.3919 L 107.934 113.5167 M 117.6777 111.2672 L 112.801 110.1637 M 132.3078 114.5776 L 128.3948 111.4651 M 140.1339 120.8028 L 137.9617 116.2993 M 153.1673 147.8237 L 153.1673 142.8237 M 153.1673 167.8237 L 155.3395 163.3202 M 133.6172 208.355 L 131.445 203.8515 L 129.2728 199.348 L 125.3597 196.2354 L 120.483 195.132 L 115.6063 194.0285 M 125.3597 196.2354 L 121.4467 193.1229 M 129.2728 199.348 L 127.1005 194.8445 L 124.9283 190.3411 L 122.7561 185.8376 L 120.5839 181.3341 L 120.5839 176.3341 L 120.5839 171.3341 L 122.7561 166.8306 L 124.9283 162.3271 L 128.8414 159.2146 L 132.7544 156.102 M 124.9283 162.3271 L 127.1005 157.8237 M 120.5839 171.3341 L 122.7561 166.8306 L 122.7561 161.8306 L 122.7561 156.8306 M 122.7561 166.8306 L 124.9283 162.3271 M 120.5839 171.3341 L 120.5839 166.3341 M 120.5839 181.3341 L 118.4116 176.8306 L 116.2394 172.3271 L 114.0672 167.8237 L 114.0672 162.8237 L 114.0672 157.8237 M 114.0672 167.8237 L 110.1541 164.7111 L 105.2774 163.6076 L 100.4007 162.5041 M 110.1541 164.7111 L 106.2411 161.5985 M 114.0672 167.8237 L 110.1541 164.7111 L 105.2774 163.6076 L 100.4007 162.5041 M 110.1541 164.7111 L 106.2411 161.5985 L 102.328 158.4859 L 98.41501 155.3734 L 94.50197 152.2608 L 90.58893 149.1482 L 88.4167 144.6447 L 86.24448 140.1412 M 90.58893 149.1482 L 88.4167 144.6447 L 84.50366 141.5321 L 80.59062 138.4196 M 88.4167 144.6447 L 86.24448 140.1412 M 90.58893 149.1482 L 85.71221 148.0447 L 80.8355 146.9412 L 75.96365 148.066 L 71.0918 149.1907 M 80.8355 146.9412 L 75.96365 148.066 L 71.0918 149.1907 L 66.21996 150.3155 L 62.32053 153.4451 L 60.16798 157.958 L 58.01543 162.471 M 62.32053 153.4451 L 58.42111 156.5747 M 66.21996 150.3155 L 61.34811 151.4402 M 80.8355 146.9412 L 75.95879 145.8377 M 90.58893 149.1482 L 86.67589 146.0356 M 114.0672 167.8237 L 110.1541 164.7111 L 106.2411 161.5985 L 102.328 158.4859 L 98.41501 155.3734 L 93.53829 154.2699 L 88.66158 153.1664 L 84.74854 150.0538 L 80.8355 146.9412 M 88.66158 153.1664 L 83.78973 154.2911 L 79.89031 157.4207 L 75.99089 160.5504 M 83.78973 154.2911 L 78.91788 155.4159 M 88.66158 153.1664 L 83.78487 152.0629 M 98.41501 155.3734 L 94.50197 152.2608 L 90.58893 149.1482 L 85.71221 148.0447 L 81.79917 144.9321 L 77.88614 141.8195 M 85.71221 148.0447 L 80.8355 146.9412 M 90.58893 149.1482 L 86.67589 146.0356 L 84.50366 141.5321 L 82.33144 137.0287 M 86.67589 146.0356 L 82.76285 142.923 L 78.84981 139.8105 L 74.93677 136.6979 L 71.02373 133.5853 L 68.85149 129.0818 L 66.67926 124.5783 M 71.02373 133.5853 L 68.85149 129.0818 L 64.93845 125.9692 L 61.02541 122.8567 M 68.85149 129.0818 L 66.67926 124.5783 M 71.02373 133.5853 L 68.85149 129.0818 L 66.67926 124.5783 L 62.76622 121.4658 L 57.88951 120.3623 L 53.0128 119.2588 M 62.76622 121.4658 L 58.85318 118.3532 M 66.67926 124.5783 L 64.50703 120.0749 M 71.02373 133.5853 L 68.85149 129.0818 L 66.67926 124.5783 L 62.76622 121.4658 L 58.85318 118.3532 M 66.67926 124.5783 L 62.76622 121.4658 L 58.85318 118.3532 L 54.94014 115.2406 L 50.06343 114.1371 L 45.19158 115.2619 L 40.31973 116.3866 M 50.06343 114.1371 L 45.18672 113.0336 M 54.94014 115.2406 L 51.0271 112.128 M 66.67926 124.5783 L 64.50703 120.0749 M 71.02373 133.5853 L 66.14701 132.4818 L 61.27516 133.6066 L 56.40331 134.7313 M 66.14701 132.4818 L 61.2703 131.3783 L 56.39359 130.2748 L 51.51688 129.1714 L 46.64017 128.0679 L 41.76833 129.1926 L 36.89648 130.3174 M 46.64017 128.0679 L 41.76833 129.1926 L 36.89648 130.3174 M 46.64017 128.0679 L 41.76833 129.1926 L 36.89648 130.3174 L 32.01976 129.2139 L 27.14305 128.1104 M 36.89648 130.3174 L 32.02462 131.4421 M 46.64017 128.0679 L 41.76833 129.1926 L 36.89648 130.3174 L 32.01976 129.2139 L 27.14305 128.1104 M 36.89648 130.3174 L 32.02462 131.4421 L 27.15277 132.5669 L 22.28092 133.6917 L 17.40907 134.8164 L 12.53236 133.7129 L 7.655655 132.6094 M 17.40907 134.8164 L 12.53236 133.7129 L 7.660515 134.8377 L 2.788666 135.9624 M 12.53236 133.7129 L 7.655655 132.6094 M 17.40907 134.8164 L 13.50965 137.946 L 9.610229 141.0756 L 7.457672 145.5886 L 5.305115 150.1015 M 9.610229 141.0756 L 7.457672 145.5886 L 5.305115 150.1015 L 3.152557 154.6144 L 3.174377 159.6144 L 5.366226 164.1083 L 7.558083 168.6023 M 3.174377 159.6144 L 3.196198 164.6143 M 3.152557 154.6144 L 1 159.1274 M 9.610229 141.0756 L 5.7108 144.2052 M 17.40907 134.8164 L 12.53722 135.9412 M 46.64017 128.0679 L 41.76347 126.9644 M 71.02373 133.5853 L 67.11068 130.4727 M 114.0672 167.8237 L 111.8949 163.3202 M 133.6172 208.355 L 131.445 203.8515 L 129.2728 199.348 L 127.1005 194.8445 L 124.9283 190.3411 L 124.9283 185.3411 L 122.7561 180.8376 L 120.5839 176.3341 M 124.9283 185.3411 L 124.9283 180.3411 M 124.9283 190.3411 L 121.0153 187.2285 L 116.1386 186.125 L 111.2619 185.0215 M 121.0153 187.2285 L 117.1022 184.1159 L 113.1892 181.0033 L 109.2762 177.8907 L 105.3631 174.7782 L 100.4864 173.6747 L 95.6097 172.5712 M 105.3631 174.7782 L 100.4864 173.6747 L 95.6097 172.5712 M 105.3631 174.7782 L 103.1909 170.2747 L 101.0187 165.7712 L 101.0187 160.7712 L 101.0187 155.7712 L 103.1909 151.2677 L 105.3631 146.7643 M 101.0187 155.7712 L 101.0187 150.7712 M 101.0187 165.7712 L 98.84642 161.2677 M 105.3631 174.7782 L 100.4864 173.6747 L 95.6097 172.5712 L 91.69666 169.4586 L 87.78362 166.346 M 95.6097 172.5712 L 90.73784 173.696 L 86.83842 176.8256 L 82.939 179.9552 M 90.73784 173.696 L 85.866 174.8207 M 95.6097 172.5712 L 90.73299 171.4677 M 105.3631 174.7782 L 101.4501 171.6656 M 124.9283 190.3411 L 122.7561 185.8376 L 120.5839 181.3341 L 118.4116 176.8306 L 116.2394 172.3271 L 116.2394 167.3271 L 116.2394 162.3271 L 114.0672 157.8237 L 110.1541 154.7111 L 106.2411 151.5985 M 114.0672 157.8237 L 111.8949 153.3202 M 116.2394 162.3271 L 116.2394 157.3271 M 116.2394 172.3271 L 114.0672 167.8237 L 111.8949 163.3202 L 107.9819 160.2076 L 104.0689 157.095 M 111.8949 163.3202 L 109.7227 158.8167 L 107.5505 154.3132 L 105.3782 149.8098 L 103.206 145.3063 L 99.29297 142.1937 L 95.37993 139.0811 M 103.206 145.3063 L 99.29297 142.1937 L 95.37993 139.0811 M 103.206 145.3063 L 103.206 140.3063 L 103.206 135.3063 L 105.3782 130.8028 L 107.5505 126.2993 M 103.206 135.3063 L 103.206 130.3063 M 103.206 145.3063 L 103.206 140.3063 L 103.206 135.3063 L 103.206 130.3063 L 103.206 125.3063 L 105.3782 120.8028 L 107.5505 116.2993 M 103.206 125.3063 L 101.0338 120.8028 L 98.86156 116.2993 L 94.94852 113.1867 L 90.07181 112.0833 L 85.1951 110.9798 M 94.94852 113.1867 L 91.03548 110.0742 M 98.86156 116.2993 L 96.68932 111.7958 M 103.206 125.3063 L 103.206 120.3063 M 103.206 145.3063 L 99.29297 142.1937 L 95.37993 139.0811 L 93.2077 134.5776 L 91.03548 130.0742 M 95.37993 139.0811 L 91.46689 135.9685 L 87.55385 132.856 L 82.67714 131.7525 L 77.8053 132.8772 L 72.93344 134.002 M 82.67714 131.7525 L 77.80043 130.649 M 87.55385 132.856 L 82.67714 131.7525 L 77.8053 132.8772 L 72.93344 134.002 M 82.67714 131.7525 L 77.80043 130.649 L 72.92372 129.5455 L 68.04701 128.442 L 64.13397 125.3294 L 60.22093 122.2169 M 68.04701 128.442 L 63.17516 129.5668 L 58.30331 130.6915 L 54.40389 133.8211 L 52.25134 138.3341 L 50.09877 142.847 M 54.40389 133.8211 L 50.50447 136.9507 M 58.30331 130.6915 L 53.43147 131.8163 M 68.04701 128.442 L 63.1703 127.3385 M 87.55385 132.856 L 83.64081 129.7434 M 103.206 145.3063 L 99.29297 142.1937 L 95.37993 139.0811 L 91.46689 135.9685 L 86.59018 134.8651 L 81.71834 135.9898 L 76.84648 137.1146 M 86.59018 134.8651 L 81.71347 133.7616 M 91.46689 135.9685 L 87.55385 132.856 L 83.64081 129.7434 L 79.72777 126.6308 L 75.81473 123.5182 L 71.90169 120.4056 L 69.72946 115.9022 L 67.55724 111.3987 M 71.90169 120.4056 L 67.02499 119.3022 L 62.15313 120.4269 L 57.28128 121.5517 M 67.02499 119.3022 L 62.14827 118.1987 M 71.90169 120.4056 L 67.02499 119.3022 L 62.14827 118.1987 L 57.27156 117.0952 L 52.39971 118.2199 L 47.52786 119.3447 M 57.27156 117.0952 L 53.35852 113.9826 L 49.44548 110.87 L 47.27325 106.3665 L 45.10104 101.8631 M 49.44548 110.87 L 45.53244 107.7574 M 57.27156 117.0952 L 52.39485 115.9917 M 71.90169 120.4056 L 69.72946 115.9022 L 67.55724 111.3987 L 65.38501 106.8952 L 63.21278 102.3917 L 63.21278 97.39172 L 63.21278 92.39172 M 63.21278 102.3917 L 63.21278 97.39172 L 61.04055 92.88824 L 58.86832 88.38477 M 63.21278 97.39172 L 63.21278 92.39172 M 63.21278 102.3917 L 63.21278 97.39172 L 61.04055 92.88824 L 58.86832 88.38477 M 63.21278 97.39172 L 63.21278 92.39172 L 63.21278 87.39172 L 63.21278 82.39172 L 63.21278 77.39172 L 61.04055 72.88824 L 58.86832 68.38477 M 63.21278 77.39172 L 61.04055 72.88824 L 58.86832 68.38477 M 63.21278 77.39172 L 65.38501 72.88824 L 67.55724 68.38477 L 71.47028 65.27219 L 75.38332 62.15961 L 80.26003 61.05612 L 85.13673 59.95264 M 75.38332 62.15961 L 79.29636 59.04703 M 67.55724 68.38477 L 69.72946 63.88129 M 63.21278 77.39172 L 63.21278 72.39172 M 63.21278 102.3917 L 61.04055 97.88824 M 71.90169 120.4056 L 67.98864 117.2931 M 103.206 145.3063 L 103.206 140.3063 L 103.206 135.3063 L 105.3782 130.8028 L 107.5505 126.2993 M 103.206 135.3063 L 103.206 130.3063 L 103.206 125.3063 L 101.0338 120.8028 L 97.12074 117.6902 L 93.2077 114.5776 M 101.0338 120.8028 L 98.86156 116.2993 M 103.206 125.3063 L 103.206 120.3063 L 103.206 115.3063 L 103.206 110.3063 L 103.206 105.3063 L 101.0338 100.8028 L 98.86156 96.29932 M 103.206 105.3063 L 101.0338 100.8028 L 98.86156 96.29932 L 98.86156 91.29932 L 98.86156 86.29932 M 98.86156 96.29932 L 96.68932 91.79584 M 103.206 105.3063 L 105.3782 100.8028 L 107.5505 96.29932 L 111.4635 93.18674 L 115.3766 90.07416 L 120.2533 88.97067 L 125.13 87.86719 M 115.3766 90.07416 L 119.2896 86.96158 M 107.5505 96.29932 L 109.7227 91.79584 M 103.206 105.3063 L 105.3782 100.8028 L 107.5505 96.29932 L 111.4635 93.18674 L 115.3766 90.07416 M 107.5505 96.29932 L 109.7227 91.79584 L 111.8949 87.29236 L 114.0672 82.78888 L 116.2394 78.2854 L 120.1524 75.17282 L 124.0655 72.06024 M 116.2394 78.2854 L 120.1524 75.17282 L 122.3247 70.66934 L 124.4969 66.16586 M 120.1524 75.17282 L 124.0655 72.06024 M 116.2394 78.2854 L 116.2394 73.2854 L 116.2394 68.2854 L 114.0672 63.78192 L 111.8949 59.27844 M 116.2394 68.2854 L 114.0672 63.78192 L 111.8949 59.27844 L 109.7227 54.77496 L 105.8097 51.66238 L 100.933 50.5589 L 96.05624 49.45541 M 105.8097 51.66238 L 101.8966 48.5498 M 109.7227 54.77496 L 107.5505 50.27148 M 116.2394 68.2854 L 116.2394 63.2854 M 116.2394 78.2854 L 118.4116 73.78192 M 103.206 105.3063 L 105.3782 100.8028 L 107.5505 96.29932 L 109.7227 91.79584 L 109.7227 86.79584 L 109.7227 81.79584 L 111.8949 77.29236 L 114.0672 72.78888 M 109.7227 81.79584 L 107.5505 77.29236 L 103.6374 74.17978 L 99.7244 71.0672 M 107.5505 77.29236 L 105.3782 72.78888 M 109.7227 81.79584 L 109.7227 76.79584 M 109.7227 91.79584 L 111.8949 87.29236 L 114.0672 82.78888 L 116.2394 78.2854 L 120.1524 75.17282 L 124.0655 72.06024 M 116.2394 78.2854 L 118.4116 73.78192 L 120.5839 69.27844 L 122.7561 64.77496 L 124.9283 60.27148 L 128.8414 57.15891 L 132.7544 54.04633 M 124.9283 60.27148 L 128.8414 57.15891 L 131.0136 52.65543 L 133.1858 48.15195 M 128.8414 57.15891 L 132.7544 54.04633 M 124.9283 60.27148 L 124.9283 55.27148 L 124.9283 50.27148 L 122.7561 45.76801 L 118.843 42.65543 L 114.93 39.54285 M 122.7561 45.76801 L 120.5839 41.26453 M 124.9283 50.27148 L 124.9283 45.27148 M 124.9283 60.27148 L 124.9283 55.27148 L 122.7561 50.76801 L 120.5839 46.26453 M 124.9283 55.27148 L 124.9283 50.27148 L 124.9283 45.27148 L 124.9283 40.27148 L 124.9283 35.27148 L 122.7561 30.76801 L 120.5839 26.26453 M 124.9283 35.27148 L 122.7561 30.76801 L 120.5839 26.26453 M 124.9283 35.27148 L 127.1005 30.76801 L 129.2728 26.26453 L 133.1858 23.15198 L 137.0988 20.03943 L 141.9756 18.93591 L 146.8523 17.8324 M 137.0988 20.03943 L 141.0119 16.92688 M 129.2728 26.26453 L 131.445 21.76105 M 124.9283 35.27148 L 124.9283 30.27148 M 124.9283 60.27148 L 128.8414 57.15891 L 132.7544 54.04633 L 136.6674 50.93375 L 140.5805 47.82117 L 142.7527 43.31769 L 144.9249 38.81421 M 140.5805 47.82117 L 145.4572 46.71768 L 150.3339 45.6142 M 140.5805 47.82117 L 145.4572 46.71768 L 150.3339 45.6142 L 155.2106 44.51071 L 159.1236 41.39813 L 161.2959 36.89465 L 163.4681 32.39117 M 159.1236 41.39813 L 163.0367 38.28555 M 155.2106 44.51071 L 160.0873 43.40723 M 140.5805 47.82117 L 145.4572 46.71768 L 150.3339 45.6142 L 155.2106 44.51071 L 159.1236 41.39813 L 161.2959 36.89465 L 163.4681 32.39117 M 159.1236 41.39813 L 163.0367 38.28555 M 155.2106 44.51071 L 160.0873 43.40723 L 164.964 42.30374 L 169.8407 41.20026 L 174.7174 40.09677 L 178.6305 36.98419 L 182.5435 33.87164 M 174.7174 40.09677 L 178.6305 36.98419 L 182.5435 33.87164 L 187.4202 32.76813 L 192.2969 31.66461 M 182.5435 33.87164 L 186.4566 30.75909 M 174.7174 40.09677 L 179.5893 41.22153 L 184.4612 42.34628 L 189.333 43.47104 L 193.2324 46.60065 L 197.1318 49.73026 M 189.333 43.47104 L 193.2324 46.60065 L 197.1318 49.73026 L 201.0313 52.85986 L 205.9031 53.98462 L 210.775 55.10938 M 201.0313 52.85986 L 203.1838 57.3728 L 205.3363 61.88574 L 205.3145 66.88568 L 205.2927 71.88562 M 205.3363 61.88574 L 207.4889 66.39868 M 201.0313 52.85986 L 204.9307 55.98947 M 189.333 43.47104 L 194.2048 44.59579 M 174.7174 40.09677 L 179.5941 38.99329 M 140.5805 47.82117 L 144.4935 44.70859 M 124.9283 60.27148 L 127.1005 55.76801 M 103.206 105.3063 L 103.206 100.3063 M 103.206 145.3063 L 101.0338 140.8028 M 133.6172 208.355 L 135.7895 203.8515 L 137.9617 199.348 L 137.9617 194.348 L 135.7895 189.8445 L 133.6172 185.3411 M 137.9617 194.348 L 137.9617 189.348 M 137.9617 199.348 L 140.1339 194.8445 L 140.1339 189.8445 L 140.1339 184.8445 M 140.1339 194.8445 L 142.3062 190.3411 L 144.4784 185.8376 L 146.6506 181.3341 L 148.8228 176.8306 L 148.8228 171.8306 L 148.8228 166.8306 M 148.8228 176.8306 L 152.7359 173.718 L 157.6126 172.6146 L 162.4893 171.5111 M 152.7359 173.718 L 157.6126 172.6146 L 162.4893 171.5111 L 167.366 170.4076 L 171.2791 167.295 L 173.4513 162.7915 L 175.6235 158.2881 M 171.2791 167.295 L 175.1921 164.1824 M 167.366 170.4076 L 172.2427 169.3041 M 152.7359 173.718 L 156.6489 170.6055 M 148.8228 176.8306 L 150.9951 172.3271 L 153.1673 167.8237 L 155.3395 163.3202 L 157.5118 158.8167 L 157.5118 153.8167 L 157.5118 148.8167 M 157.5118 158.8167 L 159.684 154.3132 L 161.8562 149.8098 L 164.0285 145.3063 L 166.2007 140.8028 L 166.2007 135.8028 L 166.2007 130.8028 L 168.3729 126.2993 L 170.5451 121.7958 M 166.2007 130.8028 L 166.2007 125.8028 M 166.2007 140.8028 L 166.2007 135.8028 L 166.2007 130.8028 L 166.2007 125.8028 L 168.3729 121.2993 L 172.2859 118.1867 L 176.199 115.0742 M 168.3729 121.2993 L 170.5451 116.7958 M 166.2007 125.8028 L 166.2007 120.8028 L 166.2007 115.8028 L 164.0285 111.2993 L 161.8562 106.7958 M 166.2007 115.8028 L 164.0285 111.2993 L 161.8562 106.7958 L 159.684 102.2924 L 155.771 99.17978 L 150.8942 98.07629 L 146.0175 96.97281 M 155.771 99.17978 L 151.8579 96.0672 M 159.684 102.2924 L 157.5118 97.78888 M 166.2007 115.8028 L 164.0285 111.2993 L 161.8562 106.7958 L 159.684 102.2924 L 155.771 99.17978 L 150.8942 98.07629 L 146.0175 96.97281 M 155.771 99.17978 L 151.8579 96.0672 M 159.684 102.2924 L 157.5118 97.78888 L 153.5987 94.6763 L 149.6857 91.56372 M 157.5118 97.78888 L 155.3395 93.2854 L 153.1673 88.78192 L 150.9951 84.27844 L 150.9951 79.27844 L 150.9951 74.27844 M 150.9951 84.27844 L 150.9951 79.27844 L 148.8228 74.77496 L 146.6506 70.27148 M 150.9951 79.27844 L 150.9951 74.27844 M 150.9951 84.27844 L 147.082 81.16586 L 143.169 78.05328 L 138.2923 76.9498 L 133.4156 75.84631 M 143.169 78.05328 L 138.2923 76.9498 L 133.4156 75.84631 L 128.5389 74.74283 L 123.667 75.86758 L 119.7676 78.99719 L 115.8682 82.1268 M 123.667 75.86758 L 118.7952 76.99234 M 128.5389 74.74283 L 123.6622 73.63934 M 143.169 78.05328 L 139.256 74.9407 M 150.9951 84.27844 L 148.8228 79.77496 M 166.2007 115.8028 L 164.0285 111.2993 L 164.0285 106.2993 L 164.0285 101.2993 M 164.0285 111.2993 L 164.0285 106.2993 L 164.0285 101.2993 L 164.0285 96.29932 L 161.8562 91.79584 L 157.9432 88.68326 L 154.0302 85.57068 M 161.8562 91.79584 L 159.684 87.29236 M 164.0285 96.29932 L 164.0285 91.29932 M 164.0285 111.2993 L 161.8562 106.7958 M 166.2007 115.8028 L 166.2007 110.8028 M 166.2007 140.8028 L 168.3729 136.2993 L 170.5451 131.7958 L 172.7174 127.2924 L 174.8896 122.7889 L 177.0618 118.2854 L 180.9749 115.1728 L 184.8879 112.0602 M 177.0618 118.2854 L 177.0618 113.2854 L 174.8896 108.7819 L 172.7174 104.2784 M 177.0618 113.2854 L 177.0618 108.2854 M 177.0618 118.2854 L 177.0618 113.2854 L 177.0618 108.2854 L 177.0618 103.2854 L 174.8896 98.78192 L 172.7174 94.27844 M 177.0618 103.2854 L 179.2341 98.78192 L 181.4063 94.27844 L 185.3193 91.16586 L 189.2324 88.05328 M 181.4063 94.27844 L 183.5785 89.77496 M 177.0618 103.2854 L 177.0618 98.2854 M 177.0618 118.2854 L 180.9749 115.1728 L 183.1471 110.6693 L 185.3193 106.1659 M 180.9749 115.1728 L 184.8879 112.0602 L 188.8009 108.9477 L 193.6777 107.8442 L 198.5544 106.7407 M 188.8009 108.9477 L 193.6777 107.8442 L 198.5544 106.7407 L 203.4311 105.6372 L 207.3441 102.5246 L 211.2572 99.41205 M 203.4311 105.6372 L 208.3029 106.762 L 213.1748 107.8867 L 217.0742 111.0163 L 220.9736 114.1459 M 213.1748 107.8867 L 218.0466 109.0115 M 203.4311 105.6372 L 208.3078 104.5337 M 188.8009 108.9477 L 192.714 105.8351 M 177.0618 118.2854 L 180.9749 115.1728 L 183.1471 110.6693 L 185.3193 106.1659 M 180.9749 115.1728 L 184.8879 112.0602 L 188.8009 108.9477 L 192.714 105.8351 L 196.627 102.7225 L 201.5038 101.619 L 206.3756 102.7438 L 211.2474 103.8685 M 201.5038 101.619 L 206.3756 102.7438 L 211.2523 101.6403 L 216.129 100.5368 M 206.3756 102.7438 L 211.2474 103.8685 M 201.5038 101.619 L 206.3805 100.5155 M 196.627 102.7225 L 200.5401 99.60992 L 205.4168 98.50644 L 209.3298 95.39386 L 213.2429 92.28128 M 205.4168 98.50644 L 210.2935 97.40295 M 200.5401 99.60992 L 204.4531 96.49734 L 206.6253 91.99387 L 208.7976 87.49039 M 204.4531 96.49734 L 208.3661 93.38477 L 212.2792 90.27219 L 216.1922 87.15961 L 220.1053 84.04703 L 222.2775 79.54355 L 224.4497 75.04007 M 220.1053 84.04703 L 224.0183 80.93445 L 227.9314 77.82187 L 231.8444 74.70929 L 235.7574 71.59671 L 240.6341 70.49323 L 245.5109 69.38974 M 235.7574 71.59671 L 240.6341 70.49323 L 244.5472 67.38065 L 248.4602 64.26807 M 240.6341 70.49323 L 245.5109 69.38974 M 235.7574 71.59671 L 237.9297 67.09323 L 240.1019 62.58975 L 240.1019 57.58975 L 237.9297 53.08627 L 235.7574 48.58279 M 240.1019 57.58975 L 240.1019 52.58975 M 240.1019 62.58975 L 242.2741 58.08627 M 235.7574 71.59671 L 237.9297 67.09323 L 237.9297 62.09323 L 237.9297 57.09323 M 237.9297 67.09323 L 240.1019 62.58975 L 242.2741 58.08627 L 244.4464 53.58279 L 246.6186 49.07932 L 246.6186 44.07932 L 246.6186 39.07932 M 246.6186 49.07932 L 246.6186 44.07932 L 246.6186 39.07932 M 246.6186 49.07932 L 250.5316 45.96674 L 254.4447 42.85416 L 259.3214 41.75067 L 264.1981 40.64719 L 269.0699 41.77194 L 273.9418 42.8967 M 264.1981 40.64719 L 269.0748 39.5437 M 254.4447 42.85416 L 258.3577 39.74158 M 246.6186 49.07932 L 248.7908 44.57584 M 235.7574 71.59671 L 240.6341 70.49323 L 245.5109 69.38974 L 250.3876 68.28625 L 255.2643 67.18277 L 259.1773 64.07019 L 263.0904 60.95761 M 255.2643 67.18277 L 260.1361 68.30753 L 265.008 69.43228 M 255.2643 67.18277 L 260.1361 68.30753 L 265.008 69.43228 L 269.8798 70.55704 L 274.7565 69.45355 L 278.6696 66.34097 L 282.5826 63.22839 M 274.7565 69.45355 L 279.6332 68.35007 M 269.8798 70.55704 L 274.7517 71.68179 M 255.2643 67.18277 L 260.1361 68.30753 L 265.008 69.43228 L 269.8798 70.55704 L 274.7565 69.45355 L 278.6696 66.34097 L 282.5826 63.22839 M 274.7565 69.45355 L 279.6332 68.35007 M 269.8798 70.55704 L 274.7517 71.68179 L 279.6235 72.80655 L 284.4954 73.9313 L 289.3672 75.05606 L 294.244 73.95258 L 299.1207 72.84909 M 289.3672 75.05606 L 294.244 73.95258 L 299.1207 72.84909 L 303.9926 73.97385 L 308.8644 75.0986 M 299.1207 72.84909 L 303.9974 71.74561 M 289.3672 75.05606 L 293.2667 78.18567 L 297.1661 81.31528 L 301.0656 84.44489 L 303.2181 88.95782 L 305.3707 93.47076 M 301.0656 84.44489 L 303.2181 88.95782 L 305.3707 93.47076 L 307.5232 97.9837 L 311.4227 101.1133 L 315.3221 104.2429 M 307.5232 97.9837 L 307.5014 102.9836 L 307.4796 107.9836 L 305.2877 112.4775 L 303.0959 116.9715 M 307.4796 107.9836 L 307.4578 112.9835 M 307.5232 97.9837 L 309.6758 102.4966 M 301.0656 84.44489 L 304.965 87.57449 M 289.3672 75.05606 L 294.2391 76.18082 M 255.2643 67.18277 L 260.141 66.07928 M 235.7574 71.59671 L 239.6705 68.48413 M 177.0618 118.2854 L 180.9749 115.1728 L 184.8879 112.0602 L 188.8009 108.9477 L 193.6777 107.8442 L 198.5495 108.9689 L 203.4214 110.0937 M 193.6777 107.8442 L 198.5544 106.7407 M 188.8009 108.9477 L 192.714 105.8351 L 197.5907 104.7316 L 202.4674 103.6281 M 192.714 105.8351 L 196.627 102.7225 L 200.5401 99.60992 L 204.4531 96.49734 L 208.3661 93.38477 L 212.2792 90.27219 L 214.4514 85.76871 L 216.6236 81.26523 L 220.5367 78.15265 L 224.4497 75.04007 M 216.6236 81.26523 L 218.7959 76.76175 M 212.2792 90.27219 L 217.1559 89.1687 L 222.0326 88.06522 L 226.9045 89.18997 L 231.7763 90.31473 M 222.0326 88.06522 L 226.9093 86.96173 L 231.786 85.85825 L 236.6628 84.75476 L 241.5395 83.65128 L 246.4113 84.77603 L 251.2831 85.90079 M 241.5395 83.65128 L 246.4113 84.77603 L 251.288 83.67255 L 256.1647 82.56906 M 246.4113 84.77603 L 251.2831 85.90079 M 241.5395 83.65128 L 245.4525 80.5387 L 249.3655 77.42612 L 251.5378 72.92264 L 253.71 68.41916 M 249.3655 77.42612 L 251.5378 72.92264 L 253.71 68.41916 L 255.8822 63.91568 L 255.8822 58.91568 L 253.71 54.4122 L 251.5378 49.90872 M 255.8822 58.91568 L 255.8822 53.91568 M 255.8822 63.91568 L 258.0544 59.4122 M 249.3655 77.42612 L 253.2786 74.31354 M 241.5395 83.65128 L 246.4113 84.77603 L 251.2831 85.90079 L 256.1599 84.7973 L 260.0729 81.68472 L 263.986 78.57214 M 256.1599 84.7973 L 261.0366 83.69382 M 251.2831 85.90079 L 255.1826 89.0304 L 257.3351 93.54333 L 259.4877 98.05627 M 255.1826 89.0304 L 259.082 92.16 M 251.2831 85.90079 L 256.155 87.02554 M 241.5395 83.65128 L 246.4162 82.54779 M 212.2792 90.27219 L 216.1922 87.15961 L 220.1053 84.04703 L 224.0183 80.93445 L 228.895 79.83096 L 233.7717 78.72748 L 238.6436 79.85223 L 243.5154 80.97699 M 233.7717 78.72748 L 237.6848 75.6149 L 239.857 71.11142 L 242.0292 66.60794 M 237.6848 75.6149 L 241.5978 72.50232 M 233.7717 78.72748 L 237.6848 75.6149 L 241.5978 72.50232 L 245.5109 69.38974 L 247.6831 64.88626 L 249.8553 60.38278 M 245.5109 69.38974 L 250.3876 68.28625 L 255.2643 67.18277 L 260.1361 68.30753 L 265.008 69.43228 M 255.2643 67.18277 L 260.141 66.07928 M 245.5109 69.38974 L 249.4239 66.27716 M 233.7717 78.72748 L 238.6484 77.62399 M 224.0183 80.93445 L 227.9314 77.82187 L 230.1036 73.31839 L 232.2758 68.81491 L 236.1888 65.70233 L 240.1019 62.58975 L 244.9786 61.48627 L 249.8553 60.38278 M 240.1019 62.58975 L 244.0149 59.47717 M 232.2758 68.81491 L 234.448 64.31143 M 227.9314 77.82187 L 231.8444 74.70929 L 235.7574 71.59671 L 239.6705 68.48413 L 244.5472 67.38065 L 249.4239 66.27716 M 239.6705 68.48413 L 243.5835 65.37155 L 247.4966 62.25897 L 251.4096 59.14639 L 255.3226 56.03381 L 260.1993 54.93033 L 265.076 53.82684 M 255.3226 56.03381 L 260.1993 54.93033 L 264.1124 51.81775 L 268.0254 48.70517 M 260.1993 54.93033 L 265.076 53.82684 M 255.3226 56.03381 L 257.4948 51.53033 L 259.6671 47.02686 L 259.6671 42.02686 L 257.4948 37.52338 L 255.3226 33.0199 M 259.6671 42.02686 L 259.6671 37.02686 M 259.6671 47.02686 L 261.8393 42.52338 M 255.3226 56.03381 L 257.4948 51.53033 L 257.4948 46.53033 L 257.4948 41.53033 M 257.4948 51.53033 L 259.6671 47.02686 L 261.8393 42.52338 L 264.0115 38.0199 L 266.1838 33.51642 L 266.1838 28.51642 L 266.1838 23.51642 M 266.1838 33.51642 L 266.1838 28.51642 L 266.1838 23.51642 M 266.1838 33.51642 L 270.0968 30.40387 L 274.0098 27.29132 L 278.8865 26.18781 L 283.7632 25.08429 L 288.6351 26.20905 L 293.507 27.3338 M 283.7632 25.08429 L 288.64 23.98077 M 274.0098 27.29132 L 277.9229 24.17877 M 266.1838 33.51642 L 268.356 29.01294 M 255.3226 56.03381 L 257.4948 51.53033 L 259.6671 47.02686 L 259.6671 42.02686 L 257.4948 37.52338 L 255.3226 33.0199 M 259.6671 42.02686 L 259.6671 37.02686 M 259.6671 47.02686 L 261.8393 42.52338 L 264.0115 38.0199 L 267.9246 34.90735 L 271.8376 31.7948 L 276.7143 30.69128 L 281.591 29.58777 M 271.8376 31.7948 L 275.7507 28.68225 M 264.0115 38.0199 L 267.9246 34.90735 L 271.8376 31.7948 L 276.7143 30.69128 L 281.591 29.58777 M 271.8376 31.7948 L 275.7507 28.68225 L 279.6637 25.5697 L 283.5767 22.45715 L 285.749 17.95367 L 287.9212 13.4502 M 283.5767 22.45715 L 285.749 17.95367 L 287.9212 13.4502 M 283.5767 22.45715 L 288.4534 21.35364 L 293.3301 20.25012 L 298.202 21.37488 L 303.0739 22.49963 L 306.9733 25.62927 L 310.8727 28.75891 M 303.0739 22.49963 L 307.9457 23.62439 M 293.3301 20.25012 L 298.2068 19.14661 M 283.5767 22.45715 L 287.4898 19.3446 M 264.0115 38.0199 L 266.1838 33.51642 M 255.3226 56.03381 L 257.4948 51.53033 L 259.6671 47.02686 L 261.8393 42.52338 L 264.0115 38.0199 L 264.0115 33.0199 L 264.0115 28.0199 M 264.0115 38.0199 L 267.9246 34.90735 L 271.8376 31.7948 M 264.0115 38.0199 L 267.9246 34.90735 L 271.8376 31.7948 L 275.7507 28.68225 L 277.9229 24.17877 L 277.9229 19.17877 L 277.9229 14.17877 M 277.9229 24.17877 L 280.0951 19.67529 M 275.7507 28.68225 L 279.6637 25.5697 M 264.0115 38.0199 L 267.9246 34.90735 L 271.8376 31.7948 L 275.7507 28.68225 L 277.9229 24.17877 L 277.9229 19.17877 L 277.9229 14.17877 M 277.9229 24.17877 L 280.0951 19.67529 M 275.7507 28.68225 L 279.6637 25.5697 L 283.5767 22.45715 L 287.4898 19.3446 L 291.4028 16.23206 L 293.575 11.72858 L 295.7473 7.225098 M 291.4028 16.23206 L 293.575 11.72858 L 295.7473 7.225098 L 299.6603 4.112549 L 303.5734 1 M 295.7473 7.225098 L 297.9195 2.721619 M 291.4028 16.23206 L 296.2795 15.12854 L 301.1563 14.02502 L 306.033 12.92151 L 310.9048 14.04626 L 315.7767 15.17102 M 306.033 12.92151 L 310.9048 14.04626 L 315.7767 15.17102 L 320.6485 16.29578 L 325.5252 15.19226 L 330.4019 14.08875 M 320.6485 16.29578 L 324.5479 19.42542 L 328.4474 22.55505 L 330.5999 27.06799 L 332.7525 31.58093 M 328.4474 22.55505 L 332.3468 25.68469 M 320.6485 16.29578 L 325.5204 17.42053 M 306.033 12.92151 L 310.9097 11.81799 M 291.4028 16.23206 L 295.3159 13.11951 M 264.0115 38.0199 L 266.1838 33.51642 M 255.3226 56.03381 L 260.1993 54.93033 L 265.076 53.82684 L 269.9528 52.72336 L 274.8246 53.84811 L 279.7013 52.74463 L 284.578 51.64114 M 274.8246 53.84811 L 278.7241 56.97772 L 282.6235 60.10733 M 274.8246 53.84811 L 279.6965 54.97287 M 269.9528 52.72336 L 274.8295 51.61987 L 279.7062 50.51639 L 283.6192 47.40381 L 287.5323 44.29123 M 279.7062 50.51639 L 284.5829 49.4129 L 289.4596 48.30942 L 294.3363 47.20593 L 299.213 46.10245 L 303.126 42.98987 L 307.0391 39.87729 M 299.213 46.10245 L 303.126 42.98987 L 307.0391 39.87729 M 299.213 46.10245 L 304.0849 47.2272 L 308.9567 48.35196 L 312.8561 51.48157 L 316.7556 54.61118 M 308.9567 48.35196 L 313.8286 49.47672 M 299.213 46.10245 L 304.0849 47.2272 L 308.9567 48.35196 L 313.8286 49.47672 L 318.7004 50.60147 L 322.5999 53.73108 L 326.4993 56.86069 M 318.7004 50.60147 L 323.5771 49.49799 L 328.4539 48.3945 L 332.3669 45.28192 L 334.5391 40.77844 L 336.7114 36.27496 M 332.3669 45.28192 L 336.2799 42.16934 M 328.4539 48.3945 L 333.3306 47.29102 M 318.7004 50.60147 L 323.5723 51.72623 M 299.213 46.10245 L 304.0849 47.2272 L 308.9567 48.35196 L 312.8561 51.48157 L 316.7556 54.61118 M 308.9567 48.35196 L 313.8286 49.47672 L 318.7004 50.60147 L 323.5771 49.49799 L 327.4902 46.38541 L 331.4032 43.27283 M 323.5771 49.49799 L 328.4539 48.3945 M 318.7004 50.60147 L 323.5771 49.49799 L 327.4902 46.38541 L 331.4032 43.27283 M 323.5771 49.49799 L 328.4539 48.3945 L 333.3306 47.29102 L 338.2073 46.18753 L 343.0791 47.31229 L 347.951 48.43704 M 338.2073 46.18753 L 342.1203 43.07495 L 346.0334 39.96237 L 348.2056 35.45886 L 348.2056 30.45886 L 348.2056 25.45886 M 348.2056 35.45886 L 350.3778 30.95538 M 346.0334 39.96237 L 349.9464 36.84979 M 338.2073 46.18753 L 343.084 45.08405 M 318.7004 50.60147 L 323.5723 51.72623 M 299.213 46.10245 L 304.0849 47.2272 L 308.9567 48.35196 L 312.8561 51.48157 L 316.7556 54.61118 M 308.9567 48.35196 L 313.8286 49.47672 L 318.7004 50.60147 L 323.5723 51.72623 L 328.4442 52.85098 L 333.3209 51.7475 L 337.2339 48.63492 L 341.1469 45.52234 M 333.3209 51.7475 L 337.2339 48.63492 L 341.1469 45.52234 L 346.0237 44.41885 L 350.9004 43.31537 M 341.1469 45.52234 L 345.06 42.40976 M 333.3209 51.7475 L 338.1976 50.64401 M 328.4442 52.85098 L 333.316 53.97574 L 338.1879 55.10049 L 343.0597 56.22525 L 346.9592 59.35486 L 350.8586 62.48447 M 343.0597 56.22525 L 347.9316 57.35001 L 352.8034 58.47476 L 357.6753 59.59952 L 362.5471 60.72427 L 366.4466 63.85388 L 370.346 66.98349 M 362.5471 60.72427 L 366.4466 63.85388 L 371.3184 64.97864 L 376.1903 66.10339 M 366.4466 63.85388 L 370.346 66.98349 M 362.5471 60.72427 L 367.4239 59.62079 L 372.3006 58.5173 L 376.2136 55.40472 L 378.3858 50.90125 L 380.558 46.39777 M 376.2136 55.40472 L 380.1266 52.29214 M 372.3006 58.5173 L 377.1773 57.41382 M 362.5471 60.72427 L 367.4239 59.62079 L 371.3369 56.50821 L 375.2499 53.39563 M 367.4239 59.62079 L 372.3006 58.5173 L 377.1773 57.41382 L 382.054 56.31033 L 386.9307 55.20685 L 390.8438 52.09427 L 394.7568 48.98169 M 386.9307 55.20685 L 390.8438 52.09427 L 394.7568 48.98169 M 386.9307 55.20685 L 391.8026 56.3316 L 396.6744 57.45636 L 400.5738 60.58597 L 404.4732 63.71558 L 406.6258 68.22852 L 408.7783 72.74146 M 404.4732 63.71558 L 408.3726 66.84518 M 396.6744 57.45636 L 401.5463 58.58112 M 386.9307 55.20685 L 391.8074 54.10336 M 362.5471 60.72427 L 366.4466 63.85388 L 370.346 66.98349 L 374.2454 70.1131 L 378.1449 73.24271 L 383.0167 74.36746 L 387.8886 75.49222 M 378.1449 73.24271 L 380.2974 77.75565 L 382.45 82.26859 M 378.1449 73.24271 L 380.2974 77.75565 L 382.45 82.26859 L 384.6025 86.78152 L 388.502 89.91113 L 393.3738 91.03589 L 398.2457 92.16064 M 388.502 89.91113 L 392.4014 93.04074 M 384.6025 86.78152 L 386.7551 91.29446 M 378.1449 73.24271 L 380.2974 77.75565 L 382.45 82.26859 L 384.6025 86.78152 L 388.502 89.91113 L 393.3738 91.03589 L 398.2457 92.16064 M 388.502 89.91113 L 392.4014 93.04074 M 384.6025 86.78152 L 386.7551 91.29446 L 388.9077 95.8074 L 391.0602 100.3203 L 393.2128 104.8333 L 397.1122 107.9629 L 401.0116 111.0925 M 393.2128 104.8333 L 397.1122 107.9629 L 401.0116 111.0925 L 403.1641 115.6054 L 405.3167 120.1184 M 401.0116 111.0925 L 404.911 114.2221 M 393.2128 104.8333 L 393.1909 109.8332 L 393.1691 114.8332 L 393.1473 119.8331 L 390.9554 124.3271 L 388.7636 128.821 M 393.1473 119.8331 L 390.9554 124.3271 L 388.7636 128.821 L 386.5717 133.315 L 386.5499 138.3149 L 386.5281 143.3148 M 386.5717 133.315 L 382.6451 136.4104 L 378.7186 139.5059 L 373.8371 140.5881 L 368.9556 141.6703 M 378.7186 139.5059 L 374.792 142.6013 M 386.5717 133.315 L 384.3799 137.8089 M 393.1473 119.8331 L 393.1255 124.833 M 393.2128 104.8333 L 395.3653 109.3462 M 378.1449 73.24271 L 382.0443 76.37231 M 362.5471 60.72427 L 367.419 61.84903 M 299.213 46.10245 L 304.0897 44.99896 M 255.3226 56.03381 L 259.2357 52.92123 M 177.0618 118.2854 L 179.2341 113.7819 M 133.6172 208.355 L 133.6172 203.355 " />
  </g>
</svg>
