<?xml version="1.0" encoding="UTF-8" standalone="no"?>
<!DOCTYPE svg PUBLIC "-//W3C//DTD SVG 1.1//EN"
    "http://www.w3.org/Graphics/SVG/1.1/DTD/svg11.dtd">
<svg xmlns="http://www.w3.org/2000/svg" width="322" height="322">
  <desc>islandsAndLakes LSystem</desc>
  <rect width="100%" height="100%" style="fill: white"/>
  <g stroke="black" fill="none" stroke-width="1">
    <path d="M 251 251 L 251 246 M 246 246 L 246 241 L 246 236 L 241 236 L 241 241 L 241 246 L 246 246 M 251 246 L 251 241 L 251 236 M 256 236 L 256 231 L 256 226 L 261 226 L 261 231 L 261 236 L 256 236 M 251 236 L 251 231 L 251 226 L 251 221 M 221 221 L 221 216 M 216 216 L 216 211 L 216 206 L 211 206 L 211 211 L 211 216 L 216 216 M 221 216 L 221 211 L 221 206 M 226 206 L 226 201 L 226 196 L 231 196 L 231 201 L 231 206 L 226 206 M 221 206 L 221 201 L 221 196 L 221 191 L 221 186 M 216 186 L 216 181 L 216 176 L 211 176 L 211 181 L 211 186 L 216 186 M 221 186 L 221 181 L 221 176 M 226 176 L 226 171 L 226 166 L 231 166 L 231 171 L 231 176 L 226 176 M 221 176 L 221 171 L 221 166 L 221 161 L 216 161 M 216 166 L 211 166 L 206 166 L 206 171 L 211 171 L 216 171 L 216 166 M 216 161 L 211 161 L 206 161 M 206 156 L 201 156 L 196 156 L 196 151 L 201 151 L 206 151 L 206 156 M 206 161 L 201 161 L 196 161 L 191 161 L 191 166 M 196 166 L 196 171 L 196 176 L 201 176 L 201 171 L 201 166 L 196 166 M 191 166 L 191 171 L 191 176 M 186 176 L 186 181 L 186 186 L 181 186 L 181 181 L 181 176 L 186 176 M 191 176 L 191 181 L 191 186 L 191 191 L 191 196 M 196 196 L 196 201 L 196 206 L 201 206 L 201 201 L 201 196 L 196 196 M 191 196 L 191 201 L 191 206 M 186 206 L 186 211 L 186 216 L 181 216 L 181 211 L 181 206 L 186 206 M 191 206 L 191 211 L 191 216 L 191 221 L 196 221 M 196 216 L 201 216 L 206 216 L 206 211 L 201 211 L 196 211 L 196 216 M 196 221 L 201 221 L 206 221 M 206 226 L 211 226 L 216 226 L 216 231 L 211 231 L 206 231 L 206 226 M 206 221 L 211 221 L 216 221 L 221 221 M 251 221 L 251 216 M 246 216 L 246 211 L 246 206 L 241 206 L 241 211 L 241 216 L 246 216 M 251 216 L 251 211 L 251 206 M 256 206 L 256 201 L 256 196 L 261 196 L 261 201 L 261 206 L 256 206 M 251 206 L 251 201 L 251 196 L 251 191 L 251 186 M 246 186 L 246 181 L 246 176 L 241 176 L 241 181 L 241 186 L 246 186 M 251 186 L 251 181 L 251 176 M 256 176 L 256 171 L 256 166 L 261 166 L 261 171 L 261 176 L 256 176 M 251 176 L 251 171 L 251 166 L 251 161 M 281 161 L 281 156 M 276 156 L 276 151 L 276 146 L 271 146 L 271 151 L 271 156 L 276 156 M 281 156 L 281 151 L 281 146 M 286 146 L 286 141 L 286 136 L 291 136 L 291 141 L 291 146 L 286 146 M 281 146 L 281 141 L 281 136 L 281 131 L 281 126 M 276 126 L 276 121 L 276 116 L 271 116 L 271 121 L 271 126 L 276 126 M 281 126 L 281 121 L 281 116 M 286 116 L 286 111 L 286 106 L 291 106 L 291 111 L 291 116 L 286 116 M 281 116 L 281 111 L 281 106 L 281 101 L 286 101 M 286 96 L 291 96 L 296 96 L 296 91 L 291 91 L 286 91 L 286 96 M 286 101 L 291 101 L 296 101 M 296 106 L 301 106 L 306 106 L 306 111 L 301 111 L 296 111 L 296 106 M 296 101 L 301 101 L 306 101 L 311 101 L 311 106 M 316 106 L 316 111 L 316 116 L 321 116 L 321 111 L 321 106 L 316 106 M 311 106 L 311 111 L 311 116 M 306 116 L 306 121 L 306 126 L 301 126 L 301 121 L 301 116 L 306 116 M 311 116 L 311 121 L 311 126 L 311 131 L 311 136 M 316 136 L 316 141 L 316 146 L 321 146 L 321 141 L 321 136 L 316 136 M 311 136 L 311 141 L 311 146 M 306 146 L 306 151 L 306 156 L 301 156 L 301 151 L 301 146 L 306 146 M 311 146 L 311 151 L 311 156 L 311 161 L 306 161 M 306 166 L 301 166 L 296 166 L 296 171 L 301 171 L 306 171 L 306 166 M 306 161 L 301 161 L 296 161 M 296 156 L 291 156 L 286 156 L 286 151 L 291 151 L 296 151 L 296 156 M 296 161 L 291 161 L 286 161 L 281 161 M 251 161 L 251 156 M 246 156 L 246 151 L 246 146 L 241 146 L 241 151 L 241 156 L 246 156 M 251 156 L 251 151 L 251 146 M 256 146 L 256 141 L 256 136 L 261 136 L 261 141 L 261 146 L 256 146 M 251 146 L 251 141 L 251 136 L 251 131 L 251 126 M 246 126 L 246 121 L 246 116 L 241 116 L 241 121 L 241 126 L 246 126 M 251 126 L 251 121 L 251 116 M 256 116 L 256 111 L 256 106 L 261 106 L 261 111 L 261 116 L 256 116 M 251 116 L 251 111 L 251 106 L 251 101 L 251 96 M 246 96 L 246 91 L 246 86 L 241 86 L 241 91 L 241 96 L 246 96 M 251 96 L 251 91 L 251 86 M 256 86 L 256 81 L 256 76 L 261 76 L 261 81 L 261 86 L 256 86 M 251 86 L 251 81 L 251 76 L 251 71 L 246 71 M 246 76 L 241 76 L 236 76 L 236 81 L 241 81 L 246 81 L 246 76 M 246 71 L 241 71 L 236 71 M 236 66 L 231 66 L 226 66 L 226 61 L 231 61 L 236 61 L 236 66 M 236 71 L 231 71 L 226 71 L 221 71 M 221 101 L 216 101 M 216 106 L 211 106 L 206 106 L 206 111 L 211 111 L 216 111 L 216 106 M 216 101 L 211 101 L 206 101 M 206 96 L 201 96 L 196 96 L 196 91 L 201 91 L 206 91 L 206 96 M 206 101 L 201 101 L 196 101 L 191 101 L 186 101 M 186 106 L 181 106 L 176 106 L 176 111 L 181 111 L 186 111 L 186 106 M 186 101 L 181 101 L 176 101 M 176 96 L 171 96 L 166 96 L 166 91 L 171 91 L 176 91 L 176 96 M 176 101 L 171 101 L 166 101 L 161 101 L 161 106 M 166 106 L 166 111 L 166 116 L 171 116 L 171 111 L 171 106 L 166 106 M 161 106 L 161 111 L 161 116 M 156 116 L 156 121 L 156 126 L 151 126 L 151 121 L 151 116 L 156 116 M 161 116 L 161 121 L 161 126 L 161 131 L 166 131 M 166 126 L 171 126 L 176 126 L 176 121 L 171 121 L 166 121 L 166 126 M 166 131 L 171 131 L 176 131 M 176 136 L 181 136 L 186 136 L 186 141 L 181 141 L 176 141 L 176 136 M 176 131 L 181 131 L 186 131 L 191 131 L 196 131 M 196 126 L 201 126 L 206 126 L 206 121 L 201 121 L 196 121 L 196 126 M 196 131 L 201 131 L 206 131 M 206 136 L 211 136 L 216 136 L 216 141 L 211 141 L 206 141 L 206 136 M 206 131 L 211 131 L 216 131 L 221 131 L 221 126 M 216 126 L 216 121 L 216 116 L 211 116 L 211 121 L 211 126 L 216 126 M 221 126 L 221 121 L 221 116 M 226 116 L 226 111 L 226 106 L 231 106 L 231 111 L 231 116 L 226 116 M 221 116 L 221 111 L 221 106 L 221 101 M 221 71 L 216 71 M 216 76 L 211 76 L 206 76 L 206 81 L 211 81 L 216 81 L 216 76 M 216 71 L 211 71 L 206 71 M 206 66 L 201 66 L 196 66 L 196 61 L 201 61 L 206 61 L 206 66 M 206 71 L 201 71 L 196 71 L 191 71 L 186 71 M 186 76 L 181 76 L 176 76 L 176 81 L 181 81 L 186 81 L 186 76 M 186 71 L 181 71 L 176 71 M 176 66 L 171 66 L 166 66 L 166 61 L 171 61 L 176 61 L 176 66 M 176 71 L 171 71 L 166 71 L 161 71 M 161 41 L 156 41 M 156 46 L 151 46 L 146 46 L 146 51 L 151 51 L 156 51 L 156 46 M 156 41 L 151 41 L 146 41 M 146 36 L 141 36 L 136 36 L 136 31 L 141 31 L 146 31 L 146 36 M 146 41 L 141 41 L 136 41 L 131 41 L 126 41 M 126 46 L 121 46 L 116 46 L 116 51 L 121 51 L 126 51 L 126 46 M 126 41 L 121 41 L 116 41 M 116 36 L 111 36 L 106 36 L 106 31 L 111 31 L 116 31 L 116 36 M 116 41 L 111 41 L 106 41 L 101 41 L 101 36 M 96 36 L 96 31 L 96 26 L 91 26 L 91 31 L 91 36 L 96 36 M 101 36 L 101 31 L 101 26 M 106 26 L 106 21 L 106 16 L 111 16 L 111 21 L 111 26 L 106 26 M 101 26 L 101 21 L 101 16 L 101 11 L 106 11 M 106 6 L 111 6 L 116 6 L 116 1 L 111 1 L 106 1 L 106 6 M 106 11 L 111 11 L 116 11 M 116 16 L 121 16 L 126 16 L 126 21 L 121 21 L 116 21 L 116 16 M 116 11 L 121 11 L 126 11 L 131 11 L 136 11 M 136 6 L 141 6 L 146 6 L 146 1 L 141 1 L 136 1 L 136 6 M 136 11 L 141 11 L 146 11 M 146 16 L 151 16 L 156 16 L 156 21 L 151 21 L 146 21 L 146 16 M 146 11 L 151 11 L 156 11 L 161 11 L 161 16 M 166 16 L 166 21 L 166 26 L 171 26 L 171 21 L 171 16 L 166 16 M 161 16 L 161 21 L 161 26 M 156 26 L 156 31 L 156 36 L 151 36 L 151 31 L 151 26 L 156 26 M 161 26 L 161 31 L 161 36 L 161 41 M 161 71 L 156 71 M 156 76 L 151 76 L 146 76 L 146 81 L 151 81 L 156 81 L 156 76 M 156 71 L 151 71 L 146 71 M 146 66 L 141 66 L 136 66 L 136 61 L 141 61 L 146 61 L 146 66 M 146 71 L 141 71 L 136 71 L 131 71 L 126 71 M 126 76 L 121 76 L 116 76 L 116 81 L 121 81 L 126 81 L 126 76 M 126 71 L 121 71 L 116 71 M 116 66 L 111 66 L 106 66 L 106 61 L 111 61 L 116 61 L 116 66 M 116 71 L 111 71 L 106 71 L 101 71 L 96 71 M 96 76 L 91 76 L 86 76 L 86 81 L 91 81 L 96 81 L 96 76 M 96 71 L 91 71 L 86 71 M 86 66 L 81 66 L 76 66 L 76 61 L 81 61 L 86 61 L 86 66 M 86 71 L 81 71 L 76 71 L 71 71 L 71 76 M 76 76 L 76 81 L 76 86 L 81 86 L 81 81 L 81 76 L 76 76 M 71 76 L 71 81 L 71 86 M 66 86 L 66 91 L 66 96 L 61 96 L 61 91 L 61 86 L 66 86 M 71 86 L 71 91 L 71 96 L 71 101 M 101 101 L 101 106 M 106 106 L 106 111 L 106 116 L 111 116 L 111 111 L 111 106 L 106 106 M 101 106 L 101 111 L 101 116 M 96 116 L 96 121 L 96 126 L 91 126 L 91 121 L 91 116 L 96 116 M 101 116 L 101 121 L 101 126 L 101 131 L 101 136 M 106 136 L 106 141 L 106 146 L 111 146 L 111 141 L 111 136 L 106 136 M 101 136 L 101 141 L 101 146 M 96 146 L 96 151 L 96 156 L 91 156 L 91 151 L 91 146 L 96 146 M 101 146 L 101 151 L 101 156 L 101 161 L 106 161 M 106 156 L 111 156 L 116 156 L 116 151 L 111 151 L 106 151 L 106 156 M 106 161 L 111 161 L 116 161 M 116 166 L 121 166 L 126 166 L 126 171 L 121 171 L 116 171 L 116 166 M 116 161 L 121 161 L 126 161 L 131 161 L 131 156 M 126 156 L 126 151 L 126 146 L 121 146 L 121 151 L 121 156 L 126 156 M 131 156 L 131 151 L 131 146 M 136 146 L 136 141 L 136 136 L 141 136 L 141 141 L 141 146 L 136 146 M 131 146 L 131 141 L 131 136 L 131 131 L 131 126 M 126 126 L 126 121 L 126 116 L 121 116 L 121 121 L 121 126 L 126 126 M 131 126 L 131 121 L 131 116 M 136 116 L 136 111 L 136 106 L 141 106 L 141 111 L 141 116 L 136 116 M 131 116 L 131 111 L 131 106 L 131 101 L 126 101 M 126 106 L 121 106 L 116 106 L 116 111 L 121 111 L 126 111 L 126 106 M 126 101 L 121 101 L 116 101 M 116 96 L 111 96 L 106 96 L 106 91 L 111 91 L 116 91 L 116 96 M 116 101 L 111 101 L 106 101 L 101 101 M 71 101 L 71 106 M 76 106 L 76 111 L 76 116 L 81 116 L 81 111 L 81 106 L 76 106 M 71 106 L 71 111 L 71 116 M 66 116 L 66 121 L 66 126 L 61 126 L 61 121 L 61 116 L 66 116 M 71 116 L 71 121 L 71 126 L 71 131 L 71 136 M 76 136 L 76 141 L 76 146 L 81 146 L 81 141 L 81 136 L 76 136 M 71 136 L 71 141 L 71 146 M 66 146 L 66 151 L 66 156 L 61 156 L 61 151 L 61 146 L 66 146 M 71 146 L 71 151 L 71 156 L 71 161 M 41 161 L 41 166 M 46 166 L 46 171 L 46 176 L 51 176 L 51 171 L 51 166 L 46 166 M 41 166 L 41 171 L 41 176 M 36 176 L 36 181 L 36 186 L 31 186 L 31 181 L 31 176 L 36 176 M 41 176 L 41 181 L 41 186 L 41 191 L 41 196 M 46 196 L 46 201 L 46 206 L 51 206 L 51 201 L 51 196 L 46 196 M 41 196 L 41 201 L 41 206 M 36 206 L 36 211 L 36 216 L 31 216 L 31 211 L 31 206 L 36 206 M 41 206 L 41 211 L 41 216 L 41 221 L 36 221 M 36 226 L 31 226 L 26 226 L 26 231 L 31 231 L 36 231 L 36 226 M 36 221 L 31 221 L 26 221 M 26 216 L 21 216 L 16 216 L 16 211 L 21 211 L 26 211 L 26 216 M 26 221 L 21 221 L 16 221 L 11 221 L 11 216 M 6 216 L 6 211 L 6 206 L 1 206 L 1 211 L 1 216 L 6 216 M 11 216 L 11 211 L 11 206 M 16 206 L 16 201 L 16 196 L 21 196 L 21 201 L 21 206 L 16 206 M 11 206 L 11 201 L 11 196 L 11 191 L 11 186 M 6 186 L 6 181 L 6 176 L 1 176 L 1 181 L 1 186 L 6 186 M 11 186 L 11 181 L 11 176 M 16 176 L 16 171 L 16 166 L 21 166 L 21 171 L 21 176 L 16 176 M 11 176 L 11 171 L 11 166 L 11 161 L 16 161 M 16 156 L 21 156 L 26 156 L 26 151 L 21 151 L 16 151 L 16 156 M 16 161 L 21 161 L 26 161 M 26 166 L 31 166 L 36 166 L 36 171 L 31 171 L 26 171 L 26 166 M 26 161 L 31 161 L 36 161 L 41 161 M 71 161 L 71 166 M 76 166 L 76 171 L 76 176 L 81 176 L 81 171 L 81 166 L 76 166 M 71 166 L 71 171 L 71 176 M 66 176 L 66 181 L 66 186 L 61 186 L 61 181 L 61 176 L 66 176 M 71 176 L 71 181 L 71 186 L 71 191 L 71 196 M 76 196 L 76 201 L 76 206 L 81 206 L 81 201 L 81 196 L 76 196 M 71 196 L 71 201 L 71 206 M 66 206 L 66 211 L 66 216 L 61 216 L 61 211 L 61 206 L 66 206 M 71 206 L 71 211 L 71 216 L 71 221 L 71 226 M 76 226 L 76 231 L 76 236 L 81 236 L 81 231 L 81 226 L 76 226 M 71 226 L 71 231 L 71 236 M 66 236 L 66 241 L 66 246 L 61 246 L 61 241 L 61 236 L 66 236 M 71 236 L 71 241 L 71 246 L 71 251 L 76 251 M 76 246 L 81 246 L 86 246 L 86 241 L 81 241 L 76 241 L 76 246 M 76 251 L 81 251 L 86 251 M 86 256 L 91 256 L 96 256 L 96 261 L 91 261 L 86 261 L 86 256 M 86 251 L 91 251 L 96 251 L 101 251 M 101 221 L 106 221 M 106 216 L 111 216 L 116 216 L 116 211 L 111 211 L 106 211 L 106 216 M 106 221 L 111 221 L 116 221 M 116 226 L 121 226 L 126 226 L 126 231 L 121 231 L 116 231 L 116 226 M 116 221 L 121 221 L 126 221 L 131 221 L 136 221 M 136 216 L 141 216 L 146 216 L 146 211 L 141 211 L 136 211 L 136 216 M 136 221 L 141 221 L 146 221 M 146 226 L 151 226 L 156 226 L 156 231 L 151 231 L 146 231 L 146 226 M 146 221 L 151 221 L 156 221 L 161 221 L 161 216 M 156 216 L 156 211 L 156 206 L 151 206 L 151 211 L 151 216 L 156 216 M 161 216 L 161 211 L 161 206 M 166 206 L 166 201 L 166 196 L 171 196 L 171 201 L 171 206 L 166 206 M 161 206 L 161 201 L 161 196 L 161 191 L 156 191 M 156 196 L 151 196 L 146 196 L 146 201 L 151 201 L 156 201 L 156 196 M 156 191 L 151 191 L 146 191 M 146 186 L 141 186 L 136 186 L 136 181 L 141 181 L 146 181 L 146 186 M 146 191 L 141 191 L 136 191 L 131 191 L 126 191 M 126 196 L 121 196 L 116 196 L 116 201 L 121 201 L 126 201 L 126 196 M 126 191 L 121 191 L 116 191 M 116 186 L 111 186 L 106 186 L 106 181 L 111 181 L 116 181 L 116 186 M 116 191 L 111 191 L 106 191 L 101 191 L 101 196 M 106 196 L 106 201 L 106 206 L 111 206 L 111 201 L 111 196 L 106 196 M 101 196 L 101 201 L 101 206 M 96 206 L 96 211 L 96 216 L 91 216 L 91 211 L 91 206 L 96 206 M 101 206 L 101 211 L 101 216 L 101 221 M 101 251 L 106 251 M 106 246 L 111 246 L 116 246 L 116 241 L 111 241 L 106 241 L 106 246 M 106 251 L 111 251 L 116 251 M 116 256 L 121 256 L 126 256 L 126 261 L 121 261 L 116 261 L 116 256 M 116 251 L 121 251 L 126 251 L 131 251 L 136 251 M 136 246 L 141 246 L 146 246 L 146 241 L 141 241 L 136 241 L 136 246 M 136 251 L 141 251 L 146 251 M 146 256 L 151 256 L 156 256 L 156 261 L 151 261 L 146 261 L 146 256 M 146 251 L 151 251 L 156 251 L 161 251 M 161 281 L 166 281 M 166 276 L 171 276 L 176 276 L 176 271 L 171 271 L 166 271 L 166 276 M 166 281 L 171 281 L 176 281 M 176 286 L 181 286 L 186 286 L 186 291 L 181 291 L 176 291 L 176 286 M 176 281 L 181 281 L 186 281 L 191 281 L 196 281 M 196 276 L 201 276 L 206 276 L 206 271 L 201 271 L 196 271 L 196 276 M 196 281 L 201 281 L 206 281 M 206 286 L 211 286 L 216 286 L 216 291 L 211 291 L 206 291 L 206 286 M 206 281 L 211 281 L 216 281 L 221 281 L 221 286 M 226 286 L 226 291 L 226 296 L 231 296 L 231 291 L 231 286 L 226 286 M 221 286 L 221 291 L 221 296 M 216 296 L 216 301 L 216 306 L 211 306 L 211 301 L 211 296 L 216 296 M 221 296 L 221 301 L 221 306 L 221 311 L 216 311 M 216 316 L 211 316 L 206 316 L 206 321 L 211 321 L 216 321 L 216 316 M 216 311 L 211 311 L 206 311 M 206 306 L 201 306 L 196 306 L 196 301 L 201 301 L 206 301 L 206 306 M 206 311 L 201 311 L 196 311 L 191 311 L 186 311 M 186 316 L 181 316 L 176 316 L 176 321 L 181 321 L 186 321 L 186 316 M 186 311 L 181 311 L 176 311 M 176 306 L 171 306 L 166 306 L 166 301 L 171 301 L 176 301 L 176 306 M 176 311 L 171 311 L 166 311 L 161 311 L 161 306 M 156 306 L 156 301 L 156 296 L 151 296 L 151 301 L 151 306 L 156 306 M 161 306 L 161 301 L 161 296 M 166 296 L 166 291 L 166 286 L 171 286 L 171 291 L 171 296 L 166 296 M 161 296 L 161 291 L 161 286 L 161 281 M 161 251 L 166 251 M 166 246 L 171 246 L 176 246 L 176 241 L 171 241 L 166 241 L 166 246 M 166 251 L 171 251 L 176 251 M 176 256 L 181 256 L 186 256 L 186 261 L 181 261 L 176 261 L 176 256 M 176 251 L 181 251 L 186 251 L 191 251 L 196 251 M 196 246 L 201 246 L 206 246 L 206 241 L 201 241 L 196 241 L 196 246 M 196 251 L 201 251 L 206 251 M 206 256 L 211 256 L 216 256 L 216 261 L 211 261 L 206 261 L 206 256 M 206 251 L 211 251 L 216 251 L 221 251 L 226 251 M 226 246 L 231 246 L 236 246 L 236 241 L 231 241 L 226 241 L 226 246 M 226 251 L 231 251 L 236 251 M 236 256 L 241 256 L 246 256 L 246 261 L 241 261 L 236 261 L 236 256 M 236 251 L 241 251 L 246 251 L 251 251 " />
  </g>
</svg>
