<?xml version="1.0" encoding="UTF-8" standalone="no"?>
<!DOCTYPE svg PUBLIC "-//W3C//DTD SVG 1.1//EN"
    "http://www.w3.org/Graphics/SVG/1.1/DTD/svg11.dtd">
<svg xmlns="http://www.w3.org/2000/svg" width="532" height="532">
  <desc>kochIsland LSystem</desc>
  <rect width="100%" height="100%" style="fill: white"/>
  <g stroke="black" fill="none" stroke-width="1">
    <path d="M 106 426 L 106 421 L 111 421 L 111 416 L 106 416 L 101 416 L 101 411 L 106 411 L 106 406 L 111 406 L 111 411 L 116 411 L 116 406 L 116 401 L 121 401 L 121 406 L 126 406 L 126 401 L 131 401 L 131 396 L 126 396 L 121 396 L 121 391 L 126 391 L 126 386 L 121 386 L 121 381 L 116 381 L 116 386 L 116 391 L 111 391 L 111 386 L 106 386 L 101 386 L 101 381 L 96 381 L 96 386 L 96 391 L 91 391 L 91 386 L 86 386 L 86 381 L 91 381 L 91 376 L 86 376 L 81 376 L 81 371 L 86 371 L 86 366 L 91 366 L 91 371 L 96 371 L 96 366 L 96 361 L 101 361 L 101 366 L 106 366 L 106 361 L 111 361 L 111 356 L 106 356 L 101 356 L 101 351 L 106 351 L 106 346 L 111 346 L 111 351 L 116 351 L 116 346 L 116 341 L 121 341 L 121 346 L 126 346 L 126 351 L 121 351 L 121 356 L 126 356 L 131 356 L 131 361 L 126 361 L 126 366 L 131 366 L 131 371 L 136 371 L 136 366 L 136 361 L 141 361 L 141 366 L 146 366 L 146 361 L 151 361 L 151 356 L 146 356 L 141 356 L 141 351 L 146 351 L 146 346 L 146 341 L 151 341 L 151 336 L 146 336 L 141 336 L 141 331 L 146 331 L 146 326 L 151 326 L 151 331 L 156 331 L 156 326 L 156 321 L 161 321 L 161 326 L 166 326 L 166 331 L 161 331 L 161 336 L 166 336 L 171 336 L 171 341 L 166 341 L 166 346 L 171 346 L 171 351 L 176 351 L 176 346 L 176 341 L 181 341 L 181 346 L 186 346 L 186 341 L 191 341 L 191 336 L 186 336 L 181 336 L 181 331 L 186 331 L 186 326 L 191 326 L 191 331 L 196 331 L 196 326 L 196 321 L 201 321 L 201 326 L 206 326 L 206 321 L 211 321 L 211 316 L 206 316 L 201 316 L 201 311 L 206 311 L 206 306 L 201 306 L 201 301 L 196 301 L 196 306 L 196 311 L 191 311 L 191 306 L 186 306 L 181 306 L 181 301 L 176 301 L 176 306 L 176 311 L 171 311 L 171 306 L 166 306 L 166 301 L 171 301 L 171 296 L 166 296 L 161 296 L 161 291 L 166 291 L 166 286 L 171 286 L 171 291 L 176 291 L 176 286 L 176 281 L 181 281 L 181 286 L 186 286 L 186 281 L 191 281 L 191 276 L 186 276 L 181 276 L 181 271 L 186 271 L 186 266 L 181 266 L 181 261 L 176 261 L 176 266 L 176 271 L 171 271 L 171 266 L 166 266 L 166 261 L 171 261 L 171 256 L 166 256 L 161 256 L 161 251 L 166 251 L 166 246 L 161 246 L 161 241 L 156 241 L 156 246 L 156 251 L 151 251 L 151 246 L 146 246 L 146 251 L 141 251 L 141 256 L 146 256 L 151 256 L 151 261 L 146 261 L 146 266 L 146 271 L 141 271 L 141 276 L 146 276 L 151 276 L 151 281 L 146 281 L 146 286 L 141 286 L 141 281 L 136 281 L 136 286 L 136 291 L 131 291 L 131 286 L 126 286 L 126 281 L 131 281 L 131 276 L 126 276 L 121 276 L 121 271 L 126 271 L 126 266 L 121 266 L 121 261 L 116 261 L 116 266 L 116 271 L 111 271 L 111 266 L 106 266 L 101 266 L 101 261 L 96 261 L 96 266 L 96 271 L 91 271 L 91 266 L 86 266 L 86 261 L 91 261 L 91 256 L 86 256 L 81 256 L 81 251 L 86 251 L 86 246 L 81 246 L 81 241 L 76 241 L 76 246 L 76 251 L 71 251 L 71 246 L 66 246 L 66 251 L 61 251 L 61 256 L 66 256 L 71 256 L 71 261 L 66 261 L 66 266 L 66 271 L 61 271 L 61 276 L 66 276 L 71 276 L 71 281 L 66 281 L 66 286 L 61 286 L 61 281 L 56 281 L 56 286 L 56 291 L 51 291 L 51 286 L 46 286 L 46 281 L 51 281 L 51 276 L 46 276 L 41 276 L 41 271 L 46 271 L 46 266 L 41 266 L 41 261 L 36 261 L 36 266 L 36 271 L 31 271 L 31 266 L 26 266 L 26 261 L 31 261 L 31 256 L 26 256 L 21 256 L 21 251 L 26 251 L 26 246 L 31 246 L 31 251 L 36 251 L 36 246 L 36 241 L 41 241 L 41 246 L 46 246 L 46 241 L 51 241 L 51 236 L 46 236 L 41 236 L 41 231 L 46 231 L 46 226 L 41 226 L 41 221 L 36 221 L 36 226 L 36 231 L 31 231 L 31 226 L 26 226 L 21 226 L 21 221 L 16 221 L 16 226 L 16 231 L 11 231 L 11 226 L 6 226 L 6 221 L 11 221 L 11 216 L 6 216 L 1 216 L 1 211 L 6 211 L 6 206 L 11 206 L 11 211 L 16 211 L 16 206 L 16 201 L 21 201 L 21 206 L 26 206 L 26 201 L 31 201 L 31 196 L 26 196 L 21 196 L 21 191 L 26 191 L 26 186 L 31 186 L 31 191 L 36 191 L 36 186 L 36 181 L 41 181 L 41 186 L 46 186 L 46 191 L 41 191 L 41 196 L 46 196 L 51 196 L 51 201 L 46 201 L 46 206 L 51 206 L 51 211 L 56 211 L 56 206 L 56 201 L 61 201 L 61 206 L 66 206 L 66 201 L 71 201 L 71 196 L 66 196 L 61 196 L 61 191 L 66 191 L 66 186 L 66 181 L 71 181 L 71 176 L 66 176 L 61 176 L 61 171 L 66 171 L 66 166 L 71 166 L 71 171 L 76 171 L 76 166 L 76 161 L 81 161 L 81 166 L 86 166 L 86 171 L 81 171 L 81 176 L 86 176 L 91 176 L 91 181 L 86 181 L 86 186 L 91 186 L 91 191 L 96 191 L 96 186 L 96 181 L 101 181 L 101 186 L 106 186 L 106 181 L 111 181 L 111 176 L 106 176 L 101 176 L 101 171 L 106 171 L 106 166 L 111 166 L 111 171 L 116 171 L 116 166 L 116 161 L 121 161 L 121 166 L 126 166 L 126 161 L 131 161 L 131 156 L 126 156 L 121 156 L 121 151 L 126 151 L 126 146 L 121 146 L 121 141 L 116 141 L 116 146 L 116 151 L 111 151 L 111 146 L 106 146 L 101 146 L 101 141 L 96 141 L 96 146 L 96 151 L 91 151 L 91 146 L 86 146 L 86 141 L 91 141 L 91 136 L 86 136 L 81 136 L 81 131 L 86 131 L 86 126 L 91 126 L 91 131 L 96 131 L 96 126 L 96 121 L 101 121 L 101 126 L 106 126 L 106 121 L 111 121 L 111 116 L 106 116 L 101 116 L 101 111 L 106 111 L 106 106 L 111 106 L 111 111 L 116 111 L 116 106 L 116 101 L 121 101 L 121 106 L 126 106 L 126 111 L 121 111 L 121 116 L 126 116 L 131 116 L 131 121 L 126 121 L 126 126 L 131 126 L 131 131 L 136 131 L 136 126 L 136 121 L 141 121 L 141 126 L 146 126 L 146 121 L 151 121 L 151 116 L 146 116 L 141 116 L 141 111 L 146 111 L 146 106 L 146 101 L 151 101 L 151 96 L 146 96 L 141 96 L 141 91 L 146 91 L 146 86 L 151 86 L 151 91 L 156 91 L 156 86 L 156 81 L 161 81 L 161 86 L 166 86 L 166 91 L 161 91 L 161 96 L 166 96 L 171 96 L 171 101 L 166 101 L 166 106 L 171 106 L 171 111 L 176 111 L 176 106 L 176 101 L 181 101 L 181 106 L 186 106 L 186 111 L 181 111 L 181 116 L 186 116 L 191 116 L 191 121 L 186 121 L 186 126 L 181 126 L 181 121 L 176 121 L 176 126 L 176 131 L 171 131 L 171 126 L 166 126 L 166 131 L 161 131 L 161 136 L 166 136 L 171 136 L 171 141 L 166 141 L 166 146 L 171 146 L 171 151 L 176 151 L 176 146 L 176 141 L 181 141 L 181 146 L 186 146 L 191 146 L 191 151 L 196 151 L 196 146 L 196 141 L 201 141 L 201 146 L 206 146 L 206 151 L 201 151 L 201 156 L 206 156 L 211 156 L 211 161 L 206 161 L 206 166 L 201 166 L 201 161 L 196 161 L 196 166 L 196 171 L 191 171 L 191 166 L 186 166 L 186 171 L 181 171 L 181 176 L 186 176 L 191 176 L 191 181 L 186 181 L 186 186 L 191 186 L 191 191 L 196 191 L 196 186 L 196 181 L 201 181 L 201 186 L 206 186 L 206 191 L 201 191 L 201 196 L 206 196 L 211 196 L 211 201 L 206 201 L 206 206 L 211 206 L 211 211 L 216 211 L 216 206 L 216 201 L 221 201 L 221 206 L 226 206 L 226 201 L 231 201 L 231 196 L 226 196 L 221 196 L 221 191 L 226 191 L 226 186 L 226 181 L 231 181 L 231 176 L 226 176 L 221 176 L 221 171 L 226 171 L 226 166 L 231 166 L 231 171 L 236 171 L 236 166 L 236 161 L 241 161 L 241 166 L 246 166 L 246 171 L 241 171 L 241 176 L 246 176 L 251 176 L 251 181 L 246 181 L 246 186 L 251 186 L 251 191 L 256 191 L 256 186 L 256 181 L 261 181 L 261 186 L 266 186 L 266 181 L 271 181 L 271 176 L 266 176 L 261 176 L 261 171 L 266 171 L 266 166 L 271 166 L 271 171 L 276 171 L 276 166 L 276 161 L 281 161 L 281 166 L 286 166 L 286 161 L 291 161 L 291 156 L 286 156 L 281 156 L 281 151 L 286 151 L 286 146 L 281 146 L 281 141 L 276 141 L 276 146 L 276 151 L 271 151 L 271 146 L 266 146 L 261 146 L 261 141 L 256 141 L 256 146 L 256 151 L 251 151 L 251 146 L 246 146 L 246 141 L 251 141 L 251 136 L 246 136 L 241 136 L 241 131 L 246 131 L 246 126 L 251 126 L 251 131 L 256 131 L 256 126 L 256 121 L 261 121 L 261 126 L 266 126 L 266 121 L 271 121 L 271 116 L 266 116 L 261 116 L 261 111 L 266 111 L 266 106 L 266 101 L 271 101 L 271 96 L 266 96 L 261 96 L 261 91 L 266 91 L 266 86 L 271 86 L 271 91 L 276 91 L 276 86 L 276 81 L 281 81 L 281 86 L 286 86 L 286 81 L 291 81 L 291 76 L 286 76 L 281 76 L 281 71 L 286 71 L 286 66 L 281 66 L 281 61 L 276 61 L 276 66 L 276 71 L 271 71 L 271 66 L 266 66 L 261 66 L 261 61 L 256 61 L 256 66 L 256 71 L 251 71 L 251 66 L 246 66 L 246 61 L 251 61 L 251 56 L 246 56 L 241 56 L 241 51 L 246 51 L 246 46 L 251 46 L 251 51 L 256 51 L 256 46 L 256 41 L 261 41 L 261 46 L 266 46 L 266 41 L 271 41 L 271 36 L 266 36 L 261 36 L 261 31 L 266 31 L 266 26 L 271 26 L 271 31 L 276 31 L 276 26 L 276 21 L 281 21 L 281 26 L 286 26 L 286 31 L 281 31 L 281 36 L 286 36 L 291 36 L 291 41 L 286 41 L 286 46 L 291 46 L 291 51 L 296 51 L 296 46 L 296 41 L 301 41 L 301 46 L 306 46 L 306 41 L 311 41 L 311 36 L 306 36 L 301 36 L 301 31 L 306 31 L 306 26 L 306 21 L 311 21 L 311 16 L 306 16 L 301 16 L 301 11 L 306 11 L 306 6 L 311 6 L 311 11 L 316 11 L 316 6 L 316 1 L 321 1 L 321 6 L 326 6 L 326 11 L 321 11 L 321 16 L 326 16 L 331 16 L 331 21 L 326 21 L 326 26 L 331 26 L 331 31 L 336 31 L 336 26 L 336 21 L 341 21 L 341 26 L 346 26 L 346 31 L 341 31 L 341 36 L 346 36 L 351 36 L 351 41 L 346 41 L 346 46 L 341 46 L 341 41 L 336 41 L 336 46 L 336 51 L 331 51 L 331 46 L 326 46 L 326 51 L 321 51 L 321 56 L 326 56 L 331 56 L 331 61 L 326 61 L 326 66 L 331 66 L 331 71 L 336 71 L 336 66 L 336 61 L 341 61 L 341 66 L 346 66 L 351 66 L 351 71 L 356 71 L 356 66 L 356 61 L 361 61 L 361 66 L 366 66 L 366 71 L 361 71 L 361 76 L 366 76 L 371 76 L 371 81 L 366 81 L 366 86 L 361 86 L 361 81 L 356 81 L 356 86 L 356 91 L 351 91 L 351 86 L 346 86 L 346 91 L 341 91 L 341 96 L 346 96 L 351 96 L 351 101 L 346 101 L 346 106 L 351 106 L 351 111 L 356 111 L 356 106 L 356 101 L 361 101 L 361 106 L 366 106 L 366 111 L 361 111 L 361 116 L 366 116 L 371 116 L 371 121 L 366 121 L 366 126 L 371 126 L 371 131 L 376 131 L 376 126 L 376 121 L 381 121 L 381 126 L 386 126 L 386 121 L 391 121 L 391 116 L 386 116 L 381 116 L 381 111 L 386 111 L 386 106 L 386 101 L 391 101 L 391 96 L 386 96 L 381 96 L 381 91 L 386 91 L 386 86 L 391 86 L 391 91 L 396 91 L 396 86 L 396 81 L 401 81 L 401 86 L 406 86 L 406 91 L 401 91 L 401 96 L 406 96 L 411 96 L 411 101 L 406 101 L 406 106 L 411 106 L 411 111 L 416 111 L 416 106 L 416 101 L 421 101 L 421 106 L 426 106 L 426 111 L 421 111 L 421 116 L 426 116 L 431 116 L 431 121 L 426 121 L 426 126 L 421 126 L 421 121 L 416 121 L 416 126 L 416 131 L 411 131 L 411 126 L 406 126 L 406 131 L 401 131 L 401 136 L 406 136 L 411 136 L 411 141 L 406 141 L 406 146 L 411 146 L 411 151 L 416 151 L 416 146 L 416 141 L 421 141 L 421 146 L 426 146 L 431 146 L 431 151 L 436 151 L 436 146 L 436 141 L 441 141 L 441 146 L 446 146 L 446 151 L 441 151 L 441 156 L 446 156 L 451 156 L 451 161 L 446 161 L 446 166 L 441 166 L 441 161 L 436 161 L 436 166 L 436 171 L 431 171 L 431 166 L 426 166 L 426 171 L 421 171 L 421 176 L 426 176 L 431 176 L 431 181 L 426 181 L 426 186 L 421 186 L 421 181 L 416 181 L 416 186 L 416 191 L 411 191 L 411 186 L 406 186 L 406 181 L 411 181 L 411 176 L 406 176 L 401 176 L 401 171 L 406 171 L 406 166 L 401 166 L 401 161 L 396 161 L 396 166 L 396 171 L 391 171 L 391 166 L 386 166 L 386 171 L 381 171 L 381 176 L 386 176 L 391 176 L 391 181 L 386 181 L 386 186 L 386 191 L 381 191 L 381 196 L 386 196 L 391 196 L 391 201 L 386 201 L 386 206 L 381 206 L 381 201 L 376 201 L 376 206 L 376 211 L 371 211 L 371 206 L 366 206 L 366 201 L 371 201 L 371 196 L 366 196 L 361 196 L 361 191 L 366 191 L 366 186 L 361 186 L 361 181 L 356 181 L 356 186 L 356 191 L 351 191 L 351 186 L 346 186 L 346 191 L 341 191 L 341 196 L 346 196 L 351 196 L 351 201 L 346 201 L 346 206 L 341 206 L 341 201 L 336 201 L 336 206 L 336 211 L 331 211 L 331 206 L 326 206 L 326 211 L 321 211 L 321 216 L 326 216 L 331 216 L 331 221 L 326 221 L 326 226 L 331 226 L 331 231 L 336 231 L 336 226 L 336 221 L 341 221 L 341 226 L 346 226 L 351 226 L 351 231 L 356 231 L 356 226 L 356 221 L 361 221 L 361 226 L 366 226 L 366 231 L 361 231 L 361 236 L 366 236 L 371 236 L 371 241 L 366 241 L 366 246 L 361 246 L 361 241 L 356 241 L 356 246 L 356 251 L 351 251 L 351 246 L 346 246 L 346 251 L 341 251 L 341 256 L 346 256 L 351 256 L 351 261 L 346 261 L 346 266 L 351 266 L 351 271 L 356 271 L 356 266 L 356 261 L 361 261 L 361 266 L 366 266 L 366 271 L 361 271 L 361 276 L 366 276 L 371 276 L 371 281 L 366 281 L 366 286 L 371 286 L 371 291 L 376 291 L 376 286 L 376 281 L 381 281 L 381 286 L 386 286 L 386 281 L 391 281 L 391 276 L 386 276 L 381 276 L 381 271 L 386 271 L 386 266 L 386 261 L 391 261 L 391 256 L 386 256 L 381 256 L 381 251 L 386 251 L 386 246 L 391 246 L 391 251 L 396 251 L 396 246 L 396 241 L 401 241 L 401 246 L 406 246 L 406 251 L 401 251 L 401 256 L 406 256 L 411 256 L 411 261 L 406 261 L 406 266 L 411 266 L 411 271 L 416 271 L 416 266 L 416 261 L 421 261 L 421 266 L 426 266 L 431 266 L 431 271 L 436 271 L 436 266 L 436 261 L 441 261 L 441 266 L 446 266 L 446 271 L 441 271 L 441 276 L 446 276 L 451 276 L 451 281 L 446 281 L 446 286 L 451 286 L 451 291 L 456 291 L 456 286 L 456 281 L 461 281 L 461 286 L 466 286 L 466 281 L 471 281 L 471 276 L 466 276 L 461 276 L 461 271 L 466 271 L 466 266 L 466 261 L 471 261 L 471 256 L 466 256 L 461 256 L 461 251 L 466 251 L 466 246 L 471 246 L 471 251 L 476 251 L 476 246 L 476 241 L 481 241 L 481 246 L 486 246 L 486 251 L 481 251 L 481 256 L 486 256 L 491 256 L 491 261 L 486 261 L 486 266 L 491 266 L 491 271 L 496 271 L 496 266 L 496 261 L 501 261 L 501 266 L 506 266 L 506 271 L 501 271 L 501 276 L 506 276 L 511 276 L 511 281 L 506 281 L 506 286 L 501 286 L 501 281 L 496 281 L 496 286 L 496 291 L 491 291 L 491 286 L 486 286 L 486 291 L 481 291 L 481 296 L 486 296 L 491 296 L 491 301 L 486 301 L 486 306 L 491 306 L 491 311 L 496 311 L 496 306 L 496 301 L 501 301 L 501 306 L 506 306 L 511 306 L 511 311 L 516 311 L 516 306 L 516 301 L 521 301 L 521 306 L 526 306 L 526 311 L 521 311 L 521 316 L 526 316 L 531 316 L 531 321 L 526 321 L 526 326 L 521 326 L 521 321 L 516 321 L 516 326 L 516 331 L 511 331 L 511 326 L 506 326 L 506 331 L 501 331 L 501 336 L 506 336 L 511 336 L 511 341 L 506 341 L 506 346 L 501 346 L 501 341 L 496 341 L 496 346 L 496 351 L 491 351 L 491 346 L 486 346 L 486 341 L 491 341 L 491 336 L 486 336 L 481 336 L 481 331 L 486 331 L 486 326 L 481 326 L 481 321 L 476 321 L 476 326 L 476 331 L 471 331 L 471 326 L 466 326 L 466 331 L 461 331 L 461 336 L 466 336 L 471 336 L 471 341 L 466 341 L 466 346 L 466 351 L 461 351 L 461 356 L 466 356 L 471 356 L 471 361 L 466 361 L 466 366 L 461 366 L 461 361 L 456 361 L 456 366 L 456 371 L 451 371 L 451 366 L 446 366 L 446 361 L 451 361 L 451 356 L 446 356 L 441 356 L 441 351 L 446 351 L 446 346 L 441 346 L 441 341 L 436 341 L 436 346 L 436 351 L 431 351 L 431 346 L 426 346 L 426 351 L 421 351 L 421 356 L 426 356 L 431 356 L 431 361 L 426 361 L 426 366 L 421 366 L 421 361 L 416 361 L 416 366 L 416 371 L 411 371 L 411 366 L 406 366 L 406 371 L 401 371 L 401 376 L 406 376 L 411 376 L 411 381 L 406 381 L 406 386 L 411 386 L 411 391 L 416 391 L 416 386 L 416 381 L 421 381 L 421 386 L 426 386 L 431 386 L 431 391 L 436 391 L 436 386 L 436 381 L 441 381 L 441 386 L 446 386 L 446 391 L 441 391 L 441 396 L 446 396 L 451 396 L 451 401 L 446 401 L 446 406 L 441 406 L 441 401 L 436 401 L 436 406 L 436 411 L 431 411 L 431 406 L 426 406 L 426 411 L 421 411 L 421 416 L 426 416 L 431 416 L 431 421 L 426 421 L 426 426 L 421 426 L 421 421 L 416 421 L 416 426 L 416 431 L 411 431 L 411 426 L 406 426 L 406 421 L 411 421 L 411 416 L 406 416 L 401 416 L 401 411 L 406 411 L 406 406 L 401 406 L 401 401 L 396 401 L 396 406 L 396 411 L 391 411 L 391 406 L 386 406 L 386 411 L 381 411 L 381 416 L 386 416 L 391 416 L 391 421 L 386 421 L 386 426 L 386 431 L 381 431 L 381 436 L 386 436 L 391 436 L 391 441 L 386 441 L 386 446 L 381 446 L 381 441 L 376 441 L 376 446 L 376 451 L 371 451 L 371 446 L 366 446 L 366 441 L 371 441 L 371 436 L 366 436 L 361 436 L 361 431 L 366 431 L 366 426 L 361 426 L 361 421 L 356 421 L 356 426 L 356 431 L 351 431 L 351 426 L 346 426 L 346 421 L 351 421 L 351 416 L 346 416 L 341 416 L 341 411 L 346 411 L 346 406 L 351 406 L 351 411 L 356 411 L 356 406 L 356 401 L 361 401 L 361 406 L 366 406 L 366 401 L 371 401 L 371 396 L 366 396 L 361 396 L 361 391 L 366 391 L 366 386 L 361 386 L 361 381 L 356 381 L 356 386 L 356 391 L 351 391 L 351 386 L 346 386 L 341 386 L 341 381 L 336 381 L 336 386 L 336 391 L 331 391 L 331 386 L 326 386 L 326 381 L 331 381 L 331 376 L 326 376 L 321 376 L 321 371 L 326 371 L 326 366 L 331 366 L 331 371 L 336 371 L 336 366 L 336 361 L 341 361 L 341 366 L 346 366 L 346 361 L 351 361 L 351 356 L 346 356 L 341 356 L 341 351 L 346 351 L 346 346 L 341 346 L 341 341 L 336 341 L 336 346 L 336 351 L 331 351 L 331 346 L 326 346 L 326 341 L 331 341 L 331 336 L 326 336 L 321 336 L 321 331 L 326 331 L 326 326 L 321 326 L 321 321 L 316 321 L 316 326 L 316 331 L 311 331 L 311 326 L 306 326 L 306 331 L 301 331 L 301 336 L 306 336 L 311 336 L 311 341 L 306 341 L 306 346 L 306 351 L 301 351 L 301 356 L 306 356 L 311 356 L 311 361 L 306 361 L 306 366 L 301 366 L 301 361 L 296 361 L 296 366 L 296 371 L 291 371 L 291 366 L 286 366 L 286 361 L 291 361 L 291 356 L 286 356 L 281 356 L 281 351 L 286 351 L 286 346 L 281 346 L 281 341 L 276 341 L 276 346 L 276 351 L 271 351 L 271 346 L 266 346 L 266 351 L 261 351 L 261 356 L 266 356 L 271 356 L 271 361 L 266 361 L 266 366 L 261 366 L 261 361 L 256 361 L 256 366 L 256 371 L 251 371 L 251 366 L 246 366 L 246 371 L 241 371 L 241 376 L 246 376 L 251 376 L 251 381 L 246 381 L 246 386 L 251 386 L 251 391 L 256 391 L 256 386 L 256 381 L 261 381 L 261 386 L 266 386 L 271 386 L 271 391 L 276 391 L 276 386 L 276 381 L 281 381 L 281 386 L 286 386 L 286 391 L 281 391 L 281 396 L 286 396 L 291 396 L 291 401 L 286 401 L 286 406 L 281 406 L 281 401 L 276 401 L 276 406 L 276 411 L 271 411 L 271 406 L 266 406 L 266 411 L 261 411 L 261 416 L 266 416 L 271 416 L 271 421 L 266 421 L 266 426 L 266 431 L 261 431 L 261 436 L 266 436 L 271 436 L 271 441 L 266 441 L 266 446 L 261 446 L 261 441 L 256 441 L 256 446 L 256 451 L 251 451 L 251 446 L 246 446 L 246 451 L 241 451 L 241 456 L 246 456 L 251 456 L 251 461 L 246 461 L 246 466 L 251 466 L 251 471 L 256 471 L 256 466 L 256 461 L 261 461 L 261 466 L 266 466 L 271 466 L 271 471 L 276 471 L 276 466 L 276 461 L 281 461 L 281 466 L 286 466 L 286 471 L 281 471 L 281 476 L 286 476 L 291 476 L 291 481 L 286 481 L 286 486 L 281 486 L 281 481 L 276 481 L 276 486 L 276 491 L 271 491 L 271 486 L 266 486 L 266 491 L 261 491 L 261 496 L 266 496 L 271 496 L 271 501 L 266 501 L 266 506 L 261 506 L 261 501 L 256 501 L 256 506 L 256 511 L 251 511 L 251 506 L 246 506 L 246 501 L 251 501 L 251 496 L 246 496 L 241 496 L 241 491 L 246 491 L 246 486 L 241 486 L 241 481 L 236 481 L 236 486 L 236 491 L 231 491 L 231 486 L 226 486 L 226 491 L 221 491 L 221 496 L 226 496 L 231 496 L 231 501 L 226 501 L 226 506 L 226 511 L 221 511 L 221 516 L 226 516 L 231 516 L 231 521 L 226 521 L 226 526 L 221 526 L 221 521 L 216 521 L 216 526 L 216 531 L 211 531 L 211 526 L 206 526 L 206 521 L 211 521 L 211 516 L 206 516 L 201 516 L 201 511 L 206 511 L 206 506 L 201 506 L 201 501 L 196 501 L 196 506 L 196 511 L 191 511 L 191 506 L 186 506 L 186 501 L 191 501 L 191 496 L 186 496 L 181 496 L 181 491 L 186 491 L 186 486 L 191 486 L 191 491 L 196 491 L 196 486 L 196 481 L 201 481 L 201 486 L 206 486 L 206 481 L 211 481 L 211 476 L 206 476 L 201 476 L 201 471 L 206 471 L 206 466 L 201 466 L 201 461 L 196 461 L 196 466 L 196 471 L 191 471 L 191 466 L 186 466 L 181 466 L 181 461 L 176 461 L 176 466 L 176 471 L 171 471 L 171 466 L 166 466 L 166 461 L 171 461 L 171 456 L 166 456 L 161 456 L 161 451 L 166 451 L 166 446 L 171 446 L 171 451 L 176 451 L 176 446 L 176 441 L 181 441 L 181 446 L 186 446 L 186 441 L 191 441 L 191 436 L 186 436 L 181 436 L 181 431 L 186 431 L 186 426 L 181 426 L 181 421 L 176 421 L 176 426 L 176 431 L 171 431 L 171 426 L 166 426 L 166 421 L 171 421 L 171 416 L 166 416 L 161 416 L 161 411 L 166 411 L 166 406 L 161 406 L 161 401 L 156 401 L 156 406 L 156 411 L 151 411 L 151 406 L 146 406 L 146 411 L 141 411 L 141 416 L 146 416 L 151 416 L 151 421 L 146 421 L 146 426 L 146 431 L 141 431 L 141 436 L 146 436 L 151 436 L 151 441 L 146 441 L 146 446 L 141 446 L 141 441 L 136 441 L 136 446 L 136 451 L 131 451 L 131 446 L 126 446 L 126 441 L 131 441 L 131 436 L 126 436 L 121 436 L 121 431 L 126 431 L 126 426 L 121 426 L 121 421 L 116 421 L 116 426 L 116 431 L 111 431 L 111 426 L 106 426 Z " />
  </g>
</svg>
