<?xml version="1.0" encoding="UTF-8" standalone="no"?>
<!DOCTYPE svg PUBLIC "-//W3C//DTD SVG 1.1//EN"
    "http://www.w3.org/Graphics/SVG/1.1/DTD/svg11.dtd">
<svg xmlns="http://www.w3.org/2000/svg" width="564" height="488">
  <desc>kochSnowflake LSystem</desc>
  <rect width="100%" height="100%" style="fill: white"/>
  <g stroke="black" fill="none" stroke-width="1">
    <path d="M 141.2961 487 L 141.2961 485 L 139.564 484 L 141.2961 483 L 141.2961 481 L 139.564 480 L 137.832 481 L 137.832 479 L 136.0999 478 L 137.832 477 L 137.832 475 L 139.564 476 L 141.2961 475 L 141.2961 473 L 139.564 472 L 141.2961 471 L 141.2961 469 L 139.564 468 L 137.832 469 L 137.832 467 L 136.0999 466 L 134.3679 467 L 134.3679 469 L 132.6358 468 L 130.9038 469 L 130.9038 467 L 129.1717 466 L 130.9038 465 L 130.9038 463 L 129.1717 462 L 127.4397 463 L 127.4397 461 L 125.7076 460 L 127.4397 459 L 127.4397 457 L 129.1717 458 L 130.9038 457 L 130.9038 455 L 129.1717 454 L 130.9038 453 L 130.9038 451 L 132.6358 452 L 134.3679 451 L 134.3679 453 L 136.0999 454 L 137.832 453 L 137.832 451 L 139.564 452 L 141.2961 451 L 141.2961 449 L 139.564 448 L 141.2961 447 L 141.2961 445 L 139.564 444 L 137.832 445 L 137.832 443 L 136.0999 442 L 137.832 441 L 137.832 439 L 139.564 440 L 141.2961 439 L 141.2961 437 L 139.564 436 L 141.2961 435 L 141.2961 433 L 139.564 432 L 137.832 433 L 137.832 431 L 136.0999 430 L 134.3679 431 L 134.3679 433 L 132.6358 432 L 130.9038 433 L 130.9038 431 L 129.1717 430 L 130.9038 429 L 130.9038 427 L 129.1717 426 L 127.4397 427 L 127.4397 425 L 125.7076 424 L 123.9756 425 L 123.9756 427 L 122.2435 426 L 120.5115 427 L 120.5115 429 L 122.2435 430 L 120.5115 431 L 120.5115 433 L 118.7794 432 L 117.0474 433 L 117.0474 431 L 115.3153 430 L 113.5833 431 L 113.5833 433 L 111.8512 432 L 110.1192 433 L 110.1192 431 L 108.3871 430 L 110.1192 429 L 110.1192 427 L 108.3871 426 L 106.6551 427 L 106.6551 425 L 104.923 424 L 106.6551 423 L 106.6551 421 L 108.3871 422 L 110.1192 421 L 110.1192 419 L 108.3871 418 L 110.1192 417 L 110.1192 415 L 108.3871 414 L 106.6551 415 L 106.6551 413 L 104.923 412 L 103.191 413 L 103.191 415 L 101.4589 414 L 99.72687 415 L 99.72687 413 L 97.99481 412 L 99.72687 411 L 99.72687 409 L 97.99481 408 L 96.26277 409 L 96.26277 407 L 94.53072 406 L 96.26277 405 L 96.26277 403 L 97.99481 404 L 99.72687 403 L 99.72687 401 L 97.99481 400 L 99.72687 399 L 99.72687 397 L 101.4589 398 L 103.191 397 L 103.191 399 L 104.923 400 L 106.6551 399 L 106.6551 397 L 108.3871 398 L 110.1192 397 L 110.1192 395 L 108.3871 394 L 110.1192 393 L 110.1192 391 L 108.3871 390 L 106.6551 391 L 106.6551 389 L 104.923 388 L 106.6551 387 L 106.6551 385 L 108.3871 386 L 110.1192 385 L 110.1192 383 L 108.3871 382 L 110.1192 381 L 110.1192 379 L 111.8512 380 L 113.5833 379 L 113.5833 381 L 115.3153 382 L 117.0474 381 L 117.0474 379 L 118.7794 380 L 120.5115 379 L 120.5115 381 L 122.2435 382 L 120.5115 383 L 120.5115 385 L 122.2435 386 L 123.9756 385 L 123.9756 387 L 125.7076 388 L 127.4397 387 L 127.4397 385 L 129.1717 386 L 130.9038 385 L 130.9038 383 L 129.1717 382 L 130.9038 381 L 130.9038 379 L 132.6358 380 L 134.3679 379 L 134.3679 381 L 136.0999 382 L 137.832 381 L 137.832 379 L 139.564 380 L 141.2961 379 L 141.2961 377 L 139.564 376 L 141.2961 375 L 141.2961 373 L 139.564 372 L 137.832 373 L 137.832 371 L 136.0999 370 L 137.832 369 L 137.832 367 L 139.564 368 L 141.2961 367 L 141.2961 365 L 139.564 364 L 141.2961 363 L 141.2961 361 L 139.564 360 L 137.832 361 L 137.832 359 L 136.0999 358 L 134.3679 359 L 134.3679 361 L 132.6358 360 L 130.9038 361 L 130.9038 359 L 129.1717 358 L 130.9038 357 L 130.9038 355 L 129.1717 354 L 127.4397 355 L 127.4397 353 L 125.7076 352 L 127.4397 351 L 127.4397 349 L 129.1717 350 L 130.9038 349 L 130.9038 347 L 129.1717 346 L 130.9038 345 L 130.9038 343 L 132.6358 344 L 134.3679 343 L 134.3679 345 L 136.0999 346 L 137.832 345 L 137.832 343 L 139.564 344 L 141.2961 343 L 141.2961 341 L 139.564 340 L 141.2961 339 L 141.2961 337 L 139.564 336 L 137.832 337 L 137.832 335 L 136.0999 334 L 137.832 333 L 137.832 331 L 139.564 332 L 141.2961 331 L 141.2961 329 L 139.564 328 L 141.2961 327 L 141.2961 325 L 139.564 324 L 137.832 325 L 137.832 323 L 136.0999 322 L 134.3679 323 L 134.3679 325 L 132.6358 324 L 130.9038 325 L 130.9038 323 L 129.1717 322 L 130.9038 321 L 130.9038 319 L 129.1717 318 L 127.4397 319 L 127.4397 317 L 125.7076 316 L 123.9756 317 L 123.9756 319 L 122.2435 318 L 120.5115 319 L 120.5115 321 L 122.2435 322 L 120.5115 323 L 120.5115 325 L 118.7794 324 L 117.0474 325 L 117.0474 323 L 115.3153 322 L 113.5833 323 L 113.5833 325 L 111.8512 324 L 110.1192 325 L 110.1192 323 L 108.3871 322 L 110.1192 321 L 110.1192 319 L 108.3871 318 L 106.6551 319 L 106.6551 317 L 104.923 316 L 106.6551 315 L 106.6551 313 L 108.3871 314 L 110.1192 313 L 110.1192 311 L 108.3871 310 L 110.1192 309 L 110.1192 307 L 108.3871 306 L 106.6551 307 L 106.6551 305 L 104.923 304 L 103.191 305 L 103.191 307 L 101.4589 306 L 99.72687 307 L 99.72687 305 L 97.99481 304 L 99.72687 303 L 99.72687 301 L 97.99481 300 L 96.26277 301 L 96.26277 299 L 94.53072 298 L 92.79867 299 L 92.79867 301 L 91.06662 300 L 89.33456 301 L 89.33456 303 L 91.06662 304 L 89.33456 305 L 89.33456 307 L 87.60252 306 L 85.87047 307 L 85.87047 305 L 84.13841 304 L 82.40636 305 L 82.40636 307 L 80.67432 306 L 78.94226 307 L 78.94226 309 L 80.67432 310 L 78.94226 311 L 78.94226 313 L 80.67432 314 L 82.40636 313 L 82.40636 315 L 84.13841 316 L 82.40636 317 L 82.40636 319 L 80.67432 318 L 78.94226 319 L 78.94226 321 L 80.67432 322 L 78.94226 323 L 78.94226 325 L 77.21021 324 L 75.47816 325 L 75.47816 323 L 73.74612 322 L 72.01407 323 L 72.01407 325 L 70.28201 324 L 68.54996 325 L 68.54996 323 L 66.81792 322 L 68.54996 321 L 68.54996 319 L 66.81792 318 L 65.08587 319 L 65.08587 317 L 63.35381 316 L 61.62177 317 L 61.62177 319 L 59.88972 318 L 58.15767 319 L 58.15767 321 L 59.88972 322 L 58.15767 323 L 58.15767 325 L 56.42561 324 L 54.69357 325 L 54.69357 323 L 52.96152 322 L 51.22947 323 L 51.22947 325 L 49.49741 324 L 47.76537 325 L 47.76537 323 L 46.03332 322 L 47.76537 321 L 47.76537 319 L 46.03332 318 L 44.30127 319 L 44.30127 317 L 42.56923 316 L 44.30128 315 L 44.30128 313 L 46.03333 314 L 47.76537 313 L 47.76537 311 L 46.03333 310 L 47.76537 309 L 47.76537 307 L 46.03333 306 L 44.30128 307 L 44.30128 305 L 42.56923 304 L 40.83717 305 L 40.83717 307 L 39.10513 306 L 37.37308 307 L 37.37308 305 L 35.64103 304 L 37.37308 303 L 37.37308 301 L 35.64103 300 L 33.90899 301 L 33.90899 299 L 32.17693 298 L 33.90899 297 L 33.90899 295 L 35.64104 296 L 37.37309 295 L 37.37309 293 L 35.64104 292 L 37.37309 291 L 37.37309 289 L 39.10513 290 L 40.83717 289 L 40.83717 291 L 42.56923 292 L 44.30128 291 L 44.30128 289 L 46.03333 290 L 47.76537 289 L 47.76537 287 L 46.03333 286 L 47.76537 285 L 47.76537 283 L 46.03333 282 L 44.30128 283 L 44.30128 281 L 42.56923 280 L 44.30128 279 L 44.30128 277 L 46.03333 278 L 47.76537 277 L 47.76537 275 L 46.03333 274 L 47.76537 273 L 47.76537 271 L 46.03333 270 L 44.30128 271 L 44.30128 269 L 42.56923 268 L 40.83717 269 L 40.83717 271 L 39.10513 270 L 37.37308 271 L 37.37308 269 L 35.64103 268 L 37.37308 267 L 37.37308 265 L 35.64103 264 L 33.90899 265 L 33.90899 263 L 32.17693 262 L 30.44489 263 L 30.44489 265 L 28.71284 264 L 26.98079 265 L 26.98079 267 L 28.71284 268 L 26.98079 269 L 26.98079 271 L 25.24873 270 L 23.51669 271 L 23.51669 269 L 21.78464 268 L 20.05259 269 L 20.05259 271 L 18.32055 270 L 16.58849 271 L 16.58849 269 L 14.85645 268 L 16.58849 267 L 16.58849 265 L 14.85645 264 L 13.12439 265 L 13.12439 263 L 11.39233 262 L 13.12439 261 L 13.12439 259 L 14.85644 260 L 16.58849 259 L 16.58849 257 L 14.85644 256 L 16.58849 255 L 16.58849 253 L 14.85644 252 L 13.12439 253 L 13.12439 251 L 11.39233 250 L 9.660278 251 L 9.660278 253 L 7.928223 252 L 6.196167 253 L 6.196167 251 L 4.464111 250 L 6.196167 249 L 6.196167 247 L 4.464111 246 L 2.732056 247 L 2.732056 245 L 1 244 L 2.732056 243 L 2.732056 241 L 4.464111 242 L 6.196167 241 L 6.196167 239 L 4.464111 238 L 6.196167 237 L 6.196167 235 L 7.928223 236 L 9.660278 235 L 9.660278 237 L 11.39233 238 L 13.12439 237 L 13.12439 235 L 14.85644 236 L 16.58849 235 L 16.58849 233 L 14.85644 232 L 16.58849 231 L 16.58849 229 L 14.85644 228 L 13.12439 229 L 13.12439 227 L 11.39233 226 L 13.12439 225 L 13.12439 223 L 14.85644 224 L 16.58849 223 L 16.58849 221 L 14.85644 220 L 16.58849 219 L 16.58849 217 L 18.32053 218 L 20.05259 217 L 20.05259 219 L 21.78464 220 L 23.51669 219 L 23.51669 217 L 25.24873 218 L 26.98079 217 L 26.98079 219 L 28.71284 220 L 26.98079 221 L 26.98079 223 L 28.71284 224 L 30.44489 223 L 30.44489 225 L 32.17693 226 L 33.90899 225 L 33.90899 223 L 35.64104 224 L 37.37309 223 L 37.37309 221 L 35.64104 220 L 37.37309 219 L 37.37309 217 L 39.10513 218 L 40.83717 217 L 40.83717 219 L 42.56923 220 L 44.30128 219 L 44.30128 217 L 46.03333 218 L 47.76537 217 L 47.76537 215 L 46.03333 214 L 47.76537 213 L 47.76537 211 L 46.03333 210 L 44.30128 211 L 44.30128 209 L 42.56923 208 L 44.30128 207 L 44.30128 205 L 46.03333 206 L 47.76537 205 L 47.76537 203 L 46.03333 202 L 47.76537 201 L 47.76537 199 L 46.03333 198 L 44.30128 199 L 44.30128 197 L 42.56923 196 L 40.83717 197 L 40.83717 199 L 39.10513 198 L 37.37308 199 L 37.37308 197 L 35.64103 196 L 37.37308 195 L 37.37308 193 L 35.64103 192 L 33.90899 193 L 33.90899 191 L 32.17693 190 L 33.90899 189 L 33.90899 187 L 35.64104 188 L 37.37309 187 L 37.37309 185 L 35.64104 184 L 37.37309 183 L 37.37309 181 L 39.10513 182 L 40.83717 181 L 40.83717 183 L 42.56923 184 L 44.30128 183 L 44.30128 181 L 46.03333 182 L 47.76537 181 L 47.76537 179 L 46.03333 178 L 47.76537 177 L 47.76537 175 L 46.03333 174 L 44.30128 175 L 44.30128 173 L 42.56923 172 L 44.30128 171 L 44.30128 169 L 46.03333 170 L 47.76537 169 L 47.76537 167 L 46.03333 166 L 47.76537 165 L 47.76537 163 L 49.49741 164 L 51.22947 163 L 51.22947 165 L 52.96152 166 L 54.69357 165 L 54.69357 163 L 56.42561 164 L 58.15767 163 L 58.15767 165 L 59.88972 166 L 58.15767 167 L 58.15767 169 L 59.88972 170 L 61.62177 169 L 61.62177 171 L 63.35381 172 L 65.08585 171 L 65.08585 169 L 66.81791 170 L 68.54996 169 L 68.54996 167 L 66.81791 166 L 68.54996 165 L 68.54996 163 L 70.28201 164 L 72.01405 163 L 72.01405 165 L 73.74611 166 L 75.47816 165 L 75.47816 163 L 77.21021 164 L 78.94226 163 L 78.94226 165 L 80.6743 166 L 78.94226 167 L 78.94226 169 L 80.6743 170 L 82.40636 169 L 82.40636 171 L 84.1384 172 L 82.40636 173 L 82.40636 175 L 80.6743 174 L 78.94226 175 L 78.94226 177 L 80.6743 178 L 78.94226 179 L 78.94226 181 L 80.6743 182 L 82.40636 181 L 82.40636 183 L 84.1384 184 L 85.87045 183 L 85.87045 181 L 87.60251 182 L 89.33456 181 L 89.33456 183 L 91.0666 184 L 89.33456 185 L 89.33456 187 L 91.0666 188 L 92.79866 187 L 92.79866 189 L 94.5307 190 L 96.26276 189 L 96.26276 187 L 97.9948 188 L 99.72685 187 L 99.72685 185 L 97.9948 184 L 99.72685 183 L 99.72685 181 L 101.4589 182 L 103.191 181 L 103.191 183 L 104.923 184 L 106.6551 183 L 106.6551 181 L 108.3871 182 L 110.1192 181 L 110.1192 179 L 108.3871 178 L 110.1192 177 L 110.1192 175 L 108.3871 174 L 106.6551 175 L 106.6551 173 L 104.923 172 L 106.6551 171 L 106.6551 169 L 108.3871 170 L 110.1192 169 L 110.1192 167 L 108.3871 166 L 110.1192 165 L 110.1192 163 L 111.8512 164 L 113.5833 163 L 113.5833 165 L 115.3153 166 L 117.0474 165 L 117.0474 163 L 118.7794 164 L 120.5115 163 L 120.5115 165 L 122.2435 166 L 120.5115 167 L 120.5115 169 L 122.2435 170 L 123.9756 169 L 123.9756 171 L 125.7076 172 L 127.4397 171 L 127.4397 169 L 129.1717 170 L 130.9038 169 L 130.9038 167 L 129.1717 166 L 130.9038 165 L 130.9038 163 L 132.6358 164 L 134.3679 163 L 134.3679 165 L 136.0999 166 L 137.832 165 L 137.832 163 L 139.564 164 L 141.2961 163 L 141.2961 161 L 139.564 160 L 141.2961 159 L 141.2961 157 L 139.564 156 L 137.832 157 L 137.832 155 L 136.0999 154 L 137.832 153 L 137.832 151 L 139.564 152 L 141.2961 151 L 141.2961 149 L 139.564 148 L 141.2961 147 L 141.2961 145 L 139.564 144 L 137.832 145 L 137.832 143 L 136.0999 142 L 134.3679 143 L 134.3679 145 L 132.6358 144 L 130.9038 145 L 130.9038 143 L 129.1717 142 L 130.9038 141 L 130.9038 139 L 129.1717 138 L 127.4397 139 L 127.4397 137 L 125.7076 136 L 127.4397 135 L 127.4397 133 L 129.1717 134 L 130.9038 133 L 130.9038 131 L 129.1717 130 L 130.9038 129 L 130.9038 127 L 132.6358 128 L 134.3679 127 L 134.3679 129 L 136.0999 130 L 137.832 129 L 137.832 127 L 139.564 128 L 141.2961 127 L 141.2961 125 L 139.564 124 L 141.2961 123 L 141.2961 121 L 139.564 120 L 137.832 121 L 137.832 119 L 136.0999 118 L 137.832 117 L 137.832 115 L 139.564 116 L 141.2961 115 L 141.2961 113 L 139.564 112 L 141.2961 111 L 141.2961 109 L 139.564 108 L 137.832 109 L 137.832 107 L 136.0999 106 L 134.3679 107 L 134.3679 109 L 132.6358 108 L 130.9038 109 L 130.9038 107 L 129.1717 106 L 130.9038 105 L 130.9038 103 L 129.1717 102 L 127.4397 103 L 127.4397 101 L 125.7076 100 L 123.9756 101 L 123.9756 103 L 122.2435 102 L 120.5115 103 L 120.5115 105 L 122.2435 106 L 120.5115 107 L 120.5115 109 L 118.7794 108 L 117.0474 109 L 117.0474 107 L 115.3153 106 L 113.5833 107 L 113.5833 109 L 111.8512 108 L 110.1192 109 L 110.1192 107 L 108.3871 106 L 110.1192 105 L 110.1192 103 L 108.3871 102 L 106.6551 103 L 106.6551 101 L 104.923 100 L 106.6551 99 L 106.6551 97 L 108.3871 98 L 110.1192 97 L 110.1192 95 L 108.3871 94 L 110.1192 93 L 110.1192 91 L 108.3871 90 L 106.6551 91 L 106.6551 89 L 104.923 88 L 103.191 89 L 103.191 91 L 101.4589 90 L 99.72685 91 L 99.72685 89 L 97.9948 88 L 99.72685 87 L 99.72685 85 L 97.9948 84 L 96.26276 85 L 96.26276 83 L 94.5307 82 L 96.26276 81 L 96.26276 79 L 97.9948 80 L 99.72685 79 L 99.72685 77 L 97.9948 76 L 99.72685 75 L 99.72685 73 L 101.4589 74 L 103.191 73 L 103.191 75 L 104.923 76 L 106.6551 75 L 106.6551 73 L 108.3871 74 L 110.1192 73 L 110.1192 71 L 108.3871 70 L 110.1192 69 L 110.1192 67 L 108.3871 66 L 106.6551 67 L 106.6551 65 L 104.923 64 L 106.6551 63 L 106.6551 61 L 108.3871 62 L 110.1192 61 L 110.1192 59 L 108.3871 58 L 110.1192 57 L 110.1192 55 L 111.8512 56 L 113.5833 55 L 113.5833 57 L 115.3153 58 L 117.0474 57 L 117.0474 55 L 118.7794 56 L 120.5115 55 L 120.5115 57 L 122.2435 58 L 120.5115 59 L 120.5115 61 L 122.2435 62 L 123.9756 61 L 123.9756 63 L 125.7076 64 L 127.4397 63 L 127.4397 61 L 129.1717 62 L 130.9038 61 L 130.9038 59 L 129.1717 58 L 130.9038 57 L 130.9038 55 L 132.6358 56 L 134.3679 55 L 134.3679 57 L 136.0999 58 L 137.832 57 L 137.832 55 L 139.564 56 L 141.2961 55 L 141.2961 53 L 139.564 52 L 141.2961 51 L 141.2961 49 L 139.564 48 L 137.832 49 L 137.832 47 L 136.0999 46 L 137.832 45 L 137.832 43 L 139.564 44 L 141.2961 43 L 141.2961 41 L 139.564 40 L 141.2961 39 L 141.2961 37 L 139.564 36 L 137.832 37 L 137.832 35 L 136.0999 34 L 134.3679 35 L 134.3679 37 L 132.6358 36 L 130.9038 37 L 130.9038 35 L 129.1717 34 L 130.9038 33 L 130.9038 31 L 129.1717 30 L 127.4397 31 L 127.4397 29 L 125.7076 28 L 127.4397 27 L 127.4397 25 L 129.1717 26 L 130.9038 25 L 130.9038 23 L 129.1717 22 L 130.9038 21 L 130.9038 19 L 132.6358 20 L 134.3679 19 L 134.3679 21 L 136.0999 22 L 137.832 21 L 137.832 19 L 139.564 20 L 141.2961 19 L 141.2961 17 L 139.564 16 L 141.2961 15 L 141.2961 13 L 139.564 12 L 137.832 13 L 137.832 11 L 136.0999 10 L 137.832 9 L 137.832 7 L 139.564 8 L 141.2961 7 L 141.2961 5 L 139.564 4 L 141.2961 3 L 141.2961 1 L 143.0281 2 L 144.7602 1 L 144.7602 3 L 146.4922 4 L 148.2243 3 L 148.2243 1 L 149.9563 2 L 151.6884 1 L 151.6884 3 L 153.4204 4 L 151.6884 5 L 151.6884 7 L 153.4204 8 L 155.1525 7 L 155.1525 9 L 156.8845 10 L 158.6166 9 L 158.6166 7 L 160.3486 8 L 162.0807 7 L 162.0807 5 L 160.3486 4 L 162.0807 3 L 162.0807 1 L 163.8127 2 L 165.5448 1 L 165.5448 3 L 167.2768 4 L 169.0089 3 L 169.0089 1 L 170.7409 2 L 172.473 1 L 172.473 3 L 174.205 4 L 172.473 5 L 172.473 7 L 174.205 8 L 175.9371 7 L 175.9371 9 L 177.6691 10 L 175.9371 11 L 175.9371 13 L 174.205 12 L 172.473 13 L 172.473 15 L 174.205 16 L 172.473 17 L 172.473 19 L 174.205 20 L 175.9371 19 L 175.9371 21 L 177.6691 22 L 179.4012 21 L 179.4012 19 L 181.1332 20 L 182.8653 19 L 182.8653 21 L 184.5973 22 L 182.8653 23 L 182.8653 25 L 184.5973 26 L 186.3294 25 L 186.3294 27 L 188.0614 28 L 189.7935 27 L 189.7935 25 L 191.5255 26 L 193.2576 25 L 193.2576 23 L 191.5255 22 L 193.2576 21 L 193.2576 19 L 194.9896 20 L 196.7216 19 L 196.7216 21 L 198.4537 22 L 200.1858 21 L 200.1858 19 L 201.9178 20 L 203.6499 19 L 203.6499 17 L 201.9178 16 L 203.6499 15 L 203.6499 13 L 201.9178 12 L 200.1858 13 L 200.1858 11 L 198.4537 10 L 200.1858 9 L 200.1858 7 L 201.9178 8 L 203.6499 7 L 203.6499 5 L 201.9178 4 L 203.6499 3 L 203.6499 1 L 205.3819 2 L 207.114 1 L 207.114 3 L 208.846 4 L 210.578 3 L 210.578 1 L 212.3101 2 L 214.0421 1 L 214.0421 3 L 215.7742 4 L 214.0421 5 L 214.0421 7 L 215.7742 8 L 217.5062 7 L 217.5062 9 L 219.2383 10 L 220.9703 9 L 220.9703 7 L 222.7024 8 L 224.4344 7 L 224.4344 5 L 222.7024 4 L 224.4344 3 L 224.4344 1 L 226.1665 2 L 227.8985 1 L 227.8985 3 L 229.6306 4 L 231.3626 3 L 231.3626 1 L 233.0947 2 L 234.8267 1 L 234.8267 3 L 236.5588 4 L 234.8267 5 L 234.8267 7 L 236.5588 8 L 238.2908 7 L 238.2908 9 L 240.0229 10 L 238.2908 11 L 238.2908 13 L 236.5588 12 L 234.8267 13 L 234.8267 15 L 236.5588 16 L 234.8267 17 L 234.8267 19 L 236.5588 20 L 238.2908 19 L 238.2908 21 L 240.0229 22 L 241.7549 21 L 241.7549 19 L 243.487 20 L 245.219 19 L 245.219 21 L 246.9511 22 L 245.219 23 L 245.219 25 L 246.9511 26 L 248.6831 25 L 248.6831 27 L 250.4152 28 L 248.6831 29 L 248.6831 31 L 246.951 30 L 245.219 31 L 245.219 33 L 246.951 34 L 245.219 35 L 245.219 37 L 243.487 36 L 241.7549 37 L 241.7549 35 L 240.0229 34 L 238.2908 35 L 238.2908 37 L 236.5588 36 L 234.8267 37 L 234.8267 39 L 236.5588 40 L 234.8267 41 L 234.8267 43 L 236.5588 44 L 238.2908 43 L 238.2908 45 L 240.0229 46 L 238.2908 47 L 238.2908 49 L 236.5588 48 L 234.8267 49 L 234.8267 51 L 236.5588 52 L 234.8267 53 L 234.8267 55 L 236.5588 56 L 238.2908 55 L 238.2908 57 L 240.0229 58 L 241.7549 57 L 241.7549 55 L 243.487 56 L 245.219 55 L 245.219 57 L 246.9511 58 L 245.219 59 L 245.219 61 L 246.9511 62 L 248.6831 61 L 248.6831 63 L 250.4152 64 L 252.1472 63 L 252.1472 61 L 253.8793 62 L 255.6113 61 L 255.6113 59 L 253.8793 58 L 255.6113 57 L 255.6113 55 L 257.3434 56 L 259.0754 55 L 259.0754 57 L 260.8075 58 L 262.5395 57 L 262.5395 55 L 264.2715 56 L 266.0036 55 L 266.0036 57 L 267.7357 58 L 266.0036 59 L 266.0036 61 L 267.7357 62 L 269.4677 61 L 269.4677 63 L 271.1998 64 L 269.4677 65 L 269.4677 67 L 267.7357 66 L 266.0036 67 L 266.0036 69 L 267.7357 70 L 266.0036 71 L 266.0036 73 L 267.7357 74 L 269.4677 73 L 269.4677 75 L 271.1998 76 L 272.9318 75 L 272.9318 73 L 274.6639 74 L 276.3959 73 L 276.3959 75 L 278.128 76 L 276.3959 77 L 276.3959 79 L 278.128 80 L 279.86 79 L 279.86 81 L 281.5921 82 L 283.3242 81 L 283.3242 79 L 285.0562 80 L 286.7883 79 L 286.7883 77 L 285.0562 76 L 286.7883 75 L 286.7883 73 L 288.5203 74 L 290.2524 73 L 290.2524 75 L 291.9844 76 L 293.7165 75 L 293.7165 73 L 295.4485 74 L 297.1806 73 L 297.1806 71 L 295.4485 70 L 297.1806 69 L 297.1806 67 L 295.4485 66 L 293.7165 67 L 293.7165 65 L 291.9844 64 L 293.7165 63 L 293.7165 61 L 295.4485 62 L 297.1806 61 L 297.1806 59 L 295.4485 58 L 297.1806 57 L 297.1806 55 L 298.9127 56 L 300.6447 55 L 300.6447 57 L 302.3768 58 L 304.1088 57 L 304.1088 55 L 305.8409 56 L 307.5729 55 L 307.5729 57 L 309.305 58 L 307.5729 59 L 307.5729 61 L 309.305 62 L 311.037 61 L 311.037 63 L 312.7691 64 L 314.5012 63 L 314.5012 61 L 316.2332 62 L 317.9653 61 L 317.9653 59 L 316.2332 58 L 317.9653 57 L 317.9653 55 L 319.6973 56 L 321.4294 55 L 321.4294 57 L 323.1614 58 L 324.8935 57 L 324.8935 55 L 326.6255 56 L 328.3576 55 L 328.3576 53 L 326.6255 52 L 328.3576 51 L 328.3576 49 L 326.6255 48 L 324.8935 49 L 324.8935 47 L 323.1614 46 L 324.8935 45 L 324.8935 43 L 326.6255 44 L 328.3576 43 L 328.3576 41 L 326.6255 40 L 328.3576 39 L 328.3576 37 L 326.6255 36 L 324.8935 37 L 324.8935 35 L 323.1614 34 L 321.4294 35 L 321.4294 37 L 319.6973 36 L 317.9653 37 L 317.9653 35 L 316.2332 34 L 317.9653 33 L 317.9653 31 L 316.2332 30 L 314.5012 31 L 314.5012 29 L 312.7691 28 L 314.5012 27 L 314.5012 25 L 316.2332 26 L 317.9653 25 L 317.9653 23 L 316.2332 22 L 317.9653 21 L 317.9653 19 L 319.6973 20 L 321.4294 19 L 321.4294 21 L 323.1614 22 L 324.8935 21 L 324.8935 19 L 326.6255 20 L 328.3576 19 L 328.3576 17 L 326.6255 16 L 328.3576 15 L 328.3576 13 L 326.6255 12 L 324.8935 13 L 324.8935 11 L 323.1614 10 L 324.8935 9 L 324.8935 7 L 326.6255 8 L 328.3576 7 L 328.3576 5 L 326.6255 4 L 328.3576 3 L 328.3576 1 L 330.0897 2 L 331.8217 1 L 331.8217 3 L 333.5538 4 L 335.2858 3 L 335.2858 1 L 337.0179 2 L 338.7499 1 L 338.7499 3 L 340.482 4 L 338.7499 5 L 338.7499 7 L 340.482 8 L 342.2141 7 L 342.2141 9 L 343.9461 10 L 345.6782 9 L 345.6782 7 L 347.4102 8 L 349.1423 7 L 349.1423 5 L 347.4102 4 L 349.1423 3 L 349.1423 1 L 350.8743 2 L 352.6064 1 L 352.6064 3 L 354.3384 4 L 356.0705 3 L 356.0705 1 L 357.8026 2 L 359.5346 1 L 359.5346 3 L 361.2667 4 L 359.5346 5 L 359.5346 7 L 361.2667 8 L 362.9987 7 L 362.9987 9 L 364.7308 10 L 362.9987 11 L 362.9987 13 L 361.2667 12 L 359.5346 13 L 359.5346 15 L 361.2667 16 L 359.5346 17 L 359.5346 19 L 361.2667 20 L 362.9987 19 L 362.9987 21 L 364.7308 22 L 366.4628 21 L 366.4628 19 L 368.1949 20 L 369.9269 19 L 369.9269 21 L 371.659 22 L 369.9269 23 L 369.9269 25 L 371.659 26 L 373.3911 25 L 373.3911 27 L 375.1231 28 L 376.8552 27 L 376.8552 25 L 378.5872 26 L 380.3193 25 L 380.3193 23 L 378.5872 22 L 380.3193 21 L 380.3193 19 L 382.0513 20 L 383.7834 19 L 383.7834 21 L 385.5154 22 L 387.2475 21 L 387.2475 19 L 388.9796 20 L 390.7116 19 L 390.7116 17 L 388.9796 16 L 390.7116 15 L 390.7116 13 L 388.9796 12 L 387.2475 13 L 387.2475 11 L 385.5154 10 L 387.2475 9 L 387.2475 7 L 388.9796 8 L 390.7116 7 L 390.7116 5 L 388.9796 4 L 390.7116 3 L 390.7116 1 L 392.4437 2 L 394.1757 1 L 394.1757 3 L 395.9078 4 L 397.6398 3 L 397.6398 1 L 399.3719 2 L 401.1039 1 L 401.1039 3 L 402.836 4 L 401.1039 5 L 401.1039 7 L 402.836 8 L 404.5681 7 L 404.5681 9 L 406.3001 10 L 408.0322 9 L 408.0322 7 L 409.7642 8 L 411.4963 7 L 411.4963 5 L 409.7642 4 L 411.4963 3 L 411.4963 1 L 413.2283 2 L 414.9604 1 L 414.9604 3 L 416.6924 4 L 418.4245 3 L 418.4245 1 L 420.1566 2 L 421.8886 1 L 421.8886 3 L 423.6207 4 L 421.8886 5 L 421.8886 7 L 423.6207 8 L 425.3527 7 L 425.3527 9 L 427.0848 10 L 425.3527 11 L 425.3527 13 L 423.6207 12 L 421.8886 13 L 421.8886 15 L 423.6207 16 L 421.8886 17 L 421.8886 19 L 423.6207 20 L 425.3527 19 L 425.3527 21 L 427.0848 22 L 428.8168 21 L 428.8168 19 L 430.5489 20 L 432.2809 19 L 432.2809 21 L 434.013 22 L 432.2809 23 L 432.2809 25 L 434.013 26 L 435.7451 25 L 435.7451 27 L 437.4771 28 L 435.7451 29 L 435.7451 31 L 434.013 30 L 432.2809 31 L 432.2809 33 L 434.013 34 L 432.2809 35 L 432.2809 37 L 430.5489 36 L 428.8168 37 L 428.8168 35 L 427.0848 34 L 425.3527 35 L 425.3527 37 L 423.6207 36 L 421.8886 37 L 421.8886 39 L 423.6207 40 L 421.8886 41 L 421.8886 43 L 423.6207 44 L 425.3527 43 L 425.3527 45 L 427.0848 46 L 425.3527 47 L 425.3527 49 L 423.6207 48 L 421.8886 49 L 421.8886 51 L 423.6207 52 L 421.8886 53 L 421.8886 55 L 423.6207 56 L 425.3527 55 L 425.3527 57 L 427.0848 58 L 428.8168 57 L 428.8168 55 L 430.5489 56 L 432.2809 55 L 432.2809 57 L 434.013 58 L 432.2809 59 L 432.2809 61 L 434.013 62 L 435.7451 61 L 435.7451 63 L 437.4771 64 L 439.2092 63 L 439.2092 61 L 440.9412 62 L 442.6733 61 L 442.6733 59 L 440.9412 58 L 442.6733 57 L 442.6733 55 L 444.4053 56 L 446.1374 55 L 446.1374 57 L 447.8694 58 L 449.6015 57 L 449.6015 55 L 451.3336 56 L 453.0656 55 L 453.0656 57 L 454.7977 58 L 453.0656 59 L 453.0656 61 L 454.7977 62 L 456.5297 61 L 456.5297 63 L 458.2618 64 L 456.5297 65 L 456.5297 67 L 454.7977 66 L 453.0656 67 L 453.0656 69 L 454.7977 70 L 453.0656 71 L 453.0656 73 L 454.7977 74 L 456.5297 73 L 456.5297 75 L 458.2618 76 L 459.9938 75 L 459.9938 73 L 461.7259 74 L 463.4579 73 L 463.4579 75 L 465.19 76 L 463.4579 77 L 463.4579 79 L 465.19 80 L 466.9221 79 L 466.9221 81 L 468.6541 82 L 466.9221 83 L 466.9221 85 L 465.19 84 L 463.4579 85 L 463.4579 87 L 465.19 88 L 463.4579 89 L 463.4579 91 L 461.7259 90 L 459.9938 91 L 459.9938 89 L 458.2618 88 L 456.5297 89 L 456.5297 91 L 454.7977 90 L 453.0656 91 L 453.0656 93 L 454.7977 94 L 453.0656 95 L 453.0656 97 L 454.7977 98 L 456.5297 97 L 456.5297 99 L 458.2618 100 L 456.5297 101 L 456.5297 103 L 454.7977 102 L 453.0656 103 L 453.0656 105 L 454.7977 106 L 453.0656 107 L 453.0656 109 L 451.3336 108 L 449.6015 109 L 449.6015 107 L 447.8694 106 L 446.1374 107 L 446.1374 109 L 444.4053 108 L 442.6733 109 L 442.6733 107 L 440.9412 106 L 442.6733 105 L 442.6733 103 L 440.9412 102 L 439.2092 103 L 439.2092 101 L 437.4771 100 L 435.7451 101 L 435.7451 103 L 434.013 102 L 432.2809 103 L 432.2809 105 L 434.013 106 L 432.2809 107 L 432.2809 109 L 430.5489 108 L 428.8168 109 L 428.8168 107 L 427.0848 106 L 425.3527 107 L 425.3527 109 L 423.6207 108 L 421.8886 109 L 421.8886 111 L 423.6207 112 L 421.8886 113 L 421.8886 115 L 423.6207 116 L 425.3527 115 L 425.3527 117 L 427.0848 118 L 425.3527 119 L 425.3527 121 L 423.6207 120 L 421.8886 121 L 421.8886 123 L 423.6207 124 L 421.8886 125 L 421.8886 127 L 423.6207 128 L 425.3527 127 L 425.3527 129 L 427.0848 130 L 428.8168 129 L 428.8168 127 L 430.5489 128 L 432.2809 127 L 432.2809 129 L 434.013 130 L 432.2809 131 L 432.2809 133 L 434.013 134 L 435.7451 133 L 435.7451 135 L 437.4771 136 L 435.7451 137 L 435.7451 139 L 434.013 138 L 432.2809 139 L 432.2809 141 L 434.013 142 L 432.2809 143 L 432.2809 145 L 430.5489 144 L 428.8168 145 L 428.8168 143 L 427.0848 142 L 425.3527 143 L 425.3527 145 L 423.6207 144 L 421.8886 145 L 421.8886 147 L 423.6207 148 L 421.8886 149 L 421.8886 151 L 423.6207 152 L 425.3527 151 L 425.3527 153 L 427.0848 154 L 425.3527 155 L 425.3527 157 L 423.6207 156 L 421.8886 157 L 421.8886 159 L 423.6207 160 L 421.8886 161 L 421.8886 163 L 423.6207 164 L 425.3527 163 L 425.3527 165 L 427.0848 166 L 428.8168 165 L 428.8168 163 L 430.5489 164 L 432.2809 163 L 432.2809 165 L 434.013 166 L 432.2809 167 L 432.2809 169 L 434.013 170 L 435.7451 169 L 435.7451 171 L 437.4771 172 L 439.2092 171 L 439.2092 169 L 440.9412 170 L 442.6733 169 L 442.6733 167 L 440.9412 166 L 442.6733 165 L 442.6733 163 L 444.4053 164 L 446.1374 163 L 446.1374 165 L 447.8694 166 L 449.6015 165 L 449.6015 163 L 451.3336 164 L 453.0656 163 L 453.0656 165 L 454.7977 166 L 453.0656 167 L 453.0656 169 L 454.7977 170 L 456.5297 169 L 456.5297 171 L 458.2618 172 L 456.5297 173 L 456.5297 175 L 454.7977 174 L 453.0656 175 L 453.0656 177 L 454.7977 178 L 453.0656 179 L 453.0656 181 L 454.7977 182 L 456.5297 181 L 456.5297 183 L 458.2618 184 L 459.9938 183 L 459.9938 181 L 461.7259 182 L 463.4579 181 L 463.4579 183 L 465.19 184 L 463.4579 185 L 463.4579 187 L 465.19 188 L 466.9221 187 L 466.9221 189 L 468.6541 190 L 470.3862 189 L 470.3862 187 L 472.1182 188 L 473.8503 187 L 473.8503 185 L 472.1182 184 L 473.8503 183 L 473.8503 181 L 475.5823 182 L 477.3144 181 L 477.3144 183 L 479.0464 184 L 480.7785 183 L 480.7785 181 L 482.5106 182 L 484.2426 181 L 484.2426 179 L 482.5106 178 L 484.2426 177 L 484.2426 175 L 482.5106 174 L 480.7785 175 L 480.7785 173 L 479.0464 172 L 480.7785 171 L 480.7785 169 L 482.5106 170 L 484.2426 169 L 484.2426 167 L 482.5106 166 L 484.2426 165 L 484.2426 163 L 485.9747 164 L 487.7067 163 L 487.7067 165 L 489.4388 166 L 491.1708 165 L 491.1708 163 L 492.9029 164 L 494.6349 163 L 494.6349 165 L 496.367 166 L 494.6349 167 L 494.6349 169 L 496.367 170 L 498.0991 169 L 498.0991 171 L 499.8311 172 L 501.5632 171 L 501.5632 169 L 503.2952 170 L 505.0273 169 L 505.0273 167 L 503.2952 166 L 505.0273 165 L 505.0273 163 L 506.7593 164 L 508.4914 163 L 508.4914 165 L 510.2234 166 L 511.9555 165 L 511.9555 163 L 513.6876 164 L 515.4196 163 L 515.4196 165 L 517.1517 166 L 515.4196 167 L 515.4196 169 L 517.1517 170 L 518.8837 169 L 518.8837 171 L 520.6158 172 L 518.8837 173 L 518.8837 175 L 517.1517 174 L 515.4196 175 L 515.4196 177 L 517.1517 178 L 515.4196 179 L 515.4196 181 L 517.1517 182 L 518.8837 181 L 518.8837 183 L 520.6158 184 L 522.3478 183 L 522.3478 181 L 524.0799 182 L 525.812 181 L 525.812 183 L 527.544 184 L 525.812 185 L 525.812 187 L 527.544 188 L 529.2761 187 L 529.2761 189 L 531.0081 190 L 529.2761 191 L 529.2761 193 L 527.544 192 L 525.812 193 L 525.812 195 L 527.544 196 L 525.812 197 L 525.812 199 L 524.0799 198 L 522.3478 199 L 522.3478 197 L 520.6158 196 L 518.8837 197 L 518.8837 199 L 517.1517 198 L 515.4196 199 L 515.4196 201 L 517.1517 202 L 515.4196 203 L 515.4196 205 L 517.1517 206 L 518.8837 205 L 518.8837 207 L 520.6158 208 L 518.8837 209 L 518.8837 211 L 517.1517 210 L 515.4196 211 L 515.4196 213 L 517.1517 214 L 515.4196 215 L 515.4196 217 L 517.1517 218 L 518.8837 217 L 518.8837 219 L 520.6158 220 L 522.3478 219 L 522.3478 217 L 524.0799 218 L 525.812 217 L 525.812 219 L 527.544 220 L 525.812 221 L 525.812 223 L 527.544 224 L 529.2761 223 L 529.2761 225 L 531.0081 226 L 532.7402 225 L 532.7402 223 L 534.4722 224 L 536.2043 223 L 536.2043 221 L 534.4722 220 L 536.2043 219 L 536.2043 217 L 537.9363 218 L 539.6684 217 L 539.6684 219 L 541.4005 220 L 543.1325 219 L 543.1325 217 L 544.8646 218 L 546.5966 217 L 546.5966 219 L 548.3287 220 L 546.5966 221 L 546.5966 223 L 548.3287 224 L 550.0607 223 L 550.0607 225 L 551.7928 226 L 550.0607 227 L 550.0607 229 L 548.3287 228 L 546.5966 229 L 546.5966 231 L 548.3287 232 L 546.5966 233 L 546.5966 235 L 548.3287 236 L 550.0607 235 L 550.0607 237 L 551.7928 238 L 553.5248 237 L 553.5248 235 L 555.2569 236 L 556.989 235 L 556.989 237 L 558.721 238 L 556.989 239 L 556.989 241 L 558.721 242 L 560.4531 241 L 560.4531 243 L 562.1851 244 L 560.4531 245 L 560.4531 247 L 558.721 246 L 556.989 247 L 556.989 249 L 558.721 250 L 556.989 251 L 556.989 253 L 555.2569 252 L 553.5248 253 L 553.5248 251 L 551.7928 250 L 550.0607 251 L 550.0607 253 L 548.3287 252 L 546.5966 253 L 546.5966 255 L 548.3287 256 L 546.5966 257 L 546.5966 259 L 548.3287 260 L 550.0607 259 L 550.0607 261 L 551.7928 262 L 550.0607 263 L 550.0607 265 L 548.3287 264 L 546.5966 265 L 546.5966 267 L 548.3287 268 L 546.5966 269 L 546.5966 271 L 544.8646 270 L 543.1325 271 L 543.1325 269 L 541.4005 268 L 539.6684 269 L 539.6684 271 L 537.9363 270 L 536.2043 271 L 536.2043 269 L 534.4722 268 L 536.2043 267 L 536.2043 265 L 534.4722 264 L 532.7402 265 L 532.7402 263 L 531.0081 262 L 529.2761 263 L 529.2761 265 L 527.544 264 L 525.812 265 L 525.812 267 L 527.544 268 L 525.812 269 L 525.812 271 L 524.0799 270 L 522.3478 271 L 522.3478 269 L 520.6158 268 L 518.8837 269 L 518.8837 271 L 517.1517 270 L 515.4196 271 L 515.4196 273 L 517.1517 274 L 515.4196 275 L 515.4196 277 L 517.1517 278 L 518.8837 277 L 518.8837 279 L 520.6158 280 L 518.8837 281 L 518.8837 283 L 517.1517 282 L 515.4196 283 L 515.4196 285 L 517.1517 286 L 515.4196 287 L 515.4196 289 L 517.1517 290 L 518.8837 289 L 518.8837 291 L 520.6158 292 L 522.3478 291 L 522.3478 289 L 524.0799 290 L 525.812 289 L 525.812 291 L 527.544 292 L 525.812 293 L 525.812 295 L 527.544 296 L 529.2761 295 L 529.2761 297 L 531.0081 298 L 529.2761 299 L 529.2761 301 L 527.544 300 L 525.812 301 L 525.812 303 L 527.544 304 L 525.812 305 L 525.812 307 L 524.0799 306 L 522.3478 307 L 522.3478 305 L 520.6158 304 L 518.8837 305 L 518.8837 307 L 517.1517 306 L 515.4196 307 L 515.4196 309 L 517.1517 310 L 515.4196 311 L 515.4196 313 L 517.1517 314 L 518.8837 313 L 518.8837 315 L 520.6158 316 L 518.8837 317 L 518.8837 319 L 517.1517 318 L 515.4196 319 L 515.4196 321 L 517.1517 322 L 515.4196 323 L 515.4196 325 L 513.6876 324 L 511.9555 325 L 511.9555 323 L 510.2234 322 L 508.4914 323 L 508.4914 325 L 506.7593 324 L 505.0273 325 L 505.0273 323 L 503.2952 322 L 505.0273 321 L 505.0273 319 L 503.2952 318 L 501.5632 319 L 501.5632 317 L 499.8311 316 L 498.0991 317 L 498.0991 319 L 496.367 318 L 494.6349 319 L 494.6349 321 L 496.367 322 L 494.6349 323 L 494.6349 325 L 492.9029 324 L 491.1708 325 L 491.1708 323 L 489.4388 322 L 487.7067 323 L 487.7067 325 L 485.9747 324 L 484.2426 325 L 484.2426 323 L 482.5106 322 L 484.2426 321 L 484.2426 319 L 482.5106 318 L 480.7785 319 L 480.7785 317 L 479.0464 316 L 480.7785 315 L 480.7785 313 L 482.5106 314 L 484.2426 313 L 484.2426 311 L 482.5106 310 L 484.2426 309 L 484.2426 307 L 482.5106 306 L 480.7785 307 L 480.7785 305 L 479.0464 304 L 477.3144 305 L 477.3144 307 L 475.5823 306 L 473.8503 307 L 473.8503 305 L 472.1182 304 L 473.8503 303 L 473.8503 301 L 472.1182 300 L 470.3862 301 L 470.3862 299 L 468.6541 298 L 466.9221 299 L 466.9221 301 L 465.19 300 L 463.4579 301 L 463.4579 303 L 465.19 304 L 463.4579 305 L 463.4579 307 L 461.7259 306 L 459.9938 307 L 459.9938 305 L 458.2618 304 L 456.5297 305 L 456.5297 307 L 454.7977 306 L 453.0656 307 L 453.0656 309 L 454.7977 310 L 453.0656 311 L 453.0656 313 L 454.7977 314 L 456.5297 313 L 456.5297 315 L 458.2618 316 L 456.5297 317 L 456.5297 319 L 454.7977 318 L 453.0656 319 L 453.0656 321 L 454.7977 322 L 453.0656 323 L 453.0656 325 L 451.3336 324 L 449.6015 325 L 449.6015 323 L 447.8694 322 L 446.1374 323 L 446.1374 325 L 444.4053 324 L 442.6733 325 L 442.6733 323 L 440.9412 322 L 442.6733 321 L 442.6733 319 L 440.9412 318 L 439.2092 319 L 439.2092 317 L 437.4771 316 L 435.7451 317 L 435.7451 319 L 434.013 318 L 432.2809 319 L 432.2809 321 L 434.013 322 L 432.2809 323 L 432.2809 325 L 430.5489 324 L 428.8168 325 L 428.8168 323 L 427.0848 322 L 425.3527 323 L 425.3527 325 L 423.6207 324 L 421.8886 325 L 421.8886 327 L 423.6207 328 L 421.8886 329 L 421.8886 331 L 423.6207 332 L 425.3527 331 L 425.3527 333 L 427.0848 334 L 425.3527 335 L 425.3527 337 L 423.6207 336 L 421.8886 337 L 421.8886 339 L 423.6207 340 L 421.8886 341 L 421.8886 343 L 423.6207 344 L 425.3527 343 L 425.3527 345 L 427.0848 346 L 428.8168 345 L 428.8168 343 L 430.5489 344 L 432.2809 343 L 432.2809 345 L 434.013 346 L 432.2809 347 L 432.2809 349 L 434.013 350 L 435.7451 349 L 435.7451 351 L 437.4771 352 L 435.7451 353 L 435.7451 355 L 434.013 354 L 432.2809 355 L 432.2809 357 L 434.013 358 L 432.2809 359 L 432.2809 361 L 430.5489 360 L 428.8168 361 L 428.8168 359 L 427.0848 358 L 425.3527 359 L 425.3527 361 L 423.6207 360 L 421.8886 361 L 421.8886 363 L 423.6207 364 L 421.8886 365 L 421.8886 367 L 423.6207 368 L 425.3527 367 L 425.3527 369 L 427.0848 370 L 425.3527 371 L 425.3527 373 L 423.6207 372 L 421.8886 373 L 421.8886 375 L 423.6207 376 L 421.8886 377 L 421.8886 379 L 423.6207 380 L 425.3527 379 L 425.3527 381 L 427.0848 382 L 428.8168 381 L 428.8168 379 L 430.5489 380 L 432.2809 379 L 432.2809 381 L 434.013 382 L 432.2809 383 L 432.2809 385 L 434.013 386 L 435.7451 385 L 435.7451 387 L 437.4771 388 L 439.2092 387 L 439.2092 385 L 440.9412 386 L 442.6733 385 L 442.6733 383 L 440.9412 382 L 442.6733 381 L 442.6733 379 L 444.4053 380 L 446.1374 379 L 446.1374 381 L 447.8694 382 L 449.6015 381 L 449.6015 379 L 451.3336 380 L 453.0656 379 L 453.0656 381 L 454.7977 382 L 453.0656 383 L 453.0656 385 L 454.7977 386 L 456.5297 385 L 456.5297 387 L 458.2618 388 L 456.5297 389 L 456.5297 391 L 454.7977 390 L 453.0656 391 L 453.0656 393 L 454.7977 394 L 453.0656 395 L 453.0656 397 L 454.7977 398 L 456.5297 397 L 456.5297 399 L 458.2618 400 L 459.9938 399 L 459.9938 397 L 461.7259 398 L 463.4579 397 L 463.4579 399 L 465.19 400 L 463.4579 401 L 463.4579 403 L 465.19 404 L 466.9221 403 L 466.9221 405 L 468.6541 406 L 466.9221 407 L 466.9221 409 L 465.19 408 L 463.4579 409 L 463.4579 411 L 465.19 412 L 463.4579 413 L 463.4579 415 L 461.7259 414 L 459.9938 415 L 459.9938 413 L 458.2618 412 L 456.5297 413 L 456.5297 415 L 454.7977 414 L 453.0656 415 L 453.0656 417 L 454.7977 418 L 453.0656 419 L 453.0656 421 L 454.7977 422 L 456.5297 421 L 456.5297 423 L 458.2618 424 L 456.5297 425 L 456.5297 427 L 454.7977 426 L 453.0656 427 L 453.0656 429 L 454.7977 430 L 453.0656 431 L 453.0656 433 L 451.3336 432 L 449.6015 433 L 449.6015 431 L 447.8694 430 L 446.1374 431 L 446.1374 433 L 444.4053 432 L 442.6733 433 L 442.6733 431 L 440.9412 430 L 442.6733 429 L 442.6733 427 L 440.9412 426 L 439.2092 427 L 439.2092 425 L 437.4771 424 L 435.7451 425 L 435.7451 427 L 434.013 426 L 432.2809 427 L 432.2809 429 L 434.013 430 L 432.2809 431 L 432.2809 433 L 430.5489 432 L 428.8168 433 L 428.8168 431 L 427.0848 430 L 425.3527 431 L 425.3527 433 L 423.6207 432 L 421.8886 433 L 421.8886 435 L 423.6207 436 L 421.8886 437 L 421.8886 439 L 423.6207 440 L 425.3527 439 L 425.3527 441 L 427.0848 442 L 425.3527 443 L 425.3527 445 L 423.6207 444 L 421.8886 445 L 421.8886 447 L 423.6207 448 L 421.8886 449 L 421.8886 451 L 423.6207 452 L 425.3527 451 L 425.3527 453 L 427.0848 454 L 428.8168 453 L 428.8168 451 L 430.5489 452 L 432.2809 451 L 432.2809 453 L 434.013 454 L 432.2809 455 L 432.2809 457 L 434.013 458 L 435.7451 457 L 435.7451 459 L 437.4771 460 L 435.7451 461 L 435.7451 463 L 434.013 462 L 432.2809 463 L 432.2809 465 L 434.013 466 L 432.2809 467 L 432.2809 469 L 430.5489 468 L 428.8168 469 L 428.8168 467 L 427.0848 466 L 425.3527 467 L 425.3527 469 L 423.6207 468 L 421.8886 469 L 421.8886 471 L 423.6207 472 L 421.8886 473 L 421.8886 475 L 423.6207 476 L 425.3527 475 L 425.3527 477 L 427.0848 478 L 425.3527 479 L 425.3527 481 L 423.6207 480 L 421.8886 481 L 421.8886 483 L 423.6207 484 L 421.8886 485 L 421.8886 487 L 420.1566 486 L 418.4245 487 L 418.4245 485 L 416.6924 484 L 414.9604 485 L 414.9604 487 L 413.2283 486 L 411.4963 487 L 411.4963 485 L 409.7642 484 L 411.4963 483 L 411.4963 481 L 409.7642 480 L 408.0322 481 L 408.0322 479 L 406.3001 478 L 404.5681 479 L 404.5681 481 L 402.836 480 L 401.1039 481 L 401.1039 483 L 402.836 484 L 401.1039 485 L 401.1039 487 L 399.3719 486 L 397.6398 487 L 397.6398 485 L 395.9078 484 L 394.1757 485 L 394.1757 487 L 392.4437 486 L 390.7116 487 L 390.7116 485 L 388.9796 484 L 390.7116 483 L 390.7116 481 L 388.9796 480 L 387.2475 481 L 387.2475 479 L 385.5154 478 L 387.2475 477 L 387.2475 475 L 388.9796 476 L 390.7116 475 L 390.7116 473 L 388.9796 472 L 390.7116 471 L 390.7116 469 L 388.9796 468 L 387.2475 469 L 387.2475 467 L 385.5154 466 L 383.7834 467 L 383.7834 469 L 382.0513 468 L 380.3193 469 L 380.3193 467 L 378.5872 466 L 380.3193 465 L 380.3193 463 L 378.5872 462 L 376.8552 463 L 376.8552 461 L 375.1231 460 L 373.3911 461 L 373.3911 463 L 371.659 462 L 369.9269 463 L 369.9269 465 L 371.659 466 L 369.9269 467 L 369.9269 469 L 368.1949 468 L 366.4628 469 L 366.4628 467 L 364.7308 466 L 362.9987 467 L 362.9987 469 L 361.2667 468 L 359.5346 469 L 359.5346 471 L 361.2667 472 L 359.5346 473 L 359.5346 475 L 361.2667 476 L 362.9987 475 L 362.9987 477 L 364.7308 478 L 362.9987 479 L 362.9987 481 L 361.2667 480 L 359.5346 481 L 359.5346 483 L 361.2667 484 L 359.5346 485 L 359.5346 487 L 357.8026 486 L 356.0705 487 L 356.0705 485 L 354.3384 484 L 352.6064 485 L 352.6064 487 L 350.8743 486 L 349.1423 487 L 349.1423 485 L 347.4102 484 L 349.1423 483 L 349.1423 481 L 347.4102 480 L 345.6782 481 L 345.6782 479 L 343.9461 478 L 342.2141 479 L 342.2141 481 L 340.482 480 L 338.7499 481 L 338.7499 483 L 340.482 484 L 338.7499 485 L 338.7499 487 L 337.0179 486 L 335.2858 487 L 335.2858 485 L 333.5538 484 L 331.8217 485 L 331.8217 487 L 330.0897 486 L 328.3576 487 L 328.3576 485 L 326.6255 484 L 328.3576 483 L 328.3576 481 L 326.6255 480 L 324.8935 481 L 324.8935 479 L 323.1614 478 L 324.8935 477 L 324.8935 475 L 326.6255 476 L 328.3576 475 L 328.3576 473 L 326.6255 472 L 328.3576 471 L 328.3576 469 L 326.6255 468 L 324.8935 469 L 324.8935 467 L 323.1614 466 L 321.4294 467 L 321.4294 469 L 319.6973 468 L 317.9653 469 L 317.9653 467 L 316.2332 466 L 317.9653 465 L 317.9653 463 L 316.2332 462 L 314.5012 463 L 314.5012 461 L 312.7691 460 L 314.5012 459 L 314.5012 457 L 316.2332 458 L 317.9653 457 L 317.9653 455 L 316.2332 454 L 317.9653 453 L 317.9653 451 L 319.6973 452 L 321.4294 451 L 321.4294 453 L 323.1614 454 L 324.8935 453 L 324.8935 451 L 326.6255 452 L 328.3576 451 L 328.3576 449 L 326.6255 448 L 328.3576 447 L 328.3576 445 L 326.6255 444 L 324.8935 445 L 324.8935 443 L 323.1614 442 L 324.8935 441 L 324.8935 439 L 326.6255 440 L 328.3576 439 L 328.3576 437 L 326.6255 436 L 328.3576 435 L 328.3576 433 L 326.6255 432 L 324.8935 433 L 324.8935 431 L 323.1614 430 L 321.4294 431 L 321.4294 433 L 319.6973 432 L 317.9653 433 L 317.9653 431 L 316.2332 430 L 317.9653 429 L 317.9653 427 L 316.2332 426 L 314.5012 427 L 314.5012 425 L 312.7691 424 L 311.037 425 L 311.037 427 L 309.305 426 L 307.5729 427 L 307.5729 429 L 309.305 430 L 307.5729 431 L 307.5729 433 L 305.8409 432 L 304.1088 433 L 304.1088 431 L 302.3768 430 L 300.6447 431 L 300.6447 433 L 298.9127 432 L 297.1806 433 L 297.1806 431 L 295.4485 430 L 297.1806 429 L 297.1806 427 L 295.4485 426 L 293.7165 427 L 293.7165 425 L 291.9844 424 L 293.7165 423 L 293.7165 421 L 295.4485 422 L 297.1806 421 L 297.1806 419 L 295.4485 418 L 297.1806 417 L 297.1806 415 L 295.4485 414 L 293.7165 415 L 293.7165 413 L 291.9844 412 L 290.2524 413 L 290.2524 415 L 288.5203 414 L 286.7883 415 L 286.7883 413 L 285.0562 412 L 286.7883 411 L 286.7883 409 L 285.0562 408 L 283.3242 409 L 283.3242 407 L 281.5921 406 L 279.86 407 L 279.86 409 L 278.128 408 L 276.3959 409 L 276.3959 411 L 278.128 412 L 276.3959 413 L 276.3959 415 L 274.6639 414 L 272.9318 415 L 272.9318 413 L 271.1998 412 L 269.4677 413 L 269.4677 415 L 267.7357 414 L 266.0036 415 L 266.0036 417 L 267.7357 418 L 266.0036 419 L 266.0036 421 L 267.7357 422 L 269.4677 421 L 269.4677 423 L 271.1998 424 L 269.4677 425 L 269.4677 427 L 267.7357 426 L 266.0036 427 L 266.0036 429 L 267.7357 430 L 266.0036 431 L 266.0036 433 L 264.2715 432 L 262.5395 433 L 262.5395 431 L 260.8074 430 L 259.0754 431 L 259.0754 433 L 257.3434 432 L 255.6113 433 L 255.6113 431 L 253.8793 430 L 255.6113 429 L 255.6113 427 L 253.8793 426 L 252.1472 427 L 252.1472 425 L 250.4152 424 L 248.6831 425 L 248.6831 427 L 246.951 426 L 245.219 427 L 245.219 429 L 246.951 430 L 245.219 431 L 245.219 433 L 243.487 432 L 241.7549 433 L 241.7549 431 L 240.0229 430 L 238.2908 431 L 238.2908 433 L 236.5588 432 L 234.8267 433 L 234.8267 435 L 236.5588 436 L 234.8267 437 L 234.8267 439 L 236.5588 440 L 238.2908 439 L 238.2908 441 L 240.0229 442 L 238.2908 443 L 238.2908 445 L 236.5588 444 L 234.8267 445 L 234.8267 447 L 236.5588 448 L 234.8267 449 L 234.8267 451 L 236.5588 452 L 238.2908 451 L 238.2908 453 L 240.0229 454 L 241.7549 453 L 241.7549 451 L 243.487 452 L 245.219 451 L 245.219 453 L 246.9511 454 L 245.219 455 L 245.219 457 L 246.9511 458 L 248.6831 457 L 248.6831 459 L 250.4152 460 L 248.6831 461 L 248.6831 463 L 246.951 462 L 245.219 463 L 245.219 465 L 246.951 466 L 245.219 467 L 245.219 469 L 243.487 468 L 241.7549 469 L 241.7549 467 L 240.0229 466 L 238.2908 467 L 238.2908 469 L 236.5588 468 L 234.8267 469 L 234.8267 471 L 236.5588 472 L 234.8267 473 L 234.8267 475 L 236.5588 476 L 238.2908 475 L 238.2908 477 L 240.0229 478 L 238.2908 479 L 238.2908 481 L 236.5588 480 L 234.8267 481 L 234.8267 483 L 236.5588 484 L 234.8267 485 L 234.8267 487 L 233.0947 486 L 231.3626 487 L 231.3626 485 L 229.6306 484 L 227.8985 485 L 227.8985 487 L 226.1665 486 L 224.4344 487 L 224.4344 485 L 222.7024 484 L 224.4344 483 L 224.4344 481 L 222.7024 480 L 220.9703 481 L 220.9703 479 L 219.2383 478 L 217.5062 479 L 217.5062 481 L 215.7742 480 L 214.0421 481 L 214.0421 483 L 215.7742 484 L 214.0421 485 L 214.0421 487 L 212.3101 486 L 210.578 487 L 210.578 485 L 208.846 484 L 207.1139 485 L 207.1139 487 L 205.3819 486 L 203.6498 487 L 203.6498 485 L 201.9178 484 L 203.6498 483 L 203.6498 481 L 201.9178 480 L 200.1857 481 L 200.1857 479 L 198.4537 478 L 200.1857 477 L 200.1857 475 L 201.9178 476 L 203.6498 475 L 203.6498 473 L 201.9178 472 L 203.6498 471 L 203.6498 469 L 201.9178 468 L 200.1857 469 L 200.1857 467 L 198.4537 466 L 196.7216 467 L 196.7216 469 L 194.9896 468 L 193.2575 469 L 193.2575 467 L 191.5255 466 L 193.2575 465 L 193.2575 463 L 191.5255 462 L 189.7934 463 L 189.7934 461 L 188.0614 460 L 186.3293 461 L 186.3293 463 L 184.5973 462 L 182.8652 463 L 182.8652 465 L 184.5973 466 L 182.8652 467 L 182.8652 469 L 181.1332 468 L 179.4011 469 L 179.4011 467 L 177.6691 466 L 175.937 467 L 175.937 469 L 174.205 468 L 172.4729 469 L 172.4729 471 L 174.205 472 L 172.4729 473 L 172.4729 475 L 174.205 476 L 175.937 475 L 175.937 477 L 177.6691 478 L 175.937 479 L 175.937 481 L 174.205 480 L 172.4729 481 L 172.4729 483 L 174.205 484 L 172.4729 485 L 172.4729 487 L 170.7409 486 L 169.0088 487 L 169.0088 485 L 167.2768 484 L 165.5447 485 L 165.5447 487 L 163.8127 486 L 162.0806 487 L 162.0806 485 L 160.3486 484 L 162.0806 483 L 162.0806 481 L 160.3486 480 L 158.6165 481 L 158.6165 479 L 156.8845 478 L 155.1524 479 L 155.1524 481 L 153.4204 480 L 151.6883 481 L 151.6883 483 L 153.4204 484 L 151.6883 485 L 151.6883 487 L 149.9563 486 L 148.2242 487 L 148.2242 485 L 146.4922 484 L 144.7601 485 L 144.7601 487 L 143.0281 486 L 141.296 487 " />
  </g>
</svg>
