<?xml version="1.0" encoding="UTF-8" standalone="no"?>
<!DOCTYPE svg PUBLIC "-//W3C//DTD SVG 1.1//EN"
    "http://www.w3.org/Graphics/SVG/1.1/DTD/svg11.dtd">
<svg xmlns="http://www.w3.org/2000/svg" width="564" height="489">
  <desc>kochSnowflake LSystem</desc>
  <rect width="100%" height="100%" style="fill: white"/>
  <g stroke="black" fill="none" stroke-width="1">
    <path d="M 141.2964 487 L 141.2964 485 L 139.5644 484 L 141.2964 483 L 141.2964 481 L 139.5644 480 L 137.8324 481 L 137.8324 479 L 136.1003 478 L 137.8324 477 L 137.8324 475 L 139.5644 476 L 141.2964 475 L 141.2964 473 L 139.5644 472 L 141.2964 471 L 141.2964 469 L 139.5644 468 L 137.8324 469 L 137.8324 467 L 136.1003 466 L 134.3683 467 L 134.3683 469 L 132.6362 468 L 130.9041 469 L 130.9041 467 L 129.1721 466 L 130.9041 465 L 130.9041 463 L 129.1721 462 L 127.44 463 L 127.44 461 L 125.708 460 L 127.44 459 L 127.44 457 L 129.1721 458 L 130.9041 457 L 130.9041 455 L 129.1721 454 L 130.9041 453 L 130.9041 451 L 132.6362 452 L 134.3683 451 L 134.3683 453 L 136.1003 454 L 137.8324 453 L 137.8324 451 L 139.5644 452 L 141.2964 451 L 141.2964 449 L 139.5644 448 L 141.2964 447 L 141.2964 445 L 139.5644 444 L 137.8324 445 L 137.8324 443 L 136.1003 442 L 137.8324 441 L 137.8324 439 L 139.5644 440 L 141.2964 439 L 141.2964 437 L 139.5644 436 L 141.2964 435 L 141.2964 433 L 139.5644 432 L 137.8324 433 L 137.8324 431 L 136.1003 430 L 134.3683 431 L 134.3683 433 L 132.6362 432 L 130.9041 433 L 130.9041 431 L 129.1721 430 L 130.9041 429 L 130.9041 427 L 129.1721 426 L 127.44 427 L 127.44 425 L 125.708 424 L 123.9759 425 L 123.9759 427 L 122.2439 426 L 120.5118 427 L 120.5118 429 L 122.2439 430 L 120.5118 431 L 120.5118 433 L 118.7798 432 L 117.0477 433 L 117.0477 431 L 115.3157 430 L 113.5836 431 L 113.5836 433 L 111.8516 432 L 110.1195 433 L 110.1195 431 L 108.3875 430 L 110.1195 429 L 110.1195 427 L 108.3875 426 L 106.6554 427 L 106.6554 425 L 104.9234 424 L 106.6554 423 L 106.6554 421 L 108.3875 422 L 110.1195 421 L 110.1195 419 L 108.3875 418 L 110.1195 417 L 110.1195 415 L 108.3875 414 L 106.6554 415 L 106.6554 413 L 104.9234 412 L 103.1913 413 L 103.1913 415 L 101.4593 414 L 99.72722 415 L 99.72722 413 L 97.99516 412 L 99.72722 411 L 99.72722 409 L 97.99516 408 L 96.26312 409 L 96.26312 407 L 94.53107 406 L 96.26312 405 L 96.26312 403 L 97.99516 404 L 99.72722 403 L 99.72722 401 L 97.99516 400 L 99.72722 399 L 99.72722 397 L 101.4593 398 L 103.1913 397 L 103.1913 399 L 104.9234 400 L 106.6554 399 L 106.6554 397 L 108.3875 398 L 110.1195 397 L 110.1195 395 L 108.3875 394 L 110.1195 393 L 110.1195 391 L 108.3875 390 L 106.6554 391 L 106.6554 389 L 104.9234 388 L 106.6554 387 L 106.6554 385 L 108.3875 386 L 110.1195 385 L 110.1195 383 L 108.3875 382 L 110.1195 381 L 110.1195 379 L 111.8516 380 L 113.5836 379 L 113.5836 381 L 115.3157 382 L 117.0477 381 L 117.0477 379 L 118.7798 380 L 120.5118 379 L 120.5118 381 L 122.2439 382 L 120.5118 383 L 120.5118 385 L 122.2439 386 L 123.976 385 L 123.976 387 L 125.708 388 L 127.4401 387 L 127.4401 385 L 129.1721 386 L 130.9042 385 L 130.9042 383 L 129.1721 382 L 130.9042 381 L 130.9042 379 L 132.6362 380 L 134.3683 379 L 134.3683 381 L 136.1003 382 L 137.8324 381 L 137.8324 379 L 139.5644 380 L 141.2965 379 L 141.2965 377 L 139.5644 376 L 141.2965 375 L 141.2965 373 L 139.5644 372 L 137.8324 373 L 137.8324 371 L 136.1003 370 L 137.8324 369 L 137.8324 367 L 139.5644 368 L 141.2965 367 L 141.2965 365 L 139.5644 364 L 141.2965 363 L 141.2965 361 L 139.5644 360 L 137.8324 361 L 137.8324 359 L 136.1003 358 L 134.3683 359 L 134.3683 361 L 132.6362 360 L 130.9042 361 L 130.9042 359 L 129.1721 358 L 130.9042 357 L 130.9042 355 L 129.1721 354 L 127.4401 355 L 127.4401 353 L 125.708 352 L 127.4401 351 L 127.4401 349 L 129.1721 350 L 130.9042 349 L 130.9042 347 L 129.1721 346 L 130.9042 345 L 130.9042 343 L 132.6362 344 L 134.3683 343 L 134.3683 345 L 136.1003 346 L 137.8324 345 L 137.8324 343 L 139.5644 344 L 141.2965 343 L 141.2965 341 L 139.5644 340 L 141.2965 339 L 141.2965 337 L 139.5644 336 L 137.8324 337 L 137.8324 335 L 136.1003 334 L 137.8324 333 L 137.8324 331 L 139.5644 332 L 141.2965 331 L 141.2965 329 L 139.5644 328 L 141.2965 327 L 141.2965 325 L 139.5644 324 L 137.8324 325 L 137.8324 323 L 136.1003 322 L 134.3683 323 L 134.3683 325 L 132.6362 324 L 130.9042 325 L 130.9042 323 L 129.1721 322 L 130.9042 321 L 130.9042 319 L 129.1721 318 L 127.44 319 L 127.44 317 L 125.708 316 L 123.9759 317 L 123.9759 319 L 122.2439 318 L 120.5118 319 L 120.5118 321 L 122.2439 322 L 120.5118 323 L 120.5118 325 L 118.7798 324 L 117.0477 325 L 117.0477 323 L 115.3157 322 L 113.5836 323 L 113.5836 325 L 111.8515 324 L 110.1195 325 L 110.1195 323 L 108.3874 322 L 110.1195 321 L 110.1195 319 L 108.3874 318 L 106.6554 319 L 106.6554 317 L 104.9233 316 L 106.6554 315 L 106.6554 313 L 108.3874 314 L 110.1195 313 L 110.1195 311 L 108.3874 310 L 110.1195 309 L 110.1195 307 L 108.3874 306 L 106.6554 307 L 106.6554 305 L 104.9233 304 L 103.1913 305 L 103.1913 307 L 101.4592 306 L 99.72716 307 L 99.72716 305 L 97.99511 304 L 99.72716 303 L 99.72716 301 L 97.99511 300 L 96.26305 301 L 96.26305 299 L 94.531 298 L 92.79893 299 L 92.79893 301 L 91.06689 300 L 89.33482 301 L 89.33482 303 L 91.06689 304 L 89.33482 305 L 89.33482 307 L 87.60277 306 L 85.87071 307 L 85.87071 305 L 84.13866 304 L 82.40661 305 L 82.40661 307 L 80.67455 306 L 78.9425 307 L 78.9425 309 L 80.67455 310 L 78.9425 311 L 78.9425 313 L 80.67455 314 L 82.40661 313 L 82.40661 315 L 84.13866 316 L 82.40661 317 L 82.40661 319 L 80.67455 318 L 78.9425 319 L 78.9425 321 L 80.67455 322 L 78.9425 323 L 78.9425 325 L 77.21043 324 L 75.47839 325 L 75.47839 323 L 73.74633 322 L 72.01427 323 L 72.01427 325 L 70.28222 324 L 68.55017 325 L 68.55017 323 L 66.81811 322 L 68.55017 321 L 68.55017 319 L 66.81811 318 L 65.08604 319 L 65.08604 317 L 63.354 316 L 61.62194 317 L 61.62194 319 L 59.88988 318 L 58.15783 319 L 58.15783 321 L 59.88988 322 L 58.15783 323 L 58.15783 325 L 56.42578 324 L 54.69372 325 L 54.69372 323 L 52.96165 322 L 51.22961 323 L 51.22961 325 L 49.49755 324 L 47.7655 325 L 47.7655 323 L 46.03344 322 L 47.7655 321 L 47.7655 319 L 46.03344 318 L 44.30138 319 L 44.30138 317 L 42.56933 316 L 44.30138 315 L 44.30138 313 L 46.03344 314 L 47.7655 313 L 47.7655 311 L 46.03344 310 L 47.7655 309 L 47.7655 307 L 46.03344 306 L 44.30138 307 L 44.30138 305 L 42.56933 304 L 40.83727 305 L 40.83727 307 L 39.10522 306 L 37.37316 307 L 37.37316 305 L 35.64111 304 L 37.37316 303 L 37.37316 301 L 35.64111 300 L 33.90905 301 L 33.90905 299 L 32.17699 298 L 33.90905 297 L 33.90905 295 L 35.64111 296 L 37.37316 295 L 37.37316 293 L 35.64111 292 L 37.37316 291 L 37.37316 289 L 39.10522 290 L 40.83727 289 L 40.83727 291 L 42.56933 292 L 44.30138 291 L 44.30138 289 L 46.03344 290 L 47.7655 289 L 47.7655 287 L 46.03344 286 L 47.7655 285 L 47.7655 283 L 46.03344 282 L 44.30138 283 L 44.30138 281 L 42.56933 280 L 44.30138 279 L 44.30138 277 L 46.03344 278 L 47.7655 277 L 47.7655 275 L 46.03344 274 L 47.7655 273 L 47.7655 271 L 46.03344 270 L 44.30138 271 L 44.30138 269 L 42.56933 268 L 40.83727 269 L 40.83727 271 L 39.10522 270 L 37.37316 271 L 37.37316 269 L 35.64111 268 L 37.37316 267 L 37.37316 265 L 35.64111 264 L 33.90905 265 L 33.90905 263 L 32.17699 262 L 30.44494 263 L 30.44494 265 L 28.71289 264 L 26.98083 265 L 26.98083 267 L 28.71289 268 L 26.98083 269 L 26.98083 271 L 25.24876 270 L 23.51672 271 L 23.51672 269 L 21.78466 268 L 20.0526 269 L 20.0526 271 L 18.32055 270 L 16.5885 271 L 16.5885 269 L 14.85644 268 L 16.5885 267 L 16.5885 265 L 14.85644 264 L 13.12439 265 L 13.12439 263 L 11.39233 262 L 13.12439 261 L 13.12439 259 L 14.85645 260 L 16.5885 259 L 16.5885 257 L 14.85645 256 L 16.5885 255 L 16.5885 253 L 14.85645 252 L 13.12439 253 L 13.12439 251 L 11.39233 250 L 9.660278 251 L 9.660278 253 L 7.928223 252 L 6.196167 253 L 6.196167 251 L 4.464111 250 L 6.196167 249 L 6.196167 247 L 4.464111 246 L 2.732056 247 L 2.732056 245 L 1 244 L 2.732056 243 L 2.732056 241 L 4.464111 242 L 6.196167 241 L 6.196167 239 L 4.464111 238 L 6.196167 237 L 6.196167 235 L 7.928223 236 L 9.660278 235 L 9.660278 237 L 11.39233 238 L 13.12439 237 L 13.12439 235 L 14.85645 236 L 16.5885 235 L 16.5885 233 L 14.85645 232 L 16.5885 231 L 16.5885 229 L 14.85645 228 L 13.12439 229 L 13.12439 227 L 11.39233 226 L 13.12439 225 L 13.12439 223 L 14.85645 224 L 16.5885 223 L 16.5885 221 L 14.85645 220 L 16.5885 219 L 16.5885 217 L 18.32056 218 L 20.0526 217 L 20.0526 219 L 21.78467 220 L 23.51673 219 L 23.51673 217 L 25.24878 218 L 26.98083 217 L 26.98083 219 L 28.71289 220 L 26.98083 221 L 26.98083 223 L 28.71289 224 L 30.44495 223 L 30.44495 225 L 32.17699 226 L 33.90906 225 L 33.90906 223 L 35.64112 224 L 37.37317 223 L 37.37317 221 L 35.64112 220 L 37.37317 219 L 37.37317 217 L 39.10522 218 L 40.83728 217 L 40.83728 219 L 42.56934 220 L 44.30138 219 L 44.30138 217 L 46.03345 218 L 47.76551 217 L 47.76551 215 L 46.03345 214 L 47.76551 213 L 47.76551 211 L 46.03345 210 L 44.30138 211 L 44.30138 209 L 42.56934 208 L 44.30138 207 L 44.30138 205 L 46.03345 206 L 47.76551 205 L 47.76551 203 L 46.03345 202 L 47.76551 201 L 47.76551 199 L 46.03345 198 L 44.30138 199 L 44.30138 197 L 42.56934 196 L 40.83728 197 L 40.83728 199 L 39.10522 198 L 37.37317 199 L 37.37317 197 L 35.64112 196 L 37.37317 195 L 37.37317 193 L 35.64112 192 L 33.90906 193 L 33.90906 191 L 32.17699 190 L 33.90906 189 L 33.90906 187 L 35.64112 188 L 37.37317 187 L 37.37317 185 L 35.64112 184 L 37.37317 183 L 37.37317 181 L 39.10522 182 L 40.83728 181 L 40.83728 183 L 42.56934 184 L 44.30138 183 L 44.30138 181 L 46.03345 182 L 47.76551 181 L 47.76551 179 L 46.03345 178 L 47.76551 177 L 47.76551 175 L 46.03345 174 L 44.30138 175 L 44.30138 173 L 42.56934 172 L 44.30138 171 L 44.30138 169 L 46.03345 170 L 47.76551 169 L 47.76551 167 L 46.03345 166 L 47.76551 165 L 47.76551 163 L 49.49756 164 L 51.22961 163 L 51.22961 165 L 52.96167 166 L 54.69373 165 L 54.69373 163 L 56.42578 164 L 58.15784 163 L 58.15784 165 L 59.88988 166 L 58.15784 167 L 58.15784 169 L 59.88988 170 L 61.62195 169 L 61.62195 171 L 63.35401 172 L 65.08606 171 L 65.08606 169 L 66.81812 170 L 68.55017 169 L 68.55017 167 L 66.81812 166 L 68.55017 165 L 68.55017 163 L 70.28223 164 L 72.01427 163 L 72.01427 165 L 73.74634 166 L 75.4784 165 L 75.4784 163 L 77.21045 164 L 78.9425 163 L 78.9425 165 L 80.67456 166 L 78.9425 167 L 78.9425 169 L 80.67456 170 L 82.40662 169 L 82.40662 171 L 84.13867 172 L 82.40662 173 L 82.40662 175 L 80.67456 174 L 78.9425 175 L 78.9425 177 L 80.67456 178 L 78.9425 179 L 78.9425 181 L 80.67456 182 L 82.40662 181 L 82.40662 183 L 84.13867 184 L 85.87073 183 L 85.87073 181 L 87.60278 182 L 89.33484 181 L 89.33484 183 L 91.06689 184 L 89.33484 185 L 89.33484 187 L 91.06689 188 L 92.79895 187 L 92.79895 189 L 94.53101 190 L 96.26306 189 L 96.26306 187 L 97.99512 188 L 99.72717 187 L 99.72717 185 L 97.99512 184 L 99.72717 183 L 99.72717 181 L 101.4592 182 L 103.1913 181 L 103.1913 183 L 104.9233 184 L 106.6554 183 L 106.6554 181 L 108.3875 182 L 110.1195 181 L 110.1195 179 L 108.3875 178 L 110.1195 177 L 110.1195 175 L 108.3875 174 L 106.6554 175 L 106.6554 173 L 104.9233 172 L 106.6554 171 L 106.6554 169 L 108.3875 170 L 110.1195 169 L 110.1195 167 L 108.3875 166 L 110.1195 165 L 110.1195 163 L 111.8516 164 L 113.5836 163 L 113.5836 165 L 115.3157 166 L 117.0477 165 L 117.0477 163 L 118.7798 164 L 120.5118 163 L 120.5118 165 L 122.2439 166 L 120.5118 167 L 120.5118 169 L 122.2439 170 L 123.976 169 L 123.976 171 L 125.708 172 L 127.4401 171 L 127.4401 169 L 129.1721 170 L 130.9042 169 L 130.9042 167 L 129.1721 166 L 130.9042 165 L 130.9042 163 L 132.6362 164 L 134.3683 163 L 134.3683 165 L 136.1003 166 L 137.8324 165 L 137.8324 163 L 139.5645 164 L 141.2965 163 L 141.2965 161 L 139.5645 160 L 141.2965 159 L 141.2965 157 L 139.5645 156 L 137.8324 157 L 137.8324 155 L 136.1003 154 L 137.8324 153 L 137.8324 151 L 139.5645 152 L 141.2965 151 L 141.2965 149 L 139.5645 148 L 141.2965 147 L 141.2965 145 L 139.5645 144 L 137.8324 145 L 137.8324 143 L 136.1003 142 L 134.3683 143 L 134.3683 145 L 132.6362 144 L 130.9042 145 L 130.9042 143 L 129.1721 142 L 130.9042 141 L 130.9042 139 L 129.1721 138 L 127.4401 139 L 127.4401 137 L 125.708 136 L 127.4401 135 L 127.4401 133 L 129.1721 134 L 130.9042 133 L 130.9042 131 L 129.1721 130 L 130.9042 129 L 130.9042 127 L 132.6362 128 L 134.3683 127 L 134.3683 129 L 136.1003 130 L 137.8324 129 L 137.8324 127 L 139.5645 128 L 141.2965 127 L 141.2965 125 L 139.5645 124 L 141.2965 123 L 141.2965 121 L 139.5645 120 L 137.8324 121 L 137.8324 119 L 136.1003 118 L 137.8324 117 L 137.8324 115 L 139.5645 116 L 141.2965 115 L 141.2965 113 L 139.5645 112 L 141.2965 111 L 141.2965 109 L 139.5645 108 L 137.8324 109 L 137.8324 107 L 136.1003 106 L 134.3683 107 L 134.3683 109 L 132.6362 108 L 130.9042 109 L 130.9042 107 L 129.1721 106 L 130.9042 105 L 130.9042 103 L 129.1721 102 L 127.4401 103 L 127.4401 101 L 125.708 100 L 123.976 101 L 123.976 103 L 122.2439 102 L 120.5118 103 L 120.5118 105 L 122.2439 106 L 120.5118 107 L 120.5118 109 L 118.7798 108 L 117.0477 109 L 117.0477 107 L 115.3157 106 L 113.5836 107 L 113.5836 109 L 111.8516 108 L 110.1195 109 L 110.1195 107 L 108.3875 106 L 110.1195 105 L 110.1195 103 L 108.3875 102 L 106.6554 103 L 106.6554 101 L 104.9233 100 L 106.6554 99 L 106.6554 97 L 108.3875 98 L 110.1195 97 L 110.1195 95 L 108.3875 94 L 110.1195 93 L 110.1195 91 L 108.3875 90 L 106.6554 91 L 106.6554 89 L 104.9233 88 L 103.1913 89 L 103.1913 91 L 101.4592 90 L 99.72717 91 L 99.72717 89 L 97.99512 88 L 99.72717 87 L 99.72717 85 L 97.99512 84 L 96.26306 85 L 96.26306 83 L 94.531 82 L 96.26306 81 L 96.26306 79 L 97.99512 80 L 99.72717 79 L 99.72717 77 L 97.99512 76 L 99.72717 75 L 99.72717 73 L 101.4592 74 L 103.1913 73 L 103.1913 75 L 104.9233 76 L 106.6554 75 L 106.6554 73 L 108.3875 74 L 110.1195 73 L 110.1195 71 L 108.3875 70 L 110.1195 69 L 110.1195 67 L 108.3875 66 L 106.6554 67 L 106.6554 65 L 104.9233 64 L 106.6554 63 L 106.6554 61 L 108.3875 62 L 110.1195 61 L 110.1195 59 L 108.3875 58 L 110.1195 57 L 110.1195 55 L 111.8516 56 L 113.5836 55 L 113.5836 57 L 115.3157 58 L 117.0477 57 L 117.0477 55 L 118.7798 56 L 120.5118 55 L 120.5118 57 L 122.2439 58 L 120.5118 59 L 120.5118 61 L 122.2439 62 L 123.976 61 L 123.976 63 L 125.708 64 L 127.4401 63 L 127.4401 61 L 129.1721 62 L 130.9042 61 L 130.9042 59 L 129.1721 58 L 130.9042 57 L 130.9042 55 L 132.6362 56 L 134.3683 55 L 134.3683 57 L 136.1003 58 L 137.8324 57 L 137.8324 55 L 139.5645 56 L 141.2965 55 L 141.2965 53 L 139.5645 52 L 141.2965 51 L 141.2965 49 L 139.5645 48 L 137.8324 49 L 137.8324 47 L 136.1003 46 L 137.8324 45 L 137.8324 43 L 139.5645 44 L 141.2965 43 L 141.2965 41 L 139.5644 40 L 141.2965 39 L 141.2965 37 L 139.5644 36 L 137.8324 37 L 137.8324 35 L 136.1003 34 L 134.3683 35 L 134.3683 37 L 132.6362 36 L 130.9042 37 L 130.9042 35 L 129.1721 34 L 130.9042 33 L 130.9042 31 L 129.1721 30 L 127.4401 31 L 127.4401 29 L 125.708 28 L 127.4401 27 L 127.4401 25 L 129.1721 26 L 130.9042 25 L 130.9042 23 L 129.1721 22 L 130.9042 21 L 130.9042 19 L 132.6362 20 L 134.3683 19 L 134.3683 21 L 136.1003 22 L 137.8324 21 L 137.8324 19 L 139.5644 20 L 141.2965 19 L 141.2965 17 L 139.5644 16 L 141.2965 15 L 141.2965 13 L 139.5644 12 L 137.8324 13 L 137.8324 11 L 136.1003 10 L 137.8324 9 L 137.8324 7 L 139.5644 8 L 141.2965 7 L 141.2965 5 L 139.5644 4 L 141.2965 3 L 141.2965 1 L 143.0285 2 L 144.7606 1 L 144.7606 3 L 146.4927 4 L 148.2247 3 L 148.2247 1 L 149.9568 2 L 151.6888 1 L 151.6888 3 L 153.4209 4 L 151.6888 5 L 151.6888 7 L 153.4209 8 L 155.1529 7 L 155.1529 9 L 156.885 10 L 158.6171 9 L 158.6171 7 L 160.3491 8 L 162.0812 7 L 162.0812 5 L 160.3491 4 L 162.0812 3 L 162.0812 1 L 163.8132 2 L 165.5453 1 L 165.5453 3 L 167.2773 4 L 169.0094 3 L 169.0094 1 L 170.7414 2 L 172.4735 1 L 172.4735 3 L 174.2056 4 L 172.4735 5 L 172.4735 7 L 174.2056 8 L 175.9376 7 L 175.9376 9 L 177.6697 10 L 175.9376 11 L 175.9376 13 L 174.2056 12 L 172.4735 13 L 172.4735 15 L 174.2056 16 L 172.4735 17 L 172.4735 19 L 174.2056 20 L 175.9376 19 L 175.9376 21 L 177.6697 22 L 179.4017 21 L 179.4017 19 L 181.1338 20 L 182.8658 19 L 182.8658 21 L 184.5979 22 L 182.8658 23 L 182.8658 25 L 184.5979 26 L 186.3299 25 L 186.3299 27 L 188.062 28 L 189.7941 27 L 189.7941 25 L 191.5261 26 L 193.2582 25 L 193.2582 23 L 191.5261 22 L 193.2582 21 L 193.2582 19 L 194.9902 20 L 196.7223 19 L 196.7223 21 L 198.4543 22 L 200.1864 21 L 200.1864 19 L 201.9184 20 L 203.6505 19 L 203.6505 17 L 201.9184 16 L 203.6505 15 L 203.6505 13 L 201.9184 12 L 200.1864 13 L 200.1864 11 L 198.4543 10 L 200.1864 9 L 200.1864 7 L 201.9184 8 L 203.6505 7 L 203.6505 5 L 201.9184 4 L 203.6505 3 L 203.6505 1 L 205.3825 2 L 207.1146 1 L 207.1146 3 L 208.8466 4 L 210.5787 3 L 210.5787 1 L 212.3108 2 L 214.0428 1 L 214.0428 3 L 215.7749 4 L 214.0428 5 L 214.0428 7 L 215.7749 8 L 217.5069 7 L 217.5069 9 L 219.239 10 L 220.971 9 L 220.971 7 L 222.7031 8 L 224.4352 7 L 224.4352 5 L 222.7031 4 L 224.4352 3 L 224.4352 1 L 226.1672 2 L 227.8993 1 L 227.8993 3 L 229.6313 4 L 231.3634 3 L 231.3634 1 L 233.0954 2 L 234.8275 1 L 234.8275 3 L 236.5595 4 L 234.8275 5 L 234.8275 7 L 236.5595 8 L 238.2916 7 L 238.2916 9 L 240.0237 10 L 238.2916 11 L 238.2916 13 L 236.5595 12 L 234.8275 13 L 234.8275 15 L 236.5595 16 L 234.8275 17 L 234.8275 19 L 236.5595 20 L 238.2916 19 L 238.2916 21 L 240.0237 22 L 241.7557 21 L 241.7557 19 L 243.4878 20 L 245.2198 19 L 245.2198 21 L 246.9519 22 L 245.2198 23 L 245.2198 25 L 246.9519 26 L 248.6839 25 L 248.6839 27 L 250.416 28 L 248.6839 29 L 248.6839 31 L 246.9519 30 L 245.2198 31 L 245.2198 33 L 246.9519 34 L 245.2198 35 L 245.2198 37 L 243.4878 36 L 241.7557 37 L 241.7557 35 L 240.0237 34 L 238.2916 35 L 238.2916 37 L 236.5595 36 L 234.8275 37 L 234.8275 39 L 236.5595 40 L 234.8275 41 L 234.8275 43 L 236.5595 44 L 238.2916 43 L 238.2916 45 L 240.0237 46 L 238.2916 47 L 238.2916 49 L 236.5595 48 L 234.8275 49 L 234.8275 51 L 236.5595 52 L 234.8275 53 L 234.8275 55 L 236.5595 56 L 238.2916 55 L 238.2916 57 L 240.0237 58 L 241.7557 57 L 241.7557 55 L 243.4878 56 L 245.2198 55 L 245.2198 57 L 246.9519 58 L 245.2198 59 L 245.2198 61 L 246.9519 62 L 248.6839 61 L 248.6839 63 L 250.416 64 L 252.148 63 L 252.148 61 L 253.8801 62 L 255.6122 61 L 255.6122 59 L 253.8801 58 L 255.6122 57 L 255.6122 55 L 257.3442 56 L 259.0763 55 L 259.0763 57 L 260.8083 58 L 262.5404 57 L 262.5404 55 L 264.2724 56 L 266.0045 55 L 266.0045 57 L 267.7365 58 L 266.0045 59 L 266.0045 61 L 267.7365 62 L 269.4686 61 L 269.4686 63 L 271.2007 64 L 269.4686 65 L 269.4686 67 L 267.7365 66 L 266.0045 67 L 266.0045 69 L 267.7365 70 L 266.0045 71 L 266.0045 73 L 267.7365 74 L 269.4686 73 L 269.4686 75 L 271.2007 76 L 272.9327 75 L 272.9327 73 L 274.6648 74 L 276.3968 73 L 276.3968 75 L 278.1289 76 L 276.3968 77 L 276.3968 79 L 278.1289 80 L 279.8609 79 L 279.8609 81 L 281.593 82 L 283.325 81 L 283.325 79 L 285.0571 80 L 286.7892 79 L 286.7892 77 L 285.0571 76 L 286.7892 75 L 286.7892 73 L 288.5212 74 L 290.2533 73 L 290.2533 75 L 291.9853 76 L 293.7174 75 L 293.7174 73 L 295.4494 74 L 297.1815 73 L 297.1815 71 L 295.4494 70 L 297.1815 69 L 297.1815 67 L 295.4494 66 L 293.7174 67 L 293.7174 65 L 291.9853 64 L 293.7174 63 L 293.7174 61 L 295.4494 62 L 297.1815 61 L 297.1815 59 L 295.4494 58 L 297.1815 57 L 297.1815 55 L 298.9135 56 L 300.6456 55 L 300.6456 57 L 302.3777 58 L 304.1097 57 L 304.1097 55 L 305.8418 56 L 307.5738 55 L 307.5738 57 L 309.3059 58 L 307.5738 59 L 307.5738 61 L 309.3059 62 L 311.0379 61 L 311.0379 63 L 312.77 64 L 314.502 63 L 314.502 61 L 316.2341 62 L 317.9662 61 L 317.9662 59 L 316.2341 58 L 317.9662 57 L 317.9662 55 L 319.6982 56 L 321.4303 55 L 321.4303 57 L 323.1623 58 L 324.8944 57 L 324.8944 55 L 326.6264 56 L 328.3585 55 L 328.3585 53 L 326.6264 52 L 328.3585 51 L 328.3585 49 L 326.6264 48 L 324.8944 49 L 324.8944 47 L 323.1623 46 L 324.8944 45 L 324.8944 43 L 326.6264 44 L 328.3585 43 L 328.3585 41 L 326.6264 40 L 328.3585 39 L 328.3585 37 L 326.6264 36 L 324.8944 37 L 324.8944 35 L 323.1623 34 L 321.4303 35 L 321.4303 37 L 319.6982 36 L 317.9662 37 L 317.9662 35 L 316.2341 34 L 317.9662 33 L 317.9662 31 L 316.2341 30 L 314.502 31 L 314.502 29 L 312.77 28 L 314.502 27 L 314.502 25 L 316.2341 26 L 317.9662 25 L 317.9662 23 L 316.2341 22 L 317.9662 21 L 317.9662 19 L 319.6982 20 L 321.4303 19 L 321.4303 21 L 323.1623 22 L 324.8944 21 L 324.8944 19 L 326.6264 20 L 328.3585 19 L 328.3585 17 L 326.6264 16 L 328.3585 15 L 328.3585 13 L 326.6264 12 L 324.8944 13 L 324.8944 11 L 323.1623 10 L 324.8944 9 L 324.8944 7 L 326.6264 8 L 328.3585 7 L 328.3585 5 L 326.6264 4 L 328.3585 3 L 328.3585 1 L 330.0905 2 L 331.8226 1 L 331.8226 3 L 333.5547 4 L 335.2867 3 L 335.2867 1 L 337.0188 2 L 338.7508 1 L 338.7508 3 L 340.4829 4 L 338.7508 5 L 338.7508 7 L 340.4829 8 L 342.2149 7 L 342.2149 9 L 343.947 10 L 345.679 9 L 345.679 7 L 347.4111 8 L 349.1432 7 L 349.1432 5 L 347.4111 4 L 349.1432 3 L 349.1432 1 L 350.8752 2 L 352.6073 1 L 352.6073 3 L 354.3393 4 L 356.0714 3 L 356.0714 1 L 357.8034 2 L 359.5355 1 L 359.5355 3 L 361.2675 4 L 359.5355 5 L 359.5355 7 L 361.2675 8 L 362.9996 7 L 362.9996 9 L 364.7317 10 L 362.9996 11 L 362.9996 13 L 361.2675 12 L 359.5355 13 L 359.5355 15 L 361.2675 16 L 359.5355 17 L 359.5355 19 L 361.2675 20 L 362.9996 19 L 362.9996 21 L 364.7317 22 L 366.4637 21 L 366.4637 19 L 368.1958 20 L 369.9278 19 L 369.9278 21 L 371.6599 22 L 369.9278 23 L 369.9278 25 L 371.6599 26 L 373.3919 25 L 373.3919 27 L 375.124 28 L 376.856 27 L 376.856 25 L 378.5881 26 L 380.3202 25 L 380.3202 23 L 378.5881 22 L 380.3202 21 L 380.3202 19 L 382.0522 20 L 383.7843 19 L 383.7843 21 L 385.5163 22 L 387.2484 21 L 387.2484 19 L 388.9804 20 L 390.7125 19 L 390.7125 17 L 388.9804 16 L 390.7125 15 L 390.7125 13 L 388.9804 12 L 387.2484 13 L 387.2484 11 L 385.5163 10 L 387.2484 9 L 387.2484 7 L 388.9804 8 L 390.7125 7 L 390.7125 5 L 388.9804 4 L 390.7125 3 L 390.7125 1 L 392.4445 2 L 394.1766 1 L 394.1766 3 L 395.9087 4 L 397.6407 3 L 397.6407 1 L 399.3728 2 L 401.1048 1 L 401.1048 3 L 402.8369 4 L 401.1048 5 L 401.1048 7 L 402.8369 8 L 404.5689 7 L 404.5689 9 L 406.301 10 L 408.0331 9 L 408.0331 7 L 409.7651 8 L 411.4972 7 L 411.4972 5 L 409.7651 4 L 411.4972 3 L 411.4972 1 L 413.2292 2 L 414.9613 1 L 414.9613 3 L 416.6933 4 L 418.4254 3 L 418.4254 1 L 420.1574 2 L 421.8895 1 L 421.8895 3 L 423.6216 4 L 421.8895 5 L 421.8895 7 L 423.6216 8 L 425.3536 7 L 425.3536 9 L 427.0857 10 L 425.3536 11 L 425.3536 13 L 423.6216 12 L 421.8895 13 L 421.8895 15 L 423.6216 16 L 421.8895 17 L 421.8895 19 L 423.6216 20 L 425.3536 19 L 425.3536 21 L 427.0857 22 L 428.8177 21 L 428.8177 19 L 430.5498 20 L 432.2818 19 L 432.2818 21 L 434.0139 22 L 432.2818 23 L 432.2818 25 L 434.0139 26 L 435.7459 25 L 435.7459 27 L 437.478 28 L 435.7459 29 L 435.7459 31 L 434.0139 30 L 432.2818 31 L 432.2818 33 L 434.0139 34 L 432.2818 35 L 432.2818 37 L 430.5498 36 L 428.8177 37 L 428.8177 35 L 427.0857 34 L 425.3536 35 L 425.3536 37 L 423.6216 36 L 421.8895 37 L 421.8895 39 L 423.6216 40 L 421.8895 41 L 421.8895 43 L 423.6216 44 L 425.3536 43 L 425.3536 45 L 427.0857 46 L 425.3536 47 L 425.3536 49 L 423.6216 48 L 421.8895 49 L 421.8895 51 L 423.6216 52 L 421.8895 53 L 421.8895 55 L 423.6216 56 L 425.3536 55 L 425.3536 57 L 427.0857 58 L 428.8177 57 L 428.8177 55 L 430.5498 56 L 432.2818 55 L 432.2818 57 L 434.0139 58 L 432.2818 59 L 432.2818 61 L 434.0139 62 L 435.7459 61 L 435.7459 63 L 437.478 64 L 439.2101 63 L 439.2101 61 L 440.9421 62 L 442.6742 61 L 442.6742 59 L 440.9421 58 L 442.6742 57 L 442.6742 55 L 444.4062 56 L 446.1383 55 L 446.1383 57 L 447.8703 58 L 449.6024 57 L 449.6024 55 L 451.3344 56 L 453.0665 55 L 453.0665 57 L 454.7986 58 L 453.0665 59 L 453.0665 61 L 454.7986 62 L 456.5306 61 L 456.5306 63 L 458.2627 64 L 456.5306 65 L 456.5306 67 L 454.7986 66 L 453.0665 67 L 453.0665 69 L 454.7986 70 L 453.0665 71 L 453.0665 73 L 454.7986 74 L 456.5306 73 L 456.5306 75 L 458.2627 76 L 459.9947 75 L 459.9947 73 L 461.7268 74 L 463.4588 73 L 463.4588 75 L 465.1909 76 L 463.4588 77 L 463.4588 79 L 465.1909 80 L 466.9229 79 L 466.9229 81 L 468.655 82 L 466.9229 83 L 466.9229 85 L 465.1909 84 L 463.4588 85 L 463.4588 87 L 465.1909 88 L 463.4588 89 L 463.4588 91 L 461.7268 90 L 459.9947 91 L 459.9947 89 L 458.2627 88 L 456.5306 89 L 456.5306 91 L 454.7986 90 L 453.0665 91 L 453.0665 93 L 454.7986 94 L 453.0665 95 L 453.0665 97 L 454.7986 98 L 456.5306 97 L 456.5306 99 L 458.2627 100 L 456.5306 101 L 456.5306 103 L 454.7986 102 L 453.0665 103 L 453.0665 105 L 454.7986 106 L 453.0665 107 L 453.0665 109 L 451.3344 108 L 449.6024 109 L 449.6024 107 L 447.8703 106 L 446.1383 107 L 446.1383 109 L 444.4062 108 L 442.6742 109 L 442.6742 107 L 440.9421 106 L 442.6742 105 L 442.6742 103 L 440.9421 102 L 439.2101 103 L 439.2101 101 L 437.478 100 L 435.7459 101 L 435.7459 103 L 434.0139 102 L 432.2818 103 L 432.2818 105 L 434.0139 106 L 432.2818 107 L 432.2818 109 L 430.5498 108 L 428.8177 109 L 428.8177 107 L 427.0857 106 L 425.3536 107 L 425.3536 109 L 423.6216 108 L 421.8895 109 L 421.8895 111 L 423.6216 112 L 421.8895 113 L 421.8895 115 L 423.6216 116 L 425.3536 115 L 425.3536 117 L 427.0857 118 L 425.3536 119 L 425.3536 121 L 423.6216 120 L 421.8895 121 L 421.8895 123 L 423.6216 124 L 421.8895 125 L 421.8895 127 L 423.6216 128 L 425.3536 127 L 425.3536 129 L 427.0857 130 L 428.8177 129 L 428.8177 127 L 430.5498 128 L 432.2818 127 L 432.2818 129 L 434.0139 130 L 432.2818 131 L 432.2818 133 L 434.0139 134 L 435.7459 133 L 435.7459 135 L 437.478 136 L 435.7459 137 L 435.7459 139 L 434.0139 138 L 432.2818 139 L 432.2818 141 L 434.0139 142 L 432.2818 143 L 432.2818 145 L 430.5498 144 L 428.8177 145 L 428.8177 143 L 427.0857 142 L 425.3536 143 L 425.3536 145 L 423.6216 144 L 421.8895 145 L 421.8895 147 L 423.6216 148 L 421.8895 149 L 421.8895 151 L 423.6216 152 L 425.3536 151 L 425.3536 153 L 427.0857 154 L 425.3536 155 L 425.3536 157 L 423.6216 156 L 421.8895 157 L 421.8895 159 L 423.6216 160 L 421.8895 161 L 421.8895 163 L 423.6216 164 L 425.3536 163 L 425.3536 165 L 427.0857 166 L 428.8177 165 L 428.8177 163 L 430.5498 164 L 432.2818 163 L 432.2818 165 L 434.0139 166 L 432.2818 167 L 432.2818 169 L 434.0139 170 L 435.7459 169 L 435.7459 171 L 437.478 172 L 439.2101 171 L 439.2101 169 L 440.9421 170 L 442.6742 169 L 442.6742 167 L 440.9421 166 L 442.6742 165 L 442.6742 163 L 444.4062 164 L 446.1383 163 L 446.1383 165 L 447.8703 166 L 449.6024 165 L 449.6024 163 L 451.3344 164 L 453.0665 163 L 453.0665 165 L 454.7986 166 L 453.0665 167 L 453.0665 169 L 454.7986 170 L 456.5306 169 L 456.5306 171 L 458.2627 172 L 456.5306 173 L 456.5306 175 L 454.7986 174 L 453.0665 175 L 453.0665 177 L 454.7986 178 L 453.0665 179 L 453.0665 181 L 454.7986 182 L 456.5306 181 L 456.5306 183 L 458.2627 184 L 459.9947 183 L 459.9947 181 L 461.7268 182 L 463.4588 181 L 463.4588 183 L 465.1909 184 L 463.4588 185 L 463.4588 187 L 465.1909 188 L 466.9229 187 L 466.9229 189 L 468.655 190 L 470.3871 189 L 470.3871 187 L 472.1191 188 L 473.8512 187 L 473.8512 185 L 472.1191 184 L 473.8512 183 L 473.8512 181 L 475.5832 182 L 477.3153 181 L 477.3153 183 L 479.0473 184 L 480.7794 183 L 480.7794 181 L 482.5114 182 L 484.2435 181 L 484.2435 179 L 482.5114 178 L 484.2435 177 L 484.2435 175 L 482.5114 174 L 480.7794 175 L 480.7794 173 L 479.0473 172 L 480.7794 171 L 480.7794 169 L 482.5114 170 L 484.2435 169 L 484.2435 167 L 482.5114 166 L 484.2435 165 L 484.2435 163 L 485.9756 164 L 487.7076 163 L 487.7076 165 L 489.4397 166 L 491.1717 165 L 491.1717 163 L 492.9038 164 L 494.6358 163 L 494.6358 165 L 496.3679 166 L 494.6358 167 L 494.6358 169 L 496.3679 170 L 498.0999 169 L 498.0999 171 L 499.832 172 L 501.5641 171 L 501.5641 169 L 503.2961 170 L 505.0282 169 L 505.0282 167 L 503.2961 166 L 505.0282 165 L 505.0282 163 L 506.7602 164 L 508.4923 163 L 508.4923 165 L 510.2243 166 L 511.9564 165 L 511.9564 163 L 513.6885 164 L 515.4205 163 L 515.4205 165 L 517.1526 166 L 515.4205 167 L 515.4205 169 L 517.1526 170 L 518.8846 169 L 518.8846 171 L 520.6167 172 L 518.8846 173 L 518.8846 175 L 517.1526 174 L 515.4205 175 L 515.4205 177 L 517.1526 178 L 515.4205 179 L 515.4205 181 L 517.1526 182 L 518.8846 181 L 518.8846 183 L 520.6167 184 L 522.3488 183 L 522.3488 181 L 524.0808 182 L 525.8129 181 L 525.8129 183 L 527.5449 184 L 525.8129 185 L 525.8129 187 L 527.5449 188 L 529.277 187 L 529.277 189 L 531.009 190 L 529.277 191 L 529.277 193 L 527.5449 192 L 525.8129 193 L 525.8129 195 L 527.5449 196 L 525.8129 197 L 525.8129 199 L 524.0808 198 L 522.3488 199 L 522.3488 197 L 520.6167 196 L 518.8846 197 L 518.8846 199 L 517.1526 198 L 515.4205 199 L 515.4205 201 L 517.1526 202 L 515.4205 203 L 515.4205 205 L 517.1526 206 L 518.8846 205 L 518.8846 207 L 520.6167 208 L 518.8846 209 L 518.8846 211 L 517.1526 210 L 515.4205 211 L 515.4205 213 L 517.1526 214 L 515.4205 215 L 515.4205 217 L 517.1526 218 L 518.8846 217 L 518.8846 219 L 520.6167 220 L 522.3488 219 L 522.3488 217 L 524.0808 218 L 525.8129 217 L 525.8129 219 L 527.5449 220 L 525.8129 221 L 525.8129 223 L 527.5449 224 L 529.277 223 L 529.277 225 L 531.009 226 L 532.7411 225 L 532.7411 223 L 534.4731 224 L 536.2052 223 L 536.2052 221 L 534.4731 220 L 536.2052 219 L 536.2052 217 L 537.9373 218 L 539.6693 217 L 539.6693 219 L 541.4014 220 L 543.1334 219 L 543.1334 217 L 544.8655 218 L 546.5975 217 L 546.5975 219 L 548.3296 220 L 546.5975 221 L 546.5975 223 L 548.3296 224 L 550.0616 223 L 550.0616 225 L 551.7937 226 L 550.0616 227 L 550.0616 229 L 548.3296 228 L 546.5975 229 L 546.5975 231 L 548.3296 232 L 546.5975 233 L 546.5975 235 L 548.3296 236 L 550.0616 235 L 550.0616 237 L 551.7937 238 L 553.5258 237 L 553.5258 235 L 555.2578 236 L 556.9899 235 L 556.9899 237 L 558.7219 238 L 556.9899 239 L 556.9899 241 L 558.7219 242 L 560.454 241 L 560.454 243 L 562.186 244 L 560.454 245 L 560.454 247 L 558.7219 246 L 556.9899 247 L 556.9899 249 L 558.7219 250 L 556.9899 251 L 556.9899 253 L 555.2578 252 L 553.5258 253 L 553.5258 251 L 551.7937 250 L 550.0616 251 L 550.0616 253 L 548.3296 252 L 546.5975 253 L 546.5975 255 L 548.3296 256 L 546.5975 257 L 546.5975 259 L 548.3296 260 L 550.0616 259 L 550.0616 261 L 551.7937 262 L 550.0616 263 L 550.0616 265 L 548.3296 264 L 546.5975 265 L 546.5975 267 L 548.3296 268 L 546.5975 269 L 546.5975 271 L 544.8655 270 L 543.1334 271 L 543.1334 269 L 541.4014 268 L 539.6693 269 L 539.6693 271 L 537.9373 270 L 536.2052 271 L 536.2052 269 L 534.4731 268 L 536.2052 267 L 536.2052 265 L 534.4731 264 L 532.7411 265 L 532.7411 263 L 531.009 262 L 529.277 263 L 529.277 265 L 527.5449 264 L 525.8129 265 L 525.8129 267 L 527.5449 268 L 525.8129 269 L 525.8129 271 L 524.0808 270 L 522.3488 271 L 522.3488 269 L 520.6167 268 L 518.8846 269 L 518.8846 271 L 517.1526 270 L 515.4205 271 L 515.4205 273 L 517.1526 274 L 515.4205 275 L 515.4205 277 L 517.1526 278 L 518.8846 277 L 518.8846 279 L 520.6167 280 L 518.8846 281 L 518.8846 283 L 517.1526 282 L 515.4205 283 L 515.4205 285 L 517.1526 286 L 515.4205 287 L 515.4205 289 L 517.1526 290 L 518.8846 289 L 518.8846 291 L 520.6167 292 L 522.3488 291 L 522.3488 289 L 524.0808 290 L 525.8129 289 L 525.8129 291 L 527.5449 292 L 525.8129 293 L 525.8129 295 L 527.5449 296 L 529.277 295 L 529.277 297 L 531.009 298 L 529.277 299 L 529.277 301 L 527.5449 300 L 525.8129 301 L 525.8129 303 L 527.5449 304 L 525.8129 305 L 525.8129 307 L 524.0808 306 L 522.3488 307 L 522.3488 305 L 520.6167 304 L 518.8846 305 L 518.8846 307 L 517.1526 306 L 515.4205 307 L 515.4205 309 L 517.1526 310 L 515.4205 311 L 515.4205 313 L 517.1526 314 L 518.8846 313 L 518.8846 315 L 520.6167 316 L 518.8846 317 L 518.8846 319 L 517.1526 318 L 515.4205 319 L 515.4205 321 L 517.1526 322 L 515.4205 323 L 515.4205 325 L 513.6885 324 L 511.9564 325 L 511.9564 323 L 510.2243 322 L 508.4923 323 L 508.4923 325 L 506.7602 324 L 505.0282 325 L 505.0282 323 L 503.2961 322 L 505.0282 321 L 505.0282 319 L 503.2961 318 L 501.5641 319 L 501.5641 317 L 499.832 316 L 498.0999 317 L 498.0999 319 L 496.3679 318 L 494.6358 319 L 494.6358 321 L 496.3679 322 L 494.6358 323 L 494.6358 325 L 492.9038 324 L 491.1717 325 L 491.1717 323 L 489.4397 322 L 487.7076 323 L 487.7076 325 L 485.9756 324 L 484.2435 325 L 484.2435 323 L 482.5114 322 L 484.2435 321 L 484.2435 319 L 482.5114 318 L 480.7794 319 L 480.7794 317 L 479.0473 316 L 480.7794 315 L 480.7794 313 L 482.5114 314 L 484.2435 313 L 484.2435 311 L 482.5114 310 L 484.2435 309 L 484.2435 307 L 482.5114 306 L 480.7794 307 L 480.7794 305 L 479.0473 304 L 477.3153 305 L 477.3153 307 L 475.5832 306 L 473.8512 307 L 473.8512 305 L 472.1191 304 L 473.8512 303 L 473.8512 301 L 472.1191 300 L 470.3871 301 L 470.3871 299 L 468.655 298 L 466.9229 299 L 466.9229 301 L 465.1909 300 L 463.4588 301 L 463.4588 303 L 465.1909 304 L 463.4588 305 L 463.4588 307 L 461.7268 306 L 459.9947 307 L 459.9947 305 L 458.2627 304 L 456.5306 305 L 456.5306 307 L 454.7986 306 L 453.0665 307 L 453.0665 309 L 454.7986 310 L 453.0665 311 L 453.0665 313 L 454.7986 314 L 456.5306 313 L 456.5306 315 L 458.2627 316 L 456.5306 317 L 456.5306 319 L 454.7986 318 L 453.0665 319 L 453.0665 321 L 454.7986 322 L 453.0665 323 L 453.0665 325 L 451.3344 324 L 449.6024 325 L 449.6024 323 L 447.8703 322 L 446.1383 323 L 446.1383 325 L 444.4062 324 L 442.6742 325 L 442.6742 323 L 440.9421 322 L 442.6742 321 L 442.6742 319 L 440.9421 318 L 439.2101 319 L 439.2101 317 L 437.478 316 L 435.7459 317 L 435.7459 319 L 434.0139 318 L 432.2818 319 L 432.2818 321 L 434.0139 322 L 432.2818 323 L 432.2818 325 L 430.5498 324 L 428.8177 325 L 428.8177 323 L 427.0857 322 L 425.3536 323 L 425.3536 325 L 423.6216 324 L 421.8895 325 L 421.8895 327 L 423.6216 328 L 421.8895 329 L 421.8895 331 L 423.6216 332 L 425.3536 331 L 425.3536 333 L 427.0857 334 L 425.3536 335 L 425.3536 337 L 423.6216 336 L 421.8895 337 L 421.8895 339 L 423.6216 340 L 421.8895 341 L 421.8895 343 L 423.6216 344 L 425.3536 343 L 425.3536 345 L 427.0857 346 L 428.8177 345 L 428.8177 343 L 430.5498 344 L 432.2818 343 L 432.2818 345 L 434.0139 346 L 432.2818 347 L 432.2818 349 L 434.0139 350 L 435.7459 349 L 435.7459 351 L 437.478 352 L 435.7459 353 L 435.7459 355 L 434.0139 354 L 432.2818 355 L 432.2818 357 L 434.0139 358 L 432.2818 359 L 432.2818 361 L 430.5498 360 L 428.8177 361 L 428.8177 359 L 427.0857 358 L 425.3536 359 L 425.3536 361 L 423.6216 360 L 421.8895 361 L 421.8895 363 L 423.6216 364 L 421.8895 365 L 421.8895 367 L 423.6216 368 L 425.3536 367 L 425.3536 369 L 427.0857 370 L 425.3536 371 L 425.3536 373 L 423.6216 372 L 421.8895 373 L 421.8895 375.0001 L 423.6216 376.0001 L 421.8895 377.0001 L 421.8895 379.0001 L 423.6216 380.0001 L 425.3536 379.0001 L 425.3536 381.0001 L 427.0857 382.0001 L 428.8177 381.0001 L 428.8177 379.0001 L 430.5498 380.0001 L 432.2818 379.0001 L 432.2818 381.0001 L 434.0139 382.0001 L 432.2818 383.0001 L 432.2818 385.0001 L 434.0139 386.0001 L 435.7459 385.0001 L 435.7459 387.0001 L 437.478 388.0001 L 439.2101 387.0001 L 439.2101 385.0001 L 440.9421 386.0001 L 442.6742 385.0001 L 442.6742 383.0001 L 440.9421 382.0001 L 442.6742 381.0001 L 442.6742 379.0001 L 444.4062 380.0001 L 446.1383 379.0001 L 446.1383 381.0001 L 447.8703 382.0001 L 449.6024 381.0001 L 449.6024 379.0001 L 451.3344 380.0001 L 453.0665 379.0001 L 453.0665 381.0001 L 454.7986 382.0001 L 453.0665 383.0001 L 453.0665 385.0001 L 454.7986 386.0001 L 456.5306 385.0001 L 456.5306 387.0001 L 458.2627 388.0001 L 456.5306 389.0001 L 456.5306 391.0001 L 454.7986 390.0001 L 453.0665 391.0001 L 453.0665 393.0001 L 454.7986 394.0001 L 453.0665 395.0001 L 453.0665 397.0001 L 454.7986 398.0001 L 456.5306 397.0001 L 456.5306 399.0001 L 458.2627 400.0001 L 459.9947 399.0001 L 459.9947 397.0001 L 461.7268 398.0001 L 463.4588 397.0001 L 463.4588 399.0001 L 465.1909 400.0001 L 463.4588 401.0001 L 463.4588 403.0001 L 465.1909 404.0001 L 466.9229 403.0001 L 466.9229 405.0001 L 468.655 406.0001 L 466.9229 407.0001 L 466.9229 409.0001 L 465.1909 408.0001 L 463.4588 409.0001 L 463.4588 411.0001 L 465.1909 412.0001 L 463.4588 413.0001 L 463.4588 415.0001 L 461.7268 414.0001 L 459.9947 415.0001 L 459.9947 413.0001 L 458.2627 412.0001 L 456.5306 413.0001 L 456.5306 415.0001 L 454.7986 414.0001 L 453.0665 415.0001 L 453.0665 417.0002 L 454.7986 418.0002 L 453.0665 419.0002 L 453.0665 421.0002 L 454.7986 422.0002 L 456.5306 421.0002 L 456.5306 423.0002 L 458.2627 424.0002 L 456.5306 425.0002 L 456.5306 427.0002 L 454.7986 426.0002 L 453.0665 427.0002 L 453.0665 429.0002 L 454.7986 430.0002 L 453.0665 431.0002 L 453.0665 433.0002 L 451.3344 432.0002 L 449.6024 433.0002 L 449.6024 431.0002 L 447.8703 430.0002 L 446.1383 431.0002 L 446.1383 433.0002 L 444.4062 432.0002 L 442.6742 433.0002 L 442.6742 431.0002 L 440.9421 430.0002 L 442.6742 429.0002 L 442.6742 427.0002 L 440.9421 426.0002 L 439.2101 427.0002 L 439.2101 425.0002 L 437.478 424.0002 L 435.7459 425.0002 L 435.7459 427.0002 L 434.0139 426.0002 L 432.2818 427.0002 L 432.2818 429.0002 L 434.0139 430.0002 L 432.2818 431.0002 L 432.2818 433.0002 L 430.5498 432.0002 L 428.8177 433.0002 L 428.8177 431.0002 L 427.0857 430.0002 L 425.3536 431.0002 L 425.3536 433.0002 L 423.6216 432.0002 L 421.8895 433.0002 L 421.8895 435.0002 L 423.6216 436.0002 L 421.8895 437.0002 L 421.8895 439.0002 L 423.6216 440.0002 L 425.3536 439.0002 L 425.3536 441.0002 L 427.0857 442.0002 L 425.3536 443.0002 L 425.3536 445.0002 L 423.6216 444.0002 L 421.8895 445.0002 L 421.8895 447.0002 L 423.6216 448.0002 L 421.8895 449.0002 L 421.8895 451.0002 L 423.6216 452.0002 L 425.3536 451.0002 L 425.3536 453.0002 L 427.0857 454.0002 L 428.8177 453.0002 L 428.8177 451.0002 L 430.5498 452.0002 L 432.2818 451.0002 L 432.2818 453.0002 L 434.0139 454.0002 L 432.2818 455.0002 L 432.2818 457.0002 L 434.0139 458.0002 L 435.7459 457.0002 L 435.7459 459.0003 L 437.478 460.0003 L 435.7459 461.0003 L 435.7459 463.0003 L 434.0139 462.0003 L 432.2818 463.0003 L 432.2818 465.0003 L 434.0139 466.0003 L 432.2818 467.0003 L 432.2818 469.0003 L 430.5498 468.0003 L 428.8177 469.0003 L 428.8177 467.0003 L 427.0857 466.0003 L 425.3536 467.0003 L 425.3536 469.0003 L 423.6216 468.0003 L 421.8895 469.0003 L 421.8895 471.0003 L 423.6216 472.0003 L 421.8895 473.0003 L 421.8895 475.0003 L 423.6216 476.0003 L 425.3536 475.0003 L 425.3536 477.0003 L 427.0857 478.0003 L 425.3536 479.0003 L 425.3536 481.0003 L 423.6216 480.0003 L 421.8895 481.0003 L 421.8895 483.0003 L 423.6216 484.0003 L 421.8895 485.0003 L 421.8895 487.0003 L 420.1574 486.0003 L 418.4254 487.0003 L 418.4254 485.0003 L 416.6933 484.0003 L 414.9613 485.0003 L 414.9613 487.0003 L 413.2292 486.0003 L 411.4972 487.0003 L 411.4972 485.0003 L 409.7651 484.0003 L 411.4972 483.0003 L 411.4972 481.0003 L 409.7651 480.0003 L 408.0331 481.0003 L 408.0331 479.0003 L 406.301 478.0003 L 404.5689 479.0003 L 404.5689 481.0003 L 402.8369 480.0003 L 401.1048 481.0003 L 401.1048 483.0003 L 402.8369 484.0003 L 401.1048 485.0003 L 401.1048 487.0003 L 399.3728 486.0003 L 397.6407 487.0003 L 397.6407 485.0003 L 395.9087 484.0003 L 394.1766 485.0003 L 394.1766 487.0003 L 392.4445 486.0003 L 390.7125 487.0003 L 390.7125 485.0003 L 388.9804 484.0003 L 390.7125 483.0003 L 390.7125 481.0003 L 388.9804 480.0003 L 387.2484 481.0003 L 387.2484 479.0003 L 385.5163 478.0003 L 387.2484 477.0003 L 387.2484 475.0003 L 388.9804 476.0003 L 390.7125 475.0003 L 390.7125 473.0003 L 388.9804 472.0003 L 390.7125 471.0003 L 390.7125 469.0003 L 388.9804 468.0003 L 387.2484 469.0003 L 387.2484 467.0003 L 385.5163 466.0003 L 383.7843 467.0003 L 383.7843 469.0003 L 382.0522 468.0003 L 380.3202 469.0003 L 380.3202 467.0003 L 378.5881 466.0003 L 380.3202 465.0003 L 380.3202 463.0003 L 378.5881 462.0003 L 376.856 463.0003 L 376.856 461.0003 L 375.124 460.0003 L 373.3919 461.0003 L 373.3919 463.0003 L 371.6599 462.0003 L 369.9278 463.0003 L 369.9278 465.0003 L 371.6599 466.0003 L 369.9278 467.0003 L 369.9278 469.0003 L 368.1958 468.0003 L 366.4637 469.0003 L 366.4637 467.0003 L 364.7317 466.0003 L 362.9996 467.0003 L 362.9996 469.0003 L 361.2675 468.0003 L 359.5355 469.0003 L 359.5355 471.0003 L 361.2675 472.0003 L 359.5355 473.0003 L 359.5355 475.0003 L 361.2675 476.0003 L 362.9996 475.0003 L 362.9996 477.0003 L 364.7317 478.0003 L 362.9996 479.0003 L 362.9996 481.0003 L 361.2675 480.0003 L 359.5355 481.0003 L 359.5355 483.0003 L 361.2675 484.0003 L 359.5355 485.0003 L 359.5355 487.0003 L 357.8034 486.0003 L 356.0714 487.0003 L 356.0714 485.0003 L 354.3393 484.0003 L 352.6073 485.0003 L 352.6073 487.0003 L 350.8752 486.0003 L 349.1432 487.0003 L 349.1432 485.0003 L 347.4111 484.0003 L 349.1432 483.0003 L 349.1432 481.0003 L 347.4111 480.0003 L 345.679 481.0003 L 345.679 479.0003 L 343.947 478.0003 L 342.2149 479.0003 L 342.2149 481.0003 L 340.4829 480.0003 L 338.7508 481.0003 L 338.7508 483.0003 L 340.4829 484.0003 L 338.7508 485.0003 L 338.7508 487.0003 L 337.0188 486.0003 L 335.2867 487.0003 L 335.2867 485.0003 L 333.5547 484.0003 L 331.8226 485.0003 L 331.8226 487.0003 L 330.0905 486.0003 L 328.3585 487.0003 L 328.3585 485.0003 L 326.6264 484.0003 L 328.3585 483.0003 L 328.3585 481.0003 L 326.6264 480.0003 L 324.8944 481.0003 L 324.8944 479.0003 L 323.1623 478.0003 L 324.8944 477.0003 L 324.8944 475.0003 L 326.6264 476.0003 L 328.3585 475.0003 L 328.3585 473.0003 L 326.6264 472.0003 L 328.3585 471.0003 L 328.3585 469.0003 L 326.6264 468.0003 L 324.8944 469.0003 L 324.8944 467.0003 L 323.1623 466.0003 L 321.4303 467.0003 L 321.4303 469.0003 L 319.6982 468.0003 L 317.9662 469.0003 L 317.9662 467.0003 L 316.2341 466.0003 L 317.9662 465.0003 L 317.9662 463.0003 L 316.2341 462.0003 L 314.502 463.0003 L 314.502 461.0003 L 312.77 460.0003 L 314.502 459.0003 L 314.502 457.0002 L 316.2341 458.0002 L 317.9662 457.0002 L 317.9662 455.0002 L 316.2341 454.0002 L 317.9662 453.0002 L 317.9662 451.0002 L 319.6982 452.0002 L 321.4303 451.0002 L 321.4303 453.0002 L 323.1623 454.0002 L 324.8944 453.0002 L 324.8944 451.0002 L 326.6264 452.0002 L 328.3585 451.0002 L 328.3585 449.0002 L 326.6264 448.0002 L 328.3585 447.0002 L 328.3585 445.0002 L 326.6264 444.0002 L 324.8944 445.0002 L 324.8944 443.0002 L 323.1623 442.0002 L 324.8944 441.0002 L 324.8944 439.0002 L 326.6264 440.0002 L 328.3585 439.0002 L 328.3585 437.0002 L 326.6264 436.0002 L 328.3585 435.0002 L 328.3585 433.0002 L 326.6264 432.0002 L 324.8944 433.0002 L 324.8944 431.0002 L 323.1623 430.0002 L 321.4303 431.0002 L 321.4303 433.0002 L 319.6982 432.0002 L 317.9662 433.0002 L 317.9662 431.0002 L 316.2341 430.0002 L 317.9662 429.0002 L 317.9662 427.0002 L 316.2341 426.0002 L 314.502 427.0002 L 314.502 425.0002 L 312.77 424.0002 L 311.0379 425.0002 L 311.0379 427.0002 L 309.3059 426.0002 L 307.5738 427.0002 L 307.5738 429.0002 L 309.3059 430.0002 L 307.5738 431.0002 L 307.5738 433.0002 L 305.8418 432.0002 L 304.1097 433.0002 L 304.1097 431.0002 L 302.3777 430.0002 L 300.6456 431.0002 L 300.6456 433.0002 L 298.9135 432.0002 L 297.1815 433.0002 L 297.1815 431.0002 L 295.4494 430.0002 L 297.1815 429.0002 L 297.1815 427.0002 L 295.4494 426.0002 L 293.7174 427.0002 L 293.7174 425.0002 L 291.9853 424.0002 L 293.7174 423.0002 L 293.7174 421.0002 L 295.4494 422.0002 L 297.1815 421.0002 L 297.1815 419.0002 L 295.4494 418.0002 L 297.1815 417.0002 L 297.1815 415.0001 L 295.4494 414.0001 L 293.7174 415.0001 L 293.7174 413.0001 L 291.9853 412.0001 L 290.2533 413.0001 L 290.2533 415.0001 L 288.5212 414.0001 L 286.7892 415.0001 L 286.7892 413.0001 L 285.0571 412.0001 L 286.7892 411.0001 L 286.7892 409.0001 L 285.0571 408.0001 L 283.325 409.0001 L 283.325 407.0001 L 281.593 406.0001 L 279.8609 407.0001 L 279.8609 409.0001 L 278.1289 408.0001 L 276.3968 409.0001 L 276.3968 411.0001 L 278.1289 412.0001 L 276.3968 413.0001 L 276.3968 415.0001 L 274.6648 414.0001 L 272.9327 415.0001 L 272.9327 413.0001 L 271.2007 412.0001 L 269.4686 413.0001 L 269.4686 415.0001 L 267.7365 414.0001 L 266.0045 415.0001 L 266.0045 417.0002 L 267.7365 418.0002 L 266.0045 419.0002 L 266.0045 421.0002 L 267.7365 422.0002 L 269.4686 421.0002 L 269.4686 423.0002 L 271.2007 424.0002 L 269.4686 425.0002 L 269.4686 427.0002 L 267.7365 426.0002 L 266.0045 427.0002 L 266.0045 429.0002 L 267.7365 430.0002 L 266.0045 431.0002 L 266.0045 433.0002 L 264.2724 432.0002 L 262.5404 433.0002 L 262.5404 431.0002 L 260.8083 430.0002 L 259.0763 431.0002 L 259.0763 433.0002 L 257.3442 432.0002 L 255.6122 433.0002 L 255.6122 431.0002 L 253.8801 430.0002 L 255.6122 429.0002 L 255.6122 427.0002 L 253.8801 426.0002 L 252.148 427.0002 L 252.148 425.0002 L 250.416 424.0002 L 248.6839 425.0002 L 248.6839 427.0002 L 246.9519 426.0002 L 245.2198 427.0002 L 245.2198 429.0002 L 246.9519 430.0002 L 245.2198 431.0002 L 245.2198 433.0002 L 243.4878 432.0002 L 241.7557 433.0002 L 241.7557 431.0002 L 240.0237 430.0002 L 238.2916 431.0002 L 238.2916 433.0002 L 236.5595 432.0002 L 234.8275 433.0002 L 234.8275 435.0002 L 236.5595 436.0002 L 234.8275 437.0002 L 234.8275 439.0002 L 236.5595 440.0002 L 238.2916 439.0002 L 238.2916 441.0002 L 240.0237 442.0002 L 238.2916 443.0002 L 238.2916 445.0002 L 236.5595 444.0002 L 234.8275 445.0002 L 234.8275 447.0002 L 236.5595 448.0002 L 234.8275 449.0002 L 234.8275 451.0002 L 236.5595 452.0002 L 238.2916 451.0002 L 238.2916 453.0002 L 240.0237 454.0002 L 241.7557 453.0002 L 241.7557 451.0002 L 243.4878 452.0002 L 245.2198 451.0002 L 245.2198 453.0002 L 246.9519 454.0002 L 245.2198 455.0002 L 245.2198 457.0002 L 246.9519 458.0002 L 248.6839 457.0002 L 248.6839 459.0003 L 250.416 460.0003 L 248.6839 461.0003 L 248.6839 463.0003 L 246.9519 462.0003 L 245.2198 463.0003 L 245.2198 465.0003 L 246.9519 466.0003 L 245.2198 467.0003 L 245.2198 469.0003 L 243.4878 468.0003 L 241.7557 469.0003 L 241.7557 467.0003 L 240.0237 466.0003 L 238.2916 467.0003 L 238.2916 469.0003 L 236.5595 468.0003 L 234.8275 469.0003 L 234.8275 471.0003 L 236.5595 472.0003 L 234.8275 473.0003 L 234.8275 475.0003 L 236.5595 476.0003 L 238.2916 475.0003 L 238.2916 477.0003 L 240.0237 478.0003 L 238.2916 479.0003 L 238.2916 481.0003 L 236.5595 480.0003 L 234.8275 481.0003 L 234.8275 483.0003 L 236.5595 484.0003 L 234.8275 485.0003 L 234.8275 487.0003 L 233.0954 486.0003 L 231.3634 487.0003 L 231.3634 485.0003 L 229.6313 484.0003 L 227.8993 485.0003 L 227.8993 487.0003 L 226.1672 486.0003 L 224.4352 487.0003 L 224.4352 485.0003 L 222.7031 484.0003 L 224.4352 483.0003 L 224.4352 481.0003 L 222.7031 480.0003 L 220.971 481.0003 L 220.971 479.0003 L 219.239 478.0003 L 217.5069 479.0003 L 217.5069 481.0003 L 215.7749 480.0003 L 214.0428 481.0003 L 214.0428 483.0003 L 215.7749 484.0003 L 214.0428 485.0003 L 214.0428 487.0003 L 212.3108 486.0003 L 210.5787 487.0003 L 210.5787 485.0003 L 208.8466 484.0003 L 207.1146 485.0003 L 207.1146 487.0003 L 205.3825 486.0003 L 203.6505 487.0003 L 203.6505 485.0003 L 201.9184 484.0003 L 203.6505 483.0003 L 203.6505 481.0003 L 201.9184 480.0003 L 200.1864 481.0003 L 200.1864 479.0003 L 198.4543 478.0003 L 200.1864 477.0003 L 200.1864 475.0003 L 201.9184 476.0003 L 203.6505 475.0003 L 203.6505 473.0003 L 201.9184 472.0003 L 203.6505 471.0003 L 203.6505 469.0003 L 201.9184 468.0003 L 200.1864 469.0003 L 200.1864 467.0003 L 198.4543 466.0003 L 196.7223 467.0003 L 196.7223 469.0003 L 194.9902 468.0003 L 193.2581 469.0003 L 193.2581 467.0003 L 191.5261 466.0003 L 193.2581 465.0003 L 193.2581 463.0003 L 191.5261 462.0003 L 189.794 463.0003 L 189.794 461.0003 L 188.062 460.0003 L 186.3299 461.0003 L 186.3299 463.0003 L 184.5979 462.0003 L 182.8658 463.0003 L 182.8658 465.0003 L 184.5979 466.0003 L 182.8658 467.0003 L 182.8658 469.0003 L 181.1338 468.0003 L 179.4017 469.0003 L 179.4017 467.0003 L 177.6696 466.0003 L 175.9376 467.0003 L 175.9376 469.0003 L 174.2055 468.0003 L 172.4735 469.0003 L 172.4735 471.0003 L 174.2055 472.0003 L 172.4735 473.0003 L 172.4735 475.0003 L 174.2055 476.0003 L 175.9376 475.0003 L 175.9376 477.0003 L 177.6696 478.0003 L 175.9376 479.0003 L 175.9376 481.0003 L 174.2055 480.0003 L 172.4735 481.0003 L 172.4735 483.0003 L 174.2055 484.0003 L 172.4735 485.0003 L 172.4735 487.0003 L 170.7414 486.0003 L 169.0094 487.0003 L 169.0094 485.0003 L 167.2773 484.0003 L 165.5453 485.0003 L 165.5453 487.0003 L 163.8132 486.0003 L 162.0811 487.0003 L 162.0811 485.0003 L 160.3491 484.0003 L 162.0811 483.0003 L 162.0811 481.0003 L 160.3491 480.0003 L 158.617 481.0003 L 158.617 479.0003 L 156.885 478.0003 L 155.1529 479.0003 L 155.1529 481.0003 L 153.4209 480.0003 L 151.6888 481.0003 L 151.6888 483.0003 L 153.4209 484.0003 L 151.6888 485.0003 L 151.6888 487.0003 L 149.9568 486.0003 L 148.2247 487.0003 L 148.2247 485.0003 L 146.4926 484.0003 L 144.7606 485.0003 L 144.7606 487.0003 L 143.0285 486.0003 L 141.2965 487.0003 " />
  </g>
</svg>
