<?xml version="1.0" encoding="UTF-8" standalone="no"?>
<!DOCTYPE svg PUBLIC "-//W3C//DTD SVG 1.1//EN"
    "http://www.w3.org/Graphics/SVG/1.1/DTD/svg11.dtd">
<svg xmlns="http://www.w3.org/2000/svg" width="488" height="242">
  <desc>kochTri LSystem</desc>
  <g stroke="black" fill="none" stroke-width="1">
    <path d="M 1 241 L 7 241 L 7 235 L 13 235 L 13 241 L 19 241 L 19 235 L 13 235 L 13 229 L 19 229 L 19 223 L 25 223 L 25 217 L 31 217 L 31 223 L 37 223 L 37 229 L 43 229 L 43 235 L 37 235 L 37 241 L 43 241 L 43 235 L 49 235 L 49 241 L 55 241 L 55 235 L 49 235 L 49 229 L 55 229 L 55 223 L 49 223 L 49 229 L 43 229 L 43 223 L 37 223 L 37 217 L 31 217 L 31 211 L 37 211 L 37 205 L 43 205 L 43 199 L 49 199 L 49 205 L 55 205 L 55 199 L 49 199 L 49 193 L 55 193 L 55 187 L 61 187 L 61 181 L 67 181 L 67 187 L 73 187 L 73 181 L 67 181 L 67 175 L 73 175 L 73 169 L 79 169 L 79 163 L 85 163 L 85 169 L 91 169 L 91 175 L 97 175 L 97 181 L 91 181 L 91 187 L 97 187 L 97 181 L 103 181 L 103 187 L 109 187 L 109 193 L 115 193 L 115 199 L 109 199 L 109 205 L 115 205 L 115 199 L 121 199 L 121 205 L 127 205 L 127 211 L 133 211 L 133 217 L 127 217 L 127 223 L 121 223 L 121 229 L 115 229 L 115 223 L 109 223 L 109 229 L 115 229 L 115 235 L 109 235 L 109 241 L 115 241 L 115 235 L 121 235 L 121 241 L 127 241 L 127 235 L 121 235 L 121 229 L 127 229 L 127 223 L 133 223 L 133 217 L 139 217 L 139 223 L 145 223 L 145 229 L 151 229 L 151 235 L 145 235 L 145 241 L 151 241 L 151 235 L 157 235 L 157 241 L 163 241 L 163 235 L 157 235 L 157 229 L 163 229 L 163 223 L 157 223 L 157 229 L 151 229 L 151 223 L 145 223 L 145 217 L 139 217 L 139 211 L 145 211 L 145 205 L 151 205 L 151 199 L 157 199 L 157 205 L 163 205 L 163 199 L 157 199 L 157 193 L 163 193 L 163 187 L 157 187 L 157 193 L 151 193 L 151 187 L 145 187 L 145 193 L 151 193 L 151 199 L 145 199 L 145 205 L 139 205 L 139 211 L 133 211 L 133 205 L 127 205 L 127 199 L 121 199 L 121 193 L 127 193 L 127 187 L 121 187 L 121 193 L 115 193 L 115 187 L 109 187 L 109 181 L 103 181 L 103 175 L 109 175 L 109 169 L 103 169 L 103 175 L 97 175 L 97 169 L 91 169 L 91 163 L 85 163 L 85 157 L 91 157 L 91 151 L 97 151 L 97 145 L 103 145 L 103 151 L 109 151 L 109 145 L 103 145 L 103 139 L 109 139 L 109 133 L 115 133 L 115 127 L 121 127 L 121 133 L 127 133 L 127 127 L 121 127 L 121 121 L 127 121 L 127 115 L 133 115 L 133 109 L 139 109 L 139 115 L 145 115 L 145 121 L 151 121 L 151 127 L 145 127 L 145 133 L 151 133 L 151 127 L 157 127 L 157 133 L 163 133 L 163 127 L 157 127 L 157 121 L 163 121 L 163 115 L 157 115 L 157 121 L 151 121 L 151 115 L 145 115 L 145 109 L 139 109 L 139 103 L 145 103 L 145 97 L 151 97 L 151 91 L 157 91 L 157 97 L 163 97 L 163 91 L 157 91 L 157 85 L 163 85 L 163 79 L 169 79 L 169 73 L 175 73 L 175 79 L 181 79 L 181 73 L 175 73 L 175 67 L 181 67 L 181 61 L 187 61 L 187 55 L 193 55 L 193 61 L 199 61 L 199 67 L 205 67 L 205 73 L 199 73 L 199 79 L 205 79 L 205 73 L 211 73 L 211 79 L 217 79 L 217 73 L 211 73 L 211 67 L 217 67 L 217 61 L 211 61 L 211 67 L 205 67 L 205 61 L 199 61 L 199 55 L 193 55 L 193 49 L 199 49 L 199 43 L 205 43 L 205 37 L 211 37 L 211 43 L 217 43 L 217 37 L 211 37 L 211 31 L 217 31 L 217 25 L 223 25 L 223 19 L 229 19 L 229 25 L 235 25 L 235 19 L 229 19 L 229 13 L 235 13 L 235 7 L 241 7 L 241 1 L 247 1 L 247 7 L 253 7 L 253 13 L 259 13 L 259 19 L 253 19 L 253 25 L 259 25 L 259 19 L 265 19 L 265 25 L 271 25 L 271 31 L 277 31 L 277 37 L 271 37 L 271 43 L 277 43 L 277 37 L 283 37 L 283 43 L 289 43 L 289 49 L 295 49 L 295 55 L 289 55 L 289 61 L 283 61 L 283 67 L 277 67 L 277 61 L 271 61 L 271 67 L 277 67 L 277 73 L 271 73 L 271 79 L 277 79 L 277 73 L 283 73 L 283 79 L 289 79 L 289 73 L 283 73 L 283 67 L 289 67 L 289 61 L 295 61 L 295 55 L 301 55 L 301 61 L 307 61 L 307 67 L 313 67 L 313 73 L 307 73 L 307 79 L 313 79 L 313 73 L 319 73 L 319 79 L 325 79 L 325 85 L 331 85 L 331 91 L 325 91 L 325 97 L 331 97 L 331 91 L 337 91 L 337 97 L 343 97 L 343 103 L 349 103 L 349 109 L 343 109 L 343 115 L 337 115 L 337 121 L 331 121 L 331 115 L 325 115 L 325 121 L 331 121 L 331 127 L 325 127 L 325 133 L 331 133 L 331 127 L 337 127 L 337 133 L 343 133 L 343 127 L 337 127 L 337 121 L 343 121 L 343 115 L 349 115 L 349 109 L 355 109 L 355 115 L 361 115 L 361 121 L 367 121 L 367 127 L 361 127 L 361 133 L 367 133 L 367 127 L 373 127 L 373 133 L 379 133 L 379 139 L 385 139 L 385 145 L 379 145 L 379 151 L 385 151 L 385 145 L 391 145 L 391 151 L 397 151 L 397 157 L 403 157 L 403 163 L 397 163 L 397 169 L 391 169 L 391 175 L 385 175 L 385 169 L 379 169 L 379 175 L 385 175 L 385 181 L 379 181 L 379 187 L 373 187 L 373 193 L 367 193 L 367 187 L 361 187 L 361 193 L 367 193 L 367 199 L 361 199 L 361 205 L 355 205 L 355 211 L 349 211 L 349 205 L 343 205 L 343 199 L 337 199 L 337 193 L 343 193 L 343 187 L 337 187 L 337 193 L 331 193 L 331 187 L 325 187 L 325 193 L 331 193 L 331 199 L 325 199 L 325 205 L 331 205 L 331 199 L 337 199 L 337 205 L 343 205 L 343 211 L 349 211 L 349 217 L 343 217 L 343 223 L 337 223 L 337 229 L 331 229 L 331 223 L 325 223 L 325 229 L 331 229 L 331 235 L 325 235 L 325 241 L 331 241 L 331 235 L 337 235 L 337 241 L 343 241 L 343 235 L 337 235 L 337 229 L 343 229 L 343 223 L 349 223 L 349 217 L 355 217 L 355 223 L 361 223 L 361 229 L 367 229 L 367 235 L 361 235 L 361 241 L 367 241 L 367 235 L 373 235 L 373 241 L 379 241 L 379 235 L 373 235 L 373 229 L 379 229 L 379 223 L 373 223 L 373 229 L 367 229 L 367 223 L 361 223 L 361 217 L 355 217 L 355 211 L 361 211 L 361 205 L 367 205 L 367 199 L 373 199 L 373 205 L 379 205 L 379 199 L 373 199 L 373 193 L 379 193 L 379 187 L 385 187 L 385 181 L 391 181 L 391 187 L 397 187 L 397 181 L 391 181 L 391 175 L 397 175 L 397 169 L 403 169 L 403 163 L 409 163 L 409 169 L 415 169 L 415 175 L 421 175 L 421 181 L 415 181 L 415 187 L 421 187 L 421 181 L 427 181 L 427 187 L 433 187 L 433 193 L 439 193 L 439 199 L 433 199 L 433 205 L 439 205 L 439 199 L 445 199 L 445 205 L 451 205 L 451 211 L 457 211 L 457 217 L 451 217 L 451 223 L 445 223 L 445 229 L 439 229 L 439 223 L 433 223 L 433 229 L 439 229 L 439 235 L 433 235 L 433 241 L 439 241 L 439 235 L 445 235 L 445 241 L 451 241 L 451 235 L 445 235 L 445 229 L 451 229 L 451 223 L 457 223 L 457 217 L 463 217 L 463 223 L 469 223 L 469 229 L 475 229 L 475 235 L 469 235 L 469 241 L 475 241 L 475 235 L 481 235 L 481 241 L 487 241 " />
  </g>
</svg>
