<?xml version="1.0" encoding="UTF-8" standalone="no"?>
<!DOCTYPE svg PUBLIC "-//W3C//DTD SVG 1.1//EN"
    "http://www.w3.org/Graphics/SVG/1.1/DTD/svg11.dtd">
<svg xmlns="http://www.w3.org/2000/svg" width="150" height="317">
  <desc>plant_b LSystem</desc>
  <rect width="100%" height="100%" style="fill: white"/>
  <g stroke="black" fill="none" stroke-width="1">
    <path d="M 62.88986 316 L 62.88986 311 L 61.17976 306.3015 M 62.88986 311 L 62.88986 306 L 64.59996 301.3015 M 62.88986 306 L 62.88986 301 M 62.88986 306 L 61.17976 301.3015 L 57.96582 297.4713 M 61.17976 301.3015 L 59.46966 296.6031 L 59.46966 291.6031 M 59.46966 296.6031 L 57.75956 291.9046 M 62.88986 306 L 62.88986 301 L 61.17976 296.3015 M 62.88986 301 L 62.88986 296 L 64.59996 291.3015 M 62.88986 296 L 62.88986 291 M 62.88986 296 L 64.59996 291.3015 L 64.59996 286.3015 M 64.59996 291.3015 L 66.31006 286.6031 L 69.524 282.7729 M 66.31006 286.6031 L 68.02016 281.9046 M 62.88986 296 L 62.88986 291 L 61.17976 286.3015 M 62.88986 291 L 62.88986 286 L 64.59996 281.3015 M 62.88986 286 L 62.88986 281 M 62.88986 296 L 61.17976 291.3015 L 57.96582 287.4713 M 61.17976 291.3015 L 59.46966 286.6031 L 59.46966 281.6031 M 59.46966 286.6031 L 57.75956 281.9046 M 59.46966 286.6031 L 56.25572 282.7729 L 51.92559 280.2729 M 56.25572 282.7729 L 53.04178 278.9426 L 51.33168 274.2442 M 53.04178 278.9426 L 49.82784 275.1124 M 59.46966 286.6031 L 57.75956 281.9046 L 54.54562 278.0744 M 57.75956 281.9046 L 56.04946 277.2061 L 56.04946 272.2061 M 56.04946 277.2061 L 54.33936 272.5077 M 56.04946 277.2061 L 56.04946 272.2061 L 54.33936 267.5077 M 56.04946 272.2061 L 56.04946 267.2061 L 57.75956 262.5077 M 56.04946 267.2061 L 56.04946 262.2061 M 56.04946 277.2061 L 54.33936 272.5077 L 51.12542 268.6775 M 54.33936 272.5077 L 52.62925 267.8092 L 52.62925 262.8092 M 52.62925 267.8092 L 50.91915 263.1107 M 62.88986 296 L 62.88986 291 L 61.17976 286.3015 M 62.88986 291 L 62.88986 286 L 64.59996 281.3015 M 62.88986 286 L 62.88986 281 M 62.88986 286 L 61.17976 281.3015 L 57.96582 277.4713 M 61.17976 281.3015 L 59.46966 276.6031 L 59.46966 271.6031 M 59.46966 276.6031 L 57.75956 271.9046 M 62.88986 286 L 62.88986 281 L 61.17976 276.3015 M 62.88986 281 L 62.88986 276 L 64.59996 271.3015 M 62.88986 276 L 62.88986 271 M 62.88986 276 L 64.59996 271.3015 L 64.59996 266.3015 M 64.59996 271.3015 L 66.31006 266.6031 L 69.524 262.7729 M 66.31006 266.6031 L 68.02016 261.9046 M 62.88986 276 L 62.88986 271 L 61.17976 266.3015 M 62.88986 271 L 62.88986 266 L 64.59996 261.3015 M 62.88986 266 L 62.88986 261 M 62.88986 276 L 64.59996 271.3015 L 64.59996 266.3015 M 64.59996 271.3015 L 66.31006 266.6031 L 69.524 262.7729 M 66.31006 266.6031 L 68.02016 261.9046 M 66.31006 266.6031 L 66.31006 261.6031 L 64.59996 256.9046 M 66.31006 261.6031 L 66.31006 256.6031 L 68.02016 251.9046 M 66.31006 256.6031 L 66.31006 251.6031 M 66.31006 266.6031 L 68.02016 261.9046 L 68.02016 256.9046 M 68.02016 261.9046 L 69.73026 257.2061 L 72.9442 253.3759 M 69.73026 257.2061 L 71.44036 252.5077 M 69.73026 257.2061 L 72.9442 253.3759 L 74.6543 248.6775 M 72.9442 253.3759 L 76.15814 249.5457 L 80.48826 247.0457 M 76.15814 249.5457 L 79.37207 245.7155 M 69.73026 257.2061 L 71.44036 252.5077 L 71.44036 247.5077 M 71.44036 252.5077 L 73.15046 247.8092 L 76.3644 243.979 M 73.15046 247.8092 L 74.86056 243.1108 M 62.88986 276 L 62.88986 271 L 61.17976 266.3015 M 62.88986 271 L 62.88986 266 L 64.59996 261.3015 M 62.88986 266 L 62.88986 261 M 62.88986 266 L 61.17976 261.3015 L 57.96582 257.4713 M 61.17976 261.3015 L 59.46966 256.6031 L 59.46966 251.6031 M 59.46966 256.6031 L 57.75956 251.9046 M 62.88986 266 L 62.88986 261 L 61.17976 256.3015 M 62.88986 261 L 62.88986 256 L 64.59996 251.3015 M 62.88986 256 L 62.88986 251 M 62.88986 256 L 64.59996 251.3015 L 64.59996 246.3015 M 64.59996 251.3015 L 66.31006 246.6031 L 69.524 242.7729 M 66.31006 246.6031 L 68.02016 241.9046 M 62.88986 256 L 62.88986 251 L 61.17976 246.3015 M 62.88986 251 L 62.88986 246 L 64.59996 241.3015 M 62.88986 246 L 62.88986 241 M 62.88986 276 L 61.17976 271.3015 L 57.96582 267.4713 M 61.17976 271.3015 L 59.46966 266.6031 L 59.46966 261.6031 M 59.46966 266.6031 L 57.75956 261.9046 M 59.46966 266.6031 L 56.25572 262.7729 L 51.92559 260.2729 M 56.25572 262.7729 L 53.04178 258.9426 L 51.33168 254.2442 M 53.04178 258.9426 L 49.82784 255.1124 M 59.46966 266.6031 L 57.75956 261.9046 L 54.54562 258.0744 M 57.75956 261.9046 L 56.04946 257.2061 L 56.04946 252.2061 M 56.04946 257.2061 L 54.33935 252.5077 M 56.04946 257.2061 L 56.04946 252.2061 L 54.33936 247.5077 M 56.04946 252.2061 L 56.04946 247.2061 L 57.75956 242.5077 M 56.04946 247.2061 L 56.04946 242.2061 M 56.04946 257.2061 L 54.33935 252.5077 L 51.12542 248.6775 M 54.33935 252.5077 L 52.62925 247.8092 L 52.62925 242.8092 M 52.62925 247.8092 L 50.91915 243.1108 M 56.04946 257.2061 L 52.83552 253.3759 L 48.50539 250.8759 M 52.83552 253.3759 L 49.62158 249.5457 L 47.91148 244.8472 M 49.62158 249.5457 L 46.40764 245.7155 M 49.62158 249.5457 L 45.29145 247.0457 L 40.36741 246.1775 M 45.29145 247.0457 L 40.96132 244.5457 L 37.74739 240.7155 M 40.96132 244.5457 L 36.6312 242.0457 M 49.62158 249.5457 L 46.40764 245.7155 L 42.07752 243.2155 M 46.40764 245.7155 L 43.1937 241.8853 L 41.4836 237.1868 M 43.1937 241.8853 L 39.97977 238.055 M 43.1937 241.8853 L 41.4836 237.1868 L 38.26967 233.3566 M 41.4836 237.1868 L 39.7735 232.4883 L 39.7735 227.4883 M 39.7735 232.4883 L 38.0634 227.7899 M 43.1937 241.8853 L 39.97977 238.055 L 35.64964 235.555 M 39.97977 238.055 L 36.76583 234.2248 L 35.05573 229.5263 M 36.76583 234.2248 L 33.55189 230.3946 M 56.04946 257.2061 L 54.33935 252.5077 L 51.12542 248.6775 M 54.33935 252.5077 L 52.62925 247.8092 L 52.62925 242.8092 M 52.62925 247.8092 L 50.91915 243.1108 M 52.62925 247.8092 L 49.41532 243.979 L 45.08519 241.479 M 49.41532 243.979 L 46.20138 240.1488 L 44.49128 235.4503 M 46.20138 240.1488 L 42.98744 236.3185 M 52.62925 247.8092 L 50.91915 243.1108 L 47.70521 239.2805 M 50.91915 243.1108 L 49.20905 238.4123 L 49.20905 233.4123 M 49.20905 238.4123 L 47.49895 233.7138 M 49.20905 238.4123 L 49.20905 233.4123 L 47.49895 228.7138 M 49.20905 233.4123 L 49.20905 228.4123 L 50.91915 223.7138 M 49.20905 228.4123 L 49.20905 223.4123 M 49.20905 238.4123 L 47.49895 233.7138 L 44.28501 229.8836 M 47.49895 233.7138 L 45.78885 229.0154 L 45.78885 224.0154 M 45.78885 229.0154 L 44.07875 224.3169 M 49.20905 238.4123 L 49.20905 233.4123 L 47.49895 228.7138 M 49.20905 233.4123 L 49.20905 228.4123 L 50.91915 223.7138 M 49.20905 228.4123 L 49.20905 223.4123 M 49.20905 228.4123 L 47.49895 223.7138 L 44.28501 219.8836 M 47.49895 223.7138 L 45.78885 219.0154 L 45.78885 214.0154 M 45.78885 219.0154 L 44.07875 214.3169 M 49.20905 228.4123 L 49.20905 223.4123 L 47.49895 218.7138 M 49.20905 223.4123 L 49.20905 218.4123 L 50.91915 213.7138 M 49.20905 218.4123 L 49.20905 213.4123 M 49.20905 218.4123 L 50.91915 213.7138 L 50.91915 208.7138 M 50.91915 213.7138 L 52.62925 209.0154 L 55.84319 205.1852 M 52.62925 209.0154 L 54.33935 204.3169 M 49.20905 218.4123 L 49.20905 213.4123 L 47.49895 208.7138 M 49.20905 213.4123 L 49.20905 208.4123 L 50.91915 203.7138 M 49.20905 208.4123 L 49.20905 203.4123 M 49.20905 238.4123 L 47.49895 233.7138 L 44.28501 229.8836 M 47.49895 233.7138 L 45.78885 229.0154 L 45.78885 224.0154 M 45.78885 229.0154 L 44.07875 224.3169 M 45.78885 229.0154 L 42.57491 225.1852 L 38.24478 222.6852 M 42.57491 225.1852 L 39.36097 221.3549 L 37.65087 216.6565 M 39.36097 221.3549 L 36.14704 217.5247 M 45.78885 229.0154 L 44.07875 224.3169 L 40.86481 220.4867 M 44.07875 224.3169 L 42.36865 219.6184 L 42.36865 214.6184 M 42.36865 219.6184 L 40.65855 214.92 M 42.36865 219.6184 L 42.36865 214.6184 L 40.65855 209.92 M 42.36865 214.6184 L 42.36865 209.6184 L 44.07875 204.92 M 42.36865 209.6184 L 42.36865 204.6184 M 42.36865 219.6184 L 40.65855 214.92 L 37.44461 211.0898 M 40.65855 214.92 L 38.94845 210.2215 L 38.94845 205.2215 M 38.94845 210.2215 L 37.23835 205.523 M 62.88986 276 L 62.88986 271 L 61.17976 266.3015 M 62.88986 271 L 62.88986 266 L 64.59996 261.3015 M 62.88986 266 L 62.88986 261 M 62.88986 266 L 61.17976 261.3015 L 57.96582 257.4713 M 61.17976 261.3015 L 59.46966 256.6031 L 59.46966 251.6031 M 59.46966 256.6031 L 57.75956 251.9046 M 62.88986 266 L 62.88986 261 L 61.17976 256.3015 M 62.88986 261 L 62.88986 256 L 64.59996 251.3015 M 62.88986 256 L 62.88986 251 M 62.88986 256 L 64.59996 251.3015 L 64.59996 246.3015 M 64.59996 251.3015 L 66.31006 246.6031 L 69.524 242.7729 M 66.31006 246.6031 L 68.02016 241.9046 M 62.88986 256 L 62.88986 251 L 61.17976 246.3015 M 62.88986 251 L 62.88986 246 L 64.59996 241.3015 M 62.88986 246 L 62.88986 241 M 62.88986 256 L 61.17976 251.3015 L 57.96582 247.4713 M 61.17976 251.3015 L 59.46966 246.6031 L 59.46966 241.6031 M 59.46966 246.6031 L 57.75956 241.9046 M 59.46966 246.6031 L 56.25572 242.7729 L 51.92559 240.2729 M 56.25572 242.7729 L 53.04178 238.9426 L 51.33168 234.2442 M 53.04178 238.9426 L 49.82784 235.1124 M 59.46966 246.6031 L 57.75956 241.9046 L 54.54562 238.0744 M 57.75956 241.9046 L 56.04945 237.2061 L 56.04945 232.2061 M 56.04945 237.2061 L 54.33935 232.5077 M 56.04945 237.2061 L 56.04945 232.2061 L 54.33935 227.5077 M 56.04945 232.2061 L 56.04945 227.2061 L 57.75955 222.5077 M 56.04945 227.2061 L 56.04945 222.2061 M 56.04945 237.2061 L 54.33935 232.5077 L 51.12542 228.6775 M 54.33935 232.5077 L 52.62925 227.8092 L 52.62925 222.8092 M 52.62925 227.8092 L 50.91915 223.1108 M 62.88986 256 L 62.88986 251 L 61.17976 246.3015 M 62.88986 251 L 62.88986 246 L 64.59996 241.3015 M 62.88986 246 L 62.88986 241 M 62.88986 246 L 61.17976 241.3015 L 57.96582 237.4713 M 61.17976 241.3015 L 59.46966 236.6031 L 59.46966 231.6031 M 59.46966 236.6031 L 57.75955 231.9046 M 62.88986 246 L 62.88986 241 L 61.17976 236.3015 M 62.88986 241 L 62.88986 236 L 64.59996 231.3015 M 62.88986 236 L 62.88986 231 M 62.88986 236 L 64.59996 231.3015 L 64.59996 226.3015 M 64.59996 231.3015 L 66.31006 226.6031 L 69.524 222.7729 M 66.31006 226.6031 L 68.02016 221.9046 M 62.88986 236 L 62.88986 231 L 61.17976 226.3015 M 62.88986 231 L 62.88986 226 L 64.59996 221.3015 M 62.88986 226 L 62.88986 221 M 62.88986 236 L 64.59996 231.3015 L 64.59996 226.3015 M 64.59996 231.3015 L 66.31006 226.6031 L 69.524 222.7729 M 66.31006 226.6031 L 68.02016 221.9046 M 66.31006 226.6031 L 66.31006 221.6031 L 64.59996 216.9046 M 66.31006 221.6031 L 66.31006 216.6031 L 68.02016 211.9046 M 66.31006 216.6031 L 66.31006 211.6031 M 66.31006 226.6031 L 68.02016 221.9046 L 68.02016 216.9046 M 68.02016 221.9046 L 69.73026 217.2061 L 72.9442 213.3759 M 69.73026 217.2061 L 71.44036 212.5077 M 69.73026 217.2061 L 72.9442 213.3759 L 74.6543 208.6775 M 72.9442 213.3759 L 76.15813 209.5457 L 80.48826 207.0457 M 76.15813 209.5457 L 79.37207 205.7155 M 69.73026 217.2061 L 71.44036 212.5077 L 71.44036 207.5077 M 71.44036 212.5077 L 73.15046 207.8092 L 76.3644 203.979 M 73.15046 207.8092 L 74.86056 203.1108 M 62.88986 236 L 62.88986 231 L 61.17976 226.3015 M 62.88986 231 L 62.88986 226 L 64.59996 221.3015 M 62.88986 226 L 62.88986 221 M 62.88986 226 L 61.17976 221.3015 L 57.96582 217.4713 M 61.17976 221.3015 L 59.46965 216.6031 L 59.46965 211.6031 M 59.46965 216.6031 L 57.75955 211.9046 M 62.88986 226 L 62.88986 221 L 61.17976 216.3015 M 62.88986 221 L 62.88986 216 L 64.59996 211.3015 M 62.88986 216 L 62.88986 211 M 62.88986 216 L 64.59996 211.3015 L 64.59996 206.3015 M 64.59996 211.3015 L 66.31006 206.6031 L 69.52399 202.7729 M 66.31006 206.6031 L 68.02016 201.9046 M 62.88986 216 L 62.88986 211 L 61.17975 206.3015 M 62.88986 211 L 62.88986 206 L 64.59996 201.3015 M 62.88986 206 L 62.88985 201 M 62.88986 236 L 64.59996 231.3015 L 64.59996 226.3015 M 64.59996 231.3015 L 66.31006 226.6031 L 69.524 222.7729 M 66.31006 226.6031 L 68.02016 221.9046 M 66.31006 226.6031 L 66.31006 221.6031 L 64.59996 216.9046 M 66.31006 221.6031 L 66.31006 216.6031 L 68.02016 211.9046 M 66.31006 216.6031 L 66.31006 211.6031 M 66.31006 226.6031 L 68.02016 221.9046 L 68.02016 216.9046 M 68.02016 221.9046 L 69.73026 217.2061 L 72.9442 213.3759 M 69.73026 217.2061 L 71.44036 212.5077 M 69.73026 217.2061 L 72.9442 213.3759 L 74.6543 208.6775 M 72.9442 213.3759 L 76.15813 209.5457 L 80.48826 207.0457 M 76.15813 209.5457 L 79.37207 205.7155 M 69.73026 217.2061 L 71.44036 212.5077 L 71.44036 207.5077 M 71.44036 212.5077 L 73.15046 207.8092 L 76.3644 203.979 M 73.15046 207.8092 L 74.86056 203.1108 M 69.73026 217.2061 L 69.73026 212.2061 L 68.02016 207.5077 M 69.73026 212.2061 L 69.73026 207.2061 L 71.44036 202.5077 M 69.73026 207.2061 L 69.73026 202.2061 M 69.73026 207.2061 L 68.02016 202.5077 L 64.80622 198.6775 M 68.02016 202.5077 L 66.31006 197.8092 L 66.31006 192.8092 M 66.31006 197.8092 L 64.59996 193.1108 M 69.73026 207.2061 L 69.73026 202.2061 L 68.02016 197.5077 M 69.73026 202.2061 L 69.73026 197.2061 L 71.44036 192.5077 M 69.73026 197.2061 L 69.73026 192.2061 M 69.73026 197.2061 L 71.44036 192.5077 L 71.44036 187.5077 M 71.44036 192.5077 L 73.15046 187.8092 L 76.36439 183.979 M 73.15046 187.8092 L 74.86056 183.1108 M 69.73026 197.2061 L 69.73026 192.2061 L 68.02016 187.5077 M 69.73026 192.2061 L 69.73026 187.2061 L 71.44036 182.5077 M 69.73026 187.2061 L 69.73026 182.2061 M 69.73026 217.2061 L 71.44036 212.5077 L 71.44036 207.5077 M 71.44036 212.5077 L 73.15046 207.8092 L 76.3644 203.979 M 73.15046 207.8092 L 74.86056 203.1108 M 73.15046 207.8092 L 73.15046 202.8092 L 71.44036 198.1108 M 73.15046 202.8092 L 73.15046 197.8092 L 74.86056 193.1108 M 73.15046 197.8092 L 73.15046 192.8092 M 73.15046 207.8092 L 74.86056 203.1108 L 74.86056 198.1108 M 74.86056 203.1108 L 76.57066 198.4123 L 79.7846 194.5821 M 76.57066 198.4123 L 78.28076 193.7138 M 76.57066 198.4123 L 79.7846 194.5821 L 81.4947 189.8836 M 79.7846 194.5821 L 82.99854 190.7518 L 87.32866 188.2518 M 82.99854 190.7518 L 86.21247 186.9216 M 76.57066 198.4123 L 78.28076 193.7138 L 78.28076 188.7138 M 78.28076 193.7138 L 79.99086 189.0154 L 83.2048 185.1852 M 79.99086 189.0154 L 81.70096 184.3169 M 76.57066 198.4123 L 79.7846 194.5821 L 81.4947 189.8836 M 79.7846 194.5821 L 82.99854 190.7518 L 87.32866 188.2518 M 82.99854 190.7518 L 86.21247 186.9216 M 82.99854 190.7518 L 84.70864 186.0534 L 84.70864 181.0534 M 84.70864 186.0534 L 86.41874 181.3549 L 89.63267 177.5247 M 86.41874 181.3549 L 88.12884 176.6565 M 82.99854 190.7518 L 86.21247 186.9216 L 87.92257 182.2232 M 86.21247 186.9216 L 89.42641 183.0914 L 93.75654 180.5914 M 89.42641 183.0914 L 92.64035 179.2612 M 89.42641 183.0914 L 93.75654 180.5914 L 96.97047 176.7612 M 93.75654 180.5914 L 98.08665 178.0914 L 103.0107 177.2232 M 98.08665 178.0914 L 102.4168 175.5914 M 89.42641 183.0914 L 92.64035 179.2612 L 94.35045 174.5627 M 92.64035 179.2612 L 95.85428 175.431 L 100.1844 172.931 M 95.85428 175.431 L 99.06822 171.6008 M 76.57066 198.4123 L 78.28076 193.7138 L 78.28076 188.7138 M 78.28076 193.7138 L 79.99086 189.0154 L 83.2048 185.1852 M 79.99086 189.0154 L 81.70096 184.3169 M 79.99086 189.0154 L 79.99086 184.0154 L 78.28076 179.3169 M 79.99086 184.0154 L 79.99086 179.0154 L 81.70096 174.3169 M 79.99086 179.0154 L 79.99086 174.0154 M 79.99086 189.0154 L 81.70096 184.3169 L 81.70096 179.3169 M 81.70096 184.3169 L 83.41106 179.6185 L 86.625 175.7882 M 83.41106 179.6185 L 85.12115 174.92 M 83.41106 179.6185 L 86.625 175.7882 L 88.3351 171.0898 M 86.625 175.7882 L 89.83894 171.958 L 94.16906 169.458 M 89.83894 171.958 L 93.05287 168.1278 M 83.41106 179.6185 L 85.12115 174.92 L 85.12115 169.92 M 85.12115 174.92 L 86.83126 170.2215 L 90.0452 166.3913 M 86.83126 170.2215 L 88.54136 165.5231 M 62.88986 236 L 62.88986 231 L 61.17976 226.3015 M 62.88986 231 L 62.88986 226 L 64.59996 221.3015 M 62.88986 226 L 62.88986 221 M 62.88986 226 L 61.17976 221.3015 L 57.96582 217.4713 M 61.17976 221.3015 L 59.46965 216.6031 L 59.46965 211.6031 M 59.46965 216.6031 L 57.75955 211.9046 M 62.88986 226 L 62.88986 221 L 61.17976 216.3015 M 62.88986 221 L 62.88986 216 L 64.59996 211.3015 M 62.88986 216 L 62.88986 211 M 62.88986 216 L 64.59996 211.3015 L 64.59996 206.3015 M 64.59996 211.3015 L 66.31006 206.6031 L 69.52399 202.7729 M 66.31006 206.6031 L 68.02016 201.9046 M 62.88986 216 L 62.88986 211 L 61.17975 206.3015 M 62.88986 211 L 62.88986 206 L 64.59996 201.3015 M 62.88986 206 L 62.88985 201 M 62.88986 216 L 61.17975 211.3015 L 57.96582 207.4713 M 61.17975 211.3015 L 59.46965 206.6031 L 59.46965 201.6031 M 59.46965 206.6031 L 57.75955 201.9046 M 59.46965 206.6031 L 56.25572 202.7729 L 51.92559 200.2729 M 56.25572 202.7729 L 53.04178 198.9426 L 51.33168 194.2442 M 53.04178 198.9426 L 49.82784 195.1124 M 59.46965 206.6031 L 57.75955 201.9046 L 54.54562 198.0744 M 57.75955 201.9046 L 56.04945 197.2061 L 56.04945 192.2061 M 56.04945 197.2061 L 54.33935 192.5077 M 56.04945 197.2061 L 56.04945 192.2061 L 54.33935 187.5077 M 56.04945 192.2061 L 56.04945 187.2061 L 57.75955 182.5077 M 56.04945 187.2061 L 56.04945 182.2061 M 56.04945 197.2061 L 54.33935 192.5077 L 51.12541 188.6775 M 54.33935 192.5077 L 52.62925 187.8092 L 52.62925 182.8092 M 52.62925 187.8092 L 50.91915 183.1108 M 62.88986 216 L 62.88986 211 L 61.17975 206.3015 M 62.88986 211 L 62.88986 206 L 64.59996 201.3015 M 62.88986 206 L 62.88985 201 M 62.88986 206 L 61.17975 201.3015 L 57.96582 197.4713 M 61.17975 201.3015 L 59.46965 196.6031 L 59.46965 191.6031 M 59.46965 196.6031 L 57.75955 191.9046 M 62.88986 206 L 62.88985 201 L 61.17975 196.3015 M 62.88985 201 L 62.88985 196 L 64.59996 191.3015 M 62.88985 196 L 62.88985 191 M 62.88985 196 L 64.59996 191.3015 L 64.59996 186.3015 M 64.59996 191.3015 L 66.31006 186.6031 L 69.52399 182.7729 M 66.31006 186.6031 L 68.02016 181.9046 M 62.88985 196 L 62.88985 191 L 61.17975 186.3015 M 62.88985 191 L 62.88985 186 L 64.59995 181.3015 M 62.88985 186 L 62.88985 181 M 62.88985 196 L 64.59996 191.3015 L 64.59996 186.3015 M 64.59996 191.3015 L 66.31006 186.6031 L 69.52399 182.7729 M 66.31006 186.6031 L 68.02016 181.9046 M 66.31006 186.6031 L 66.31006 181.6031 L 64.59995 176.9046 M 66.31006 181.6031 L 66.31006 176.6031 L 68.02016 171.9046 M 66.31006 176.6031 L 66.31005 171.6031 M 66.31006 186.6031 L 68.02016 181.9046 L 68.02016 176.9046 M 68.02016 181.9046 L 69.73026 177.2062 L 72.94419 173.3759 M 69.73026 177.2062 L 71.44036 172.5077 M 69.73026 177.2062 L 72.94419 173.3759 L 74.65429 168.6775 M 72.94419 173.3759 L 76.15813 169.5457 L 80.48826 167.0457 M 76.15813 169.5457 L 79.37207 165.7155 M 69.73026 177.2062 L 71.44036 172.5077 L 71.44036 167.5077 M 71.44036 172.5077 L 73.15046 167.8092 L 76.36439 163.979 M 73.15046 167.8092 L 74.86056 163.1108 M 62.88985 196 L 62.88985 191 L 61.17975 186.3015 M 62.88985 191 L 62.88985 186 L 64.59995 181.3015 M 62.88985 186 L 62.88985 181 M 62.88985 186 L 61.17975 181.3015 L 57.96582 177.4713 M 61.17975 181.3015 L 59.46965 176.6031 L 59.46965 171.6031 M 59.46965 176.6031 L 57.75955 171.9046 M 62.88985 186 L 62.88985 181 L 61.17975 176.3015 M 62.88985 181 L 62.88985 176 L 64.59995 171.3015 M 62.88985 176 L 62.88985 171 M 62.88985 176 L 64.59995 171.3015 L 64.59995 166.3015 M 64.59995 171.3015 L 66.31005 166.6031 L 69.52399 162.7729 M 66.31005 166.6031 L 68.02015 161.9046 M 62.88985 176 L 62.88985 171 L 61.17975 166.3015 M 62.88985 171 L 62.88985 166 L 64.59995 161.3015 M 62.88985 166 L 62.88985 161 M 62.88986 236 L 61.17976 231.3015 L 57.96582 227.4713 M 61.17976 231.3015 L 59.46965 226.6031 L 59.46965 221.6031 M 59.46965 226.6031 L 57.75955 221.9046 M 59.46965 226.6031 L 56.25572 222.7729 L 51.92559 220.2729 M 56.25572 222.7729 L 53.04178 218.9426 L 51.33168 214.2442 M 53.04178 218.9426 L 49.82784 215.1124 M 59.46965 226.6031 L 57.75955 221.9046 L 54.54562 218.0744 M 57.75955 221.9046 L 56.04945 217.2061 L 56.04945 212.2061 M 56.04945 217.2061 L 54.33935 212.5077 M 56.04945 217.2061 L 56.04945 212.2061 L 54.33935 207.5077 M 56.04945 212.2061 L 56.04945 207.2061 L 57.75955 202.5077 M 56.04945 207.2061 L 56.04945 202.2061 M 56.04945 217.2061 L 54.33935 212.5077 L 51.12541 208.6775 M 54.33935 212.5077 L 52.62925 207.8092 L 52.62925 202.8092 M 52.62925 207.8092 L 50.91915 203.1108 M 56.04945 217.2061 L 52.83552 213.3759 L 48.50539 210.8759 M 52.83552 213.3759 L 49.62158 209.5457 L 47.91148 204.8472 M 49.62158 209.5457 L 46.40764 205.7155 M 49.62158 209.5457 L 45.29145 207.0457 L 40.36741 206.1775 M 45.29145 207.0457 L 40.96132 204.5457 L 37.74739 200.7155 M 40.96132 204.5457 L 36.6312 202.0457 M 49.62158 209.5457 L 46.40764 205.7155 L 42.07751 203.2155 M 46.40764 205.7155 L 43.1937 201.8853 L 41.4836 197.1868 M 43.1937 201.8853 L 39.97976 198.055 M 43.1937 201.8853 L 41.4836 197.1868 L 38.26966 193.3566 M 41.4836 197.1868 L 39.7735 192.4883 L 39.7735 187.4883 M 39.7735 192.4883 L 38.0634 187.7899 M 43.1937 201.8853 L 39.97976 198.055 L 35.64964 195.555 M 39.97976 198.055 L 36.76583 194.2248 L 35.05573 189.5263 M 36.76583 194.2248 L 33.55189 190.3946 M 56.04945 217.2061 L 54.33935 212.5077 L 51.12541 208.6775 M 54.33935 212.5077 L 52.62925 207.8092 L 52.62925 202.8092 M 52.62925 207.8092 L 50.91915 203.1108 M 52.62925 207.8092 L 49.41531 203.979 L 45.08519 201.479 M 49.41531 203.979 L 46.20138 200.1488 L 44.49128 195.4503 M 46.20138 200.1488 L 42.98744 196.3185 M 52.62925 207.8092 L 50.91915 203.1108 L 47.70521 199.2805 M 50.91915 203.1108 L 49.20905 198.4123 L 49.20905 193.4123 M 49.20905 198.4123 L 47.49895 193.7138 M 49.20905 198.4123 L 49.20905 193.4123 L 47.49895 188.7138 M 49.20905 193.4123 L 49.20905 188.4123 L 50.91915 183.7138 M 49.20905 188.4123 L 49.20905 183.4123 M 49.20905 198.4123 L 47.49895 193.7138 L 44.28501 189.8836 M 47.49895 193.7138 L 45.78885 189.0154 L 45.78885 184.0154 M 45.78885 189.0154 L 44.07875 184.3169 M 49.20905 198.4123 L 49.20905 193.4123 L 47.49895 188.7138 M 49.20905 193.4123 L 49.20905 188.4123 L 50.91915 183.7138 M 49.20905 188.4123 L 49.20905 183.4123 M 49.20905 188.4123 L 47.49895 183.7138 L 44.28501 179.8836 M 47.49895 183.7138 L 45.78885 179.0154 L 45.78885 174.0154 M 45.78885 179.0154 L 44.07875 174.3169 M 49.20905 188.4123 L 49.20905 183.4123 L 47.49895 178.7138 M 49.20905 183.4123 L 49.20905 178.4123 L 50.91915 173.7138 M 49.20905 178.4123 L 49.20905 173.4123 M 49.20905 178.4123 L 50.91915 173.7138 L 50.91915 168.7138 M 50.91915 173.7138 L 52.62925 169.0154 L 55.84319 165.1852 M 52.62925 169.0154 L 54.33935 164.3169 M 49.20905 178.4123 L 49.20905 173.4123 L 47.49895 168.7138 M 49.20905 173.4123 L 49.20905 168.4123 L 50.91915 163.7138 M 49.20905 168.4123 L 49.20905 163.4123 M 49.20905 198.4123 L 47.49895 193.7138 L 44.28501 189.8836 M 47.49895 193.7138 L 45.78885 189.0154 L 45.78885 184.0154 M 45.78885 189.0154 L 44.07875 184.3169 M 45.78885 189.0154 L 42.57491 185.1852 L 38.24478 182.6852 M 42.57491 185.1852 L 39.36097 181.3549 L 37.65087 176.6565 M 39.36097 181.3549 L 36.14703 177.5247 M 45.78885 189.0154 L 44.07875 184.3169 L 40.86481 180.4867 M 44.07875 184.3169 L 42.36865 179.6185 L 42.36865 174.6185 M 42.36865 179.6185 L 40.65855 174.92 M 42.36865 179.6185 L 42.36865 174.6185 L 40.65855 169.92 M 42.36865 174.6185 L 42.36865 169.6185 L 44.07875 164.92 M 42.36865 169.6185 L 42.36865 164.6185 M 42.36865 179.6185 L 40.65855 174.92 L 37.44461 171.0898 M 40.65855 174.92 L 38.94845 170.2215 L 38.94845 165.2215 M 38.94845 170.2215 L 37.23835 165.5231 M 49.20905 198.4123 L 45.99511 194.5821 L 41.66498 192.0821 M 45.99511 194.5821 L 42.78117 190.7518 L 41.07107 186.0534 M 42.78117 190.7518 L 39.56724 186.9216 M 42.78117 190.7518 L 38.45105 188.2518 L 33.52701 187.3836 M 38.45105 188.2518 L 34.12092 185.7518 L 30.90698 181.9216 M 34.12092 185.7518 L 29.79079 183.2518 M 42.78117 190.7518 L 39.56724 186.9216 L 35.23711 184.4216 M 39.56724 186.9216 L 36.3533 183.0914 L 34.6432 178.393 M 36.3533 183.0914 L 33.13936 179.2612 M 36.3533 183.0914 L 34.6432 178.393 L 31.42926 174.5627 M 34.6432 178.393 L 32.9331 173.6945 L 32.9331 168.6945 M 32.9331 173.6945 L 31.223 168.996 M 36.3533 183.0914 L 33.13936 179.2612 L 28.80923 176.7612 M 33.13936 179.2612 L 29.92542 175.431 L 28.21532 170.7325 M 29.92542 175.431 L 26.71148 171.6008 M 36.3533 183.0914 L 32.02317 180.5914 L 27.09913 179.7232 M 32.02317 180.5914 L 27.69304 178.0914 L 24.47911 174.2612 M 27.69304 178.0914 L 23.36292 175.5914 M 27.69304 178.0914 L 22.76901 177.2232 L 17.84497 178.0914 M 22.76901 177.2232 L 17.84497 176.3549 L 13.51484 173.8549 M 17.84497 176.3549 L 12.92093 175.4867 M 27.69304 178.0914 L 23.36292 175.5914 L 18.43888 174.7232 M 23.36292 175.5914 L 19.03279 173.0914 L 15.81885 169.2612 M 19.03279 173.0914 L 14.70266 170.5914 M 19.03279 173.0914 L 15.81885 169.2612 L 11.48873 166.7612 M 15.81885 169.2612 L 12.60492 165.431 L 10.89482 160.7325 M 12.60492 165.431 L 9.39098 161.6008 M 19.03279 173.0914 L 14.70266 170.5914 L 9.778618 169.7232 M 14.70266 170.5914 L 10.37253 168.0914 L 7.1586 164.2612 M 10.37253 168.0914 L 6.042408 165.5914 M 36.3533 183.0914 L 33.13936 179.2612 L 28.80923 176.7612 M 33.13936 179.2612 L 29.92542 175.431 L 28.21532 170.7325 M 29.92542 175.431 L 26.71148 171.6008 M 29.92542 175.431 L 25.59529 172.931 L 20.67125 172.0627 M 25.59529 172.931 L 21.26517 170.431 L 18.05123 166.6008 M 21.26517 170.431 L 16.93504 167.931 M 29.92542 175.431 L 26.71148 171.6008 L 22.38136 169.1008 M 26.71148 171.6008 L 23.49755 167.7706 L 21.78745 163.0721 M 23.49755 167.7706 L 20.28361 163.9403 M 23.49755 167.7706 L 21.78745 163.0721 L 18.57351 159.2419 M 21.78745 163.0721 L 20.07734 158.3736 L 20.07734 153.3736 M 20.07734 158.3736 L 18.36724 153.6752 M 23.49755 167.7706 L 20.28361 163.9403 L 15.95349 161.4403 M 20.28361 163.9403 L 17.06968 160.1101 L 15.35958 155.4117 M 17.06968 160.1101 L 13.85574 156.2799 M 23.49755 167.7706 L 21.78745 163.0721 L 18.57351 159.2419 M 21.78745 163.0721 L 20.07734 158.3736 L 20.07734 153.3736 M 20.07734 158.3736 L 18.36724 153.6752 M 20.07734 158.3736 L 16.86341 154.5434 L 12.53328 152.0434 M 16.86341 154.5434 L 13.64947 150.7132 L 11.93937 146.0148 M 13.64947 150.7132 L 10.43554 146.883 M 20.07734 158.3736 L 18.36724 153.6752 L 15.1533 149.845 M 18.36724 153.6752 L 16.65714 148.9767 L 16.65714 143.9767 M 16.65714 148.9767 L 14.94704 144.2783 M 16.65714 148.9767 L 16.65714 143.9767 L 14.94704 139.2783 M 16.65714 143.9767 L 16.65714 138.9767 L 18.36724 134.2783 M 16.65714 138.9767 L 16.65714 133.9767 M 16.65714 148.9767 L 14.94704 144.2783 L 11.7331 140.4481 M 14.94704 144.2783 L 13.23694 139.5798 L 13.23694 134.5798 M 13.23694 139.5798 L 11.52683 134.8814 M 23.49755 167.7706 L 20.28361 163.9403 L 15.95349 161.4403 M 20.28361 163.9403 L 17.06968 160.1101 L 15.35958 155.4117 M 17.06968 160.1101 L 13.85574 156.2799 M 17.06968 160.1101 L 12.73955 157.6101 L 7.81551 156.7419 M 12.73955 157.6101 L 8.40942 155.1101 L 5.195488 151.2799 M 8.40942 155.1101 L 4.079288 152.6101 M 17.06968 160.1101 L 13.85574 156.2799 L 9.525608 153.7799 M 13.85574 156.2799 L 10.64181 152.4497 L 8.931698 147.7512 M 10.64181 152.4497 L 7.427868 148.6195 M 10.64181 152.4497 L 8.931698 147.7512 L 5.717758 143.921 M 8.931698 147.7512 L 7.2216 143.0528 L 7.2216 138.0528 M 7.2216 143.0528 L 5.511497 138.3543 M 10.64181 152.4497 L 7.427868 148.6195 L 3.097736 146.1195 M 7.427868 148.6195 L 4.213928 144.7893 L 2.50383 140.0908 M 4.213928 144.7893 L 1 140.959 M 49.20905 198.4123 L 47.49895 193.7138 L 44.28501 189.8836 M 47.49895 193.7138 L 45.78885 189.0154 L 45.78885 184.0154 M 45.78885 189.0154 L 44.07875 184.3169 M 45.78885 189.0154 L 42.57491 185.1852 L 38.24478 182.6852 M 42.57491 185.1852 L 39.36097 181.3549 L 37.65087 176.6565 M 39.36097 181.3549 L 36.14703 177.5247 M 45.78885 189.0154 L 44.07875 184.3169 L 40.86481 180.4867 M 44.07875 184.3169 L 42.36865 179.6185 L 42.36865 174.6185 M 42.36865 179.6185 L 40.65855 174.92 M 42.36865 179.6185 L 42.36865 174.6185 L 40.65855 169.92 M 42.36865 174.6185 L 42.36865 169.6185 L 44.07875 164.92 M 42.36865 169.6185 L 42.36865 164.6185 M 42.36865 179.6185 L 40.65855 174.92 L 37.44461 171.0898 M 40.65855 174.92 L 38.94845 170.2215 L 38.94845 165.2215 M 38.94845 170.2215 L 37.23835 165.5231 M 42.36865 179.6185 L 39.15471 175.7882 L 34.82458 173.2882 M 39.15471 175.7882 L 35.94077 171.958 L 34.23067 167.2596 M 35.94077 171.958 L 32.72683 168.1278 M 35.94077 171.958 L 31.61064 169.458 L 26.68661 168.5898 M 31.61064 169.458 L 27.28052 166.958 L 24.06658 163.1278 M 27.28052 166.958 L 22.95039 164.458 M 35.94077 171.958 L 32.72683 168.1278 L 28.39671 165.6278 M 32.72683 168.1278 L 29.5129 164.2976 L 27.80279 159.5991 M 29.5129 164.2976 L 26.29896 160.4674 M 29.5129 164.2976 L 27.80279 159.5991 L 24.58886 155.7689 M 27.80279 159.5991 L 26.09269 154.9007 L 26.09269 149.9007 M 26.09269 154.9007 L 24.38259 150.2022 M 29.5129 164.2976 L 26.29896 160.4674 L 21.96883 157.9674 M 26.29896 160.4674 L 23.08502 156.6372 L 21.37492 151.9387 M 23.08502 156.6372 L 19.87108 152.8069 M 42.36865 179.6185 L 40.65855 174.92 L 37.44461 171.0898 M 40.65855 174.92 L 38.94845 170.2215 L 38.94845 165.2215 M 38.94845 170.2215 L 37.23835 165.5231 M 38.94845 170.2215 L 35.73451 166.3913 L 31.40438 163.8913 M 35.73451 166.3913 L 32.52057 162.5611 L 30.81047 157.8627 M 32.52057 162.5611 L 29.30663 158.7309 M 38.94845 170.2215 L 37.23835 165.5231 L 34.02441 161.6929 M 37.23835 165.5231 L 35.52825 160.8246 L 35.52825 155.8246 M 35.52825 160.8246 L 33.81815 156.1262 M 35.52825 160.8246 L 35.52825 155.8246 L 33.81815 151.1262 M 35.52825 155.8246 L 35.52825 150.8246 L 37.23835 146.1262 M 35.52825 150.8246 L 35.52825 145.8246 M 35.52825 160.8246 L 33.81815 156.1262 L 30.60421 152.296 M 33.81815 156.1262 L 32.10805 151.4277 L 32.10805 146.4277 M 32.10805 151.4277 L 30.39794 146.7293 M 35.52825 160.8246 L 35.52825 155.8246 L 33.81815 151.1262 M 35.52825 155.8246 L 35.52825 150.8246 L 37.23835 146.1262 M 35.52825 150.8246 L 35.52825 145.8246 M 35.52825 150.8246 L 33.81815 146.1262 L 30.60421 142.296 M 33.81815 146.1262 L 32.10805 141.4277 L 32.10805 136.4277 M 32.10805 141.4277 L 30.39794 136.7293 M 35.52825 150.8246 L 35.52825 145.8246 L 33.81815 141.1262 M 35.52825 145.8246 L 35.52825 140.8246 L 37.23835 136.1262 M 35.52825 140.8246 L 35.52825 135.8246 M 35.52825 140.8246 L 37.23835 136.1262 L 37.23835 131.1262 M 37.23835 136.1262 L 38.94845 131.4277 L 42.16238 127.5975 M 38.94845 131.4277 L 40.65855 126.7293 M 35.52825 140.8246 L 35.52825 135.8246 L 33.81815 131.1262 M 35.52825 135.8246 L 35.52825 130.8246 L 37.23835 126.1262 M 35.52825 130.8246 L 35.52825 125.8246 M 35.52825 160.8246 L 33.81815 156.1262 L 30.60421 152.296 M 33.81815 156.1262 L 32.10805 151.4277 L 32.10805 146.4277 M 32.10805 151.4277 L 30.39794 146.7293 M 32.10805 151.4277 L 28.89411 147.5975 L 24.56398 145.0975 M 28.89411 147.5975 L 25.68017 143.7673 L 23.97007 139.0688 M 25.68017 143.7673 L 22.46624 139.9371 M 32.10805 151.4277 L 30.39794 146.7293 L 27.184 142.899 M 30.39794 146.7293 L 28.68784 142.0308 L 28.68784 137.0308 M 28.68784 142.0308 L 26.97774 137.3324 M 28.68784 142.0308 L 28.68784 137.0308 L 26.97774 132.3324 M 28.68784 137.0308 L 28.68784 132.0308 L 30.39794 127.3324 M 28.68784 132.0308 L 28.68784 127.0308 M 28.68784 142.0308 L 26.97774 137.3324 L 23.7638 133.5021 M 26.97774 137.3324 L 25.26764 132.6339 L 25.26764 127.6339 M 25.26764 132.6339 L 23.55754 127.9354 M 35.52825 160.8246 L 35.52825 155.8246 L 33.81815 151.1262 M 35.52825 155.8246 L 35.52825 150.8246 L 37.23835 146.1262 M 35.52825 150.8246 L 35.52825 145.8246 M 35.52825 150.8246 L 33.81815 146.1262 L 30.60421 142.296 M 33.81815 146.1262 L 32.10805 141.4277 L 32.10805 136.4277 M 32.10805 141.4277 L 30.39794 136.7293 M 35.52825 150.8246 L 35.52825 145.8246 L 33.81815 141.1262 M 35.52825 145.8246 L 35.52825 140.8246 L 37.23835 136.1262 M 35.52825 140.8246 L 35.52825 135.8246 M 35.52825 140.8246 L 37.23835 136.1262 L 37.23835 131.1262 M 37.23835 136.1262 L 38.94845 131.4277 L 42.16238 127.5975 M 38.94845 131.4277 L 40.65855 126.7293 M 35.52825 140.8246 L 35.52825 135.8246 L 33.81815 131.1262 M 35.52825 135.8246 L 35.52825 130.8246 L 37.23835 126.1262 M 35.52825 130.8246 L 35.52825 125.8246 M 35.52825 140.8246 L 33.81815 136.1262 L 30.60421 132.296 M 33.81815 136.1262 L 32.10805 131.4277 L 32.10805 126.4277 M 32.10805 131.4277 L 30.39794 126.7293 M 32.10805 131.4277 L 28.89411 127.5975 L 24.56398 125.0975 M 28.89411 127.5975 L 25.68017 123.7673 L 23.97007 119.0688 M 25.68017 123.7673 L 22.46624 119.9371 M 32.10805 131.4277 L 30.39794 126.7293 L 27.184 122.899 M 30.39794 126.7293 L 28.68784 122.0308 L 28.68784 117.0308 M 28.68784 122.0308 L 26.97774 117.3324 M 28.68784 122.0308 L 28.68784 117.0308 L 26.97774 112.3324 M 28.68784 117.0308 L 28.68784 112.0308 L 30.39794 107.3324 M 28.68784 112.0308 L 28.68784 107.0308 M 28.68784 122.0308 L 26.97774 117.3324 L 23.7638 113.5021 M 26.97774 117.3324 L 25.26764 112.6339 L 25.26764 107.6339 M 25.26764 112.6339 L 23.55754 107.9354 M 35.52825 140.8246 L 35.52825 135.8246 L 33.81815 131.1262 M 35.52825 135.8246 L 35.52825 130.8246 L 37.23835 126.1262 M 35.52825 130.8246 L 35.52825 125.8246 M 35.52825 130.8246 L 33.81815 126.1262 L 30.60421 122.296 M 33.81815 126.1262 L 32.10805 121.4277 L 32.10805 116.4277 M 32.10805 121.4277 L 30.39794 116.7293 M 35.52825 130.8246 L 35.52825 125.8246 L 33.81815 121.1262 M 35.52825 125.8246 L 35.52825 120.8246 L 37.23835 116.1262 M 35.52825 120.8246 L 35.52825 115.8246 M 35.52825 120.8246 L 37.23835 116.1262 L 37.23835 111.1262 M 37.23835 116.1262 L 38.94845 111.4277 L 42.16238 107.5975 M 38.94845 111.4277 L 40.65855 106.7293 M 35.52825 120.8246 L 35.52825 115.8246 L 33.81815 111.1262 M 35.52825 115.8246 L 35.52825 110.8246 L 37.23835 106.1262 M 35.52825 110.8246 L 35.52825 105.8246 M 35.52825 120.8246 L 37.23835 116.1262 L 37.23835 111.1262 M 37.23835 116.1262 L 38.94845 111.4277 L 42.16238 107.5975 M 38.94845 111.4277 L 40.65855 106.7293 M 38.94845 111.4277 L 38.94845 106.4277 L 37.23835 101.7293 M 38.94845 106.4277 L 38.94845 101.4277 L 40.65855 96.72926 M 38.94845 101.4277 L 38.94845 96.42772 M 38.94845 111.4277 L 40.65855 106.7293 L 40.65855 101.7293 M 40.65855 106.7293 L 42.36865 102.0308 L 45.58258 98.20059 M 42.36865 102.0308 L 44.07875 97.33235 M 42.36865 102.0308 L 45.58258 98.20059 L 47.29268 93.50214 M 45.58258 98.20059 L 48.79652 94.37038 L 53.12665 91.87038 M 48.79652 94.37038 L 52.01046 90.54016 M 42.36865 102.0308 L 44.07875 97.33235 L 44.07875 92.33235 M 44.07875 97.33235 L 45.78885 92.6339 L 49.00278 88.80368 M 45.78885 92.6339 L 47.49895 87.93544 M 35.52825 120.8246 L 35.52825 115.8246 L 33.81815 111.1262 M 35.52825 115.8246 L 35.52825 110.8246 L 37.23835 106.1262 M 35.52825 110.8246 L 35.52825 105.8246 M 35.52825 110.8246 L 33.81815 106.1262 L 30.60421 102.296 M 33.81815 106.1262 L 32.10805 101.4277 L 32.10805 96.42772 M 32.10805 101.4277 L 30.39794 96.72926 M 35.52825 110.8246 L 35.52825 105.8246 L 33.81815 101.1262 M 35.52825 105.8246 L 35.52825 100.8246 L 37.23835 96.12617 M 35.52825 100.8246 L 35.52825 95.82463 M 35.52825 100.8246 L 37.23835 96.12617 L 37.23835 91.12617 M 37.23835 96.12617 L 38.94845 91.42772 L 42.16238 87.5975 M 38.94845 91.42772 L 40.65855 86.72926 M 35.52825 100.8246 L 35.52825 95.82463 L 33.81815 91.12617 M 35.52825 95.82463 L 35.52825 90.82463 L 37.23835 86.12617 M 35.52825 90.82463 L 35.52825 85.82463 M 35.52825 160.8246 L 33.81815 156.1262 L 30.60421 152.296 M 33.81815 156.1262 L 32.10805 151.4277 L 32.10805 146.4277 M 32.10805 151.4277 L 30.39794 146.7293 M 32.10805 151.4277 L 28.89411 147.5975 L 24.56398 145.0975 M 28.89411 147.5975 L 25.68017 143.7673 L 23.97007 139.0688 M 25.68017 143.7673 L 22.46624 139.9371 M 32.10805 151.4277 L 30.39794 146.7293 L 27.184 142.899 M 30.39794 146.7293 L 28.68784 142.0308 L 28.68784 137.0308 M 28.68784 142.0308 L 26.97774 137.3324 M 28.68784 142.0308 L 28.68784 137.0308 L 26.97774 132.3324 M 28.68784 137.0308 L 28.68784 132.0308 L 30.39794 127.3324 M 28.68784 132.0308 L 28.68784 127.0308 M 28.68784 142.0308 L 26.97774 137.3324 L 23.7638 133.5021 M 26.97774 137.3324 L 25.26764 132.6339 L 25.26764 127.6339 M 25.26764 132.6339 L 23.55754 127.9354 M 28.68784 142.0308 L 25.47391 138.2006 L 21.14378 135.7006 M 25.47391 138.2006 L 22.25997 134.3704 L 20.54987 129.6719 M 22.25997 134.3704 L 19.04603 130.5402 M 22.25997 134.3704 L 17.92984 131.8704 L 13.0058 131.0021 M 17.92984 131.8704 L 13.59971 129.3704 L 10.38578 125.5402 M 13.59971 129.3704 L 9.269588 126.8704 M 22.25997 134.3704 L 19.04603 130.5402 L 14.71591 128.0402 M 19.04603 130.5402 L 15.8321 126.7099 L 14.122 122.0115 M 15.8321 126.7099 L 12.61816 122.8797 M 15.8321 126.7099 L 14.122 122.0115 L 10.90806 118.1813 M 14.122 122.0115 L 12.41189 117.313 L 12.41189 112.313 M 12.41189 117.313 L 10.70179 112.6146 M 15.8321 126.7099 L 12.61816 122.8797 L 8.288029 120.3797 M 12.61816 122.8797 L 9.404228 119.0495 L 7.694118 114.3511 M 9.404228 119.0495 L 6.190289 115.2193 M 28.68784 142.0308 L 26.97774 137.3324 L 23.7638 133.5021 M 26.97774 137.3324 L 25.26764 132.6339 L 25.26764 127.6339 M 25.26764 132.6339 L 23.55754 127.9354 M 25.26764 132.6339 L 22.0537 128.8037 L 17.72357 126.3037 M 22.0537 128.8037 L 18.83977 124.9735 L 17.12966 120.275 M 18.83977 124.9735 L 15.62583 121.1432 M 25.26764 132.6339 L 23.55754 127.9354 L 20.3436 124.1052 M 23.55754 127.9354 L 21.84743 123.237 L 21.84743 118.237 M 21.84743 123.237 L 20.13733 118.5385 M 21.84743 123.237 L 21.84743 118.237 L 20.13733 113.5385 M 21.84743 118.237 L 21.84743 113.237 L 23.55754 108.5385 M 21.84743 113.237 L 21.84743 108.237 M 21.84743 123.237 L 20.13733 118.5385 L 16.92339 114.7083 M 20.13733 118.5385 L 18.42723 113.8401 L 18.42723 108.8401 M 18.42723 113.8401 L 16.71713 109.1416 M 21.84743 123.237 L 21.84743 118.237 L 20.13733 113.5385 M 21.84743 118.237 L 21.84743 113.237 L 23.55754 108.5385 M 21.84743 113.237 L 21.84743 108.237 M 21.84743 113.237 L 20.13733 108.5385 L 16.92339 104.7083 M 20.13733 108.5385 L 18.42723 103.8401 L 18.42723 98.84007 M 18.42723 103.8401 L 16.71713 99.14162 M 21.84743 113.237 L 21.84743 108.237 L 20.13733 103.5385 M 21.84743 108.237 L 21.84743 103.237 L 23.55754 98.53853 M 21.84743 103.237 L 21.84743 98.23698 M 21.84743 103.237 L 23.55754 98.53853 L 23.55754 93.53853 M 23.55754 98.53853 L 25.26764 93.84007 L 28.48157 90.00986 M 25.26764 93.84007 L 26.97774 89.14162 M 21.84743 103.237 L 21.84743 98.23698 L 20.13733 93.53853 M 21.84743 98.23698 L 21.84743 93.23698 L 23.55754 88.53853 M 21.84743 93.23698 L 21.84743 88.23698 M 21.84743 123.237 L 20.13733 118.5385 L 16.92339 114.7083 M 20.13733 118.5385 L 18.42723 113.8401 L 18.42723 108.8401 M 18.42723 113.8401 L 16.71713 109.1416 M 18.42723 113.8401 L 15.21329 110.0099 L 10.88317 107.5099 M 15.21329 110.0099 L 11.99936 106.1796 L 10.28925 101.4812 M 11.99936 106.1796 L 8.785419 102.3494 M 18.42723 113.8401 L 16.71713 109.1416 L 13.50319 105.3114 M 16.71713 109.1416 L 15.00702 104.4432 L 15.00702 99.44316 M 15.00702 104.4432 L 13.29692 99.74471 M 15.00702 104.4432 L 15.00702 99.44316 L 13.29692 94.74471 M 15.00702 99.44316 L 15.00702 94.44316 L 16.71713 89.74471 M 15.00702 94.44316 L 15.00702 89.44316 M 15.00702 104.4432 L 13.29692 99.74471 L 10.08298 95.91449 M 13.29692 99.74471 L 11.58682 95.04625 L 11.58682 90.04625 M 11.58682 95.04625 L 9.876717 90.34779 M 62.88986 236 L 62.88986 231 L 61.17976 226.3015 M 62.88986 231 L 62.88986 226 L 64.59996 221.3015 M 62.88986 226 L 62.88986 221 M 62.88986 226 L 61.17976 221.3015 L 57.96582 217.4713 M 61.17976 221.3015 L 59.46965 216.6031 L 59.46965 211.6031 M 59.46965 216.6031 L 57.75955 211.9046 M 62.88986 226 L 62.88986 221 L 61.17976 216.3015 M 62.88986 221 L 62.88986 216 L 64.59996 211.3015 M 62.88986 216 L 62.88986 211 M 62.88986 216 L 64.59996 211.3015 L 64.59996 206.3015 M 64.59996 211.3015 L 66.31006 206.6031 L 69.52399 202.7729 M 66.31006 206.6031 L 68.02016 201.9046 M 62.88986 216 L 62.88986 211 L 61.17975 206.3015 M 62.88986 211 L 62.88986 206 L 64.59996 201.3015 M 62.88986 206 L 62.88985 201 M 62.88986 216 L 61.17975 211.3015 L 57.96582 207.4713 M 61.17975 211.3015 L 59.46965 206.6031 L 59.46965 201.6031 M 59.46965 206.6031 L 57.75955 201.9046 M 59.46965 206.6031 L 56.25572 202.7729 L 51.92559 200.2729 M 56.25572 202.7729 L 53.04178 198.9426 L 51.33168 194.2442 M 53.04178 198.9426 L 49.82784 195.1124 M 59.46965 206.6031 L 57.75955 201.9046 L 54.54562 198.0744 M 57.75955 201.9046 L 56.04945 197.2061 L 56.04945 192.2061 M 56.04945 197.2061 L 54.33935 192.5077 M 56.04945 197.2061 L 56.04945 192.2061 L 54.33935 187.5077 M 56.04945 192.2061 L 56.04945 187.2061 L 57.75955 182.5077 M 56.04945 187.2061 L 56.04945 182.2061 M 56.04945 197.2061 L 54.33935 192.5077 L 51.12541 188.6775 M 54.33935 192.5077 L 52.62925 187.8092 L 52.62925 182.8092 M 52.62925 187.8092 L 50.91915 183.1108 M 62.88986 216 L 62.88986 211 L 61.17975 206.3015 M 62.88986 211 L 62.88986 206 L 64.59996 201.3015 M 62.88986 206 L 62.88985 201 M 62.88986 206 L 61.17975 201.3015 L 57.96582 197.4713 M 61.17975 201.3015 L 59.46965 196.6031 L 59.46965 191.6031 M 59.46965 196.6031 L 57.75955 191.9046 M 62.88986 206 L 62.88985 201 L 61.17975 196.3015 M 62.88985 201 L 62.88985 196 L 64.59996 191.3015 M 62.88985 196 L 62.88985 191 M 62.88985 196 L 64.59996 191.3015 L 64.59996 186.3015 M 64.59996 191.3015 L 66.31006 186.6031 L 69.52399 182.7729 M 66.31006 186.6031 L 68.02016 181.9046 M 62.88985 196 L 62.88985 191 L 61.17975 186.3015 M 62.88985 191 L 62.88985 186 L 64.59995 181.3015 M 62.88985 186 L 62.88985 181 M 62.88985 196 L 64.59996 191.3015 L 64.59996 186.3015 M 64.59996 191.3015 L 66.31006 186.6031 L 69.52399 182.7729 M 66.31006 186.6031 L 68.02016 181.9046 M 66.31006 186.6031 L 66.31006 181.6031 L 64.59995 176.9046 M 66.31006 181.6031 L 66.31006 176.6031 L 68.02016 171.9046 M 66.31006 176.6031 L 66.31005 171.6031 M 66.31006 186.6031 L 68.02016 181.9046 L 68.02016 176.9046 M 68.02016 181.9046 L 69.73026 177.2062 L 72.94419 173.3759 M 69.73026 177.2062 L 71.44036 172.5077 M 69.73026 177.2062 L 72.94419 173.3759 L 74.65429 168.6775 M 72.94419 173.3759 L 76.15813 169.5457 L 80.48826 167.0457 M 76.15813 169.5457 L 79.37207 165.7155 M 69.73026 177.2062 L 71.44036 172.5077 L 71.44036 167.5077 M 71.44036 172.5077 L 73.15046 167.8092 L 76.36439 163.979 M 73.15046 167.8092 L 74.86056 163.1108 M 62.88985 196 L 62.88985 191 L 61.17975 186.3015 M 62.88985 191 L 62.88985 186 L 64.59995 181.3015 M 62.88985 186 L 62.88985 181 M 62.88985 186 L 61.17975 181.3015 L 57.96582 177.4713 M 61.17975 181.3015 L 59.46965 176.6031 L 59.46965 171.6031 M 59.46965 176.6031 L 57.75955 171.9046 M 62.88985 186 L 62.88985 181 L 61.17975 176.3015 M 62.88985 181 L 62.88985 176 L 64.59995 171.3015 M 62.88985 176 L 62.88985 171 M 62.88985 176 L 64.59995 171.3015 L 64.59995 166.3015 M 64.59995 171.3015 L 66.31005 166.6031 L 69.52399 162.7729 M 66.31005 166.6031 L 68.02015 161.9046 M 62.88985 176 L 62.88985 171 L 61.17975 166.3015 M 62.88985 171 L 62.88985 166 L 64.59995 161.3015 M 62.88985 166 L 62.88985 161 M 62.88985 196 L 61.17975 191.3015 L 57.96582 187.4713 M 61.17975 191.3015 L 59.46965 186.6031 L 59.46965 181.6031 M 59.46965 186.6031 L 57.75955 181.9046 M 59.46965 186.6031 L 56.25572 182.7729 L 51.92559 180.2729 M 56.25572 182.7729 L 53.04178 178.9426 L 51.33168 174.2442 M 53.04178 178.9426 L 49.82784 175.1124 M 59.46965 186.6031 L 57.75955 181.9046 L 54.54561 178.0744 M 57.75955 181.9046 L 56.04945 177.2062 L 56.04945 172.2062 M 56.04945 177.2062 L 54.33935 172.5077 M 56.04945 177.2062 L 56.04945 172.2062 L 54.33935 167.5077 M 56.04945 172.2062 L 56.04945 167.2062 L 57.75955 162.5077 M 56.04945 167.2062 L 56.04945 162.2062 M 56.04945 177.2062 L 54.33935 172.5077 L 51.12541 168.6775 M 54.33935 172.5077 L 52.62925 167.8092 L 52.62925 162.8092 M 52.62925 167.8092 L 50.91915 163.1108 M 56.04945 177.2062 L 52.83551 173.3759 L 48.50539 170.8759 M 52.83551 173.3759 L 49.62158 169.5457 L 47.91148 164.8473 M 49.62158 169.5457 L 46.40764 165.7155 M 49.62158 169.5457 L 45.29145 167.0457 L 40.36741 166.1775 M 45.29145 167.0457 L 40.96132 164.5457 L 37.74738 160.7155 M 40.96132 164.5457 L 36.63119 162.0457 M 49.62158 169.5457 L 46.40764 165.7155 L 42.07751 163.2155 M 46.40764 165.7155 L 43.1937 161.8853 L 41.4836 157.1868 M 43.1937 161.8853 L 39.97976 158.0551 M 43.1937 161.8853 L 41.4836 157.1868 L 38.26966 153.3566 M 41.4836 157.1868 L 39.7735 152.4884 L 39.7735 147.4884 M 39.7735 152.4884 L 38.0634 147.7899 M 43.1937 161.8853 L 39.97976 158.0551 L 35.64964 155.5551 M 39.97976 158.0551 L 36.76583 154.2249 L 35.05572 149.5264 M 36.76583 154.2249 L 33.55189 150.3947 M 56.04945 177.2062 L 54.33935 172.5077 L 51.12541 168.6775 M 54.33935 172.5077 L 52.62925 167.8092 L 52.62925 162.8092 M 52.62925 167.8092 L 50.91915 163.1108 M 52.62925 167.8092 L 49.41531 163.979 L 45.08518 161.479 M 49.41531 163.979 L 46.20137 160.1488 L 44.49127 155.4504 M 46.20137 160.1488 L 42.98744 156.3186 M 52.62925 167.8092 L 50.91915 163.1108 L 47.70521 159.2806 M 50.91915 163.1108 L 49.20905 158.4123 L 49.20905 153.4123 M 49.20905 158.4123 L 47.49895 153.7139 M 49.20905 158.4123 L 49.20905 153.4123 L 47.49895 148.7139 M 49.20905 153.4123 L 49.20905 148.4123 L 50.91915 143.7139 M 49.20905 148.4123 L 49.20905 143.4123 M 49.20905 158.4123 L 47.49895 153.7139 L 44.28501 149.8837 M 47.49895 153.7139 L 45.78884 149.0154 L 45.78884 144.0154 M 45.78884 149.0154 L 44.07874 144.317 M 49.20905 158.4123 L 49.20905 153.4123 L 47.49895 148.7139 M 49.20905 153.4123 L 49.20905 148.4123 L 50.91915 143.7139 M 49.20905 148.4123 L 49.20905 143.4123 M 49.20905 148.4123 L 47.49895 143.7139 L 44.28501 139.8837 M 47.49895 143.7139 L 45.78885 139.0154 L 45.78885 134.0154 M 45.78885 139.0154 L 44.07875 134.317 M 49.20905 148.4123 L 49.20905 143.4123 L 47.49895 138.7139 M 49.20905 143.4123 L 49.20905 138.4123 L 50.91915 133.7139 M 49.20905 138.4123 L 49.20905 133.4123 M 49.20905 138.4123 L 50.91915 133.7139 L 50.91915 128.7139 M 50.91915 133.7139 L 52.62925 129.0154 L 55.84318 125.1852 M 52.62925 129.0154 L 54.33935 124.317 M 49.20905 138.4123 L 49.20905 133.4123 L 47.49895 128.7139 M 49.20905 133.4123 L 49.20905 128.4123 L 50.91915 123.7139 M 49.20905 128.4123 L 49.20905 123.4123 M 49.20905 158.4123 L 47.49895 153.7139 L 44.28501 149.8837 M 47.49895 153.7139 L 45.78884 149.0154 L 45.78884 144.0154 M 45.78884 149.0154 L 44.07874 144.317 M 45.78884 149.0154 L 42.57491 145.1852 L 38.24478 142.6852 M 42.57491 145.1852 L 39.36097 141.355 L 37.65087 136.6565 M 39.36097 141.355 L 36.14703 137.5248 M 45.78884 149.0154 L 44.07874 144.317 L 40.86481 140.4868 M 44.07874 144.317 L 42.36864 139.6185 L 42.36864 134.6185 M 42.36864 139.6185 L 40.65854 134.9201 M 42.36864 139.6185 L 42.36864 134.6185 L 40.65854 129.9201 M 42.36864 134.6185 L 42.36864 129.6185 L 44.07874 124.9201 M 42.36864 129.6185 L 42.36864 124.6185 M 42.36864 139.6185 L 40.65854 134.9201 L 37.44461 131.0898 M 40.65854 134.9201 L 38.94844 130.2216 L 38.94844 125.2216 M 38.94844 130.2216 L 37.23834 125.5231 M 62.88985 196 L 62.88985 191 L 61.17975 186.3015 M 62.88985 191 L 62.88985 186 L 64.59995 181.3015 M 62.88985 186 L 62.88985 181 M 62.88985 186 L 61.17975 181.3015 L 57.96582 177.4713 M 61.17975 181.3015 L 59.46965 176.6031 L 59.46965 171.6031 M 59.46965 176.6031 L 57.75955 171.9046 M 62.88985 186 L 62.88985 181 L 61.17975 176.3015 M 62.88985 181 L 62.88985 176 L 64.59995 171.3015 M 62.88985 176 L 62.88985 171 M 62.88985 176 L 64.59995 171.3015 L 64.59995 166.3015 M 64.59995 171.3015 L 66.31005 166.6031 L 69.52399 162.7729 M 66.31005 166.6031 L 68.02015 161.9046 M 62.88985 176 L 62.88985 171 L 61.17975 166.3015 M 62.88985 171 L 62.88985 166 L 64.59995 161.3015 M 62.88985 166 L 62.88985 161 M 62.88985 176 L 61.17975 171.3015 L 57.96582 167.4713 M 61.17975 171.3015 L 59.46965 166.6031 L 59.46965 161.6031 M 59.46965 166.6031 L 57.75955 161.9046 M 59.46965 166.6031 L 56.25571 162.7729 L 51.92559 160.2729 M 56.25571 162.7729 L 53.04178 158.9427 L 51.33168 154.2442 M 53.04178 158.9427 L 49.82784 155.1124 M 59.46965 166.6031 L 57.75955 161.9046 L 54.54561 158.0744 M 57.75955 161.9046 L 56.04945 157.2062 L 56.04945 152.2062 M 56.04945 157.2062 L 54.33935 152.5077 M 56.04945 157.2062 L 56.04945 152.2062 L 54.33935 147.5077 M 56.04945 152.2062 L 56.04945 147.2062 L 57.75955 142.5077 M 56.04945 147.2062 L 56.04945 142.2062 M 56.04945 157.2062 L 54.33935 152.5077 L 51.12541 148.6775 M 54.33935 152.5077 L 52.62925 147.8093 L 52.62925 142.8093 M 52.62925 147.8093 L 50.91915 143.1108 M 62.88985 176 L 62.88985 171 L 61.17975 166.3015 M 62.88985 171 L 62.88985 166 L 64.59995 161.3015 M 62.88985 166 L 62.88985 161 M 62.88985 166 L 61.17975 161.3015 L 57.96581 157.4713 M 61.17975 161.3015 L 59.46965 156.6031 L 59.46965 151.6031 M 59.46965 156.6031 L 57.75955 151.9046 M 62.88985 166 L 62.88985 161 L 61.17975 156.3015 M 62.88985 161 L 62.88985 156 L 64.59995 151.3015 M 62.88985 156 L 62.88985 151 M 62.88985 156 L 64.59995 151.3015 L 64.59995 146.3015 M 64.59995 151.3015 L 66.31005 146.6031 L 69.52399 142.7729 M 66.31005 146.6031 L 68.02015 141.9046 M 62.88985 156 L 62.88985 151 L 61.17975 146.3015 M 62.88985 151 L 62.88985 146 L 64.59995 141.3015 M 62.88985 146 L 62.88985 141 M 62.88985 156 L 64.59995 151.3015 L 64.59995 146.3015 M 64.59995 151.3015 L 66.31005 146.6031 L 69.52399 142.7729 M 66.31005 146.6031 L 68.02015 141.9046 M 66.31005 146.6031 L 66.31005 141.6031 L 64.59995 136.9046 M 66.31005 141.6031 L 66.31005 136.6031 L 68.02015 131.9046 M 66.31005 136.6031 L 66.31005 131.6031 M 66.31005 146.6031 L 68.02015 141.9046 L 68.02015 136.9046 M 68.02015 141.9046 L 69.73025 137.2062 L 72.94419 133.376 M 69.73025 137.2062 L 71.44035 132.5077 M 69.73025 137.2062 L 72.94419 133.376 L 74.65429 128.6775 M 72.94419 133.376 L 76.15813 129.5457 L 80.48826 127.0457 M 76.15813 129.5457 L 79.37207 125.7155 M 69.73025 137.2062 L 71.44035 132.5077 L 71.44035 127.5077 M 71.44035 132.5077 L 73.15045 127.8093 L 76.36439 123.979 M 73.15045 127.8093 L 74.86055 123.1108 M 62.88985 156 L 62.88985 151 L 61.17975 146.3015 M 62.88985 151 L 62.88985 146 L 64.59995 141.3015 M 62.88985 146 L 62.88985 141 M 62.88985 146 L 61.17975 141.3015 L 57.96581 137.4713 M 61.17975 141.3015 L 59.46965 136.6031 L 59.46965 131.6031 M 59.46965 136.6031 L 57.75955 131.9046 M 62.88985 146 L 62.88985 141 L 61.17975 136.3015 M 62.88985 141 L 62.88985 136 L 64.59995 131.3015 M 62.88985 136 L 62.88985 131 M 62.88985 136 L 64.59995 131.3015 L 64.59995 126.3015 M 64.59995 131.3015 L 66.31005 126.6031 L 69.52399 122.7729 M 66.31005 126.6031 L 68.02015 121.9046 M 62.88985 136 L 62.88985 131 L 61.17975 126.3015 M 62.88985 131 L 62.88985 126 L 64.59995 121.3015 M 62.88985 126 L 62.88985 121 M 62.88985 156 L 64.59995 151.3015 L 64.59995 146.3015 M 64.59995 151.3015 L 66.31005 146.6031 L 69.52399 142.7729 M 66.31005 146.6031 L 68.02015 141.9046 M 66.31005 146.6031 L 66.31005 141.6031 L 64.59995 136.9046 M 66.31005 141.6031 L 66.31005 136.6031 L 68.02015 131.9046 M 66.31005 136.6031 L 66.31005 131.6031 M 66.31005 146.6031 L 68.02015 141.9046 L 68.02015 136.9046 M 68.02015 141.9046 L 69.73025 137.2062 L 72.94419 133.376 M 69.73025 137.2062 L 71.44035 132.5077 M 69.73025 137.2062 L 72.94419 133.376 L 74.65429 128.6775 M 72.94419 133.376 L 76.15813 129.5457 L 80.48826 127.0457 M 76.15813 129.5457 L 79.37207 125.7155 M 69.73025 137.2062 L 71.44035 132.5077 L 71.44035 127.5077 M 71.44035 132.5077 L 73.15045 127.8093 L 76.36439 123.979 M 73.15045 127.8093 L 74.86055 123.1108 M 69.73025 137.2062 L 69.73025 132.2062 L 68.02015 127.5077 M 69.73025 132.2062 L 69.73025 127.2062 L 71.44035 122.5077 M 69.73025 127.2062 L 69.73025 122.2062 M 69.73025 127.2062 L 68.02015 122.5077 L 64.80622 118.6775 M 68.02015 122.5077 L 66.31005 117.8093 L 66.31005 112.8093 M 66.31005 117.8093 L 64.59995 113.1108 M 69.73025 127.2062 L 69.73025 122.2062 L 68.02015 117.5077 M 69.73025 122.2062 L 69.73025 117.2062 L 71.44035 112.5077 M 69.73025 117.2062 L 69.73025 112.2062 M 69.73025 117.2062 L 71.44035 112.5077 L 71.44035 107.5077 M 71.44035 112.5077 L 73.15045 107.8093 L 76.36439 103.979 M 73.15045 107.8093 L 74.86055 103.1108 M 69.73025 117.2062 L 69.73025 112.2062 L 68.02015 107.5077 M 69.73025 112.2062 L 69.73025 107.2062 L 71.44035 102.5077 M 69.73025 107.2062 L 69.73025 102.2062 M 69.73025 137.2062 L 71.44035 132.5077 L 71.44035 127.5077 M 71.44035 132.5077 L 73.15045 127.8093 L 76.36439 123.979 M 73.15045 127.8093 L 74.86055 123.1108 M 73.15045 127.8093 L 73.15045 122.8093 L 71.44035 118.1108 M 73.15045 122.8093 L 73.15045 117.8093 L 74.86055 113.1108 M 73.15045 117.8093 L 73.15045 112.8093 M 73.15045 127.8093 L 74.86055 123.1108 L 74.86055 118.1108 M 74.86055 123.1108 L 76.57065 118.4124 L 79.78459 114.5821 M 76.57065 118.4124 L 78.28075 113.7139 M 76.57065 118.4124 L 79.78459 114.5821 L 81.49469 109.8837 M 79.78459 114.5821 L 82.99853 110.7519 L 87.32866 108.2519 M 82.99853 110.7519 L 86.21247 106.9217 M 76.57065 118.4124 L 78.28075 113.7139 L 78.28075 108.7139 M 78.28075 113.7139 L 79.99086 109.0154 L 83.20479 105.1852 M 79.99086 109.0154 L 81.70096 104.317 M 76.57065 118.4124 L 79.78459 114.5821 L 81.49469 109.8837 M 79.78459 114.5821 L 82.99853 110.7519 L 87.32866 108.2519 M 82.99853 110.7519 L 86.21247 106.9217 M 82.99853 110.7519 L 84.70863 106.0535 L 84.70863 101.0535 M 84.70863 106.0535 L 86.41873 101.355 L 89.63267 97.5248 M 86.41873 101.355 L 88.12883 96.65656 M 82.99853 110.7519 L 86.21247 106.9217 L 87.92257 102.2233 M 86.21247 106.9217 L 89.42641 103.0915 L 93.75653 100.5915 M 89.42641 103.0915 L 92.64034 99.26128 M 89.42641 103.0915 L 93.75653 100.5915 L 96.97047 96.76128 M 93.75653 100.5915 L 98.08665 98.09149 L 103.0107 97.22325 M 98.08665 98.09149 L 102.4168 95.59149 M 89.42641 103.0915 L 92.64034 99.26128 L 94.35044 94.56282 M 92.64034 99.26128 L 95.85428 95.43106 L 100.1844 92.93106 M 95.85428 95.43106 L 99.06822 91.60085 M 76.57065 118.4124 L 78.28075 113.7139 L 78.28075 108.7139 M 78.28075 113.7139 L 79.99086 109.0154 L 83.20479 105.1852 M 79.99086 109.0154 L 81.70096 104.317 M 79.99086 109.0154 L 79.99086 104.0154 L 78.28076 99.31699 M 79.99086 104.0154 L 79.99086 99.01544 L 81.70096 94.31699 M 79.99086 99.01544 L 79.99086 94.01544 M 79.99086 109.0154 L 81.70096 104.317 L 81.70096 99.31699 M 81.70096 104.317 L 83.41106 99.61853 L 86.62498 95.78831 M 83.41106 99.61853 L 85.12115 94.92007 M 83.41106 99.61853 L 86.62498 95.78831 L 88.33509 91.08986 M 86.62498 95.78831 L 89.83893 91.9581 L 94.16906 89.4581 M 89.83893 91.9581 L 93.05287 88.12788 M 83.41106 99.61853 L 85.12115 94.92007 L 85.12115 89.92007 M 85.12115 94.92007 L 86.83126 90.22162 L 90.04519 86.3914 M 86.83126 90.22162 L 88.54136 85.52316 M 62.88985 156 L 62.88985 151 L 61.17975 146.3015 M 62.88985 151 L 62.88985 146 L 64.59995 141.3015 M 62.88985 146 L 62.88985 141 M 62.88985 146 L 61.17975 141.3015 L 57.96581 137.4713 M 61.17975 141.3015 L 59.46965 136.6031 L 59.46965 131.6031 M 59.46965 136.6031 L 57.75955 131.9046 M 62.88985 146 L 62.88985 141 L 61.17975 136.3015 M 62.88985 141 L 62.88985 136 L 64.59995 131.3015 M 62.88985 136 L 62.88985 131 M 62.88985 136 L 64.59995 131.3015 L 64.59995 126.3015 M 64.59995 131.3015 L 66.31005 126.6031 L 69.52399 122.7729 M 66.31005 126.6031 L 68.02015 121.9046 M 62.88985 136 L 62.88985 131 L 61.17975 126.3015 M 62.88985 131 L 62.88985 126 L 64.59995 121.3015 M 62.88985 126 L 62.88985 121 M 62.88985 136 L 61.17975 131.3015 L 57.96581 127.4713 M 61.17975 131.3015 L 59.46965 126.6031 L 59.46965 121.6031 M 59.46965 126.6031 L 57.75955 121.9046 M 59.46965 126.6031 L 56.25571 122.7729 L 51.92559 120.2729 M 56.25571 122.7729 L 53.04177 118.9427 L 51.33167 114.2442 M 53.04177 118.9427 L 49.82784 115.1124 M 59.46965 126.6031 L 57.75955 121.9046 L 54.54561 118.0744 M 57.75955 121.9046 L 56.04945 117.2062 L 56.04945 112.2062 M 56.04945 117.2062 L 54.33935 112.5077 M 56.04945 117.2062 L 56.04945 112.2062 L 54.33935 107.5077 M 56.04945 112.2062 L 56.04945 107.2062 L 57.75955 102.5077 M 56.04945 107.2062 L 56.04945 102.2062 M 56.04945 117.2062 L 54.33935 112.5077 L 51.12541 108.6775 M 54.33935 112.5077 L 52.62925 107.8093 L 52.62925 102.8093 M 52.62925 107.8093 L 50.91915 103.1108 M 62.88985 136 L 62.88985 131 L 61.17975 126.3015 M 62.88985 131 L 62.88985 126 L 64.59995 121.3015 M 62.88985 126 L 62.88985 121 M 62.88985 126 L 61.17975 121.3015 L 57.96581 117.4713 M 61.17975 121.3015 L 59.46965 116.6031 L 59.46965 111.6031 M 59.46965 116.6031 L 57.75955 111.9046 M 62.88985 126 L 62.88985 121 L 61.17975 116.3015 M 62.88985 121 L 62.88985 116 L 64.59995 111.3015 M 62.88985 116 L 62.88985 111 M 62.88985 116 L 64.59995 111.3015 L 64.59995 106.3015 M 64.59995 111.3015 L 66.31005 106.6031 L 69.52399 102.7729 M 66.31005 106.6031 L 68.02015 101.9046 M 62.88985 116 L 62.88985 111 L 61.17975 106.3015 M 62.88985 111 L 62.88985 106 L 64.59995 101.3015 M 62.88985 106 L 62.88985 101 M 62.88985 116 L 64.59995 111.3015 L 64.59995 106.3015 M 64.59995 111.3015 L 66.31005 106.6031 L 69.52399 102.7729 M 66.31005 106.6031 L 68.02015 101.9046 M 66.31005 106.6031 L 66.31005 101.6031 L 64.59995 96.90463 M 66.31005 101.6031 L 66.31005 96.60309 L 68.02015 91.90463 M 66.31005 96.60309 L 66.31005 91.60309 M 66.31005 106.6031 L 68.02015 101.9046 L 68.02015 96.90463 M 68.02015 101.9046 L 69.73025 97.20618 L 72.94419 93.37596 M 69.73025 97.20618 L 71.44035 92.50772 M 69.73025 97.20618 L 72.94419 93.37596 L 74.65429 88.67751 M 72.94419 93.37596 L 76.15813 89.54575 L 80.48826 87.04575 M 76.15813 89.54575 L 79.37207 85.71553 M 69.73025 97.20618 L 71.44035 92.50772 L 71.44035 87.50772 M 71.44035 92.50772 L 73.15045 87.80927 L 76.36439 83.97905 M 73.15045 87.80927 L 74.86055 83.11081 M 62.88985 116 L 62.88985 111 L 61.17975 106.3015 M 62.88985 111 L 62.88985 106 L 64.59995 101.3015 M 62.88985 106 L 62.88985 101 M 62.88985 106 L 61.17975 101.3015 L 57.96581 97.47133 M 61.17975 101.3015 L 59.46965 96.60309 L 59.46965 91.60309 M 59.46965 96.60309 L 57.75955 91.90463 M 62.88985 106 L 62.88985 101 L 61.17975 96.30154 M 62.88985 101 L 62.88985 96 L 64.59995 91.30154 M 62.88985 96 L 62.88985 91 M 62.88985 96 L 64.59995 91.30154 L 64.59995 86.30154 M 64.59995 91.30154 L 66.31005 86.60309 L 69.52399 82.77287 M 66.31005 86.60309 L 68.02015 81.90463 M 62.88985 96 L 62.88985 91 L 61.17975 86.30154 M 62.88985 91 L 62.88985 86 L 64.59995 81.30154 M 62.88985 86 L 62.88985 81 M 62.88985 156 L 64.59995 151.3015 L 64.59995 146.3015 M 64.59995 151.3015 L 66.31005 146.6031 L 69.52399 142.7729 M 66.31005 146.6031 L 68.02015 141.9046 M 66.31005 146.6031 L 66.31005 141.6031 L 64.59995 136.9046 M 66.31005 141.6031 L 66.31005 136.6031 L 68.02015 131.9046 M 66.31005 136.6031 L 66.31005 131.6031 M 66.31005 146.6031 L 68.02015 141.9046 L 68.02015 136.9046 M 68.02015 141.9046 L 69.73025 137.2062 L 72.94419 133.376 M 69.73025 137.2062 L 71.44035 132.5077 M 69.73025 137.2062 L 72.94419 133.376 L 74.65429 128.6775 M 72.94419 133.376 L 76.15813 129.5457 L 80.48826 127.0457 M 76.15813 129.5457 L 79.37207 125.7155 M 69.73025 137.2062 L 71.44035 132.5077 L 71.44035 127.5077 M 71.44035 132.5077 L 73.15045 127.8093 L 76.36439 123.979 M 73.15045 127.8093 L 74.86055 123.1108 M 69.73025 137.2062 L 69.73025 132.2062 L 68.02015 127.5077 M 69.73025 132.2062 L 69.73025 127.2062 L 71.44035 122.5077 M 69.73025 127.2062 L 69.73025 122.2062 M 69.73025 127.2062 L 68.02015 122.5077 L 64.80622 118.6775 M 68.02015 122.5077 L 66.31005 117.8093 L 66.31005 112.8093 M 66.31005 117.8093 L 64.59995 113.1108 M 69.73025 127.2062 L 69.73025 122.2062 L 68.02015 117.5077 M 69.73025 122.2062 L 69.73025 117.2062 L 71.44035 112.5077 M 69.73025 117.2062 L 69.73025 112.2062 M 69.73025 117.2062 L 71.44035 112.5077 L 71.44035 107.5077 M 71.44035 112.5077 L 73.15045 107.8093 L 76.36439 103.979 M 73.15045 107.8093 L 74.86055 103.1108 M 69.73025 117.2062 L 69.73025 112.2062 L 68.02015 107.5077 M 69.73025 112.2062 L 69.73025 107.2062 L 71.44035 102.5077 M 69.73025 107.2062 L 69.73025 102.2062 M 69.73025 137.2062 L 71.44035 132.5077 L 71.44035 127.5077 M 71.44035 132.5077 L 73.15045 127.8093 L 76.36439 123.979 M 73.15045 127.8093 L 74.86055 123.1108 M 73.15045 127.8093 L 73.15045 122.8093 L 71.44035 118.1108 M 73.15045 122.8093 L 73.15045 117.8093 L 74.86055 113.1108 M 73.15045 117.8093 L 73.15045 112.8093 M 73.15045 127.8093 L 74.86055 123.1108 L 74.86055 118.1108 M 74.86055 123.1108 L 76.57065 118.4124 L 79.78459 114.5821 M 76.57065 118.4124 L 78.28075 113.7139 M 76.57065 118.4124 L 79.78459 114.5821 L 81.49469 109.8837 M 79.78459 114.5821 L 82.99853 110.7519 L 87.32866 108.2519 M 82.99853 110.7519 L 86.21247 106.9217 M 76.57065 118.4124 L 78.28075 113.7139 L 78.28075 108.7139 M 78.28075 113.7139 L 79.99086 109.0154 L 83.20479 105.1852 M 79.99086 109.0154 L 81.70096 104.317 M 76.57065 118.4124 L 79.78459 114.5821 L 81.49469 109.8837 M 79.78459 114.5821 L 82.99853 110.7519 L 87.32866 108.2519 M 82.99853 110.7519 L 86.21247 106.9217 M 82.99853 110.7519 L 84.70863 106.0535 L 84.70863 101.0535 M 84.70863 106.0535 L 86.41873 101.355 L 89.63267 97.5248 M 86.41873 101.355 L 88.12883 96.65656 M 82.99853 110.7519 L 86.21247 106.9217 L 87.92257 102.2233 M 86.21247 106.9217 L 89.42641 103.0915 L 93.75653 100.5915 M 89.42641 103.0915 L 92.64034 99.26128 M 89.42641 103.0915 L 93.75653 100.5915 L 96.97047 96.76128 M 93.75653 100.5915 L 98.08665 98.09149 L 103.0107 97.22325 M 98.08665 98.09149 L 102.4168 95.59149 M 89.42641 103.0915 L 92.64034 99.26128 L 94.35044 94.56282 M 92.64034 99.26128 L 95.85428 95.43106 L 100.1844 92.93106 M 95.85428 95.43106 L 99.06822 91.60085 M 76.57065 118.4124 L 78.28075 113.7139 L 78.28075 108.7139 M 78.28075 113.7139 L 79.99086 109.0154 L 83.20479 105.1852 M 79.99086 109.0154 L 81.70096 104.317 M 79.99086 109.0154 L 79.99086 104.0154 L 78.28076 99.31699 M 79.99086 104.0154 L 79.99086 99.01544 L 81.70096 94.31699 M 79.99086 99.01544 L 79.99086 94.01544 M 79.99086 109.0154 L 81.70096 104.317 L 81.70096 99.31699 M 81.70096 104.317 L 83.41106 99.61853 L 86.62498 95.78831 M 83.41106 99.61853 L 85.12115 94.92007 M 83.41106 99.61853 L 86.62498 95.78831 L 88.33509 91.08986 M 86.62498 95.78831 L 89.83893 91.9581 L 94.16906 89.4581 M 89.83893 91.9581 L 93.05287 88.12788 M 83.41106 99.61853 L 85.12115 94.92007 L 85.12115 89.92007 M 85.12115 94.92007 L 86.83126 90.22162 L 90.04519 86.3914 M 86.83126 90.22162 L 88.54136 85.52316 M 76.57065 118.4124 L 76.57065 113.4124 L 74.86055 108.7139 M 76.57065 113.4124 L 76.57065 108.4124 L 78.28075 103.7139 M 76.57065 108.4124 L 76.57065 103.4124 M 76.57065 108.4124 L 74.86055 103.7139 L 71.64662 99.88368 M 74.86055 103.7139 L 73.15045 99.01544 L 73.15045 94.01544 M 73.15045 99.01544 L 71.44035 94.31699 M 76.57065 108.4124 L 76.57065 103.4124 L 74.86055 98.7139 M 76.57065 103.4124 L 76.57065 98.41235 L 78.28075 93.7139 M 76.57065 98.41235 L 76.57065 93.41235 M 76.57065 98.41235 L 78.28075 93.7139 L 78.28075 88.7139 M 78.28075 93.7139 L 79.99086 89.01544 L 83.20479 85.18523 M 79.99086 89.01544 L 81.70096 84.31699 M 76.57065 98.41235 L 76.57065 93.41235 L 74.86055 88.7139 M 76.57065 93.41235 L 76.57065 88.41235 L 78.28075 83.7139 M 76.57065 88.41235 L 76.57065 83.41235 M 76.57065 98.41235 L 74.86055 93.7139 L 71.64662 89.88368 M 74.86055 93.7139 L 73.15045 89.01544 L 73.15045 84.01544 M 73.15045 89.01544 L 71.44035 84.31699 M 73.15045 89.01544 L 69.93652 85.18523 L 65.60639 82.68523 M 69.93652 85.18523 L 66.72258 81.35501 L 65.01248 76.65656 M 66.72258 81.35501 L 63.50864 77.5248 M 73.15045 89.01544 L 71.44035 84.31699 L 68.22642 80.48677 M 71.44035 84.31699 L 69.73025 79.61853 L 69.73025 74.61853 M 69.73025 79.61853 L 68.02015 74.92007 M 69.73025 79.61853 L 69.73025 74.61853 L 68.02015 69.92007 M 69.73025 74.61853 L 69.73025 69.61853 L 71.44035 64.92007 M 69.73025 69.61853 L 69.73025 64.61853 M 69.73025 79.61853 L 68.02015 74.92007 L 64.80621 71.08986 M 68.02015 74.92007 L 66.31005 70.22162 L 66.31005 65.22162 M 66.31005 70.22162 L 64.59995 65.52316 M 76.57065 98.41235 L 76.57065 93.41235 L 74.86055 88.7139 M 76.57065 93.41235 L 76.57065 88.41235 L 78.28075 83.7139 M 76.57065 88.41235 L 76.57065 83.41235 M 76.57065 88.41235 L 74.86055 83.7139 L 71.64662 79.88368 M 74.86055 83.7139 L 73.15045 79.01544 L 73.15045 74.01544 M 73.15045 79.01544 L 71.44035 74.31699 M 76.57065 88.41235 L 76.57065 83.41235 L 74.86055 78.7139 M 76.57065 83.41235 L 76.57065 78.41235 L 78.28075 73.7139 M 76.57065 78.41235 L 76.57065 73.41235 M 76.57065 78.41235 L 78.28075 73.7139 L 78.28075 68.7139 M 78.28075 73.7139 L 79.99086 69.01544 L 83.20479 65.18523 M 79.99086 69.01544 L 81.70096 64.31699 M 76.57065 78.41235 L 76.57065 73.41235 L 74.86055 68.7139 M 76.57065 73.41235 L 76.57065 68.41235 L 78.28075 63.7139 M 76.57065 68.41235 L 76.57065 63.41235 M 76.57065 78.41235 L 78.28075 73.7139 L 78.28075 68.7139 M 78.28075 73.7139 L 79.99086 69.01544 L 83.20479 65.18523 M 79.99086 69.01544 L 81.70096 64.31699 M 79.99086 69.01544 L 79.99086 64.01544 L 78.28076 59.31699 M 79.99086 64.01544 L 79.99086 59.01544 L 81.70096 54.31699 M 79.99086 59.01544 L 79.99086 54.01544 M 79.99086 69.01544 L 81.70096 64.31699 L 81.70096 59.31699 M 81.70096 64.31699 L 83.41106 59.61853 L 86.62498 55.7883 M 83.41106 59.61853 L 85.12115 54.92007 M 83.41106 59.61853 L 86.62498 55.7883 L 88.33509 51.08984 M 86.62498 55.7883 L 89.83893 51.95807 L 94.16906 49.45807 M 89.83893 51.95807 L 93.05287 48.12784 M 83.41106 59.61853 L 85.12115 54.92007 L 85.12115 49.92007 M 85.12115 54.92007 L 86.83126 50.22162 L 90.04519 46.39139 M 86.83126 50.22162 L 88.54136 45.52316 M 76.57065 78.41235 L 76.57065 73.41235 L 74.86055 68.7139 M 76.57065 73.41235 L 76.57065 68.41235 L 78.28075 63.7139 M 76.57065 68.41235 L 76.57065 63.41235 M 76.57065 68.41235 L 74.86055 63.7139 L 71.64662 59.88367 M 74.86055 63.7139 L 73.15045 59.01544 L 73.15045 54.01544 M 73.15045 59.01544 L 71.44035 54.31699 M 76.57065 68.41235 L 76.57065 63.41235 L 74.86055 58.7139 M 76.57065 63.41235 L 76.57065 58.41235 L 78.28075 53.7139 M 76.57065 58.41235 L 76.57065 53.41235 M 76.57065 58.41235 L 78.28075 53.7139 L 78.28075 48.7139 M 78.28075 53.7139 L 79.99086 49.01544 L 83.20479 45.18521 M 79.99086 49.01544 L 81.70096 44.31699 M 76.57065 58.41235 L 76.57065 53.41235 L 74.86055 48.7139 M 76.57065 53.41235 L 76.57065 48.41235 L 78.28075 43.7139 M 76.57065 48.41235 L 76.57065 43.41235 M 76.57065 118.4124 L 78.28075 113.7139 L 78.28075 108.7139 M 78.28075 113.7139 L 79.99086 109.0154 L 83.20479 105.1852 M 79.99086 109.0154 L 81.70096 104.317 M 79.99086 109.0154 L 79.99086 104.0154 L 78.28076 99.31699 M 79.99086 104.0154 L 79.99086 99.01544 L 81.70096 94.31699 M 79.99086 99.01544 L 79.99086 94.01544 M 79.99086 109.0154 L 81.70096 104.317 L 81.70096 99.31699 M 81.70096 104.317 L 83.41106 99.61853 L 86.62498 95.78831 M 83.41106 99.61853 L 85.12115 94.92007 M 83.41106 99.61853 L 86.62498 95.78831 L 88.33509 91.08986 M 86.62498 95.78831 L 89.83893 91.9581 L 94.16906 89.4581 M 89.83893 91.9581 L 93.05287 88.12788 M 83.41106 99.61853 L 85.12115 94.92007 L 85.12115 89.92007 M 85.12115 94.92007 L 86.83126 90.22162 L 90.04519 86.3914 M 86.83126 90.22162 L 88.54136 85.52316 M 83.41106 99.61853 L 83.41106 94.61853 L 81.70096 89.92007 M 83.41106 94.61853 L 83.41106 89.61853 L 85.12115 84.92007 M 83.41106 89.61853 L 83.41106 84.61853 M 83.41106 89.61853 L 81.70096 84.92007 L 78.48701 81.08986 M 81.70096 84.92007 L 79.99086 80.22162 L 79.99086 75.22162 M 79.99086 80.22162 L 78.28076 75.52316 M 83.41106 89.61853 L 83.41106 84.61853 L 81.70096 79.92007 M 83.41106 84.61853 L 83.41106 79.61853 L 85.12115 74.92007 M 83.41106 79.61853 L 83.41106 74.61853 M 83.41106 79.61853 L 85.12115 74.92007 L 85.12115 69.92007 M 85.12115 74.92007 L 86.83126 70.22162 L 90.04519 66.3914 M 86.83126 70.22162 L 88.54136 65.52316 M 83.41106 79.61853 L 83.41106 74.61853 L 81.70096 69.92007 M 83.41106 74.61853 L 83.41106 69.61853 L 85.12115 64.92007 M 83.41106 69.61853 L 83.41106 64.61853 M 83.41106 99.61853 L 85.12115 94.92007 L 85.12115 89.92007 M 85.12115 94.92007 L 86.83126 90.22162 L 90.04519 86.3914 M 86.83126 90.22162 L 88.54136 85.52316 M 86.83126 90.22162 L 86.83126 85.22162 L 85.12115 80.52316 M 86.83126 85.22162 L 86.83126 80.22162 L 88.54136 75.52316 M 86.83126 80.22162 L 86.83126 75.22162 M 86.83126 90.22162 L 88.54136 85.52316 L 88.54136 80.52316 M 88.54136 85.52316 L 90.25146 80.82471 L 93.46539 76.99449 M 90.25146 80.82471 L 91.96156 76.12625 M 90.25146 80.82471 L 93.46539 76.99449 L 95.1755 72.29604 M 93.46539 76.99449 L 96.67933 73.16428 L 101.0095 70.66428 M 96.67933 73.16428 L 99.89326 69.33406 M 90.25146 80.82471 L 91.96156 76.12625 L 91.96156 71.12625 M 91.96156 76.12625 L 93.67166 71.4278 L 96.8856 67.59758 M 93.67166 71.4278 L 95.38176 66.72934 M 90.25146 80.82471 L 93.46539 76.99449 L 95.1755 72.29604 M 93.46539 76.99449 L 96.67933 73.16428 L 101.0095 70.66428 M 96.67933 73.16428 L 99.89326 69.33406 M 96.67933 73.16428 L 98.38943 68.46582 L 98.38943 63.46582 M 98.38943 68.46582 L 100.0995 63.76736 L 103.3135 59.93713 M 100.0995 63.76736 L 101.8096 59.06891 M 96.67933 73.16428 L 99.89326 69.33406 L 101.6034 64.6356 M 99.89326 69.33406 L 103.1072 65.50385 L 107.4373 63.00385 M 103.1072 65.50385 L 106.3211 61.67363 M 103.1072 65.50385 L 107.4373 63.00385 L 110.6513 59.17361 M 107.4373 63.00385 L 111.7675 60.50385 L 116.6915 59.63559 M 111.7675 60.50385 L 116.0976 58.00385 M 103.1072 65.50385 L 106.3211 61.67363 L 108.0312 56.97516 M 106.3211 61.67363 L 109.5351 57.84341 L 113.8652 55.34341 M 109.5351 57.84341 L 112.749 54.01318 M 90.25146 80.82471 L 91.96156 76.12625 L 91.96156 71.12625 M 91.96156 76.12625 L 93.67166 71.4278 L 96.8856 67.59758 M 93.67166 71.4278 L 95.38176 66.72934 M 93.67166 71.4278 L 93.67166 66.4278 L 91.96156 61.72934 M 93.67166 66.4278 L 93.67166 61.4278 L 95.38176 56.72934 M 93.67166 61.4278 L 93.67166 56.4278 M 93.67166 71.4278 L 95.38176 66.72934 L 95.38176 61.72934 M 95.38176 66.72934 L 97.09186 62.03088 L 100.3058 58.20065 M 97.09186 62.03088 L 98.80196 57.33243 M 97.09186 62.03088 L 100.3058 58.20065 L 102.0159 53.5022 M 100.3058 58.20065 L 103.5197 54.37042 L 107.8499 51.87042 M 103.5197 54.37042 L 106.7337 50.54019 M 97.09186 62.03088 L 98.80196 57.33243 L 98.80196 52.33243 M 98.80196 57.33243 L 100.5121 52.63397 L 103.726 48.80374 M 100.5121 52.63397 L 102.2222 47.93552 M 90.25146 80.82471 L 93.46539 76.99449 L 95.1755 72.29604 M 93.46539 76.99449 L 96.67933 73.16428 L 101.0095 70.66428 M 96.67933 73.16428 L 99.89326 69.33406 M 96.67933 73.16428 L 98.38943 68.46582 L 98.38943 63.46582 M 98.38943 68.46582 L 100.0995 63.76736 L 103.3135 59.93713 M 100.0995 63.76736 L 101.8096 59.06891 M 96.67933 73.16428 L 99.89326 69.33406 L 101.6034 64.6356 M 99.89326 69.33406 L 103.1072 65.50385 L 107.4373 63.00385 M 103.1072 65.50385 L 106.3211 61.67363 M 103.1072 65.50385 L 107.4373 63.00385 L 110.6513 59.17361 M 107.4373 63.00385 L 111.7675 60.50385 L 116.6915 59.63559 M 111.7675 60.50385 L 116.0976 58.00385 M 103.1072 65.50385 L 106.3211 61.67363 L 108.0312 56.97516 M 106.3211 61.67363 L 109.5351 57.84341 L 113.8652 55.34341 M 109.5351 57.84341 L 112.749 54.01318 M 103.1072 65.50385 L 104.8173 60.80539 L 104.8173 55.80539 M 104.8173 60.80539 L 106.5274 56.10693 L 109.7413 52.2767 M 106.5274 56.10693 L 108.2375 51.40848 M 106.5274 56.10693 L 106.5274 51.10693 L 104.8173 46.40848 M 106.5274 51.10693 L 106.5274 46.10693 L 108.2375 41.40848 M 106.5274 46.10693 L 106.5274 41.10693 M 106.5274 56.10693 L 108.2375 51.40848 L 108.2375 46.40848 M 108.2375 51.40848 L 109.9476 46.71002 L 113.1615 42.87979 M 109.9476 46.71002 L 111.6577 42.01157 M 109.9476 46.71002 L 113.1615 42.87979 L 114.8716 38.18134 M 113.1615 42.87979 L 116.3755 39.04956 L 120.7056 36.54956 M 116.3755 39.04956 L 119.5894 35.21933 M 109.9476 46.71002 L 111.6577 42.01157 L 111.6577 37.01157 M 111.6577 42.01157 L 113.3678 37.31311 L 116.5817 33.48288 M 113.3678 37.31311 L 115.0779 32.61465 M 103.1072 65.50385 L 106.3211 61.67363 L 108.0312 56.97516 M 106.3211 61.67363 L 109.5351 57.84341 L 113.8652 55.34341 M 109.5351 57.84341 L 112.749 54.01318 M 109.5351 57.84341 L 111.2452 53.14496 L 111.2452 48.14496 M 111.2452 53.14496 L 112.9553 48.4465 L 116.1692 44.61627 M 112.9553 48.4465 L 114.6654 43.74805 M 109.5351 57.84341 L 112.749 54.01318 L 114.4591 49.31473 M 112.749 54.01318 L 115.963 50.18295 L 120.2931 47.68295 M 115.963 50.18295 L 119.1769 46.35272 M 115.963 50.18295 L 120.2931 47.68295 L 123.507 43.85272 M 120.2931 47.68295 L 124.6232 45.18295 L 129.5472 44.3147 M 124.6232 45.18295 L 128.9533 42.68295 M 115.963 50.18295 L 119.1769 46.35272 L 120.887 41.65427 M 119.1769 46.35272 L 122.3908 42.52249 L 126.7209 40.02249 M 122.3908 42.52249 L 125.6048 38.69226 M 115.963 50.18295 L 120.2931 47.68295 L 123.507 43.85272 M 120.2931 47.68295 L 124.6232 45.18295 L 129.5472 44.3147 M 124.6232 45.18295 L 128.9533 42.68295 M 124.6232 45.18295 L 127.8371 41.35272 L 129.5472 36.65427 M 127.8371 41.35272 L 131.0511 37.52249 L 135.3812 35.02249 M 131.0511 37.52249 L 134.265 33.69226 M 124.6232 45.18295 L 128.9533 42.68295 L 132.1673 38.85272 M 128.9533 42.68295 L 133.2834 40.18295 L 138.2075 39.3147 M 133.2834 40.18295 L 137.6136 37.68295 M 133.2834 40.18295 L 138.2075 39.3147 L 142.5376 36.8147 M 138.2075 39.3147 L 143.1315 38.44644 L 148.0556 39.3147 M 143.1315 38.44644 L 148.0556 37.57819 M 133.2834 40.18295 L 137.6136 37.68295 L 140.8275 33.85272 M 137.6136 37.68295 L 141.9437 35.18295 L 146.8677 34.3147 M 141.9437 35.18295 L 146.2738 32.68295 M 115.963 50.18295 L 119.1769 46.35272 L 120.887 41.65427 M 119.1769 46.35272 L 122.3908 42.52249 L 126.7209 40.02249 M 122.3908 42.52249 L 125.6048 38.69226 M 122.3908 42.52249 L 124.1009 37.82404 L 124.1009 32.82404 M 124.1009 37.82404 L 125.811 33.12558 L 129.025 29.29535 M 125.811 33.12558 L 127.5211 28.42712 M 122.3908 42.52249 L 125.6048 38.69226 L 127.3149 33.9938 M 125.6048 38.69226 L 128.8187 34.86203 L 133.1488 32.36203 M 128.8187 34.86203 L 132.0326 31.0318 M 128.8187 34.86203 L 133.1488 32.36203 L 136.3627 28.5318 M 133.1488 32.36203 L 137.4789 29.86203 L 142.403 28.99377 M 137.4789 29.86203 L 141.8091 27.36203 M 128.8187 34.86203 L 132.0326 31.0318 L 133.7427 26.33334 M 132.0326 31.0318 L 135.2466 27.20157 L 139.5767 24.70157 M 135.2466 27.20157 L 138.4605 23.37134 M 90.25146 80.82471 L 91.96156 76.12625 L 91.96156 71.12625 M 91.96156 76.12625 L 93.67166 71.4278 L 96.8856 67.59758 M 93.67166 71.4278 L 95.38176 66.72934 M 93.67166 71.4278 L 93.67166 66.4278 L 91.96156 61.72934 M 93.67166 66.4278 L 93.67166 61.4278 L 95.38176 56.72934 M 93.67166 61.4278 L 93.67166 56.4278 M 93.67166 71.4278 L 95.38176 66.72934 L 95.38176 61.72934 M 95.38176 66.72934 L 97.09186 62.03088 L 100.3058 58.20065 M 97.09186 62.03088 L 98.80196 57.33243 M 97.09186 62.03088 L 100.3058 58.20065 L 102.0159 53.5022 M 100.3058 58.20065 L 103.5197 54.37042 L 107.8499 51.87042 M 103.5197 54.37042 L 106.7337 50.54019 M 97.09186 62.03088 L 98.80196 57.33243 L 98.80196 52.33243 M 98.80196 57.33243 L 100.5121 52.63397 L 103.726 48.80374 M 100.5121 52.63397 L 102.2222 47.93552 M 97.09186 62.03088 L 97.09186 57.03088 L 95.38176 52.33243 M 97.09186 57.03088 L 97.09186 52.03088 L 98.80196 47.33243 M 97.09186 52.03088 L 97.09186 47.03088 M 97.09186 52.03088 L 95.38176 47.33243 L 92.16782 43.5022 M 95.38176 47.33243 L 93.67166 42.63397 L 93.67166 37.63397 M 93.67166 42.63397 L 91.96156 37.93552 M 97.09186 52.03088 L 97.09186 47.03088 L 95.38176 42.33243 M 97.09186 47.03088 L 97.09186 42.03088 L 98.80196 37.33243 M 97.09186 42.03088 L 97.09186 37.03088 M 97.09186 42.03088 L 98.80196 37.33243 L 98.80196 32.33243 M 98.80196 37.33243 L 100.5121 32.63397 L 103.726 28.80374 M 100.5121 32.63397 L 102.2222 27.93552 M 97.09186 42.03088 L 97.09186 37.03088 L 95.38176 32.33243 M 97.09186 37.03088 L 97.09186 32.03088 L 98.80196 27.33243 M 97.09186 32.03088 L 97.09186 27.03088 M 97.09186 62.03088 L 98.80196 57.33243 L 98.80196 52.33243 M 98.80196 57.33243 L 100.5121 52.63397 L 103.726 48.80374 M 100.5121 52.63397 L 102.2222 47.93552 M 100.5121 52.63397 L 100.5121 47.63397 L 98.80196 42.93552 M 100.5121 47.63397 L 100.5121 42.63397 L 102.2222 37.93552 M 100.5121 42.63397 L 100.5121 37.63397 M 100.5121 52.63397 L 102.2222 47.93552 L 102.2222 42.93552 M 102.2222 47.93552 L 103.9323 43.23706 L 107.1462 39.40683 M 103.9323 43.23706 L 105.6424 38.5386 M 103.9323 43.23706 L 107.1462 39.40683 L 108.8563 34.70837 M 107.1462 39.40683 L 110.3601 35.5766 L 114.6903 33.0766 M 110.3601 35.5766 L 113.5741 31.74637 M 103.9323 43.23706 L 105.6424 38.5386 L 105.6424 33.5386 M 105.6424 38.5386 L 107.3525 33.84015 L 110.5664 30.00992 M 107.3525 33.84015 L 109.0626 29.14169 M 103.9323 43.23706 L 107.1462 39.40683 L 108.8563 34.70837 M 107.1462 39.40683 L 110.3601 35.5766 L 114.6903 33.0766 M 110.3601 35.5766 L 113.5741 31.74637 M 110.3601 35.5766 L 112.0703 30.87814 L 112.0703 25.87814 M 112.0703 30.87814 L 113.7803 26.17969 L 116.9943 22.34946 M 113.7803 26.17969 L 115.4904 21.48123 M 110.3601 35.5766 L 113.5741 31.74637 L 115.2842 27.04791 M 113.5741 31.74637 L 116.788 27.91614 L 121.1181 25.41614 M 116.788 27.91614 L 120.002 24.08591 M 116.788 27.91614 L 121.1181 25.41614 L 124.3321 21.58591 M 121.1181 25.41614 L 125.4483 22.91614 L 130.3723 22.04788 M 125.4483 22.91614 L 129.7784 20.41614 M 116.788 27.91614 L 120.002 24.08591 L 121.7121 19.38745 M 120.002 24.08591 L 123.2159 20.25568 L 127.546 17.75568 M 123.2159 20.25568 L 126.4298 16.42545 M 103.9323 43.23706 L 105.6424 38.5386 L 105.6424 33.5386 M 105.6424 38.5386 L 107.3525 33.84015 L 110.5664 30.00992 M 107.3525 33.84015 L 109.0626 29.14169 M 107.3525 33.84015 L 107.3525 28.84015 L 105.6424 24.14169 M 107.3525 28.84015 L 107.3525 23.84015 L 109.0626 19.14169 M 107.3525 23.84015 L 107.3525 18.84015 M 107.3525 33.84015 L 109.0626 29.14169 L 109.0626 24.14169 M 109.0626 29.14169 L 110.7727 24.44324 L 113.9866 20.61301 M 110.7727 24.44324 L 112.4828 19.74478 M 110.7727 24.44324 L 113.9866 20.61301 L 115.6967 15.91455 M 113.9866 20.61301 L 117.2005 16.78278 L 121.5307 14.28278 M 117.2005 16.78278 L 120.4145 12.95255 M 110.7727 24.44324 L 112.4828 19.74478 L 112.4828 14.74478 M 112.4828 19.74478 L 114.1929 15.04633 L 117.4068 11.21609 M 114.1929 15.04633 L 115.903 10.34787 M 62.88985 156 L 62.88985 151 L 61.17975 146.3015 M 62.88985 151 L 62.88985 146 L 64.59995 141.3015 M 62.88985 146 L 62.88985 141 M 62.88985 146 L 61.17975 141.3015 L 57.96581 137.4713 M 61.17975 141.3015 L 59.46965 136.6031 L 59.46965 131.6031 M 59.46965 136.6031 L 57.75955 131.9046 M 62.88985 146 L 62.88985 141 L 61.17975 136.3015 M 62.88985 141 L 62.88985 136 L 64.59995 131.3015 M 62.88985 136 L 62.88985 131 M 62.88985 136 L 64.59995 131.3015 L 64.59995 126.3015 M 64.59995 131.3015 L 66.31005 126.6031 L 69.52399 122.7729 M 66.31005 126.6031 L 68.02015 121.9046 M 62.88985 136 L 62.88985 131 L 61.17975 126.3015 M 62.88985 131 L 62.88985 126 L 64.59995 121.3015 M 62.88985 126 L 62.88985 121 M 62.88985 136 L 61.17975 131.3015 L 57.96581 127.4713 M 61.17975 131.3015 L 59.46965 126.6031 L 59.46965 121.6031 M 59.46965 126.6031 L 57.75955 121.9046 M 59.46965 126.6031 L 56.25571 122.7729 L 51.92559 120.2729 M 56.25571 122.7729 L 53.04177 118.9427 L 51.33167 114.2442 M 53.04177 118.9427 L 49.82784 115.1124 M 59.46965 126.6031 L 57.75955 121.9046 L 54.54561 118.0744 M 57.75955 121.9046 L 56.04945 117.2062 L 56.04945 112.2062 M 56.04945 117.2062 L 54.33935 112.5077 M 56.04945 117.2062 L 56.04945 112.2062 L 54.33935 107.5077 M 56.04945 112.2062 L 56.04945 107.2062 L 57.75955 102.5077 M 56.04945 107.2062 L 56.04945 102.2062 M 56.04945 117.2062 L 54.33935 112.5077 L 51.12541 108.6775 M 54.33935 112.5077 L 52.62925 107.8093 L 52.62925 102.8093 M 52.62925 107.8093 L 50.91915 103.1108 M 62.88985 136 L 62.88985 131 L 61.17975 126.3015 M 62.88985 131 L 62.88985 126 L 64.59995 121.3015 M 62.88985 126 L 62.88985 121 M 62.88985 126 L 61.17975 121.3015 L 57.96581 117.4713 M 61.17975 121.3015 L 59.46965 116.6031 L 59.46965 111.6031 M 59.46965 116.6031 L 57.75955 111.9046 M 62.88985 126 L 62.88985 121 L 61.17975 116.3015 M 62.88985 121 L 62.88985 116 L 64.59995 111.3015 M 62.88985 116 L 62.88985 111 M 62.88985 116 L 64.59995 111.3015 L 64.59995 106.3015 M 64.59995 111.3015 L 66.31005 106.6031 L 69.52399 102.7729 M 66.31005 106.6031 L 68.02015 101.9046 M 62.88985 116 L 62.88985 111 L 61.17975 106.3015 M 62.88985 111 L 62.88985 106 L 64.59995 101.3015 M 62.88985 106 L 62.88985 101 M 62.88985 116 L 64.59995 111.3015 L 64.59995 106.3015 M 64.59995 111.3015 L 66.31005 106.6031 L 69.52399 102.7729 M 66.31005 106.6031 L 68.02015 101.9046 M 66.31005 106.6031 L 66.31005 101.6031 L 64.59995 96.90463 M 66.31005 101.6031 L 66.31005 96.60309 L 68.02015 91.90463 M 66.31005 96.60309 L 66.31005 91.60309 M 66.31005 106.6031 L 68.02015 101.9046 L 68.02015 96.90463 M 68.02015 101.9046 L 69.73025 97.20618 L 72.94419 93.37596 M 69.73025 97.20618 L 71.44035 92.50772 M 69.73025 97.20618 L 72.94419 93.37596 L 74.65429 88.67751 M 72.94419 93.37596 L 76.15813 89.54575 L 80.48826 87.04575 M 76.15813 89.54575 L 79.37207 85.71553 M 69.73025 97.20618 L 71.44035 92.50772 L 71.44035 87.50772 M 71.44035 92.50772 L 73.15045 87.80927 L 76.36439 83.97905 M 73.15045 87.80927 L 74.86055 83.11081 M 62.88985 116 L 62.88985 111 L 61.17975 106.3015 M 62.88985 111 L 62.88985 106 L 64.59995 101.3015 M 62.88985 106 L 62.88985 101 M 62.88985 106 L 61.17975 101.3015 L 57.96581 97.47133 M 61.17975 101.3015 L 59.46965 96.60309 L 59.46965 91.60309 M 59.46965 96.60309 L 57.75955 91.90463 M 62.88985 106 L 62.88985 101 L 61.17975 96.30154 M 62.88985 101 L 62.88985 96 L 64.59995 91.30154 M 62.88985 96 L 62.88985 91 M 62.88985 96 L 64.59995 91.30154 L 64.59995 86.30154 M 64.59995 91.30154 L 66.31005 86.60309 L 69.52399 82.77287 M 66.31005 86.60309 L 68.02015 81.90463 M 62.88985 96 L 62.88985 91 L 61.17975 86.30154 M 62.88985 91 L 62.88985 86 L 64.59995 81.30154 M 62.88985 86 L 62.88985 81 M 62.88985 116 L 61.17975 111.3015 L 57.96581 107.4713 M 61.17975 111.3015 L 59.46965 106.6031 L 59.46965 101.6031 M 59.46965 106.6031 L 57.75955 101.9046 M 59.46965 106.6031 L 56.25571 102.7729 L 51.92558 100.2729 M 56.25571 102.7729 L 53.04177 98.94266 L 51.33167 94.2442 M 53.04177 98.94266 L 49.82784 95.11244 M 59.46965 106.6031 L 57.75955 101.9046 L 54.54561 98.07442 M 57.75955 101.9046 L 56.04945 97.20618 L 56.04945 92.20618 M 56.04945 97.20618 L 54.33935 92.50772 M 56.04945 97.20618 L 56.04945 92.20618 L 54.33935 87.50772 M 56.04945 92.20618 L 56.04945 87.20618 L 57.75955 82.50772 M 56.04945 87.20618 L 56.04945 82.20618 M 56.04945 97.20618 L 54.33935 92.50772 L 51.12541 88.67751 M 54.33935 92.50772 L 52.62925 87.80927 L 52.62925 82.80927 M 52.62925 87.80927 L 50.91915 83.11081 M 56.04945 97.20618 L 52.83551 93.37596 L 48.50538 90.87596 M 52.83551 93.37596 L 49.62157 89.54575 L 47.91147 84.84729 M 49.62157 89.54575 L 46.40763 85.71553 M 49.62157 89.54575 L 45.29144 87.04575 L 40.36741 86.17751 M 45.29144 87.04575 L 40.96132 84.54575 L 37.74738 80.71553 M 40.96132 84.54575 L 36.63119 82.04575 M 49.62157 89.54575 L 46.40763 85.71553 L 42.07751 83.21553 M 46.40763 85.71553 L 43.1937 81.88531 L 41.4836 77.18686 M 43.1937 81.88531 L 39.97976 78.0551 M 43.1937 81.88531 L 41.4836 77.18686 L 38.26966 73.35664 M 41.4836 77.18686 L 39.7735 72.4884 L 39.7735 67.4884 M 39.7735 72.4884 L 38.0634 67.78995 M 43.1937 81.88531 L 39.97976 78.0551 L 35.64963 75.5551 M 39.97976 78.0551 L 36.76582 74.22488 L 35.05572 69.52643 M 36.76582 74.22488 L 33.55188 70.39467 M 56.04945 97.20618 L 54.33935 92.50772 L 51.12541 88.67751 M 54.33935 92.50772 L 52.62925 87.80927 L 52.62925 82.80927 M 52.62925 87.80927 L 50.91915 83.11081 M 52.62925 87.80927 L 49.41531 83.97905 L 45.08518 81.47905 M 49.41531 83.97905 L 46.20137 80.14883 L 44.49127 75.45038 M 46.20137 80.14883 L 42.98743 76.31862 M 52.62925 87.80927 L 50.91915 83.11081 L 47.70521 79.28059 M 50.91915 83.11081 L 49.20904 78.41235 L 49.20904 73.41235 M 49.20904 78.41235 L 47.49894 73.7139 M 49.20904 78.41235 L 49.20904 73.41235 L 47.49894 68.7139 M 49.20904 73.41235 L 49.20904 68.41235 L 50.91914 63.7139 M 49.20904 68.41235 L 49.20904 63.41235 M 49.20904 78.41235 L 47.49894 73.7139 L 44.28501 69.88368 M 47.49894 73.7139 L 45.78884 69.01544 L 45.78884 64.01544 M 45.78884 69.01544 L 44.07874 64.31699 M 49.20904 78.41235 L 49.20904 73.41235 L 47.49894 68.7139 M 49.20904 73.41235 L 49.20904 68.41235 L 50.91914 63.7139 M 49.20904 68.41235 L 49.20904 63.41235 M 49.20904 68.41235 L 47.49894 63.7139 L 44.28501 59.88367 M 47.49894 63.7139 L 45.78884 59.01544 L 45.78884 54.01544 M 45.78884 59.01544 L 44.07874 54.31699 M 49.20904 68.41235 L 49.20904 63.41235 L 47.49894 58.7139 M 49.20904 63.41235 L 49.20904 58.41235 L 50.91914 53.7139 M 49.20904 58.41235 L 49.20904 53.41235 M 49.20904 58.41235 L 50.91914 53.7139 L 50.91914 48.7139 M 50.91914 53.7139 L 52.62924 49.01544 L 55.84318 45.18521 M 52.62924 49.01544 L 54.33934 44.31699 M 49.20904 58.41235 L 49.20904 53.41235 L 47.49894 48.7139 M 49.20904 53.41235 L 49.20904 48.41235 L 50.91914 43.7139 M 49.20904 48.41235 L 49.20904 43.41235 M 49.20904 78.41235 L 47.49894 73.7139 L 44.28501 69.88368 M 47.49894 73.7139 L 45.78884 69.01544 L 45.78884 64.01544 M 45.78884 69.01544 L 44.07874 64.31699 M 45.78884 69.01544 L 42.57491 65.18523 L 38.24478 62.68523 M 42.57491 65.18523 L 39.36097 61.35501 L 37.65087 56.65656 M 39.36097 61.35501 L 36.14703 57.52478 M 45.78884 69.01544 L 44.07874 64.31699 L 40.86481 60.48677 M 44.07874 64.31699 L 42.36864 59.61853 L 42.36864 54.61853 M 42.36864 59.61853 L 40.65854 54.92007 M 42.36864 59.61853 L 42.36864 54.61853 L 40.65854 49.92007 M 42.36864 54.61853 L 42.36864 49.61853 L 44.07874 44.92007 M 42.36864 49.61853 L 42.36864 44.61853 M 42.36864 59.61853 L 40.65854 54.92007 L 37.4446 51.08984 M 40.65854 54.92007 L 38.94844 50.22162 L 38.94844 45.22162 M 38.94844 50.22162 L 37.23834 45.52316 M 62.88985 116 L 62.88985 111 L 61.17975 106.3015 M 62.88985 111 L 62.88985 106 L 64.59995 101.3015 M 62.88985 106 L 62.88985 101 M 62.88985 106 L 61.17975 101.3015 L 57.96581 97.47133 M 61.17975 101.3015 L 59.46965 96.60309 L 59.46965 91.60309 M 59.46965 96.60309 L 57.75955 91.90463 M 62.88985 106 L 62.88985 101 L 61.17975 96.30154 M 62.88985 101 L 62.88985 96 L 64.59995 91.30154 M 62.88985 96 L 62.88985 91 M 62.88985 96 L 64.59995 91.30154 L 64.59995 86.30154 M 64.59995 91.30154 L 66.31005 86.60309 L 69.52399 82.77287 M 66.31005 86.60309 L 68.02015 81.90463 M 62.88985 96 L 62.88985 91 L 61.17975 86.30154 M 62.88985 91 L 62.88985 86 L 64.59995 81.30154 M 62.88985 86 L 62.88985 81 M 62.88985 96 L 61.17975 91.30154 L 57.96581 87.47133 M 61.17975 91.30154 L 59.46965 86.60309 L 59.46965 81.60309 M 59.46965 86.60309 L 57.75955 81.90463 M 59.46965 86.60309 L 56.25571 82.77287 L 51.92558 80.27287 M 56.25571 82.77287 L 53.04177 78.94266 L 51.33167 74.2442 M 53.04177 78.94266 L 49.82783 75.11244 M 59.46965 86.60309 L 57.75955 81.90463 L 54.54561 78.07442 M 57.75955 81.90463 L 56.04945 77.20618 L 56.04945 72.20618 M 56.04945 77.20618 L 54.33935 72.50772 M 56.04945 77.20618 L 56.04945 72.20618 L 54.33935 67.50772 M 56.04945 72.20618 L 56.04945 67.20618 L 57.75955 62.50772 M 56.04945 67.20618 L 56.04945 62.20618 M 56.04945 77.20618 L 54.33935 72.50772 L 51.12541 68.67751 M 54.33935 72.50772 L 52.62925 67.80927 L 52.62925 62.80927 M 52.62925 67.80927 L 50.91914 63.11081 M 62.88985 96 L 62.88985 91 L 61.17975 86.30154 M 62.88985 91 L 62.88985 86 L 64.59995 81.30154 M 62.88985 86 L 62.88985 81 M 62.88985 86 L 61.17975 81.30154 L 57.96581 77.47133 M 61.17975 81.30154 L 59.46965 76.60309 L 59.46965 71.60309 M 59.46965 76.60309 L 57.75955 71.90463 M 62.88985 86 L 62.88985 81 L 61.17975 76.30154 M 62.88985 81 L 62.88985 76 L 64.59995 71.30154 M 62.88985 76 L 62.88985 71 M 62.88985 76 L 64.59995 71.30154 L 64.59995 66.30154 M 64.59995 71.30154 L 66.31005 66.60309 L 69.52399 62.77287 M 66.31005 66.60309 L 68.02015 61.90463 M 62.88985 76 L 62.88985 71 L 61.17975 66.30154 M 62.88985 71 L 62.88985 66 L 64.59995 61.30154 M 62.88985 66 L 62.88985 61 M 62.88985 76 L 64.59995 71.30154 L 64.59995 66.30154 M 64.59995 71.30154 L 66.31005 66.60309 L 69.52399 62.77287 M 66.31005 66.60309 L 68.02015 61.90463 M 66.31005 66.60309 L 66.31005 61.60309 L 64.59995 56.90463 M 66.31005 61.60309 L 66.31005 56.60309 L 68.02015 51.90463 M 66.31005 56.60309 L 66.31005 51.60309 M 66.31005 66.60309 L 68.02015 61.90463 L 68.02015 56.90463 M 68.02015 61.90463 L 69.73025 57.20618 L 72.94419 53.37595 M 69.73025 57.20618 L 71.44035 52.50772 M 69.73025 57.20618 L 72.94419 53.37595 L 74.65429 48.67749 M 72.94419 53.37595 L 76.15813 49.54572 L 80.48825 47.04572 M 76.15813 49.54572 L 79.37206 45.71548 M 69.73025 57.20618 L 71.44035 52.50772 L 71.44035 47.50772 M 71.44035 52.50772 L 73.15045 47.80927 L 76.36439 43.97903 M 73.15045 47.80927 L 74.86055 43.11081 M 62.88985 76 L 62.88985 71 L 61.17975 66.30154 M 62.88985 71 L 62.88985 66 L 64.59995 61.30154 M 62.88985 66 L 62.88985 61 M 62.88985 66 L 61.17975 61.30154 L 57.96581 57.47131 M 61.17975 61.30154 L 59.46965 56.60309 L 59.46965 51.60309 M 59.46965 56.60309 L 57.75955 51.90463 M 62.88985 66 L 62.88985 61 L 61.17975 56.30154 M 62.88985 61 L 62.88985 56 L 64.59995 51.30154 M 62.88985 56 L 62.88985 51 M 62.88985 56 L 64.59995 51.30154 L 64.59995 46.30154 M 64.59995 51.30154 L 66.31005 46.60309 L 69.52399 42.77286 M 66.31005 46.60309 L 68.02015 41.90463 M 62.88985 56 L 62.88985 51 L 61.17975 46.30154 M 62.88985 51 L 62.88985 46 L 64.59995 41.30154 M 62.88985 46 L 62.88985 41 M 62.88985 76 L 64.59995 71.30154 L 64.59995 66.30154 M 64.59995 71.30154 L 66.31005 66.60309 L 69.52399 62.77287 M 66.31005 66.60309 L 68.02015 61.90463 M 66.31005 66.60309 L 66.31005 61.60309 L 64.59995 56.90463 M 66.31005 61.60309 L 66.31005 56.60309 L 68.02015 51.90463 M 66.31005 56.60309 L 66.31005 51.60309 M 66.31005 66.60309 L 68.02015 61.90463 L 68.02015 56.90463 M 68.02015 61.90463 L 69.73025 57.20618 L 72.94419 53.37595 M 69.73025 57.20618 L 71.44035 52.50772 M 69.73025 57.20618 L 72.94419 53.37595 L 74.65429 48.67749 M 72.94419 53.37595 L 76.15813 49.54572 L 80.48825 47.04572 M 76.15813 49.54572 L 79.37206 45.71548 M 69.73025 57.20618 L 71.44035 52.50772 L 71.44035 47.50772 M 71.44035 52.50772 L 73.15045 47.80927 L 76.36439 43.97903 M 73.15045 47.80927 L 74.86055 43.11081 M 69.73025 57.20618 L 69.73025 52.20618 L 68.02015 47.50772 M 69.73025 52.20618 L 69.73025 47.20618 L 71.44035 42.50772 M 69.73025 47.20618 L 69.73025 42.20618 M 69.73025 47.20618 L 68.02015 42.50772 L 64.80621 38.67749 M 68.02015 42.50772 L 66.31005 37.80927 L 66.31005 32.80927 M 66.31005 37.80927 L 64.59995 33.11081 M 69.73025 47.20618 L 69.73025 42.20618 L 68.02015 37.50772 M 69.73025 42.20618 L 69.73025 37.20618 L 71.44035 32.50772 M 69.73025 37.20618 L 69.73025 32.20618 M 69.73025 37.20618 L 71.44035 32.50772 L 71.44035 27.50772 M 71.44035 32.50772 L 73.15045 27.80927 L 76.36439 23.97903 M 73.15045 27.80927 L 74.86055 23.11081 M 69.73025 37.20618 L 69.73025 32.20618 L 68.02015 27.50772 M 69.73025 32.20618 L 69.73025 27.20618 L 71.44035 22.50772 M 69.73025 27.20618 L 69.73025 22.20618 M 69.73025 57.20618 L 71.44035 52.50772 L 71.44035 47.50772 M 71.44035 52.50772 L 73.15045 47.80927 L 76.36439 43.97903 M 73.15045 47.80927 L 74.86055 43.11081 M 73.15045 47.80927 L 73.15045 42.80927 L 71.44035 38.11081 M 73.15045 42.80927 L 73.15045 37.80927 L 74.86055 33.11081 M 73.15045 37.80927 L 73.15045 32.80927 M 73.15045 47.80927 L 74.86055 43.11081 L 74.86055 38.11081 M 74.86055 43.11081 L 76.57065 38.41235 L 79.78459 34.58212 M 76.57065 38.41235 L 78.28075 33.7139 M 76.57065 38.41235 L 79.78459 34.58212 L 81.49469 29.88367 M 79.78459 34.58212 L 82.99853 30.75189 L 87.32864 28.25189 M 82.99853 30.75189 L 86.21247 26.92166 M 76.57065 38.41235 L 78.28075 33.7139 L 78.28075 28.7139 M 78.28075 33.7139 L 79.99084 29.01544 L 83.20479 25.18521 M 79.99084 29.01544 L 81.70095 24.31699 M 76.57065 38.41235 L 79.78459 34.58212 L 81.49469 29.88367 M 79.78459 34.58212 L 82.99853 30.75189 L 87.32864 28.25189 M 82.99853 30.75189 L 86.21247 26.92166 M 82.99853 30.75189 L 84.70863 26.05344 L 84.70863 21.05344 M 84.70863 26.05344 L 86.41873 21.35498 L 89.63267 17.52475 M 86.41873 21.35498 L 88.12883 16.65652 M 82.99853 30.75189 L 86.21247 26.92166 L 87.92257 22.22321 M 86.21247 26.92166 L 89.4264 23.09143 L 93.75653 20.59143 M 89.4264 23.09143 L 92.64034 19.2612 M 89.4264 23.09143 L 93.75653 20.59143 L 96.97046 16.7612 M 93.75653 20.59143 L 98.08665 18.09143 L 103.0107 17.22318 M 98.08665 18.09143 L 102.4168 15.59143 M 89.4264 23.09143 L 92.64034 19.2612 L 94.35044 14.56274 M 92.64034 19.2612 L 95.85428 15.43097 L 100.1844 12.93097 M 95.85428 15.43097 L 99.06821 11.60074 M 76.57065 38.41235 L 78.28075 33.7139 L 78.28075 28.7139 M 78.28075 33.7139 L 79.99084 29.01544 L 83.20479 25.18521 M 79.99084 29.01544 L 81.70095 24.31699 M 79.99084 29.01544 L 79.99084 24.01544 L 78.28075 19.31699 M 79.99084 24.01544 L 79.99084 19.01544 L 81.70095 14.31699 M 79.99084 19.01544 L 79.99084 14.01544 M 79.99084 29.01544 L 81.70095 24.31699 L 81.70095 19.31699 M 81.70095 24.31699 L 83.41105 19.61853 L 86.62498 15.7883 M 83.41105 19.61853 L 85.12115 14.92007 M 83.41105 19.61853 L 86.62498 15.7883 L 88.33509 11.08984 M 86.62498 15.7883 L 89.83893 11.95807 L 94.16905 9.458069 M 89.83893 11.95807 L 93.05287 8.127838 M 83.41105 19.61853 L 85.12115 14.92007 L 85.12115 9.920074 M 85.12115 14.92007 L 86.83125 10.22162 L 90.04519 6.391388 M 86.83125 10.22162 L 88.54135 5.523163 M 62.88985 76 L 62.88985 71 L 61.17975 66.30154 M 62.88985 71 L 62.88985 66 L 64.59995 61.30154 M 62.88985 66 L 62.88985 61 M 62.88985 66 L 61.17975 61.30154 L 57.96581 57.47131 M 61.17975 61.30154 L 59.46965 56.60309 L 59.46965 51.60309 M 59.46965 56.60309 L 57.75955 51.90463 M 62.88985 66 L 62.88985 61 L 61.17975 56.30154 M 62.88985 61 L 62.88985 56 L 64.59995 51.30154 M 62.88985 56 L 62.88985 51 M 62.88985 56 L 64.59995 51.30154 L 64.59995 46.30154 M 64.59995 51.30154 L 66.31005 46.60309 L 69.52399 42.77286 M 66.31005 46.60309 L 68.02015 41.90463 M 62.88985 56 L 62.88985 51 L 61.17975 46.30154 M 62.88985 51 L 62.88985 46 L 64.59995 41.30154 M 62.88985 46 L 62.88985 41 M 62.88985 56 L 61.17975 51.30154 L 57.96581 47.47131 M 61.17975 51.30154 L 59.46965 46.60309 L 59.46965 41.60309 M 59.46965 46.60309 L 57.75955 41.90463 M 59.46965 46.60309 L 56.25571 42.77286 L 51.92558 40.27286 M 56.25571 42.77286 L 53.04177 38.94263 L 51.33167 34.24417 M 53.04177 38.94263 L 49.82783 35.1124 M 59.46965 46.60309 L 57.75955 41.90463 L 54.54561 38.0744 M 57.75955 41.90463 L 56.04945 37.20618 L 56.04945 32.20618 M 56.04945 37.20618 L 54.33934 32.50772 M 56.04945 37.20618 L 56.04945 32.20618 L 54.33935 27.50772 M 56.04945 32.20618 L 56.04945 27.20618 L 57.75955 22.50772 M 56.04945 27.20618 L 56.04945 22.20618 M 56.04945 37.20618 L 54.33934 32.50772 L 51.12541 28.67749 M 54.33934 32.50772 L 52.62924 27.80927 L 52.62924 22.80927 M 52.62924 27.80927 L 50.91914 23.11081 M 62.88985 56 L 62.88985 51 L 61.17975 46.30154 M 62.88985 51 L 62.88985 46 L 64.59995 41.30154 M 62.88985 46 L 62.88985 41 M 62.88985 46 L 61.17975 41.30154 L 57.96581 37.47131 M 61.17975 41.30154 L 59.46965 36.60309 L 59.46965 31.60309 M 59.46965 36.60309 L 57.75955 31.90463 M 62.88985 46 L 62.88985 41 L 61.17975 36.30154 M 62.88985 41 L 62.88985 36 L 64.59995 31.30154 M 62.88985 36 L 62.88985 31 M 62.88985 36 L 64.59995 31.30154 L 64.59995 26.30154 M 64.59995 31.30154 L 66.31005 26.60309 L 69.52399 22.77286 M 66.31005 26.60309 L 68.02015 21.90463 M 62.88985 36 L 62.88985 31 L 61.17975 26.30154 M 62.88985 31 L 62.88985 26 L 64.59995 21.30154 M 62.88985 26 L 62.88985 21 M 62.88985 36 L 64.59995 31.30154 L 64.59995 26.30154 M 64.59995 31.30154 L 66.31005 26.60309 L 69.52399 22.77286 M 66.31005 26.60309 L 68.02015 21.90463 M 66.31005 26.60309 L 66.31005 21.60309 L 64.59995 16.90463 M 66.31005 21.60309 L 66.31005 16.60309 L 68.02015 11.90463 M 66.31005 16.60309 L 66.31005 11.60309 M 66.31005 26.60309 L 68.02015 21.90463 L 68.02015 16.90463 M 68.02015 21.90463 L 69.73025 17.20618 L 72.94419 13.37595 M 69.73025 17.20618 L 71.44035 12.50772 M 69.73025 17.20618 L 72.94419 13.37595 L 74.65429 8.67749 M 72.94419 13.37595 L 76.15812 9.545715 L 80.48825 7.045715 M 76.15812 9.545715 L 79.37206 5.715485 M 69.73025 17.20618 L 71.44035 12.50772 L 71.44035 7.507721 M 71.44035 12.50772 L 73.15045 7.809265 L 76.36439 3.979034 M 73.15045 7.809265 L 74.86055 3.110809 M 62.88985 36 L 62.88985 31 L 61.17975 26.30154 M 62.88985 31 L 62.88985 26 L 64.59995 21.30154 M 62.88985 26 L 62.88985 21 M 62.88985 26 L 61.17975 21.30154 L 57.96581 17.47131 M 61.17975 21.30154 L 59.46965 16.60309 L 59.46965 11.60309 M 59.46965 16.60309 L 57.75955 11.90463 M 62.88985 26 L 62.88985 21 L 61.17975 16.30154 M 62.88985 21 L 62.88985 16 L 64.59995 11.30154 M 62.88985 16 L 62.88985 11 M 62.88985 16 L 64.59995 11.30154 L 64.59995 6.301544 M 64.59995 11.30154 L 66.31005 6.603088 L 69.52399 2.772858 M 66.31005 6.603088 L 68.02015 1.904633 M 62.88985 16 L 62.88985 11 L 61.17975 6.301544 M 62.88985 11 L 62.88985 6 L 64.59995 1.301544 M 62.88985 6 L 62.88985 1 " />
  </g>
</svg>
