<?xml version="1.0" encoding="UTF-8" standalone="no"?>
<!DOCTYPE svg PUBLIC "-//W3C//DTD SVG 1.1//EN"
    "http://www.w3.org/Graphics/SVG/1.1/DTD/svg11.dtd">
<svg xmlns="http://www.w3.org/2000/svg" width="165" height="488">
  <desc>plant_a LSystem</desc>
  <g stroke="black" fill="none" stroke-width="1">
    <path d="M 71.25291 487 L 71.25291 485 L 70.38559 483.1978 M 71.25291 485 L 71.25291 483 L 72.12022 481.1978 M 71.25291 483 L 71.25291 481 L 70.38559 479.1978 L 68.82255 477.9501 M 70.38559 479.1978 L 69.51826 477.3957 L 69.51826 475.3957 M 69.51826 477.3957 L 68.65095 475.5935 M 71.25291 481 L 71.25291 479 L 70.38559 477.1978 M 71.25291 479 L 71.25291 477 L 72.12022 475.1978 M 71.25291 477 L 71.25291 475 L 72.12022 473.1978 L 72.12022 471.1978 M 72.12022 473.1978 L 72.98755 471.3957 L 74.55058 470.1479 M 72.98755 471.3957 L 73.85487 469.5935 M 71.25291 475 L 71.25291 473 L 70.38559 471.1978 M 71.25291 473 L 71.25291 471 L 72.12022 469.1978 M 71.25291 471 L 71.25291 469 L 70.38559 467.1978 L 68.82255 465.9501 M 70.38559 467.1978 L 69.51826 465.3957 L 69.51826 463.3957 M 69.51826 465.3957 L 68.65095 463.5935 L 67.08791 462.3458 L 65.13839 461.8993 M 67.08791 462.3458 L 65.52486 461.098 L 64.65755 459.2959 M 65.52486 461.098 L 63.96183 459.8503 M 68.65095 463.5935 L 67.78363 461.7914 L 66.22059 460.5436 M 67.78363 461.7914 L 66.91631 459.9892 L 66.91631 457.9892 M 66.91631 459.9892 L 66.04899 458.1871 L 66.04899 456.1871 L 65.18166 454.3849 M 66.04899 456.1871 L 66.04899 454.1871 L 66.91631 452.3849 M 66.04899 454.1871 L 66.04899 452.1871 M 66.04899 458.1871 L 65.18166 456.3849 L 63.61863 455.1371 M 65.18166 456.3849 L 64.31435 454.5828 L 64.31435 452.5828 M 64.31435 454.5828 L 63.44703 452.7806 M 71.25291 469 L 71.25291 467 L 70.38559 465.1978 M 71.25291 467 L 71.25291 465 L 72.12022 463.1978 M 71.25291 465 L 71.25291 463 L 70.38559 461.1978 L 68.82255 459.9501 M 70.38559 461.1978 L 69.51826 459.3957 L 69.51826 457.3957 M 69.51826 459.3957 L 68.65095 457.5935 M 71.25291 463 L 71.25291 461 L 70.38559 459.1978 M 71.25291 461 L 71.25291 459 L 72.12022 457.1978 M 71.25291 459 L 71.25291 457 L 72.12022 455.1978 L 72.12022 453.1978 M 72.12022 455.1978 L 72.98755 453.3957 L 74.55058 452.1479 M 72.98755 453.3957 L 73.85487 451.5935 M 71.25291 457 L 71.25291 455 L 70.38559 453.1978 M 71.25291 455 L 71.25291 453 L 72.12022 451.1978 M 71.25291 453 L 71.25291 451 L 72.12022 449.1978 L 72.12022 447.1978 M 72.12022 449.1978 L 72.98755 447.3957 L 74.55058 446.1479 M 72.98755 447.3957 L 73.85487 445.5935 L 73.85487 443.5935 L 72.98755 441.7914 M 73.85487 443.5935 L 73.85487 441.5935 L 74.72218 439.7914 M 73.85487 441.5935 L 73.85487 439.5935 M 73.85487 445.5935 L 74.72218 443.7914 L 74.72218 441.7914 M 74.72218 443.7914 L 75.58951 441.9892 L 77.15255 440.7415 M 75.58951 441.9892 L 76.45683 440.1871 L 78.01987 438.9393 L 78.88718 437.1372 M 78.01987 438.9393 L 79.58291 437.6916 L 81.53242 437.2451 M 79.58291 437.6916 L 81.14595 436.4438 M 76.45683 440.1871 L 77.32415 438.3849 L 77.32415 436.3849 M 77.32415 438.3849 L 78.19147 436.5828 L 79.75451 435.335 M 78.19147 436.5828 L 79.05878 434.7806 M 71.25291 451 L 71.25291 449 L 70.38559 447.1978 M 71.25291 449 L 71.25291 447 L 72.12022 445.1978 M 71.25291 447 L 71.25291 445 L 70.38559 443.1978 L 68.82255 441.9501 M 70.38559 443.1978 L 69.51826 441.3957 L 69.51826 439.3957 M 69.51826 441.3957 L 68.65095 439.5935 M 71.25291 445 L 71.25291 443 L 70.38559 441.1978 M 71.25291 443 L 71.25291 441 L 72.12022 439.1978 M 71.25291 441 L 71.25291 439 L 72.12022 437.1978 L 72.12022 435.1978 M 72.12022 437.1978 L 72.98755 435.3957 L 74.55058 434.1479 M 72.98755 435.3957 L 73.85487 433.5935 M 71.25291 439 L 71.25291 437 L 70.38559 435.1978 M 71.25291 437 L 71.25291 435 L 72.12022 433.1978 M 71.25291 435 L 71.25291 433 L 70.38559 431.1978 L 68.82255 429.9501 M 70.38559 431.1978 L 69.51826 429.3957 L 69.51826 427.3957 M 69.51826 429.3957 L 68.65095 427.5935 L 67.08791 426.3458 L 65.13839 425.8993 M 67.08791 426.3458 L 65.52486 425.098 L 64.65755 423.2959 M 65.52486 425.098 L 63.96183 423.8503 M 68.65095 427.5935 L 67.78363 425.7914 L 66.22059 424.5436 M 67.78363 425.7914 L 66.91631 423.9892 L 66.91631 421.9892 M 66.91631 423.9892 L 66.04899 422.1871 L 66.04899 420.1871 L 65.18166 418.3849 M 66.04899 420.1871 L 66.04899 418.1871 L 66.91631 416.3849 M 66.04899 418.1871 L 66.04899 416.1871 M 66.04899 422.1871 L 65.18166 420.3849 L 63.61863 419.1372 M 65.18166 420.3849 L 64.31435 418.5828 L 64.31435 416.5828 M 64.31435 418.5828 L 63.44703 416.7806 L 61.88399 415.5329 L 59.93447 415.0864 M 61.88399 415.5329 L 60.32095 414.2851 L 59.45363 412.4829 M 60.32095 414.2851 L 58.75791 413.0374 L 56.80839 412.5909 L 54.85809 413.0339 M 56.80839 412.5909 L 54.85887 412.1443 L 53.29583 410.8966 M 54.85887 412.1443 L 52.90935 411.6978 M 58.75791 413.0374 L 57.19487 411.7896 L 55.24535 411.3431 M 57.19487 411.7896 L 55.63183 410.5418 L 54.76451 408.7397 M 55.63183 410.5418 L 54.06879 409.2941 L 53.20147 407.4919 L 51.63843 406.2442 M 53.20147 407.4919 L 52.33414 405.6898 L 52.33414 403.6898 M 52.33414 405.6898 L 51.46683 403.8876 M 54.06879 409.2941 L 52.50574 408.0463 L 50.55623 407.5998 M 52.50574 408.0463 L 50.94271 406.7986 L 50.07539 404.9964 M 50.94271 406.7986 L 49.37967 405.5508 M 63.44703 416.7806 L 62.57971 414.9785 L 61.01667 413.7307 M 62.57971 414.9785 L 61.71239 413.1763 L 61.71239 411.1763 M 61.71239 413.1763 L 60.84507 411.3741 L 59.28203 410.1264 L 57.33251 409.6799 M 59.28203 410.1264 L 57.71899 408.8787 L 56.85167 407.0765 M 57.71899 408.8787 L 56.15594 407.6309 M 60.84507 411.3741 L 59.97775 409.572 L 58.41471 408.3242 M 59.97775 409.572 L 59.11043 407.7698 L 59.11043 405.7698 M 59.11043 407.7698 L 58.24311 405.9677 L 58.24311 403.9677 L 57.37579 402.1655 M 58.24311 403.9677 L 58.24311 401.9677 L 59.11043 400.1655 M 58.24311 401.9677 L 58.24311 399.9677 M 58.24311 405.9677 L 57.37579 404.1655 L 55.81275 402.9178 M 57.37579 404.1655 L 56.50847 402.3634 L 56.50847 400.3634 M 56.50847 402.3634 L 55.64115 400.5612 L 55.64115 398.5612 L 54.77383 396.7591 M 55.64115 398.5612 L 55.64115 396.5612 L 56.50847 394.7591 M 55.64115 396.5612 L 55.64115 394.5612 L 54.77383 392.7591 L 53.21078 391.5113 M 54.77383 392.7591 L 53.90651 390.9569 L 53.90651 388.9569 M 53.90651 390.9569 L 53.03918 389.1548 M 55.64115 394.5612 L 55.64115 392.5612 L 54.77383 390.7591 M 55.64115 392.5612 L 55.64115 390.5612 L 56.50847 388.7591 M 55.64115 390.5612 L 55.64115 388.5612 L 56.50847 386.7591 L 56.50847 384.7591 M 56.50847 386.7591 L 57.37579 384.9569 L 58.93883 383.7092 M 57.37579 384.9569 L 58.24311 383.1548 M 55.64115 388.5612 L 55.64115 386.5612 L 54.77383 384.7591 M 55.64115 386.5612 L 55.64115 384.5612 L 56.50847 382.7591 M 55.64115 384.5612 L 55.64115 382.5612 M 55.64115 400.5612 L 54.77383 398.7591 L 53.21078 397.5113 M 54.77383 398.7591 L 53.90651 396.9569 L 53.90651 394.9569 M 53.90651 396.9569 L 53.03918 395.1548 L 51.47615 393.907 L 49.52663 393.4605 M 51.47615 393.907 L 49.91311 392.6592 L 49.04578 390.8571 M 49.91311 392.6592 L 48.35007 391.4115 M 53.03918 395.1548 L 52.17187 393.3526 L 50.60883 392.1049 M 52.17187 393.3526 L 51.30455 391.5504 L 51.30455 389.5504 M 51.30455 391.5504 L 50.43723 389.7483 L 50.43723 387.7483 L 49.56991 385.9461 M 50.43723 387.7483 L 50.43723 385.7483 L 51.30455 383.9461 M 50.43723 385.7483 L 50.43723 383.7483 M 50.43723 389.7483 L 49.56991 387.9461 L 48.00687 386.6984 M 49.56991 387.9461 L 48.70259 386.144 L 48.70259 384.144 M 48.70259 386.144 L 47.83527 384.3418 M 71.25291 433 L 71.25291 431 L 70.38559 429.1978 M 71.25291 431 L 71.25291 429 L 72.12022 427.1978 M 71.25291 429 L 71.25291 427 L 70.38559 425.1978 L 68.82255 423.9501 M 70.38559 425.1978 L 69.51826 423.3957 L 69.51826 421.3957 M 69.51826 423.3957 L 68.65095 421.5935 M 71.25291 427 L 71.25291 425 L 70.38559 423.1978 M 71.25291 425 L 71.25291 423 L 72.12022 421.1978 M 71.25291 423 L 71.25291 421 L 72.12022 419.1978 L 72.12022 417.1978 M 72.12022 419.1978 L 72.98755 417.3957 L 74.55058 416.1479 M 72.98755 417.3957 L 73.85487 415.5935 M 71.25291 421 L 71.25291 419 L 70.38559 417.1978 M 71.25291 419 L 71.25291 417 L 72.12022 415.1978 M 71.25291 417 L 71.25291 415 L 70.38559 413.1978 L 68.82255 411.9501 M 70.38559 413.1978 L 69.51826 411.3957 L 69.51826 409.3957 M 69.51826 411.3957 L 68.65095 409.5935 L 67.08791 408.3458 L 65.13839 407.8993 M 67.08791 408.3458 L 65.52486 407.098 L 64.65755 405.2959 M 65.52486 407.098 L 63.96183 405.8503 M 68.65095 409.5935 L 67.78363 407.7914 L 66.22059 406.5436 M 67.78363 407.7914 L 66.91631 405.9892 L 66.91631 403.9892 M 66.91631 405.9892 L 66.04899 404.1871 L 66.04899 402.1871 L 65.18166 400.3849 M 66.04899 402.1871 L 66.04899 400.1871 L 66.91631 398.3849 M 66.04899 400.1871 L 66.04899 398.1871 M 66.04899 404.1871 L 65.18166 402.3849 L 63.61863 401.1371 M 65.18166 402.3849 L 64.31435 400.5828 L 64.31435 398.5828 M 64.31435 400.5828 L 63.44703 398.7806 M 71.25291 415 L 71.25291 413 L 70.38559 411.1978 M 71.25291 413 L 71.25291 411 L 72.12022 409.1978 M 71.25291 411 L 71.25291 409 L 70.38559 407.1978 L 68.82255 405.9501 M 70.38559 407.1978 L 69.51826 405.3957 L 69.51826 403.3957 M 69.51826 405.3957 L 68.65095 403.5935 M 71.25291 409 L 71.25291 407 L 70.38559 405.1978 M 71.25291 407 L 71.25291 405 L 72.12022 403.1978 M 71.25291 405 L 71.25291 403 L 72.12022 401.1978 L 72.12022 399.1978 M 72.12022 401.1978 L 72.98755 399.3957 L 74.55058 398.1479 M 72.98755 399.3957 L 73.85487 397.5935 M 71.25291 403 L 71.25291 401 L 70.38559 399.1978 M 71.25291 401 L 71.25291 399 L 72.12022 397.1978 M 71.25291 399 L 71.25291 397 L 72.12022 395.1978 L 72.12022 393.1978 M 72.12022 395.1978 L 72.98755 393.3957 L 74.55058 392.1479 M 72.98755 393.3957 L 73.85487 391.5935 L 73.85487 389.5935 L 72.98755 387.7914 M 73.85487 389.5935 L 73.85487 387.5935 L 74.72218 385.7914 M 73.85487 387.5935 L 73.85487 385.5935 M 73.85487 391.5935 L 74.72218 389.7914 L 74.72218 387.7914 M 74.72218 389.7914 L 75.58951 387.9892 L 77.15255 386.7415 M 75.58951 387.9892 L 76.45683 386.1871 L 78.01987 384.9393 L 78.88718 383.1372 M 78.01987 384.9393 L 79.58291 383.6916 L 81.53242 383.2451 M 79.58291 383.6916 L 81.14595 382.4438 M 76.45683 386.1871 L 77.32415 384.3849 L 77.32415 382.3849 M 77.32415 384.3849 L 78.19147 382.5828 L 79.75451 381.335 M 78.19147 382.5828 L 79.05878 380.7806 M 71.25291 397 L 71.25291 395 L 70.38559 393.1978 M 71.25291 395 L 71.25291 393 L 72.12022 391.1978 M 71.25291 393 L 71.25291 391 L 70.38559 389.1978 L 68.82255 387.9501 M 70.38559 389.1978 L 69.51826 387.3957 L 69.51826 385.3957 M 69.51826 387.3957 L 68.65095 385.5935 M 71.25291 391 L 71.25291 389 L 70.38559 387.1978 M 71.25291 389 L 71.25291 387 L 72.12022 385.1978 M 71.25291 387 L 71.25291 385 L 72.12022 383.1978 L 72.12022 381.1978 M 72.12022 383.1978 L 72.98755 381.3957 L 74.55058 380.1479 M 72.98755 381.3957 L 73.85487 379.5935 M 71.25291 385 L 71.25291 383 L 70.38559 381.1978 M 71.25291 383 L 71.25291 381 L 72.12022 379.1978 M 71.25291 381 L 71.25291 379 L 72.12022 377.1978 L 72.12022 375.1978 M 72.12022 377.1978 L 72.98755 375.3957 L 74.55058 374.1479 M 72.98755 375.3957 L 73.85487 373.5935 L 73.85487 371.5935 L 72.98755 369.7914 M 73.85487 371.5935 L 73.85487 369.5935 L 74.72218 367.7914 M 73.85487 369.5935 L 73.85487 367.5935 M 73.85487 373.5935 L 74.72218 371.7914 L 74.72218 369.7914 M 74.72218 371.7914 L 75.58951 369.9892 L 77.15255 368.7415 M 75.58951 369.9892 L 76.45683 368.1871 L 78.01987 366.9393 L 78.88718 365.1372 M 78.01987 366.9393 L 79.58291 365.6916 L 81.53242 365.2451 M 79.58291 365.6916 L 81.14595 364.4438 M 76.45683 368.1871 L 77.32415 366.3849 L 77.32415 364.3849 M 77.32415 366.3849 L 78.19147 364.5828 L 79.75451 363.335 M 78.19147 364.5828 L 79.05878 362.7806 L 79.05878 360.7806 L 78.19147 358.9785 M 79.05878 360.7806 L 79.05878 358.7806 L 79.92611 356.9785 M 79.05878 358.7806 L 79.05878 356.7806 L 78.19147 354.9785 L 76.62843 353.7307 M 78.19147 354.9785 L 77.32415 353.1763 L 77.32415 351.1763 M 77.32415 353.1763 L 76.45683 351.3741 M 79.05878 356.7806 L 79.05878 354.7806 L 78.19147 352.9785 M 79.05878 354.7806 L 79.05878 352.7806 L 79.92611 350.9785 M 79.05878 352.7806 L 79.05878 350.7806 L 79.92611 348.9785 L 79.92611 346.9785 M 79.92611 348.9785 L 80.79343 347.1763 L 82.35647 345.9285 M 80.79343 347.1763 L 81.66074 345.3741 M 79.05878 350.7806 L 79.05878 348.7806 L 78.19147 346.9785 M 79.05878 348.7806 L 79.05878 346.7806 L 79.92611 344.9785 M 79.05878 346.7806 L 79.05878 344.7806 M 79.05878 362.7806 L 79.92611 360.9785 L 79.92611 358.9785 M 79.92611 360.9785 L 80.79343 359.1763 L 82.35647 357.9285 M 80.79343 359.1763 L 81.66074 357.3741 L 81.66074 355.3741 L 80.79343 353.572 M 81.66074 355.3741 L 81.66074 353.3741 L 82.52807 351.572 M 81.66074 353.3741 L 81.66074 351.3741 M 81.66074 357.3741 L 82.52807 355.572 L 82.52807 353.572 M 82.52807 355.572 L 83.39539 353.7698 L 84.95843 352.5221 M 83.39539 353.7698 L 84.26271 351.9677 L 85.82574 350.7199 L 86.69307 348.9178 M 85.82574 350.7199 L 87.38879 349.4722 L 89.3383 349.0257 M 87.38879 349.4722 L 88.95183 348.2244 M 84.26271 351.9677 L 85.13003 350.1655 L 85.13003 348.1655 M 85.13003 350.1655 L 85.99734 348.3634 L 87.56039 347.1156 M 85.99734 348.3634 L 86.86467 346.5612 L 88.4277 345.3135 L 89.29503 343.5113 M 88.4277 345.3135 L 89.99075 344.0657 L 91.94027 343.6192 M 89.99075 344.0657 L 91.55379 342.8179 L 92.4211 341.0158 L 92.4211 339.0158 M 92.4211 341.0158 L 93.28843 339.2136 L 94.85147 337.9659 M 93.28843 339.2136 L 94.15575 337.4115 M 91.55379 342.8179 L 93.11683 341.5702 L 93.98415 339.768 M 93.11683 341.5702 L 94.67987 340.3224 L 96.62939 339.8759 M 94.67987 340.3224 L 96.2429 339.0747 L 98.19243 338.6282 L 99.75546 337.3804 M 98.19243 338.6282 L 100.1419 338.1817 L 102.0922 338.6248 M 100.1419 338.1817 L 102.0915 337.7352 M 96.2429 339.0747 L 97.80595 337.8269 L 98.67326 336.0248 M 97.80595 337.8269 L 99.36899 336.5792 L 101.3185 336.1327 M 99.36899 336.5792 L 100.932 335.3314 M 86.86467 346.5612 L 87.73199 344.7591 L 87.73199 342.7591 M 87.73199 344.7591 L 88.5993 342.9569 L 90.16235 341.7092 M 88.5993 342.9569 L 89.46663 341.1548 L 89.46663 339.1548 L 88.5993 337.3526 M 89.46663 339.1548 L 89.46663 337.1548 L 90.33395 335.3526 M 89.46663 337.1548 L 89.46663 335.1548 M 89.46663 341.1548 L 90.33395 339.3526 L 90.33395 337.3526 M 90.33395 339.3526 L 91.20126 337.5504 L 92.76431 336.3027 M 91.20126 337.5504 L 92.06859 335.7483 L 93.63162 334.5005 L 94.49895 332.6984 M 93.63162 334.5005 L 95.19466 333.2528 L 97.14419 332.8063 M 95.19466 333.2528 L 96.75771 332.005 M 92.06859 335.7483 L 92.93591 333.9461 L 92.93591 331.9461 M 92.93591 333.9461 L 93.80322 332.144 L 95.36626 330.8962 M 93.80322 332.144 L 94.67055 330.3418 M 71.25291 379 L 71.25291 377 L 70.38559 375.1978 M 71.25291 377 L 71.25291 375 L 72.12022 373.1978 M 71.25291 375 L 71.25291 373 L 70.38559 371.1978 L 68.82255 369.9501 M 70.38559 371.1978 L 69.51826 369.3957 L 69.51826 367.3957 M 69.51826 369.3957 L 68.65095 367.5935 M 71.25291 373 L 71.25291 371 L 70.38559 369.1978 M 71.25291 371 L 71.25291 369 L 72.12022 367.1978 M 71.25291 369 L 71.25291 367 L 72.12022 365.1978 L 72.12022 363.1978 M 72.12022 365.1978 L 72.98755 363.3957 L 74.55058 362.1479 M 72.98755 363.3957 L 73.85487 361.5935 M 71.25291 367 L 71.25291 365 L 70.38559 363.1978 M 71.25291 365 L 71.25291 363 L 72.12022 361.1978 M 71.25291 363 L 71.25291 361 L 70.38559 359.1978 L 68.82255 357.9501 M 70.38559 359.1978 L 69.51826 357.3957 L 69.51826 355.3957 M 69.51826 357.3957 L 68.65095 355.5936 L 67.08791 354.3458 L 65.13839 353.8993 M 67.08791 354.3458 L 65.52486 353.098 L 64.65755 351.2959 M 65.52486 353.098 L 63.96183 351.8503 M 68.65095 355.5936 L 67.78363 353.7914 L 66.22059 352.5436 M 67.78363 353.7914 L 66.91631 351.9893 L 66.91631 349.9893 M 66.91631 351.9893 L 66.04899 350.1871 L 66.04899 348.1871 L 65.18166 346.3849 M 66.04899 348.1871 L 66.04899 346.1871 L 66.91631 344.3849 M 66.04899 346.1871 L 66.04899 344.1871 M 66.04899 350.1871 L 65.18166 348.3849 L 63.61863 347.1372 M 65.18166 348.3849 L 64.31435 346.5828 L 64.31435 344.5828 M 64.31435 346.5828 L 63.44703 344.7806 M 71.25291 361 L 71.25291 359 L 70.38559 357.1978 M 71.25291 359 L 71.25291 357 L 72.12022 355.1978 M 71.25291 357 L 71.25291 355 L 70.38559 353.1978 L 68.82255 351.9501 M 70.38559 353.1978 L 69.51826 351.3957 L 69.51826 349.3957 M 69.51826 351.3957 L 68.65095 349.5935 M 71.25291 355 L 71.25291 353 L 70.38559 351.1978 M 71.25291 353 L 71.25291 351 L 72.12022 349.1978 M 71.25291 351 L 71.25291 349 L 72.12022 347.1978 L 72.12022 345.1978 M 72.12022 347.1978 L 72.98755 345.3957 L 74.55058 344.1479 M 72.98755 345.3957 L 73.85487 343.5935 M 71.25291 349 L 71.25291 347 L 70.38559 345.1978 M 71.25291 347 L 71.25291 345 L 72.12022 343.1978 M 71.25291 345 L 71.25291 343 L 72.12022 341.1978 L 72.12022 339.1978 M 72.12022 341.1978 L 72.98755 339.3957 L 74.55058 338.1479 M 72.98755 339.3957 L 73.85487 337.5935 L 73.85487 335.5935 L 72.98755 333.7914 M 73.85487 335.5935 L 73.85487 333.5935 L 74.72218 331.7914 M 73.85487 333.5935 L 73.85487 331.5935 M 73.85487 337.5935 L 74.72218 335.7914 L 74.72218 333.7914 M 74.72218 335.7914 L 75.58951 333.9892 L 77.15255 332.7415 M 75.58951 333.9892 L 76.45683 332.1871 L 78.01987 330.9393 L 78.88718 329.1371 M 78.01987 330.9393 L 79.58291 329.6916 L 81.53242 329.2451 M 79.58291 329.6916 L 81.14595 328.4438 M 76.45683 332.1871 L 77.32415 330.3849 L 77.32415 328.3849 M 77.32415 330.3849 L 78.19147 328.5828 L 79.75451 327.335 M 78.19147 328.5828 L 79.05878 326.7806 M 71.25291 343 L 71.25291 341 L 70.38559 339.1978 M 71.25291 341 L 71.25291 339 L 72.12022 337.1978 M 71.25291 339 L 71.25291 337 L 70.38559 335.1978 L 68.82255 333.9501 M 70.38559 335.1978 L 69.51826 333.3957 L 69.51826 331.3957 M 69.51826 333.3957 L 68.65095 331.5935 M 71.25291 337 L 71.25291 335 L 70.38559 333.1978 M 71.25291 335 L 71.25291 333 L 72.12022 331.1978 M 71.25291 333 L 71.25291 331 L 72.12022 329.1978 L 72.12022 327.1978 M 72.12022 329.1978 L 72.98755 327.3957 L 74.55058 326.1479 M 72.98755 327.3957 L 73.85487 325.5935 M 71.25291 331 L 71.25291 329 L 70.38559 327.1978 M 71.25291 329 L 71.25291 327 L 72.12022 325.1978 M 71.25291 327 L 71.25291 325 L 70.38559 323.1978 L 68.82255 321.9501 M 70.38559 323.1978 L 69.51826 321.3957 L 69.51826 319.3957 M 69.51826 321.3957 L 68.65095 319.5935 L 67.08791 318.3458 L 65.13839 317.8993 M 67.08791 318.3458 L 65.52486 317.098 L 64.65755 315.2959 M 65.52486 317.098 L 63.96183 315.8503 M 68.65095 319.5935 L 67.78363 317.7914 L 66.22059 316.5436 M 67.78363 317.7914 L 66.91631 315.9892 L 66.91631 313.9892 M 66.91631 315.9892 L 66.04899 314.1871 L 66.04899 312.1871 L 65.18166 310.3849 M 66.04899 312.1871 L 66.04899 310.1871 L 66.91631 308.3849 M 66.04899 310.1871 L 66.04899 308.1871 M 66.04899 314.1871 L 65.18166 312.3849 L 63.61863 311.1371 M 65.18166 312.3849 L 64.31435 310.5828 L 64.31435 308.5828 M 64.31435 310.5828 L 63.44703 308.7806 L 61.88399 307.5328 L 59.93447 307.0864 M 61.88399 307.5328 L 60.32095 306.2851 L 59.45363 304.4829 M 60.32095 306.2851 L 58.75791 305.0374 L 56.80839 304.5908 L 54.85809 305.0339 M 56.80839 304.5908 L 54.85887 304.1443 L 53.29583 302.8966 M 54.85887 304.1443 L 52.90935 303.6978 M 58.75791 305.0374 L 57.19487 303.7896 L 55.24535 303.3431 M 57.19487 303.7896 L 55.63183 302.5418 L 54.76451 300.7397 M 55.63183 302.5418 L 54.06879 301.2941 L 53.20147 299.4919 L 51.63843 298.2441 M 53.20147 299.4919 L 52.33414 297.6898 L 52.33414 295.6898 M 52.33414 297.6898 L 51.46683 295.8876 M 54.06879 301.2941 L 52.50574 300.0463 L 50.55623 299.5998 M 52.50574 300.0463 L 50.94271 298.7986 L 50.07539 296.9964 M 50.94271 298.7986 L 49.37967 297.5508 M 63.44703 308.7806 L 62.57971 306.9785 L 61.01667 305.7307 M 62.57971 306.9785 L 61.71239 305.1763 L 61.71239 303.1763 M 61.71239 305.1763 L 60.84507 303.3741 L 59.28203 302.1264 L 57.33251 301.6799 M 59.28203 302.1264 L 57.71899 300.8786 L 56.85167 299.0765 M 57.71899 300.8786 L 56.15594 299.6309 M 60.84507 303.3741 L 59.97775 301.572 L 58.41471 300.3242 M 59.97775 301.572 L 59.11043 299.7698 L 59.11043 297.7698 M 59.11043 299.7698 L 58.24311 297.9677 L 58.24311 295.9677 L 57.37579 294.1655 M 58.24311 295.9677 L 58.24311 293.9677 L 59.11043 292.1655 M 58.24311 293.9677 L 58.24311 291.9677 M 58.24311 297.9677 L 57.37579 296.1655 L 55.81275 294.9178 M 57.37579 296.1655 L 56.50847 294.3634 L 56.50847 292.3634 M 56.50847 294.3634 L 55.64115 292.5612 L 55.64115 290.5612 L 54.77383 288.7591 M 55.64115 290.5612 L 55.64115 288.5612 L 56.50847 286.7591 M 55.64115 288.5612 L 55.64115 286.5612 L 54.77383 284.7591 L 53.21078 283.5113 M 54.77383 284.7591 L 53.90651 282.9569 L 53.90651 280.9569 M 53.90651 282.9569 L 53.03918 281.1548 M 55.64115 286.5612 L 55.64115 284.5612 L 54.77383 282.7591 M 55.64115 284.5612 L 55.64115 282.5612 L 56.50847 280.7591 M 55.64115 282.5612 L 55.64115 280.5612 L 56.50847 278.7591 L 56.50847 276.7591 M 56.50847 278.7591 L 57.37579 276.9569 L 58.93883 275.7092 M 57.37579 276.9569 L 58.24311 275.1548 M 55.64115 280.5612 L 55.64115 278.5612 L 54.77383 276.7591 M 55.64115 278.5612 L 55.64115 276.5612 L 56.50847 274.7591 M 55.64115 276.5612 L 55.64115 274.5612 M 55.64115 292.5612 L 54.77383 290.7591 L 53.21078 289.5113 M 54.77383 290.7591 L 53.90651 288.9569 L 53.90651 286.9569 M 53.90651 288.9569 L 53.03918 287.1548 L 51.47615 285.907 L 49.52663 285.4605 M 51.47615 285.907 L 49.91311 284.6592 L 49.04578 282.8571 M 49.91311 284.6592 L 48.35007 283.4115 M 53.03918 287.1548 L 52.17187 285.3526 L 50.60883 284.1049 M 52.17187 285.3526 L 51.30455 283.5504 L 51.30455 281.5504 M 51.30455 283.5504 L 50.43723 281.7483 L 50.43723 279.7483 L 49.56991 277.9461 M 50.43723 279.7483 L 50.43723 277.7483 L 51.30455 275.9461 M 50.43723 277.7483 L 50.43723 275.7483 M 50.43723 281.7483 L 49.56991 279.9461 L 48.00687 278.6984 M 49.56991 279.9461 L 48.70259 278.144 L 48.70259 276.144 M 48.70259 278.144 L 47.83527 276.3418 L 46.27222 275.0941 L 44.32271 274.6476 M 46.27222 275.0941 L 44.70919 273.8463 L 43.84187 272.0442 M 44.70919 273.8463 L 43.14615 272.5986 L 41.19662 272.152 L 39.24633 272.5952 M 41.19662 272.152 L 39.24711 271.7056 L 37.68407 270.4578 M 39.24711 271.7056 L 37.29759 271.259 M 43.14615 272.5986 L 41.58311 271.3508 L 39.63359 270.9043 M 41.58311 271.3508 L 40.02007 270.103 L 39.15275 268.3009 M 40.02007 270.103 L 38.45703 268.8553 L 37.58971 267.0531 L 36.02667 265.8054 M 37.58971 267.0531 L 36.72239 265.251 L 36.72239 263.251 M 36.72239 265.251 L 35.85507 263.4488 M 38.45703 268.8553 L 36.89399 267.6075 L 34.94447 267.161 M 36.89399 267.6075 L 35.33095 266.3598 L 34.46363 264.5576 M 35.33095 266.3598 L 33.76791 265.112 L 31.81839 264.6655 L 29.86809 265.1086 M 31.81839 264.6655 L 29.86887 264.219 L 28.30583 262.9713 M 29.86887 264.219 L 27.91935 263.7725 L 25.96905 264.2156 L 24.40383 265.4606 M 25.96905 264.2156 L 24.01875 264.6587 L 22.06922 264.2122 M 24.01875 264.6587 L 22.06845 265.1018 M 27.91935 263.7725 L 25.96983 263.326 L 24.01953 263.7691 M 25.96983 263.326 L 24.02031 262.8795 L 22.45727 261.6317 M 24.02031 262.8795 L 22.07078 262.433 L 20.50774 261.1852 L 18.55822 260.7387 M 20.50774 261.1852 L 18.9447 259.9375 L 18.07738 258.1353 M 18.9447 259.9375 L 17.38166 258.6897 M 22.07078 262.433 L 20.12126 261.9865 L 18.17096 262.4296 M 20.12126 261.9865 L 18.17174 261.54 L 16.6087 260.2922 M 18.17174 261.54 L 16.22222 261.0935 M 33.76791 265.112 L 32.20487 263.8643 L 30.25535 263.4178 M 32.20487 263.8643 L 30.64183 262.6165 L 29.77451 260.8143 M 30.64183 262.6165 L 29.07878 261.3687 L 27.12926 260.9222 L 25.17896 261.3654 M 27.12926 260.9222 L 25.17974 260.4757 L 23.6167 259.228 M 25.17974 260.4757 L 23.23022 260.0292 M 29.07878 261.3687 L 27.51575 260.121 L 25.56623 259.6745 M 27.51575 260.121 L 25.95271 258.8732 L 25.08539 257.0711 M 25.95271 258.8732 L 24.38967 257.6255 L 23.52235 255.8233 L 21.95931 254.5756 M 23.52235 255.8233 L 22.65503 254.0212 L 22.65503 252.0212 M 22.65503 254.0212 L 21.78771 252.219 M 24.38967 257.6255 L 22.82663 256.3777 L 20.87711 255.9312 M 22.82663 256.3777 L 21.26359 255.13 L 20.39627 253.3278 M 21.26359 255.13 L 19.70055 253.8822 L 18.83323 252.08 L 17.27019 250.8323 M 18.83323 252.08 L 17.96591 250.2779 L 17.96591 248.2779 M 17.96591 250.2779 L 17.09859 248.4757 L 15.53555 247.228 L 13.58602 246.7815 M 15.53555 247.228 L 13.97251 245.9802 L 13.10519 244.1781 M 13.97251 245.9802 L 12.40947 244.7325 M 17.09859 248.4757 L 16.23127 246.6736 L 14.66823 245.4258 M 16.23127 246.6736 L 15.36395 244.8714 L 15.36395 242.8714 M 15.36395 244.8714 L 14.49663 243.0693 L 14.49663 241.0693 L 13.62931 239.2671 M 14.49663 241.0693 L 14.49663 239.0693 L 15.36395 237.2671 M 14.49663 239.0693 L 14.49663 237.0693 M 14.49663 243.0693 L 13.62931 241.2671 L 12.06627 240.0194 M 13.62931 241.2671 L 12.76199 239.465 L 12.76199 237.465 M 12.76199 239.465 L 11.89467 237.6628 M 19.70055 253.8822 L 18.13751 252.6344 L 16.18799 252.1879 M 18.13751 252.6344 L 16.57447 251.3867 L 15.70715 249.5845 M 16.57447 251.3867 L 15.01143 250.1389 L 13.0619 249.6924 L 11.1116 250.1355 M 13.0619 249.6924 L 11.11238 249.2459 L 9.549335 247.9982 M 11.11238 249.2459 L 9.162857 248.7994 M 15.01143 250.1389 L 13.44839 248.8912 L 11.49887 248.4447 M 13.44839 248.8912 L 11.88535 247.6434 L 11.01803 245.8413 M 11.88535 247.6434 L 10.32231 246.3957 L 9.454987 244.5935 L 7.891949 243.3457 M 9.454987 244.5935 L 8.587666 242.7914 L 8.587666 240.7914 M 8.587666 242.7914 L 7.720348 240.9892 M 10.32231 246.3957 L 8.759266 245.1479 L 6.809746 244.7014 M 8.759266 245.1479 L 7.196228 243.9001 L 6.328903 242.098 M 7.196228 243.9001 L 5.633186 242.6524 M 47.83527 276.3418 L 46.96795 274.5397 L 45.40491 273.2919 M 46.96795 274.5397 L 46.10062 272.7375 L 46.10062 270.7375 M 46.10062 272.7375 L 45.23331 270.9354 L 43.67027 269.6876 L 41.72075 269.2411 M 43.67027 269.6876 L 42.10723 268.4398 L 41.23991 266.6377 M 42.10723 268.4398 L 40.54419 267.1921 M 45.23331 270.9354 L 44.36599 269.1332 L 42.80295 267.8854 M 44.36599 269.1332 L 43.49866 267.3311 L 43.49866 265.3311 M 43.49866 267.3311 L 42.63135 265.5289 L 42.63135 263.5289 L 41.76403 261.7267 M 42.63135 263.5289 L 42.63135 261.5289 L 43.49866 259.7267 M 42.63135 261.5289 L 42.63135 259.5289 M 42.63135 265.5289 L 41.76403 263.7267 L 40.20099 262.479 M 41.76403 263.7267 L 40.89671 261.9246 L 40.89671 259.9246 M 40.89671 261.9246 L 40.02939 260.1224 L 38.46635 258.8747 L 36.51683 258.4282 M 38.46635 258.8747 L 36.90331 257.6269 L 36.03599 255.8248 M 36.90331 257.6269 L 35.34027 256.3792 L 33.39075 255.9327 L 31.44044 256.3758 M 33.39075 255.9327 L 31.44123 255.4862 L 29.87819 254.2384 M 31.44123 255.4862 L 29.49171 255.0397 M 35.34027 256.3792 L 33.77723 255.1314 L 31.8277 254.6849 M 33.77723 255.1314 L 32.21419 253.8837 L 31.34687 252.0815 M 32.21419 253.8837 L 30.65115 252.6359 L 29.78382 250.8337 L 28.22079 249.586 M 29.78382 250.8337 L 28.91651 249.0316 L 28.91651 247.0316 M 28.91651 249.0316 L 28.04919 247.2294 M 30.65115 252.6359 L 29.08811 251.3881 L 27.13859 250.9416 M 29.08811 251.3881 L 27.52507 250.1404 L 26.65775 248.3382 M 27.52507 250.1404 L 25.96203 248.8926 M 40.02939 260.1224 L 39.16207 258.3203 L 37.59903 257.0725 M 39.16207 258.3203 L 38.29475 256.5181 L 38.29475 254.5181 M 38.29475 256.5181 L 37.42743 254.716 L 35.86439 253.4682 L 33.91487 253.0217 M 35.86439 253.4682 L 34.30135 252.2205 L 33.43403 250.4183 M 34.30135 252.2205 L 32.73831 250.9727 M 37.42743 254.716 L 36.56011 252.9138 L 34.99707 251.6661 M 36.56011 252.9138 L 35.69279 251.1117 L 35.69279 249.1117 M 35.69279 251.1117 L 34.82547 249.3095 L 34.82547 247.3095 L 33.95815 245.5074 M 34.82547 247.3095 L 34.82547 245.3095 L 35.69279 243.5074 M 34.82547 245.3095 L 34.82547 243.3095 M 34.82547 249.3095 L 33.95815 247.5074 L 32.39511 246.2596 M 33.95815 247.5074 L 33.09083 245.7052 L 33.09083 243.7052 M 33.09083 245.7052 L 32.22351 243.903 L 32.22351 241.903 L 31.35619 240.1009 M 32.22351 241.903 L 32.22351 239.903 L 33.09083 238.1009 M 32.22351 239.903 L 32.22351 237.903 L 31.35619 236.1009 L 29.79315 234.8531 M 31.35619 236.1009 L 30.48886 234.2987 L 30.48886 232.2987 M 30.48886 234.2987 L 29.62155 232.4966 M 32.22351 237.903 L 32.22351 235.903 L 31.35619 234.1009 M 32.22351 235.903 L 32.22351 233.903 L 33.09083 232.1009 M 32.22351 233.903 L 32.22351 231.903 L 33.09083 230.1009 L 33.09083 228.1009 M 33.09083 230.1009 L 33.95815 228.2987 L 35.52119 227.051 M 33.95815 228.2987 L 34.82547 226.4966 M 32.22351 231.903 L 32.22351 229.903 L 31.35619 228.1009 M 32.22351 229.903 L 32.22351 227.903 L 33.09083 226.1009 M 32.22351 227.903 L 32.22351 225.903 M 32.22351 243.903 L 31.35619 242.1009 L 29.79315 240.8531 M 31.35619 242.1009 L 30.48886 240.2987 L 30.48886 238.2987 M 30.48886 240.2987 L 29.62155 238.4966 L 28.05851 237.2488 L 26.10899 236.8023 M 28.05851 237.2488 L 26.49547 236.0011 L 25.62815 234.1989 M 26.49547 236.0011 L 24.93243 234.7533 M 29.62155 238.4966 L 28.75423 236.6944 L 27.19118 235.4467 M 28.75423 236.6944 L 27.88691 234.8923 L 27.88691 232.8923 M 27.88691 234.8923 L 27.01959 233.0901 L 27.01959 231.0901 L 26.15227 229.288 M 27.01959 231.0901 L 27.01959 229.0901 L 27.88691 227.288 M 27.01959 229.0901 L 27.01959 227.0901 M 27.01959 233.0901 L 26.15227 231.288 L 24.58923 230.0402 M 26.15227 231.288 L 25.28495 229.4858 L 25.28495 227.4858 M 25.28495 229.4858 L 24.41763 227.6837 L 24.41763 225.6837 L 23.55031 223.8815 M 24.41763 225.6837 L 24.41763 223.6837 L 25.28495 221.8815 M 24.41763 223.6837 L 24.41763 221.6837 L 23.55031 219.8815 L 21.98727 218.6337 M 23.55031 219.8815 L 22.68299 218.0793 L 22.68299 216.0793 M 22.68299 218.0793 L 21.81567 216.2772 M 24.41763 221.6837 L 24.41763 219.6837 L 23.55031 217.8815 M 24.41763 219.6837 L 24.41763 217.6837 L 25.28495 215.8815 M 24.41763 217.6837 L 24.41763 215.6837 L 25.28495 213.8815 L 25.28495 211.8815 M 25.28495 213.8815 L 26.15227 212.0793 L 27.71531 210.8316 M 26.15227 212.0793 L 27.01959 210.2772 M 24.41763 215.6837 L 24.41763 213.6837 L 23.55031 211.8815 M 24.41763 213.6837 L 24.41763 211.6837 L 25.28495 209.8815 M 24.41763 211.6837 L 24.41763 209.6837 L 23.55031 207.8815 L 21.98727 206.6337 M 23.55031 207.8815 L 22.68299 206.0793 L 22.68299 204.0793 M 22.68299 206.0793 L 21.81567 204.2772 L 20.25263 203.0294 L 18.30311 202.5829 M 20.25263 203.0294 L 18.68959 201.7816 L 17.82227 199.9795 M 18.68959 201.7816 L 17.12654 200.5339 M 21.81567 204.2772 L 20.94835 202.475 L 19.38531 201.2273 M 20.94835 202.475 L 20.08103 200.6729 L 20.08103 198.6729 M 20.08103 200.6729 L 19.21371 198.8707 L 19.21371 196.8707 L 18.34639 195.0686 M 19.21371 196.8707 L 19.21371 194.8707 L 20.08103 193.0686 M 19.21371 194.8707 L 19.21371 192.8707 M 19.21371 198.8707 L 18.34639 197.0686 L 16.78335 195.8208 M 18.34639 197.0686 L 17.47906 195.2664 L 17.47906 193.2664 M 17.47906 195.2664 L 16.61175 193.4643 M 24.41763 209.6837 L 24.41763 207.6837 L 23.55031 205.8815 M 24.41763 207.6837 L 24.41763 205.6837 L 25.28495 203.8815 M 24.41763 205.6837 L 24.41763 203.6837 L 23.55031 201.8815 L 21.98727 200.6337 M 23.55031 201.8815 L 22.68299 200.0793 L 22.68299 198.0793 M 22.68299 200.0793 L 21.81567 198.2772 M 24.41763 203.6837 L 24.41763 201.6837 L 23.55031 199.8815 M 24.41763 201.6837 L 24.41763 199.6837 L 25.28495 197.8815 M 24.41763 199.6837 L 24.41763 197.6837 L 25.28495 195.8815 L 25.28495 193.8815 M 25.28495 195.8815 L 26.15227 194.0793 L 27.71531 192.8316 M 26.15227 194.0793 L 27.01959 192.2772 M 24.41763 197.6837 L 24.41763 195.6837 L 23.55031 193.8815 M 24.41763 195.6837 L 24.41763 193.6837 L 25.28495 191.8815 M 24.41763 193.6837 L 24.41763 191.6837 L 25.28495 189.8815 L 25.28495 187.8815 M 25.28495 189.8815 L 26.15227 188.0793 L 27.71531 186.8316 M 26.15227 188.0793 L 27.01959 186.2772 L 27.01959 184.2772 L 26.15227 182.475 M 27.01959 184.2772 L 27.01959 182.2772 L 27.88691 180.475 M 27.01959 182.2772 L 27.01959 180.2772 M 27.01959 186.2772 L 27.88691 184.475 L 27.88691 182.475 M 27.88691 184.475 L 28.75423 182.6729 L 30.31727 181.4251 M 28.75423 182.6729 L 29.62155 180.8707 L 31.18459 179.623 L 32.05191 177.8208 M 31.18459 179.623 L 32.74763 178.3752 L 34.69715 177.9287 M 32.74763 178.3752 L 34.31067 177.1274 M 29.62155 180.8707 L 30.48886 179.0686 L 30.48886 177.0686 M 30.48886 179.0686 L 31.35619 177.2664 L 32.91923 176.0186 M 31.35619 177.2664 L 32.22351 175.4643 M 24.41763 191.6837 L 24.41763 189.6837 L 23.55031 187.8815 M 24.41763 189.6837 L 24.41763 187.6837 L 25.28495 185.8815 M 24.41763 187.6837 L 24.41763 185.6837 L 23.55031 183.8815 L 21.98727 182.6337 M 23.55031 183.8815 L 22.68299 182.0793 L 22.68299 180.0793 M 22.68299 182.0793 L 21.81567 180.2772 M 24.41763 185.6837 L 24.41763 183.6837 L 23.55031 181.8815 M 24.41763 183.6837 L 24.41763 181.6837 L 25.28495 179.8815 M 24.41763 181.6837 L 24.41763 179.6837 L 25.28495 177.8815 L 25.28495 175.8815 M 25.28495 177.8815 L 26.15227 176.0793 L 27.71531 174.8316 M 26.15227 176.0793 L 27.01959 174.2772 M 24.41763 179.6837 L 24.41763 177.6837 L 23.55031 175.8815 M 24.41763 177.6837 L 24.41763 175.6837 L 25.28495 173.8815 M 24.41763 175.6837 L 24.41763 173.6837 M 24.41763 227.6837 L 23.55031 225.8815 L 21.98727 224.6337 M 23.55031 225.8815 L 22.68299 224.0793 L 22.68299 222.0793 M 22.68299 224.0793 L 21.81567 222.2772 L 20.25263 221.0294 L 18.30311 220.5829 M 20.25263 221.0294 L 18.68959 219.7816 L 17.82227 217.9795 M 18.68959 219.7816 L 17.12654 218.5339 M 21.81567 222.2772 L 20.94835 220.475 L 19.38531 219.2273 M 20.94835 220.475 L 20.08103 218.6729 L 20.08103 216.6729 M 20.08103 218.6729 L 19.21371 216.8707 L 19.21371 214.8707 L 18.34639 213.0686 M 19.21371 214.8707 L 19.21371 212.8707 L 20.08103 211.0686 M 19.21371 212.8707 L 19.21371 210.8707 M 19.21371 216.8707 L 18.34639 215.0686 L 16.78335 213.8208 M 18.34639 215.0686 L 17.47906 213.2664 L 17.47906 211.2664 M 17.47906 213.2664 L 16.61175 211.4643 L 15.04871 210.2165 L 13.09919 209.77 M 15.04871 210.2165 L 13.48567 208.9687 L 12.61835 207.1666 M 13.48567 208.9687 L 11.92263 207.7209 L 9.973106 207.2744 L 8.022808 207.7175 M 9.973106 207.2744 L 8.023586 206.8279 L 6.460548 205.5802 M 8.023586 206.8279 L 6.074066 206.3814 M 11.92263 207.7209 L 10.35959 206.4732 L 8.410069 206.0267 M 10.35959 206.4732 L 8.796547 205.2254 L 7.929226 203.4232 M 8.796547 205.2254 L 7.233505 203.9776 L 6.366188 202.1755 L 4.803146 200.9277 M 6.366188 202.1755 L 5.498863 200.3733 L 5.498863 198.3733 M 5.498863 200.3733 L 4.631546 198.5712 M 7.233505 203.9776 L 5.670464 202.7299 L 3.72094 202.2834 M 5.670464 202.7299 L 4.10743 201.4821 L 3.24012 199.6799 M 4.10743 201.4821 L 2.544388 200.2343 M 16.61175 211.4643 L 15.74443 209.6621 L 14.18139 208.4143 M 15.74443 209.6621 L 14.87711 207.86 L 14.87711 205.86 M 14.87711 207.86 L 14.00979 206.0578 L 12.44675 204.81 L 10.49723 204.3635 M 12.44675 204.81 L 10.88371 203.5623 L 10.01639 201.7601 M 10.88371 203.5623 L 9.320667 202.3145 M 14.00979 206.0578 L 13.14247 204.2556 L 11.57943 203.0079 M 13.14247 204.2556 L 12.27515 202.4535 L 12.27515 200.4535 M 12.27515 202.4535 L 11.40783 200.6513 L 11.40783 198.6513 L 10.54051 196.8492 M 11.40783 198.6513 L 11.40783 196.6513 L 12.27515 194.8492 M 11.40783 196.6513 L 11.40783 194.6513 M 11.40783 200.6513 L 10.54051 198.8492 L 8.977467 197.6014 M 10.54051 198.8492 L 9.673187 197.047 L 9.673187 195.047 M 9.673187 197.047 L 8.805866 195.2449 L 8.805866 193.2449 L 7.938545 191.4427 M 8.805866 193.2449 L 8.805866 191.2449 L 9.673187 189.4427 M 8.805866 191.2449 L 8.805866 189.2449 L 7.938545 187.4427 L 6.375504 186.1949 M 7.938545 187.4427 L 7.071228 185.6406 L 7.071228 183.6406 M 7.071228 185.6406 L 6.203903 183.8384 M 8.805866 189.2449 L 8.805866 187.2449 L 7.938545 185.4427 M 8.805866 187.2449 L 8.805866 185.2449 L 9.673187 183.4427 M 8.805866 185.2449 L 8.805866 183.2449 L 9.673187 181.4427 L 9.673187 179.4427 M 9.673187 181.4427 L 10.54051 179.6406 L 12.10355 178.3928 M 10.54051 179.6406 L 11.40783 177.8384 M 8.805866 183.2449 L 8.805866 181.2449 L 7.938545 179.4427 M 8.805866 181.2449 L 8.805866 179.2449 L 9.673187 177.4427 M 8.805866 179.2449 L 8.805866 177.2449 M 8.805866 195.2449 L 7.938545 193.4427 L 6.375504 192.1949 M 7.938545 193.4427 L 7.071228 191.6406 L 7.071228 189.6406 M 7.071228 191.6406 L 6.203903 189.8384 L 4.640854 188.5906 L 2.69133 188.1441 M 4.640854 188.5906 L 3.07782 187.3429 L 2.21051 185.5407 M 3.07782 187.3429 L 1.514778 186.0951 M 6.203903 189.8384 L 5.336586 188.0363 L 3.773544 186.7885 M 5.336586 188.0363 L 4.469269 186.2341 L 4.469269 184.2341 M 4.469269 186.2341 L 3.601944 184.4319 L 3.601944 182.4319 L 2.734627 180.6298 M 3.601944 182.4319 L 3.601944 180.4319 L 4.469254 178.6298 M 3.601944 180.4319 L 3.601944 178.4319 M 3.601944 184.4319 L 2.734627 182.6298 L 1.171585 181.382 M 2.734627 182.6298 L 1.86731 180.8276 L 1.86731 178.8276 M 1.86731 180.8276 L 1 179.0255 M 71.25291 325 L 71.25291 323 L 70.38559 321.1978 M 71.25291 323 L 71.25291 321 L 72.12022 319.1978 M 71.25291 321 L 71.25291 319 L 70.38559 317.1978 L 68.82255 315.9501 M 70.38559 317.1978 L 69.51826 315.3957 L 69.51826 313.3957 M 69.51826 315.3957 L 68.65095 313.5935 M 71.25291 319 L 71.25291 317 L 70.38559 315.1978 M 71.25291 317 L 71.25291 315 L 72.12022 313.1978 M 71.25291 315 L 71.25291 313 L 72.12022 311.1978 L 72.12022 309.1978 M 72.12022 311.1978 L 72.98755 309.3957 L 74.55058 308.1479 M 72.98755 309.3957 L 73.85487 307.5935 M 71.25291 313 L 71.25291 311 L 70.38559 309.1978 M 71.25291 311 L 71.25291 309 L 72.12022 307.1978 M 71.25291 309 L 71.25291 307 L 70.38559 305.1978 L 68.82255 303.9501 M 70.38559 305.1978 L 69.51826 303.3957 L 69.51826 301.3957 M 69.51826 303.3957 L 68.65095 301.5935 L 67.08791 300.3458 L 65.13839 299.8993 M 67.08791 300.3458 L 65.52486 299.098 L 64.65755 297.2959 M 65.52486 299.098 L 63.96183 297.8503 M 68.65095 301.5935 L 67.78363 299.7914 L 66.22059 298.5436 M 67.78363 299.7914 L 66.91631 297.9892 L 66.91631 295.9892 M 66.91631 297.9892 L 66.04899 296.1871 L 66.04899 294.1871 L 65.18166 292.3849 M 66.04899 294.1871 L 66.04899 292.1871 L 66.91631 290.3849 M 66.04899 292.1871 L 66.04899 290.1871 M 66.04899 296.1871 L 65.18166 294.3849 L 63.61863 293.1371 M 65.18166 294.3849 L 64.31435 292.5828 L 64.31435 290.5828 M 64.31435 292.5828 L 63.44703 290.7806 M 71.25291 307 L 71.25291 305 L 70.38559 303.1978 M 71.25291 305 L 71.25291 303 L 72.12022 301.1978 M 71.25291 303 L 71.25291 301 L 70.38559 299.1978 L 68.82255 297.9501 M 70.38559 299.1978 L 69.51826 297.3957 L 69.51826 295.3957 M 69.51826 297.3957 L 68.65095 295.5935 M 71.25291 301 L 71.25291 299 L 70.38559 297.1978 M 71.25291 299 L 71.25291 297 L 72.12022 295.1978 M 71.25291 297 L 71.25291 295 L 72.12022 293.1978 L 72.12022 291.1978 M 72.12022 293.1978 L 72.98755 291.3957 L 74.55058 290.1479 M 72.98755 291.3957 L 73.85487 289.5935 M 71.25291 295 L 71.25291 293 L 70.38559 291.1978 M 71.25291 293 L 71.25291 291 L 72.12022 289.1978 M 71.25291 291 L 71.25291 289 L 72.12022 287.1978 L 72.12022 285.1978 M 72.12022 287.1978 L 72.98755 285.3957 L 74.55058 284.1479 M 72.98755 285.3957 L 73.85487 283.5935 L 73.85487 281.5935 L 72.98755 279.7914 M 73.85487 281.5935 L 73.85487 279.5935 L 74.72218 277.7914 M 73.85487 279.5935 L 73.85487 277.5935 M 73.85487 283.5935 L 74.72218 281.7914 L 74.72218 279.7914 M 74.72218 281.7914 L 75.58951 279.9892 L 77.15255 278.7415 M 75.58951 279.9892 L 76.45683 278.1871 L 78.01987 276.9393 L 78.88718 275.1371 M 78.01987 276.9393 L 79.58291 275.6916 L 81.53242 275.2451 M 79.58291 275.6916 L 81.14595 274.4438 M 76.45683 278.1871 L 77.32415 276.3849 L 77.32415 274.3849 M 77.32415 276.3849 L 78.19147 274.5828 L 79.75451 273.335 M 78.19147 274.5828 L 79.05878 272.7806 M 71.25291 289 L 71.25291 287 L 70.38559 285.1978 M 71.25291 287 L 71.25291 285 L 72.12022 283.1978 M 71.25291 285 L 71.25291 283 L 70.38559 281.1978 L 68.82255 279.9501 M 70.38559 281.1978 L 69.51826 279.3957 L 69.51826 277.3957 M 69.51826 279.3957 L 68.65095 277.5935 M 71.25291 283 L 71.25291 281 L 70.38559 279.1978 M 71.25291 281 L 71.25291 279 L 72.12022 277.1978 M 71.25291 279 L 71.25291 277 L 72.12022 275.1978 L 72.12022 273.1978 M 72.12022 275.1978 L 72.98755 273.3957 L 74.55058 272.1479 M 72.98755 273.3957 L 73.85487 271.5935 M 71.25291 277 L 71.25291 275 L 70.38559 273.1978 M 71.25291 275 L 71.25291 273 L 72.12022 271.1978 M 71.25291 273 L 71.25291 271 L 70.38559 269.1978 L 68.82255 267.9501 M 70.38559 269.1978 L 69.51826 267.3957 L 69.51826 265.3957 M 69.51826 267.3957 L 68.65095 265.5935 L 67.08791 264.3458 L 65.13839 263.8993 M 67.08791 264.3458 L 65.52486 263.098 L 64.65755 261.2959 M 65.52486 263.098 L 63.96183 261.8503 M 68.65095 265.5935 L 67.78363 263.7914 L 66.22059 262.5436 M 67.78363 263.7914 L 66.91631 261.9892 L 66.91631 259.9892 M 66.91631 261.9892 L 66.04899 260.1871 L 66.04899 258.1871 L 65.18166 256.3849 M 66.04899 258.1871 L 66.04899 256.1871 L 66.91631 254.3849 M 66.04899 256.1871 L 66.04899 254.1871 M 66.04899 260.1871 L 65.18166 258.3849 L 63.61863 257.1371 M 65.18166 258.3849 L 64.31435 256.5828 L 64.31435 254.5828 M 64.31435 256.5828 L 63.44703 254.7806 L 61.88399 253.5329 L 59.93447 253.0863 M 61.88399 253.5329 L 60.32095 252.2851 L 59.45363 250.4829 M 60.32095 252.2851 L 58.75791 251.0373 L 56.80839 250.5908 L 54.85809 251.0339 M 56.80839 250.5908 L 54.85887 250.1443 L 53.29583 248.8966 M 54.85887 250.1443 L 52.90935 249.6978 M 58.75791 251.0373 L 57.19487 249.7896 L 55.24535 249.3431 M 57.19487 249.7896 L 55.63183 248.5418 L 54.76451 246.7397 M 55.63183 248.5418 L 54.06879 247.2941 L 53.20147 245.4919 L 51.63843 244.2442 M 53.20147 245.4919 L 52.33414 243.6898 L 52.33414 241.6898 M 52.33414 243.6898 L 51.46683 241.8876 M 54.06879 247.2941 L 52.50574 246.0463 L 50.55623 245.5998 M 52.50574 246.0463 L 50.94271 244.7986 L 50.07539 242.9964 M 50.94271 244.7986 L 49.37967 243.5508 M 63.44703 254.7806 L 62.57971 252.9785 L 61.01667 251.7307 M 62.57971 252.9785 L 61.71239 251.1763 L 61.71239 249.1763 M 61.71239 251.1763 L 60.84507 249.3741 L 59.28203 248.1264 L 57.33251 247.6799 M 59.28203 248.1264 L 57.71899 246.8786 L 56.85167 245.0765 M 57.71899 246.8786 L 56.15594 245.6309 M 60.84507 249.3741 L 59.97775 247.572 L 58.41471 246.3242 M 59.97775 247.572 L 59.11043 245.7698 L 59.11043 243.7698 M 59.11043 245.7698 L 58.24311 243.9677 L 58.24311 241.9677 L 57.37579 240.1655 M 58.24311 241.9677 L 58.24311 239.9677 L 59.11043 238.1655 M 58.24311 239.9677 L 58.24311 237.9677 M 58.24311 243.9677 L 57.37579 242.1655 L 55.81275 240.9178 M 57.37579 242.1655 L 56.50847 240.3634 L 56.50847 238.3634 M 56.50847 240.3634 L 55.64115 238.5612 L 55.64115 236.5612 L 54.77383 234.7591 M 55.64115 236.5612 L 55.64115 234.5612 L 56.50847 232.7591 M 55.64115 234.5612 L 55.64115 232.5612 L 54.77383 230.7591 L 53.21078 229.5113 M 54.77383 230.7591 L 53.90651 228.9569 L 53.90651 226.9569 M 53.90651 228.9569 L 53.03918 227.1548 M 55.64115 232.5612 L 55.64115 230.5612 L 54.77383 228.7591 M 55.64115 230.5612 L 55.64115 228.5612 L 56.50847 226.7591 M 55.64115 228.5612 L 55.64115 226.5612 L 56.50847 224.7591 L 56.50847 222.7591 M 56.50847 224.7591 L 57.37579 222.9569 L 58.93883 221.7091 M 57.37579 222.9569 L 58.24311 221.1548 M 55.64115 226.5612 L 55.64115 224.5612 L 54.77383 222.7591 M 55.64115 224.5612 L 55.64115 222.5612 L 56.50847 220.7591 M 55.64115 222.5612 L 55.64115 220.5612 M 55.64115 238.5612 L 54.77383 236.7591 L 53.21078 235.5113 M 54.77383 236.7591 L 53.90651 234.9569 L 53.90651 232.9569 M 53.90651 234.9569 L 53.03918 233.1548 L 51.47615 231.907 L 49.52663 231.4605 M 51.47615 231.907 L 49.91311 230.6592 L 49.04578 228.8571 M 49.91311 230.6592 L 48.35007 229.4115 M 53.03918 233.1548 L 52.17187 231.3526 L 50.60883 230.1048 M 52.17187 231.3526 L 51.30455 229.5504 L 51.30455 227.5504 M 51.30455 229.5504 L 50.43723 227.7483 L 50.43723 225.7483 L 49.56991 223.9461 M 50.43723 225.7483 L 50.43723 223.7483 L 51.30455 221.9461 M 50.43723 223.7483 L 50.43723 221.7483 M 50.43723 227.7483 L 49.56991 225.9461 L 48.00687 224.6984 M 49.56991 225.9461 L 48.70259 224.144 L 48.70259 222.144 M 48.70259 224.144 L 47.83527 222.3418 M 71.25291 271 L 71.25291 269 L 70.38559 267.1978 M 71.25291 269 L 71.25291 267 L 72.12022 265.1978 M 71.25291 267 L 71.25291 265 L 70.38559 263.1978 L 68.82255 261.9501 M 70.38559 263.1978 L 69.51826 261.3957 L 69.51826 259.3957 M 69.51826 261.3957 L 68.65095 259.5935 M 71.25291 265 L 71.25291 263 L 70.38559 261.1978 M 71.25291 263 L 71.25291 261 L 72.12022 259.1978 M 71.25291 261 L 71.25291 259 L 72.12022 257.1978 L 72.12022 255.1978 M 72.12022 257.1978 L 72.98755 255.3957 L 74.55058 254.1479 M 72.98755 255.3957 L 73.85487 253.5935 M 71.25291 259 L 71.25291 257 L 70.38559 255.1978 M 71.25291 257 L 71.25291 255 L 72.12022 253.1978 M 71.25291 255 L 71.25291 253 L 70.38559 251.1978 L 68.82255 249.9501 M 70.38559 251.1978 L 69.51826 249.3957 L 69.51826 247.3957 M 69.51826 249.3957 L 68.65095 247.5935 L 67.08791 246.3458 L 65.13839 245.8993 M 67.08791 246.3458 L 65.52486 245.098 L 64.65755 243.2959 M 65.52486 245.098 L 63.96183 243.8503 M 68.65095 247.5935 L 67.78363 245.7914 L 66.22059 244.5436 M 67.78363 245.7914 L 66.91631 243.9892 L 66.91631 241.9892 M 66.91631 243.9892 L 66.04899 242.1871 L 66.04899 240.1871 L 65.18166 238.3849 M 66.04899 240.1871 L 66.04899 238.1871 L 66.91631 236.3849 M 66.04899 238.1871 L 66.04899 236.1871 M 66.04899 242.1871 L 65.18166 240.3849 L 63.61863 239.1372 M 65.18166 240.3849 L 64.31435 238.5828 L 64.31435 236.5828 M 64.31435 238.5828 L 63.44703 236.7806 M 71.25291 253 L 71.25291 251 L 70.38559 249.1978 M 71.25291 251 L 71.25291 249 L 72.12022 247.1978 M 71.25291 249 L 71.25291 247 L 70.38559 245.1978 L 68.82255 243.9501 M 70.38559 245.1978 L 69.51826 243.3957 L 69.51826 241.3957 M 69.51826 243.3957 L 68.65095 241.5935 M 71.25291 247 L 71.25291 245 L 70.38559 243.1978 M 71.25291 245 L 71.25291 243 L 72.12022 241.1978 M 71.25291 243 L 71.25291 241 L 72.12022 239.1978 L 72.12022 237.1978 M 72.12022 239.1978 L 72.98755 237.3957 L 74.55058 236.1479 M 72.98755 237.3957 L 73.85487 235.5935 M 71.25291 241 L 71.25291 239 L 70.38559 237.1978 M 71.25291 239 L 71.25291 237 L 72.12022 235.1978 M 71.25291 237 L 71.25291 235 L 72.12022 233.1978 L 72.12022 231.1978 M 72.12022 233.1978 L 72.98755 231.3957 L 74.55058 230.1479 M 72.98755 231.3957 L 73.85487 229.5935 L 73.85487 227.5935 L 72.98755 225.7914 M 73.85487 227.5935 L 73.85487 225.5935 L 74.72218 223.7914 M 73.85487 225.5935 L 73.85487 223.5935 M 73.85487 229.5935 L 74.72218 227.7914 L 74.72218 225.7914 M 74.72218 227.7914 L 75.58951 225.9892 L 77.15255 224.7415 M 75.58951 225.9892 L 76.45683 224.1871 L 78.01987 222.9393 L 78.88718 221.1371 M 78.01987 222.9393 L 79.58291 221.6915 L 81.53242 221.245 M 79.58291 221.6915 L 81.14595 220.4438 M 76.45683 224.1871 L 77.32415 222.3849 L 77.32415 220.3849 M 77.32415 222.3849 L 78.19147 220.5828 L 79.75451 219.335 M 78.19147 220.5828 L 79.05878 218.7806 M 71.25291 235 L 71.25291 233 L 70.38559 231.1978 M 71.25291 233 L 71.25291 231 L 72.12022 229.1978 M 71.25291 231 L 71.25291 229 L 70.38559 227.1978 L 68.82255 225.9501 M 70.38559 227.1978 L 69.51826 225.3957 L 69.51826 223.3957 M 69.51826 225.3957 L 68.65095 223.5935 M 71.25291 229 L 71.25291 227 L 70.38559 225.1978 M 71.25291 227 L 71.25291 225 L 72.12022 223.1978 M 71.25291 225 L 71.25291 223 L 72.12022 221.1978 L 72.12022 219.1978 M 72.12022 221.1978 L 72.98755 219.3957 L 74.55058 218.1479 M 72.98755 219.3957 L 73.85487 217.5935 M 71.25291 223 L 71.25291 221 L 70.38559 219.1978 M 71.25291 221 L 71.25291 219 L 72.12022 217.1978 M 71.25291 219 L 71.25291 217 L 72.12022 215.1978 L 72.12022 213.1978 M 72.12022 215.1978 L 72.98755 213.3957 L 74.55058 212.1479 M 72.98755 213.3957 L 73.85487 211.5935 L 73.85487 209.5935 L 72.98755 207.7914 M 73.85487 209.5935 L 73.85487 207.5935 L 74.72218 205.7914 M 73.85487 207.5935 L 73.85487 205.5935 M 73.85487 211.5935 L 74.72218 209.7914 L 74.72218 207.7914 M 74.72218 209.7914 L 75.58951 207.9892 L 77.15255 206.7415 M 75.58951 207.9892 L 76.45683 206.1871 L 78.01987 204.9393 L 78.88718 203.1371 M 78.01987 204.9393 L 79.58291 203.6915 L 81.53242 203.245 M 79.58291 203.6915 L 81.14595 202.4438 M 76.45683 206.1871 L 77.32415 204.3849 L 77.32415 202.3849 M 77.32415 204.3849 L 78.19147 202.5828 L 79.75451 201.335 M 78.19147 202.5828 L 79.05878 200.7806 L 79.05878 198.7806 L 78.19147 196.9785 M 79.05878 198.7806 L 79.05878 196.7806 L 79.92611 194.9785 M 79.05878 196.7806 L 79.05878 194.7806 L 78.19147 192.9785 L 76.62843 191.7307 M 78.19147 192.9785 L 77.32415 191.1763 L 77.32415 189.1763 M 77.32415 191.1763 L 76.45683 189.3741 M 79.05878 194.7806 L 79.05878 192.7806 L 78.19147 190.9785 M 79.05878 192.7806 L 79.05878 190.7806 L 79.92611 188.9785 M 79.05878 190.7806 L 79.05878 188.7806 L 79.92611 186.9785 L 79.92611 184.9785 M 79.92611 186.9785 L 80.79343 185.1763 L 82.35647 183.9285 M 80.79343 185.1763 L 81.66074 183.3741 M 79.05878 188.7806 L 79.05878 186.7806 L 78.19147 184.9785 M 79.05878 186.7806 L 79.05878 184.7806 L 79.92611 182.9785 M 79.05878 184.7806 L 79.05878 182.7806 M 79.05878 200.7806 L 79.92611 198.9785 L 79.92611 196.9785 M 79.92611 198.9785 L 80.79343 197.1763 L 82.35647 195.9285 M 80.79343 197.1763 L 81.66074 195.3741 L 81.66074 193.3741 L 80.79343 191.572 M 81.66074 193.3741 L 81.66074 191.3741 L 82.52807 189.572 M 81.66074 191.3741 L 81.66074 189.3741 M 81.66074 195.3741 L 82.52807 193.572 L 82.52807 191.572 M 82.52807 193.572 L 83.39539 191.7698 L 84.95843 190.5221 M 83.39539 191.7698 L 84.26271 189.9677 L 85.82574 188.7199 L 86.69307 186.9178 M 85.82574 188.7199 L 87.38879 187.4721 L 89.3383 187.0256 M 87.38879 187.4721 L 88.95183 186.2244 M 84.26271 189.9677 L 85.13003 188.1655 L 85.13003 186.1655 M 85.13003 188.1655 L 85.99734 186.3634 L 87.56039 185.1156 M 85.99734 186.3634 L 86.86467 184.5612 L 88.4277 183.3134 L 89.29503 181.5113 M 88.4277 183.3134 L 89.99075 182.0657 L 91.94027 181.6192 M 89.99075 182.0657 L 91.55379 180.8179 L 92.4211 179.0157 L 92.4211 177.0157 M 92.4211 179.0157 L 93.28843 177.2136 L 94.85147 175.9658 M 93.28843 177.2136 L 94.15575 175.4114 M 91.55379 180.8179 L 93.11683 179.5701 L 93.98415 177.768 M 93.11683 179.5701 L 94.67987 178.3224 L 96.62939 177.8759 M 94.67987 178.3224 L 96.2429 177.0746 L 98.19243 176.6281 L 99.75546 175.3803 M 98.19243 176.6281 L 100.1419 176.1816 L 102.0922 176.6247 M 100.1419 176.1816 L 102.0915 175.7351 M 96.2429 177.0746 L 97.80595 175.8268 L 98.67326 174.0247 M 97.80595 175.8268 L 99.36899 174.579 L 101.3185 174.1325 M 99.36899 174.579 L 100.932 173.3313 M 86.86467 184.5612 L 87.73199 182.7591 L 87.73199 180.7591 M 87.73199 182.7591 L 88.5993 180.9569 L 90.16235 179.7091 M 88.5993 180.9569 L 89.46663 179.1548 L 89.46663 177.1548 L 88.5993 175.3526 M 89.46663 177.1548 L 89.46663 175.1548 L 90.33395 173.3526 M 89.46663 175.1548 L 89.46663 173.1548 M 89.46663 179.1548 L 90.33395 177.3526 L 90.33395 175.3526 M 90.33395 177.3526 L 91.20126 175.5504 L 92.76431 174.3027 M 91.20126 175.5504 L 92.06859 173.7483 L 93.63162 172.5005 L 94.49895 170.6984 M 93.63162 172.5005 L 95.19466 171.2527 L 97.14419 170.8062 M 95.19466 171.2527 L 96.75771 170.005 M 92.06859 173.7483 L 92.93591 171.9461 L 92.93591 169.9461 M 92.93591 171.9461 L 93.80322 170.144 L 95.36626 168.8962 M 93.80322 170.144 L 94.67055 168.3418 M 71.25291 217 L 71.25291 215 L 70.38559 213.1978 M 71.25291 215 L 71.25291 213 L 72.12022 211.1978 M 71.25291 213 L 71.25291 211 L 70.38559 209.1978 L 68.82255 207.9501 M 70.38559 209.1978 L 69.51826 207.3957 L 69.51826 205.3957 M 69.51826 207.3957 L 68.65095 205.5935 M 71.25291 211 L 71.25291 209 L 70.38559 207.1978 M 71.25291 209 L 71.25291 207 L 72.12022 205.1978 M 71.25291 207 L 71.25291 205 L 72.12022 203.1978 L 72.12022 201.1978 M 72.12022 203.1978 L 72.98755 201.3957 L 74.55058 200.1479 M 72.98755 201.3957 L 73.85487 199.5935 M 71.25291 205 L 71.25291 203 L 70.38559 201.1978 M 71.25291 203 L 71.25291 201 L 72.12022 199.1978 M 71.25291 201 L 71.25291 199 L 70.38559 197.1978 L 68.82255 195.9501 M 70.38559 197.1978 L 69.51826 195.3957 L 69.51826 193.3957 M 69.51826 195.3957 L 68.65095 193.5935 L 67.08791 192.3458 L 65.13839 191.8993 M 67.08791 192.3458 L 65.52486 191.098 L 64.65755 189.2958 M 65.52486 191.098 L 63.96183 189.8502 M 68.65095 193.5935 L 67.78363 191.7914 L 66.22059 190.5436 M 67.78363 191.7914 L 66.91631 189.9892 L 66.91631 187.9892 M 66.91631 189.9892 L 66.04899 188.1871 L 66.04899 186.1871 L 65.18166 184.3849 M 66.04899 186.1871 L 66.04899 184.1871 L 66.91631 182.3849 M 66.04899 184.1871 L 66.04899 182.1871 M 66.04899 188.1871 L 65.18166 186.3849 L 63.61863 185.1371 M 65.18166 186.3849 L 64.31435 184.5828 L 64.31435 182.5828 M 64.31435 184.5828 L 63.44703 182.7806 M 71.25291 199 L 71.25291 197 L 70.38559 195.1978 M 71.25291 197 L 71.25291 195 L 72.12022 193.1978 M 71.25291 195 L 71.25291 193 L 70.38559 191.1978 L 68.82255 189.9501 M 70.38559 191.1978 L 69.51826 189.3957 L 69.51826 187.3957 M 69.51826 189.3957 L 68.65095 187.5935 M 71.25291 193 L 71.25291 191 L 70.38559 189.1978 M 71.25291 191 L 71.25291 189 L 72.12022 187.1978 M 71.25291 189 L 71.25291 187 L 72.12022 185.1978 L 72.12022 183.1978 M 72.12022 185.1978 L 72.98755 183.3957 L 74.55058 182.1479 M 72.98755 183.3957 L 73.85487 181.5935 M 71.25291 187 L 71.25291 185 L 70.38559 183.1978 M 71.25291 185 L 71.25291 183 L 72.12022 181.1978 M 71.25291 183 L 71.25291 181 L 72.12022 179.1978 L 72.12022 177.1978 M 72.12022 179.1978 L 72.98755 177.3957 L 74.55058 176.1479 M 72.98755 177.3957 L 73.85487 175.5935 L 73.85487 173.5935 L 72.98755 171.7914 M 73.85487 173.5935 L 73.85487 171.5935 L 74.72218 169.7914 M 73.85487 171.5935 L 73.85487 169.5935 M 73.85487 175.5935 L 74.72218 173.7914 L 74.72218 171.7914 M 74.72218 173.7914 L 75.58951 171.9892 L 77.15255 170.7415 M 75.58951 171.9892 L 76.45683 170.1871 L 78.01987 168.9393 L 78.88718 167.1371 M 78.01987 168.9393 L 79.58291 167.6915 L 81.53242 167.245 M 79.58291 167.6915 L 81.14595 166.4438 M 76.45683 170.1871 L 77.32415 168.3849 L 77.32415 166.3849 M 77.32415 168.3849 L 78.19147 166.5828 L 79.75451 165.335 M 78.19147 166.5828 L 79.05878 164.7806 M 71.25291 181 L 71.25291 179 L 70.38559 177.1978 M 71.25291 179 L 71.25291 177 L 72.12022 175.1978 M 71.25291 177 L 71.25291 175 L 70.38559 173.1978 L 68.82255 171.9501 M 70.38559 173.1978 L 69.51826 171.3957 L 69.51826 169.3957 M 69.51826 171.3957 L 68.65095 169.5935 M 71.25291 175 L 71.25291 173 L 70.38559 171.1978 M 71.25291 173 L 71.25291 171 L 72.12022 169.1978 M 71.25291 171 L 71.25291 169 L 72.12022 167.1978 L 72.12022 165.1978 M 72.12022 167.1978 L 72.98755 165.3957 L 74.55058 164.1479 M 72.98755 165.3957 L 73.85487 163.5935 M 71.25291 169 L 71.25291 167 L 70.38559 165.1978 M 71.25291 167 L 71.25291 165 L 72.12022 163.1978 M 71.25291 165 L 71.25291 163 L 72.12022 161.1978 L 72.12022 159.1978 M 72.12022 161.1978 L 72.98755 159.3957 L 74.55058 158.1479 M 72.98755 159.3957 L 73.85487 157.5935 L 73.85487 155.5935 L 72.98755 153.7914 M 73.85487 155.5935 L 73.85487 153.5935 L 74.72218 151.7914 M 73.85487 153.5935 L 73.85487 151.5935 M 73.85487 157.5935 L 74.72218 155.7914 L 74.72218 153.7914 M 74.72218 155.7914 L 75.58951 153.9892 L 77.15255 152.7415 M 75.58951 153.9892 L 76.45683 152.1871 L 78.01987 150.9393 L 78.88718 149.1371 M 78.01987 150.9393 L 79.58291 149.6915 L 81.53242 149.245 M 79.58291 149.6915 L 81.14595 148.4438 M 76.45683 152.1871 L 77.32415 150.3849 L 77.32415 148.3849 M 77.32415 150.3849 L 78.19147 148.5828 L 79.75451 147.335 M 78.19147 148.5828 L 79.05878 146.7806 L 79.05878 144.7806 L 78.19147 142.9785 M 79.05878 144.7806 L 79.05878 142.7806 L 79.92611 140.9785 M 79.05878 142.7806 L 79.05878 140.7806 L 78.19147 138.9785 L 76.62843 137.7307 M 78.19147 138.9785 L 77.32415 137.1763 L 77.32415 135.1763 M 77.32415 137.1763 L 76.45683 135.3741 M 79.05878 140.7806 L 79.05878 138.7806 L 78.19147 136.9785 M 79.05878 138.7806 L 79.05878 136.7806 L 79.92611 134.9785 M 79.05878 136.7806 L 79.05878 134.7806 L 79.92611 132.9785 L 79.92611 130.9785 M 79.92611 132.9785 L 80.79343 131.1763 L 82.35647 129.9285 M 80.79343 131.1763 L 81.66074 129.3741 M 79.05878 134.7806 L 79.05878 132.7806 L 78.19147 130.9785 M 79.05878 132.7806 L 79.05878 130.7806 L 79.92611 128.9785 M 79.05878 130.7806 L 79.05878 128.7806 M 79.05878 146.7806 L 79.92611 144.9785 L 79.92611 142.9785 M 79.92611 144.9785 L 80.79343 143.1763 L 82.35647 141.9285 M 80.79343 143.1763 L 81.66074 141.3741 L 81.66074 139.3741 L 80.79343 137.572 M 81.66074 139.3741 L 81.66074 137.3741 L 82.52807 135.572 M 81.66074 137.3741 L 81.66074 135.3741 M 81.66074 141.3741 L 82.52807 139.572 L 82.52807 137.572 M 82.52807 139.572 L 83.39539 137.7698 L 84.95843 136.5221 M 83.39539 137.7698 L 84.26271 135.9677 L 85.82574 134.7199 L 86.69307 132.9178 M 85.82574 134.7199 L 87.38879 133.4721 L 89.3383 133.0256 M 87.38879 133.4721 L 88.95183 132.2244 M 84.26271 135.9677 L 85.13003 134.1655 L 85.13003 132.1655 M 85.13003 134.1655 L 85.99734 132.3634 L 87.56039 131.1156 M 85.99734 132.3634 L 86.86467 130.5612 L 88.4277 129.3134 L 89.29503 127.5113 M 88.4277 129.3134 L 89.99075 128.0657 L 91.94027 127.6192 M 89.99075 128.0657 L 91.55379 126.8179 L 92.4211 125.0157 L 92.4211 123.0157 M 92.4211 125.0157 L 93.28843 123.2136 L 94.85147 121.9658 M 93.28843 123.2136 L 94.15575 121.4114 M 91.55379 126.8179 L 93.11683 125.5701 L 93.98415 123.768 M 93.11683 125.5701 L 94.67987 124.3224 L 96.62939 123.8759 M 94.67987 124.3224 L 96.2429 123.0746 L 98.19243 122.6281 L 99.75546 121.3803 M 98.19243 122.6281 L 100.1419 122.1816 L 102.0922 122.6247 M 100.1419 122.1816 L 102.0915 121.7351 M 96.2429 123.0746 L 97.80595 121.8268 L 98.67326 120.0247 M 97.80595 121.8268 L 99.36899 120.579 L 101.3185 120.1325 M 99.36899 120.579 L 100.932 119.3313 M 86.86467 130.5612 L 87.73199 128.7591 L 87.73199 126.7591 M 87.73199 128.7591 L 88.5993 126.9569 L 90.16235 125.7091 M 88.5993 126.9569 L 89.46663 125.1548 L 89.46663 123.1548 L 88.5993 121.3526 M 89.46663 123.1548 L 89.46663 121.1548 L 90.33395 119.3526 M 89.46663 121.1548 L 89.46663 119.1548 M 89.46663 125.1548 L 90.33395 123.3526 L 90.33395 121.3526 M 90.33395 123.3526 L 91.20126 121.5504 L 92.76431 120.3027 M 91.20126 121.5504 L 92.06859 119.7483 L 93.63162 118.5005 L 94.49895 116.6984 M 93.63162 118.5005 L 95.19466 117.2527 L 97.14419 116.8062 M 95.19466 117.2527 L 96.75771 116.005 M 92.06859 119.7483 L 92.93591 117.9461 L 92.93591 115.9461 M 92.93591 117.9461 L 93.80322 116.144 L 95.36626 114.8962 M 93.80322 116.144 L 94.67055 114.3418 L 94.67055 112.3418 L 93.80322 110.5397 M 94.67055 112.3418 L 94.67055 110.3418 L 95.53786 108.5397 M 94.67055 110.3418 L 94.67055 108.3418 L 93.80322 106.5397 L 92.24019 105.2919 M 93.80322 106.5397 L 92.93591 104.7375 L 92.93591 102.7375 M 92.93591 104.7375 L 92.06859 102.9354 M 94.67055 108.3418 L 94.67055 106.3418 L 93.80322 104.5397 M 94.67055 106.3418 L 94.67055 104.3418 L 95.53786 102.5397 M 94.67055 104.3418 L 94.67055 102.3418 L 95.53786 100.5397 L 95.53786 98.53967 M 95.53786 100.5397 L 96.40519 98.73752 L 97.96823 97.48975 M 96.40519 98.73752 L 97.27251 96.93536 M 94.67055 102.3418 L 94.67055 100.3418 L 93.80322 98.53967 M 94.67055 100.3418 L 94.67055 98.34183 L 95.53786 96.53967 M 94.67055 98.34183 L 94.67055 96.34183 L 93.80322 94.53967 L 92.24019 93.2919 M 93.80322 94.53967 L 92.93591 92.73752 L 92.93591 90.73752 M 92.93591 92.73752 L 92.06859 90.93536 L 90.50555 89.68759 L 88.55603 89.24109 M 90.50555 89.68759 L 88.9425 88.43982 L 88.07519 86.63766 M 88.9425 88.43982 L 87.37947 87.19205 M 92.06859 90.93536 L 91.20126 89.13321 L 89.63823 87.88544 M 91.20126 89.13321 L 90.33395 87.33105 L 90.33395 85.33105 M 90.33395 87.33105 L 89.46663 85.5289 L 89.46663 83.5289 L 88.5993 81.72675 M 89.46663 83.5289 L 89.46663 81.5289 L 90.33395 79.72675 M 89.46663 81.5289 L 89.46663 79.5289 M 89.46663 85.5289 L 88.5993 83.72675 L 87.03627 82.47897 M 88.5993 83.72675 L 87.73199 81.92459 L 87.73199 79.92459 M 87.73199 81.92459 L 86.86467 80.12244 M 94.67055 96.34183 L 94.67055 94.34183 L 93.80322 92.53967 M 94.67055 94.34183 L 94.67055 92.34183 L 95.53786 90.53967 M 94.67055 92.34183 L 94.67055 90.34183 L 93.80322 88.53967 L 92.24019 87.2919 M 93.80322 88.53967 L 92.93591 86.73752 L 92.93591 84.73752 M 92.93591 86.73752 L 92.06859 84.93536 M 94.67055 90.34183 L 94.67055 88.34183 L 93.80322 86.53967 M 94.67055 88.34183 L 94.67055 86.34183 L 95.53786 84.53967 M 94.67055 86.34183 L 94.67055 84.34183 L 95.53786 82.53967 L 95.53786 80.53967 M 95.53786 82.53967 L 96.40519 80.73752 L 97.96823 79.48975 M 96.40519 80.73752 L 97.27251 78.93536 M 94.67055 84.34183 L 94.67055 82.34183 L 93.80322 80.53967 M 94.67055 82.34183 L 94.67055 80.34183 L 95.53786 78.53967 M 94.67055 80.34183 L 94.67055 78.34183 L 95.53786 76.53967 L 95.53786 74.53967 M 95.53786 76.53967 L 96.40519 74.73752 L 97.96823 73.48975 M 96.40519 74.73752 L 97.27251 72.93536 L 97.27251 70.93536 L 96.40519 69.13321 M 97.27251 70.93536 L 97.27251 68.93536 L 98.13983 67.13321 M 97.27251 68.93536 L 97.27251 66.93536 M 97.27251 72.93536 L 98.13983 71.13321 L 98.13983 69.13321 M 98.13983 71.13321 L 99.00715 69.33105 L 100.5702 68.08328 M 99.00715 69.33105 L 99.87447 67.5289 L 101.4375 66.28113 L 102.3048 64.47897 M 101.4375 66.28113 L 103.0005 65.03336 L 104.9501 64.58685 M 103.0005 65.03336 L 104.5636 63.78558 M 99.87447 67.5289 L 100.7418 65.72675 L 100.7418 63.72675 M 100.7418 65.72675 L 101.6091 63.92459 L 103.1721 62.67682 M 101.6091 63.92459 L 102.4764 62.12244 M 94.67055 78.34183 L 94.67055 76.34183 L 93.80322 74.53967 M 94.67055 76.34183 L 94.67055 74.34183 L 95.53786 72.53967 M 94.67055 74.34183 L 94.67055 72.34183 L 93.80322 70.53967 L 92.24019 69.2919 M 93.80322 70.53967 L 92.93591 68.73752 L 92.93591 66.73752 M 92.93591 68.73752 L 92.06859 66.93536 M 94.67055 72.34183 L 94.67055 70.34183 L 93.80322 68.53967 M 94.67055 70.34183 L 94.67055 68.34183 L 95.53786 66.53967 M 94.67055 68.34183 L 94.67055 66.34183 L 95.53786 64.53967 L 95.53786 62.53967 M 95.53786 64.53967 L 96.40519 62.73752 L 97.96823 61.48975 M 96.40519 62.73752 L 97.27251 60.93536 M 94.67055 66.34183 L 94.67055 64.34183 L 93.80322 62.53967 M 94.67055 64.34183 L 94.67055 62.34183 L 95.53786 60.53967 M 94.67055 62.34183 L 94.67055 60.34183 M 94.67055 114.3418 L 95.53786 112.5397 L 95.53786 110.5397 M 95.53786 112.5397 L 96.40519 110.7375 L 97.96823 109.4897 M 96.40519 110.7375 L 97.27251 108.9354 L 97.27251 106.9354 L 96.40519 105.1332 M 97.27251 106.9354 L 97.27251 104.9354 L 98.13983 103.1332 M 97.27251 104.9354 L 97.27251 102.9354 M 97.27251 108.9354 L 98.13983 107.1332 L 98.13983 105.1332 M 98.13983 107.1332 L 99.00715 105.3311 L 100.5702 104.0833 M 99.00715 105.3311 L 99.87447 103.5289 L 101.4375 102.2811 L 102.3048 100.479 M 101.4375 102.2811 L 103.0005 101.0334 L 104.9501 100.5869 M 103.0005 101.0334 L 104.5636 99.78558 M 99.87447 103.5289 L 100.7418 101.7267 L 100.7418 99.72675 M 100.7418 101.7267 L 101.6091 99.92459 L 103.1721 98.67682 M 101.6091 99.92459 L 102.4764 98.12244 L 102.4764 96.12244 L 101.6091 94.32028 M 102.4764 96.12244 L 102.4764 94.12244 L 103.3438 92.32028 M 102.4764 94.12244 L 102.4764 92.12244 L 101.6091 90.32028 L 100.0461 89.07251 M 101.6091 90.32028 L 100.7418 88.51813 L 100.7418 86.51813 M 100.7418 88.51813 L 99.87447 86.71597 M 102.4764 92.12244 L 102.4764 90.12244 L 101.6091 88.32028 M 102.4764 90.12244 L 102.4764 88.12244 L 103.3438 86.32028 M 102.4764 88.12244 L 102.4764 86.12244 L 103.3438 84.32028 L 103.3438 82.32028 M 103.3438 84.32028 L 104.2111 82.51813 L 105.7741 81.27036 M 104.2111 82.51813 L 105.0784 80.71597 M 102.4764 86.12244 L 102.4764 84.12244 L 101.6091 82.32028 M 102.4764 84.12244 L 102.4764 82.12244 L 103.3438 80.32028 M 102.4764 82.12244 L 102.4764 80.12244 M 102.4764 98.12244 L 103.3438 96.32028 L 103.3438 94.32028 M 103.3438 96.32028 L 104.2111 94.51813 L 105.7741 93.27036 M 104.2111 94.51813 L 105.0784 92.71597 L 105.0784 90.71597 L 104.2111 88.91382 M 105.0784 90.71597 L 105.0784 88.71597 L 105.9457 86.91382 M 105.0784 88.71597 L 105.0784 86.71597 M 105.0784 92.71597 L 105.9457 90.91382 L 105.9457 88.91382 M 105.9457 90.91382 L 106.813 89.11166 L 108.3761 87.86389 M 106.813 89.11166 L 107.6803 87.30951 L 109.2434 86.06174 L 110.1107 84.25958 M 109.2434 86.06174 L 110.8064 84.81396 L 112.756 84.36746 M 110.8064 84.81396 L 112.3695 83.56619 M 107.6803 87.30951 L 108.5477 85.50735 L 108.5477 83.50735 M 108.5477 85.50735 L 109.415 83.7052 L 110.978 82.45743 M 109.415 83.7052 L 110.2823 81.90305 L 111.8454 80.65527 L 112.7127 78.85312 M 111.8454 80.65527 L 113.4084 79.4075 L 115.3579 78.961 M 113.4084 79.4075 L 114.9714 78.15973 L 115.8387 76.35757 L 115.8387 74.35757 M 115.8387 76.35757 L 116.7061 74.55542 L 118.2691 73.30765 M 116.7061 74.55542 L 117.5734 72.75327 M 114.9714 78.15973 L 116.5345 76.91196 L 117.4018 75.1098 M 116.5345 76.91196 L 118.0975 75.66418 L 120.047 75.21768 M 118.0975 75.66418 L 119.6605 74.41641 L 121.6101 73.96991 L 123.1731 72.72214 M 121.6101 73.96991 L 123.5596 73.52341 L 125.5099 73.96649 M 123.5596 73.52341 L 125.5091 73.0769 M 119.6605 74.41641 L 121.2236 73.16864 L 122.0909 71.36649 M 121.2236 73.16864 L 122.7866 71.92087 L 124.7361 71.47437 M 122.7866 71.92087 L 124.3497 70.6731 M 110.2823 81.90305 L 111.1496 80.10089 L 111.1496 78.10089 M 111.1496 80.10089 L 112.017 78.29874 L 113.58 77.05096 M 112.017 78.29874 L 112.8843 76.49658 L 112.8843 74.49658 L 112.017 72.69443 M 112.8843 74.49658 L 112.8843 72.49658 L 113.7516 70.69443 M 112.8843 72.49658 L 112.8843 70.49658 M 112.8843 76.49658 L 113.7516 74.69443 L 113.7516 72.69443 M 113.7516 74.69443 L 114.6189 72.89227 L 116.1819 71.6445 M 114.6189 72.89227 L 115.4862 71.09012 L 117.0493 69.84235 L 117.9166 68.04019 M 117.0493 69.84235 L 118.6123 68.59457 L 120.5618 68.14807 M 118.6123 68.59457 L 120.1753 67.3468 M 115.4862 71.09012 L 116.3535 69.28796 L 116.3535 67.28796 M 116.3535 69.28796 L 117.2209 67.48581 L 118.7839 66.23804 M 117.2209 67.48581 L 118.0882 65.68365 L 119.6512 64.43588 L 120.5185 62.63373 M 119.6512 64.43588 L 121.2143 63.18811 L 123.1638 62.74161 M 121.2143 63.18811 L 122.7773 61.94034 L 123.6446 60.13818 L 123.6446 58.13818 M 123.6446 60.13818 L 124.5119 58.33603 L 126.075 57.08826 M 124.5119 58.33603 L 125.3793 56.53387 M 122.7773 61.94034 L 124.3403 60.69257 L 125.2077 58.89041 M 124.3403 60.69257 L 125.9034 59.44479 L 127.8529 58.99829 M 125.9034 59.44479 L 127.4664 58.19702 L 129.416 57.75052 L 130.979 56.50275 M 129.416 57.75052 L 131.3655 57.30402 L 133.3158 57.7471 M 131.3655 57.30402 L 133.315 56.85751 M 127.4664 58.19702 L 129.0295 56.94925 L 129.8968 55.14709 M 129.0295 56.94925 L 130.5925 55.70148 L 132.542 55.25497 M 130.5925 55.70148 L 132.1555 54.4537 L 133.0229 52.65155 L 133.0229 50.65155 M 133.0229 52.65155 L 133.8902 50.8494 L 135.4532 49.60162 M 133.8902 50.8494 L 134.7575 49.04724 L 134.7575 47.04724 L 133.8902 45.24509 M 134.7575 47.04724 L 134.7575 45.04724 L 135.6248 43.24509 M 134.7575 45.04724 L 134.7575 43.04724 M 134.7575 49.04724 L 135.6248 47.24509 L 135.6248 45.24509 M 135.6248 47.24509 L 136.4921 45.44293 L 138.0552 44.19516 M 136.4921 45.44293 L 137.3594 43.64078 L 138.9225 42.39301 L 139.7898 40.59085 M 138.9225 42.39301 L 140.4855 41.14523 L 142.435 40.69873 M 140.4855 41.14523 L 142.0486 39.89746 M 137.3594 43.64078 L 138.2267 41.83862 L 138.2267 39.83862 M 138.2267 41.83862 L 139.0941 40.03647 L 140.6571 38.7887 M 139.0941 40.03647 L 139.9614 38.23431 M 132.1555 54.4537 L 133.7186 53.20593 L 134.5859 51.40378 M 133.7186 53.20593 L 135.2816 51.95816 L 137.2311 51.51166 M 135.2816 51.95816 L 136.8447 50.71039 L 137.712 48.90823 L 137.712 46.90823 M 137.712 48.90823 L 138.5793 47.10608 L 140.1423 45.85831 M 138.5793 47.10608 L 139.4466 45.30392 M 136.8447 50.71039 L 138.4077 49.46262 L 139.275 47.66046 M 138.4077 49.46262 L 139.9707 48.21484 L 141.9203 47.76834 M 139.9707 48.21484 L 141.5338 46.96707 L 143.4833 46.52057 L 145.0464 45.2728 M 143.4833 46.52057 L 145.4328 46.07407 L 147.3831 46.51715 M 145.4328 46.07407 L 147.3824 45.62756 M 141.5338 46.96707 L 143.0968 45.7193 L 143.9642 43.91714 M 143.0968 45.7193 L 144.6599 44.47153 L 146.6094 44.02502 M 144.6599 44.47153 L 146.2229 43.22375 L 148.1724 42.77725 L 149.7355 41.52948 M 148.1724 42.77725 L 150.122 42.33075 L 152.0723 42.77383 M 150.122 42.33075 L 152.0715 41.88425 L 153.6345 40.63647 L 154.5018 38.83432 M 153.6345 40.63647 L 155.1976 39.3887 L 157.1471 38.9422 M 155.1976 39.3887 L 156.7606 38.14093 M 152.0715 41.88425 L 154.021 41.43774 L 155.584 40.18997 M 154.021 41.43774 L 155.9705 40.99124 L 157.9208 41.43433 M 155.9705 40.99124 L 157.92 40.54474 L 159.8703 40.98782 L 161.8199 40.54132 M 159.8703 40.98782 L 161.8206 41.43091 L 163.3859 42.67593 M 161.8206 41.43091 L 163.771 41.87399 M 157.92 40.54474 L 159.8696 40.09824 L 161.4326 38.85046 M 159.8696 40.09824 L 161.8191 39.65173 L 163.7694 40.09482 M 161.8191 39.65173 L 163.7686 39.20523 M 146.2229 43.22375 L 147.7859 41.97598 L 148.6533 40.17383 M 147.7859 41.97598 L 149.349 40.72821 L 151.2985 40.28171 M 149.349 40.72821 L 150.912 39.48044 L 151.7794 37.67828 L 151.7794 35.67828 M 151.7794 37.67828 L 152.6467 35.87613 L 154.2097 34.62836 M 152.6467 35.87613 L 153.514 34.07397 M 150.912 39.48044 L 152.4751 38.23267 L 153.3424 36.43051 M 152.4751 38.23267 L 154.0381 36.98489 L 155.9876 36.53839 M 154.0381 36.98489 L 155.6012 35.73712 L 157.5507 35.29062 L 159.1137 34.04285 M 157.5507 35.29062 L 159.5002 34.84412 L 161.4505 35.2872 M 159.5002 34.84412 L 161.4497 34.39761 M 155.6012 35.73712 L 157.1642 34.48935 L 158.0315 32.68719 M 157.1642 34.48935 L 158.7272 33.24158 L 160.6768 32.79507 M 158.7272 33.24158 L 160.2903 31.9938 M 118.0882 65.68365 L 118.9555 63.8815 L 118.9555 61.8815 M 118.9555 63.8815 L 119.8228 62.07935 L 121.3859 60.83157 M 119.8228 62.07935 L 120.6901 60.27719 L 120.6901 58.27719 L 119.8228 56.47504 M 120.6901 58.27719 L 120.6901 56.27719 L 121.5575 54.47504 M 120.6901 56.27719 L 120.6901 54.27719 M 120.6901 60.27719 L 121.5575 58.47504 L 121.5575 56.47504 M 121.5575 58.47504 L 122.4248 56.67288 L 123.9878 55.42511 M 122.4248 56.67288 L 123.2921 54.87073 L 124.8551 53.62296 L 125.7225 51.8208 M 124.8551 53.62296 L 126.4182 52.37518 L 128.3677 51.92868 M 126.4182 52.37518 L 127.9812 51.12741 M 123.2921 54.87073 L 124.1594 53.06857 L 124.1594 51.06857 M 124.1594 53.06857 L 125.0267 51.26642 L 126.5898 50.01865 M 125.0267 51.26642 L 125.8941 49.46426 L 125.8941 47.46426 L 125.0267 45.66211 M 125.8941 47.46426 L 125.8941 45.46426 L 126.7614 43.66211 M 125.8941 45.46426 L 125.8941 43.46426 L 125.0267 41.66211 L 123.4637 40.41434 M 125.0267 41.66211 L 124.1594 39.85995 L 124.1594 37.85995 M 124.1594 39.85995 L 123.2921 38.0578 M 125.8941 43.46426 L 125.8941 41.46426 L 125.0267 39.66211 M 125.8941 41.46426 L 125.8941 39.46426 L 126.7614 37.66211 M 125.8941 39.46426 L 125.8941 37.46426 L 126.7614 35.66211 L 126.7614 33.66211 M 126.7614 35.66211 L 127.6287 33.85995 L 129.1917 32.61218 M 127.6287 33.85995 L 128.496 32.0578 M 125.8941 37.46426 L 125.8941 35.46426 L 125.0267 33.66211 M 125.8941 35.46426 L 125.8941 33.46426 L 126.7614 31.66211 M 125.8941 33.46426 L 125.8941 31.46426 M 125.8941 49.46426 L 126.7614 47.66211 L 126.7614 45.66211 M 126.7614 47.66211 L 127.6287 45.85995 L 129.1917 44.61218 M 127.6287 45.85995 L 128.496 44.0578 L 128.496 42.0578 L 127.6287 40.25565 M 128.496 42.0578 L 128.496 40.0578 L 129.3633 38.25565 M 128.496 40.0578 L 128.496 38.0578 M 128.496 44.0578 L 129.3633 42.25565 L 129.3633 40.25565 M 129.3633 42.25565 L 130.2307 40.45349 L 131.7937 39.20572 M 130.2307 40.45349 L 131.098 38.65134 L 132.661 37.40356 L 133.5284 35.60141 M 132.661 37.40356 L 134.2241 36.15579 L 136.1736 35.70929 M 134.2241 36.15579 L 135.7871 34.90802 M 131.098 38.65134 L 131.9653 36.84918 L 131.9653 34.84918 M 131.9653 36.84918 L 132.8326 35.04703 L 134.3957 33.79926 M 132.8326 35.04703 L 133.7 33.24487 L 135.263 31.9971 L 136.1303 30.19495 M 135.263 31.9971 L 136.826 30.74933 L 138.7755 30.30283 M 136.826 30.74933 L 138.3891 29.50156 L 139.2564 27.6994 L 139.2564 25.6994 M 139.2564 27.6994 L 140.1237 25.89725 L 141.6867 24.64948 M 140.1237 25.89725 L 140.991 24.09509 M 138.3891 29.50156 L 139.9521 28.25378 L 140.8194 26.45163 M 139.9521 28.25378 L 141.5152 27.00601 L 143.4647 26.55951 M 141.5152 27.00601 L 143.0782 25.75824 L 145.0277 25.31174 L 146.5908 24.06396 M 145.0277 25.31174 L 146.9772 24.86523 L 148.9275 25.30832 M 146.9772 24.86523 L 148.9268 24.41873 M 143.0782 25.75824 L 144.6412 24.51047 L 145.5086 22.70831 M 144.6412 24.51047 L 146.2043 23.2627 L 148.1538 22.81619 M 146.2043 23.2627 L 147.7673 22.01492 M 133.7 33.24487 L 134.5673 31.44272 L 134.5673 29.44272 M 134.5673 31.44272 L 135.4346 29.64056 L 136.9976 28.39279 M 135.4346 29.64056 L 136.3019 27.83841 L 136.3019 25.83841 L 135.4346 24.03625 M 136.3019 25.83841 L 136.3019 23.83841 L 137.1692 22.03625 M 136.3019 23.83841 L 136.3019 21.83841 M 136.3019 27.83841 L 137.1692 26.03625 L 137.1692 24.03625 M 137.1692 26.03625 L 138.0365 24.2341 L 139.5996 22.98633 M 138.0365 24.2341 L 138.9039 22.43195 L 140.4669 21.18417 L 141.3342 19.38202 M 140.4669 21.18417 L 142.0299 19.9364 L 143.9795 19.4899 M 142.0299 19.9364 L 143.593 18.68863 M 138.9039 22.43195 L 139.7712 20.62979 L 139.7712 18.62979 M 139.7712 20.62979 L 140.6385 18.82764 L 142.2015 17.57986 M 140.6385 18.82764 L 141.5058 17.02548 M 71.25291 163 L 71.25291 161 L 70.38559 159.1978 M 71.25291 161 L 71.25291 159 L 72.12022 157.1978 M 71.25291 159 L 71.25291 157 L 70.38559 155.1978 L 68.82255 153.9501 M 70.38559 155.1978 L 69.51826 153.3957 L 69.51826 151.3957 M 69.51826 153.3957 L 68.65095 151.5935 M 71.25291 157 L 71.25291 155 L 70.38559 153.1978 M 71.25291 155 L 71.25291 153 L 72.12022 151.1978 M 71.25291 153 L 71.25291 151 L 72.12022 149.1978 L 72.12022 147.1978 M 72.12022 149.1978 L 72.98755 147.3957 L 74.55058 146.1479 M 72.98755 147.3957 L 73.85487 145.5935 M 71.25291 151 L 71.25291 149 L 70.38559 147.1978 M 71.25291 149 L 71.25291 147 L 72.12022 145.1978 M 71.25291 147 L 71.25291 145 L 70.38559 143.1978 L 68.82255 141.9501 M 70.38559 143.1978 L 69.51826 141.3957 L 69.51826 139.3957 M 69.51826 141.3957 L 68.65095 139.5935 L 67.08791 138.3458 L 65.13839 137.8993 M 67.08791 138.3458 L 65.52486 137.098 L 64.65755 135.2958 M 65.52486 137.098 L 63.96183 135.8502 M 68.65095 139.5935 L 67.78363 137.7914 L 66.22059 136.5436 M 67.78363 137.7914 L 66.91631 135.9892 L 66.91631 133.9892 M 66.91631 135.9892 L 66.04899 134.1871 L 66.04899 132.1871 L 65.18166 130.3849 M 66.04899 132.1871 L 66.04899 130.1871 L 66.91631 128.3849 M 66.04899 130.1871 L 66.04899 128.1871 M 66.04899 134.1871 L 65.18166 132.3849 L 63.61863 131.1371 M 65.18166 132.3849 L 64.31435 130.5828 L 64.31435 128.5828 M 64.31435 130.5828 L 63.44703 128.7806 M 71.25291 145 L 71.25291 143 L 70.38559 141.1978 M 71.25291 143 L 71.25291 141 L 72.12022 139.1978 M 71.25291 141 L 71.25291 139 L 70.38559 137.1978 L 68.82255 135.9501 M 70.38559 137.1978 L 69.51826 135.3957 L 69.51826 133.3957 M 69.51826 135.3957 L 68.65095 133.5935 M 71.25291 139 L 71.25291 137 L 70.38559 135.1978 M 71.25291 137 L 71.25291 135 L 72.12022 133.1978 M 71.25291 135 L 71.25291 133 L 72.12022 131.1978 L 72.12022 129.1978 M 72.12022 131.1978 L 72.98755 129.3957 L 74.55058 128.1479 M 72.98755 129.3957 L 73.85487 127.5935 M 71.25291 133 L 71.25291 131 L 70.38559 129.1978 M 71.25291 131 L 71.25291 129 L 72.12022 127.1978 M 71.25291 129 L 71.25291 127 L 72.12022 125.1978 L 72.12022 123.1978 M 72.12022 125.1978 L 72.98755 123.3957 L 74.55058 122.1479 M 72.98755 123.3957 L 73.85487 121.5935 L 73.85487 119.5935 L 72.98755 117.7914 M 73.85487 119.5935 L 73.85487 117.5935 L 74.72218 115.7914 M 73.85487 117.5935 L 73.85487 115.5935 M 73.85487 121.5935 L 74.72218 119.7914 L 74.72218 117.7914 M 74.72218 119.7914 L 75.58951 117.9892 L 77.15255 116.7415 M 75.58951 117.9892 L 76.45683 116.1871 L 78.01987 114.9393 L 78.88718 113.1371 M 78.01987 114.9393 L 79.58291 113.6915 L 81.53242 113.245 M 79.58291 113.6915 L 81.14595 112.4438 M 76.45683 116.1871 L 77.32415 114.3849 L 77.32415 112.3849 M 77.32415 114.3849 L 78.19147 112.5828 L 79.75451 111.335 M 78.19147 112.5828 L 79.05878 110.7806 M 71.25291 127 L 71.25291 125 L 70.38559 123.1978 M 71.25291 125 L 71.25291 123 L 72.12022 121.1978 M 71.25291 123 L 71.25291 121 L 70.38559 119.1978 L 68.82255 117.9501 M 70.38559 119.1978 L 69.51826 117.3957 L 69.51826 115.3957 M 69.51826 117.3957 L 68.65095 115.5935 M 71.25291 121 L 71.25291 119 L 70.38559 117.1978 M 71.25291 119 L 71.25291 117 L 72.12022 115.1978 M 71.25291 117 L 71.25291 115 L 72.12022 113.1978 L 72.12022 111.1978 M 72.12022 113.1978 L 72.98755 111.3957 L 74.55058 110.1479 M 72.98755 111.3957 L 73.85487 109.5935 M 71.25291 115 L 71.25291 113 L 70.38559 111.1978 M 71.25291 113 L 71.25291 111 L 72.12022 109.1978 M 71.25291 111 L 71.25291 109 L 70.38559 107.1978 L 68.82255 105.9501 M 70.38559 107.1978 L 69.51826 105.3957 L 69.51826 103.3957 M 69.51826 105.3957 L 68.65095 103.5935 L 67.08791 102.3458 L 65.13839 101.8993 M 67.08791 102.3458 L 65.52486 101.098 L 64.65755 99.29584 M 65.52486 101.098 L 63.96183 99.85022 M 68.65095 103.5935 L 67.78363 101.7914 L 66.22059 100.5436 M 67.78363 101.7914 L 66.91631 99.98923 L 66.91631 97.98923 M 66.91631 99.98923 L 66.04899 98.18707 L 66.04899 96.18707 L 65.18166 94.38492 M 66.04899 96.18707 L 66.04899 94.18707 L 66.91631 92.38492 M 66.04899 94.18707 L 66.04899 92.18707 M 66.04899 98.18707 L 65.18166 96.38492 L 63.61863 95.13715 M 65.18166 96.38492 L 64.31435 94.58276 L 64.31435 92.58276 M 64.31435 94.58276 L 63.44703 92.78061 L 61.88399 91.53284 L 59.93447 91.08633 M 61.88399 91.53284 L 60.32095 90.28506 L 59.45363 88.48291 M 60.32095 90.28506 L 58.75791 89.03729 L 56.80839 88.59079 L 54.85809 89.03387 M 56.80839 88.59079 L 54.85887 88.14429 L 53.29583 86.89651 M 54.85887 88.14429 L 52.90935 87.69778 M 58.75791 89.03729 L 57.19487 87.78952 L 55.24535 87.34302 M 57.19487 87.78952 L 55.63183 86.54175 L 54.76451 84.73959 M 55.63183 86.54175 L 54.06879 85.29398 L 53.20147 83.49182 L 51.63843 82.24405 M 53.20147 83.49182 L 52.33414 81.68967 L 52.33414 79.68967 M 52.33414 81.68967 L 51.46683 79.88751 M 54.06879 85.29398 L 52.50574 84.0462 L 50.55623 83.5997 M 52.50574 84.0462 L 50.94271 82.79843 L 50.07539 80.99628 M 50.94271 82.79843 L 49.37967 81.55066 M 63.44703 92.78061 L 62.57971 90.97845 L 61.01667 89.73068 M 62.57971 90.97845 L 61.71239 89.1763 L 61.71239 87.1763 M 61.71239 89.1763 L 60.84507 87.37415 L 59.28203 86.12637 L 57.33251 85.67987 M 59.28203 86.12637 L 57.71899 84.8786 L 56.85167 83.07645 M 57.71899 84.8786 L 56.15594 83.63083 M 60.84507 87.37415 L 59.97775 85.57199 L 58.41471 84.32422 M 59.97775 85.57199 L 59.11043 83.76984 L 59.11043 81.76984 M 59.11043 83.76984 L 58.24311 81.96768 L 58.24311 79.96768 L 57.37579 78.16553 M 58.24311 79.96768 L 58.24311 77.96768 L 59.11043 76.16553 M 58.24311 77.96768 L 58.24311 75.96768 M 58.24311 81.96768 L 57.37579 80.16553 L 55.81275 78.91776 M 57.37579 80.16553 L 56.50847 78.36337 L 56.50847 76.36337 M 56.50847 78.36337 L 55.64115 76.56122 L 55.64115 74.56122 L 54.77383 72.75906 M 55.64115 74.56122 L 55.64115 72.56122 L 56.50847 70.75906 M 55.64115 72.56122 L 55.64115 70.56122 L 54.77383 68.75906 L 53.21078 67.51129 M 54.77383 68.75906 L 53.90651 66.95691 L 53.90651 64.95691 M 53.90651 66.95691 L 53.03918 65.15475 M 55.64115 70.56122 L 55.64115 68.56122 L 54.77383 66.75906 M 55.64115 68.56122 L 55.64115 66.56122 L 56.50847 64.75906 M 55.64115 66.56122 L 55.64115 64.56122 L 56.50847 62.75906 L 56.50847 60.75906 M 56.50847 62.75906 L 57.37579 60.95691 L 58.93883 59.70914 M 57.37579 60.95691 L 58.24311 59.15475 M 55.64115 64.56122 L 55.64115 62.56122 L 54.77383 60.75906 M 55.64115 62.56122 L 55.64115 60.56122 L 56.50847 58.75906 M 55.64115 60.56122 L 55.64115 58.56122 M 55.64115 76.56122 L 54.77383 74.75906 L 53.21078 73.51129 M 54.77383 74.75906 L 53.90651 72.95691 L 53.90651 70.95691 M 53.90651 72.95691 L 53.03918 71.15475 L 51.47615 69.90698 L 49.52663 69.46048 M 51.47615 69.90698 L 49.91311 68.65921 L 49.04578 66.85706 M 49.91311 68.65921 L 48.35007 67.41144 M 53.03918 71.15475 L 52.17187 69.3526 L 50.60883 68.10483 M 52.17187 69.3526 L 51.30455 67.55045 L 51.30455 65.55045 M 51.30455 67.55045 L 50.43723 65.74829 L 50.43723 63.74829 L 49.56991 61.94614 M 50.43723 63.74829 L 50.43723 61.74829 L 51.30455 59.94614 M 50.43723 61.74829 L 50.43723 59.74829 M 50.43723 65.74829 L 49.56991 63.94614 L 48.00687 62.69836 M 49.56991 63.94614 L 48.70259 62.14398 L 48.70259 60.14398 M 48.70259 62.14398 L 47.83527 60.34183 M 71.25291 109 L 71.25291 107 L 70.38559 105.1978 M 71.25291 107 L 71.25291 105 L 72.12022 103.1978 M 71.25291 105 L 71.25291 103 L 70.38559 101.1978 L 68.82255 99.95007 M 70.38559 101.1978 L 69.51826 99.39569 L 69.51826 97.39569 M 69.51826 99.39569 L 68.65095 97.59354 M 71.25291 103 L 71.25291 101 L 70.38559 99.19785 M 71.25291 101 L 71.25291 99 L 72.12022 97.19785 M 71.25291 99 L 71.25291 97 L 72.12022 95.19785 L 72.12022 93.19785 M 72.12022 95.19785 L 72.98755 93.39569 L 74.55058 92.14792 M 72.98755 93.39569 L 73.85487 91.59354 M 71.25291 97 L 71.25291 95 L 70.38559 93.19785 M 71.25291 95 L 71.25291 93 L 72.12022 91.19785 M 71.25291 93 L 71.25291 91 L 70.38559 89.19785 L 68.82255 87.95007 M 70.38559 89.19785 L 69.51826 87.39569 L 69.51826 85.39569 M 69.51826 87.39569 L 68.65095 85.59354 L 67.08791 84.34576 L 65.13839 83.89926 M 67.08791 84.34576 L 65.52486 83.09799 L 64.65755 81.29584 M 65.52486 83.09799 L 63.96183 81.85022 M 68.65095 85.59354 L 67.78363 83.79138 L 66.22059 82.54361 M 67.78363 83.79138 L 66.91631 81.98923 L 66.91631 79.98923 M 66.91631 81.98923 L 66.04899 80.18707 L 66.04899 78.18707 L 65.18166 76.38492 M 66.04899 78.18707 L 66.04899 76.18707 L 66.91631 74.38492 M 66.04899 76.18707 L 66.04899 74.18707 M 66.04899 80.18707 L 65.18166 78.38492 L 63.61863 77.13715 M 65.18166 78.38492 L 64.31435 76.58276 L 64.31435 74.58276 M 64.31435 76.58276 L 63.44703 74.78061 M 71.25291 91 L 71.25291 89 L 70.38559 87.19785 M 71.25291 89 L 71.25291 87 L 72.12022 85.19785 M 71.25291 87 L 71.25291 85 L 70.38559 83.19785 L 68.82255 81.95007 M 70.38559 83.19785 L 69.51826 81.39569 L 69.51826 79.39569 M 69.51826 81.39569 L 68.65095 79.59354 M 71.25291 85 L 71.25291 83 L 70.38559 81.19785 M 71.25291 83 L 71.25291 81 L 72.12022 79.19785 M 71.25291 81 L 71.25291 79 L 72.12022 77.19785 L 72.12022 75.19785 M 72.12022 77.19785 L 72.98755 75.39569 L 74.55058 74.14792 M 72.98755 75.39569 L 73.85487 73.59354 M 71.25291 79 L 71.25291 77 L 70.38559 75.19785 M 71.25291 77 L 71.25291 75 L 72.12022 73.19785 M 71.25291 75 L 71.25291 73 L 72.12022 71.19785 L 72.12022 69.19785 M 72.12022 71.19785 L 72.98755 69.39569 L 74.55058 68.14792 M 72.98755 69.39569 L 73.85487 67.59354 L 73.85487 65.59354 L 72.98755 63.79138 M 73.85487 65.59354 L 73.85487 63.59354 L 74.72218 61.79138 M 73.85487 63.59354 L 73.85487 61.59354 M 73.85487 67.59354 L 74.72218 65.79138 L 74.72218 63.79138 M 74.72218 65.79138 L 75.58951 63.98923 L 77.15255 62.74146 M 75.58951 63.98923 L 76.45683 62.18707 L 78.01987 60.9393 L 78.88718 59.13715 M 78.01987 60.9393 L 79.58291 59.69153 L 81.53242 59.24503 M 79.58291 59.69153 L 81.14595 58.44376 M 76.45683 62.18707 L 77.32415 60.38492 L 77.32415 58.38492 M 77.32415 60.38492 L 78.19147 58.58276 L 79.75451 57.33499 M 78.19147 58.58276 L 79.05878 56.78061 M 71.25291 73 L 71.25291 71 L 70.38559 69.19785 M 71.25291 71 L 71.25291 69 L 72.12022 67.19785 M 71.25291 69 L 71.25291 67 L 70.38559 65.19785 L 68.82255 63.95007 M 70.38559 65.19785 L 69.51826 63.39569 L 69.51826 61.39569 M 69.51826 63.39569 L 68.65095 61.59354 M 71.25291 67 L 71.25291 65 L 70.38559 63.19785 M 71.25291 65 L 71.25291 63 L 72.12022 61.19785 M 71.25291 63 L 71.25291 61 L 72.12022 59.19785 L 72.12022 57.19785 M 72.12022 59.19785 L 72.98755 57.39569 L 74.55058 56.14792 M 72.98755 57.39569 L 73.85487 55.59354 M 71.25291 61 L 71.25291 59 L 70.38559 57.19785 M 71.25291 59 L 71.25291 57 L 72.12022 55.19785 M 71.25291 57 L 71.25291 55 L 72.12022 53.19785 L 72.12022 51.19785 M 72.12022 53.19785 L 72.98755 51.39569 L 74.55058 50.14792 M 72.98755 51.39569 L 73.85487 49.59354 L 73.85487 47.59354 L 72.98755 45.79138 M 73.85487 47.59354 L 73.85487 45.59354 L 74.72218 43.79138 M 73.85487 45.59354 L 73.85487 43.59354 M 73.85487 49.59354 L 74.72218 47.79138 L 74.72218 45.79138 M 74.72218 47.79138 L 75.58951 45.98923 L 77.15255 44.74146 M 75.58951 45.98923 L 76.45683 44.18707 L 78.01987 42.9393 L 78.88718 41.13715 M 78.01987 42.9393 L 79.58291 41.69153 L 81.53242 41.24503 M 79.58291 41.69153 L 81.14595 40.44376 M 76.45683 44.18707 L 77.32415 42.38492 L 77.32415 40.38492 M 77.32415 42.38492 L 78.19147 40.58276 L 79.75451 39.33499 M 78.19147 40.58276 L 79.05878 38.78061 L 79.05878 36.78061 L 78.19147 34.97845 M 79.05878 36.78061 L 79.05878 34.78061 L 79.92611 32.97845 M 79.05878 34.78061 L 79.05878 32.78061 L 78.19147 30.97845 L 76.62843 29.73068 M 78.19147 30.97845 L 77.32415 29.1763 L 77.32415 27.1763 M 77.32415 29.1763 L 76.45683 27.37415 M 79.05878 32.78061 L 79.05878 30.78061 L 78.19147 28.97845 M 79.05878 30.78061 L 79.05878 28.78061 L 79.92611 26.97845 M 79.05878 28.78061 L 79.05878 26.78061 L 79.92611 24.97845 L 79.92611 22.97845 M 79.92611 24.97845 L 80.79343 23.1763 L 82.35647 21.92853 M 80.79343 23.1763 L 81.66074 21.37415 M 79.05878 26.78061 L 79.05878 24.78061 L 78.19147 22.97845 M 79.05878 24.78061 L 79.05878 22.78061 L 79.92611 20.97845 M 79.05878 22.78061 L 79.05878 20.78061 M 79.05878 38.78061 L 79.92611 36.97845 L 79.92611 34.97845 M 79.92611 36.97845 L 80.79343 35.1763 L 82.35647 33.92853 M 80.79343 35.1763 L 81.66074 33.37415 L 81.66074 31.37415 L 80.79343 29.57199 M 81.66074 31.37415 L 81.66074 29.37415 L 82.52807 27.57199 M 81.66074 29.37415 L 81.66074 27.37415 M 81.66074 33.37415 L 82.52807 31.57199 L 82.52807 29.57199 M 82.52807 31.57199 L 83.39539 29.76984 L 84.95843 28.52206 M 83.39539 29.76984 L 84.26271 27.96768 L 85.82574 26.71991 L 86.69307 24.91776 M 85.82574 26.71991 L 87.38879 25.47214 L 89.3383 25.02563 M 87.38879 25.47214 L 88.95183 24.22437 M 84.26271 27.96768 L 85.13003 26.16553 L 85.13003 24.16553 M 85.13003 26.16553 L 85.99734 24.36337 L 87.56039 23.1156 M 85.99734 24.36337 L 86.86467 22.56122 L 88.4277 21.31345 L 89.29503 19.51129 M 88.4277 21.31345 L 89.99075 20.06567 L 91.94027 19.61917 M 89.99075 20.06567 L 91.55379 18.8179 L 92.4211 17.01575 L 92.4211 15.01575 M 92.4211 17.01575 L 93.28843 15.21359 L 94.85147 13.96582 M 93.28843 15.21359 L 94.15575 13.41144 M 91.55379 18.8179 L 93.11683 17.57013 L 93.98415 15.76797 M 93.11683 17.57013 L 94.67987 16.32236 L 96.62939 15.87585 M 94.67987 16.32236 L 96.2429 15.07458 L 98.19243 14.62808 L 99.75546 13.38031 M 98.19243 14.62808 L 100.1419 14.18158 L 102.0922 14.62466 M 100.1419 14.18158 L 102.0915 13.73508 M 96.2429 15.07458 L 97.80595 13.82681 L 98.67326 12.02466 M 97.80595 13.82681 L 99.36899 12.57904 L 101.3185 12.13254 M 99.36899 12.57904 L 100.932 11.33127 M 86.86467 22.56122 L 87.73199 20.75906 L 87.73199 18.75906 M 87.73199 20.75906 L 88.5993 18.95691 L 90.16235 17.70914 M 88.5993 18.95691 L 89.46663 17.15475 L 89.46663 15.15475 L 88.5993 13.3526 M 89.46663 15.15475 L 89.46663 13.15475 L 90.33395 11.3526 M 89.46663 13.15475 L 89.46663 11.15475 M 89.46663 17.15475 L 90.33395 15.3526 L 90.33395 13.3526 M 90.33395 15.3526 L 91.20126 13.55045 L 92.76431 12.30267 M 91.20126 13.55045 L 92.06859 11.74829 L 93.63162 10.50052 L 94.49895 8.698364 M 93.63162 10.50052 L 95.19466 9.252747 L 97.14419 8.806244 M 95.19466 9.252747 L 96.75771 8.004974 M 92.06859 11.74829 L 92.93591 9.946136 L 92.93591 7.946136 M 92.93591 9.946136 L 93.80322 8.143982 L 95.36626 6.89621 M 93.80322 8.143982 L 94.67055 6.341827 M 71.25291 55 L 71.25291 53 L 70.38559 51.19785 M 71.25291 53 L 71.25291 51 L 72.12022 49.19785 M 71.25291 51 L 71.25291 49 L 70.38559 47.19785 L 68.82255 45.95007 M 70.38559 47.19785 L 69.51826 45.39569 L 69.51826 43.39569 M 69.51826 45.39569 L 68.65095 43.59354 M 71.25291 49 L 71.25291 47 L 70.38559 45.19785 M 71.25291 47 L 71.25291 45 L 72.12022 43.19785 M 71.25291 45 L 71.25291 43 L 72.12022 41.19785 L 72.12022 39.19785 M 72.12022 41.19785 L 72.98755 39.39569 L 74.55058 38.14792 M 72.98755 39.39569 L 73.85487 37.59354 M 71.25291 43 L 71.25291 41 L 70.38559 39.19785 M 71.25291 41 L 71.25291 39 L 72.12022 37.19785 M 71.25291 39 L 71.25291 37 L 70.38559 35.19785 L 68.82255 33.95007 M 70.38559 35.19785 L 69.51826 33.39569 L 69.51826 31.39569 M 69.51826 33.39569 L 68.65095 31.59354 L 67.08791 30.34576 L 65.13839 29.89926 M 67.08791 30.34576 L 65.52486 29.09799 L 64.65755 27.29584 M 65.52486 29.09799 L 63.96183 27.85022 M 68.65095 31.59354 L 67.78363 29.79138 L 66.22059 28.54361 M 67.78363 29.79138 L 66.91631 27.98923 L 66.91631 25.98923 M 66.91631 27.98923 L 66.04899 26.18707 L 66.04899 24.18707 L 65.18166 22.38492 M 66.04899 24.18707 L 66.04899 22.18707 L 66.91631 20.38492 M 66.04899 22.18707 L 66.04899 20.18707 M 66.04899 26.18707 L 65.18166 24.38492 L 63.61863 23.13715 M 65.18166 24.38492 L 64.31435 22.58276 L 64.31435 20.58276 M 64.31435 22.58276 L 63.44703 20.78061 M 71.25291 37 L 71.25291 35 L 70.38559 33.19785 M 71.25291 35 L 71.25291 33 L 72.12022 31.19785 M 71.25291 33 L 71.25291 31 L 70.38559 29.19785 L 68.82255 27.95007 M 70.38559 29.19785 L 69.51826 27.39569 L 69.51826 25.39569 M 69.51826 27.39569 L 68.65095 25.59354 M 71.25291 31 L 71.25291 29 L 70.38559 27.19785 M 71.25291 29 L 71.25291 27 L 72.12022 25.19785 M 71.25291 27 L 71.25291 25 L 72.12022 23.19785 L 72.12022 21.19785 M 72.12022 23.19785 L 72.98755 21.39569 L 74.55058 20.14792 M 72.98755 21.39569 L 73.85487 19.59354 M 71.25291 25 L 71.25291 23 L 70.38559 21.19785 M 71.25291 23 L 71.25291 21 L 72.12022 19.19785 M 71.25291 21 L 71.25291 19 L 72.12022 17.19785 L 72.12022 15.19785 M 72.12022 17.19785 L 72.98755 15.39569 L 74.55058 14.14792 M 72.98755 15.39569 L 73.85487 13.59354 L 73.85487 11.59354 L 72.98755 9.791382 M 73.85487 11.59354 L 73.85487 9.593536 L 74.72218 7.791382 M 73.85487 9.593536 L 73.85487 7.593536 M 73.85487 13.59354 L 74.72218 11.79138 L 74.72218 9.791382 M 74.72218 11.79138 L 75.58951 9.989227 L 77.15255 8.741455 M 75.58951 9.989227 L 76.45683 8.187073 L 78.01987 6.939301 L 78.88718 5.137146 M 78.01987 6.939301 L 79.58291 5.691528 L 81.53242 5.245026 M 79.58291 5.691528 L 81.14595 4.443756 M 76.45683 8.187073 L 77.32415 6.384918 L 77.32415 4.384918 M 77.32415 6.384918 L 78.19147 4.582764 L 79.75451 3.334991 M 78.19147 4.582764 L 79.05878 2.780609 M 71.25291 19 L 71.25291 17 L 70.38559 15.19785 M 71.25291 17 L 71.25291 15 L 72.12022 13.19785 M 71.25291 15 L 71.25291 13 L 70.38559 11.19785 L 68.82255 9.950073 M 70.38559 11.19785 L 69.51826 9.395691 L 69.51826 7.395691 M 69.51826 9.395691 L 68.65095 7.593536 M 71.25291 13 L 71.25291 11 L 70.38559 9.197845 M 71.25291 11 L 71.25291 9 L 72.12022 7.197845 M 71.25291 9 L 71.25291 7 L 72.12022 5.197845 L 72.12022 3.197845 M 72.12022 5.197845 L 72.98755 3.395691 L 74.55058 2.147919 M 72.98755 3.395691 L 73.85487 1.593536 M 71.25291 7 L 71.25291 5 L 70.38559 3.197845 M 71.25291 5 L 71.25291 3 L 72.12022 1.197845 M 71.25291 3 L 71.25291 1 " />
  </g>
</svg>
