<?xml version="1.0" encoding="UTF-8" standalone="no"?>
<!DOCTYPE svg PUBLIC "-//W3C//DTD SVG 1.1//EN"
    "http://www.w3.org/Graphics/SVG/1.1/DTD/svg11.dtd">
<svg xmlns="http://www.w3.org/2000/svg" width="252" height="510">
  <desc>plant_e LSystem</desc>
  <rect width="100%" height="100%" style="fill: white"/>
  <g stroke="black" fill="none" stroke-width="1">
    <path d="M 125.6628 509 L 125.6628 507 L 125.6628 505 L 125.6628 503 L 125.6628 501 L 125.6628 499 L 125.6628 497 L 125.6628 495 L 125.6628 493 L 125.6628 491 L 125.6628 489 L 125.6628 487 L 125.6628 485 L 125.6628 483 L 125.6628 481 L 125.6628 479 L 125.6628 477 L 125.6628 475 L 125.6628 473 L 125.6628 471 L 125.6628 469 L 125.6628 467 L 125.6628 465 L 125.6628 463 L 125.6628 461 L 125.6628 459 L 125.6628 457 L 125.6628 455 L 125.6628 453 L 125.6628 451 L 125.6628 449 L 125.6628 447 L 125.6628 445 L 125.6628 443 L 125.6628 441 L 125.6628 439 L 125.6628 437 L 125.6628 435 L 125.6628 433 L 125.6628 431 L 125.6628 429 L 125.6628 427 L 125.6628 425 L 125.6628 423 L 125.6628 421 L 125.6628 419 L 125.6628 417 L 125.6628 415 L 125.6628 413 L 125.6628 411 L 125.6628 409 L 125.6628 407 L 125.6628 405 L 125.6628 403 L 125.6628 401 L 125.6628 399 L 125.6628 397 L 125.6628 395 L 125.6628 393 L 125.6628 391 L 125.6628 389 L 125.6628 387 L 125.6628 385 L 125.6628 383 L 125.6628 381 L 124.7955 379.1978 L 123.9281 377.3957 L 123.0608 375.5935 L 122.1935 373.7914 L 121.3262 371.9892 L 120.4589 370.1871 L 119.5916 368.3849 L 118.7242 366.5828 L 117.8569 364.7806 L 116.9896 362.9785 L 116.1223 361.1763 L 115.255 359.3741 L 114.3876 357.572 L 113.5203 355.7698 L 112.653 353.9677 L 111.7857 352.1655 L 110.9184 350.3634 L 110.051 348.5612 L 109.1837 346.7591 L 108.3164 344.9569 L 107.4491 343.1548 L 106.5818 341.3526 L 105.7144 339.5504 L 104.8471 337.7483 L 103.9798 335.9461 L 103.1125 334.144 L 102.2452 332.3418 L 101.3779 330.5397 L 100.5105 328.7375 L 99.64322 326.9354 L 98.7759 325.1332 L 97.90858 323.3311 L 96.34554 322.0833 L 94.7825 320.8355 L 93.21945 319.5878 L 91.65641 318.34 L 90.09337 317.0923 L 88.53033 315.8445 L 86.96729 314.5967 L 85.40425 313.349 L 83.8412 312.1013 L 82.27816 310.8535 L 80.71512 309.6057 L 79.15208 308.358 L 77.58904 307.1102 L 76.026 305.8625 L 74.46295 304.6147 L 72.89991 303.3669 L 70.95039 302.9204 L 69.00087 302.4739 L 67.05135 302.0274 L 65.10182 301.5809 L 63.15229 301.1344 L 61.20277 300.6879 L 59.25325 300.2414 L 57.30373 299.7949 L 55.35342 300.238 L 53.40312 300.6811 L 51.45282 301.1242 L 49.50252 301.5673 L 47.9373 302.8123 L 46.37208 304.0574 L 45.50162 305.858 L 44.63116 307.6587 M 46.37208 304.0574 L 44.42178 304.5005 L 42.47148 304.9436 M 46.37208 304.0574 L 44.80687 305.3024 L 43.24165 306.5474 L 41.67644 307.7924 L 40.11122 309.0375 M 49.50252 301.5673 L 47.55299 301.1208 L 45.60347 300.6743 L 43.65317 301.1174 L 41.70286 301.5605 M 45.60347 300.6743 L 44.04043 299.4266 L 42.47739 298.1788 M 45.60347 300.6743 L 43.65395 300.2278 L 41.70442 299.7813 L 39.7549 299.3348 L 37.80537 298.8883 M 49.50252 301.5673 L 47.55221 302.0104 L 45.60191 302.4535 L 43.65161 302.8966 L 41.70131 303.3397 L 39.75101 303.7828 L 37.8007 304.2259 L 36.23549 305.4709 L 34.67027 306.716 M 37.8007 304.2259 L 35.85118 303.7794 L 33.90166 303.3329 M 37.8007 304.2259 L 35.8504 304.669 L 33.9001 305.1121 L 31.9498 305.5552 L 29.9995 305.9983 M 57.30373 299.7949 L 55.74068 298.5472 L 54.17764 297.2994 L 52.6146 296.0516 L 51.05156 294.8039 L 49.10203 294.3574 L 47.15251 293.9109 L 45.20221 294.354 L 43.25191 294.7971 M 47.15251 293.9109 L 45.58947 292.6631 L 44.02643 291.4154 M 47.15251 293.9109 L 45.20299 293.4644 L 43.25346 293.0179 L 41.30394 292.5714 L 39.35442 292.1249 M 51.05156 294.8039 L 50.18424 293.0017 L 49.31692 291.1996 L 47.75388 289.9518 L 46.19084 288.7041 M 49.31692 291.1996 L 49.31692 289.1996 L 49.31692 287.1996 M 49.31692 291.1996 L 48.44961 289.3974 L 47.58229 287.5953 L 46.71497 285.7931 L 45.84766 283.991 M 51.05156 294.8039 L 49.48852 293.5562 L 47.92548 292.3084 L 46.36243 291.0606 L 44.79939 289.8129 L 43.23635 288.5651 L 41.67331 287.3174 L 39.72378 286.8708 L 37.77426 286.4243 M 41.67331 287.3174 L 40.80599 285.5152 L 39.93867 283.713 M 41.67331 287.3174 L 40.11027 286.0696 L 38.54723 284.8218 L 36.98418 283.5741 L 35.42114 282.3263 M 57.30373 299.7949 L 55.3542 299.3484 L 53.40468 298.9019 L 51.45515 298.4554 L 49.50563 298.0089 L 47.55611 297.5624 L 45.60658 297.1159 L 43.65706 296.6694 L 41.70753 296.2229 L 39.75801 295.7764 L 37.80849 295.3299 L 35.85896 294.8834 L 33.90944 294.4369 L 31.95914 294.88 L 30.00883 295.3231 L 28.44362 296.5681 L 26.8784 297.8131 M 30.00883 295.3231 L 28.05931 294.8766 L 26.10979 294.4301 M 30.00883 295.3231 L 28.05853 295.7662 L 26.10823 296.2093 L 24.15793 296.6524 L 22.20763 297.0955 M 33.90944 294.4369 L 32.3464 293.1891 L 30.78335 291.9414 L 28.83383 291.4949 L 26.88431 291.0484 M 30.78335 291.9414 L 29.91604 290.1392 L 29.04872 288.3371 M 30.78335 291.9414 L 29.22031 290.6936 L 27.65727 289.4459 L 26.09423 288.1981 L 24.53119 286.9503 M 33.90944 294.4369 L 31.95991 293.9904 L 30.01039 293.5439 L 28.06087 293.0974 L 26.11134 292.6509 L 24.16182 292.2044 L 22.21229 291.7579 L 20.26199 292.201 L 18.31169 292.6441 M 22.21229 291.7579 L 20.64925 290.5101 L 19.08621 289.2624 M 22.21229 291.7579 L 20.26277 291.3114 L 18.31325 290.8649 L 16.36372 290.4184 L 14.4142 289.9719 M 72.89991 303.3669 L 72.0326 301.5648 L 71.16528 299.7626 L 70.29796 297.9605 L 69.43064 296.1583 L 68.56333 294.3562 L 67.69601 292.554 L 66.82869 290.7519 L 65.96138 288.9497 L 64.39833 287.702 L 62.83529 286.4542 L 61.27225 285.2064 L 59.70921 283.9587 L 57.75969 283.5122 L 55.81016 283.0657 L 53.85986 283.5088 L 51.90956 283.9519 M 55.81016 283.0657 L 54.24712 281.8179 L 52.68408 280.5702 M 55.81016 283.0657 L 53.86064 282.6192 L 51.91112 282.1727 L 49.96159 281.7262 L 48.01207 281.2797 M 59.70921 283.9587 L 58.8419 282.1565 L 57.97458 280.3544 L 56.41154 279.1066 L 54.84849 277.8589 M 57.97458 280.3544 L 57.97458 278.3544 L 57.97458 276.3544 M 57.97458 280.3544 L 57.10726 278.5522 L 56.23994 276.7501 L 55.37263 274.9479 L 54.50531 273.1458 M 59.70921 283.9587 L 58.14617 282.7109 L 56.58313 281.4632 L 55.02009 280.2154 L 53.45705 278.9677 L 51.894 277.7199 L 50.33096 276.4721 L 48.38144 276.0256 L 46.43191 275.5791 M 50.33096 276.4721 L 49.46365 274.67 L 48.59633 272.8678 M 50.33096 276.4721 L 48.76792 275.2244 L 47.20488 273.9766 L 45.64184 272.7289 L 44.0788 271.4811 M 65.96138 288.9497 L 65.96138 286.9497 L 65.96138 284.9497 L 65.96138 282.9497 L 65.96138 280.9497 L 65.09406 279.1476 L 64.22675 277.3454 L 62.6637 276.0977 L 61.10066 274.8499 M 64.22675 277.3454 L 64.22675 275.3454 L 64.22675 273.3454 M 64.22675 277.3454 L 63.35942 275.5432 L 62.49211 273.7411 L 61.62479 271.9389 L 60.75747 270.1368 M 65.96138 280.9497 L 66.82869 279.1476 L 67.69601 277.3454 L 67.69601 275.3454 L 67.69601 273.3454 M 67.69601 277.3454 L 69.25905 276.0977 L 70.82209 274.8499 M 67.69601 277.3454 L 68.56333 275.5432 L 69.43064 273.7411 L 70.29796 271.9389 L 71.16528 270.1368 M 65.96138 280.9497 L 65.96138 278.9497 L 65.96138 276.9497 L 65.96138 274.9497 L 65.96138 272.9497 L 65.96138 270.9497 L 65.96138 268.9497 L 65.09406 267.1476 L 64.22675 265.3454 M 65.96138 268.9497 L 66.82869 267.1476 L 67.69601 265.3454 M 65.96138 268.9497 L 65.96138 266.9497 L 65.96138 264.9497 L 65.96138 262.9497 L 65.96138 260.9497 M 65.96138 288.9497 L 65.09406 287.1476 L 64.22675 285.3454 L 63.35942 283.5432 L 62.49211 281.7411 L 61.62479 279.9389 L 60.75747 278.1368 L 59.89015 276.3346 L 59.02283 274.5325 L 58.15552 272.7303 L 57.2882 270.9282 L 56.42088 269.126 L 55.55357 267.3239 L 53.99052 266.0761 L 52.42748 264.8283 L 50.47796 264.3818 L 48.52843 263.9353 M 52.42748 264.8283 L 51.56016 263.0262 L 50.69285 261.224 M 52.42748 264.8283 L 50.86444 263.5806 L 49.3014 262.3328 L 47.73836 261.0851 L 46.17532 259.8373 M 55.55357 267.3239 L 55.55357 265.3239 L 55.55357 263.3239 L 54.68625 261.5217 L 53.81893 259.7195 M 55.55357 263.3239 L 56.42088 261.5217 L 57.2882 259.7195 M 55.55357 263.3239 L 55.55357 261.3239 L 55.55357 259.3239 L 55.55357 257.3239 L 55.55357 255.3239 M 55.55357 267.3239 L 54.68625 265.5217 L 53.81893 263.7195 L 52.95161 261.9174 L 52.0843 260.1152 L 51.21698 258.3131 L 50.34966 256.5109 L 48.78662 255.2632 L 47.22358 254.0154 M 50.34966 256.5109 L 50.34966 254.5109 L 50.34966 252.5109 M 50.34966 256.5109 L 49.48234 254.7088 L 48.61503 252.9066 L 47.74771 251.1045 L 46.88039 249.3023 M 72.89991 303.3669 L 71.33687 302.1192 L 69.77383 300.8714 L 68.21079 299.6237 L 66.64775 298.3759 L 65.0847 297.1282 L 63.52166 295.8804 L 61.95862 294.6326 L 60.39558 293.3849 L 58.83254 292.1371 L 57.2695 290.8894 L 55.70646 289.6416 L 54.14342 288.3939 L 52.58037 287.1461 L 51.01733 285.8983 L 49.45429 284.6506 L 47.89125 283.4028 L 46.32821 282.1551 L 44.76517 280.9073 L 43.20212 279.6595 L 41.63908 278.4118 L 40.07604 277.1641 L 38.513 275.9163 L 36.94996 274.6685 L 35.38692 273.4208 L 33.43739 272.9743 L 31.48787 272.5278 L 29.53834 272.0813 L 27.58882 271.6348 L 25.63852 272.0779 L 23.68822 272.521 L 22.123 273.766 L 20.55778 275.011 M 23.68822 272.521 L 21.73869 272.0745 L 19.78917 271.628 M 23.68822 272.521 L 21.73791 272.9641 L 19.78761 273.4072 L 17.83731 273.8503 L 15.88701 274.2934 M 27.58882 271.6348 L 26.02578 270.387 L 24.46274 269.1393 L 22.51321 268.6927 L 20.56369 268.2462 M 24.46274 269.1393 L 23.59542 267.3371 L 22.7281 265.5349 M 24.46274 269.1393 L 22.8997 267.8915 L 21.33665 266.6437 L 19.77361 265.396 L 18.21057 264.1482 M 27.58882 271.6348 L 25.6393 271.1883 L 23.68977 270.7418 L 21.74025 270.2953 L 19.79072 269.8488 L 17.8412 269.4023 L 15.89168 268.9557 L 13.94137 269.3989 L 11.99107 269.8419 M 15.89168 268.9557 L 14.32864 267.708 L 12.76559 266.4602 M 15.89168 268.9557 L 13.94215 268.5092 L 11.99263 268.0627 L 10.04311 267.6162 L 8.093582 267.1697 M 35.38692 273.4208 L 34.5196 271.6186 L 33.65228 269.8165 L 32.78496 268.0143 L 31.91765 266.2122 L 30.35461 264.9644 L 28.79156 263.7166 L 26.84204 263.2701 L 24.89252 262.8236 M 28.79156 263.7166 L 27.92425 261.9145 L 27.05693 260.1123 M 28.79156 263.7166 L 27.22852 262.4689 L 25.66548 261.2211 L 24.10244 259.9734 L 22.5394 258.7256 M 31.91765 266.2122 L 31.91765 264.2122 L 31.91765 262.2122 L 31.05033 260.41 L 30.18301 258.6078 M 31.91765 262.2122 L 32.78496 260.41 L 33.65228 258.6078 M 31.91765 262.2122 L 31.91765 260.2122 L 31.91765 258.2122 L 31.91765 256.2122 L 31.91765 254.2122 M 31.91765 266.2122 L 31.05033 264.41 L 30.18301 262.6078 L 29.3157 260.8057 L 28.44838 259.0035 L 27.58106 257.2014 L 26.71374 255.3992 L 25.1507 254.1515 L 23.58766 252.9037 M 26.71374 255.3992 L 26.71374 253.3992 L 26.71374 251.3992 M 26.71374 255.3992 L 25.84643 253.5971 L 24.97911 251.7949 L 24.11179 249.9928 L 23.24448 248.1906 M 35.38692 273.4208 L 33.82387 272.173 L 32.26083 270.9253 L 30.69779 269.6775 L 29.13475 268.4297 L 27.57171 267.182 L 26.00867 265.9342 L 24.44562 264.6865 L 22.88258 263.4387 L 21.31954 262.191 L 19.7565 260.9432 L 18.19346 259.6954 L 16.63042 258.4477 L 14.68089 258.0012 L 12.73137 257.5547 L 10.78107 257.9978 L 8.830757 258.4409 M 12.73137 257.5547 L 11.16833 256.3069 L 9.605278 255.0592 M 12.73137 257.5547 L 10.78184 257.1082 L 8.832321 256.6617 L 6.882797 256.2152 L 4.933273 255.7687 M 16.63042 258.4477 L 15.7631 256.6455 L 14.89578 254.8434 L 13.33274 253.5956 L 11.7697 252.3479 M 14.89578 254.8434 L 14.89578 252.8434 L 14.89578 250.8434 M 14.89578 254.8434 L 14.02846 253.0412 L 13.16115 251.2391 L 12.29383 249.4369 L 11.42651 247.6348 M 16.63042 258.4477 L 15.06737 257.2 L 13.50433 255.9522 L 11.94129 254.7044 L 10.37825 253.4567 L 8.815208 252.2089 L 7.252174 250.9611 L 5.302643 250.5146 L 3.353119 250.0681 M 7.252174 250.9611 L 6.38485 249.159 L 5.517532 247.3568 M 7.252174 250.9611 L 5.689117 249.7133 L 4.126083 248.4656 L 2.563042 247.2178 L 1 245.97 M 97.90858 323.3311 L 97.90858 321.3311 L 97.90858 319.3311 L 97.90858 317.3311 L 97.90858 315.3311 L 97.90858 313.3311 L 97.90858 311.3311 L 97.90858 309.3311 L 97.90858 307.3311 L 97.90858 305.3311 L 97.90858 303.3311 L 97.90858 301.3311 L 97.90858 299.3311 L 97.90858 297.3311 L 97.90858 295.3311 L 97.90858 293.3311 L 97.90858 291.3311 L 97.04126 289.5289 L 96.17394 287.7267 L 95.30663 285.9246 L 94.4393 284.1224 L 93.57199 282.3203 L 92.70467 280.5181 L 91.83735 278.716 L 90.97003 276.9138 L 89.40699 275.6661 L 87.84395 274.4183 L 86.28091 273.1705 L 84.71787 271.9228 L 82.76834 271.4763 L 80.81882 271.0298 L 78.86852 271.4729 L 76.91822 271.916 M 80.81882 271.0298 L 79.25578 269.782 L 77.69274 268.5343 M 80.81882 271.0298 L 78.8693 270.5833 L 76.91977 270.1368 L 74.97025 269.6903 L 73.02072 269.2438 M 84.71787 271.9228 L 83.85056 270.1206 L 82.98323 268.3185 L 81.42019 267.0707 L 79.85715 265.823 M 82.98323 268.3185 L 82.98323 266.3185 L 82.98323 264.3185 M 82.98323 268.3185 L 82.11592 266.5163 L 81.2486 264.7142 L 80.38128 262.912 L 79.51396 261.1099 M 84.71787 271.9228 L 83.15483 270.675 L 81.59178 269.4273 L 80.02874 268.1795 L 78.4657 266.9318 L 76.90266 265.684 L 75.33962 264.4362 L 73.39009 263.9897 L 71.44057 263.5432 M 75.33962 264.4362 L 74.47231 262.6341 L 73.60498 260.8319 M 75.33962 264.4362 L 73.77658 263.1885 L 72.21353 261.9407 L 70.65049 260.693 L 69.08745 259.4452 M 90.97003 276.9138 L 90.97003 274.9138 L 90.97003 272.9138 L 90.97003 270.9138 L 90.97003 268.9138 L 90.10272 267.1117 L 89.2354 265.3095 L 87.67236 264.0618 L 86.10932 262.814 M 89.2354 265.3095 L 89.2354 263.3095 L 89.2354 261.3095 M 89.2354 265.3095 L 88.36808 263.5074 L 87.50077 261.7052 L 86.63345 259.903 L 85.76613 258.1009 M 90.97003 268.9138 L 91.83735 267.1117 L 92.70467 265.3095 L 92.70467 263.3095 L 92.70467 261.3095 M 92.70467 265.3095 L 94.26772 264.0618 L 95.83075 262.814 M 92.70467 265.3095 L 93.57199 263.5074 L 94.43931 261.7052 L 95.30663 259.903 L 96.17394 258.1009 M 90.97003 268.9138 L 90.97003 266.9138 L 90.97003 264.9138 L 90.97003 262.9138 L 90.97003 260.9138 L 90.97003 258.9138 L 90.97003 256.9138 L 90.10272 255.1117 L 89.2354 253.3095 M 90.97003 256.9138 L 91.83735 255.1117 L 92.70467 253.3095 M 90.97003 256.9138 L 90.97003 254.9138 L 90.97003 252.9138 L 90.97003 250.9138 L 90.97003 248.9138 M 90.97003 276.9138 L 90.10272 275.1117 L 89.2354 273.3095 L 88.36808 271.5074 L 87.50077 269.7052 L 86.63345 267.903 L 85.76613 266.1009 L 84.89881 264.2987 L 84.0315 262.4966 L 83.16418 260.6944 L 82.29686 258.8923 L 81.42955 257.0901 L 80.56223 255.288 L 78.99919 254.0402 L 77.43615 252.7924 L 75.48662 252.3459 L 73.5371 251.8994 M 77.43615 252.7924 L 76.56883 250.9903 L 75.70151 249.1881 M 77.43615 252.7924 L 75.8731 251.5447 L 74.31006 250.2969 L 72.74702 249.0491 L 71.18398 247.8014 M 80.56223 255.288 L 80.56223 253.288 L 80.56223 251.288 L 79.69492 249.4858 L 78.82759 247.6837 M 80.56223 251.288 L 81.42955 249.4858 L 82.29686 247.6837 M 80.56223 251.288 L 80.56223 249.288 L 80.56223 247.288 L 80.56223 245.288 L 80.56223 243.288 M 80.56223 255.288 L 79.69492 253.4858 L 78.82759 251.6837 L 77.96028 249.8815 L 77.09296 248.0793 L 76.22564 246.2772 L 75.35833 244.475 L 73.79528 243.2273 L 72.23224 241.9795 M 75.35833 244.475 L 75.35833 242.475 L 75.35833 240.475 M 75.35833 244.475 L 74.49101 242.6729 L 73.62369 240.8707 L 72.75637 239.0686 L 71.88906 237.2664 M 97.90858 291.3311 L 98.7759 289.5289 L 99.64322 287.7267 L 100.5105 285.9246 L 101.3779 284.1224 L 102.2452 282.3203 L 103.1125 280.5181 L 103.9798 278.716 L 104.8471 276.9138 L 104.8471 274.9138 L 104.8471 272.9138 L 104.8471 270.9138 L 104.8471 268.9138 L 103.9798 267.1117 L 103.1125 265.3095 L 101.5495 264.0618 L 99.98641 262.814 M 103.1125 265.3095 L 103.1125 263.3095 L 103.1125 261.3095 M 103.1125 265.3095 L 102.2452 263.5074 L 101.3779 261.7052 L 100.5105 259.903 L 99.64322 258.1009 M 104.8471 268.9138 L 105.7144 267.1117 L 106.5818 265.3095 L 106.5818 263.3095 L 106.5818 261.3095 M 106.5818 265.3095 L 108.1448 264.0618 L 109.7078 262.814 M 106.5818 265.3095 L 107.4491 263.5074 L 108.3164 261.7052 L 109.1837 259.903 L 110.051 258.1009 M 104.8471 268.9138 L 104.8471 266.9138 L 104.8471 264.9138 L 104.8471 262.9138 L 104.8471 260.9138 L 104.8471 258.9138 L 104.8471 256.9138 L 103.9798 255.1117 L 103.1125 253.3095 M 104.8471 256.9138 L 105.7144 255.1117 L 106.5818 253.3095 M 104.8471 256.9138 L 104.8471 254.9138 L 104.8471 252.9138 L 104.8471 250.9138 L 104.8471 248.9138 M 104.8471 276.9138 L 106.4102 275.6661 L 107.9732 274.4183 L 109.5363 273.1705 L 111.0993 271.9228 L 111.9666 270.1206 L 112.8339 268.3185 L 112.8339 266.3185 L 112.8339 264.3185 M 112.8339 268.3185 L 114.397 267.0707 L 115.96 265.823 M 112.8339 268.3185 L 113.7012 266.5163 L 114.5686 264.7142 L 115.4359 262.912 L 116.3032 261.1099 M 111.0993 271.9228 L 113.0488 271.4763 L 114.9984 271.0298 L 116.5614 269.782 L 118.1244 268.5343 M 114.9984 271.0298 L 116.9486 271.4729 L 118.8989 271.916 M 114.9984 271.0298 L 116.9479 270.5833 L 118.8974 270.1368 L 120.8469 269.6903 L 122.7964 269.2438 M 111.0993 271.9228 L 112.6623 270.675 L 114.2254 269.4273 L 115.7884 268.1795 L 117.3515 266.9318 L 118.9145 265.684 L 120.4776 264.4362 L 121.3449 262.6341 L 122.2122 260.8319 M 120.4776 264.4362 L 122.4271 263.9897 L 124.3766 263.5432 M 120.4776 264.4362 L 122.0406 263.1885 L 123.6036 261.9407 L 125.1667 260.693 L 126.7297 259.4452 M 104.8471 276.9138 L 105.7144 275.1117 L 106.5818 273.3095 L 107.4491 271.5074 L 108.3164 269.7052 L 109.1837 267.903 L 110.051 266.1009 L 110.9184 264.2987 L 111.7857 262.4966 L 112.653 260.6944 L 113.5203 258.8923 L 114.3876 257.0901 L 115.255 255.288 L 115.255 253.288 L 115.255 251.288 L 114.3876 249.4858 L 113.5203 247.6837 M 115.255 251.288 L 116.1223 249.4858 L 116.9896 247.6837 M 115.255 251.288 L 115.255 249.288 L 115.255 247.288 L 115.255 245.288 L 115.255 243.288 M 115.255 255.288 L 116.818 254.0402 L 118.381 252.7924 L 119.2484 250.9903 L 120.1157 249.1881 M 118.381 252.7924 L 120.3306 252.3459 L 122.2801 251.8994 M 118.381 252.7924 L 119.9441 251.5447 L 121.5071 250.2969 L 123.0702 249.0491 L 124.6332 247.8014 M 115.255 255.288 L 116.1223 253.4858 L 116.9896 251.6837 L 117.8569 249.8815 L 118.7242 248.0793 L 119.5916 246.2772 L 120.4589 244.475 L 120.4589 242.475 L 120.4589 240.475 M 120.4589 244.475 L 122.0219 243.2273 L 123.585 241.9795 M 120.4589 244.475 L 121.3262 242.6729 L 122.1935 240.8707 L 123.0608 239.0686 L 123.9281 237.2664 M 97.90858 291.3311 L 97.90858 289.3311 L 97.90858 287.3311 L 97.90858 285.3311 L 97.90858 283.3311 L 97.90858 281.3311 L 97.90858 279.3311 L 97.90858 277.3311 L 97.90858 275.3311 L 97.90858 273.3311 L 97.90858 271.3311 L 97.90858 269.3311 L 97.90858 267.3311 L 97.90858 265.3311 L 97.90858 263.3311 L 97.90858 261.3311 L 97.90858 259.3311 L 97.90858 257.3311 L 97.90858 255.3311 L 97.90858 253.3311 L 97.90858 251.3311 L 97.90858 249.3311 L 97.90858 247.3311 L 97.90858 245.3311 L 97.90858 243.3311 L 97.04126 241.5289 L 96.17394 239.7267 L 95.30663 237.9246 L 94.4393 236.1224 L 92.87627 234.8747 L 91.31322 233.6269 L 89.3637 233.1804 L 87.41417 232.7339 M 91.31322 233.6269 L 90.4459 231.8247 L 89.57859 230.0226 M 91.31322 233.6269 L 89.75018 232.3791 L 88.18714 231.1313 L 86.6241 229.8836 L 85.06105 228.6358 M 94.4393 236.1224 L 94.4393 234.1224 L 94.4393 232.1224 L 93.57199 230.3203 L 92.70467 228.5181 M 94.4393 232.1224 L 95.30663 230.3203 L 96.17394 228.5181 M 94.4393 232.1224 L 94.4393 230.1224 L 94.4393 228.1224 L 94.4393 226.1224 L 94.4393 224.1224 M 94.4393 236.1224 L 93.57199 234.3203 L 92.70467 232.5181 L 91.83735 230.716 L 90.97003 228.9138 L 90.10272 227.1117 L 89.2354 225.3095 L 87.67236 224.0617 L 86.10932 222.814 M 89.2354 225.3095 L 89.2354 223.3095 L 89.2354 221.3095 M 89.2354 225.3095 L 88.36808 223.5074 L 87.50077 221.7052 L 86.63345 219.903 L 85.76613 218.1009 M 97.90858 243.3311 L 98.7759 241.5289 L 99.64322 239.7267 L 100.5105 237.9246 L 101.3779 236.1224 L 101.3779 234.1224 L 101.3779 232.1224 L 100.5105 230.3203 L 99.64322 228.5181 M 101.3779 232.1224 L 102.2452 230.3203 L 103.1125 228.5181 M 101.3779 232.1224 L 101.3779 230.1224 L 101.3779 228.1224 L 101.3779 226.1224 L 101.3779 224.1224 M 101.3779 236.1224 L 102.9409 234.8747 L 104.5039 233.6269 L 105.3713 231.8247 L 106.2386 230.0226 M 104.5039 233.6269 L 106.4535 233.1804 L 108.403 232.7339 M 104.5039 233.6269 L 106.067 232.3791 L 107.63 231.1313 L 109.1931 229.8836 L 110.7561 228.6358 M 101.3779 236.1224 L 102.2452 234.3203 L 103.1125 232.5181 L 103.9798 230.716 L 104.8471 228.9138 L 105.7144 227.1117 L 106.5818 225.3095 L 106.5818 223.3095 L 106.5818 221.3095 M 106.5818 225.3095 L 108.1448 224.0617 L 109.7078 222.814 M 106.5818 225.3095 L 107.4491 223.5074 L 108.3164 221.7052 L 109.1837 219.903 L 110.051 218.1009 M 97.90858 243.3311 L 97.90858 241.3311 L 97.90858 239.3311 L 97.90858 237.3311 L 97.90858 235.3311 L 97.90858 233.3311 L 97.90858 231.3311 L 97.90858 229.3311 L 97.90858 227.3311 L 97.90858 225.3311 L 97.90858 223.3311 L 97.90858 221.3311 L 97.90858 219.3311 L 97.04126 217.5289 L 96.17394 215.7267 L 94.6109 214.479 L 93.04786 213.2312 M 96.17394 215.7267 L 96.17394 213.7267 L 96.17394 211.7267 M 96.17394 215.7267 L 95.30663 213.9246 L 94.4393 212.1224 L 93.57199 210.3203 L 92.70467 208.5181 M 97.90858 219.3311 L 98.7759 217.5289 L 99.64322 215.7267 L 99.64322 213.7267 L 99.64322 211.7267 M 99.64322 215.7267 L 101.2063 214.479 L 102.7693 213.2312 M 99.64322 215.7267 L 100.5105 213.9246 L 101.3779 212.1224 L 102.2452 210.3203 L 103.1125 208.5181 M 97.90858 219.3311 L 97.90858 217.3311 L 97.90858 215.3311 L 97.90858 213.3311 L 97.90858 211.3311 L 97.90858 209.3311 L 97.90858 207.3311 L 97.04126 205.5289 L 96.17394 203.7267 M 97.90858 207.3311 L 98.7759 205.5289 L 99.64322 203.7267 M 97.90858 207.3311 L 97.90858 205.3311 L 97.90858 203.3311 L 97.90858 201.3311 L 97.90858 199.3311 M 97.90858 323.3311 L 97.04126 321.5289 L 96.17394 319.7267 L 95.30663 317.9246 L 94.4393 316.1224 L 93.57199 314.3203 L 92.70467 312.5181 L 91.83735 310.716 L 90.97003 308.9138 L 90.10272 307.1117 L 89.2354 305.3095 L 88.36808 303.5074 L 87.50077 301.7052 L 86.63345 299.903 L 85.76613 298.1009 L 84.89881 296.2987 L 84.0315 294.4966 L 83.16418 292.6944 L 82.29686 290.8923 L 81.42955 289.0901 L 80.56223 287.288 L 79.69492 285.4858 L 78.82759 283.6837 L 77.96028 281.8815 L 77.09296 280.0793 L 76.22564 278.2772 L 75.35833 276.475 L 74.49101 274.6729 L 73.62369 272.8707 L 72.75637 271.0686 L 71.88906 269.2664 L 71.02174 267.4643 L 70.15442 265.6621 L 69.2871 263.86 L 68.41979 262.0578 L 67.55247 260.2556 L 66.68515 258.4535 L 65.81784 256.6513 L 64.95052 254.8492 L 64.08321 253.047 L 63.21588 251.2449 L 62.34857 249.4427 L 61.48125 247.6406 L 60.61393 245.8384 L 59.74661 244.0363 L 58.87929 242.2341 L 58.01198 240.4319 L 57.14466 238.6298 L 56.27734 236.8276 L 54.7143 235.5799 L 53.15126 234.3321 L 51.58822 233.0843 L 50.02518 231.8365 L 48.46213 230.5888 L 46.89909 229.341 L 45.33605 228.0932 L 43.77301 226.8455 L 41.82349 226.399 L 39.87396 225.9525 L 37.92444 225.506 L 35.97491 225.0594 L 34.02461 225.5025 L 32.07431 225.9456 L 30.50909 227.1906 L 28.94388 228.4357 M 32.07431 225.9456 L 30.12479 225.4991 L 28.17526 225.0526 M 32.07431 225.9456 L 30.12401 226.3887 L 28.17371 226.8318 L 26.2234 227.2749 L 24.2731 227.718 M 35.97491 225.0594 L 34.41187 223.8117 L 32.84883 222.5639 L 30.89931 222.1174 L 28.94978 221.6709 M 32.84883 222.5639 L 31.98151 220.7617 L 31.1142 218.9596 M 32.84883 222.5639 L 31.28579 221.3161 L 29.72275 220.0684 L 28.15971 218.8206 L 26.59666 217.5728 M 35.97491 225.0594 L 34.02539 224.6129 L 32.07587 224.1664 L 30.12634 223.7199 L 28.17682 223.2734 L 26.22729 222.8269 L 24.27777 222.3804 L 22.32747 222.8235 L 20.37717 223.2666 M 24.27777 222.3804 L 22.71473 221.1327 L 21.15169 219.8849 M 24.27777 222.3804 L 22.32825 221.9339 L 20.37872 221.4874 L 18.4292 221.0409 L 16.47967 220.5944 M 43.77301 226.8455 L 42.90569 225.0433 L 42.03838 223.2411 L 41.17106 221.439 L 40.30374 219.6368 L 38.7407 218.3891 L 37.17766 217.1413 L 35.22813 216.6948 L 33.27861 216.2483 M 37.17766 217.1413 L 36.31034 215.3391 L 35.44302 213.537 M 37.17766 217.1413 L 35.61462 215.8935 L 34.05157 214.6458 L 32.48853 213.398 L 30.92549 212.1502 M 40.30374 219.6368 L 40.30374 217.6368 L 40.30374 215.6368 L 39.43642 213.8347 L 38.56911 212.0325 M 40.30374 215.6368 L 41.17106 213.8347 L 42.03838 212.0325 M 40.30374 215.6368 L 40.30374 213.6368 L 40.30374 211.6368 L 40.30374 209.6368 L 40.30374 207.6368 M 40.30374 219.6368 L 39.43642 217.8347 L 38.56911 216.0325 L 37.70179 214.2304 L 36.83447 212.4282 L 35.96715 210.6261 L 35.09984 208.8239 L 33.5368 207.5761 L 31.97375 206.3284 M 35.09984 208.8239 L 35.09984 206.8239 L 35.09984 204.8239 M 35.09984 208.8239 L 34.23252 207.0218 L 33.3652 205.2196 L 32.49789 203.4174 L 31.63057 201.6153 M 43.77301 226.8455 L 42.20997 225.5977 L 40.64693 224.3499 L 39.08388 223.1021 L 37.52084 221.8544 L 35.9578 220.6066 L 34.39476 219.3588 L 32.83172 218.1111 L 31.26868 216.8633 L 29.70563 215.6155 L 28.14259 214.3677 L 26.57955 213.12 L 25.01651 211.8722 L 23.06699 211.4257 L 21.11746 210.9792 L 19.16716 211.4223 L 17.21686 211.8654 M 21.11746 210.9792 L 19.55442 209.7314 L 17.99138 208.4836 M 21.11746 210.9792 L 19.16794 210.5327 L 17.21841 210.0862 L 15.26889 209.6397 L 13.31937 209.1932 M 25.01651 211.8722 L 24.14919 210.07 L 23.28187 208.2679 L 21.71883 207.0201 L 20.15579 205.7723 M 23.28187 208.2679 L 23.28187 206.2679 L 23.28187 204.2679 M 23.28187 208.2679 L 22.41456 206.4657 L 21.54724 204.6636 L 20.67992 202.8614 L 19.81261 201.0593 M 25.01651 211.8722 L 23.45347 210.6244 L 21.89043 209.3766 L 20.32738 208.1289 L 18.76434 206.8811 L 17.2013 205.6333 L 15.63826 204.3856 L 13.68874 203.9391 L 11.73921 203.4926 M 15.63826 204.3856 L 14.77094 202.5834 L 13.90362 200.7813 M 15.63826 204.3856 L 14.07522 203.1378 L 12.51218 201.89 L 10.94913 200.6422 L 9.386093 199.3945 M 56.27734 236.8276 L 56.27734 234.8276 L 56.27734 232.8276 L 56.27734 230.8276 L 56.27734 228.8276 L 56.27734 226.8276 L 56.27734 224.8276 L 56.27734 222.8276 L 56.27734 220.8276 L 55.41003 219.0255 L 54.54271 217.2233 L 53.67539 215.4212 L 52.80807 213.619 L 51.24503 212.3712 L 49.68199 211.1235 L 47.73247 210.677 L 45.78294 210.2305 M 49.68199 211.1235 L 48.81467 209.3213 L 47.94736 207.5192 M 49.68199 211.1235 L 48.11895 209.8757 L 46.55591 208.6279 L 44.99287 207.3802 L 43.42982 206.1324 M 52.80807 213.619 L 52.80807 211.619 L 52.80807 209.619 L 51.94076 207.8169 L 51.07344 206.0147 M 52.80807 209.619 L 53.67539 207.8169 L 54.54271 206.0147 M 52.80807 209.619 L 52.80807 207.619 L 52.80807 205.619 L 52.80807 203.619 L 52.80807 201.619 M 52.80807 213.619 L 51.94076 211.8169 L 51.07344 210.0147 L 50.20612 208.2126 L 49.33881 206.4104 L 48.47149 204.6082 L 47.60417 202.8061 L 46.04113 201.5583 L 44.47809 200.3105 M 47.60417 202.8061 L 47.60417 200.8061 L 47.60417 198.8061 M 47.60417 202.8061 L 46.73685 201.0039 L 45.86954 199.2018 L 45.00222 197.3996 L 44.1349 195.5975 M 56.27734 220.8276 L 57.14466 219.0255 L 58.01198 217.2233 L 58.87929 215.4212 L 59.74661 213.619 L 59.74661 211.619 L 59.74661 209.619 L 58.87929 207.8169 L 58.01198 206.0147 M 59.74661 209.619 L 60.61393 207.8169 L 61.48125 206.0147 M 59.74661 209.619 L 59.74661 207.619 L 59.74661 205.619 L 59.74661 203.619 L 59.74661 201.619 M 59.74661 213.619 L 61.30965 212.3712 L 62.8727 211.1235 L 63.74001 209.3213 L 64.60733 207.5192 M 62.8727 211.1235 L 64.82222 210.677 L 66.77174 210.2305 M 62.8727 211.1235 L 64.43575 209.8757 L 65.99878 208.6279 L 67.56182 207.3802 L 69.12486 206.1324 M 59.74661 213.619 L 60.61393 211.8169 L 61.48125 210.0147 L 62.34856 208.2126 L 63.21588 206.4104 L 64.08321 204.6082 L 64.95052 202.8061 L 64.95052 200.8061 L 64.95052 198.8061 M 64.95052 202.8061 L 66.51357 201.5583 L 68.0766 200.3105 M 64.95052 202.8061 L 65.81783 201.0039 L 66.68515 199.2018 L 67.55247 197.3996 L 68.41978 195.5975 M 56.27734 220.8276 L 56.27734 218.8276 L 56.27734 216.8276 L 56.27734 214.8276 L 56.27734 212.8276 L 56.27734 210.8276 L 56.27734 208.8276 L 56.27734 206.8276 L 56.27734 204.8276 L 56.27734 202.8276 L 56.27734 200.8276 L 56.27734 198.8276 L 56.27734 196.8276 L 55.41003 195.0255 L 54.54271 193.2233 L 52.97967 191.9756 L 51.41663 190.7278 M 54.54271 193.2233 L 54.54271 191.2233 L 54.54271 189.2233 M 54.54271 193.2233 L 53.67539 191.4212 L 52.80807 189.619 L 51.94076 187.8169 L 51.07344 186.0147 M 56.27734 196.8276 L 57.14466 195.0255 L 58.01198 193.2233 L 58.01198 191.2233 L 58.01198 189.2233 M 58.01198 193.2233 L 59.57502 191.9756 L 61.13806 190.7278 M 58.01198 193.2233 L 58.87929 191.4212 L 59.74661 189.619 L 60.61393 187.8169 L 61.48125 186.0147 M 56.27734 196.8276 L 56.27734 194.8276 L 56.27734 192.8276 L 56.27734 190.8276 L 56.27734 188.8276 L 56.27734 186.8276 L 56.27734 184.8276 L 55.41003 183.0255 L 54.54271 181.2233 M 56.27734 184.8276 L 57.14466 183.0255 L 58.01198 181.2233 M 56.27734 184.8276 L 56.27734 182.8276 L 56.27734 180.8276 L 56.27734 178.8276 L 56.27734 176.8276 M 56.27734 236.8276 L 55.41003 235.0255 L 54.54271 233.2233 L 53.67539 231.4212 L 52.80807 229.619 L 51.94076 227.8169 L 51.07344 226.0147 L 50.20612 224.2126 L 49.33881 222.4104 L 48.47149 220.6082 L 47.60417 218.8061 L 46.73685 217.0039 L 45.86954 215.2018 L 45.00222 213.3996 L 44.1349 211.5975 L 43.26758 209.7953 L 42.40027 207.9932 L 41.53295 206.191 L 40.66563 204.3889 L 39.79832 202.5867 L 38.931 200.7845 L 38.06368 198.9824 L 37.19636 197.1802 L 36.32905 195.3781 L 35.46173 193.5759 L 33.89869 192.3282 L 32.33565 191.0804 L 30.77261 189.8326 L 29.20956 188.5848 L 27.26004 188.1383 L 25.31052 187.6918 L 23.36021 188.1349 L 21.40991 188.578 M 25.31052 187.6918 L 23.74747 186.4441 L 22.18443 185.1963 M 25.31052 187.6918 L 23.36099 187.2453 L 21.41147 186.7988 L 19.46194 186.3523 L 17.51242 185.9058 M 29.20956 188.5848 L 28.34225 186.7827 L 27.47493 184.9805 L 25.91189 183.7328 L 24.34885 182.485 M 27.47493 184.9805 L 27.47493 182.9805 L 27.47493 180.9805 M 27.47493 184.9805 L 26.60761 183.1784 L 25.74029 181.3762 L 24.87298 179.5741 L 24.00566 177.7719 M 29.20956 188.5848 L 27.64652 187.3371 L 26.08348 186.0893 L 24.52044 184.8415 L 22.9574 183.5938 L 21.39436 182.346 L 19.83131 181.0982 L 17.88179 180.6517 L 15.93227 180.2052 M 19.83131 181.0982 L 18.964 179.2961 L 18.09668 177.4939 M 19.83131 181.0982 L 18.26827 179.8504 L 16.70523 178.6027 L 15.14219 177.3549 L 13.57915 176.1071 M 35.46173 193.5759 L 35.46173 191.5759 L 35.46173 189.5759 L 35.46173 187.5759 L 35.46173 185.5759 L 34.59441 183.7738 L 33.7271 181.9716 L 32.16405 180.7238 L 30.60101 179.4761 M 33.7271 181.9716 L 33.7271 179.9716 L 33.7271 177.9716 M 33.7271 181.9716 L 32.85978 180.1695 L 31.99246 178.3673 L 31.12514 176.5652 L 30.25783 174.763 M 35.46173 185.5759 L 36.32905 183.7738 L 37.19636 181.9716 L 37.19636 179.9716 L 37.19636 177.9716 M 37.19636 181.9716 L 38.75941 180.7238 L 40.32245 179.4761 M 37.19636 181.9716 L 38.06368 180.1695 L 38.931 178.3673 L 39.79832 176.5652 L 40.66563 174.763 M 35.46173 185.5759 L 35.46173 183.5759 L 35.46173 181.5759 L 35.46173 179.5759 L 35.46173 177.5759 L 35.46173 175.5759 L 35.46173 173.5759 L 34.59441 171.7738 L 33.7271 169.9716 M 35.46173 173.5759 L 36.32905 171.7738 L 37.19636 169.9716 M 35.46173 173.5759 L 35.46173 171.5759 L 35.46173 169.5759 L 35.46173 167.5759 L 35.46173 165.5759 M 35.46173 193.5759 L 34.59441 191.7738 L 33.7271 189.9716 L 32.85978 188.1695 L 31.99246 186.3673 L 31.12514 184.5652 L 30.25783 182.763 L 29.39051 180.9608 L 28.52319 179.1587 L 27.65588 177.3565 L 26.78856 175.5544 L 25.92124 173.7522 L 25.05392 171.9501 L 23.49088 170.7023 L 21.92784 169.4545 L 19.97832 169.008 L 18.02879 168.5615 M 21.92784 169.4545 L 21.06052 167.6524 L 20.19321 165.8502 M 21.92784 169.4545 L 20.3648 168.2068 L 18.80176 166.959 L 17.23872 165.7112 L 15.67567 164.4634 M 25.05392 171.9501 L 25.05392 169.9501 L 25.05392 167.9501 L 24.18661 166.1479 L 23.31929 164.3458 M 25.05392 167.9501 L 25.92124 166.1479 L 26.78856 164.3458 M 25.05392 167.9501 L 25.05392 165.9501 L 25.05392 163.9501 L 25.05392 161.9501 L 25.05392 159.9501 M 25.05392 171.9501 L 24.18661 170.1479 L 23.31929 168.3458 L 22.45197 166.5436 L 21.58466 164.7415 L 20.71734 162.9393 L 19.85002 161.1371 L 18.28698 159.8894 L 16.72394 158.6416 M 19.85002 161.1371 L 19.85002 159.1371 L 19.85002 157.1371 M 19.85002 161.1371 L 18.9827 159.335 L 18.11539 157.5328 L 17.24807 155.7307 L 16.38075 153.9285 M 125.6628 381 L 126.5301 379.1978 L 127.3974 377.3957 L 128.2647 375.5935 L 129.132 373.7914 L 129.9994 371.9892 L 130.8667 370.1871 L 131.734 368.3849 L 132.6013 366.5828 L 133.4686 364.7806 L 134.336 362.9785 L 135.2033 361.1763 L 136.0706 359.3741 L 136.9379 357.572 L 137.8052 355.7698 L 138.6725 353.9677 L 139.5399 352.1655 L 140.4072 350.3634 L 141.2745 348.5612 L 142.1418 346.7591 L 143.0091 344.9569 L 143.8764 343.1548 L 144.7438 341.3526 L 145.6111 339.5504 L 146.4784 337.7483 L 147.3457 335.9461 L 148.213 334.144 L 149.0804 332.3418 L 149.9477 330.5397 L 150.815 328.7375 L 151.6823 326.9354 L 152.5496 325.1332 L 153.4169 323.3311 L 153.4169 321.3311 L 153.4169 319.3311 L 153.4169 317.3311 L 153.4169 315.3311 L 153.4169 313.3311 L 153.4169 311.3311 L 153.4169 309.3311 L 153.4169 307.3311 L 153.4169 305.3311 L 153.4169 303.3311 L 153.4169 301.3311 L 153.4169 299.3311 L 153.4169 297.3311 L 153.4169 295.3311 L 153.4169 293.3311 L 153.4169 291.3311 L 152.5496 289.5289 L 151.6823 287.7267 L 150.815 285.9246 L 149.9477 284.1224 L 149.0804 282.3203 L 148.213 280.5181 L 147.3457 278.716 L 146.4784 276.9138 L 144.9153 275.6661 L 143.3523 274.4183 L 141.7893 273.1705 L 140.2262 271.9228 L 138.2767 271.4763 L 136.3272 271.0298 L 134.3769 271.4729 L 132.4266 271.916 M 136.3272 271.0298 L 134.7641 269.782 L 133.2011 268.5343 M 136.3272 271.0298 L 134.3777 270.5833 L 132.4281 270.1368 L 130.4786 269.6903 L 128.5291 269.2438 M 140.2262 271.9228 L 139.3589 270.1206 L 138.4916 268.3185 L 136.9286 267.0707 L 135.3655 265.823 M 138.4916 268.3185 L 138.4916 266.3185 L 138.4916 264.3185 M 138.4916 268.3185 L 137.6243 266.5163 L 136.757 264.7142 L 135.8896 262.912 L 135.0223 261.1099 M 140.2262 271.9228 L 138.6632 270.675 L 137.1001 269.4273 L 135.5371 268.1795 L 133.9741 266.9318 L 132.411 265.684 L 130.848 264.4362 L 128.8985 263.9897 L 126.9489 263.5432 M 130.848 264.4362 L 129.9807 262.6341 L 129.1133 260.8319 M 130.848 264.4362 L 129.2849 263.1885 L 127.7219 261.9407 L 126.1589 260.693 L 124.5958 259.4452 M 146.4784 276.9138 L 146.4784 274.9138 L 146.4784 272.9138 L 146.4784 270.9138 L 146.4784 268.9138 L 145.6111 267.1117 L 144.7437 265.3095 L 143.1807 264.0618 L 141.6177 262.814 M 144.7437 265.3095 L 144.7437 263.3095 L 144.7437 261.3095 M 144.7437 265.3095 L 143.8764 263.5074 L 143.0091 261.7052 L 142.1418 259.903 L 141.2745 258.1009 M 146.4784 268.9138 L 147.3457 267.1117 L 148.213 265.3095 L 148.213 263.3095 L 148.213 261.3095 M 148.213 265.3095 L 149.7761 264.0618 L 151.3391 262.814 M 148.213 265.3095 L 149.0804 263.5074 L 149.9477 261.7052 L 150.815 259.903 L 151.6823 258.1009 M 146.4784 268.9138 L 146.4784 266.9138 L 146.4784 264.9138 L 146.4784 262.9138 L 146.4784 260.9138 L 146.4784 258.9138 L 146.4784 256.9138 L 145.6111 255.1117 L 144.7437 253.3095 M 146.4784 256.9138 L 147.3457 255.1117 L 148.213 253.3095 M 146.4784 256.9138 L 146.4784 254.9138 L 146.4784 252.9138 L 146.4784 250.9138 L 146.4784 248.9138 M 146.4784 276.9138 L 145.6111 275.1117 L 144.7437 273.3095 L 143.8764 271.5074 L 143.0091 269.7052 L 142.1418 267.903 L 141.2745 266.1009 L 140.4072 264.2987 L 139.5398 262.4966 L 138.6725 260.6944 L 137.8052 258.8923 L 136.9379 257.0901 L 136.0706 255.288 L 134.5075 254.0402 L 132.9445 252.7924 L 130.995 252.3459 L 129.0454 251.8994 M 132.9445 252.7924 L 132.0772 250.9903 L 131.2099 249.1881 M 132.9445 252.7924 L 131.3814 251.5447 L 129.8184 250.2969 L 128.2554 249.0491 L 126.6923 247.8014 M 136.0706 255.288 L 136.0706 253.288 L 136.0706 251.288 L 135.2032 249.4858 L 134.3359 247.6837 M 136.0706 251.288 L 136.9379 249.4858 L 137.8052 247.6837 M 136.0706 251.288 L 136.0706 249.288 L 136.0706 247.288 L 136.0706 245.288 L 136.0706 243.288 M 136.0706 255.288 L 135.2032 253.4858 L 134.3359 251.6837 L 133.4686 249.8815 L 132.6013 248.0793 L 131.734 246.2772 L 130.8667 244.475 L 129.3036 243.2273 L 127.7406 241.9795 M 130.8667 244.475 L 130.8667 242.475 L 130.8667 240.475 M 130.8667 244.475 L 129.9993 242.6729 L 129.132 240.8707 L 128.2647 239.0686 L 127.3974 237.2664 M 153.4169 291.3311 L 154.2843 289.5289 L 155.1516 287.7267 L 156.0189 285.9246 L 156.8862 284.1224 L 157.7535 282.3203 L 158.6208 280.5181 L 159.4882 278.716 L 160.3555 276.9138 L 160.3555 274.9138 L 160.3555 272.9138 L 160.3555 270.9138 L 160.3555 268.9138 L 159.4882 267.1117 L 158.6208 265.3095 L 157.0578 264.0618 L 155.4948 262.814 M 158.6208 265.3095 L 158.6208 263.3095 L 158.6208 261.3095 M 158.6208 265.3095 L 157.7535 263.5074 L 156.8862 261.7052 L 156.0189 259.903 L 155.1516 258.1009 M 160.3555 268.9138 L 161.2228 267.1117 L 162.0901 265.3095 L 162.0901 263.3095 L 162.0901 261.3095 M 162.0901 265.3095 L 163.6532 264.0618 L 165.2162 262.814 M 162.0901 265.3095 L 162.9574 263.5074 L 163.8248 261.7052 L 164.6921 259.903 L 165.5594 258.1009 M 160.3555 268.9138 L 160.3555 266.9138 L 160.3555 264.9138 L 160.3555 262.9138 L 160.3555 260.9138 L 160.3555 258.9138 L 160.3555 256.9138 L 159.4882 255.1117 L 158.6208 253.3095 M 160.3555 256.9138 L 161.2228 255.1117 L 162.0901 253.3095 M 160.3555 256.9138 L 160.3555 254.9138 L 160.3555 252.9138 L 160.3555 250.9138 L 160.3555 248.9138 M 160.3555 276.9138 L 161.9185 275.6661 L 163.4816 274.4183 L 165.0446 273.1705 L 166.6077 271.9228 L 167.475 270.1206 L 168.3423 268.3185 L 168.3423 266.3185 L 168.3423 264.3185 M 168.3423 268.3185 L 169.9053 267.0707 L 171.4684 265.823 M 168.3423 268.3185 L 169.2096 266.5163 L 170.0769 264.7142 L 170.9442 262.912 L 171.8116 261.1099 M 166.6077 271.9228 L 168.5572 271.4763 L 170.5067 271.0298 L 172.0697 269.782 L 173.6328 268.5343 M 170.5067 271.0298 L 172.457 271.4729 L 174.4073 271.916 M 170.5067 271.0298 L 172.4562 270.5833 L 174.4057 270.1368 L 176.3553 269.6903 L 178.3048 269.2438 M 166.6077 271.9228 L 168.1707 270.675 L 169.7337 269.4273 L 171.2968 268.1795 L 172.8598 266.9318 L 174.4229 265.684 L 175.9859 264.4362 L 176.8532 262.6341 L 177.7205 260.8319 M 175.9859 264.4362 L 177.9354 263.9897 L 179.8849 263.5432 M 175.9859 264.4362 L 177.549 263.1885 L 179.112 261.9407 L 180.675 260.693 L 182.2381 259.4452 M 160.3555 276.9138 L 161.2228 275.1117 L 162.0901 273.3095 L 162.9574 271.5074 L 163.8248 269.7052 L 164.6921 267.903 L 165.5594 266.1009 L 166.4267 264.2987 L 167.294 262.4966 L 168.1613 260.6944 L 169.0287 258.8923 L 169.896 257.0901 L 170.7633 255.288 L 170.7633 253.288 L 170.7633 251.288 L 169.896 249.4858 L 169.0287 247.6837 M 170.7633 251.288 L 171.6306 249.4858 L 172.4979 247.6837 M 170.7633 251.288 L 170.7633 249.288 L 170.7633 247.288 L 170.7633 245.288 L 170.7633 243.288 M 170.7633 255.288 L 172.3263 254.0402 L 173.8894 252.7924 L 174.7567 250.9903 L 175.624 249.1881 M 173.8894 252.7924 L 175.8389 252.3459 L 177.7884 251.8994 M 173.8894 252.7924 L 175.4524 251.5447 L 177.0154 250.2969 L 178.5785 249.0491 L 180.1415 247.8014 M 170.7633 255.288 L 171.6306 253.4858 L 172.4979 251.6837 L 173.3652 249.8815 L 174.2325 248.0793 L 175.0999 246.2772 L 175.9672 244.475 L 175.9672 242.475 L 175.9672 240.475 M 175.9672 244.475 L 177.5302 243.2273 L 179.0933 241.9795 M 175.9672 244.475 L 176.8345 242.6729 L 177.7018 240.8707 L 178.5691 239.0686 L 179.4365 237.2664 M 153.4169 291.3311 L 153.4169 289.3311 L 153.4169 287.3311 L 153.4169 285.3311 L 153.4169 283.3311 L 153.4169 281.3311 L 153.4169 279.3311 L 153.4169 277.3311 L 153.4169 275.3311 L 153.4169 273.3311 L 153.4169 271.3311 L 153.4169 269.3311 L 153.4169 267.3311 L 153.4169 265.3311 L 153.4169 263.3311 L 153.4169 261.3311 L 153.4169 259.3311 L 153.4169 257.3311 L 153.4169 255.3311 L 153.4169 253.3311 L 153.4169 251.3311 L 153.4169 249.3311 L 153.4169 247.3311 L 153.4169 245.3311 L 153.4169 243.3311 L 152.5496 241.5289 L 151.6823 239.7267 L 150.815 237.9246 L 149.9477 236.1224 L 148.3846 234.8747 L 146.8216 233.6269 L 144.8721 233.1804 L 142.9225 232.7339 M 146.8216 233.6269 L 145.9543 231.8247 L 145.0869 230.0226 M 146.8216 233.6269 L 145.2585 232.3791 L 143.6955 231.1313 L 142.1325 229.8836 L 140.5694 228.6358 M 149.9477 236.1224 L 149.9477 234.1224 L 149.9477 232.1224 L 149.0804 230.3203 L 148.213 228.5181 M 149.9477 232.1224 L 150.815 230.3203 L 151.6823 228.5181 M 149.9477 232.1224 L 149.9477 230.1224 L 149.9477 228.1224 L 149.9477 226.1224 L 149.9477 224.1224 M 149.9477 236.1224 L 149.0804 234.3203 L 148.213 232.5181 L 147.3457 230.716 L 146.4784 228.9138 L 145.6111 227.1117 L 144.7437 225.3095 L 143.1807 224.0617 L 141.6177 222.814 M 144.7437 225.3095 L 144.7437 223.3095 L 144.7437 221.3095 M 144.7437 225.3095 L 143.8764 223.5074 L 143.0091 221.7052 L 142.1418 219.903 L 141.2745 218.1009 M 153.4169 243.3311 L 154.2843 241.5289 L 155.1516 239.7267 L 156.0189 237.9246 L 156.8862 236.1224 L 156.8862 234.1224 L 156.8862 232.1224 L 156.0189 230.3203 L 155.1516 228.5181 M 156.8862 232.1224 L 157.7535 230.3203 L 158.6208 228.5181 M 156.8862 232.1224 L 156.8862 230.1224 L 156.8862 228.1224 L 156.8862 226.1224 L 156.8862 224.1224 M 156.8862 236.1224 L 158.4492 234.8747 L 160.0123 233.6269 L 160.8796 231.8247 L 161.7469 230.0226 M 160.0123 233.6269 L 161.9618 233.1804 L 163.9113 232.7339 M 160.0123 233.6269 L 161.5753 232.3791 L 163.1384 231.1313 L 164.7014 229.8836 L 166.2645 228.6358 M 156.8862 236.1224 L 157.7535 234.3203 L 158.6208 232.5181 L 159.4882 230.716 L 160.3555 228.9138 L 161.2228 227.1117 L 162.0901 225.3095 L 162.0901 223.3095 L 162.0901 221.3095 M 162.0901 225.3095 L 163.6532 224.0617 L 165.2162 222.814 M 162.0901 225.3095 L 162.9574 223.5074 L 163.8248 221.7052 L 164.6921 219.903 L 165.5594 218.1009 M 153.4169 243.3311 L 153.4169 241.3311 L 153.4169 239.3311 L 153.4169 237.3311 L 153.4169 235.3311 L 153.4169 233.3311 L 153.4169 231.3311 L 153.4169 229.3311 L 153.4169 227.3311 L 153.4169 225.3311 L 153.4169 223.3311 L 153.4169 221.3311 L 153.4169 219.3311 L 152.5496 217.5289 L 151.6823 215.7267 L 150.1193 214.479 L 148.5562 213.2312 M 151.6823 215.7267 L 151.6823 213.7267 L 151.6823 211.7267 M 151.6823 215.7267 L 150.815 213.9246 L 149.9477 212.1224 L 149.0804 210.3203 L 148.213 208.5181 M 153.4169 219.3311 L 154.2843 217.5289 L 155.1516 215.7267 L 155.1516 213.7267 L 155.1516 211.7267 M 155.1516 215.7267 L 156.7146 214.479 L 158.2777 213.2312 M 155.1516 215.7267 L 156.0189 213.9246 L 156.8862 212.1224 L 157.7535 210.3203 L 158.6208 208.5181 M 153.4169 219.3311 L 153.4169 217.3311 L 153.4169 215.3311 L 153.4169 213.3311 L 153.4169 211.3311 L 153.4169 209.3311 L 153.4169 207.3311 L 152.5496 205.5289 L 151.6823 203.7267 M 153.4169 207.3311 L 154.2843 205.5289 L 155.1516 203.7267 M 153.4169 207.3311 L 153.4169 205.3311 L 153.4169 203.3311 L 153.4169 201.3311 L 153.4169 199.3311 M 153.4169 323.3311 L 154.98 322.0833 L 156.543 320.8355 L 158.1061 319.5878 L 159.6691 318.34 L 161.2321 317.0923 L 162.7952 315.8445 L 164.3582 314.5967 L 165.9213 313.349 L 167.4843 312.1013 L 169.0474 310.8535 L 170.6104 309.6057 L 172.1734 308.358 L 173.7365 307.1102 L 175.2995 305.8625 L 176.8626 304.6147 L 178.4256 303.3669 L 179.2929 301.5648 L 180.1602 299.7626 L 181.0276 297.9605 L 181.8949 296.1583 L 182.7622 294.3562 L 183.6295 292.554 L 184.4968 290.7519 L 185.3642 288.9497 L 185.3642 286.9497 L 185.3642 284.9497 L 185.3642 282.9497 L 185.3642 280.9497 L 184.4968 279.1476 L 183.6295 277.3454 L 182.0665 276.0977 L 180.5034 274.8499 M 183.6295 277.3454 L 183.6295 275.3454 L 183.6295 273.3454 M 183.6295 277.3454 L 182.7622 275.5432 L 181.8949 273.7411 L 181.0276 271.9389 L 180.1602 270.1368 M 185.3642 280.9497 L 186.2315 279.1476 L 187.0988 277.3454 L 187.0988 275.3454 L 187.0988 273.3454 M 187.0988 277.3454 L 188.6618 276.0977 L 190.2249 274.8499 M 187.0988 277.3454 L 187.9661 275.5432 L 188.8334 273.7411 L 189.7007 271.9389 L 190.5681 270.1368 M 185.3642 280.9497 L 185.3642 278.9497 L 185.3642 276.9497 L 185.3642 274.9497 L 185.3642 272.9497 L 185.3642 270.9497 L 185.3642 268.9497 L 184.4968 267.1476 L 183.6295 265.3454 M 185.3642 268.9497 L 186.2315 267.1476 L 187.0988 265.3454 M 185.3642 268.9497 L 185.3642 266.9497 L 185.3642 264.9497 L 185.3642 262.9497 L 185.3642 260.9497 M 185.3642 288.9497 L 186.9272 287.702 L 188.4902 286.4542 L 190.0533 285.2064 L 191.6163 283.9587 L 192.4836 282.1565 L 193.351 280.3544 L 193.351 278.3544 L 193.351 276.3544 M 193.351 280.3544 L 194.914 279.1066 L 196.477 277.8589 M 193.351 280.3544 L 194.2183 278.5522 L 195.0856 276.7501 L 195.9529 274.9479 L 196.8202 273.1458 M 191.6163 283.9587 L 193.5658 283.5122 L 195.5154 283.0657 L 197.0784 281.8179 L 198.6414 280.5702 M 195.5154 283.0657 L 197.4657 283.5088 L 199.416 283.9519 M 195.5154 283.0657 L 197.4649 282.6192 L 199.4144 282.1727 L 201.3639 281.7262 L 203.3134 281.2797 M 191.6163 283.9587 L 193.1794 282.7109 L 194.7424 281.4632 L 196.3054 280.2154 L 197.8685 278.9677 L 199.4315 277.7199 L 200.9946 276.4721 L 201.8619 274.67 L 202.7292 272.8678 M 200.9946 276.4721 L 202.9441 276.0256 L 204.8936 275.5791 M 200.9946 276.4721 L 202.5576 275.2244 L 204.1206 273.9766 L 205.6837 272.7289 L 207.2467 271.4811 M 185.3642 288.9497 L 186.2315 287.1476 L 187.0988 285.3454 L 187.9661 283.5432 L 188.8334 281.7411 L 189.7007 279.9389 L 190.5681 278.1368 L 191.4354 276.3346 L 192.3027 274.5325 L 193.17 272.7303 L 194.0373 270.9282 L 194.9046 269.126 L 195.772 267.3239 L 195.772 265.3239 L 195.772 263.3239 L 194.9046 261.5217 L 194.0373 259.7195 M 195.772 263.3239 L 196.6393 261.5217 L 197.5066 259.7195 M 195.772 263.3239 L 195.772 261.3239 L 195.772 259.3239 L 195.772 257.3239 L 195.772 255.3239 M 195.772 267.3239 L 197.335 266.0761 L 198.898 264.8283 L 199.7654 263.0262 L 200.6327 261.224 M 198.898 264.8283 L 200.8476 264.3818 L 202.7971 263.9353 M 198.898 264.8283 L 200.4611 263.5806 L 202.0241 262.3328 L 203.5872 261.0851 L 205.1502 259.8373 M 195.772 267.3239 L 196.6393 265.5217 L 197.5066 263.7195 L 198.3739 261.9174 L 199.2412 260.1152 L 200.1086 258.3131 L 200.9759 256.5109 L 200.9759 254.5109 L 200.9759 252.5109 M 200.9759 256.5109 L 202.5389 255.2632 L 204.1019 254.0154 M 200.9759 256.5109 L 201.8432 254.7088 L 202.7105 252.9066 L 203.5778 251.1045 L 204.4451 249.3023 M 178.4256 303.3669 L 180.3751 302.9204 L 182.3247 302.4739 L 184.2742 302.0274 L 186.2237 301.5809 L 188.1732 301.1344 L 190.1227 300.6879 L 192.0723 300.2414 L 194.0218 299.7949 L 195.5848 298.5472 L 197.1479 297.2994 L 198.7109 296.0516 L 200.274 294.8039 L 201.1413 293.0017 L 202.0086 291.1996 L 202.0086 289.1996 L 202.0086 287.1996 M 202.0086 291.1996 L 203.5716 289.9518 L 205.1347 288.7041 M 202.0086 291.1996 L 202.8759 289.3974 L 203.7432 287.5953 L 204.6105 285.7931 L 205.4779 283.991 M 200.274 294.8039 L 202.2235 294.3574 L 204.173 293.9109 L 205.7361 292.6631 L 207.2991 291.4154 M 204.173 293.9109 L 206.1233 294.354 L 208.0736 294.7971 M 204.173 293.9109 L 206.1225 293.4644 L 208.0721 293.0179 L 210.0216 292.5714 L 211.9711 292.1249 M 200.274 294.8039 L 201.837 293.5562 L 203.4001 292.3084 L 204.9631 291.0606 L 206.5261 289.8129 L 208.0892 288.5651 L 209.6522 287.3174 L 210.5195 285.5152 L 211.3868 283.713 M 209.6522 287.3174 L 211.6017 286.8708 L 213.5513 286.4243 M 209.6522 287.3174 L 211.2152 286.0696 L 212.7783 284.8218 L 214.3413 283.5741 L 215.9044 282.3263 M 194.0218 299.7949 L 195.9721 300.238 L 197.9224 300.6811 L 199.8727 301.1242 L 201.823 301.5673 L 203.7725 301.1208 L 205.722 300.6743 L 207.2851 299.4266 L 208.8481 298.1788 M 205.722 300.6743 L 207.6723 301.1174 L 209.6227 301.5605 M 205.722 300.6743 L 207.6716 300.2278 L 209.6211 299.7813 L 211.5706 299.3348 L 213.5201 298.8883 M 201.823 301.5673 L 203.3882 302.8123 L 204.9534 304.0574 L 206.9037 304.5005 L 208.854 304.9436 M 204.9534 304.0574 L 205.8239 305.858 L 206.6944 307.6587 M 204.9534 304.0574 L 206.5186 305.3024 L 208.0839 306.5474 L 209.6491 307.7924 L 211.2143 309.0375 M 201.823 301.5673 L 203.7733 302.0104 L 205.7236 302.4535 L 207.6739 302.8966 L 209.6242 303.3397 L 211.5745 303.7828 L 213.5248 304.2259 L 215.4743 303.7794 L 217.4239 303.3329 M 213.5248 304.2259 L 215.09 305.4709 L 216.6552 306.716 M 213.5248 304.2259 L 215.4751 304.669 L 217.4254 305.1121 L 219.3757 305.5552 L 221.326 305.9983 M 194.0218 299.7949 L 195.9713 299.3484 L 197.9208 298.9019 L 199.8704 298.4554 L 201.8199 298.0089 L 203.7694 297.5624 L 205.7189 297.1159 L 207.6685 296.6694 L 209.618 296.2229 L 211.5675 295.7764 L 213.517 295.3299 L 215.4666 294.8834 L 217.4161 294.4369 L 218.9791 293.1891 L 220.5422 291.9414 L 221.4095 290.1392 L 222.2768 288.3371 M 220.5422 291.9414 L 222.4917 291.4949 L 224.4412 291.0484 M 220.5422 291.9414 L 222.1052 290.6936 L 223.6682 289.4459 L 225.2313 288.1981 L 226.7943 286.9503 M 217.4161 294.4369 L 219.3664 294.88 L 221.3167 295.3231 L 223.2662 294.8766 L 225.2157 294.4301 M 221.3167 295.3231 L 222.8819 296.5681 L 224.4471 297.8131 M 221.3167 295.3231 L 223.267 295.7662 L 225.2173 296.2093 L 227.1676 296.6524 L 229.1179 297.0955 M 217.4161 294.4369 L 219.3656 293.9904 L 221.3151 293.5439 L 223.2647 293.0974 L 225.2142 292.6509 L 227.1637 292.2044 L 229.1132 291.7579 L 230.6763 290.5101 L 232.2393 289.2624 M 229.1132 291.7579 L 231.0635 292.201 L 233.0138 292.6441 M 229.1132 291.7579 L 231.0627 291.3114 L 233.0123 290.8649 L 234.9618 290.4184 L 236.9113 289.9719 M 178.4256 303.3669 L 179.9886 302.1192 L 181.5517 300.8714 L 183.1147 299.6237 L 184.6778 298.3759 L 186.2408 297.1282 L 187.8039 295.8804 L 189.3669 294.6326 L 190.9299 293.3849 L 192.493 292.1371 L 194.056 290.8894 L 195.6191 289.6416 L 197.1821 288.3939 L 198.7451 287.1461 L 200.3082 285.8983 L 201.8712 284.6506 L 203.4343 283.4028 L 204.9973 282.1551 L 206.5604 280.9073 L 208.1234 279.6595 L 209.6864 278.4118 L 211.2495 277.1641 L 212.8125 275.9163 L 214.3756 274.6685 L 215.9386 273.4208 L 216.8059 271.6186 L 217.6732 269.8165 L 218.5406 268.0143 L 219.4079 266.2122 L 219.4079 264.2122 L 219.4079 262.2122 L 218.5406 260.41 L 217.6732 258.6078 M 219.4079 262.2122 L 220.2752 260.41 L 221.1425 258.6078 M 219.4079 262.2122 L 219.4079 260.2122 L 219.4079 258.2122 L 219.4079 256.2122 L 219.4079 254.2122 M 219.4079 266.2122 L 220.9709 264.9644 L 222.534 263.7166 L 223.4013 261.9145 L 224.2686 260.1123 M 222.534 263.7166 L 224.4835 263.2701 L 226.433 262.8236 M 222.534 263.7166 L 224.097 262.4689 L 225.66 261.2211 L 227.2231 259.9734 L 228.7861 258.7256 M 219.4079 266.2122 L 220.2752 264.41 L 221.1425 262.6078 L 222.0098 260.8057 L 222.8771 259.0035 L 223.7445 257.2014 L 224.6118 255.3992 L 224.6118 253.3992 L 224.6118 251.3992 M 224.6118 255.3992 L 226.1748 254.1515 L 227.7379 252.9037 M 224.6118 255.3992 L 225.4791 253.5971 L 226.3464 251.7949 L 227.2137 249.9928 L 228.0811 248.1906 M 215.9386 273.4208 L 217.8881 272.9743 L 219.8376 272.5278 L 221.7872 272.0813 L 223.7367 271.6348 L 225.2997 270.387 L 226.8628 269.1393 L 227.7301 267.3371 L 228.5974 265.5349 M 226.8628 269.1393 L 228.8123 268.6927 L 230.7618 268.2462 M 226.8628 269.1393 L 228.4258 267.8915 L 229.9889 266.6437 L 231.5519 265.396 L 233.115 264.1482 M 223.7367 271.6348 L 225.687 272.0779 L 227.6373 272.521 L 229.5868 272.0745 L 231.5363 271.628 M 227.6373 272.521 L 229.2025 273.766 L 230.7677 275.011 M 227.6373 272.521 L 229.5876 272.9641 L 231.5379 273.4072 L 233.4882 273.8503 L 235.4385 274.2934 M 223.7367 271.6348 L 225.6862 271.1883 L 227.6357 270.7418 L 229.5853 270.2953 L 231.5348 269.8488 L 233.4843 269.4023 L 235.4338 268.9557 L 236.9969 267.708 L 238.5599 266.4602 M 235.4338 268.9557 L 237.3842 269.3989 L 239.3344 269.8419 M 235.4338 268.9557 L 237.3834 268.5092 L 239.3329 268.0627 L 241.2824 267.6162 L 243.2319 267.1697 M 215.9386 273.4208 L 217.5016 272.173 L 219.0647 270.9253 L 220.6277 269.6775 L 222.1908 268.4297 L 223.7538 267.182 L 225.3169 265.9342 L 226.8799 264.6865 L 228.4429 263.4387 L 230.006 262.191 L 231.569 260.9432 L 233.132 259.6954 L 234.6951 258.4477 L 235.5624 256.6455 L 236.4297 254.8434 L 236.4297 252.8434 L 236.4297 250.8434 M 236.4297 254.8434 L 237.9928 253.5956 L 239.5558 252.3479 M 236.4297 254.8434 L 237.2971 253.0412 L 238.1644 251.2391 L 239.0317 249.4369 L 239.899 247.6348 M 234.6951 258.4477 L 236.6446 258.0012 L 238.5941 257.5547 L 240.1572 256.3069 L 241.7202 255.0592 M 238.5941 257.5547 L 240.5445 257.9978 L 242.4948 258.4409 M 238.5941 257.5547 L 240.5437 257.1082 L 242.4932 256.6617 L 244.4427 256.2152 L 246.3922 255.7687 M 234.6951 258.4477 L 236.2581 257.2 L 237.8212 255.9522 L 239.3842 254.7044 L 240.9473 253.4567 L 242.5103 252.2089 L 244.0734 250.9611 L 244.9407 249.159 L 245.808 247.3568 M 244.0734 250.9611 L 246.0229 250.5146 L 247.9724 250.0681 M 244.0734 250.9611 L 245.6364 249.7133 L 247.1994 248.4656 L 248.7625 247.2178 L 250.3255 245.97 M 153.4169 323.3311 L 154.2843 321.5289 L 155.1516 319.7267 L 156.0189 317.9246 L 156.8862 316.1224 L 157.7535 314.3203 L 158.6208 312.5181 L 159.4882 310.716 L 160.3555 308.9138 L 161.2228 307.1117 L 162.0901 305.3095 L 162.9574 303.5074 L 163.8248 301.7052 L 164.6921 299.903 L 165.5594 298.1009 L 166.4267 296.2987 L 167.294 294.4966 L 168.1613 292.6944 L 169.0287 290.8923 L 169.896 289.0901 L 170.7633 287.288 L 171.6306 285.4858 L 172.4979 283.6837 L 173.3652 281.8815 L 174.2325 280.0793 L 175.0999 278.2772 L 175.9672 276.475 L 176.8345 274.6729 L 177.7018 272.8707 L 178.5691 271.0686 L 179.4365 269.2664 L 180.3038 267.4643 L 181.1711 265.6621 L 182.0384 263.86 L 182.9057 262.0578 L 183.773 260.2556 L 184.6404 258.4535 L 185.5077 256.6513 L 186.375 254.8492 L 187.2423 253.047 L 188.1096 251.2449 L 188.977 249.4427 L 189.8443 247.6406 L 190.7116 245.8384 L 191.5789 244.0363 L 192.4462 242.2341 L 193.3135 240.4319 L 194.1808 238.6298 L 195.0482 236.8276 L 195.0482 234.8276 L 195.0482 232.8276 L 195.0482 230.8276 L 195.0482 228.8276 L 195.0482 226.8276 L 195.0482 224.8276 L 195.0482 222.8276 L 195.0482 220.8276 L 194.1808 219.0255 L 193.3135 217.2233 L 192.4462 215.4212 L 191.5789 213.619 L 190.0159 212.3712 L 188.4528 211.1235 L 186.5033 210.677 L 184.5538 210.2305 M 188.4528 211.1235 L 187.5855 209.3213 L 186.7182 207.5192 M 188.4528 211.1235 L 186.8898 209.8757 L 185.3267 208.6279 L 183.7637 207.3802 L 182.2007 206.1324 M 191.5789 213.619 L 191.5789 211.619 L 191.5789 209.619 L 190.7116 207.8169 L 189.8443 206.0147 M 191.5789 209.619 L 192.4462 207.8169 L 193.3135 206.0147 M 191.5789 209.619 L 191.5789 207.619 L 191.5789 205.619 L 191.5789 203.619 L 191.5789 201.619 M 191.5789 213.619 L 190.7116 211.8169 L 189.8443 210.0147 L 188.977 208.2126 L 188.1096 206.4104 L 187.2423 204.6082 L 186.375 202.8061 L 184.812 201.5583 L 183.2489 200.3105 M 186.375 202.8061 L 186.375 200.8061 L 186.375 198.8061 M 186.375 202.8061 L 185.5077 201.0039 L 184.6404 199.2018 L 183.7731 197.3996 L 182.9057 195.5975 M 195.0482 220.8276 L 195.9155 219.0255 L 196.7828 217.2233 L 197.6501 215.4212 L 198.5174 213.619 L 198.5174 211.619 L 198.5174 209.619 L 197.6501 207.8169 L 196.7828 206.0147 M 198.5174 209.619 L 199.3848 207.8169 L 200.2521 206.0147 M 198.5174 209.619 L 198.5174 207.619 L 198.5174 205.619 L 198.5174 203.619 L 198.5174 201.619 M 198.5174 213.619 L 200.0805 212.3712 L 201.6435 211.1235 L 202.5108 209.3213 L 203.3782 207.5192 M 201.6435 211.1235 L 203.593 210.677 L 205.5426 210.2305 M 201.6435 211.1235 L 203.2066 209.8757 L 204.7696 208.6279 L 206.3326 207.3802 L 207.8957 206.1324 M 198.5174 213.619 L 199.3848 211.8169 L 200.2521 210.0147 L 201.1194 208.2126 L 201.9867 206.4104 L 202.854 204.6082 L 203.7213 202.8061 L 203.7213 200.8061 L 203.7213 198.8061 M 203.7213 202.8061 L 205.2844 201.5583 L 206.8474 200.3105 M 203.7213 202.8061 L 204.5887 201.0039 L 205.456 199.2018 L 206.3233 197.3996 L 207.1906 195.5975 M 195.0482 220.8276 L 195.0482 218.8276 L 195.0482 216.8276 L 195.0482 214.8276 L 195.0482 212.8276 L 195.0482 210.8276 L 195.0482 208.8276 L 195.0482 206.8276 L 195.0482 204.8276 L 195.0482 202.8276 L 195.0482 200.8276 L 195.0482 198.8276 L 195.0482 196.8276 L 194.1808 195.0255 L 193.3135 193.2233 L 191.7505 191.9756 L 190.1875 190.7278 M 193.3135 193.2233 L 193.3135 191.2233 L 193.3135 189.2233 M 193.3135 193.2233 L 192.4462 191.4212 L 191.5789 189.619 L 190.7116 187.8169 L 189.8443 186.0147 M 195.0482 196.8276 L 195.9155 195.0255 L 196.7828 193.2233 L 196.7828 191.2233 L 196.7828 189.2233 M 196.7828 193.2233 L 198.3459 191.9756 L 199.9089 190.7278 M 196.7828 193.2233 L 197.6501 191.4212 L 198.5174 189.619 L 199.3848 187.8169 L 200.2521 186.0147 M 195.0482 196.8276 L 195.0482 194.8276 L 195.0482 192.8276 L 195.0482 190.8276 L 195.0482 188.8276 L 195.0482 186.8276 L 195.0482 184.8276 L 194.1808 183.0255 L 193.3135 181.2233 M 195.0482 184.8276 L 195.9155 183.0255 L 196.7828 181.2233 M 195.0482 184.8276 L 195.0482 182.8276 L 195.0482 180.8276 L 195.0482 178.8276 L 195.0482 176.8276 M 195.0482 236.8276 L 196.6112 235.5799 L 198.1743 234.3321 L 199.7373 233.0843 L 201.3003 231.8365 L 202.8634 230.5888 L 204.4264 229.341 L 205.9895 228.0932 L 207.5525 226.8455 L 208.4198 225.0433 L 209.2871 223.2411 L 210.1544 221.439 L 211.0218 219.6368 L 211.0218 217.6368 L 211.0218 215.6368 L 210.1544 213.8347 L 209.2871 212.0325 M 211.0218 215.6368 L 211.8891 213.8347 L 212.7564 212.0325 M 211.0218 215.6368 L 211.0218 213.6368 L 211.0218 211.6368 L 211.0218 209.6368 L 211.0218 207.6368 M 211.0218 219.6368 L 212.5848 218.3891 L 214.1479 217.1413 L 215.0152 215.3391 L 215.8825 213.537 M 214.1479 217.1413 L 216.0974 216.6948 L 218.0469 216.2483 M 214.1479 217.1413 L 215.7109 215.8935 L 217.2739 214.6458 L 218.837 213.398 L 220.4 212.1502 M 211.0218 219.6368 L 211.8891 217.8347 L 212.7564 216.0325 L 213.6237 214.2304 L 214.491 212.4282 L 215.3584 210.6261 L 216.2257 208.8239 L 216.2257 206.8239 L 216.2257 204.8239 M 216.2257 208.8239 L 217.7887 207.5761 L 219.3518 206.3284 M 216.2257 208.8239 L 217.093 207.0218 L 217.9603 205.2196 L 218.8276 203.4174 L 219.6949 201.6153 M 207.5525 226.8455 L 209.502 226.399 L 211.4516 225.9525 L 213.4011 225.506 L 215.3506 225.0594 L 216.9136 223.8117 L 218.4767 222.5639 L 219.344 220.7617 L 220.2113 218.9596 M 218.4767 222.5639 L 220.4262 222.1174 L 222.3757 221.6709 M 218.4767 222.5639 L 220.0397 221.3161 L 221.6028 220.0684 L 223.1658 218.8206 L 224.7289 217.5728 M 215.3506 225.0594 L 217.3009 225.5025 L 219.2512 225.9456 L 221.2007 225.4991 L 223.1503 225.0526 M 219.2512 225.9456 L 220.8164 227.1906 L 222.3816 228.4357 M 219.2512 225.9456 L 221.2015 226.3887 L 223.1518 226.8318 L 225.1021 227.2749 L 227.0524 227.718 M 215.3506 225.0594 L 217.3001 224.6129 L 219.2496 224.1664 L 221.1992 223.7199 L 223.1487 223.2734 L 225.0982 222.8269 L 227.0477 222.3804 L 228.6108 221.1327 L 230.1738 219.8849 M 227.0477 222.3804 L 228.998 222.8235 L 230.9483 223.2666 M 227.0477 222.3804 L 228.9973 221.9339 L 230.9468 221.4874 L 232.8963 221.0409 L 234.8458 220.5944 M 207.5525 226.8455 L 209.1155 225.5977 L 210.6786 224.3499 L 212.2416 223.1021 L 213.8047 221.8544 L 215.3677 220.6066 L 216.9308 219.3588 L 218.4938 218.1111 L 220.0568 216.8633 L 221.6199 215.6155 L 223.1829 214.3677 L 224.746 213.12 L 226.309 211.8722 L 227.1763 210.07 L 228.0436 208.2679 L 228.0436 206.2679 L 228.0436 204.2679 M 228.0436 208.2679 L 229.6067 207.0201 L 231.1697 205.7723 M 228.0436 208.2679 L 228.9109 206.4657 L 229.7783 204.6636 L 230.6456 202.8614 L 231.5129 201.0593 M 226.309 211.8722 L 228.2585 211.4257 L 230.2081 210.9792 L 231.7711 209.7314 L 233.3341 208.4836 M 230.2081 210.9792 L 232.1584 211.4223 L 234.1087 211.8654 M 230.2081 210.9792 L 232.1576 210.5327 L 234.1071 210.0862 L 236.0566 209.6397 L 238.0061 209.1932 M 226.309 211.8722 L 227.872 210.6244 L 229.4351 209.3766 L 230.9981 208.1289 L 232.5612 206.8811 L 234.1242 205.6333 L 235.6873 204.3856 L 236.5546 202.5834 L 237.4219 200.7813 M 235.6873 204.3856 L 237.6368 203.9391 L 239.5863 203.4926 M 235.6873 204.3856 L 237.2503 203.1378 L 238.8133 201.89 L 240.3764 200.6422 L 241.9394 199.3945 M 195.0482 236.8276 L 195.9155 235.0255 L 196.7828 233.2233 L 197.6501 231.4212 L 198.5174 229.619 L 199.3848 227.8169 L 200.2521 226.0147 L 201.1194 224.2126 L 201.9867 222.4104 L 202.854 220.6082 L 203.7213 218.8061 L 204.5887 217.0039 L 205.456 215.2018 L 206.3233 213.3996 L 207.1906 211.5975 L 208.0579 209.7953 L 208.9252 207.9932 L 209.7926 206.191 L 210.6599 204.3889 L 211.5272 202.5867 L 212.3945 200.7845 L 213.2618 198.9824 L 214.1292 197.1802 L 214.9965 195.3781 L 215.8638 193.5759 L 215.8638 191.5759 L 215.8638 189.5759 L 215.8638 187.5759 L 215.8638 185.5759 L 214.9965 183.7738 L 214.1292 181.9716 L 212.5661 180.7238 L 211.0031 179.4761 M 214.1292 181.9716 L 214.1292 179.9716 L 214.1292 177.9716 M 214.1292 181.9716 L 213.2618 180.1695 L 212.3945 178.3673 L 211.5272 176.5652 L 210.6599 174.763 M 215.8638 185.5759 L 216.7311 183.7738 L 217.5984 181.9716 L 217.5984 179.9716 L 217.5984 177.9716 M 217.5984 181.9716 L 219.1615 180.7238 L 220.7245 179.4761 M 217.5984 181.9716 L 218.4657 180.1695 L 219.3331 178.3673 L 220.2004 176.5652 L 221.0677 174.763 M 215.8638 185.5759 L 215.8638 183.5759 L 215.8638 181.5759 L 215.8638 179.5759 L 215.8638 177.5759 L 215.8638 175.5759 L 215.8638 173.5759 L 214.9965 171.7738 L 214.1292 169.9716 M 215.8638 173.5759 L 216.7311 171.7738 L 217.5984 169.9716 M 215.8638 173.5759 L 215.8638 171.5759 L 215.8638 169.5759 L 215.8638 167.5759 L 215.8638 165.5759 M 215.8638 193.5759 L 217.4268 192.3282 L 218.9899 191.0804 L 220.5529 189.8326 L 222.116 188.5848 L 222.9833 186.7827 L 223.8506 184.9805 L 223.8506 182.9805 L 223.8506 180.9805 M 223.8506 184.9805 L 225.4136 183.7328 L 226.9767 182.485 M 223.8506 184.9805 L 224.7179 183.1784 L 225.5852 181.3762 L 226.4525 179.5741 L 227.3199 177.7719 M 222.116 188.5848 L 224.0655 188.1383 L 226.015 187.6918 L 227.578 186.4441 L 229.1411 185.1963 M 226.015 187.6918 L 227.9653 188.1349 L 229.9156 188.578 M 226.015 187.6918 L 227.9645 187.2453 L 229.914 186.7988 L 231.8636 186.3523 L 233.8131 185.9058 M 222.116 188.5848 L 223.679 187.3371 L 225.242 186.0893 L 226.8051 184.8415 L 228.3681 183.5938 L 229.9312 182.346 L 231.4942 181.0982 L 232.3615 179.2961 L 233.2289 177.4939 M 231.4942 181.0982 L 233.4437 180.6517 L 235.3932 180.2052 M 231.4942 181.0982 L 233.0573 179.8504 L 234.6203 178.6027 L 236.1833 177.3549 L 237.7464 176.1071 M 215.8638 193.5759 L 216.7311 191.7738 L 217.5984 189.9716 L 218.4657 188.1695 L 219.3331 186.3673 L 220.2004 184.5652 L 221.0677 182.763 L 221.935 180.9608 L 222.8023 179.1587 L 223.6696 177.3565 L 224.537 175.5544 L 225.4043 173.7522 L 226.2716 171.9501 L 226.2716 169.9501 L 226.2716 167.9501 L 225.4043 166.1479 L 224.537 164.3458 M 226.2716 167.9501 L 227.1389 166.1479 L 228.0062 164.3458 M 226.2716 167.9501 L 226.2716 165.9501 L 226.2716 163.9501 L 226.2716 161.9501 L 226.2716 159.9501 M 226.2716 171.9501 L 227.8346 170.7023 L 229.3977 169.4545 L 230.265 167.6524 L 231.1323 165.8502 M 229.3977 169.4545 L 231.3472 169.008 L 233.2967 168.5615 M 229.3977 169.4545 L 230.9607 168.2068 L 232.5238 166.959 L 234.0868 165.7112 L 235.6498 164.4634 M 226.2716 171.9501 L 227.1389 170.1479 L 228.0062 168.3458 L 228.8735 166.5436 L 229.7409 164.7415 L 230.6082 162.9393 L 231.4755 161.1371 L 231.4755 159.1371 L 231.4755 157.1371 M 231.4755 161.1371 L 233.0385 159.8894 L 234.6016 158.6416 M 231.4755 161.1371 L 232.3428 159.335 L 233.2101 157.5328 L 234.0775 155.7307 L 234.9448 153.9285 M 125.6628 381 L 125.6628 379 L 125.6628 377 L 125.6628 375 L 125.6628 373 L 125.6628 371 L 125.6628 369 L 125.6628 367 L 125.6628 365 L 125.6628 363 L 125.6628 361 L 125.6628 359 L 125.6628 357 L 125.6628 355 L 125.6628 353 L 125.6628 351 L 125.6628 349 L 125.6628 347 L 125.6628 345 L 125.6628 343 L 125.6628 341 L 125.6628 339 L 125.6628 337 L 125.6628 335 L 125.6628 333 L 125.6628 331 L 125.6628 329 L 125.6628 327 L 125.6628 325 L 125.6628 323 L 125.6628 321 L 125.6628 319 L 125.6628 317 L 125.6628 315 L 125.6628 313 L 125.6628 311 L 125.6628 309 L 125.6628 307 L 125.6628 305 L 125.6628 303 L 125.6628 301 L 125.6628 299 L 125.6628 297 L 125.6628 295 L 125.6628 293 L 125.6628 291 L 125.6628 289 L 125.6628 287 L 125.6628 285 L 125.6628 283 L 125.6628 281 L 125.6628 279 L 125.6628 277 L 125.6628 275 L 125.6628 273 L 125.6628 271 L 125.6628 269 L 125.6628 267 L 125.6628 265 L 125.6628 263 L 125.6628 261 L 125.6628 259 L 125.6628 257 L 125.6628 255 L 125.6628 253 L 125.6628 251 L 125.6628 249 L 125.6628 247 L 125.6628 245 L 125.6628 243 L 125.6628 241 L 125.6628 239 L 125.6628 237 L 125.6628 235 L 125.6628 233 L 125.6628 231 L 125.6628 229 L 125.6628 227 L 125.6628 225 L 125.6628 223 L 125.6628 221 L 125.6628 219 L 125.6628 217 L 125.6628 215 L 125.6628 213 L 125.6628 211 L 125.6628 209 L 125.6628 207 L 125.6628 205 L 125.6628 203 L 125.6628 201 L 125.6628 199 L 125.6628 197 L 125.6628 195 L 125.6628 193 L 125.6628 191 L 125.6628 189 L 124.7954 187.1978 L 123.9281 185.3957 L 123.0608 183.5935 L 122.1935 181.7914 L 121.3262 179.9892 L 120.4589 178.1871 L 119.5915 176.3849 L 118.7242 174.5828 L 117.8569 172.7806 L 116.9896 170.9785 L 116.1223 169.1763 L 115.255 167.3741 L 114.3876 165.572 L 113.5203 163.7698 L 112.653 161.9677 L 111.7857 160.1655 L 110.2226 158.9178 L 108.6596 157.67 L 107.0965 156.4222 L 105.5335 155.1744 L 103.9705 153.9267 L 102.4074 152.6789 L 100.8444 151.4311 L 99.28134 150.1833 L 97.33182 149.7368 L 95.3823 149.2903 L 93.43279 148.8438 L 91.48325 148.3973 L 89.53295 148.8404 L 87.58266 149.2835 L 86.01744 150.5285 L 84.45222 151.7736 M 87.58266 149.2835 L 85.63313 148.837 L 83.68361 148.3905 M 87.58266 149.2835 L 85.63236 149.7266 L 83.68206 150.1697 L 81.73177 150.6128 L 79.78146 151.0558 M 91.48325 148.3973 L 89.92021 147.1496 L 88.35717 145.9018 L 86.40765 145.4553 L 84.45812 145.0088 M 88.35717 145.9018 L 87.48985 144.0996 L 86.62253 142.2975 M 88.35717 145.9018 L 86.79413 144.654 L 85.23109 143.4063 L 83.66805 142.1585 L 82.105 140.9107 M 91.48325 148.3973 L 89.53373 147.9508 L 87.5842 147.5043 L 85.63468 147.0578 L 83.68517 146.6113 L 81.73563 146.1648 L 79.78611 145.7183 L 77.83582 146.1614 L 75.88551 146.6045 M 79.78611 145.7183 L 78.22307 144.4706 L 76.66003 143.2228 M 79.78611 145.7183 L 77.83659 145.2718 L 75.88706 144.8253 L 73.93755 144.3788 L 71.98801 143.9323 M 99.28134 150.1833 L 98.41402 148.3812 L 97.5467 146.579 L 96.67939 144.7769 L 95.81207 142.9747 L 94.24902 141.727 L 92.68598 140.4792 L 90.73647 140.0327 L 88.78694 139.5862 M 92.68598 140.4792 L 91.81867 138.677 L 90.95135 136.8749 M 92.68598 140.4792 L 91.12294 139.2314 L 89.55991 137.9836 L 87.99686 136.7359 L 86.43382 135.4881 M 95.81207 142.9747 L 95.81207 140.9747 L 95.81207 138.9747 L 94.94475 137.1726 L 94.07743 135.3704 M 95.81207 138.9747 L 96.67939 137.1726 L 97.5467 135.3704 M 95.81207 138.9747 L 95.81207 136.9747 L 95.81207 134.9747 L 95.81207 132.9747 L 95.81207 130.9747 M 95.81207 142.9747 L 94.94475 141.1726 L 94.07743 139.3704 L 93.21011 137.5683 L 92.34279 135.7661 L 91.47547 133.964 L 90.60816 132.1618 L 89.04512 130.914 L 87.48207 129.6663 M 90.60816 132.1618 L 90.60816 130.1618 L 90.60816 128.1618 M 90.60816 132.1618 L 89.74084 130.3596 L 88.87352 128.5575 L 88.00621 126.7553 L 87.13889 124.9532 M 99.28134 150.1833 L 97.7183 148.9356 L 96.15526 147.6878 L 94.59222 146.44 L 93.02918 145.1923 L 91.46614 143.9445 L 89.90309 142.6967 L 88.34005 141.4489 L 86.77701 140.2012 L 85.21397 138.9534 L 83.65093 137.7056 L 82.08789 136.4579 L 80.52484 135.2101 L 78.57532 134.7636 L 76.6258 134.3171 L 74.6755 134.7602 L 72.7252 135.2032 M 76.6258 134.3171 L 75.06275 133.0693 L 73.49971 131.8215 M 76.6258 134.3171 L 74.67627 133.8706 L 72.72675 133.4241 L 70.77722 132.9776 L 68.8277 132.5311 M 80.52484 135.2101 L 79.65753 133.4079 L 78.79021 131.6058 L 77.22717 130.358 L 75.66413 129.1102 M 78.79021 131.6058 L 78.79021 129.6058 L 78.79021 127.6058 M 78.79021 131.6058 L 77.92289 129.8036 L 77.05558 128.0015 L 76.18826 126.1993 L 75.32094 124.3972 M 80.52484 135.2101 L 78.9618 133.9623 L 77.39876 132.7145 L 75.83572 131.4668 L 74.27268 130.219 L 72.70964 128.9712 L 71.14659 127.7234 L 69.19707 127.2769 L 67.24755 126.8304 M 71.14659 127.7234 L 70.27928 125.9213 L 69.41196 124.1191 M 71.14659 127.7234 L 69.58355 126.4757 L 68.02051 125.2279 L 66.45747 123.9801 L 64.89443 122.7324 M 111.7857 160.1655 L 111.7857 158.1655 L 111.7857 156.1655 L 111.7857 154.1655 L 111.7857 152.1655 L 111.7857 150.1655 L 111.7857 148.1655 L 111.7857 146.1655 L 111.7857 144.1655 L 110.9184 142.3634 L 110.051 140.5612 L 109.1837 138.7591 L 108.3164 136.9569 L 106.7534 135.7091 L 105.1903 134.4614 L 103.2408 134.0149 L 101.2913 133.5684 M 105.1903 134.4614 L 104.323 132.6592 L 103.4557 130.8571 M 105.1903 134.4614 L 103.6273 133.2136 L 102.0642 131.9658 L 100.5012 130.718 L 98.93815 129.4703 M 108.3164 136.9569 L 108.3164 134.9569 L 108.3164 132.9569 L 107.4491 131.1548 L 106.5818 129.3526 M 108.3164 132.9569 L 109.1837 131.1548 L 110.051 129.3526 M 108.3164 132.9569 L 108.3164 130.9569 L 108.3164 128.9569 L 108.3164 126.9569 L 108.3164 124.9569 M 108.3164 136.9569 L 107.4491 135.1548 L 106.5818 133.3526 L 105.7144 131.5504 L 104.8471 129.7483 L 103.9798 127.9461 L 103.1125 126.144 L 101.5495 124.8962 L 99.9864 123.6484 M 103.1125 126.144 L 103.1125 124.144 L 103.1125 122.144 M 103.1125 126.144 L 102.2452 124.3418 L 101.3779 122.5397 L 100.5105 120.7375 L 99.64321 118.9354 M 111.7857 144.1655 L 112.653 142.3634 L 113.5203 140.5612 L 114.3876 138.7591 L 115.255 136.9569 L 115.255 134.9569 L 115.255 132.9569 L 114.3876 131.1548 L 113.5203 129.3526 M 115.255 132.9569 L 116.1223 131.1548 L 116.9896 129.3526 M 115.255 132.9569 L 115.255 130.9569 L 115.255 128.9569 L 115.255 126.9569 L 115.255 124.9569 M 115.255 136.9569 L 116.818 135.7091 L 118.381 134.4614 L 119.2484 132.6592 L 120.1157 130.8571 M 118.381 134.4614 L 120.3306 134.0149 L 122.2801 133.5684 M 118.381 134.4614 L 119.9441 133.2136 L 121.5071 131.9658 L 123.0702 130.718 L 124.6332 129.4703 M 115.255 136.9569 L 116.1223 135.1548 L 116.9896 133.3526 L 117.8569 131.5504 L 118.7242 129.7483 L 119.5915 127.9461 L 120.4589 126.144 L 120.4589 124.144 L 120.4589 122.144 M 120.4589 126.144 L 122.0219 124.8962 L 123.5849 123.6484 M 120.4589 126.144 L 121.3262 124.3418 L 122.1935 122.5397 L 123.0608 120.7375 L 123.9281 118.9354 M 111.7857 144.1655 L 111.7857 142.1655 L 111.7857 140.1655 L 111.7857 138.1655 L 111.7857 136.1655 L 111.7857 134.1655 L 111.7857 132.1655 L 111.7857 130.1655 L 111.7857 128.1655 L 111.7857 126.1655 L 111.7857 124.1655 L 111.7857 122.1655 L 111.7857 120.1655 L 110.9184 118.3634 L 110.051 116.5612 L 108.488 115.3134 L 106.925 114.0657 M 110.051 116.5612 L 110.051 114.5612 L 110.051 112.5612 M 110.051 116.5612 L 109.1837 114.7591 L 108.3164 112.9569 L 107.4491 111.1548 L 106.5818 109.3526 M 111.7857 120.1655 L 112.653 118.3634 L 113.5203 116.5612 L 113.5203 114.5612 L 113.5203 112.5612 M 113.5203 116.5612 L 115.0834 115.3134 L 116.6464 114.0657 M 113.5203 116.5612 L 114.3876 114.7591 L 115.255 112.9569 L 116.1223 111.1548 L 116.9896 109.3526 M 111.7857 120.1655 L 111.7857 118.1655 L 111.7857 116.1655 L 111.7857 114.1655 L 111.7857 112.1655 L 111.7857 110.1655 L 111.7857 108.1655 L 110.9184 106.3634 L 110.051 104.5612 M 111.7857 108.1655 L 112.653 106.3634 L 113.5203 104.5612 M 111.7857 108.1655 L 111.7857 106.1655 L 111.7857 104.1655 L 111.7857 102.1655 L 111.7857 100.1655 M 111.7857 160.1655 L 110.9184 158.3634 L 110.051 156.5612 L 109.1837 154.7591 L 108.3164 152.9569 L 107.4491 151.1548 L 106.5818 149.3526 L 105.7144 147.5504 L 104.8471 145.7483 L 103.9798 143.9461 L 103.1125 142.144 L 102.2452 140.3418 L 101.3779 138.5397 L 100.5105 136.7375 L 99.64321 134.9354 L 98.77589 133.1332 L 97.90857 131.3311 L 97.04125 129.5289 L 96.17393 127.7267 L 95.30663 125.9246 L 94.4393 124.1224 L 93.57198 122.3203 L 92.70467 120.5181 L 91.83734 118.716 L 90.97003 116.9138 L 89.40699 115.666 L 87.84394 114.4183 L 86.2809 113.1705 L 84.71786 111.9227 L 82.76834 111.4762 L 80.81881 111.0297 L 78.86852 111.4728 L 76.91822 111.9159 M 80.81881 111.0297 L 79.25577 109.782 L 77.69273 108.5342 M 80.81881 111.0297 L 78.86929 110.5832 L 76.91976 110.1367 L 74.97025 109.6902 L 73.02072 109.2437 M 84.71786 111.9227 L 83.85054 110.1206 L 82.98323 108.3184 L 81.42018 107.0706 L 79.85714 105.8229 M 82.98323 108.3184 L 82.98323 106.3184 L 82.98323 104.3184 M 82.98323 108.3184 L 82.11591 106.5163 L 81.2486 104.7141 L 80.38127 102.912 L 79.51396 101.1098 M 84.71786 111.9227 L 83.15482 110.675 L 81.59178 109.4272 L 80.02874 108.1794 L 78.46569 106.9316 L 76.90265 105.6839 L 75.33961 104.4361 L 73.39009 103.9896 L 71.44056 103.5431 M 75.33961 104.4361 L 74.47229 102.6339 L 73.60498 100.8318 M 75.33961 104.4361 L 73.77657 103.1883 L 72.21353 101.9406 L 70.65049 100.6928 L 69.08744 99.44501 M 90.97003 116.9138 L 90.97003 114.9138 L 90.97003 112.9138 L 90.97003 110.9138 L 90.97003 108.9138 L 90.10271 107.1117 L 89.23539 105.3095 L 87.67235 104.0617 L 86.10931 102.814 M 89.23539 105.3095 L 89.23539 103.3095 L 89.23539 101.3095 M 89.23539 105.3095 L 88.36808 103.5074 L 87.50076 101.7052 L 86.63344 99.90305 L 85.76612 98.10089 M 90.97003 108.9138 L 91.83734 107.1117 L 92.70467 105.3095 L 92.70467 103.3095 L 92.70467 101.3095 M 92.70467 105.3095 L 94.2677 104.0617 L 95.83074 102.814 M 92.70467 105.3095 L 93.57198 103.5074 L 94.4393 101.7052 L 95.30663 99.90305 L 96.17394 98.10089 M 90.97003 108.9138 L 90.97003 106.9138 L 90.97003 104.9138 L 90.97003 102.9138 L 90.97003 100.9138 L 90.97003 98.91382 L 90.97003 96.91382 L 90.10271 95.11166 L 89.23539 93.30951 M 90.97003 96.91382 L 91.83734 95.11166 L 92.70467 93.30951 M 90.97003 96.91382 L 90.97003 94.91382 L 90.97003 92.91382 L 90.97003 90.91382 L 90.97003 88.91382 M 90.97003 116.9138 L 90.10271 115.1117 L 89.23539 113.3095 L 88.36808 111.5074 L 87.50076 109.7052 L 86.63344 107.903 L 85.76612 106.1009 L 84.89881 104.2987 L 84.03149 102.4966 L 83.16417 100.6944 L 82.29686 98.89227 L 81.42954 97.09012 L 80.56223 95.28796 L 78.99918 94.04019 L 77.43614 92.79242 L 75.48661 92.34592 L 73.53709 91.89941 M 77.43614 92.79242 L 76.56882 90.99026 L 75.7015 89.18811 M 77.43614 92.79242 L 75.8731 91.54465 L 74.31005 90.29688 L 72.74701 89.0491 L 71.18398 87.80133 M 80.56223 95.28796 L 80.56223 93.28796 L 80.56223 91.28796 L 79.6949 89.48581 L 78.82759 87.68365 M 80.56223 91.28796 L 81.42954 89.48581 L 82.29686 87.68365 M 80.56223 91.28796 L 80.56223 89.28796 L 80.56223 87.28796 L 80.56223 85.28796 L 80.56223 83.28796 M 80.56223 95.28796 L 79.6949 93.48581 L 78.82759 91.68365 L 77.96027 89.8815 L 77.09295 88.07935 L 76.22563 86.27719 L 75.35832 84.47504 L 73.79528 83.22726 L 72.23223 81.97949 M 75.35832 84.47504 L 75.35832 82.47504 L 75.35832 80.47504 M 75.35832 84.47504 L 74.491 82.67288 L 73.62368 80.87073 L 72.75637 79.06857 L 71.88905 77.26642 M 125.6628 189 L 126.5301 187.1978 L 127.3974 185.3957 L 128.2647 183.5935 L 129.132 181.7914 L 129.9994 179.9892 L 130.8667 178.1871 L 131.734 176.3849 L 132.6013 174.5828 L 133.4686 172.7806 L 134.336 170.9785 L 135.2033 169.1763 L 136.0706 167.3741 L 136.9379 165.572 L 137.8052 163.7698 L 138.6725 161.9677 L 139.5399 160.1655 L 139.5399 158.1655 L 139.5399 156.1655 L 139.5399 154.1655 L 139.5399 152.1655 L 139.5399 150.1655 L 139.5399 148.1655 L 139.5399 146.1655 L 139.5399 144.1655 L 138.6725 142.3634 L 137.8052 140.5612 L 136.9379 138.7591 L 136.0706 136.9569 L 134.5075 135.7091 L 132.9445 134.4614 L 130.995 134.0149 L 129.0455 133.5684 M 132.9445 134.4614 L 132.0772 132.6592 L 131.2099 130.8571 M 132.9445 134.4614 L 131.3815 133.2136 L 129.8184 131.9658 L 128.2554 130.718 L 126.6923 129.4703 M 136.0706 136.9569 L 136.0706 134.9569 L 136.0706 132.9569 L 135.2033 131.1548 L 134.336 129.3526 M 136.0706 132.9569 L 136.9379 131.1548 L 137.8052 129.3526 M 136.0706 132.9569 L 136.0706 130.9569 L 136.0706 128.9569 L 136.0706 126.9569 L 136.0706 124.9569 M 136.0706 136.9569 L 135.2033 135.1548 L 134.336 133.3526 L 133.4686 131.5504 L 132.6013 129.7483 L 131.734 127.9461 L 130.8667 126.144 L 129.3036 124.8962 L 127.7406 123.6484 M 130.8667 126.144 L 130.8667 124.144 L 130.8667 122.144 M 130.8667 126.144 L 129.9994 124.3418 L 129.132 122.5397 L 128.2647 120.7375 L 127.3974 118.9354 M 139.5399 144.1655 L 140.4072 142.3634 L 141.2745 140.5612 L 142.1418 138.7591 L 143.0091 136.9569 L 143.0091 134.9569 L 143.0091 132.9569 L 142.1418 131.1548 L 141.2745 129.3526 M 143.0091 132.9569 L 143.8764 131.1548 L 144.7438 129.3526 M 143.0091 132.9569 L 143.0091 130.9569 L 143.0091 128.9569 L 143.0091 126.9569 L 143.0091 124.9569 M 143.0091 136.9569 L 144.5722 135.7091 L 146.1352 134.4614 L 147.0025 132.6592 L 147.8698 130.8571 M 146.1352 134.4614 L 148.0847 134.0149 L 150.0343 133.5684 M 146.1352 134.4614 L 147.6982 133.2136 L 149.2613 131.9658 L 150.8243 130.718 L 152.3874 129.4703 M 143.0091 136.9569 L 143.8764 135.1548 L 144.7438 133.3526 L 145.6111 131.5504 L 146.4784 129.7483 L 147.3457 127.9461 L 148.213 126.144 L 148.213 124.144 L 148.213 122.144 M 148.213 126.144 L 149.7761 124.8962 L 151.3391 123.6484 M 148.213 126.144 L 149.0804 124.3418 L 149.9477 122.5397 L 150.815 120.7375 L 151.6823 118.9354 M 139.5399 144.1655 L 139.5399 142.1655 L 139.5399 140.1655 L 139.5399 138.1655 L 139.5399 136.1655 L 139.5399 134.1655 L 139.5399 132.1655 L 139.5399 130.1655 L 139.5399 128.1655 L 139.5399 126.1655 L 139.5399 124.1655 L 139.5399 122.1655 L 139.5399 120.1655 L 138.6725 118.3634 L 137.8052 116.5612 L 136.2422 115.3134 L 134.6791 114.0657 M 137.8052 116.5612 L 137.8052 114.5612 L 137.8052 112.5612 M 137.8052 116.5612 L 136.9379 114.7591 L 136.0706 112.9569 L 135.2033 111.1548 L 134.336 109.3526 M 139.5399 120.1655 L 140.4072 118.3634 L 141.2745 116.5612 L 141.2745 114.5612 L 141.2745 112.5612 M 141.2745 116.5612 L 142.8375 115.3134 L 144.4006 114.0657 M 141.2745 116.5612 L 142.1418 114.7591 L 143.0091 112.9569 L 143.8764 111.1548 L 144.7438 109.3526 M 139.5399 120.1655 L 139.5399 118.1655 L 139.5399 116.1655 L 139.5399 114.1655 L 139.5399 112.1655 L 139.5399 110.1655 L 139.5399 108.1655 L 138.6725 106.3634 L 137.8052 104.5612 M 139.5399 108.1655 L 140.4072 106.3634 L 141.2745 104.5612 M 139.5399 108.1655 L 139.5399 106.1655 L 139.5399 104.1655 L 139.5399 102.1655 L 139.5399 100.1655 M 139.5399 160.1655 L 141.1029 158.9178 L 142.6659 157.67 L 144.229 156.4222 L 145.792 155.1744 L 147.3551 153.9267 L 148.9181 152.6789 L 150.4812 151.4311 L 152.0442 150.1833 L 152.9115 148.3812 L 153.7788 146.579 L 154.6461 144.7769 L 155.5135 142.9747 L 155.5135 140.9747 L 155.5135 138.9747 L 154.6461 137.1726 L 153.7788 135.3704 M 155.5135 138.9747 L 156.3808 137.1726 L 157.2481 135.3704 M 155.5135 138.9747 L 155.5135 136.9747 L 155.5135 134.9747 L 155.5135 132.9747 L 155.5135 130.9747 M 155.5135 142.9747 L 157.0765 141.727 L 158.6395 140.4792 L 159.5069 138.677 L 160.3742 136.8749 M 158.6395 140.4792 L 160.5891 140.0327 L 162.5386 139.5862 M 158.6395 140.4792 L 160.2026 139.2314 L 161.7656 137.9836 L 163.3287 136.7359 L 164.8917 135.4881 M 155.5135 142.9747 L 156.3808 141.1726 L 157.2481 139.3704 L 158.1154 137.5683 L 158.9827 135.7661 L 159.85 133.964 L 160.7174 132.1618 L 160.7174 130.1618 L 160.7174 128.1618 M 160.7174 132.1618 L 162.2804 130.914 L 163.8434 129.6663 M 160.7174 132.1618 L 161.5847 130.3596 L 162.452 128.5575 L 163.3193 126.7553 L 164.1866 124.9532 M 152.0442 150.1833 L 153.9937 149.7368 L 155.9432 149.2903 L 157.8928 148.8438 L 159.8423 148.3973 L 161.4053 147.1496 L 162.9684 145.9018 L 163.8357 144.0996 L 164.703 142.2975 M 162.9684 145.9018 L 164.9179 145.4553 L 166.8674 145.0088 M 162.9684 145.9018 L 164.5314 144.654 L 166.0945 143.4063 L 167.6575 142.1585 L 169.2205 140.9107 M 159.8423 148.3973 L 161.7926 148.8404 L 163.7429 149.2835 L 165.6924 148.837 L 167.6419 148.3905 M 163.7429 149.2835 L 165.3081 150.5285 L 166.8733 151.7736 M 163.7429 149.2835 L 165.6932 149.7266 L 167.6435 150.1697 L 169.5938 150.6128 L 171.5441 151.0558 M 159.8423 148.3973 L 161.7918 147.9508 L 163.7413 147.5043 L 165.6909 147.0578 L 167.6404 146.6113 L 169.5899 146.1648 L 171.5394 145.7183 L 173.1025 144.4706 L 174.6655 143.2228 M 171.5394 145.7183 L 173.4897 146.1614 L 175.44 146.6045 M 171.5394 145.7183 L 173.489 145.2718 L 175.4385 144.8253 L 177.388 144.3788 L 179.3375 143.9323 M 152.0442 150.1833 L 153.6072 148.9356 L 155.1703 147.6878 L 156.7333 146.44 L 158.2964 145.1923 L 159.8594 143.9445 L 161.4224 142.6967 L 162.9855 141.4489 L 164.5485 140.2012 L 166.1116 138.9534 L 167.6746 137.7056 L 169.2377 136.4579 L 170.8007 135.2101 L 171.668 133.4079 L 172.5353 131.6058 L 172.5353 129.6058 L 172.5353 127.6058 M 172.5353 131.6058 L 174.0984 130.358 L 175.6614 129.1102 M 172.5353 131.6058 L 173.4026 129.8036 L 174.27 128.0015 L 175.1373 126.1993 L 176.0046 124.3972 M 170.8007 135.2101 L 172.7502 134.7636 L 174.6997 134.3171 L 176.2628 133.0693 L 177.8258 131.8215 M 174.6997 134.3171 L 176.65 134.7602 L 178.6003 135.2032 M 174.6997 134.3171 L 176.6493 133.8706 L 178.5988 133.4241 L 180.5483 132.9776 L 182.4978 132.5311 M 170.8007 135.2101 L 172.3637 133.9623 L 173.9268 132.7145 L 175.4898 131.4668 L 177.0529 130.219 L 178.6159 128.9712 L 180.1789 127.7234 L 181.0463 125.9213 L 181.9136 124.1191 M 180.1789 127.7234 L 182.1285 127.2769 L 184.078 126.8304 M 180.1789 127.7234 L 181.742 126.4757 L 183.305 125.2279 L 184.8681 123.9801 L 186.4311 122.7324 M 139.5399 160.1655 L 140.4072 158.3634 L 141.2745 156.5612 L 142.1418 154.7591 L 143.0091 152.9569 L 143.8764 151.1548 L 144.7438 149.3526 L 145.6111 147.5504 L 146.4784 145.7483 L 147.3457 143.9461 L 148.213 142.144 L 149.0804 140.3418 L 149.9477 138.5397 L 150.815 136.7375 L 151.6823 134.9354 L 152.5496 133.1332 L 153.4169 131.3311 L 154.2843 129.5289 L 155.1516 127.7267 L 156.0189 125.9246 L 156.8862 124.1224 L 157.7535 122.3203 L 158.6208 120.5181 L 159.4882 118.716 L 160.3555 116.9138 L 160.3555 114.9138 L 160.3555 112.9138 L 160.3555 110.9138 L 160.3555 108.9138 L 159.4882 107.1117 L 158.6208 105.3095 L 157.0578 104.0617 L 155.4948 102.814 M 158.6208 105.3095 L 158.6208 103.3095 L 158.6208 101.3095 M 158.6208 105.3095 L 157.7535 103.5074 L 156.8862 101.7052 L 156.0189 99.90305 L 155.1516 98.10089 M 160.3555 108.9138 L 161.2228 107.1117 L 162.0901 105.3095 L 162.0901 103.3095 L 162.0901 101.3095 M 162.0901 105.3095 L 163.6532 104.0617 L 165.2162 102.814 M 162.0901 105.3095 L 162.9574 103.5074 L 163.8247 101.7052 L 164.6921 99.90305 L 165.5594 98.10089 M 160.3555 108.9138 L 160.3555 106.9138 L 160.3555 104.9138 L 160.3555 102.9138 L 160.3555 100.9138 L 160.3555 98.91382 L 160.3555 96.91382 L 159.4882 95.11166 L 158.6208 93.30951 M 160.3555 96.91382 L 161.2228 95.11166 L 162.0901 93.30951 M 160.3555 96.91382 L 160.3555 94.91382 L 160.3555 92.91382 L 160.3555 90.91382 L 160.3555 88.91382 M 160.3555 116.9138 L 161.9185 115.666 L 163.4816 114.4183 L 165.0446 113.1705 L 166.6076 111.9227 L 167.475 110.1206 L 168.3423 108.3184 L 168.3423 106.3184 L 168.3423 104.3184 M 168.3423 108.3184 L 169.9053 107.0706 L 171.4684 105.8229 M 168.3423 108.3184 L 169.2096 106.5163 L 170.0769 104.7141 L 170.9442 102.912 L 171.8115 101.1098 M 166.6076 111.9227 L 168.5572 111.4762 L 170.5067 111.0297 L 172.0697 109.782 L 173.6328 108.5342 M 170.5067 111.0297 L 172.457 111.4728 L 174.4073 111.9159 M 170.5067 111.0297 L 172.4562 110.5832 L 174.4057 110.1367 L 176.3553 109.6902 L 178.3048 109.2437 M 166.6076 111.9227 L 168.1707 110.675 L 169.7337 109.4272 L 171.2968 108.1794 L 172.8598 106.9316 L 174.4229 105.6839 L 175.9859 104.4361 L 176.8532 102.6339 L 177.7205 100.8318 M 175.9859 104.4361 L 177.9354 103.9896 L 179.8849 103.5431 M 175.9859 104.4361 L 177.5489 103.1883 L 179.112 101.9406 L 180.675 100.6928 L 182.2381 99.44501 M 160.3555 116.9138 L 161.2228 115.1117 L 162.0901 113.3095 L 162.9574 111.5074 L 163.8247 109.7052 L 164.6921 107.903 L 165.5594 106.1009 L 166.4267 104.2987 L 167.294 102.4966 L 168.1613 100.6944 L 169.0286 98.89227 L 169.896 97.09012 L 170.7633 95.28796 L 170.7633 93.28796 L 170.7633 91.28796 L 169.896 89.48581 L 169.0286 87.68365 M 170.7633 91.28796 L 171.6306 89.48581 L 172.4979 87.68365 M 170.7633 91.28796 L 170.7633 89.28796 L 170.7633 87.28796 L 170.7633 85.28796 L 170.7633 83.28796 M 170.7633 95.28796 L 172.3263 94.04019 L 173.8894 92.79242 L 174.7567 90.99026 L 175.624 89.18811 M 173.8894 92.79242 L 175.8389 92.34592 L 177.7884 91.89941 M 173.8894 92.79242 L 175.4524 91.54465 L 177.0154 90.29688 L 178.5785 89.0491 L 180.1415 87.80133 M 170.7633 95.28796 L 171.6306 93.48581 L 172.4979 91.68365 L 173.3652 89.8815 L 174.2325 88.07935 L 175.0999 86.27719 L 175.9672 84.47504 L 175.9672 82.47504 L 175.9672 80.47504 M 175.9672 84.47504 L 177.5302 83.22726 L 179.0933 81.97949 M 175.9672 84.47504 L 176.8345 82.67288 L 177.7018 80.87073 L 178.5691 79.06857 L 179.4364 77.26642 M 125.6628 189 L 125.6628 187 L 125.6628 185 L 125.6628 183 L 125.6628 181 L 125.6628 179 L 125.6628 177 L 125.6628 175 L 125.6628 173 L 125.6628 171 L 125.6628 169 L 125.6628 167 L 125.6628 165 L 125.6628 163 L 125.6628 161 L 125.6628 159 L 125.6628 157 L 125.6628 155 L 125.6628 153 L 125.6628 151 L 125.6628 149 L 125.6628 147 L 125.6628 145 L 125.6628 143 L 125.6628 141 L 125.6628 139 L 125.6628 137 L 125.6628 135 L 125.6628 133 L 125.6628 131 L 125.6628 129 L 125.6628 127 L 125.6628 125 L 125.6628 123 L 125.6628 121 L 125.6628 119 L 125.6628 117 L 125.6628 115 L 125.6628 113 L 125.6628 111 L 125.6628 109 L 125.6628 107 L 125.6628 105 L 125.6628 103 L 125.6628 101 L 125.6628 99 L 125.6628 97 L 125.6628 95 L 125.6628 93 L 124.7954 91.19785 L 123.9281 89.39569 L 123.0608 87.59354 L 122.1935 85.79138 L 121.3262 83.98923 L 120.4588 82.18707 L 119.5915 80.38492 L 118.7242 78.58276 L 117.1612 77.33499 L 115.5981 76.08722 L 114.0351 74.83945 L 112.4721 73.59167 L 110.5225 73.14517 L 108.573 72.69867 L 106.6227 73.14175 L 104.6724 73.58484 M 108.573 72.69867 L 107.01 71.4509 L 105.4469 70.20313 M 108.573 72.69867 L 106.6235 72.25217 L 104.674 71.80566 L 102.7244 71.35916 L 100.7749 70.91266 M 112.4721 73.59167 L 111.6047 71.78952 L 110.7374 69.98737 L 109.1744 68.73959 L 107.6113 67.49182 M 110.7374 69.98737 L 110.7374 67.98737 L 110.7374 65.98737 M 110.7374 69.98737 L 109.8701 68.18521 L 109.0028 66.38306 L 108.1355 64.5809 L 107.2681 62.77875 M 112.4721 73.59167 L 110.909 72.3439 L 109.346 71.09613 L 107.7829 69.84836 L 106.2199 68.60059 L 104.6569 67.35281 L 103.0938 66.10504 L 101.1443 65.65854 L 99.19476 65.21204 M 103.0938 66.10504 L 102.2265 64.30289 L 101.3592 62.50073 M 103.0938 66.10504 L 101.5308 64.85727 L 99.96772 63.6095 L 98.40468 62.36172 L 96.84164 61.11395 M 118.7242 78.58276 L 118.7242 76.58276 L 118.7242 74.58276 L 118.7242 72.58276 L 118.7242 70.58276 L 117.8569 68.78061 L 116.9896 66.97845 L 115.4265 65.73068 L 113.8635 64.48291 M 116.9896 66.97845 L 116.9896 64.97845 L 116.9896 62.97845 M 116.9896 66.97845 L 116.1223 65.1763 L 115.2549 63.37415 L 114.3876 61.57199 L 113.5203 59.76984 M 118.7242 70.58276 L 119.5915 68.78061 L 120.4588 66.97845 L 120.4588 64.97845 L 120.4588 62.97845 M 120.4588 66.97845 L 122.0219 65.73068 L 123.5849 64.48291 M 120.4588 66.97845 L 121.3262 65.1763 L 122.1935 63.37415 L 123.0608 61.57199 L 123.9281 59.76984 M 118.7242 70.58276 L 118.7242 68.58276 L 118.7242 66.58276 L 118.7242 64.58276 L 118.7242 62.58276 L 118.7242 60.58276 L 118.7242 58.58276 L 117.8569 56.78061 L 116.9896 54.97845 M 118.7242 58.58276 L 119.5915 56.78061 L 120.4588 54.97845 M 118.7242 58.58276 L 118.7242 56.58276 L 118.7242 54.58276 L 118.7242 52.58276 L 118.7242 50.58276 M 118.7242 78.58276 L 117.8569 76.78061 L 116.9896 74.97845 L 116.1223 73.1763 L 115.2549 71.37415 L 114.3876 69.57199 L 113.5203 67.76984 L 112.653 65.96768 L 111.7857 64.16553 L 110.9184 62.36337 L 110.051 60.56122 L 109.1837 58.75906 L 108.3164 56.95691 L 106.7533 55.70914 L 105.1903 54.46136 L 103.2408 54.01486 L 101.2913 53.56836 M 105.1903 54.46136 L 104.323 52.65921 L 103.4557 50.85706 M 105.1903 54.46136 L 103.6273 53.21359 L 102.0642 51.96582 L 100.5012 50.71805 L 98.93815 49.47028 M 108.3164 56.95691 L 108.3164 54.95691 L 108.3164 52.95691 L 107.4491 51.15475 L 106.5818 49.3526 M 108.3164 52.95691 L 109.1837 51.15475 L 110.051 49.3526 M 108.3164 52.95691 L 108.3164 50.95691 L 108.3164 48.95691 L 108.3164 46.95691 L 108.3164 44.95691 M 108.3164 56.95691 L 107.4491 55.15475 L 106.5818 53.3526 L 105.7144 51.55045 L 104.8471 49.74829 L 103.9798 47.94614 L 103.1125 46.14398 L 101.5494 44.89621 L 99.9864 43.64844 M 103.1125 46.14398 L 103.1125 44.14398 L 103.1125 42.14398 M 103.1125 46.14398 L 102.2452 44.34183 L 101.3778 42.53967 L 100.5105 40.73752 L 99.6432 38.93536 M 125.6628 93 L 126.5301 91.19785 L 127.3974 89.39569 L 128.2647 87.59354 L 129.132 85.79138 L 129.9993 83.98923 L 130.8667 82.18707 L 131.734 80.38492 L 132.6013 78.58276 L 132.6013 76.58276 L 132.6013 74.58276 L 132.6013 72.58276 L 132.6013 70.58276 L 131.734 68.78061 L 130.8667 66.97845 L 129.3036 65.73068 L 127.7406 64.48291 M 130.8667 66.97845 L 130.8667 64.97845 L 130.8667 62.97845 M 130.8667 66.97845 L 129.9993 65.1763 L 129.132 63.37415 L 128.2647 61.57199 L 127.3974 59.76984 M 132.6013 70.58276 L 133.4686 68.78061 L 134.3359 66.97845 L 134.3359 64.97845 L 134.3359 62.97845 M 134.3359 66.97845 L 135.899 65.73068 L 137.462 64.48291 M 134.3359 66.97845 L 135.2033 65.1763 L 136.0706 63.37415 L 136.9379 61.57199 L 137.8052 59.76984 M 132.6013 70.58276 L 132.6013 68.58276 L 132.6013 66.58276 L 132.6013 64.58276 L 132.6013 62.58276 L 132.6013 60.58276 L 132.6013 58.58276 L 131.734 56.78061 L 130.8667 54.97845 M 132.6013 58.58276 L 133.4686 56.78061 L 134.3359 54.97845 M 132.6013 58.58276 L 132.6013 56.58276 L 132.6013 54.58276 L 132.6013 52.58276 L 132.6013 50.58276 M 132.6013 78.58276 L 134.1644 77.33499 L 135.7274 76.08722 L 137.2904 74.83945 L 138.8535 73.59167 L 139.7208 71.78952 L 140.5881 69.98737 L 140.5881 67.98737 L 140.5881 65.98737 M 140.5881 69.98737 L 142.1512 68.73959 L 143.7142 67.49182 M 140.5881 69.98737 L 141.4554 68.18521 L 142.3227 66.38306 L 143.1901 64.5809 L 144.0574 62.77875 M 138.8535 73.59167 L 140.803 73.14517 L 142.7525 72.69867 L 144.3156 71.4509 L 145.8786 70.20313 M 142.7525 72.69867 L 144.7028 73.14175 L 146.6531 73.58484 M 142.7525 72.69867 L 144.702 72.25217 L 146.6516 71.80566 L 148.6011 71.35916 L 150.5506 70.91266 M 138.8535 73.59167 L 140.4165 72.3439 L 141.9796 71.09613 L 143.5426 69.84836 L 145.1056 68.60059 L 146.6687 67.35281 L 148.2317 66.10504 L 149.099 64.30289 L 149.9664 62.50073 M 148.2317 66.10504 L 150.1812 65.65854 L 152.1308 65.21204 M 148.2317 66.10504 L 149.7948 64.85727 L 151.3578 63.6095 L 152.9208 62.36172 L 154.4839 61.11395 M 132.6013 78.58276 L 133.4686 76.78061 L 134.3359 74.97845 L 135.2033 73.1763 L 136.0706 71.37415 L 136.9379 69.57199 L 137.8052 67.76984 L 138.6725 65.96768 L 139.5399 64.16553 L 140.4072 62.36337 L 141.2745 60.56122 L 142.1418 58.75906 L 143.0091 56.95691 L 143.0091 54.95691 L 143.0091 52.95691 L 142.1418 51.15475 L 141.2745 49.3526 M 143.0091 52.95691 L 143.8764 51.15475 L 144.7438 49.3526 M 143.0091 52.95691 L 143.0091 50.95691 L 143.0091 48.95691 L 143.0091 46.95691 L 143.0091 44.95691 M 143.0091 56.95691 L 144.5722 55.70914 L 146.1352 54.46136 L 147.0025 52.65921 L 147.8698 50.85706 M 146.1352 54.46136 L 148.0847 54.01486 L 150.0343 53.56836 M 146.1352 54.46136 L 147.6982 53.21359 L 149.2613 51.96582 L 150.8243 50.71805 L 152.3874 49.47028 M 143.0091 56.95691 L 143.8764 55.15475 L 144.7438 53.3526 L 145.6111 51.55045 L 146.4784 49.74829 L 147.3457 47.94614 L 148.213 46.14398 L 148.213 44.14398 L 148.213 42.14398 M 148.213 46.14398 L 149.7761 44.89621 L 151.3391 43.64844 M 148.213 46.14398 L 149.0803 44.34183 L 149.9477 42.53967 L 150.815 40.73752 L 151.6823 38.93536 M 125.6628 93 L 125.6628 91 L 125.6628 89 L 125.6628 87 L 125.6628 85 L 125.6628 83 L 125.6628 81 L 125.6628 79 L 125.6628 77 L 125.6628 75 L 125.6628 73 L 125.6628 71 L 125.6628 69 L 125.6628 67 L 125.6628 65 L 125.6628 63 L 125.6628 61 L 125.6628 59 L 125.6628 57 L 125.6628 55 L 125.6628 53 L 125.6628 51 L 125.6628 49 L 125.6628 47 L 125.6628 45 L 124.7954 43.19785 L 123.9281 41.39569 L 123.0608 39.59354 L 122.1935 37.79138 L 120.6304 36.54361 L 119.0674 35.29584 L 117.1179 34.84933 L 115.1684 34.40283 M 119.0674 35.29584 L 118.2001 33.49368 L 117.3328 31.69153 M 119.0674 35.29584 L 117.5044 34.04807 L 115.9413 32.80029 L 114.3783 31.55252 L 112.8152 30.30475 M 122.1935 37.79138 L 122.1935 35.79138 L 122.1935 33.79138 L 121.3262 31.98923 L 120.4588 30.18707 M 122.1935 33.79138 L 123.0608 31.98923 L 123.9281 30.18707 M 122.1935 33.79138 L 122.1935 31.79138 L 122.1935 29.79138 L 122.1935 27.79138 L 122.1935 25.79138 M 122.1935 37.79138 L 121.3262 35.98923 L 120.4588 34.18707 L 119.5915 32.38492 L 118.7242 30.58276 L 117.8569 28.78061 L 116.9896 26.97845 L 115.4265 25.73068 L 113.8635 24.48291 M 116.9896 26.97845 L 116.9896 24.97845 L 116.9896 22.97845 M 116.9896 26.97845 L 116.1223 25.1763 L 115.2549 23.37415 L 114.3876 21.57199 L 113.5203 19.76984 M 125.6628 45 L 126.5301 43.19785 L 127.3974 41.39569 L 128.2647 39.59354 L 129.132 37.79138 L 129.132 35.79138 L 129.132 33.79138 L 128.2647 31.98923 L 127.3974 30.18707 M 129.132 33.79138 L 129.9993 31.98923 L 130.8667 30.18707 M 129.132 33.79138 L 129.132 31.79138 L 129.132 29.79138 L 129.132 27.79138 L 129.132 25.79138 M 129.132 37.79138 L 130.6951 36.54361 L 132.2581 35.29584 L 133.1254 33.49368 L 133.9928 31.69153 M 132.2581 35.29584 L 134.2076 34.84933 L 136.1572 34.40283 M 132.2581 35.29584 L 133.8212 34.04807 L 135.3842 32.80029 L 136.9472 31.55252 L 138.5103 30.30475 M 129.132 37.79138 L 129.9993 35.98923 L 130.8667 34.18707 L 131.734 32.38492 L 132.6013 30.58276 L 133.4686 28.78061 L 134.3359 26.97845 L 134.3359 24.97845 L 134.3359 22.97845 M 134.3359 26.97845 L 135.899 25.73068 L 137.462 24.48291 M 134.3359 26.97845 L 135.2033 25.1763 L 136.0706 23.37415 L 136.9379 21.57199 L 137.8052 19.76984 M 125.6628 45 L 125.6628 43 L 125.6628 41 L 125.6628 39 L 125.6628 37 L 125.6628 35 L 125.6628 33 L 125.6628 31 L 125.6628 29 L 125.6628 27 L 125.6628 25 L 125.6628 23 L 125.6628 21 L 124.7954 19.19785 L 123.9281 17.39569 L 122.3651 16.14792 L 120.802 14.90015 M 123.9281 17.39569 L 123.9281 15.39569 L 123.9281 13.39569 M 123.9281 17.39569 L 123.0608 15.59354 L 122.1935 13.79138 L 121.3262 11.98923 L 120.4588 10.18707 M 125.6628 21 L 126.5301 19.19785 L 127.3974 17.39569 L 127.3974 15.39569 L 127.3974 13.39569 M 127.3974 17.39569 L 128.9604 16.14792 L 130.5235 14.90015 M 127.3974 17.39569 L 128.2647 15.59354 L 129.132 13.79138 L 129.9993 11.98923 L 130.8667 10.18707 M 125.6628 21 L 125.6628 19 L 125.6628 17 L 125.6628 15 L 125.6628 13 L 125.6628 11 L 125.6628 9 L 124.7954 7.197845 L 123.9281 5.395691 M 125.6628 9 L 126.5301 7.197845 L 127.3974 5.395691 M 125.6628 9 L 125.6628 7 L 125.6628 5 L 125.6628 3 L 125.6628 1 " />
  </g>
</svg>
