<?xml version="1.0" encoding="UTF-8" standalone="no"?>
<!DOCTYPE svg PUBLIC "-//W3C//DTD SVG 1.1//EN"
    "http://www.w3.org/Graphics/SVG/1.1/DTD/svg11.dtd">
<svg xmlns="http://www.w3.org/2000/svg" width="275" height="403">
  <desc>plant_f LSystem</desc>
  <g stroke="black" fill="none" stroke-width="1">
    <path d="M 180.3726 401.8312 L 180.3726 396.8312 L 180.3726 391.8312 L 180.3726 386.8312 L 180.3726 381.8312 L 180.3726 376.8312 L 180.3726 371.8312 L 180.3726 366.8312 L 180.3726 361.8312 L 180.3726 356.8312 L 180.3726 351.8312 L 180.3726 346.8312 L 180.3726 341.8312 L 180.3726 336.8312 L 180.3726 331.8312 L 180.3726 326.8312 L 180.3726 321.8312 L 182.286 317.2118 L 184.1994 312.5924 L 186.1128 307.973 L 188.0263 303.3536 L 189.9397 298.7342 L 191.8531 294.1148 L 193.7665 289.4954 L 195.6799 284.876 L 199.2155 281.3405 L 202.751 277.8049 L 206.2865 274.2694 L 209.8221 270.7339 L 214.4415 268.8204 L 219.0609 266.907 L 224.0609 266.907 L 229.0609 266.907 L 233.6802 264.9936 M 219.0609 266.907 L 223.6802 264.9936 L 228.2997 263.0802 L 231.8352 259.5446 M 219.0609 266.907 L 223.6802 264.9936 L 228.2997 263.0802 L 231.8352 259.5446 L 235.3707 256.0091 L 238.9062 252.4736 L 242.4418 248.938 L 244.3552 244.3186 M 228.2997 263.0802 L 233.2997 263.0802 L 238.2997 263.0802 L 242.919 261.1667 M 209.8221 270.7339 L 213.3576 267.1983 L 216.8931 263.6628 L 221.5125 261.7494 L 226.1319 259.8359 L 229.6674 256.3004 M 216.8931 263.6628 L 220.4286 260.1273 L 223.9642 256.5917 L 225.8776 251.9723 M 216.8931 263.6628 L 220.4286 260.1273 L 223.9642 256.5917 L 225.8776 251.9723 L 227.791 247.3529 L 229.7044 242.7335 L 231.6179 238.1141 L 231.6179 233.1141 M 223.9642 256.5917 L 228.5836 254.6783 L 233.203 252.7649 L 236.7385 249.2293 M 209.8221 270.7339 L 213.3576 267.1983 L 216.8931 263.6628 L 220.4286 260.1273 L 223.9642 256.5917 L 225.8776 251.9723 L 227.791 247.3529 L 229.7044 242.7335 L 231.6179 238.1141 L 233.5313 233.4947 L 235.4447 228.8753 L 238.9802 225.3398 L 242.5158 221.8042 L 244.4292 217.1848 M 235.4447 228.8753 L 237.3581 224.2559 L 239.2715 219.6365 L 239.2715 214.6365 M 235.4447 228.8753 L 237.3581 224.2559 L 239.2715 219.6365 L 239.2715 214.6365 L 239.2715 209.6365 L 239.2715 204.6365 L 239.2715 199.6365 L 237.3581 195.0171 M 239.2715 219.6365 L 242.8071 216.101 L 246.3426 212.5654 L 248.256 207.946 M 223.9642 256.5917 L 228.5836 254.6783 L 233.203 252.7649 L 238.203 252.7649 L 243.203 252.7649 L 247.8224 250.8514 M 233.203 252.7649 L 237.8224 250.8514 L 242.4418 248.938 L 245.9773 245.4025 M 233.203 252.7649 L 237.8224 250.8514 L 242.4418 248.938 L 245.9773 245.4025 L 249.5128 241.8669 L 253.0484 238.3314 L 256.5839 234.7959 L 258.4973 230.1765 M 242.4418 248.938 L 247.4418 248.938 L 252.4418 248.938 L 257.0612 247.0246 M 195.6799 284.876 L 197.5934 280.2566 L 199.5068 275.6372 L 201.4202 271.0178 L 203.3336 266.3984 L 206.8691 262.8629 L 210.4047 259.3273 L 215.0241 257.4139 L 219.6435 255.5005 L 223.179 251.965 M 210.4047 259.3273 L 213.9402 255.7918 L 217.4757 252.2563 L 219.3892 247.6369 M 210.4047 259.3273 L 213.9402 255.7918 L 217.4757 252.2563 L 219.3892 247.6369 L 221.3026 243.0175 L 223.216 238.3981 L 225.1294 233.7787 L 225.1294 228.7787 M 217.4757 252.2563 L 222.0951 250.3428 L 226.7145 248.4294 L 230.2501 244.8939 M 203.3336 266.3984 L 205.247 261.779 L 207.1605 257.1596 L 210.696 253.6241 L 214.2315 250.0885 L 216.1449 245.4691 M 207.1605 257.1596 L 209.0739 252.5402 L 210.9873 247.9208 L 210.9873 242.9208 M 207.1605 257.1596 L 209.0739 252.5402 L 210.9873 247.9208 L 210.9873 242.9208 L 210.9873 237.9208 L 210.9873 232.9208 L 210.9873 227.9208 L 209.0739 223.3014 M 210.9873 247.9208 L 214.5228 244.3853 L 218.0583 240.8497 L 219.9718 236.2303 M 203.3336 266.3984 L 205.247 261.779 L 207.1605 257.1596 L 209.0739 252.5402 L 210.9873 247.9208 L 210.9873 242.9208 L 210.9873 237.9208 L 210.9873 232.9208 L 210.9873 227.9208 L 210.9873 222.9208 L 210.9873 217.9208 L 212.9007 213.3014 L 214.8141 208.682 L 214.8141 203.682 M 210.9873 217.9208 L 210.9873 212.9208 L 210.9873 207.9208 L 209.0739 203.3014 M 210.9873 217.9208 L 210.9873 212.9208 L 210.9873 207.9208 L 209.0739 203.3014 L 207.1605 198.682 L 205.247 194.0626 L 203.3336 189.4432 L 199.7981 185.9077 M 210.9873 207.9208 L 212.9007 203.3014 L 214.8141 198.682 L 214.8141 193.682 M 210.9873 247.9208 L 214.5228 244.3853 L 218.0583 240.8497 L 222.6777 238.9363 L 227.2971 237.0229 L 230.8327 233.4874 M 218.0583 240.8497 L 221.5939 237.3142 L 225.1294 233.7787 L 227.0428 229.1593 M 218.0583 240.8497 L 221.5939 237.3142 L 225.1294 233.7787 L 227.0428 229.1593 L 228.9563 224.5399 L 230.8697 219.9205 L 232.7831 215.3011 L 232.7831 210.3011 M 225.1294 233.7787 L 229.7488 231.8652 L 234.3682 229.9518 L 237.9037 226.4163 M 195.6799 284.876 L 197.5934 280.2566 L 199.5068 275.6372 L 201.4202 271.0178 L 203.3336 266.3984 L 205.247 261.779 L 207.1605 257.1596 L 209.0739 252.5402 L 210.9873 247.9208 L 210.9873 242.9208 L 210.9873 237.9208 L 210.9873 232.9208 L 210.9873 227.9208 L 210.9873 222.9208 L 210.9873 217.9208 L 210.9873 212.9208 L 210.9873 207.9208 L 210.9873 202.9208 L 210.9873 197.9208 L 210.9873 192.9208 L 210.9873 187.9208 L 212.9007 183.3014 L 214.8141 178.682 L 218.3497 175.1465 L 221.8852 171.6109 L 223.7986 166.9915 M 214.8141 178.682 L 216.7276 174.0626 L 218.641 169.4432 L 218.641 164.4432 M 214.8141 178.682 L 216.7276 174.0626 L 218.641 169.4432 L 218.641 164.4432 L 218.641 159.4432 L 218.641 154.4432 L 218.641 149.4432 L 216.7276 144.8238 M 218.641 169.4432 L 222.1765 165.9077 L 225.712 162.3721 L 227.6255 157.7527 M 210.9873 187.9208 L 210.9873 182.9208 L 210.9873 177.9208 L 212.9007 173.3014 L 214.8141 168.682 L 214.8141 163.682 M 210.9873 177.9208 L 210.9873 172.9208 L 210.9873 167.9208 L 209.0739 163.3014 M 210.9873 177.9208 L 210.9873 172.9208 L 210.9873 167.9208 L 209.0739 163.3014 L 207.1605 158.682 L 205.247 154.0626 L 203.3336 149.4432 L 199.7981 145.9077 M 210.9873 167.9208 L 212.9007 163.3014 L 214.8141 158.682 L 214.8141 153.682 M 210.9873 187.9208 L 210.9873 182.9208 L 210.9873 177.9208 L 210.9873 172.9208 L 210.9873 167.9208 L 209.0739 163.3014 L 207.1605 158.682 L 205.247 154.0626 L 203.3336 149.4432 L 201.4202 144.8238 L 199.5068 140.2044 L 199.5068 135.2044 L 199.5068 130.2044 L 197.5934 125.5851 M 199.5068 140.2044 L 197.5934 135.5851 L 195.6799 130.9657 L 192.1444 127.4301 M 199.5068 140.2044 L 197.5934 135.5851 L 195.6799 130.9657 L 192.1444 127.4301 L 188.6089 123.8946 L 185.0733 120.3591 L 181.5378 116.8236 L 176.9184 114.9102 M 195.6799 130.9657 L 195.6799 125.9657 L 195.6799 120.9657 L 193.7665 116.3463 M 210.9873 167.9208 L 212.9007 163.3014 L 214.8141 158.682 L 218.3497 155.1465 L 221.8852 151.6109 L 223.7986 146.9915 M 214.8141 158.682 L 216.7276 154.0626 L 218.641 149.4432 L 218.641 144.4432 M 214.8141 158.682 L 216.7276 154.0626 L 218.641 149.4432 L 218.641 144.4432 L 218.641 139.4432 L 218.641 134.4432 L 218.641 129.4432 L 216.7276 124.8238 M 218.641 149.4432 L 222.1765 145.9077 L 225.712 142.3721 L 227.6255 137.7527 M 210.9873 247.9208 L 214.5228 244.3853 L 218.0583 240.8497 L 221.5939 237.3142 L 225.1294 233.7787 L 229.7488 231.8652 L 234.3682 229.9518 L 239.3682 229.9518 L 244.3682 229.9518 L 248.9876 228.0384 M 234.3682 229.9518 L 238.9876 228.0384 L 243.607 226.125 L 247.1425 222.5894 M 234.3682 229.9518 L 238.9876 228.0384 L 243.607 226.125 L 247.1425 222.5894 L 250.6781 219.0539 L 254.2136 215.5184 L 257.7491 211.9828 L 259.6626 207.3634 M 243.607 226.125 L 248.607 226.125 L 253.607 226.125 L 258.2264 224.2115 M 225.1294 233.7787 L 228.6649 230.2431 L 232.2005 226.7076 L 236.8199 224.7942 L 241.4393 222.8807 L 244.9748 219.3452 M 232.2005 226.7076 L 235.736 223.172 L 239.2715 219.6365 L 241.185 215.0171 M 232.2005 226.7076 L 235.736 223.172 L 239.2715 219.6365 L 241.185 215.0171 L 243.0984 210.3977 L 245.0118 205.7783 L 246.9252 201.1589 L 246.9252 196.1589 M 239.2715 219.6365 L 243.8909 217.7231 L 248.5103 215.8097 L 252.0459 212.2741 M 225.1294 233.7787 L 228.6649 230.2431 L 232.2005 226.7076 L 235.736 223.172 L 239.2715 219.6365 L 241.185 215.0171 L 243.0984 210.3977 L 245.0118 205.7783 L 246.9252 201.1589 L 248.8386 196.5395 L 250.752 191.9201 L 254.2876 188.3846 L 257.8231 184.849 L 259.7365 180.2296 M 250.752 191.9201 L 252.6655 187.3007 L 254.5789 182.6813 L 254.5789 177.6813 M 250.752 191.9201 L 252.6655 187.3007 L 254.5789 182.6813 L 254.5789 177.6813 L 254.5789 172.6813 L 254.5789 167.6813 L 254.5789 162.6813 L 252.6655 158.0619 M 254.5789 182.6813 L 258.1144 179.1458 L 261.6499 175.6102 L 263.5634 170.9908 M 239.2715 219.6365 L 243.8909 217.7231 L 248.5103 215.8097 L 253.5103 215.8097 L 258.5103 215.8097 L 263.1297 213.8962 M 248.5103 215.8097 L 253.1297 213.8962 L 257.7491 211.9828 L 261.2847 208.4473 M 248.5103 215.8097 L 253.1297 213.8962 L 257.7491 211.9828 L 261.2847 208.4473 L 264.8202 204.9117 L 268.3557 201.3762 L 271.8912 197.8407 L 273.8047 193.2213 M 257.7491 211.9828 L 262.7491 211.9828 L 267.7491 211.9828 L 272.3685 210.0694 M 180.3726 321.8312 L 180.3726 316.8312 L 180.3726 311.8312 L 180.3726 306.8312 L 180.3726 301.8312 L 180.3726 296.8312 L 180.3726 291.8312 L 180.3726 286.8312 L 180.3726 281.8312 L 182.286 277.2118 L 184.1994 272.5924 L 186.1128 267.973 L 188.0263 263.3536 L 191.5618 259.8181 L 195.0973 256.2825 L 199.7167 254.3691 L 204.3361 252.4557 L 207.8716 248.9202 M 195.0973 256.2825 L 198.6328 252.747 L 202.1684 249.2115 L 204.0818 244.5921 M 195.0973 256.2825 L 198.6328 252.747 L 202.1684 249.2115 L 204.0818 244.5921 L 205.9952 239.9727 L 207.9086 235.3533 L 209.8221 230.7339 L 209.8221 225.7339 M 202.1684 249.2115 L 206.7878 247.298 L 211.4072 245.3846 L 214.9427 241.8491 M 188.0263 263.3536 L 189.9397 258.7342 L 191.8531 254.1148 L 195.3886 250.5793 L 198.9241 247.0437 L 200.8376 242.4243 M 191.8531 254.1148 L 193.7665 249.4954 L 195.6799 244.876 L 195.6799 239.876 M 191.8531 254.1148 L 193.7665 249.4954 L 195.6799 244.876 L 195.6799 239.876 L 195.6799 234.876 L 195.6799 229.876 L 195.6799 224.876 L 193.7665 220.2566 M 195.6799 244.876 L 199.2155 241.3405 L 202.751 237.8049 L 204.6644 233.1855 M 188.0263 263.3536 L 189.9397 258.7342 L 191.8531 254.1148 L 193.7665 249.4954 L 195.6799 244.876 L 195.6799 239.876 L 195.6799 234.876 L 195.6799 229.876 L 195.6799 224.876 L 195.6799 219.876 L 195.6799 214.876 L 197.5934 210.2566 L 199.5068 205.6372 L 199.5068 200.6372 M 195.6799 214.876 L 195.6799 209.876 L 195.6799 204.876 L 193.7665 200.2566 M 195.6799 214.876 L 195.6799 209.876 L 195.6799 204.876 L 193.7665 200.2566 L 191.8531 195.6372 L 189.9397 191.0178 L 188.0263 186.3984 L 184.4907 182.8629 M 195.6799 204.876 L 197.5934 200.2566 L 199.5068 195.6372 L 199.5068 190.6372 M 195.6799 244.876 L 199.2155 241.3405 L 202.751 237.8049 L 207.3704 235.8915 L 211.9898 233.9781 L 215.5253 230.4426 M 202.751 237.8049 L 206.2865 234.2694 L 209.8221 230.7339 L 211.7355 226.1145 M 202.751 237.8049 L 206.2865 234.2694 L 209.8221 230.7339 L 211.7355 226.1145 L 213.6489 221.4951 L 215.5623 216.8757 L 217.4757 212.2563 L 217.4757 207.2563 M 209.8221 230.7339 L 214.4415 228.8204 L 219.0609 226.907 L 222.5964 223.3715 M 180.3726 281.8312 L 180.3726 276.8312 L 180.3726 271.8312 L 180.3726 266.8312 L 180.3726 261.8312 L 182.286 257.2118 L 184.1994 252.5924 L 187.7349 249.0569 L 191.2705 245.5213 L 193.1839 240.9019 M 184.1994 252.5924 L 186.1128 247.973 L 188.0263 243.3536 L 188.0263 238.3536 M 184.1994 252.5924 L 186.1128 247.973 L 188.0263 243.3536 L 188.0263 238.3536 L 188.0263 233.3536 L 188.0263 228.3536 L 188.0263 223.3536 L 186.1128 218.7342 M 188.0263 243.3536 L 191.5618 239.8181 L 195.0973 236.2825 L 197.0107 231.6631 M 180.3726 261.8312 L 180.3726 256.8312 L 180.3726 251.8312 L 182.286 247.2118 L 184.1994 242.5924 L 184.1994 237.5924 M 180.3726 251.8312 L 180.3726 246.8312 L 180.3726 241.8312 L 178.4592 237.2118 M 180.3726 251.8312 L 180.3726 246.8312 L 180.3726 241.8312 L 178.4592 237.2118 L 176.5457 232.5924 L 174.6323 227.973 L 172.7189 223.3536 L 169.1834 219.8181 M 180.3726 241.8312 L 182.286 237.2118 L 184.1994 232.5924 L 184.1994 227.5924 M 180.3726 261.8312 L 180.3726 256.8312 L 180.3726 251.8312 L 180.3726 246.8312 L 180.3726 241.8312 L 178.4592 237.2118 L 176.5457 232.5924 L 174.6323 227.973 L 172.7189 223.3536 L 170.8055 218.7342 L 168.8921 214.1148 L 168.8921 209.1148 L 168.8921 204.1148 L 166.9786 199.4954 M 168.8921 214.1148 L 166.9786 209.4954 L 165.0652 204.876 L 161.5297 201.3405 M 168.8921 214.1148 L 166.9786 209.4954 L 165.0652 204.876 L 161.5297 201.3405 L 157.9942 197.8049 L 154.4586 194.2694 L 150.9231 190.7339 L 146.3037 188.8204 M 165.0652 204.876 L 165.0652 199.876 L 165.0652 194.876 L 163.1518 190.2566 M 180.3726 241.8312 L 182.286 237.2118 L 184.1994 232.5924 L 187.7349 229.0569 L 191.2705 225.5213 L 193.1839 220.9019 M 184.1994 232.5924 L 186.1128 227.973 L 188.0263 223.3536 L 188.0263 218.3536 M 184.1994 232.5924 L 186.1128 227.973 L 188.0263 223.3536 L 188.0263 218.3536 L 188.0263 213.3536 L 188.0263 208.3536 L 188.0263 203.3536 L 186.1128 198.7342 M 188.0263 223.3536 L 191.5618 219.8181 L 195.0973 216.2825 L 197.0107 211.6631 M 180.3726 281.8312 L 180.3726 276.8312 L 180.3726 271.8312 L 180.3726 266.8312 L 180.3726 261.8312 L 180.3726 256.8312 L 180.3726 251.8312 L 180.3726 246.8312 L 180.3726 241.8312 L 178.4592 237.2118 L 176.5457 232.5924 L 174.6323 227.973 L 172.7189 223.3536 L 170.8055 218.7342 L 168.8921 214.1148 L 166.9786 209.4954 L 165.0652 204.876 L 163.1518 200.2566 L 161.2384 195.6372 L 159.325 191.0178 L 157.4115 186.3984 L 157.4115 181.3984 L 157.4115 176.3984 L 159.325 171.779 L 161.2384 167.1596 L 161.2384 162.1596 M 157.4115 176.3984 L 157.4115 171.3984 L 157.4115 166.3984 L 155.4981 161.779 M 157.4115 176.3984 L 157.4115 171.3984 L 157.4115 166.3984 L 155.4981 161.779 L 153.5847 157.1596 L 151.6713 152.5402 L 149.7579 147.9208 L 146.2223 144.3853 M 157.4115 166.3984 L 159.325 161.779 L 161.2384 157.1596 L 161.2384 152.1596 M 157.4115 186.3984 L 155.4981 181.779 L 153.5847 177.1596 L 153.5847 172.1596 L 153.5847 167.1596 L 151.6713 162.5402 M 153.5847 177.1596 L 151.6713 172.5402 L 149.7579 167.9208 L 146.2223 164.3853 M 153.5847 177.1596 L 151.6713 172.5402 L 149.7579 167.9208 L 146.2223 164.3853 L 142.6868 160.8497 L 139.1513 157.3142 L 135.6157 153.7787 L 130.9963 151.8652 M 149.7579 167.9208 L 149.7579 162.9208 L 149.7579 157.9208 L 147.8444 153.3014 M 157.4115 186.3984 L 155.4981 181.779 L 153.5847 177.1596 L 151.6713 172.5402 L 149.7579 167.9208 L 146.2223 164.3853 L 142.6868 160.8497 L 139.1513 157.3142 L 135.6157 153.7787 L 132.0802 150.2431 L 128.5447 146.7076 L 126.6313 142.0882 L 124.7178 137.4688 L 121.1823 133.9333 M 128.5447 146.7076 L 125.0091 143.1721 L 121.4736 139.6365 L 116.8542 137.7231 M 128.5447 146.7076 L 125.0091 143.1721 L 121.4736 139.6365 L 116.8542 137.7231 L 112.2348 135.8097 L 107.6154 133.8963 L 102.996 131.9828 L 97.99602 131.9828 M 121.4736 139.6365 L 119.5602 135.0172 L 117.6468 130.3978 L 114.1112 126.8622 M 149.7579 167.9208 L 149.7579 162.9208 L 149.7579 157.9208 L 151.6713 153.3014 L 153.5847 148.682 L 153.5847 143.682 M 149.7579 157.9208 L 149.7579 152.9208 L 149.7579 147.9208 L 147.8444 143.3014 M 149.7579 157.9208 L 149.7579 152.9208 L 149.7579 147.9208 L 147.8444 143.3014 L 145.931 138.682 L 144.0176 134.0627 L 142.1042 129.4433 L 138.5686 125.9077 M 149.7579 147.9208 L 151.6713 143.3014 L 153.5847 138.682 L 153.5847 133.682 M 180.3726 241.8312 L 182.286 237.2118 L 184.1994 232.5924 L 186.1128 227.973 L 188.0263 223.3536 L 191.5618 219.8181 L 195.0973 216.2825 L 199.7167 214.3691 L 204.3361 212.4557 L 207.8716 208.9202 M 195.0973 216.2825 L 198.6328 212.747 L 202.1684 209.2115 L 204.0818 204.5921 M 195.0973 216.2825 L 198.6328 212.747 L 202.1684 209.2115 L 204.0818 204.5921 L 205.9952 199.9727 L 207.9086 195.3533 L 209.8221 190.7339 L 209.8221 185.7339 M 202.1684 209.2115 L 206.7878 207.298 L 211.4072 205.3846 L 214.9427 201.8491 M 188.0263 223.3536 L 189.9397 218.7342 L 191.8531 214.1148 L 195.3886 210.5793 L 198.9241 207.0437 L 200.8376 202.4243 M 191.8531 214.1148 L 193.7665 209.4954 L 195.6799 204.876 L 195.6799 199.876 M 191.8531 214.1148 L 193.7665 209.4954 L 195.6799 204.876 L 195.6799 199.876 L 195.6799 194.876 L 195.6799 189.876 L 195.6799 184.876 L 193.7665 180.2566 M 195.6799 204.876 L 199.2155 201.3405 L 202.751 197.8049 L 204.6644 193.1855 M 188.0263 223.3536 L 189.9397 218.7342 L 191.8531 214.1148 L 193.7665 209.4954 L 195.6799 204.876 L 195.6799 199.876 L 195.6799 194.876 L 195.6799 189.876 L 195.6799 184.876 L 195.6799 179.876 L 195.6799 174.876 L 197.5934 170.2566 L 199.5068 165.6372 L 199.5068 160.6372 M 195.6799 174.876 L 195.6799 169.876 L 195.6799 164.876 L 193.7665 160.2566 M 195.6799 174.876 L 195.6799 169.876 L 195.6799 164.876 L 193.7665 160.2566 L 191.8531 155.6372 L 189.9397 151.0178 L 188.0263 146.3984 L 184.4907 142.8629 M 195.6799 164.876 L 197.5934 160.2566 L 199.5068 155.6372 L 199.5068 150.6372 M 195.6799 204.876 L 199.2155 201.3405 L 202.751 197.8049 L 207.3704 195.8915 L 211.9898 193.9781 L 215.5253 190.4426 M 202.751 197.8049 L 206.2865 194.2694 L 209.8221 190.7339 L 211.7355 186.1145 M 202.751 197.8049 L 206.2865 194.2694 L 209.8221 190.7339 L 211.7355 186.1145 L 213.6489 181.4951 L 215.5623 176.8757 L 217.4757 172.2563 L 217.4757 167.2563 M 209.8221 190.7339 L 214.4415 188.8204 L 219.0609 186.907 L 222.5964 183.3715 M 180.3726 321.8312 L 180.3726 316.8312 L 180.3726 311.8312 L 180.3726 306.8312 L 180.3726 301.8312 L 180.3726 296.8312 L 180.3726 291.8312 L 180.3726 286.8312 L 180.3726 281.8312 L 180.3726 276.8312 L 180.3726 271.8312 L 180.3726 266.8312 L 180.3726 261.8312 L 180.3726 256.8312 L 180.3726 251.8312 L 180.3726 246.8312 L 180.3726 241.8312 L 178.4592 237.2118 L 176.5457 232.5924 L 174.6323 227.973 L 172.7189 223.3536 L 170.8055 218.7342 L 168.8921 214.1148 L 166.9786 209.4954 L 165.0652 204.876 L 163.1518 200.2566 L 161.2384 195.6372 L 159.325 191.0178 L 157.4115 186.3984 L 155.4981 181.779 L 153.5847 177.1596 L 151.6713 172.5402 L 149.7579 167.9208 L 147.8444 163.3014 L 145.931 158.682 L 144.0176 154.0626 L 142.1042 149.4432 L 140.1908 144.8238 L 138.2773 140.2044 L 136.3639 135.5851 L 134.4505 130.9657 L 134.4505 125.9657 L 134.4505 120.9657 L 134.4505 115.9657 L 134.4505 110.9657 L 136.3639 106.3463 L 138.2773 101.7269 L 141.8129 98.19138 L 145.3484 94.65585 L 147.2618 90.03647 M 138.2773 101.7269 L 140.1908 97.10751 L 142.1042 92.48813 L 142.1042 87.48813 M 138.2773 101.7269 L 140.1908 97.10751 L 142.1042 92.48813 L 142.1042 87.48813 L 142.1042 82.48813 L 142.1042 77.48813 L 142.1042 72.48813 L 140.1908 67.86874 M 142.1042 92.48813 L 145.6397 88.95261 L 149.1752 85.41708 L 151.0887 80.7977 M 134.4505 110.9657 L 134.4505 105.9657 L 134.4505 100.9657 L 136.3639 96.34628 L 138.2773 91.7269 L 138.2773 86.7269 M 134.4505 100.9657 L 134.4505 95.96567 L 134.4505 90.96567 L 132.5371 86.34628 M 134.4505 100.9657 L 134.4505 95.96567 L 134.4505 90.96567 L 132.5371 86.34628 L 130.6237 81.7269 L 128.7102 77.10751 L 126.7968 72.48813 L 123.2613 68.95261 M 134.4505 90.96567 L 136.3639 86.34628 L 138.2773 81.7269 L 138.2773 76.7269 M 134.4505 110.9657 L 134.4505 105.9657 L 134.4505 100.9657 L 134.4505 95.96567 L 134.4505 90.96567 L 132.5371 86.34628 L 130.6237 81.7269 L 128.7102 77.10751 L 126.7968 72.48813 L 124.8834 67.86874 L 122.97 63.24936 L 122.97 58.24936 L 122.97 53.24936 L 121.0565 48.62997 M 122.97 63.24936 L 121.0565 58.62997 L 119.1431 54.01059 L 115.6076 50.47507 M 122.97 63.24936 L 121.0565 58.62997 L 119.1431 54.01059 L 115.6076 50.47507 L 112.0721 46.93954 L 108.5365 43.40402 L 105.001 39.8685 L 100.3816 37.95508 M 119.1431 54.01059 L 119.1431 49.01059 L 119.1431 44.01059 L 117.2297 39.3912 M 134.4505 90.96567 L 136.3639 86.34628 L 138.2773 81.7269 L 141.8129 78.19138 L 145.3484 74.65585 L 147.2618 70.03647 M 138.2773 81.7269 L 140.1908 77.10751 L 142.1042 72.48813 L 142.1042 67.48813 M 138.2773 81.7269 L 140.1908 77.10751 L 142.1042 72.48813 L 142.1042 67.48813 L 142.1042 62.48813 L 142.1042 57.48813 L 142.1042 52.48813 L 140.1908 47.86874 M 142.1042 72.48813 L 145.6397 68.95261 L 149.1752 65.41708 L 151.0887 60.7977 M 134.4505 130.9657 L 132.5371 126.3463 L 130.6237 121.7269 L 128.7102 117.1075 L 126.7968 112.4881 L 126.7968 107.4881 L 126.7968 102.4881 L 128.7102 97.86874 L 130.6237 93.24936 L 130.6237 88.24936 M 126.7968 102.4881 L 126.7968 97.48813 L 126.7968 92.48813 L 124.8834 87.86874 M 126.7968 102.4881 L 126.7968 97.48813 L 126.7968 92.48813 L 124.8834 87.86874 L 122.97 83.24936 L 121.0565 78.62997 L 119.1431 74.01059 L 115.6076 70.47507 M 126.7968 92.48813 L 128.7102 87.86874 L 130.6237 83.24936 L 130.6237 78.24936 M 126.7968 112.4881 L 124.8834 107.8687 L 122.97 103.2494 L 122.97 98.24936 L 122.97 93.24936 L 121.0565 88.62997 M 122.97 103.2494 L 121.0565 98.62997 L 119.1431 94.01059 L 115.6076 90.47507 M 122.97 103.2494 L 121.0565 98.62997 L 119.1431 94.01059 L 115.6076 90.47507 L 112.0721 86.93954 L 108.5365 83.40402 L 105.001 79.8685 L 100.3816 77.95508 M 119.1431 94.01059 L 119.1431 89.01059 L 119.1431 84.01059 L 117.2297 79.3912 M 126.7968 112.4881 L 124.8834 107.8687 L 122.97 103.2494 L 121.0565 98.62997 L 119.1431 94.01059 L 115.6076 90.47507 L 112.0721 86.93954 L 108.5365 83.40402 L 105.001 79.8685 L 101.4655 76.33298 L 97.92995 72.79745 L 96.01653 68.17807 L 94.10313 63.55869 L 90.5676 60.02316 M 97.92995 72.79745 L 94.39442 69.26193 L 90.85889 65.72641 L 86.23949 63.81299 M 97.92995 72.79745 L 94.39442 69.26193 L 90.85889 65.72641 L 86.23949 63.81299 L 81.62009 61.89957 L 77.00069 59.98615 L 72.38129 58.07272 L 67.38129 58.07272 M 90.85889 65.72641 L 88.94547 61.10703 L 87.03205 56.48764 L 83.49652 52.95212 M 119.1431 94.01059 L 119.1431 89.01059 L 119.1431 84.01059 L 121.0565 79.3912 L 122.97 74.77182 L 122.97 69.77182 M 119.1431 84.01059 L 119.1431 79.01059 L 119.1431 74.01059 L 117.2297 69.3912 M 119.1431 84.01059 L 119.1431 79.01059 L 119.1431 74.01059 L 117.2297 69.3912 L 115.3163 64.77182 L 113.4029 60.15244 L 111.4895 55.53305 L 107.954 51.99753 M 119.1431 74.01059 L 121.0565 69.3912 L 122.97 64.77182 L 122.97 59.77182 M 134.4505 130.9657 L 132.5371 126.3463 L 130.6237 121.7269 L 128.7102 117.1075 L 126.7968 112.4881 L 124.8834 107.8687 L 122.97 103.2494 L 121.0565 98.62997 L 119.1431 94.01059 L 115.6076 90.47507 L 112.0721 86.93954 L 108.5365 83.40402 L 105.001 79.8685 L 101.4655 76.33298 L 97.92995 72.79745 L 94.39442 69.26193 L 90.85889 65.72641 L 87.32336 62.19089 L 83.78783 58.65536 L 80.25228 55.11984 L 76.71675 51.58432 L 74.80334 46.96494 L 72.88992 42.34555 L 72.88992 37.34555 L 72.88992 32.34555 L 70.97652 27.72617 M 72.88992 42.34555 L 70.97652 37.72617 L 69.0631 33.10678 L 65.52757 29.57126 M 72.88992 42.34555 L 70.97652 37.72617 L 69.0631 33.10678 L 65.52757 29.57126 L 61.99203 26.03574 L 58.4565 22.50021 L 54.92097 18.96469 L 50.30157 17.05127 M 69.0631 33.10678 L 69.0631 28.10678 L 69.0631 23.10678 L 67.14968 18.4874 M 76.71675 51.58432 L 73.18121 48.0488 L 69.64568 44.51328 L 67.73226 39.89389 L 65.81885 35.27451 L 62.28332 31.73898 M 69.64568 44.51328 L 66.11013 40.97775 L 62.5746 37.44223 L 57.9552 35.52881 M 69.64568 44.51328 L 66.11013 40.97775 L 62.5746 37.44223 L 57.9552 35.52881 L 53.3358 33.61539 L 48.7164 31.70197 L 44.097 29.78854 L 39.097 29.78854 M 62.5746 37.44223 L 60.66119 32.82285 L 58.74777 28.20346 L 55.21223 24.66794 M 76.71675 51.58432 L 73.18121 48.0488 L 69.64568 44.51328 L 66.11013 40.97775 L 62.5746 37.44223 L 57.9552 35.52881 L 53.3358 33.61539 L 48.7164 31.70197 L 44.097 29.78854 L 39.4776 27.87512 L 34.8582 25.9617 L 31.32266 22.42618 L 27.78712 18.89066 L 23.16772 16.97723 M 34.8582 25.9617 L 30.2388 24.04828 L 25.6194 22.13486 L 20.6194 22.13486 M 34.8582 25.9617 L 30.2388 24.04828 L 25.6194 22.13486 L 20.6194 22.13486 L 15.6194 22.13486 L 10.6194 22.13486 L 5.6194 22.13486 L 1 24.04828 M 25.6194 22.13486 L 22.08386 18.59933 L 18.54832 15.06381 L 13.92892 13.15039 M 62.5746 37.44223 L 60.66119 32.82285 L 58.74777 28.20346 L 58.74777 23.20346 L 58.74777 18.20346 L 56.83435 13.58408 M 58.74777 28.20346 L 56.83435 23.58408 L 54.92094 18.96469 L 51.38541 15.42917 M 58.74777 28.20346 L 56.83435 23.58408 L 54.92094 18.96469 L 51.38541 15.42917 L 47.84987 11.89365 L 44.31433 8.358124 L 40.77879 4.822601 L 36.15939 2.90918 M 54.92094 18.96469 L 54.92094 13.96469 L 54.92094 8.964691 L 53.00752 4.345306 M 119.1431 94.01059 L 119.1431 89.01059 L 119.1431 84.01059 L 119.1431 79.01059 L 119.1431 74.01059 L 121.0565 69.3912 L 122.97 64.77182 L 126.5055 61.2363 L 130.041 57.70078 L 131.9545 53.08139 M 122.97 64.77182 L 124.8834 60.15244 L 126.7968 55.53305 L 126.7968 50.53305 M 122.97 64.77182 L 124.8834 60.15244 L 126.7968 55.53305 L 126.7968 50.53305 L 126.7968 45.53305 L 126.7968 40.53305 L 126.7968 35.53305 L 124.8834 30.91367 M 126.7968 55.53305 L 130.3323 51.99753 L 133.8679 48.46201 L 135.7813 43.84262 M 119.1431 74.01059 L 119.1431 69.01059 L 119.1431 64.01059 L 121.0565 59.3912 L 122.97 54.77182 L 122.97 49.77182 M 119.1431 64.01059 L 119.1431 59.01059 L 119.1431 54.01059 L 117.2297 49.3912 M 119.1431 64.01059 L 119.1431 59.01059 L 119.1431 54.01059 L 117.2297 49.3912 L 115.3163 44.77182 L 113.4029 40.15244 L 111.4895 35.53305 L 107.954 31.99753 M 119.1431 54.01059 L 121.0565 49.3912 L 122.97 44.77182 L 122.97 39.77182 M 119.1431 74.01059 L 119.1431 69.01059 L 119.1431 64.01059 L 119.1431 59.01059 L 119.1431 54.01059 L 117.2297 49.3912 L 115.3163 44.77182 L 113.4029 40.15244 L 111.4895 35.53305 L 109.5761 30.91367 L 107.6627 26.29428 L 107.6627 21.29428 L 107.6627 16.29428 L 105.7492 11.6749 M 107.6627 26.29428 L 105.7492 21.6749 L 103.8358 17.05551 L 100.3003 13.51999 M 107.6627 26.29428 L 105.7492 21.6749 L 103.8358 17.05551 L 100.3003 13.51999 L 96.76476 9.984467 L 93.22922 6.448944 L 89.69369 2.913422 L 85.07429 1 M 103.8358 17.05551 L 103.8358 12.05551 L 103.8358 7.055511 L 101.9224 2.436127 M 119.1431 54.01059 L 121.0565 49.3912 L 122.97 44.77182 L 126.5055 41.2363 L 130.041 37.70078 L 131.9545 33.08139 M 122.97 44.77182 L 124.8834 40.15244 L 126.7968 35.53305 L 126.7968 30.53305 M 122.97 44.77182 L 124.8834 40.15244 L 126.7968 35.53305 L 126.7968 30.53305 L 126.7968 25.53305 L 126.7968 20.53305 L 126.7968 15.53305 L 124.8834 10.91367 M 126.7968 35.53305 L 130.3323 31.99753 L 133.8679 28.46201 L 135.7813 23.84262 M 180.3726 241.8312 L 182.286 237.2118 L 184.1994 232.5924 L 186.1128 227.973 L 188.0263 223.3536 L 189.9397 218.7342 L 191.8531 214.1148 L 193.7665 209.4954 L 195.6799 204.876 L 199.2155 201.3405 L 202.751 197.8049 L 206.2865 194.2694 L 209.8221 190.7339 L 214.4415 188.8204 L 219.0609 186.907 L 224.0609 186.907 L 229.0609 186.907 L 233.6802 184.9936 M 219.0609 186.907 L 223.6802 184.9936 L 228.2997 183.0802 L 231.8352 179.5446 M 219.0609 186.907 L 223.6802 184.9936 L 228.2997 183.0802 L 231.8352 179.5446 L 235.3707 176.0091 L 238.9062 172.4736 L 242.4418 168.938 L 244.3552 164.3186 M 228.2997 183.0802 L 233.2997 183.0802 L 238.2997 183.0802 L 242.919 181.1667 M 209.8221 190.7339 L 213.3576 187.1983 L 216.8931 183.6628 L 221.5125 181.7494 L 226.1319 179.8359 L 229.6674 176.3004 M 216.8931 183.6628 L 220.4286 180.1272 L 223.9642 176.5917 L 225.8776 171.9723 M 216.8931 183.6628 L 220.4286 180.1272 L 223.9642 176.5917 L 225.8776 171.9723 L 227.791 167.3529 L 229.7044 162.7335 L 231.6179 158.1141 L 231.6179 153.1141 M 223.9642 176.5917 L 228.5836 174.6783 L 233.203 172.7649 L 236.7385 169.2293 M 209.8221 190.7339 L 213.3576 187.1983 L 216.8931 183.6628 L 220.4286 180.1272 L 223.9642 176.5917 L 225.8776 171.9723 L 227.791 167.3529 L 229.7044 162.7335 L 231.6179 158.1141 L 233.5313 153.4947 L 235.4447 148.8753 L 238.9802 145.3398 L 242.5158 141.8043 L 244.4292 137.1849 M 235.4447 148.8753 L 237.3581 144.2559 L 239.2715 139.6365 L 239.2715 134.6365 M 235.4447 148.8753 L 237.3581 144.2559 L 239.2715 139.6365 L 239.2715 134.6365 L 239.2715 129.6365 L 239.2715 124.6365 L 239.2715 119.6365 L 237.3581 115.0172 M 239.2715 139.6365 L 242.8071 136.101 L 246.3426 132.5655 L 248.256 127.9461 M 223.9642 176.5917 L 228.5836 174.6783 L 233.203 172.7649 L 238.203 172.7649 L 243.203 172.7649 L 247.8224 170.8514 M 233.203 172.7649 L 237.8224 170.8514 L 242.4418 168.938 L 245.9773 165.4025 M 233.203 172.7649 L 237.8224 170.8514 L 242.4418 168.938 L 245.9773 165.4025 L 249.5128 161.8669 L 253.0484 158.3314 L 256.5839 154.7959 L 258.4973 150.1765 M 242.4418 168.938 L 247.4418 168.938 L 252.4418 168.938 L 257.0612 167.0246 M 195.6799 204.876 L 197.5934 200.2566 L 199.5068 195.6372 L 201.4202 191.0178 L 203.3336 186.3984 L 206.8691 182.8629 L 210.4047 179.3273 L 215.0241 177.4139 L 219.6435 175.5005 L 223.179 171.965 M 210.4047 179.3273 L 213.9402 175.7918 L 217.4757 172.2563 L 219.3892 167.6369 M 210.4047 179.3273 L 213.9402 175.7918 L 217.4757 172.2563 L 219.3892 167.6369 L 221.3026 163.0175 L 223.216 158.3981 L 225.1294 153.7787 L 225.1294 148.7787 M 217.4757 172.2563 L 222.0951 170.3428 L 226.7145 168.4294 L 230.2501 164.8939 M 203.3336 186.3984 L 205.247 181.779 L 207.1605 177.1596 L 210.696 173.6241 L 214.2315 170.0885 L 216.1449 165.4691 M 207.1605 177.1596 L 209.0739 172.5402 L 210.9873 167.9208 L 210.9873 162.9208 M 207.1605 177.1596 L 209.0739 172.5402 L 210.9873 167.9208 L 210.9873 162.9208 L 210.9873 157.9208 L 210.9873 152.9208 L 210.9873 147.9208 L 209.0739 143.3014 M 210.9873 167.9208 L 214.5228 164.3853 L 218.0583 160.8497 L 219.9718 156.2303 M 203.3336 186.3984 L 205.247 181.779 L 207.1605 177.1596 L 209.0739 172.5402 L 210.9873 167.9208 L 210.9873 162.9208 L 210.9873 157.9208 L 210.9873 152.9208 L 210.9873 147.9208 L 210.9873 142.9208 L 210.9873 137.9208 L 212.9007 133.3014 L 214.8141 128.682 L 214.8141 123.682 M 210.9873 137.9208 L 210.9873 132.9208 L 210.9873 127.9208 L 209.0739 123.3014 M 210.9873 137.9208 L 210.9873 132.9208 L 210.9873 127.9208 L 209.0739 123.3014 L 207.1605 118.682 L 205.247 114.0627 L 203.3336 109.4433 L 199.7981 105.9077 M 210.9873 127.9208 L 212.9007 123.3014 L 214.8141 118.682 L 214.8141 113.682 M 210.9873 167.9208 L 214.5228 164.3853 L 218.0583 160.8497 L 222.6777 158.9363 L 227.2971 157.0229 L 230.8327 153.4874 M 218.0583 160.8497 L 221.5939 157.3142 L 225.1294 153.7787 L 227.0428 149.1593 M 218.0583 160.8497 L 221.5939 157.3142 L 225.1294 153.7787 L 227.0428 149.1593 L 228.9563 144.5399 L 230.8697 139.9205 L 232.7831 135.3011 L 232.7831 130.3011 M 225.1294 153.7787 L 229.7488 151.8652 L 234.3682 149.9518 L 237.9037 146.4163 M 195.6799 204.876 L 197.5934 200.2566 L 199.5068 195.6372 L 201.4202 191.0178 L 203.3336 186.3984 L 205.247 181.779 L 207.1605 177.1596 L 209.0739 172.5402 L 210.9873 167.9208 L 210.9873 162.9208 L 210.9873 157.9208 L 210.9873 152.9208 L 210.9873 147.9208 L 210.9873 142.9208 L 210.9873 137.9208 L 210.9873 132.9208 L 210.9873 127.9208 L 210.9873 122.9208 L 210.9873 117.9208 L 210.9873 112.9208 L 210.9873 107.9208 L 212.9007 103.3014 L 214.8141 98.68204 L 218.3497 95.14651 L 221.8852 91.61099 L 223.7986 86.99161 M 214.8141 98.68204 L 216.7276 94.06265 L 218.641 89.44327 L 218.641 84.44327 M 214.8141 98.68204 L 216.7276 94.06265 L 218.641 89.44327 L 218.641 84.44327 L 218.641 79.44327 L 218.641 74.44327 L 218.641 69.44327 L 216.7276 64.82388 M 218.641 89.44327 L 222.1765 85.90775 L 225.712 82.37222 L 227.6255 77.75284 M 210.9873 107.9208 L 210.9873 102.9208 L 210.9873 97.92081 L 212.9007 93.30142 L 214.8141 88.68204 L 214.8141 83.68204 M 210.9873 97.92081 L 210.9873 92.92081 L 210.9873 87.92081 L 209.0739 83.30142 M 210.9873 97.92081 L 210.9873 92.92081 L 210.9873 87.92081 L 209.0739 83.30142 L 207.1605 78.68204 L 205.247 74.06265 L 203.3336 69.44327 L 199.7981 65.90775 M 210.9873 87.92081 L 212.9007 83.30142 L 214.8141 78.68204 L 214.8141 73.68204 M 210.9873 107.9208 L 210.9873 102.9208 L 210.9873 97.92081 L 210.9873 92.92081 L 210.9873 87.92081 L 209.0739 83.30142 L 207.1605 78.68204 L 205.247 74.06265 L 203.3336 69.44327 L 201.4202 64.82388 L 199.5068 60.2045 L 199.5068 55.2045 L 199.5068 50.2045 L 197.5934 45.58511 M 199.5068 60.2045 L 197.5934 55.58511 L 195.6799 50.96573 L 192.1444 47.43021 M 199.5068 60.2045 L 197.5934 55.58511 L 195.6799 50.96573 L 192.1444 47.43021 L 188.6089 43.89468 L 185.0733 40.35916 L 181.5378 36.82364 L 176.9184 34.91022 M 195.6799 50.96573 L 195.6799 45.96573 L 195.6799 40.96573 L 193.7665 36.34634 M 210.9873 87.92081 L 212.9007 83.30142 L 214.8141 78.68204 L 218.3497 75.14651 L 221.8852 71.61099 L 223.7986 66.99161 M 214.8141 78.68204 L 216.7276 74.06265 L 218.641 69.44327 L 218.641 64.44327 M 214.8141 78.68204 L 216.7276 74.06265 L 218.641 69.44327 L 218.641 64.44327 L 218.641 59.44327 L 218.641 54.44327 L 218.641 49.44327 L 216.7276 44.82388 M 218.641 69.44327 L 222.1765 65.90775 L 225.712 62.37222 L 227.6255 57.75284 M 210.9873 167.9208 L 214.5228 164.3853 L 218.0583 160.8497 L 221.5939 157.3142 L 225.1294 153.7787 L 229.7488 151.8652 L 234.3682 149.9518 L 239.3682 149.9518 L 244.3682 149.9518 L 248.9876 148.0384 M 234.3682 149.9518 L 238.9876 148.0384 L 243.607 146.125 L 247.1425 142.5894 M 234.3682 149.9518 L 238.9876 148.0384 L 243.607 146.125 L 247.1425 142.5894 L 250.6781 139.0539 L 254.2136 135.5184 L 257.7491 131.9829 L 259.6626 127.3635 M 243.607 146.125 L 248.607 146.125 L 253.607 146.125 L 258.2264 144.2115 M 225.1294 153.7787 L 228.6649 150.2431 L 232.2005 146.7076 L 236.8199 144.7942 L 241.4393 142.8807 L 244.9748 139.3452 M 232.2005 146.7076 L 235.736 143.1721 L 239.2715 139.6365 L 241.185 135.0172 M 232.2005 146.7076 L 235.736 143.1721 L 239.2715 139.6365 L 241.185 135.0172 L 243.0984 130.3978 L 245.0118 125.7784 L 246.9252 121.159 L 246.9252 116.159 M 239.2715 139.6365 L 243.8909 137.7231 L 248.5103 135.8097 L 252.0459 132.2742 M 225.1294 153.7787 L 228.6649 150.2431 L 232.2005 146.7076 L 235.736 143.1721 L 239.2715 139.6365 L 241.185 135.0172 L 243.0984 130.3978 L 245.0118 125.7784 L 246.9252 121.159 L 248.8386 116.5396 L 250.752 111.9202 L 254.2876 108.3847 L 257.8231 104.8492 L 259.7365 100.2298 M 250.752 111.9202 L 252.6655 107.3008 L 254.5789 102.6815 L 254.5789 97.68146 M 250.752 111.9202 L 252.6655 107.3008 L 254.5789 102.6815 L 254.5789 97.68146 L 254.5789 92.68146 L 254.5789 87.68146 L 254.5789 82.68146 L 252.6655 78.06207 M 254.5789 102.6815 L 258.1144 99.14594 L 261.6499 95.61041 L 263.5634 90.99103 M 239.2715 139.6365 L 243.8909 137.7231 L 248.5103 135.8097 L 253.5103 135.8097 L 258.5103 135.8097 L 263.1297 133.8963 M 248.5103 135.8097 L 253.1297 133.8963 L 257.7491 131.9828 L 261.2847 128.4473 M 248.5103 135.8097 L 253.1297 133.8963 L 257.7491 131.9828 L 261.2847 128.4473 L 264.8202 124.9118 L 268.3557 121.3763 L 271.8912 117.8408 L 273.8047 113.2214 M 257.7491 131.9828 L 262.7491 131.9828 L 267.7491 131.9828 L 272.3685 130.0694 " />
  </g>
</svg>
