<?xml version="1.0" encoding="UTF-8" standalone="no"?>
<!DOCTYPE svg PUBLIC "-//W3C//DTD SVG 1.1//EN"
    "http://www.w3.org/Graphics/SVG/1.1/DTD/svg11.dtd">
<svg xmlns="http://www.w3.org/2000/svg" width="283" height="500">
  <desc>plant_d LSystem</desc>
  <g stroke="black" fill="none" stroke-width="1">
    <path d="M 141.2044 498.8691 L 141.2044 496.8691 L 141.2044 494.8691 L 141.2044 492.8691 L 141.2044 490.8691 L 141.2044 488.8691 L 141.2044 486.8691 L 141.2044 484.8691 L 141.2044 482.8691 L 141.2044 480.8691 L 141.2044 478.8691 L 141.2044 476.8691 L 141.2044 474.8691 L 141.2044 472.8691 L 141.2044 470.8691 L 141.2044 468.8691 L 141.2044 466.8691 L 141.2044 464.8691 L 141.2044 462.8691 L 141.2044 460.8691 L 141.2044 458.8691 L 141.2044 456.8691 L 141.2044 454.8691 L 141.2044 452.8691 L 141.2044 450.8691 L 141.2044 448.8691 L 141.2044 446.8691 L 141.2044 444.8691 L 141.2044 442.8691 L 141.2044 440.8691 L 141.2044 438.8691 L 141.2044 436.8691 L 141.2044 434.8691 L 141.2044 432.8691 L 141.2044 430.8691 L 141.2044 428.8691 L 141.2044 426.8691 L 141.2044 424.8691 L 141.2044 422.8691 L 141.2044 420.8691 L 141.2044 418.8691 L 141.2044 416.8691 L 141.2044 414.8691 L 141.2044 412.8691 L 141.2044 410.8691 L 141.2044 408.8691 L 141.2044 406.8691 L 141.2044 404.8691 L 141.2044 402.8691 L 141.2044 400.8691 L 141.2044 398.8691 L 141.2044 396.8691 L 141.2044 394.8691 L 141.2044 392.8691 L 141.2044 390.8691 L 141.2044 388.8691 L 141.2044 386.8691 L 141.2044 384.8691 L 141.2044 382.8691 L 141.2044 380.8691 L 141.2044 378.8691 L 141.2044 376.8691 L 141.2044 374.8691 L 141.2044 372.8691 L 141.2044 370.8691 L 140.5204 368.9897 L 139.8363 367.1104 L 139.1523 365.231 L 138.4682 363.3516 L 137.7842 361.4722 L 137.1002 359.5929 L 136.4161 357.7135 L 135.7321 355.8341 L 135.048 353.9547 L 134.364 352.0753 L 133.6799 350.196 L 132.9959 348.3166 L 132.3119 346.4372 L 131.6278 344.5578 L 130.9438 342.6785 L 130.2598 340.7991 L 129.5757 338.9197 L 128.8917 337.0403 L 128.2076 335.1609 L 127.5236 333.2816 L 126.8396 331.4022 L 126.1555 329.5228 L 125.4715 327.6434 L 124.7874 325.764 L 124.1034 323.8846 L 123.4193 322.0053 L 122.7353 320.1259 L 122.0513 318.2465 L 121.3672 316.3671 L 120.6832 314.4878 L 119.9992 312.6084 L 119.3151 310.729 L 118.0295 309.1969 L 116.7439 307.6648 L 115.4584 306.1328 L 114.1728 304.6006 L 112.8872 303.0685 L 111.6016 301.5365 L 110.3161 300.0044 L 109.0305 298.4723 L 107.7449 296.9402 L 106.4593 295.4081 L 105.1737 293.876 L 103.8882 292.3439 L 102.6026 290.8118 L 101.317 289.2798 L 100.0314 287.7477 L 98.74584 286.2156 L 97.01379 285.2156 L 95.28174 284.2156 L 93.54969 283.2156 L 91.81764 282.2156 L 90.08559 281.2156 L 88.35355 280.2156 L 86.62149 279.2156 L 84.88944 278.2156 L 82.91983 277.8683 L 80.95021 277.521 L 78.98059 277.1737 L 77.01098 276.8264 L 75.04137 277.1737 L 73.07176 277.521 L 71.33971 278.521 L 69.60766 279.521 M 73.07176 277.521 L 71.10215 277.8683 L 69.13254 278.2156 L 67.16292 277.8683 L 65.1933 277.521 M 69.13254 278.2156 L 67.40049 279.2156 L 65.66844 280.2156 M 77.01098 276.8264 L 75.04137 276.4791 L 73.07176 276.1318 L 71.10215 275.7845 L 69.13254 275.4373 L 67.40049 274.4373 L 65.66844 273.4373 L 63.69883 273.09 L 61.72923 272.7427 M 65.66844 273.4373 L 63.93639 272.4373 L 62.20434 271.4373 L 60.91876 269.9052 L 59.63318 268.3731 M 62.20434 271.4373 L 60.23472 271.09 L 58.2651 270.7427 M 69.13254 275.4373 L 67.16292 275.7845 L 65.1933 276.1318 L 63.46125 277.1318 L 61.7292 278.1318 M 65.1933 276.1318 L 63.22368 276.4791 L 61.25406 276.8264 L 59.28445 276.4791 L 57.31484 276.1318 M 61.25406 276.8264 L 59.52201 277.8264 L 57.78996 278.8264 M 84.88944 278.2156 L 83.15739 277.2156 L 81.42534 276.2156 L 79.69329 275.2156 L 77.96124 274.2156 L 76.22919 273.2156 L 74.49715 272.2156 L 72.7651 271.2156 L 71.03305 270.2156 L 69.74747 268.6835 L 68.4619 267.1514 L 67.17632 265.6193 L 65.89075 264.0872 L 64.15871 263.0872 L 62.42666 262.0872 L 60.45705 261.7399 L 58.48744 261.3926 M 62.42666 262.0872 L 60.69461 261.0872 L 58.96256 260.0872 L 57.67699 258.5551 L 56.39142 257.023 M 58.96256 260.0872 L 56.99295 259.7399 L 55.02334 259.3926 M 65.89075 264.0872 L 64.60518 262.5551 L 63.3196 261.023 L 62.03403 259.491 L 60.74846 257.9589 L 60.06441 256.0795 L 59.38037 254.2001 L 58.0948 252.668 L 56.80922 251.1359 M 59.38037 254.2001 L 58.69633 252.3207 L 58.01229 250.4413 L 58.01229 248.4413 L 58.01229 246.4413 M 58.01229 250.4413 L 56.72672 248.9093 L 55.44114 247.3772 M 60.74846 257.9589 L 59.01641 256.9589 L 57.28436 255.9589 L 55.31475 255.6116 L 53.34514 255.2643 M 57.28436 255.9589 L 55.55231 254.9589 L 53.82027 253.9589 L 52.5347 252.4268 L 51.24912 250.8947 M 53.82027 253.9589 L 51.85066 253.6116 L 49.88105 253.2643 M 71.03305 270.2156 L 69.06344 269.8683 L 67.09382 269.521 L 65.12421 269.1737 L 63.1546 268.8264 L 61.18499 269.1737 L 59.21538 269.521 L 57.48333 270.521 L 55.75128 271.521 M 59.21538 269.521 L 57.24576 269.8683 L 55.27614 270.2156 L 53.30652 269.8683 L 51.3369 269.521 M 55.27614 270.2156 L 53.54409 271.2156 L 51.81204 272.2156 M 63.1546 268.8264 L 61.18499 268.4791 L 59.21538 268.1318 L 57.24576 267.7845 L 55.27614 267.4373 L 53.54409 266.4373 L 51.81204 265.4373 L 49.84243 265.09 L 47.87282 264.7427 M 51.81204 265.4373 L 50.07999 264.4373 L 48.34794 263.4373 L 47.06236 261.9052 L 45.77679 260.3731 M 48.34794 263.4373 L 46.37832 263.09 L 44.40871 262.7427 M 55.27614 267.4373 L 53.30652 267.7845 L 51.3369 268.1318 L 49.60485 269.1318 L 47.8728 270.1318 M 51.3369 268.1318 L 49.36729 268.4791 L 47.39768 268.8264 L 45.42807 268.4791 L 43.45846 268.1318 M 47.39768 268.8264 L 45.66563 269.8264 L 43.93358 270.8264 M 98.74584 286.2156 L 97.46027 284.6835 L 96.17468 283.1514 L 94.88911 281.6193 L 93.60353 280.0872 L 92.31795 278.5551 L 91.03237 277.023 L 89.7468 275.491 L 88.46121 273.9589 L 87.17563 272.4268 L 85.89006 270.8947 L 84.60448 269.3626 L 83.3189 267.8305 L 82.03333 266.2984 L 80.74774 264.7663 L 79.46216 263.2343 L 78.17658 261.7021 L 77.49254 259.8228 L 76.8085 257.9434 L 76.12446 256.064 L 75.44041 254.1846 L 74.75637 252.3053 L 74.07233 250.4259 L 73.38829 248.5465 L 72.70425 246.6671 L 71.41868 245.135 L 70.1331 243.6029 L 68.84753 242.0709 L 67.56196 240.5388 L 65.82991 239.5388 L 64.09786 238.5388 L 62.12825 238.1915 L 60.15864 237.8442 M 64.09786 238.5388 L 62.36581 237.5388 L 60.63376 236.5388 L 59.34818 235.0067 L 58.06261 233.4746 M 60.63376 236.5388 L 58.66414 236.1915 L 56.69453 235.8442 M 67.56196 240.5388 L 66.27638 239.0067 L 64.99081 237.4746 L 63.70524 235.9426 L 62.41966 234.4105 L 61.73562 232.5311 L 61.05157 230.6517 L 59.766 229.1196 L 58.48042 227.5876 M 61.05157 230.6517 L 60.36753 228.7723 L 59.68349 226.8929 L 59.68349 224.8929 L 59.68349 222.8929 M 59.68349 226.8929 L 58.39792 225.3608 L 57.11234 223.8288 M 62.41966 234.4105 L 60.68761 233.4105 L 58.95556 232.4105 L 56.98595 232.0632 L 55.01634 231.7159 M 58.95556 232.4105 L 57.22351 231.4105 L 55.49146 230.4105 L 54.20589 228.8784 L 52.92032 227.3463 M 55.49146 230.4105 L 53.52185 230.0632 L 51.55224 229.7159 M 72.70425 246.6671 L 72.02021 244.7877 L 71.33616 242.9084 L 70.65211 241.029 L 69.96807 239.1496 L 69.28403 237.2702 L 68.59999 235.3908 L 67.91595 233.5114 L 67.23191 231.632 L 67.23191 229.632 L 67.23191 227.632 L 67.23191 225.632 L 67.23191 223.632 L 66.54787 221.7526 L 65.86383 219.8732 L 64.57825 218.3411 L 63.29268 216.8091 M 65.86383 219.8732 L 65.17979 217.9938 L 64.49575 216.1144 L 64.49575 214.1144 L 64.49575 212.1144 M 64.49575 216.1144 L 63.21017 214.5823 L 61.9246 213.0503 M 67.23191 223.632 L 67.23191 221.632 L 67.23191 219.632 L 67.23191 217.632 L 67.23191 215.632 L 67.91595 213.7526 L 68.6 211.8732 L 68.6 209.8732 L 68.6 207.8732 M 68.6 211.8732 L 69.28404 209.9938 L 69.96808 208.1144 L 71.25365 206.5823 L 72.53923 205.0503 M 69.96808 208.1144 L 69.96808 206.1144 L 69.96808 204.1144 M 67.23191 215.632 L 66.54787 213.7526 L 65.86383 211.8732 L 64.57825 210.3411 L 63.29268 208.8091 M 65.86383 211.8732 L 65.17979 209.9938 L 64.49575 208.1144 L 64.49575 206.1144 L 64.49575 204.1144 M 64.49575 208.1144 L 63.21017 206.5823 L 61.9246 205.0503 M 67.23191 231.632 L 65.94633 230.0999 L 64.66076 228.5678 L 63.37518 227.0358 L 62.08961 225.5037 L 60.35757 224.5037 L 58.62552 223.5037 L 56.65591 223.1564 L 54.6863 222.8091 M 58.62552 223.5037 L 56.89347 222.5037 L 55.16142 221.5037 L 53.87585 219.9716 L 52.59028 218.4395 M 55.16142 221.5037 L 53.19181 221.1564 L 51.2222 220.8091 M 62.08961 225.5037 L 60.80404 223.9716 L 59.51846 222.4395 L 58.23289 220.9075 L 56.94732 219.3754 L 56.26328 217.496 L 55.57923 215.6166 L 54.29365 214.0845 L 53.00807 212.5525 M 55.57923 215.6166 L 54.8952 213.7372 L 54.21115 211.8578 L 54.21115 209.8578 L 54.21115 207.8578 M 54.21115 211.8578 L 52.92558 210.3257 L 51.64 208.7937 M 56.94732 219.3754 L 55.21527 218.3754 L 53.48322 217.3754 L 51.51361 217.0281 L 49.544 216.6808 M 53.48322 217.3754 L 51.75117 216.3754 L 50.01913 215.3754 L 48.73356 213.8433 L 47.44798 212.3112 M 50.01913 215.3754 L 48.04952 215.0281 L 46.07991 214.6808 M 78.17658 261.7021 L 76.44453 260.7021 L 74.71248 259.7021 L 72.98043 258.7021 L 71.24838 257.7021 L 69.51633 256.7021 L 67.78429 255.7021 L 66.05224 254.7021 L 64.32019 253.7021 L 62.35058 253.3549 L 60.38096 253.0076 L 58.41134 252.6603 L 56.44173 252.313 L 54.47212 252.6603 L 52.50251 253.0076 L 50.77046 254.0076 L 49.03841 255.0076 M 52.50251 253.0076 L 50.5329 253.3549 L 48.56328 253.7021 L 46.59366 253.3549 L 44.62404 253.0076 M 48.56328 253.7021 L 46.83123 254.7021 L 45.09918 255.7021 M 56.44173 252.313 L 54.47212 251.9657 L 52.50251 251.6184 L 50.5329 251.2711 L 48.56328 250.9238 L 46.83123 249.9238 L 45.09918 248.9238 L 43.12957 248.5765 L 41.15996 248.2292 M 45.09918 248.9238 L 43.36713 247.9238 L 41.63508 246.9238 L 40.3495 245.3917 L 39.06393 243.8596 M 41.63508 246.9238 L 39.66546 246.5765 L 37.69585 246.2292 M 48.56328 250.9238 L 46.59366 251.2711 L 44.62404 251.6184 L 42.89199 252.6184 L 41.15994 253.6184 M 44.62404 251.6184 L 42.65443 251.9657 L 40.68482 252.313 L 38.71521 251.9657 L 36.7456 251.6184 M 40.68482 252.313 L 38.95277 253.313 L 37.22072 254.313 M 64.32019 253.7021 L 62.58814 252.7021 L 60.85609 251.7021 L 59.12404 250.7021 L 57.39199 249.7021 L 55.65994 248.7021 L 53.92789 247.7021 L 52.19585 246.7021 L 50.4638 245.7021 L 49.17822 244.1701 L 47.89265 242.638 L 46.60708 241.1059 L 45.3215 239.5738 L 43.58945 238.5738 L 41.85741 237.5738 L 39.8878 237.2265 L 37.91819 236.8792 M 41.85741 237.5738 L 40.12536 236.5738 L 38.39331 235.5738 L 37.10773 234.0417 L 35.82216 232.5097 M 38.39331 235.5738 L 36.4237 235.2265 L 34.45408 234.8792 M 45.3215 239.5738 L 44.03593 238.0417 L 42.75036 236.5097 L 41.46478 234.9776 L 40.17921 233.4455 L 39.49517 231.5661 L 38.81113 229.6867 L 37.52556 228.1547 L 36.23998 226.6226 M 38.81113 229.6867 L 38.12709 227.8073 L 37.44305 225.9279 L 37.44305 223.9279 L 37.44305 221.9279 M 37.44305 225.9279 L 36.15748 224.3959 L 34.8719 222.8638 M 40.17921 233.4455 L 38.44716 232.4455 L 36.71511 231.4455 L 34.7455 231.0982 L 32.77589 230.7509 M 36.71511 231.4455 L 34.98306 230.4455 L 33.25101 229.4455 L 31.96544 227.9135 L 30.67986 226.3814 M 33.25101 229.4455 L 31.2814 229.0982 L 29.31179 228.7509 M 50.4638 245.7021 L 48.49418 245.3549 L 46.52457 245.0076 L 44.55496 244.6603 L 42.58535 244.313 L 40.61574 244.6603 L 38.64612 245.0076 L 36.91407 246.0076 L 35.18202 247.0076 M 38.64612 245.0076 L 36.6765 245.3549 L 34.70688 245.7021 L 32.73727 245.3549 L 30.76766 245.0076 M 34.70688 245.7021 L 32.97483 246.7021 L 31.24278 247.7021 M 42.58535 244.313 L 40.61574 243.9657 L 38.64612 243.6184 L 36.6765 243.2711 L 34.70688 242.9238 L 32.97483 241.9238 L 31.24278 240.9238 L 29.27317 240.5765 L 27.30356 240.2292 M 31.24278 240.9238 L 29.51073 239.9238 L 27.77869 238.9238 L 26.49312 237.3918 L 25.20754 235.8597 M 27.77869 238.9238 L 25.80908 238.5765 L 23.83947 238.2292 M 34.70688 242.9238 L 32.73727 243.2711 L 30.76766 243.6184 L 29.03561 244.6184 L 27.30356 245.6184 M 30.76766 243.6184 L 28.79805 243.9657 L 26.82844 244.313 L 24.85882 243.9657 L 22.8892 243.6184 M 26.82844 244.313 L 25.09639 245.313 L 23.36434 246.313 M 119.3151 310.729 L 118.6311 308.8496 L 117.947 306.9702 L 117.263 305.0909 L 116.5789 303.2115 L 115.8949 301.3321 L 115.2109 299.4527 L 114.5268 297.5734 L 113.8428 295.694 L 113.1588 293.8146 L 112.4747 291.9352 L 111.7907 290.0558 L 111.1066 288.1765 L 110.4226 286.2971 L 109.7386 284.4177 L 109.0545 282.5383 L 108.3705 280.6589 L 107.6864 278.7795 L 107.0024 276.9002 L 106.3184 275.0208 L 105.6343 273.1414 L 104.9503 271.262 L 104.2662 269.3827 L 103.5822 267.5033 L 102.8981 265.6239 L 102.2141 263.7445 L 101.5301 261.8651 L 100.846 259.9858 L 100.162 258.1064 L 99.47795 256.227 L 98.79391 254.3476 L 98.10987 252.4682 L 97.42583 250.5889 L 97.42583 248.5889 L 97.42583 246.5889 L 97.42583 244.5889 L 97.42583 242.5889 L 97.42583 240.5889 L 97.42583 238.5889 L 97.42583 236.5889 L 97.42583 234.5889 L 97.42583 232.5889 L 97.42583 230.5889 L 97.42583 228.5889 L 97.42583 226.5889 L 97.42583 224.5889 L 97.42583 222.5889 L 97.42583 220.5889 L 97.42583 218.5889 L 96.74179 216.7095 L 96.05775 214.8301 L 95.37371 212.9507 L 94.68967 211.0713 L 94.00563 209.1919 L 93.32159 207.3125 L 92.63755 205.4331 L 91.95351 203.5537 L 90.66793 202.0216 L 89.38235 200.4896 L 88.09677 198.9575 L 86.81119 197.4254 L 85.07914 196.4254 L 83.34709 195.4254 L 81.37747 195.0781 L 79.40785 194.7308 M 83.34709 195.4254 L 81.61504 194.4254 L 79.883 193.4254 L 78.59741 191.8933 L 77.31183 190.3613 M 79.883 193.4254 L 77.91338 193.0781 L 75.94375 192.7308 M 86.81119 197.4254 L 85.52561 195.8933 L 84.24004 194.3613 L 82.95445 192.8292 L 81.66888 191.2971 L 80.98484 189.4177 L 80.3008 187.5383 L 79.01522 186.0063 L 77.72964 184.4742 M 80.3008 187.5383 L 79.61676 185.6589 L 78.93272 183.7795 L 78.93272 181.7795 L 78.93272 179.7795 M 78.93272 183.7795 L 77.64714 182.2475 L 76.36156 180.7154 M 81.66888 191.2971 L 79.93683 190.2971 L 78.20478 189.2971 L 76.23517 188.9498 L 74.26555 188.6025 M 78.20478 189.2971 L 76.47273 188.2971 L 74.74068 187.2971 L 73.45511 185.765 L 72.16953 184.233 M 74.74068 187.2971 L 72.77107 186.9498 L 70.80146 186.6025 M 91.95351 203.5537 L 91.26947 201.6743 L 90.58543 199.7949 L 89.90139 197.9155 L 89.21735 196.0361 L 88.53331 194.1567 L 87.84927 192.2773 L 87.16523 190.3979 L 86.48119 188.5186 L 86.48119 186.5186 L 86.48119 184.5186 L 86.48119 182.5186 L 86.48119 180.5186 L 85.79715 178.6392 L 85.11311 176.7598 L 83.82753 175.2277 L 82.54195 173.6956 M 85.11311 176.7598 L 84.42908 174.8804 L 83.74503 173.001 L 83.74503 171.001 L 83.74503 169.001 M 83.74503 173.001 L 82.45946 171.4689 L 81.17388 169.9368 M 86.48119 180.5186 L 86.48119 178.5186 L 86.48119 176.5186 L 86.48119 174.5186 L 86.48119 172.5186 L 87.16523 170.6392 L 87.84927 168.7598 L 87.84927 166.7598 L 87.84927 164.7598 M 87.84927 168.7598 L 88.53331 166.8804 L 89.21735 165.001 L 90.50292 163.4689 L 91.7885 161.9368 M 89.21735 165.001 L 89.21735 163.001 L 89.21735 161.001 M 86.48119 172.5186 L 85.79715 170.6392 L 85.11311 168.7598 L 83.82753 167.2277 L 82.54195 165.6956 M 85.11311 168.7598 L 84.42908 166.8804 L 83.74503 165.001 L 83.74503 163.001 L 83.74503 161.001 M 83.74503 165.001 L 82.45946 163.4689 L 81.17388 161.9368 M 86.48119 188.5186 L 85.19561 186.9865 L 83.91003 185.4544 L 82.62445 183.9223 L 81.33887 182.3903 L 79.60683 181.3903 L 77.87477 180.3903 L 75.90516 180.043 L 73.93555 179.6957 M 77.87477 180.3903 L 76.14272 179.3903 L 74.41068 178.3903 L 73.1251 176.8582 L 71.83952 175.3261 M 74.41068 178.3903 L 72.44106 178.043 L 70.47145 177.6957 M 81.33887 182.3903 L 80.05329 180.8582 L 78.76772 179.3261 L 77.48213 177.794 L 76.19655 176.262 L 75.5125 174.3826 L 74.82846 172.5032 L 73.54288 170.9711 L 72.25731 169.439 M 74.82846 172.5032 L 74.14442 170.6238 L 73.46038 168.7444 L 73.46038 166.7444 L 73.46038 164.7444 M 73.46038 168.7444 L 72.1748 167.2123 L 70.88923 165.6802 M 76.19655 176.262 L 74.4645 175.262 L 72.73245 174.262 L 70.76284 173.9147 L 68.79323 173.5674 M 72.73245 174.262 L 71.0004 173.262 L 69.26835 172.262 L 67.98277 170.7299 L 66.6972 169.1978 M 69.26835 172.262 L 67.29874 171.9147 L 65.32913 171.5674 M 97.42583 218.5889 L 97.42583 216.5889 L 97.42583 214.5889 L 97.42583 212.5889 L 97.42583 210.5889 L 97.42583 208.5889 L 97.42583 206.5889 L 97.42583 204.5889 L 97.42583 202.5889 L 97.42583 200.5889 L 97.42583 198.5889 L 97.42583 196.5889 L 97.42583 194.5889 L 97.42583 192.5889 L 97.42583 190.5889 L 97.42583 188.5889 L 97.42583 186.5889 L 98.10987 184.7095 L 98.79391 182.8301 L 99.47795 180.9507 L 100.162 179.0713 L 100.846 177.1919 L 101.5301 175.3125 L 102.2141 173.4331 L 102.8981 171.5537 L 102.8981 169.5537 L 102.8981 167.5537 L 102.8981 165.5537 L 102.8981 163.5537 L 102.2141 161.6743 L 101.5301 159.7949 L 100.2445 158.2628 L 98.95891 156.7308 M 101.5301 159.7949 L 100.846 157.9155 L 100.162 156.0361 L 100.162 154.0361 L 100.162 152.0361 M 100.162 156.0361 L 98.87641 154.5041 L 97.59084 152.972 M 102.8981 163.5537 L 102.8981 161.5537 L 102.8981 159.5537 L 102.8981 157.5537 L 102.8981 155.5537 L 103.5822 153.6743 L 104.2662 151.7949 L 104.2662 149.7949 L 104.2662 147.7949 M 104.2662 151.7949 L 104.9503 149.9155 L 105.6343 148.0361 L 106.9199 146.5041 L 108.2055 144.972 M 105.6343 148.0361 L 105.6343 146.0361 L 105.6343 144.0361 M 102.8981 155.5537 L 102.2141 153.6743 L 101.5301 151.7949 L 100.2445 150.2628 L 98.95891 148.7308 M 101.5301 151.7949 L 100.846 149.9155 L 100.162 148.0361 L 100.162 146.0361 L 100.162 144.0361 M 100.162 148.0361 L 98.87641 146.5041 L 97.59084 144.972 M 102.8981 171.5537 L 103.5822 169.6743 L 104.2662 167.7949 L 104.9503 165.9155 L 105.6343 164.0361 L 106.3184 162.1567 L 107.0024 160.2773 L 107.6864 158.3979 L 108.3705 156.5186 L 109.6561 154.9865 L 110.9416 153.4544 L 112.2272 151.9223 L 113.5128 150.3903 L 114.1968 148.5109 L 114.8809 146.6315 L 114.8809 144.6315 L 114.8809 142.6315 M 114.8809 146.6315 L 115.5649 144.7521 L 116.2489 142.8727 L 117.5345 141.3406 L 118.8201 139.8085 M 116.2489 142.8727 L 116.2489 140.8727 L 116.2489 138.8727 M 113.5128 150.3903 L 114.7984 148.8582 L 116.084 147.3261 L 117.3695 145.794 L 118.6551 144.262 L 120.3872 143.262 L 122.1192 142.262 L 123.4048 140.7299 L 124.6904 139.1978 M 122.1192 142.262 L 123.8513 141.262 L 125.5833 140.262 L 127.5529 139.9147 L 129.5226 139.5674 M 125.5833 140.262 L 126.8689 138.7299 L 128.1544 137.1978 M 118.6551 144.262 L 119.3391 142.3826 L 120.0232 140.5032 L 120.0232 138.5032 L 120.0232 136.5032 M 120.0232 140.5032 L 120.7072 138.6238 L 121.3913 136.7444 L 122.6768 135.2123 L 123.9624 133.6802 M 121.3913 136.7444 L 121.3913 134.7444 L 121.3913 132.7444 M 108.3705 156.5186 L 108.3705 154.5186 L 108.3705 152.5186 L 108.3705 150.5186 L 108.3705 148.5186 L 107.6864 146.6392 L 107.0024 144.7598 L 105.7168 143.2277 L 104.4312 141.6956 M 107.0024 144.7598 L 106.3184 142.8804 L 105.6343 141.001 L 105.6343 139.001 L 105.6343 137.001 M 105.6343 141.001 L 104.3487 139.4689 L 103.0632 137.9368 M 108.3705 148.5186 L 108.3705 146.5186 L 108.3705 144.5186 L 108.3705 142.5186 L 108.3705 140.5186 L 109.0545 138.6392 L 109.7386 136.7598 L 109.7386 134.7598 L 109.7386 132.7598 M 109.7386 136.7598 L 110.4226 134.8804 L 111.1066 133.001 L 112.3922 131.4689 L 113.6778 129.9368 M 111.1066 133.001 L 111.1066 131.001 L 111.1066 129.001 M 108.3705 140.5186 L 107.6864 138.6392 L 107.0024 136.7598 L 105.7168 135.2277 L 104.4312 133.6956 M 107.0024 136.7598 L 106.3184 134.8804 L 105.6343 133.001 L 105.6343 131.001 L 105.6343 129.001 M 105.6343 133.001 L 104.3487 131.4689 L 103.0632 129.9368 M 97.42583 186.5889 L 96.74179 184.7095 L 96.05775 182.8301 L 95.37371 180.9507 L 94.68967 179.0713 L 94.00563 177.1919 L 93.32159 175.3125 L 92.63755 173.4331 L 91.95351 171.5537 L 90.66793 170.0216 L 89.38235 168.4896 L 88.09677 166.9575 L 86.81119 165.4254 L 85.07914 164.4254 L 83.34709 163.4254 L 81.37747 163.0781 L 79.40785 162.7308 M 83.34709 163.4254 L 81.61504 162.4254 L 79.883 161.4254 L 78.59741 159.8933 L 77.31183 158.3613 M 79.883 161.4254 L 77.91338 161.0781 L 75.94375 160.7308 M 86.81119 165.4254 L 85.52561 163.8933 L 84.24004 162.3613 L 82.95445 160.8292 L 81.66888 159.2971 L 80.98484 157.4177 L 80.3008 155.5383 L 79.01522 154.0063 L 77.72964 152.4742 M 80.3008 155.5383 L 79.61676 153.6589 L 78.93272 151.7795 L 78.93272 149.7795 L 78.93272 147.7795 M 78.93272 151.7795 L 77.64714 150.2475 L 76.36156 148.7154 M 81.66888 159.2971 L 79.93683 158.2971 L 78.20478 157.2971 L 76.23517 156.9498 L 74.26555 156.6025 M 78.20478 157.2971 L 76.47273 156.2971 L 74.74068 155.2971 L 73.45511 153.765 L 72.16953 152.233 M 74.74068 155.2971 L 72.77107 154.9498 L 70.80146 154.6025 M 91.95351 171.5537 L 91.26947 169.6743 L 90.58543 167.7949 L 89.90139 165.9155 L 89.21735 164.0361 L 88.53331 162.1567 L 87.84927 160.2773 L 87.16523 158.3979 L 86.48119 156.5186 L 86.48119 154.5186 L 86.48119 152.5186 L 86.48119 150.5186 L 86.48119 148.5186 L 85.79715 146.6392 L 85.11311 144.7598 L 83.82753 143.2277 L 82.54195 141.6956 M 85.11311 144.7598 L 84.42908 142.8804 L 83.74503 141.001 L 83.74503 139.001 L 83.74503 137.001 M 83.74503 141.001 L 82.45946 139.4689 L 81.17388 137.9368 M 86.48119 148.5186 L 86.48119 146.5186 L 86.48119 144.5186 L 86.48119 142.5186 L 86.48119 140.5186 L 87.16523 138.6392 L 87.84927 136.7598 L 87.84927 134.7598 L 87.84927 132.7598 M 87.84927 136.7598 L 88.53331 134.8804 L 89.21735 133.001 L 90.50292 131.4689 L 91.7885 129.9368 M 89.21735 133.001 L 89.21735 131.001 L 89.21735 129.001 M 86.48119 140.5186 L 85.79715 138.6392 L 85.11311 136.7598 L 83.82753 135.2277 L 82.54195 133.6956 M 85.11311 136.7598 L 84.42908 134.8804 L 83.74503 133.001 L 83.74503 131.001 L 83.74503 129.001 M 83.74503 133.001 L 82.45946 131.4689 L 81.17388 129.9368 M 86.48119 156.5186 L 85.19561 154.9865 L 83.91003 153.4544 L 82.62445 151.9223 L 81.33887 150.3903 L 79.60683 149.3903 L 77.87477 148.3903 L 75.90516 148.043 L 73.93555 147.6957 M 77.87477 148.3903 L 76.14272 147.3903 L 74.41068 146.3903 L 73.1251 144.8582 L 71.83952 143.3261 M 74.41068 146.3903 L 72.44106 146.043 L 70.47145 145.6957 M 81.33887 150.3903 L 80.05329 148.8582 L 78.76772 147.3261 L 77.48213 145.794 L 76.19655 144.262 L 75.5125 142.3826 L 74.82846 140.5032 L 73.54288 138.9711 L 72.25731 137.439 M 74.82846 140.5032 L 74.14442 138.6238 L 73.46038 136.7444 L 73.46038 134.7444 L 73.46038 132.7444 M 73.46038 136.7444 L 72.1748 135.2123 L 70.88923 133.6802 M 76.19655 144.262 L 74.4645 143.262 L 72.73245 142.262 L 70.76284 141.9147 L 68.79323 141.5674 M 72.73245 142.262 L 71.0004 141.262 L 69.26835 140.262 L 67.98277 138.7299 L 66.6972 137.1978 M 69.26835 140.262 L 67.29874 139.9147 L 65.32913 139.5674 M 97.42583 250.5889 L 96.14025 249.0568 L 94.85468 247.5247 L 93.56909 245.9926 L 92.28351 244.4605 L 90.99793 242.9284 L 89.71236 241.3963 L 88.42678 239.8643 L 87.1412 238.3322 L 85.85562 236.8001 L 84.57004 235.268 L 83.28446 233.736 L 81.99889 232.2039 L 80.7133 230.6718 L 79.42773 229.1397 L 78.14215 227.6077 L 76.85658 226.0756 L 75.12453 225.0756 L 73.39249 224.0756 L 71.66044 223.0756 L 69.92839 222.0756 L 68.19634 221.0756 L 66.46429 220.0756 L 64.73224 219.0756 L 63.00019 218.0756 L 61.03058 217.7283 L 59.06097 217.381 L 57.09136 217.0337 L 55.12175 216.6864 L 53.15214 217.0337 L 51.18252 217.381 L 49.45047 218.381 L 47.71842 219.381 M 51.18252 217.381 L 49.2129 217.7283 L 47.24328 218.0756 L 45.27366 217.7283 L 43.30405 217.381 M 47.24328 218.0756 L 45.51123 219.0756 L 43.77918 220.0756 M 55.12175 216.6864 L 53.15214 216.3391 L 51.18252 215.9919 L 49.2129 215.6446 L 47.24328 215.2973 L 45.51123 214.2973 L 43.77918 213.2973 L 41.80957 212.95 L 39.83996 212.6027 M 43.77918 213.2973 L 42.04713 212.2973 L 40.31508 211.2973 L 39.0295 209.7652 L 37.74393 208.2331 M 40.31508 211.2973 L 38.34547 210.95 L 36.37586 210.6027 M 47.24328 215.2973 L 45.27366 215.6446 L 43.30405 215.9919 L 41.572 216.9919 L 39.83995 217.9919 M 43.30405 215.9919 L 41.33444 216.3391 L 39.36483 216.6864 L 37.39522 216.3391 L 35.4256 215.9919 M 39.36483 216.6864 L 37.63278 217.6864 L 35.90073 218.6864 M 63.00019 218.0756 L 61.26814 217.0756 L 59.53609 216.0756 L 57.80405 215.0756 L 56.072 214.0756 L 54.33995 213.0756 L 52.6079 212.0756 L 50.87585 211.0756 L 49.1438 210.0756 L 47.85822 208.5435 L 46.57265 207.0114 L 45.28708 205.4794 L 44.0015 203.9473 L 42.26945 202.9473 L 40.53741 201.9473 L 38.5678 201.6 L 36.59819 201.2527 M 40.53741 201.9473 L 38.80537 200.9473 L 37.07332 199.9473 L 35.78774 198.4152 L 34.50217 196.8831 M 37.07332 199.9473 L 35.1037 199.6 L 33.13409 199.2527 M 44.0015 203.9473 L 42.71593 202.4152 L 41.43036 200.8831 L 40.14478 199.3511 L 38.85921 197.819 L 38.17517 195.9396 L 37.49113 194.0602 L 36.20556 192.5281 L 34.91998 190.9961 M 37.49113 194.0602 L 36.80709 192.1808 L 36.12305 190.3014 L 36.12305 188.3014 L 36.12305 186.3014 M 36.12305 190.3014 L 34.83748 188.7693 L 33.5519 187.2373 M 38.85921 197.819 L 37.12717 196.819 L 35.39512 195.819 L 33.42551 195.4717 L 31.4559 195.1244 M 35.39512 195.819 L 33.66307 194.819 L 31.93102 193.819 L 30.64545 192.2869 L 29.35988 190.7549 M 31.93102 193.819 L 29.96141 193.4717 L 27.9918 193.1244 M 49.1438 210.0756 L 47.17419 209.7283 L 45.20458 209.381 L 43.23497 209.0337 L 41.26536 208.6864 L 39.29574 209.0337 L 37.32612 209.381 L 35.59407 210.381 L 33.86202 211.381 M 37.32612 209.381 L 35.3565 209.7283 L 33.38689 210.0756 L 31.41728 209.7283 L 29.44767 209.381 M 33.38689 210.0756 L 31.65484 211.0756 L 29.92279 212.0756 M 41.26536 208.6864 L 39.29574 208.3391 L 37.32612 207.9919 L 35.3565 207.6446 L 33.38689 207.2973 L 31.65484 206.2973 L 29.92279 205.2973 L 27.95318 204.95 L 25.98356 204.6027 M 29.92279 205.2973 L 28.19074 204.2973 L 26.45869 203.2973 L 25.17312 201.7652 L 23.88754 200.2331 M 26.45869 203.2973 L 24.48908 202.95 L 22.51947 202.6027 M 33.38689 207.2973 L 31.41728 207.6446 L 29.44767 207.9919 L 27.71562 208.9919 L 25.98357 209.9919 M 29.44767 207.9919 L 27.47806 208.3391 L 25.50844 208.6864 L 23.53882 208.3391 L 21.5692 207.9919 M 25.50844 208.6864 L 23.77639 209.6864 L 22.04434 210.6864 M 76.85658 226.0756 L 75.571 224.5435 L 74.28542 223.0114 L 72.99986 221.4794 L 71.71428 219.9473 L 70.4287 218.4152 L 69.14314 216.8831 L 67.85756 215.3511 L 66.57198 213.819 L 65.28642 212.2869 L 64.00084 210.7549 L 62.71526 209.2228 L 61.4297 207.6907 L 60.14412 206.1586 L 58.85854 204.6266 L 57.57298 203.0945 L 56.2874 201.5624 L 55.60335 199.683 L 54.9193 197.8036 L 54.23526 195.9242 L 53.55121 194.0448 L 52.86716 192.1654 L 52.18312 190.286 L 51.49908 188.4066 L 50.81504 186.5273 L 49.52946 184.9952 L 48.24389 183.4631 L 46.95831 181.931 L 45.67274 180.399 L 43.9407 179.399 L 42.20865 178.399 L 40.23904 178.0517 L 38.26943 177.7044 M 42.20865 178.399 L 40.4766 177.399 L 38.74455 176.399 L 37.45898 174.8669 L 36.17341 173.3348 M 38.74455 176.399 L 36.77494 176.0517 L 34.80533 175.7044 M 45.67274 180.399 L 44.38717 178.8669 L 43.10159 177.3348 L 41.81602 175.8027 L 40.53045 174.2707 L 39.84641 172.3913 L 39.16236 170.5119 L 37.87679 168.9798 L 36.59121 167.4477 M 39.16236 170.5119 L 38.47832 168.6325 L 37.79428 166.7531 L 37.79428 164.7531 L 37.79428 162.7531 M 37.79428 166.7531 L 36.50871 165.221 L 35.22313 163.6889 M 40.53045 174.2707 L 38.7984 173.2707 L 37.06635 172.2707 L 35.09674 171.9234 L 33.12713 171.5761 M 37.06635 172.2707 L 35.3343 171.2707 L 33.60226 170.2707 L 32.31669 168.7386 L 31.03111 167.2065 M 33.60226 170.2707 L 31.63265 169.9234 L 29.66304 169.5761 M 50.81504 186.5273 L 50.131 184.6479 L 49.44696 182.7685 L 48.76292 180.8891 L 48.07888 179.0097 L 47.39483 177.1303 L 46.71078 175.2509 L 46.02674 173.3715 L 45.3427 171.4921 L 45.3427 169.4921 L 45.3427 167.4921 L 45.3427 165.4921 L 45.3427 163.4921 L 44.65866 161.6127 L 43.97462 159.7333 L 42.68905 158.2012 L 41.40347 156.6692 M 43.97462 159.7333 L 43.29058 157.8539 L 42.60654 155.9745 L 42.60654 153.9745 L 42.60654 151.9745 M 42.60654 155.9745 L 41.32097 154.4424 L 40.03539 152.9104 M 45.3427 163.4921 L 45.3427 161.4921 L 45.3427 159.4921 L 45.3427 157.4921 L 45.3427 155.4921 L 46.02675 153.6127 L 46.71079 151.7333 L 46.71079 149.7333 L 46.71079 147.7333 M 46.71079 151.7333 L 47.39483 149.8539 L 48.07887 147.9745 L 49.36445 146.4424 L 50.65002 144.9104 M 48.07887 147.9745 L 48.07887 145.9745 L 48.07887 143.9745 M 45.3427 155.4921 L 44.65866 153.6127 L 43.97462 151.7333 L 42.68905 150.2012 L 41.40347 148.6692 M 43.97462 151.7333 L 43.29058 149.8539 L 42.60654 147.9745 L 42.60654 145.9745 L 42.60654 143.9745 M 42.60654 147.9745 L 41.32097 146.4424 L 40.03539 144.9104 M 45.3427 171.4921 L 44.05713 169.96 L 42.77155 168.4279 L 41.48598 166.8959 L 40.20041 165.3638 L 38.46836 164.3638 L 36.73631 163.3638 L 34.7667 163.0165 L 32.79709 162.6692 M 36.73631 163.3638 L 35.00426 162.3638 L 33.27222 161.3638 L 31.98665 159.8317 L 30.70107 158.2997 M 33.27222 161.3638 L 31.30261 161.0165 L 29.333 160.6692 M 40.20041 165.3638 L 38.91483 163.8317 L 37.62926 162.2997 L 36.34369 160.7676 L 35.05811 159.2355 L 34.37407 157.3561 L 33.69002 155.4767 L 32.40444 153.9446 L 31.11886 152.4126 M 33.69002 155.4767 L 33.00597 153.5973 L 32.32193 151.7179 L 32.32193 149.7179 L 32.32193 147.7179 M 32.32193 151.7179 L 31.03635 150.1859 L 29.75078 148.6538 M 35.05811 159.2355 L 33.32607 158.2355 L 31.59402 157.2355 L 29.62441 156.8882 L 27.6548 156.5409 M 31.59402 157.2355 L 29.86198 156.2355 L 28.12993 155.2355 L 26.84435 153.7034 L 25.55878 152.1714 M 28.12993 155.2355 L 26.16031 154.8882 L 24.1907 154.5409 M 56.2874 201.5624 L 54.55535 200.5624 L 52.8233 199.5624 L 51.09126 198.5624 L 49.35921 197.5624 L 47.62717 196.5624 L 45.89512 195.5624 L 44.16307 194.5624 L 42.43102 193.5624 L 40.46141 193.2151 L 38.4918 192.8678 L 36.52218 192.5205 L 34.55257 192.1732 L 32.58296 192.5205 L 30.61335 192.8678 L 28.8813 193.8678 L 27.14925 194.8678 M 30.61335 192.8678 L 28.64374 193.2151 L 26.67412 193.5624 L 24.7045 193.2151 L 22.73488 192.8678 M 26.67412 193.5624 L 24.94207 194.5624 L 23.21002 195.5624 M 34.55257 192.1732 L 32.58296 191.826 L 30.61335 191.4787 L 28.64374 191.1314 L 26.67412 190.7841 L 24.94207 189.7841 L 23.21002 188.7841 L 21.24041 188.4368 L 19.2708 188.0895 M 23.21002 188.7841 L 21.47797 187.7841 L 19.74592 186.7841 L 18.46034 185.252 L 17.17477 183.7199 M 19.74592 186.7841 L 17.7763 186.4368 L 15.80668 186.0895 M 26.67412 190.7841 L 24.7045 191.1314 L 22.73488 191.4787 L 21.00283 192.4787 L 19.27078 193.4787 M 22.73488 191.4787 L 20.76526 191.826 L 18.79565 192.1732 L 16.82604 191.826 L 14.85643 191.4787 M 18.79565 192.1732 L 17.0636 193.1732 L 15.33155 194.1732 M 42.43102 193.5624 L 40.69897 192.5624 L 38.96693 191.5624 L 37.23488 190.5624 L 35.50283 189.5624 L 33.77078 188.5624 L 32.03873 187.5624 L 30.30668 186.5624 L 28.57463 185.5624 L 27.28905 184.0303 L 26.00348 182.4983 L 24.7179 180.9662 L 23.43233 179.4341 L 21.70029 178.4341 L 19.96824 177.4341 L 17.99863 177.0868 L 16.02902 176.7395 M 19.96824 177.4341 L 18.23619 176.4341 L 16.50414 175.4341 L 15.21857 173.902 L 13.933 172.37 M 16.50414 175.4341 L 14.53453 175.0868 L 12.56491 174.7395 M 23.43233 179.4341 L 22.14676 177.902 L 20.86118 176.37 L 19.57561 174.8379 L 18.29004 173.3058 L 17.606 171.4264 L 16.92195 169.547 L 15.63637 168.015 L 14.35079 166.4829 M 16.92195 169.547 L 16.23792 167.6676 L 15.55387 165.7882 L 15.55387 163.7882 L 15.55387 161.7882 M 15.55387 165.7882 L 14.2683 164.2562 L 12.98273 162.7241 M 18.29004 173.3058 L 16.55799 172.3058 L 14.82594 171.3058 L 12.85632 170.9585 L 10.8867 170.6112 M 14.82594 171.3058 L 13.09389 170.3058 L 11.36183 169.3058 L 10.07626 167.7737 L 8.790695 166.2417 M 11.36183 169.3058 L 9.392212 168.9585 L 7.422592 168.6112 M 28.57463 185.5624 L 26.60502 185.2151 L 24.63541 184.8678 L 22.6658 184.5205 L 20.69619 184.1732 L 18.72658 184.5205 L 16.75696 184.8678 L 15.02491 185.8678 L 13.29286 186.8678 M 16.75696 184.8678 L 14.78734 185.2151 L 12.81772 185.5624 L 10.8481 185.2151 L 8.878479 184.8678 M 12.81772 185.5624 L 11.08566 186.5624 L 9.353607 187.5624 M 20.69619 184.1732 L 18.72658 183.826 L 16.75696 183.4787 L 14.78734 183.1314 L 12.81772 182.7841 L 11.08566 181.7841 L 9.353607 180.7841 L 7.383987 180.4368 L 5.414368 180.0895 M 9.353607 180.7841 L 7.621552 179.7841 L 5.889496 178.7841 L 4.603928 177.252 L 3.318359 175.7199 M 5.889496 178.7841 L 3.919876 178.4368 L 1.950256 178.0895 M 12.81772 182.7841 L 10.8481 183.1314 L 8.878479 183.4787 L 7.146423 184.4787 L 5.414368 185.4787 M 8.878479 183.4787 L 6.908859 183.826 L 4.93924 184.1732 L 2.96962 183.826 L 1 183.4787 M 4.93924 184.1732 L 3.207184 185.1732 L 1.475128 186.1732 M 141.2044 370.8691 L 141.2044 368.8691 L 141.2044 366.8691 L 141.2044 364.8691 L 141.2044 362.8691 L 141.2044 360.8691 L 141.2044 358.8691 L 141.2044 356.8691 L 141.2044 354.8691 L 141.2044 352.8691 L 141.2044 350.8691 L 141.2044 348.8691 L 141.2044 346.8691 L 141.2044 344.8691 L 141.2044 342.8691 L 141.2044 340.8691 L 141.2044 338.8691 L 141.2044 336.8691 L 141.2044 334.8691 L 141.2044 332.8691 L 141.2044 330.8691 L 141.2044 328.8691 L 141.2044 326.8691 L 141.2044 324.8691 L 141.2044 322.8691 L 141.2044 320.8691 L 141.2044 318.8691 L 141.2044 316.8691 L 141.2044 314.8691 L 141.2044 312.8691 L 141.2044 310.8691 L 141.2044 308.8691 L 141.2044 306.8691 L 141.2044 304.8691 L 141.2044 302.8691 L 141.2044 300.8691 L 141.2044 298.8691 L 141.2044 296.8691 L 141.2044 294.8691 L 141.2044 292.8691 L 141.2044 290.8691 L 141.2044 288.8691 L 141.2044 286.8691 L 141.2044 284.8691 L 141.2044 282.8691 L 141.2044 280.8691 L 141.2044 278.8691 L 141.2044 276.8691 L 141.2044 274.8691 L 141.2044 272.8691 L 141.2044 270.8691 L 141.2044 268.8691 L 141.2044 266.8691 L 141.2044 264.8691 L 141.2044 262.8691 L 141.2044 260.8691 L 141.2044 258.8691 L 141.2044 256.8691 L 141.2044 254.8691 L 141.2044 252.8691 L 141.2044 250.8691 L 141.2044 248.8691 L 141.2044 246.8691 L 141.2044 244.8691 L 141.2044 242.8691 L 141.8884 240.9897 L 142.5725 239.1104 L 143.2565 237.231 L 143.9406 235.3516 L 144.6246 233.4722 L 145.3086 231.5928 L 145.9927 229.7134 L 146.6767 227.834 L 147.3607 225.9546 L 148.0448 224.0752 L 148.7288 222.1958 L 149.4129 220.3164 L 150.0969 218.437 L 150.7809 216.5576 L 151.465 214.6782 L 152.149 212.7988 L 152.8331 210.9194 L 153.5171 209.04 L 154.2012 207.1606 L 154.8852 205.2813 L 155.5692 203.4019 L 156.2533 201.5225 L 156.9373 199.6431 L 157.6214 197.7637 L 158.3054 195.8843 L 158.9894 194.0049 L 159.6735 192.1255 L 160.3575 190.2461 L 161.0415 188.3667 L 161.7256 186.4873 L 162.4096 184.6079 L 163.0937 182.7285 L 163.0937 180.7285 L 163.0937 178.7285 L 163.0937 176.7285 L 163.0937 174.7285 L 163.0937 172.7285 L 163.0937 170.7285 L 163.0937 168.7285 L 163.0937 166.7285 L 163.0937 164.7285 L 163.0937 162.7285 L 163.0937 160.7285 L 163.0937 158.7285 L 163.0937 156.7285 L 163.0937 154.7285 L 163.0937 152.7285 L 163.0937 150.7285 L 162.4096 148.8491 L 161.7256 146.9697 L 161.0415 145.0903 L 160.3575 143.2109 L 159.6735 141.3315 L 158.9894 139.4521 L 158.3054 137.5728 L 157.6214 135.6934 L 156.3358 134.1613 L 155.0502 132.6292 L 153.7646 131.0971 L 152.479 129.5651 L 150.747 128.5651 L 149.015 127.5651 L 147.0453 127.2178 L 145.0757 126.8705 M 149.015 127.5651 L 147.2829 126.5651 L 145.5509 125.5651 L 144.2653 124.033 L 142.9797 122.5009 M 145.5509 125.5651 L 143.5812 125.2178 L 141.6116 124.8705 M 152.479 129.5651 L 151.1935 128.033 L 149.9079 126.5009 L 148.6223 124.9688 L 147.3367 123.4368 L 146.6527 121.5574 L 145.9687 119.678 L 144.6831 118.1459 L 143.3975 116.6138 M 145.9687 119.678 L 145.2846 117.7986 L 144.6006 115.9192 L 144.6006 113.9192 L 144.6006 111.9192 M 144.6006 115.9192 L 143.315 114.3871 L 142.0294 112.855 M 147.3367 123.4368 L 145.6047 122.4368 L 143.8727 121.4368 L 141.903 121.0895 L 139.9334 120.7422 M 143.8727 121.4368 L 142.1406 120.4368 L 140.4086 119.4368 L 139.123 117.9047 L 137.8374 116.3726 M 140.4086 119.4368 L 138.4389 119.0895 L 136.4693 118.7422 M 157.6214 135.6934 L 156.9373 133.814 L 156.2533 131.9346 L 155.5692 130.0552 L 154.8852 128.1758 L 154.2012 126.2964 L 153.5171 124.417 L 152.8331 122.5376 L 152.149 120.6582 L 152.149 118.6582 L 152.149 116.6582 L 152.149 114.6582 L 152.149 112.6582 L 151.465 110.7788 L 150.7809 108.8994 L 149.4954 107.3673 L 148.2098 105.8353 M 150.7809 108.8994 L 150.0969 107.02 L 149.4129 105.1406 L 149.4129 103.1406 L 149.4129 101.1406 M 149.4129 105.1406 L 148.1273 103.6086 L 146.8417 102.0765 M 152.149 112.6582 L 152.149 110.6582 L 152.149 108.6582 L 152.149 106.6582 L 152.149 104.6582 L 152.8331 102.7788 L 153.5171 100.8994 L 153.5171 98.89941 L 153.5171 96.89941 M 153.5171 100.8994 L 154.2012 99.02002 L 154.8852 97.14063 L 156.1708 95.60855 L 157.4564 94.07648 M 154.8852 97.14063 L 154.8852 95.14063 L 154.8852 93.14063 M 152.149 104.6582 L 151.465 102.7788 L 150.7809 100.8994 L 149.4954 99.36734 L 148.2098 97.83527 M 150.7809 100.8994 L 150.0969 99.02002 L 149.4129 97.14063 L 149.4129 95.14063 L 149.4129 93.14063 M 149.4129 97.14063 L 148.1273 95.60855 L 146.8417 94.07648 M 152.149 120.6582 L 150.8635 119.1261 L 149.5779 117.5941 L 148.2923 116.062 L 147.0067 114.5299 L 145.2747 113.5299 L 143.5426 112.5299 L 141.573 112.1826 L 139.6034 111.8353 M 143.5426 112.5299 L 141.8106 111.5299 L 140.0785 110.5299 L 138.793 108.9978 L 137.5074 107.4658 M 140.0785 110.5299 L 138.1089 110.1826 L 136.1393 109.8353 M 147.0067 114.5299 L 145.7211 112.9978 L 144.4356 111.4658 L 143.15 109.9337 L 141.8644 108.4016 L 141.1804 106.5222 L 140.4963 104.6428 L 139.2108 103.1107 L 137.9252 101.5787 M 140.4963 104.6428 L 139.8123 102.7634 L 139.1283 100.884 L 139.1283 98.88403 L 139.1283 96.88403 M 139.1283 100.884 L 137.8427 99.35196 L 136.5571 97.81989 M 141.8644 108.4016 L 140.1324 107.4016 L 138.4003 106.4016 L 136.4307 106.0543 L 134.4611 105.707 M 138.4003 106.4016 L 136.6683 105.4016 L 134.9362 104.4016 L 133.6506 102.8695 L 132.3651 101.3375 M 134.9362 104.4016 L 132.9666 104.0543 L 130.997 103.707 M 163.0937 150.7285 L 163.0937 148.7285 L 163.0937 146.7285 L 163.0937 144.7285 L 163.0937 142.7285 L 163.0937 140.7285 L 163.0937 138.7285 L 163.0937 136.7285 L 163.0937 134.7285 L 163.0937 132.7285 L 163.0937 130.7285 L 163.0937 128.7285 L 163.0937 126.7285 L 163.0937 124.7285 L 163.0937 122.7285 L 163.0937 120.7285 L 163.0937 118.7285 L 163.7777 116.8491 L 164.4617 114.9697 L 165.1458 113.0903 L 165.8298 111.2109 L 166.5139 109.3315 L 167.1979 107.4521 L 167.882 105.5728 L 168.566 103.6934 L 168.566 101.6934 L 168.566 99.69336 L 168.566 97.69336 L 168.566 95.69336 L 167.882 93.81396 L 167.1979 91.93457 L 165.9123 90.4025 L 164.6268 88.87042 M 167.1979 91.93457 L 166.5139 90.05518 L 165.8298 88.17578 L 165.8298 86.17578 L 165.8298 84.17578 M 165.8298 88.17578 L 164.5443 86.64371 L 163.2587 85.11163 M 168.566 95.69336 L 168.566 93.69336 L 168.566 91.69336 L 168.566 89.69336 L 168.566 87.69336 L 169.25 85.81396 L 169.9341 83.93457 L 169.9341 81.93457 L 169.9341 79.93457 M 169.9341 83.93457 L 170.6181 82.05518 L 171.3022 80.17578 L 172.5877 78.64371 L 173.8733 77.11163 M 171.3022 80.17578 L 171.3022 78.17578 L 171.3022 76.17578 M 168.566 87.69336 L 167.882 85.81396 L 167.1979 83.93457 L 165.9123 82.4025 L 164.6268 80.87042 M 167.1979 83.93457 L 166.5139 82.05518 L 165.8298 80.17578 L 165.8298 78.17578 L 165.8298 76.17578 M 165.8298 80.17578 L 164.5443 78.64371 L 163.2587 77.11163 M 168.566 103.6934 L 169.25 101.814 L 169.9341 99.93457 L 170.6181 98.05518 L 171.3022 96.17578 L 171.9862 94.29639 L 172.6702 92.41699 L 173.3543 90.5376 L 174.0383 88.6582 L 175.3239 87.12613 L 176.6095 85.59406 L 177.8951 84.06198 L 179.1806 82.52991 L 179.8647 80.65051 L 180.5487 78.77112 L 180.5487 76.77112 L 180.5487 74.77112 M 180.5487 78.77112 L 181.2327 76.89172 L 181.9168 75.01233 L 183.2024 73.48026 L 184.4879 71.94818 M 181.9168 75.01233 L 181.9168 73.01233 L 181.9168 71.01233 M 179.1806 82.52991 L 180.4662 80.99783 L 181.7518 79.46576 L 183.0374 77.93369 L 184.3229 76.40161 L 186.055 75.40161 L 187.787 74.40161 L 189.0726 72.86954 L 190.3582 71.33746 M 187.787 74.40161 L 189.5191 73.40161 L 191.2511 72.40161 L 193.2208 72.05432 L 195.1904 71.70703 M 191.2511 72.40161 L 192.5367 70.86954 L 193.8223 69.33746 M 184.3229 76.40161 L 185.007 74.52222 L 185.691 72.64282 L 185.691 70.64282 L 185.691 68.64282 M 185.691 72.64282 L 186.3751 70.76343 L 187.0591 68.88403 L 188.3447 67.35196 L 189.6303 65.81989 M 187.0591 68.88403 L 187.0591 66.88403 L 187.0591 64.88403 M 174.0383 88.6582 L 174.0383 86.6582 L 174.0383 84.6582 L 174.0383 82.6582 L 174.0383 80.6582 L 173.3543 78.77881 L 172.6702 76.89941 L 171.3846 75.36734 L 170.0991 73.83527 M 172.6702 76.89941 L 171.9862 75.02002 L 171.3022 73.14063 L 171.3022 71.14063 L 171.3022 69.14063 M 171.3022 73.14063 L 170.0166 71.60855 L 168.731 70.07648 M 174.0383 80.6582 L 174.0383 78.6582 L 174.0383 76.6582 L 174.0383 74.6582 L 174.0383 72.6582 L 174.7224 70.77881 L 175.4064 68.89941 L 175.4064 66.89941 L 175.4064 64.89941 M 175.4064 68.89941 L 176.0904 67.02002 L 176.7745 65.14063 L 178.0601 63.60855 L 179.3456 62.07648 M 176.7745 65.14063 L 176.7745 63.14063 L 176.7745 61.14063 M 174.0383 72.6582 L 173.3543 70.77881 L 172.6702 68.89941 L 171.3846 67.36734 L 170.0991 65.83527 M 172.6702 68.89941 L 171.9862 67.02002 L 171.3022 65.14063 L 171.3022 63.14063 L 171.3022 61.14063 M 171.3022 65.14063 L 170.0166 63.60855 L 168.731 62.07648 M 163.0937 118.7285 L 162.4096 116.8491 L 161.7256 114.9697 L 161.0415 113.0903 L 160.3575 111.2109 L 159.6735 109.3315 L 158.9894 107.4521 L 158.3054 105.5728 L 157.6214 103.6934 L 156.3358 102.1613 L 155.0502 100.6292 L 153.7646 99.09714 L 152.479 97.56506 L 150.747 96.56506 L 149.015 95.56506 L 147.0453 95.21777 L 145.0757 94.87048 M 149.015 95.56506 L 147.2829 94.56506 L 145.5509 93.56506 L 144.2653 92.03299 L 142.9797 90.50092 M 145.5509 93.56506 L 143.5812 93.21777 L 141.6116 92.87048 M 152.479 97.56506 L 151.1935 96.03299 L 149.9079 94.50092 L 148.6223 92.96884 L 147.3367 91.43677 L 146.6527 89.55737 L 145.9687 87.67798 L 144.6831 86.1459 L 143.3975 84.61383 M 145.9687 87.67798 L 145.2846 85.79858 L 144.6006 83.91919 L 144.6006 81.91919 L 144.6006 79.91919 M 144.6006 83.91919 L 143.315 82.38712 L 142.0294 80.85504 M 147.3367 91.43677 L 145.6047 90.43677 L 143.8727 89.43677 L 141.903 89.08948 L 139.9334 88.74219 M 143.8727 89.43677 L 142.1406 88.43677 L 140.4086 87.43677 L 139.123 85.90469 L 137.8374 84.37262 M 140.4086 87.43677 L 138.4389 87.08948 L 136.4693 86.74219 M 157.6214 103.6934 L 156.9373 101.814 L 156.2533 99.93457 L 155.5692 98.05518 L 154.8852 96.17578 L 154.2012 94.29639 L 153.5171 92.41699 L 152.8331 90.5376 L 152.149 88.6582 L 152.149 86.6582 L 152.149 84.6582 L 152.149 82.6582 L 152.149 80.6582 L 151.465 78.77881 L 150.7809 76.89941 L 149.4954 75.36734 L 148.2098 73.83527 M 150.7809 76.89941 L 150.0969 75.02002 L 149.4129 73.14063 L 149.4129 71.14063 L 149.4129 69.14063 M 149.4129 73.14063 L 148.1273 71.60855 L 146.8417 70.07648 M 152.149 80.6582 L 152.149 78.6582 L 152.149 76.6582 L 152.149 74.6582 L 152.149 72.6582 L 152.8331 70.77881 L 153.5171 68.89941 L 153.5171 66.89941 L 153.5171 64.89941 M 153.5171 68.89941 L 154.2012 67.02002 L 154.8852 65.14063 L 156.1708 63.60855 L 157.4564 62.07648 M 154.8852 65.14063 L 154.8852 63.14063 L 154.8852 61.14063 M 152.149 72.6582 L 151.465 70.77881 L 150.7809 68.89941 L 149.4954 67.36734 L 148.2098 65.83527 M 150.7809 68.89941 L 150.0969 67.02002 L 149.4129 65.14063 L 149.4129 63.14063 L 149.4129 61.14063 M 149.4129 65.14063 L 148.1273 63.60855 L 146.8417 62.07648 M 152.149 88.6582 L 150.8635 87.12613 L 149.5779 85.59406 L 148.2923 84.06198 L 147.0067 82.52991 L 145.2747 81.52991 L 143.5426 80.52991 L 141.573 80.18262 L 139.6034 79.83533 M 143.5426 80.52991 L 141.8106 79.52991 L 140.0785 78.52991 L 138.793 76.99783 L 137.5074 75.46576 M 140.0785 78.52991 L 138.1089 78.18262 L 136.1393 77.83533 M 147.0067 82.52991 L 145.7211 80.99783 L 144.4356 79.46576 L 143.15 77.93369 L 141.8644 76.40161 L 141.1804 74.52222 L 140.4963 72.64282 L 139.2108 71.11075 L 137.9252 69.57867 M 140.4963 72.64282 L 139.8123 70.76343 L 139.1283 68.88403 L 139.1283 66.88403 L 139.1283 64.88403 M 139.1283 68.88403 L 137.8427 67.35196 L 136.5571 65.81989 M 141.8644 76.40161 L 140.1324 75.40161 L 138.4003 74.40161 L 136.4307 74.05432 L 134.4611 73.70703 M 138.4003 74.40161 L 136.6683 73.40161 L 134.9362 72.40161 L 133.6506 70.86954 L 132.3651 69.33746 M 134.9362 72.40161 L 132.9666 72.05432 L 130.997 71.70703 M 163.0937 182.7285 L 163.7777 180.8491 L 164.4617 178.9697 L 165.1458 177.0903 L 165.8298 175.2109 L 166.5139 173.3315 L 167.1979 171.4521 L 167.882 169.5728 L 168.566 167.6934 L 169.25 165.814 L 169.9341 163.9346 L 170.6181 162.0552 L 171.3022 160.1758 L 171.9862 158.2964 L 172.6702 156.417 L 173.3543 154.5376 L 174.0383 152.6582 L 174.7224 150.7788 L 175.4064 148.8994 L 176.0904 147.02 L 176.7745 145.1406 L 177.4585 143.2612 L 178.1425 141.3818 L 178.8266 139.5024 L 179.5106 137.623 L 180.1947 135.7437 L 180.8787 133.8643 L 181.5627 131.9849 L 182.2468 130.1055 L 182.9308 128.2261 L 183.6149 126.3467 L 184.2989 124.4673 L 184.983 122.5879 L 186.2685 121.0558 L 187.5541 119.5237 L 188.8397 117.9917 L 190.1253 116.4596 L 191.4109 114.9275 L 192.6964 113.3954 L 193.982 111.8634 L 195.2676 110.3313 L 196.5532 108.7992 L 197.8387 107.2672 L 199.1243 105.7351 L 200.4099 104.203 L 201.6955 102.6709 L 202.981 101.1389 L 204.2666 99.60678 L 205.5522 98.07471 L 206.2363 96.19531 L 206.9203 94.31592 L 207.6043 92.43652 L 208.2884 90.55713 L 208.9724 88.67773 L 209.6564 86.79834 L 210.3405 84.91895 L 211.0245 83.03955 L 211.0245 81.03955 L 211.0245 79.03955 L 211.0245 77.03955 L 211.0245 75.03955 L 210.3405 73.16016 L 209.6564 71.28076 L 208.3709 69.74869 L 207.0853 68.21661 M 209.6564 71.28076 L 208.9724 69.40137 L 208.2884 67.52197 L 208.2884 65.52197 L 208.2884 63.52197 M 208.2884 67.52197 L 207.0028 65.9899 L 205.7172 64.45782 M 211.0245 75.03955 L 211.0245 73.03955 L 211.0245 71.03955 L 211.0245 69.03955 L 211.0245 67.03955 L 211.7086 65.16016 L 212.3926 63.28076 L 212.3926 61.28076 L 212.3926 59.28076 M 212.3926 63.28076 L 213.0767 61.40137 L 213.7607 59.52197 L 215.0463 57.9899 L 216.3318 56.45782 M 213.7607 59.52197 L 213.7607 57.52197 L 213.7607 55.52197 M 211.0245 67.03955 L 210.3405 65.16016 L 209.6564 63.28076 L 208.3709 61.74869 L 207.0853 60.21661 M 209.6564 63.28076 L 208.9724 61.40137 L 208.2884 59.52197 L 208.2884 57.52197 L 208.2884 55.52197 M 208.2884 59.52197 L 207.0028 57.9899 L 205.7172 56.45782 M 211.0245 83.03955 L 211.7086 81.16016 L 212.3926 79.28076 L 213.0767 77.40137 L 213.7607 75.52197 L 214.4447 73.64258 L 215.1288 71.76318 L 215.8128 69.88379 L 216.4969 68.00439 L 217.7824 66.47232 L 219.068 64.94025 L 220.3536 63.40817 L 221.6392 61.8761 L 222.3232 59.9967 L 223.0072 58.11731 L 223.0072 56.11731 L 223.0072 54.11731 M 223.0072 58.11731 L 223.6913 56.23792 L 224.3753 54.35852 L 225.6609 52.82645 L 226.9465 51.29437 M 224.3753 54.35852 L 224.3753 52.35852 L 224.3753 50.35852 M 221.6392 61.8761 L 222.9247 60.34402 L 224.2103 58.81195 L 225.4959 57.27988 L 226.7815 55.7478 L 228.5135 54.7478 L 230.2456 53.7478 L 231.5311 52.21573 L 232.8167 50.68365 M 230.2456 53.7478 L 231.9776 52.7478 L 233.7097 51.7478 L 235.6793 51.40051 L 237.6489 51.05322 M 233.7097 51.7478 L 234.9952 50.21573 L 236.2808 48.68365 M 226.7815 55.7478 L 227.4655 53.86841 L 228.1496 51.98901 L 228.1496 49.98901 L 228.1496 47.98901 M 228.1496 51.98901 L 228.8336 50.10962 L 229.5177 48.23022 L 230.8032 46.69815 L 232.0888 45.16608 M 229.5177 48.23022 L 229.5177 46.23022 L 229.5177 44.23022 M 216.4969 68.00439 L 216.4969 66.00439 L 216.4969 64.00439 L 216.4969 62.00439 L 216.4969 60.00439 L 215.8128 58.125 L 215.1288 56.24561 L 213.8432 54.71353 L 212.5576 53.18146 M 215.1288 56.24561 L 214.4447 54.36621 L 213.7607 52.48682 L 213.7607 50.48682 L 213.7607 48.48682 M 213.7607 52.48682 L 212.4751 50.95474 L 211.1895 49.42267 M 216.4969 60.00439 L 216.4969 58.00439 L 216.4969 56.00439 L 216.4969 54.00439 L 216.4969 52.00439 L 217.1809 50.125 L 217.865 48.24561 L 217.865 46.24561 L 217.865 44.24561 M 217.865 48.24561 L 218.549 46.36621 L 219.233 44.48682 L 220.5186 42.95474 L 221.8042 41.42267 M 219.233 44.48682 L 219.233 42.48682 L 219.233 40.48682 M 216.4969 52.00439 L 215.8128 50.125 L 215.1288 48.24561 L 213.8432 46.71353 L 212.5576 45.18146 M 215.1288 48.24561 L 214.4447 46.36621 L 213.7607 44.48682 L 213.7607 42.48682 L 213.7607 40.48682 M 213.7607 44.48682 L 212.4751 42.95474 L 211.1895 41.42267 M 205.5522 98.07471 L 206.8378 96.54263 L 208.1234 95.01056 L 209.4089 93.47849 L 210.6945 91.94641 L 211.9801 90.41434 L 213.2657 88.88226 L 214.5512 87.35019 L 215.8368 85.81812 L 217.1224 84.28604 L 218.4079 82.75397 L 219.6935 81.22189 L 220.9791 79.68982 L 222.2647 78.15775 L 223.5502 76.62567 L 224.8358 75.0936 L 226.1214 73.56152 L 227.8534 72.56152 L 229.5855 71.56152 L 231.3175 70.56152 L 233.0496 69.56152 L 234.7816 68.56152 L 236.5137 67.56152 L 238.2457 66.56152 L 239.9778 65.56152 L 241.2633 64.02945 L 242.5489 62.49738 L 243.8345 60.9653 L 245.1201 59.43323 L 245.8041 57.55383 L 246.4881 55.67444 L 246.4881 53.67444 L 246.4881 51.67444 M 246.4881 55.67444 L 247.1722 53.79504 L 247.8562 51.91565 L 249.1418 50.38358 L 250.4274 48.8515 M 247.8562 51.91565 L 247.8562 49.91565 L 247.8562 47.91565 M 245.1201 59.43323 L 246.4056 57.90115 L 247.6912 56.36908 L 248.9768 54.83701 L 250.2623 53.30493 L 251.9944 52.30493 L 253.7264 51.30493 L 255.012 49.77286 L 256.2976 48.24078 M 253.7264 51.30493 L 255.4585 50.30493 L 257.1906 49.30493 L 259.1602 48.95764 L 261.1298 48.61035 M 257.1906 49.30493 L 258.4761 47.77286 L 259.7617 46.24078 M 250.2623 53.30493 L 250.9464 51.42554 L 251.6304 49.54614 L 251.6304 47.54614 L 251.6304 45.54614 M 251.6304 49.54614 L 252.3145 47.66675 L 252.9985 45.78735 L 254.2841 44.25528 L 255.5697 42.72321 M 252.9985 45.78735 L 252.9985 43.78735 L 252.9985 41.78735 M 239.9778 65.56152 L 241.7098 64.56152 L 243.4418 63.56152 L 245.1739 62.56152 L 246.9059 61.56152 L 248.638 60.56152 L 250.3701 59.56152 L 252.1021 58.56152 L 253.8342 57.56152 L 255.8038 57.21423 L 257.7734 56.86694 L 259.743 56.51965 L 261.7126 56.17236 L 263.4446 55.17236 L 265.1767 54.17236 L 266.4623 52.64029 L 267.7478 51.10822 M 265.1767 54.17236 L 266.9088 53.17236 L 268.6408 52.17236 L 270.6104 51.82507 L 272.58 51.47778 M 268.6408 52.17236 L 269.9264 50.64029 L 271.2119 49.10822 M 261.7126 56.17236 L 263.6822 55.82507 L 265.6518 55.47778 L 267.6215 55.13049 L 269.5911 54.7832 L 271.5607 55.13049 L 273.5303 55.47778 L 275.4999 55.13049 L 277.4695 54.7832 M 273.5303 55.47778 L 275.4999 55.82507 L 277.4695 56.17236 L 279.2016 57.17236 L 280.9337 58.17236 M 277.4695 56.17236 L 279.4391 55.82507 L 281.4088 55.47778 M 269.5911 54.7832 L 271.3231 53.7832 L 273.0552 52.7832 L 274.3408 51.25113 L 275.6263 49.71906 M 273.0552 52.7832 L 274.7872 51.7832 L 276.5193 50.7832 L 278.4889 50.43591 L 280.4585 50.08862 M 276.5193 50.7832 L 277.8049 49.25113 L 279.0904 47.71906 M 253.8342 57.56152 L 255.1197 56.02945 L 256.4053 54.49738 L 257.6909 52.9653 L 258.9764 51.43323 L 259.6605 49.55383 L 260.3445 47.67444 L 260.3445 45.67444 L 260.3445 43.67444 M 260.3445 47.67444 L 261.0286 45.79504 L 261.7126 43.91565 L 262.9982 42.38358 L 264.2838 40.8515 M 261.7126 43.91565 L 261.7126 41.91565 L 261.7126 39.91565 M 258.9764 51.43323 L 260.262 49.90115 L 261.5476 48.36908 L 262.8332 46.83701 L 264.1187 45.30493 L 265.8508 44.30493 L 267.5828 43.30493 L 268.8684 41.77286 L 270.154 40.24078 M 267.5828 43.30493 L 269.3149 42.30493 L 271.0469 41.30493 L 273.0166 40.95764 L 274.9862 40.61035 M 271.0469 41.30493 L 272.3325 39.77286 L 273.6181 38.24078 M 264.1187 45.30493 L 264.8028 43.42554 L 265.4868 41.54614 L 265.4868 39.54614 L 265.4868 37.54614 M 265.4868 41.54614 L 266.1709 39.66675 L 266.8549 37.78735 L 268.1405 36.25528 L 269.4261 34.72321 M 266.8549 37.78735 L 266.8549 35.78735 L 266.8549 33.78735 M 226.1214 73.56152 L 226.8054 71.68213 L 227.4895 69.80273 L 228.1735 67.92334 L 228.8576 66.04395 L 229.5416 64.16455 L 230.2257 62.28516 L 230.9097 60.40576 L 231.5938 58.52637 L 231.5938 56.52637 L 231.5938 54.52637 L 231.5938 52.52637 L 231.5938 50.52637 L 230.9097 48.64697 L 230.2256 46.76758 L 228.9401 45.2355 L 227.6545 43.70343 M 230.2256 46.76758 L 229.5416 44.88818 L 228.8576 43.00879 L 228.8576 41.00879 L 228.8576 39.00879 M 228.8576 43.00879 L 227.572 41.47672 L 226.2864 39.94464 M 231.5938 50.52637 L 231.5938 48.52637 L 231.5938 46.52637 L 231.5938 44.52637 L 231.5938 42.52637 L 232.2778 40.64697 L 232.9618 38.76758 L 232.9618 36.76758 L 232.9618 34.76758 M 232.9618 38.76758 L 233.6459 36.88818 L 234.3299 35.00879 L 235.6155 33.47672 L 236.9011 31.94464 M 234.3299 35.00879 L 234.3299 33.00879 L 234.3299 31.00879 M 231.5938 42.52637 L 230.9097 40.64697 L 230.2256 38.76758 L 228.9401 37.2355 L 227.6545 35.70343 M 230.2256 38.76758 L 229.5416 36.88818 L 228.8576 35.00879 L 228.8576 33.00879 L 228.8576 31.00879 M 228.8576 35.00879 L 227.572 33.47672 L 226.2864 31.94464 M 231.5938 58.52637 L 232.2778 56.64697 L 232.9618 54.76758 L 233.6459 52.88818 L 234.3299 51.00879 L 235.0139 49.12939 L 235.698 47.25 L 236.382 45.37061 L 237.0661 43.49121 L 238.3517 41.95914 L 239.6372 40.42706 L 240.9228 38.89499 L 242.2084 37.36292 L 242.8924 35.48352 L 243.5765 33.60413 L 243.5765 31.60413 L 243.5765 29.60413 M 243.5765 33.60413 L 244.2605 31.72473 L 244.9445 29.84534 L 246.2301 28.31326 L 247.5157 26.78119 M 244.9445 29.84534 L 244.9445 27.84534 L 244.9445 25.84534 M 242.2084 37.36292 L 243.494 35.83084 L 244.7795 34.29877 L 246.0651 32.76669 L 247.3507 31.23462 L 249.0827 30.23462 L 250.8148 29.23462 L 252.1003 27.70255 L 253.3859 26.17047 M 250.8148 29.23462 L 252.5468 28.23462 L 254.2789 27.23462 L 256.2485 26.88733 L 258.2181 26.54004 M 254.2789 27.23462 L 255.5644 25.70255 L 256.85 24.17047 M 247.3507 31.23462 L 248.0347 29.35522 L 248.7188 27.47583 L 248.7188 25.47583 L 248.7188 23.47583 M 248.7188 27.47583 L 249.4028 25.59644 L 250.0869 23.71704 L 251.3724 22.18497 L 252.658 20.65289 M 250.0869 23.71704 L 250.0869 21.71704 L 250.0869 19.71704 M 237.0661 43.49121 L 237.0661 41.49121 L 237.0661 39.49121 L 237.0661 37.49121 L 237.0661 35.49121 L 236.382 33.61182 L 235.698 31.73242 L 234.4124 30.20035 L 233.1268 28.66827 M 235.698 31.73242 L 235.0139 29.85303 L 234.3299 27.97363 L 234.3299 25.97363 L 234.3299 23.97363 M 234.3299 27.97363 L 233.0443 26.44156 L 231.7588 24.90948 M 237.0661 35.49121 L 237.0661 33.49121 L 237.0661 31.49121 L 237.0661 29.49121 L 237.0661 27.49121 L 237.7501 25.61182 L 238.4342 23.73242 L 238.4342 21.73242 L 238.4342 19.73242 M 238.4342 23.73242 L 239.1182 21.85303 L 239.8022 19.97363 L 241.0878 18.44156 L 242.3734 16.90948 M 239.8022 19.97363 L 239.8022 17.97363 L 239.8022 15.97363 M 237.0661 27.49121 L 236.382 25.61182 L 235.698 23.73242 L 234.4124 22.20035 L 233.1268 20.66827 M 235.698 23.73242 L 235.0139 21.85303 L 234.3299 19.97363 L 234.3299 17.97363 L 234.3299 15.97363 M 234.3299 19.97363 L 233.0443 18.44156 L 231.7588 16.90948 M 184.983 122.5879 L 184.983 120.5879 L 184.983 118.5879 L 184.983 116.5879 L 184.983 114.5879 L 184.983 112.5879 L 184.983 110.5879 L 184.983 108.5879 L 184.983 106.5879 L 184.983 104.5879 L 184.983 102.5879 L 184.983 100.5879 L 184.983 98.58789 L 184.983 96.58789 L 184.983 94.58789 L 184.983 92.58789 L 184.983 90.58789 L 184.2989 88.7085 L 183.6149 86.8291 L 182.9308 84.94971 L 182.2468 83.07031 L 181.5627 81.19092 L 180.8787 79.31152 L 180.1947 77.43213 L 179.5106 75.55273 L 178.2251 74.02066 L 176.9395 72.48859 L 175.6539 70.95651 L 174.3683 69.42444 L 172.6363 68.42444 L 170.9042 67.42444 L 168.9346 67.07715 L 166.965 66.72986 M 170.9042 67.42444 L 169.1722 66.42444 L 167.4401 65.42444 L 166.1545 63.89236 L 164.869 62.36029 M 167.4401 65.42444 L 165.4705 65.07715 L 163.5009 64.72986 M 174.3683 69.42444 L 173.0827 67.89236 L 171.7972 66.36029 L 170.5116 64.82822 L 169.226 63.29614 L 168.542 61.41675 L 167.8579 59.53735 L 166.5723 58.00528 L 165.2868 56.47321 M 167.8579 59.53735 L 167.1739 57.65796 L 166.4898 55.77856 L 166.4898 53.77856 L 166.4898 51.77856 M 166.4898 55.77856 L 165.2043 54.24649 L 163.9187 52.71442 M 169.226 63.29614 L 167.494 62.29614 L 165.7619 61.29614 L 163.7923 60.94885 L 161.8227 60.60156 M 165.7619 61.29614 L 164.0298 60.29614 L 162.2978 59.29614 L 161.0122 57.76407 L 159.7266 56.23199 M 162.2978 59.29614 L 160.3282 58.94885 L 158.3586 58.60156 M 179.5106 75.55273 L 178.8266 73.67334 L 178.1425 71.79395 L 177.4585 69.91455 L 176.7745 68.03516 L 176.0904 66.15576 L 175.4064 64.27637 L 174.7224 62.39697 L 174.0383 60.51758 L 174.0383 58.51758 L 174.0383 56.51758 L 174.0383 54.51758 L 174.0383 52.51758 L 173.3543 50.63818 L 172.6702 48.75879 L 171.3846 47.22672 L 170.0991 45.69464 M 172.6702 48.75879 L 171.9862 46.87939 L 171.3022 45 L 171.3022 43 L 171.3022 41 M 171.3022 45 L 170.0166 43.46793 L 168.731 41.93585 M 174.0383 52.51758 L 174.0383 50.51758 L 174.0383 48.51758 L 174.0383 46.51758 L 174.0383 44.51758 L 174.7224 42.63818 L 175.4064 40.75879 L 175.4064 38.75879 L 175.4064 36.75879 M 175.4064 40.75879 L 176.0904 38.87939 L 176.7745 37 L 178.0601 35.46793 L 179.3456 33.93585 M 176.7745 37 L 176.7745 35 L 176.7745 33 M 174.0383 44.51758 L 173.3543 42.63818 L 172.6702 40.75879 L 171.3846 39.22672 L 170.0991 37.69464 M 172.6702 40.75879 L 171.9862 38.87939 L 171.3022 37 L 171.3022 35 L 171.3022 33 M 171.3022 37 L 170.0166 35.46793 L 168.731 33.93585 M 174.0383 60.51758 L 172.7527 58.9855 L 171.4671 57.45343 L 170.1816 55.92136 L 168.896 54.38928 L 167.1639 53.38928 L 165.4319 52.38928 L 163.4623 52.04199 L 161.4926 51.6947 M 165.4319 52.38928 L 163.6998 51.38928 L 161.9678 50.38928 L 160.6822 48.85721 L 159.3966 47.32513 M 161.9678 50.38928 L 159.9982 50.04199 L 158.0285 49.6947 M 168.896 54.38928 L 167.6104 52.85721 L 166.3248 51.32513 L 165.0392 49.79306 L 163.7537 48.26099 L 163.0696 46.38159 L 162.3856 44.5022 L 161.1 42.97012 L 159.8144 41.43805 M 162.3856 44.5022 L 161.7016 42.6228 L 161.0175 40.74341 L 161.0175 38.74341 L 161.0175 36.74341 M 161.0175 40.74341 L 159.7319 39.21133 L 158.4464 37.67926 M 163.7537 48.26099 L 162.0216 47.26099 L 160.2896 46.26099 L 158.3199 45.9137 L 156.3503 45.56641 M 160.2896 46.26099 L 158.5575 45.26099 L 156.8255 44.26099 L 155.5399 42.72891 L 154.2543 41.19684 M 156.8255 44.26099 L 154.8559 43.9137 L 152.8862 43.56641 M 184.983 90.58789 L 184.983 88.58789 L 184.983 86.58789 L 184.983 84.58789 L 184.983 82.58789 L 184.983 80.58789 L 184.983 78.58789 L 184.983 76.58789 L 184.983 74.58789 L 184.983 72.58789 L 184.983 70.58789 L 184.983 68.58789 L 184.983 66.58789 L 184.983 64.58789 L 184.983 62.58789 L 184.983 60.58789 L 184.983 58.58789 L 185.667 56.7085 L 186.351 54.8291 L 187.0351 52.94971 L 187.7191 51.07031 L 188.4032 49.19092 L 189.0872 47.31152 L 189.7712 45.43213 L 190.4553 43.55273 L 190.4553 41.55273 L 190.4553 39.55273 L 190.4553 37.55273 L 190.4553 35.55273 L 189.7712 33.67334 L 189.0872 31.79395 L 187.8016 30.26187 L 186.516 28.7298 M 189.0872 31.79395 L 188.4032 29.91455 L 187.7191 28.03516 L 187.7191 26.03516 L 187.7191 24.03516 M 187.7191 28.03516 L 186.4335 26.50308 L 185.148 24.97101 M 190.4553 35.55273 L 190.4553 33.55273 L 190.4553 31.55273 L 190.4553 29.55273 L 190.4553 27.55273 L 191.1393 25.67334 L 191.8233 23.79395 L 191.8233 21.79395 L 191.8233 19.79395 M 191.8233 23.79395 L 192.5074 21.91455 L 193.1914 20.03516 L 194.477 18.50308 L 195.7626 16.97101 M 193.1914 20.03516 L 193.1914 18.03516 L 193.1914 16.03516 M 190.4553 27.55273 L 189.7712 25.67334 L 189.0872 23.79395 L 187.8016 22.26187 L 186.516 20.7298 M 189.0872 23.79395 L 188.4032 21.91455 L 187.7191 20.03516 L 187.7191 18.03516 L 187.7191 16.03516 M 187.7191 20.03516 L 186.4335 18.50308 L 185.148 16.97101 M 190.4553 43.55273 L 191.1393 41.67334 L 191.8233 39.79395 L 192.5074 37.91455 L 193.1914 36.03516 L 193.8755 34.15576 L 194.5595 32.27637 L 195.2436 30.39697 L 195.9276 28.51758 L 197.2132 26.9855 L 198.4987 25.45343 L 199.7843 23.92136 L 201.0699 22.38928 L 201.754 20.50989 L 202.438 18.63049 L 202.438 16.63049 L 202.438 14.63049 M 202.438 18.63049 L 203.122 16.7511 L 203.8061 14.8717 L 205.0916 13.33963 L 206.3772 11.80756 M 203.8061 14.8717 L 203.8061 12.8717 L 203.8061 10.8717 M 201.0699 22.38928 L 202.3555 20.85721 L 203.6411 19.32513 L 204.9267 17.79306 L 206.2122 16.26099 L 207.9443 15.26099 L 209.6763 14.26099 L 210.9619 12.72891 L 212.2475 11.19684 M 209.6763 14.26099 L 211.4084 13.26099 L 213.1404 12.26099 L 215.11 11.9137 L 217.0797 11.56641 M 213.1404 12.26099 L 214.426 10.72891 L 215.7116 9.196838 M 206.2122 16.26099 L 206.8963 14.38159 L 207.5803 12.5022 L 207.5803 10.5022 L 207.5803 8.502197 M 207.5803 12.5022 L 208.2644 10.6228 L 208.9484 8.743408 L 210.234 7.211334 L 211.5196 5.67926 M 208.9484 8.743408 L 208.9484 6.743408 L 208.9484 4.743408 M 195.9276 28.51758 L 195.9276 26.51758 L 195.9276 24.51758 L 195.9276 22.51758 L 195.9276 20.51758 L 195.2436 18.63818 L 194.5595 16.75879 L 193.2739 15.22672 L 191.9884 13.69464 M 194.5595 16.75879 L 193.8755 14.87939 L 193.1914 13 L 193.1914 11 L 193.1914 9 M 193.1914 13 L 191.9059 11.46793 L 190.6203 9.935852 M 195.9276 20.51758 L 195.9276 18.51758 L 195.9276 16.51758 L 195.9276 14.51758 L 195.9276 12.51758 L 196.6116 10.63818 L 197.2957 8.758789 L 197.2957 6.758789 L 197.2957 4.758789 M 197.2957 8.758789 L 197.9797 6.879395 L 198.6638 5 L 199.9493 3.467926 L 201.2349 1.935852 M 198.6638 5 L 198.6638 3 L 198.6638 1 M 195.9276 12.51758 L 195.2436 10.63818 L 194.5595 8.758789 L 193.2739 7.226715 L 191.9884 5.694641 M 194.5595 8.758789 L 193.8755 6.879395 L 193.1914 5 L 193.1914 3 L 193.1914 1 M 193.1914 5 L 191.9059 3.467926 L 190.6203 1.935852 M 184.983 58.58789 L 184.2989 56.7085 L 183.6149 54.8291 L 182.9308 52.94971 L 182.2468 51.07031 L 181.5627 49.19092 L 180.8787 47.31152 L 180.1947 45.43213 L 179.5106 43.55273 L 178.2251 42.02066 L 176.9395 40.48859 L 175.6539 38.95651 L 174.3683 37.42444 L 172.6363 36.42444 L 170.9042 35.42444 L 168.9346 35.07715 L 166.965 34.72986 M 170.9042 35.42444 L 169.1722 34.42444 L 167.4401 33.42444 L 166.1545 31.89236 L 164.869 30.36029 M 167.4401 33.42444 L 165.4705 33.07715 L 163.5009 32.72986 M 174.3683 37.42444 L 173.0827 35.89236 L 171.7972 34.36029 L 170.5116 32.82822 L 169.226 31.29614 L 168.542 29.41675 L 167.8579 27.53735 L 166.5723 26.00528 L 165.2868 24.47321 M 167.8579 27.53735 L 167.1739 25.65796 L 166.4898 23.77856 L 166.4898 21.77856 L 166.4898 19.77856 M 166.4898 23.77856 L 165.2043 22.24649 L 163.9187 20.71442 M 169.226 31.29614 L 167.494 30.29614 L 165.7619 29.29614 L 163.7923 28.94885 L 161.8227 28.60156 M 165.7619 29.29614 L 164.0298 28.29614 L 162.2978 27.29614 L 161.0122 25.76407 L 159.7266 24.23199 M 162.2978 27.29614 L 160.3282 26.94885 L 158.3586 26.60156 M 179.5106 43.55273 L 178.8266 41.67334 L 178.1425 39.79395 L 177.4585 37.91455 L 176.7745 36.03516 L 176.0904 34.15576 L 175.4064 32.27637 L 174.7224 30.39697 L 174.0383 28.51758 L 174.0383 26.51758 L 174.0383 24.51758 L 174.0383 22.51758 L 174.0383 20.51758 L 173.3543 18.63818 L 172.6702 16.75879 L 171.3846 15.22672 L 170.0991 13.69464 M 172.6702 16.75879 L 171.9862 14.87939 L 171.3022 13 L 171.3022 11 L 171.3022 9 M 171.3022 13 L 170.0166 11.46793 L 168.731 9.935852 M 174.0383 20.51758 L 174.0383 18.51758 L 174.0383 16.51758 L 174.0383 14.51758 L 174.0383 12.51758 L 174.7224 10.63818 L 175.4064 8.758789 L 175.4064 6.758789 L 175.4064 4.758789 M 175.4064 8.758789 L 176.0904 6.879395 L 176.7745 5 L 178.0601 3.467926 L 179.3456 1.935852 M 176.7745 5 L 176.7745 3 L 176.7745 1 M 174.0383 12.51758 L 173.3543 10.63818 L 172.6702 8.758789 L 171.3846 7.226715 L 170.0991 5.694641 M 172.6702 8.758789 L 171.9862 6.879395 L 171.3022 5 L 171.3022 3 L 171.3022 1 M 171.3022 5 L 170.0166 3.467926 L 168.731 1.935852 M 174.0383 28.51758 L 172.7527 26.9855 L 171.4671 25.45343 L 170.1816 23.92136 L 168.896 22.38928 L 167.1639 21.38928 L 165.4319 20.38928 L 163.4623 20.04199 L 161.4926 19.6947 M 165.4319 20.38928 L 163.6998 19.38928 L 161.9678 18.38928 L 160.6822 16.85721 L 159.3966 15.32513 M 161.9678 18.38928 L 159.9982 18.04199 L 158.0285 17.6947 M 168.896 22.38928 L 167.6104 20.85721 L 166.3248 19.32513 L 165.0392 17.79306 L 163.7537 16.26099 L 163.0696 14.38159 L 162.3856 12.5022 L 161.1 10.97012 L 159.8144 9.438049 M 162.3856 12.5022 L 161.7016 10.6228 L 161.0175 8.743408 L 161.0175 6.743408 L 161.0175 4.743408 M 161.0175 8.743408 L 159.7319 7.211334 L 158.4464 5.67926 M 163.7537 16.26099 L 162.0216 15.26099 L 160.2896 14.26099 L 158.3199 13.9137 L 156.3503 13.56641 M 160.2896 14.26099 L 158.5575 13.26099 L 156.8255 12.26099 L 155.5399 10.72891 L 154.2543 9.196838 M 156.8255 12.26099 L 154.8559 11.9137 L 152.8862 11.56641 M 141.2044 242.8691 L 140.5204 240.9897 L 139.8363 239.1104 L 139.1523 237.231 L 138.4682 235.3516 L 137.7842 233.4722 L 137.1002 231.5928 L 136.4161 229.7134 L 135.7321 227.834 L 135.048 225.9546 L 134.364 224.0752 L 133.6799 222.1958 L 132.9959 220.3164 L 132.3119 218.437 L 131.6278 216.5576 L 130.9438 214.6782 L 130.2598 212.7988 L 129.5757 210.9194 L 128.8917 209.04 L 128.2076 207.1606 L 127.5236 205.2813 L 126.8396 203.4019 L 126.1555 201.5225 L 125.4715 199.6431 L 124.7874 197.7637 L 124.1034 195.8843 L 123.4193 194.0049 L 122.7353 192.1255 L 122.0513 190.2461 L 121.3672 188.3667 L 120.6832 186.4873 L 119.9992 184.6079 L 119.3151 182.7285 L 118.0295 181.1964 L 116.7439 179.6644 L 115.4584 178.1323 L 114.1728 176.6002 L 112.8872 175.0681 L 111.6016 173.5361 L 110.3161 172.004 L 109.0305 170.4719 L 107.7449 168.9398 L 106.4593 167.4078 L 105.1737 165.8757 L 103.8882 164.3436 L 102.6026 162.8116 L 101.317 161.2795 L 100.0314 159.7474 L 98.74584 158.2153 L 97.01379 157.2153 L 95.28174 156.2153 L 93.54969 155.2153 L 91.81764 154.2153 L 90.08559 153.2153 L 88.35355 152.2153 L 86.62149 151.2153 L 84.88944 150.2153 L 82.91983 149.868 L 80.95021 149.5208 L 78.98059 149.1735 L 77.01098 148.8262 L 75.04137 149.1735 L 73.07176 149.5208 L 71.33971 150.5208 L 69.60766 151.5208 M 73.07176 149.5208 L 71.10215 149.868 L 69.13254 150.2153 L 67.16292 149.868 L 65.1933 149.5208 M 69.13254 150.2153 L 67.40049 151.2153 L 65.66844 152.2153 M 77.01098 148.8262 L 75.04137 148.4789 L 73.07176 148.1316 L 71.10215 147.7843 L 69.13254 147.437 L 67.40049 146.437 L 65.66844 145.437 L 63.69883 145.0897 L 61.72923 144.7424 M 65.66844 145.437 L 63.93639 144.437 L 62.20434 143.437 L 60.91876 141.9049 L 59.63318 140.3729 M 62.20434 143.437 L 60.23472 143.0897 L 58.2651 142.7424 M 69.13254 147.437 L 67.16292 147.7843 L 65.1933 148.1316 L 63.46125 149.1316 L 61.7292 150.1316 M 65.1933 148.1316 L 63.22368 148.4789 L 61.25406 148.8262 L 59.28445 148.4789 L 57.31484 148.1316 M 61.25406 148.8262 L 59.52201 149.8262 L 57.78996 150.8262 M 84.88944 150.2153 L 83.15739 149.2153 L 81.42534 148.2153 L 79.69329 147.2153 L 77.96124 146.2153 L 76.22919 145.2153 L 74.49715 144.2153 L 72.7651 143.2153 L 71.03305 142.2153 L 69.74747 140.6833 L 68.4619 139.1512 L 67.17632 137.6191 L 65.89075 136.087 L 64.15871 135.087 L 62.42666 134.087 L 60.45705 133.7397 L 58.48744 133.3925 M 62.42666 134.087 L 60.69461 133.087 L 58.96256 132.087 L 57.67699 130.555 L 56.39142 129.0229 M 58.96256 132.087 L 56.99295 131.7397 L 55.02334 131.3925 M 65.89075 136.087 L 64.60518 134.555 L 63.3196 133.0229 L 62.03403 131.4908 L 60.74846 129.9587 L 60.06441 128.0793 L 59.38037 126.2 L 58.0948 124.6679 L 56.80922 123.1358 M 59.38037 126.2 L 58.69633 124.3206 L 58.01229 122.4412 L 58.01229 120.4412 L 58.01229 118.4412 M 58.01229 122.4412 L 56.72672 120.9091 L 55.44114 119.377 M 60.74846 129.9587 L 59.01641 128.9587 L 57.28436 127.9587 L 55.31475 127.6115 L 53.34514 127.2642 M 57.28436 127.9587 L 55.55231 126.9587 L 53.82027 125.9587 L 52.5347 124.4267 L 51.24912 122.8946 M 53.82027 125.9587 L 51.85066 125.6115 L 49.88105 125.2642 M 71.03305 142.2153 L 69.06344 141.868 L 67.09382 141.5208 L 65.12421 141.1735 L 63.1546 140.8262 L 61.18499 141.1735 L 59.21538 141.5208 L 57.48333 142.5208 L 55.75128 143.5208 M 59.21538 141.5208 L 57.24576 141.868 L 55.27614 142.2153 L 53.30652 141.868 L 51.3369 141.5208 M 55.27614 142.2153 L 53.54409 143.2153 L 51.81204 144.2153 M 63.1546 140.8262 L 61.18499 140.4789 L 59.21538 140.1316 L 57.24576 139.7843 L 55.27614 139.437 L 53.54409 138.437 L 51.81204 137.437 L 49.84243 137.0897 L 47.87282 136.7424 M 51.81204 137.437 L 50.07999 136.437 L 48.34794 135.437 L 47.06236 133.9049 L 45.77679 132.3729 M 48.34794 135.437 L 46.37832 135.0897 L 44.40871 134.7424 M 55.27614 139.437 L 53.30652 139.7843 L 51.3369 140.1316 L 49.60485 141.1316 L 47.8728 142.1316 M 51.3369 140.1316 L 49.36729 140.4789 L 47.39768 140.8262 L 45.42807 140.4789 L 43.45846 140.1316 M 47.39768 140.8262 L 45.66563 141.8262 L 43.93358 142.8262 M 98.74584 158.2153 L 97.46027 156.6833 L 96.17468 155.1512 L 94.88911 153.6191 L 93.60353 152.087 L 92.31795 150.555 L 91.03237 149.0229 L 89.7468 147.4908 L 88.46121 145.9587 L 87.17563 144.4267 L 85.89006 142.8946 L 84.60448 141.3625 L 83.3189 139.8304 L 82.03333 138.2984 L 80.74774 136.7663 L 79.46216 135.2342 L 78.17658 133.7021 L 77.49254 131.8228 L 76.8085 129.9434 L 76.12446 128.064 L 75.44041 126.1846 L 74.75637 124.3052 L 74.07233 122.4258 L 73.38829 120.5464 L 72.70425 118.667 L 71.41868 117.1349 L 70.1331 115.6028 L 68.84753 114.0708 L 67.56196 112.5387 L 65.82991 111.5387 L 64.09786 110.5387 L 62.12825 110.1914 L 60.15864 109.8441 M 64.09786 110.5387 L 62.36581 109.5387 L 60.63376 108.5387 L 59.34818 107.0066 L 58.06261 105.4745 M 60.63376 108.5387 L 58.66414 108.1914 L 56.69453 107.8441 M 67.56196 112.5387 L 66.27638 111.0066 L 64.99081 109.4745 L 63.70524 107.9425 L 62.41966 106.4104 L 61.73562 104.531 L 61.05157 102.6516 L 59.766 101.1195 L 58.48042 99.58746 M 61.05157 102.6516 L 60.36753 100.7722 L 59.68349 98.89282 L 59.68349 96.89282 L 59.68349 94.89282 M 59.68349 98.89282 L 58.39792 97.36075 L 57.11234 95.82867 M 62.41966 106.4104 L 60.68761 105.4104 L 58.95556 104.4104 L 56.98595 104.0631 L 55.01634 103.7158 M 58.95556 104.4104 L 57.22351 103.4104 L 55.49146 102.4104 L 54.20589 100.8783 L 52.92032 99.34625 M 55.49146 102.4104 L 53.52185 102.0631 L 51.55224 101.7158 M 72.70425 118.667 L 72.02021 116.7876 L 71.33616 114.9082 L 70.65211 113.0288 L 69.96807 111.1494 L 69.28403 109.27 L 68.59999 107.3906 L 67.91595 105.5112 L 67.23191 103.6318 L 67.23191 101.6318 L 67.23191 99.63184 L 67.23191 97.63184 L 67.23191 95.63184 L 66.54787 93.75244 L 65.86383 91.87305 L 64.57825 90.34097 L 63.29268 88.8089 M 65.86383 91.87305 L 65.17979 89.99365 L 64.49575 88.11426 L 64.49575 86.11426 L 64.49575 84.11426 M 64.49575 88.11426 L 63.21017 86.58218 L 61.9246 85.05011 M 67.23191 95.63184 L 67.23191 93.63184 L 67.23191 91.63184 L 67.23191 89.63184 L 67.23191 87.63184 L 67.91595 85.75244 L 68.6 83.87305 L 68.6 81.87305 L 68.6 79.87305 M 68.6 83.87305 L 69.28404 81.99365 L 69.96808 80.11426 L 71.25365 78.58218 L 72.53923 77.05011 M 69.96808 80.11426 L 69.96808 78.11426 L 69.96808 76.11426 M 67.23191 87.63184 L 66.54787 85.75244 L 65.86383 83.87305 L 64.57825 82.34097 L 63.29268 80.8089 M 65.86383 83.87305 L 65.17979 81.99365 L 64.49575 80.11426 L 64.49575 78.11426 L 64.49575 76.11426 M 64.49575 80.11426 L 63.21017 78.58218 L 61.9246 77.05011 M 67.23191 103.6318 L 65.94633 102.0998 L 64.66076 100.5677 L 63.37518 99.03561 L 62.08961 97.50354 L 60.35757 96.50354 L 58.62552 95.50354 L 56.65591 95.15625 L 54.6863 94.80896 M 58.62552 95.50354 L 56.89347 94.50354 L 55.16142 93.50354 L 53.87585 91.97147 L 52.59028 90.43939 M 55.16142 93.50354 L 53.19181 93.15625 L 51.2222 92.80896 M 62.08961 97.50354 L 60.80404 95.97147 L 59.51846 94.43939 L 58.23289 92.90732 L 56.94732 91.37524 L 56.26328 89.49585 L 55.57923 87.61646 L 54.29365 86.08438 L 53.00807 84.55231 M 55.57923 87.61646 L 54.8952 85.73706 L 54.21115 83.85767 L 54.21115 81.85767 L 54.21115 79.85767 M 54.21115 83.85767 L 52.92558 82.32559 L 51.64 80.79352 M 56.94732 91.37524 L 55.21527 90.37524 L 53.48322 89.37524 L 51.51361 89.02795 L 49.544 88.68066 M 53.48322 89.37524 L 51.75117 88.37524 L 50.01913 87.37524 L 48.73356 85.84317 L 47.44798 84.3111 M 50.01913 87.37524 L 48.04952 87.02795 L 46.07991 86.68066 M 78.17658 133.7021 L 76.44453 132.7021 L 74.71248 131.7021 L 72.98043 130.7021 L 71.24838 129.7021 L 69.51633 128.7021 L 67.78429 127.7021 L 66.05224 126.7021 L 64.32019 125.7021 L 62.35058 125.3549 L 60.38096 125.0076 L 58.41134 124.6603 L 56.44173 124.313 L 54.47212 124.6603 L 52.50251 125.0076 L 50.77046 126.0076 L 49.03841 127.0076 M 52.50251 125.0076 L 50.5329 125.3549 L 48.56328 125.7021 L 46.59366 125.3549 L 44.62404 125.0076 M 48.56328 125.7021 L 46.83123 126.7021 L 45.09918 127.7021 M 56.44173 124.313 L 54.47212 123.9657 L 52.50251 123.6184 L 50.5329 123.2711 L 48.56328 122.9238 L 46.83123 121.9238 L 45.09918 120.9238 L 43.12957 120.5765 L 41.15996 120.2292 M 45.09918 120.9238 L 43.36713 119.9238 L 41.63508 118.9238 L 40.3495 117.3918 L 39.06393 115.8597 M 41.63508 118.9238 L 39.66546 118.5765 L 37.69585 118.2292 M 48.56328 122.9238 L 46.59366 123.2711 L 44.62404 123.6184 L 42.89199 124.6184 L 41.15994 125.6184 M 44.62404 123.6184 L 42.65443 123.9657 L 40.68482 124.313 L 38.71521 123.9657 L 36.7456 123.6184 M 40.68482 124.313 L 38.95277 125.313 L 37.22072 126.313 M 64.32019 125.7021 L 62.58814 124.7021 L 60.85609 123.7021 L 59.12404 122.7021 L 57.39199 121.7021 L 55.65994 120.7021 L 53.92789 119.7021 L 52.19585 118.7021 L 50.4638 117.7021 L 49.17822 116.1701 L 47.89265 114.638 L 46.60708 113.1059 L 45.3215 111.5739 L 43.58945 110.5739 L 41.85741 109.5739 L 39.8878 109.2266 L 37.91819 108.8793 M 41.85741 109.5739 L 40.12536 108.5739 L 38.39331 107.5739 L 37.10773 106.0418 L 35.82216 104.5097 M 38.39331 107.5739 L 36.4237 107.2266 L 34.45408 106.8793 M 45.3215 111.5739 L 44.03593 110.0418 L 42.75036 108.5097 L 41.46478 106.9776 L 40.17921 105.4456 L 39.49517 103.5662 L 38.81113 101.6868 L 37.52556 100.1547 L 36.23998 98.62262 M 38.81113 101.6868 L 38.12709 99.80737 L 37.44305 97.92798 L 37.44305 95.92798 L 37.44305 93.92798 M 37.44305 97.92798 L 36.15748 96.3959 L 34.8719 94.86383 M 40.17921 105.4456 L 38.44716 104.4456 L 36.71511 103.4456 L 34.7455 103.0983 L 32.77589 102.751 M 36.71511 103.4456 L 34.98306 102.4456 L 33.25101 101.4456 L 31.96544 99.91348 L 30.67986 98.38141 M 33.25101 101.4456 L 31.2814 101.0983 L 29.31179 100.751 M 50.4638 117.7021 L 48.49418 117.3549 L 46.52457 117.0076 L 44.55496 116.6603 L 42.58535 116.313 L 40.61574 116.6603 L 38.64612 117.0076 L 36.91407 118.0076 L 35.18202 119.0076 M 38.64612 117.0076 L 36.6765 117.3549 L 34.70688 117.7021 L 32.73727 117.3549 L 30.76766 117.0076 M 34.70688 117.7021 L 32.97483 118.7021 L 31.24278 119.7021 M 42.58535 116.313 L 40.61574 115.9657 L 38.64612 115.6184 L 36.6765 115.2711 L 34.70688 114.9238 L 32.97483 113.9238 L 31.24278 112.9238 L 29.27317 112.5765 L 27.30356 112.2292 M 31.24278 112.9238 L 29.51073 111.9238 L 27.77869 110.9238 L 26.49312 109.3918 L 25.20754 107.8597 M 27.77869 110.9238 L 25.80908 110.5765 L 23.83947 110.2292 M 34.70688 114.9238 L 32.73727 115.2711 L 30.76766 115.6184 L 29.03561 116.6184 L 27.30356 117.6184 M 30.76766 115.6184 L 28.79805 115.9657 L 26.82844 116.313 L 24.85882 115.9657 L 22.8892 115.6184 M 26.82844 116.313 L 25.09639 117.313 L 23.36434 118.313 M 119.3151 182.7285 L 118.6311 180.8491 L 117.947 178.9697 L 117.263 177.0903 L 116.5789 175.2109 L 115.8949 173.3315 L 115.2109 171.4521 L 114.5268 169.5728 L 113.8428 167.6934 L 113.1588 165.814 L 112.4747 163.9346 L 111.7907 162.0552 L 111.1066 160.1758 L 110.4226 158.2964 L 109.7386 156.417 L 109.0545 154.5376 L 108.3705 152.6582 L 107.6864 150.7788 L 107.0024 148.8994 L 106.3184 147.02 L 105.6343 145.1406 L 104.9503 143.2612 L 104.2662 141.3818 L 103.5822 139.5024 L 102.8981 137.623 L 102.2141 135.7437 L 101.5301 133.8643 L 100.846 131.9849 L 100.162 130.1055 L 99.47795 128.2261 L 98.79391 126.3467 L 98.10987 124.4673 L 97.42583 122.5879 L 97.42583 120.5879 L 97.42583 118.5879 L 97.42583 116.5879 L 97.42583 114.5879 L 97.42583 112.5879 L 97.42583 110.5879 L 97.42583 108.5879 L 97.42583 106.5879 L 97.42583 104.5879 L 97.42583 102.5879 L 97.42583 100.5879 L 97.42583 98.58789 L 97.42583 96.58789 L 97.42583 94.58789 L 97.42583 92.58789 L 97.42583 90.58789 L 96.74179 88.7085 L 96.05775 86.8291 L 95.37371 84.94971 L 94.68967 83.07031 L 94.00563 81.19092 L 93.32159 79.31152 L 92.63755 77.43213 L 91.95351 75.55273 L 90.66793 74.02066 L 89.38235 72.48859 L 88.09677 70.95651 L 86.81119 69.42444 L 85.07914 68.42444 L 83.34709 67.42444 L 81.37747 67.07715 L 79.40785 66.72986 M 83.34709 67.42444 L 81.61504 66.42444 L 79.883 65.42444 L 78.59741 63.89236 L 77.31183 62.36029 M 79.883 65.42444 L 77.91338 65.07715 L 75.94375 64.72986 M 86.81119 69.42444 L 85.52561 67.89236 L 84.24004 66.36029 L 82.95445 64.82822 L 81.66888 63.29614 L 80.98484 61.41675 L 80.3008 59.53735 L 79.01522 58.00528 L 77.72964 56.47321 M 80.3008 59.53735 L 79.61676 57.65796 L 78.93272 55.77856 L 78.93272 53.77856 L 78.93272 51.77856 M 78.93272 55.77856 L 77.64714 54.24649 L 76.36156 52.71442 M 81.66888 63.29614 L 79.93683 62.29614 L 78.20478 61.29614 L 76.23517 60.94885 L 74.26555 60.60156 M 78.20478 61.29614 L 76.47273 60.29614 L 74.74068 59.29614 L 73.45511 57.76407 L 72.16953 56.23199 M 74.74068 59.29614 L 72.77107 58.94885 L 70.80146 58.60156 M 91.95351 75.55273 L 91.26947 73.67334 L 90.58543 71.79395 L 89.90139 69.91455 L 89.21735 68.03516 L 88.53331 66.15576 L 87.84927 64.27637 L 87.16523 62.39697 L 86.48119 60.51758 L 86.48119 58.51758 L 86.48119 56.51758 L 86.48119 54.51758 L 86.48119 52.51758 L 85.79715 50.63818 L 85.11311 48.75879 L 83.82753 47.22672 L 82.54195 45.69464 M 85.11311 48.75879 L 84.42908 46.87939 L 83.74503 45 L 83.74503 43 L 83.74503 41 M 83.74503 45 L 82.45946 43.46793 L 81.17388 41.93585 M 86.48119 52.51758 L 86.48119 50.51758 L 86.48119 48.51758 L 86.48119 46.51758 L 86.48119 44.51758 L 87.16523 42.63818 L 87.84927 40.75879 L 87.84927 38.75879 L 87.84927 36.75879 M 87.84927 40.75879 L 88.53331 38.87939 L 89.21735 37 L 90.50292 35.46793 L 91.7885 33.93585 M 89.21735 37 L 89.21735 35 L 89.21735 33 M 86.48119 44.51758 L 85.79715 42.63818 L 85.11311 40.75879 L 83.82753 39.22672 L 82.54195 37.69464 M 85.11311 40.75879 L 84.42908 38.87939 L 83.74503 37 L 83.74503 35 L 83.74503 33 M 83.74503 37 L 82.45946 35.46793 L 81.17388 33.93585 M 86.48119 60.51758 L 85.19561 58.9855 L 83.91003 57.45343 L 82.62445 55.92136 L 81.33887 54.38928 L 79.60683 53.38928 L 77.87477 52.38928 L 75.90516 52.04199 L 73.93555 51.6947 M 77.87477 52.38928 L 76.14272 51.38928 L 74.41068 50.38928 L 73.1251 48.85721 L 71.83952 47.32513 M 74.41068 50.38928 L 72.44106 50.04199 L 70.47145 49.6947 M 81.33887 54.38928 L 80.05329 52.85721 L 78.76772 51.32513 L 77.48213 49.79306 L 76.19655 48.26099 L 75.5125 46.38159 L 74.82846 44.5022 L 73.54288 42.97012 L 72.25731 41.43805 M 74.82846 44.5022 L 74.14442 42.6228 L 73.46038 40.74341 L 73.46038 38.74341 L 73.46038 36.74341 M 73.46038 40.74341 L 72.1748 39.21133 L 70.88923 37.67926 M 76.19655 48.26099 L 74.4645 47.26099 L 72.73245 46.26099 L 70.76284 45.9137 L 68.79323 45.56641 M 72.73245 46.26099 L 71.0004 45.26099 L 69.26835 44.26099 L 67.98277 42.72891 L 66.6972 41.19684 M 69.26835 44.26099 L 67.29874 43.9137 L 65.32913 43.56641 M 97.42583 90.58789 L 97.42583 88.58789 L 97.42583 86.58789 L 97.42583 84.58789 L 97.42583 82.58789 L 97.42583 80.58789 L 97.42583 78.58789 L 97.42583 76.58789 L 97.42583 74.58789 L 97.42583 72.58789 L 97.42583 70.58789 L 97.42583 68.58789 L 97.42583 66.58789 L 97.42583 64.58789 L 97.42583 62.58789 L 97.42583 60.58789 L 97.42583 58.58789 L 98.10987 56.7085 L 98.79391 54.8291 L 99.47795 52.94971 L 100.162 51.07031 L 100.846 49.19092 L 101.5301 47.31152 L 102.2141 45.43213 L 102.8981 43.55273 L 102.8981 41.55273 L 102.8981 39.55273 L 102.8981 37.55273 L 102.8981 35.55273 L 102.2141 33.67334 L 101.5301 31.79395 L 100.2445 30.26187 L 98.95891 28.7298 M 101.5301 31.79395 L 100.846 29.91455 L 100.162 28.03516 L 100.162 26.03516 L 100.162 24.03516 M 100.162 28.03516 L 98.87641 26.50308 L 97.59084 24.97101 M 102.8981 35.55273 L 102.8981 33.55273 L 102.8981 31.55273 L 102.8981 29.55273 L 102.8981 27.55273 L 103.5822 25.67334 L 104.2662 23.79395 L 104.2662 21.79395 L 104.2662 19.79395 M 104.2662 23.79395 L 104.9503 21.91455 L 105.6343 20.03516 L 106.9199 18.50308 L 108.2055 16.97101 M 105.6343 20.03516 L 105.6343 18.03516 L 105.6343 16.03516 M 102.8981 27.55273 L 102.2141 25.67334 L 101.5301 23.79395 L 100.2445 22.26187 L 98.95891 20.7298 M 101.5301 23.79395 L 100.846 21.91455 L 100.162 20.03516 L 100.162 18.03516 L 100.162 16.03516 M 100.162 20.03516 L 98.87641 18.50308 L 97.59084 16.97101 M 102.8981 43.55273 L 103.5822 41.67334 L 104.2662 39.79395 L 104.9503 37.91455 L 105.6343 36.03516 L 106.3184 34.15576 L 107.0024 32.27637 L 107.6864 30.39697 L 108.3705 28.51758 L 109.6561 26.9855 L 110.9416 25.45343 L 112.2272 23.92136 L 113.5128 22.38928 L 114.1968 20.50989 L 114.8809 18.63049 L 114.8809 16.63049 L 114.8809 14.63049 M 114.8809 18.63049 L 115.5649 16.7511 L 116.2489 14.8717 L 117.5345 13.33963 L 118.8201 11.80756 M 116.2489 14.8717 L 116.2489 12.8717 L 116.2489 10.8717 M 113.5128 22.38928 L 114.7984 20.85721 L 116.084 19.32513 L 117.3695 17.79306 L 118.6551 16.26099 L 120.3872 15.26099 L 122.1192 14.26099 L 123.4048 12.72891 L 124.6904 11.19684 M 122.1192 14.26099 L 123.8513 13.26099 L 125.5833 12.26099 L 127.5529 11.9137 L 129.5226 11.56641 M 125.5833 12.26099 L 126.8689 10.72891 L 128.1544 9.196838 M 118.6551 16.26099 L 119.3391 14.38159 L 120.0232 12.5022 L 120.0232 10.5022 L 120.0232 8.502197 M 120.0232 12.5022 L 120.7072 10.6228 L 121.3913 8.743408 L 122.6768 7.211334 L 123.9624 5.67926 M 121.3913 8.743408 L 121.3913 6.743408 L 121.3913 4.743408 M 108.3705 28.51758 L 108.3705 26.51758 L 108.3705 24.51758 L 108.3705 22.51758 L 108.3705 20.51758 L 107.6864 18.63818 L 107.0024 16.75879 L 105.7168 15.22672 L 104.4312 13.69464 M 107.0024 16.75879 L 106.3184 14.87939 L 105.6343 13 L 105.6343 11 L 105.6343 9 M 105.6343 13 L 104.3487 11.46793 L 103.0632 9.935852 M 108.3705 20.51758 L 108.3705 18.51758 L 108.3705 16.51758 L 108.3705 14.51758 L 108.3705 12.51758 L 109.0545 10.63818 L 109.7386 8.758789 L 109.7386 6.758789 L 109.7386 4.758789 M 109.7386 8.758789 L 110.4226 6.879395 L 111.1066 5 L 112.3922 3.467926 L 113.6778 1.935852 M 111.1066 5 L 111.1066 3 L 111.1066 1 M 108.3705 12.51758 L 107.6864 10.63818 L 107.0024 8.758789 L 105.7168 7.226715 L 104.4312 5.694641 M 107.0024 8.758789 L 106.3184 6.879395 L 105.6343 5 L 105.6343 3 L 105.6343 1 M 105.6343 5 L 104.3487 3.467926 L 103.0632 1.935852 M 97.42583 58.58789 L 96.74179 56.7085 L 96.05775 54.8291 L 95.37371 52.94971 L 94.68967 51.07031 L 94.00563 49.19092 L 93.32159 47.31152 L 92.63755 45.43213 L 91.95351 43.55273 L 90.66793 42.02066 L 89.38235 40.48859 L 88.09677 38.95651 L 86.81119 37.42444 L 85.07914 36.42444 L 83.34709 35.42444 L 81.37747 35.07715 L 79.40785 34.72986 M 83.34709 35.42444 L 81.61504 34.42444 L 79.883 33.42444 L 78.59741 31.89236 L 77.31183 30.36029 M 79.883 33.42444 L 77.91338 33.07715 L 75.94375 32.72986 M 86.81119 37.42444 L 85.52561 35.89236 L 84.24004 34.36029 L 82.95445 32.82822 L 81.66888 31.29614 L 80.98484 29.41675 L 80.3008 27.53735 L 79.01522 26.00528 L 77.72964 24.47321 M 80.3008 27.53735 L 79.61676 25.65796 L 78.93272 23.77856 L 78.93272 21.77856 L 78.93272 19.77856 M 78.93272 23.77856 L 77.64714 22.24649 L 76.36156 20.71442 M 81.66888 31.29614 L 79.93683 30.29614 L 78.20478 29.29614 L 76.23517 28.94885 L 74.26555 28.60156 M 78.20478 29.29614 L 76.47273 28.29614 L 74.74068 27.29614 L 73.45511 25.76407 L 72.16953 24.23199 M 74.74068 27.29614 L 72.77107 26.94885 L 70.80146 26.60156 M 91.95351 43.55273 L 91.26947 41.67334 L 90.58543 39.79395 L 89.90139 37.91455 L 89.21735 36.03516 L 88.53331 34.15576 L 87.84927 32.27637 L 87.16523 30.39697 L 86.48119 28.51758 L 86.48119 26.51758 L 86.48119 24.51758 L 86.48119 22.51758 L 86.48119 20.51758 L 85.79715 18.63818 L 85.11311 16.75879 L 83.82753 15.22672 L 82.54195 13.69464 M 85.11311 16.75879 L 84.42908 14.87939 L 83.74503 13 L 83.74503 11 L 83.74503 9 M 83.74503 13 L 82.45946 11.46793 L 81.17388 9.935852 M 86.48119 20.51758 L 86.48119 18.51758 L 86.48119 16.51758 L 86.48119 14.51758 L 86.48119 12.51758 L 87.16523 10.63818 L 87.84927 8.758789 L 87.84927 6.758789 L 87.84927 4.758789 M 87.84927 8.758789 L 88.53331 6.879395 L 89.21735 5 L 90.50292 3.467926 L 91.7885 1.935852 M 89.21735 5 L 89.21735 3 L 89.21735 1 M 86.48119 12.51758 L 85.79715 10.63818 L 85.11311 8.758789 L 83.82753 7.226715 L 82.54195 5.694641 M 85.11311 8.758789 L 84.42908 6.879395 L 83.74503 5 L 83.74503 3 L 83.74503 1 M 83.74503 5 L 82.45946 3.467926 L 81.17388 1.935852 M 86.48119 28.51758 L 85.19561 26.9855 L 83.91003 25.45343 L 82.62445 23.92136 L 81.33887 22.38928 L 79.60683 21.38928 L 77.87477 20.38928 L 75.90516 20.04199 L 73.93555 19.6947 M 77.87477 20.38928 L 76.14272 19.38928 L 74.41068 18.38928 L 73.1251 16.85721 L 71.83952 15.32513 M 74.41068 18.38928 L 72.44106 18.04199 L 70.47145 17.6947 M 81.33887 22.38928 L 80.05329 20.85721 L 78.76772 19.32513 L 77.48213 17.79306 L 76.19655 16.26099 L 75.5125 14.38159 L 74.82846 12.5022 L 73.54288 10.97012 L 72.25731 9.438049 M 74.82846 12.5022 L 74.14442 10.6228 L 73.46038 8.743408 L 73.46038 6.743408 L 73.46038 4.743408 M 73.46038 8.743408 L 72.1748 7.211334 L 70.88923 5.67926 M 76.19655 16.26099 L 74.4645 15.26099 L 72.73245 14.26099 L 70.76284 13.9137 L 68.79323 13.56641 M 72.73245 14.26099 L 71.0004 13.26099 L 69.26835 12.26099 L 67.98277 10.72891 L 66.6972 9.196838 M 69.26835 12.26099 L 67.29874 11.9137 L 65.32913 11.56641 M 97.42583 122.5879 L 96.14025 121.0558 L 94.85468 119.5237 L 93.56909 117.9917 L 92.28351 116.4596 L 90.99793 114.9275 L 89.71236 113.3954 L 88.42678 111.8634 L 87.1412 110.3313 L 85.85562 108.7992 L 84.57004 107.2672 L 83.28446 105.7351 L 81.99889 104.203 L 80.7133 102.6709 L 79.42773 101.1389 L 78.14215 99.60678 L 76.85658 98.07471 L 75.12453 97.07471 L 73.39249 96.07471 L 71.66044 95.07471 L 69.92839 94.07471 L 68.19634 93.07471 L 66.46429 92.07471 L 64.73224 91.07471 L 63.00019 90.07471 L 61.03058 89.72742 L 59.06097 89.38013 L 57.09136 89.03284 L 55.12175 88.68555 L 53.15214 89.03284 L 51.18252 89.38013 L 49.45047 90.38013 L 47.71842 91.38013 M 51.18252 89.38013 L 49.2129 89.72742 L 47.24328 90.07471 L 45.27366 89.72742 L 43.30405 89.38013 M 47.24328 90.07471 L 45.51123 91.07471 L 43.77918 92.07471 M 55.12175 88.68555 L 53.15214 88.33826 L 51.18252 87.99097 L 49.2129 87.64368 L 47.24328 87.29639 L 45.51123 86.29639 L 43.77918 85.29639 L 41.80957 84.9491 L 39.83996 84.60181 M 43.77918 85.29639 L 42.04713 84.29639 L 40.31508 83.29639 L 39.0295 81.76431 L 37.74393 80.23224 M 40.31508 83.29639 L 38.34547 82.9491 L 36.37586 82.60181 M 47.24328 87.29639 L 45.27366 87.64368 L 43.30405 87.99097 L 41.572 88.99097 L 39.83995 89.99097 M 43.30405 87.99097 L 41.33444 88.33826 L 39.36483 88.68555 L 37.39522 88.33826 L 35.4256 87.99097 M 39.36483 88.68555 L 37.63278 89.68555 L 35.90073 90.68555 M 63.00019 90.07471 L 61.26814 89.07471 L 59.53609 88.07471 L 57.80405 87.07471 L 56.072 86.07471 L 54.33995 85.07471 L 52.6079 84.07471 L 50.87585 83.07471 L 49.1438 82.07471 L 47.85822 80.54263 L 46.57265 79.01056 L 45.28708 77.47849 L 44.0015 75.94641 L 42.26945 74.94641 L 40.53741 73.94641 L 38.5678 73.59912 L 36.59819 73.25183 M 40.53741 73.94641 L 38.80537 72.94641 L 37.07332 71.94641 L 35.78774 70.41434 L 34.50217 68.88226 M 37.07332 71.94641 L 35.1037 71.59912 L 33.13409 71.25183 M 44.0015 75.94641 L 42.71593 74.41434 L 41.43036 72.88226 L 40.14478 71.35019 L 38.85921 69.81812 L 38.17517 67.93872 L 37.49113 66.05933 L 36.20556 64.52725 L 34.91998 62.99518 M 37.49113 66.05933 L 36.80709 64.17993 L 36.12305 62.30054 L 36.12305 60.30054 L 36.12305 58.30054 M 36.12305 62.30054 L 34.83748 60.76846 L 33.5519 59.23639 M 38.85921 69.81812 L 37.12717 68.81812 L 35.39512 67.81812 L 33.42551 67.47083 L 31.4559 67.12354 M 35.39512 67.81812 L 33.66307 66.81812 L 31.93102 65.81812 L 30.64545 64.28604 L 29.35988 62.75397 M 31.93102 65.81812 L 29.96141 65.47083 L 27.9918 65.12354 M 49.1438 82.07471 L 47.17419 81.72742 L 45.20458 81.38013 L 43.23497 81.03284 L 41.26536 80.68555 L 39.29574 81.03284 L 37.32612 81.38013 L 35.59407 82.38013 L 33.86202 83.38013 M 37.32612 81.38013 L 35.3565 81.72742 L 33.38689 82.07471 L 31.41728 81.72742 L 29.44767 81.38013 M 33.38689 82.07471 L 31.65484 83.07471 L 29.92279 84.07471 M 41.26536 80.68555 L 39.29574 80.33826 L 37.32612 79.99097 L 35.3565 79.64368 L 33.38689 79.29639 L 31.65484 78.29639 L 29.92279 77.29639 L 27.95318 76.9491 L 25.98356 76.60181 M 29.92279 77.29639 L 28.19074 76.29639 L 26.45869 75.29639 L 25.17312 73.76431 L 23.88754 72.23224 M 26.45869 75.29639 L 24.48908 74.9491 L 22.51947 74.60181 M 33.38689 79.29639 L 31.41728 79.64368 L 29.44767 79.99097 L 27.71562 80.99097 L 25.98357 81.99097 M 29.44767 79.99097 L 27.47806 80.33826 L 25.50844 80.68555 L 23.53882 80.33826 L 21.5692 79.99097 M 25.50844 80.68555 L 23.77639 81.68555 L 22.04434 82.68555 M 76.85658 98.07471 L 75.571 96.54263 L 74.28542 95.01056 L 72.99986 93.47849 L 71.71428 91.94641 L 70.4287 90.41434 L 69.14314 88.88226 L 67.85756 87.35019 L 66.57198 85.81812 L 65.28642 84.28604 L 64.00084 82.75397 L 62.71526 81.22189 L 61.4297 79.68982 L 60.14412 78.15775 L 58.85854 76.62567 L 57.57298 75.0936 L 56.2874 73.56152 L 55.60335 71.68213 L 54.9193 69.80273 L 54.23526 67.92334 L 53.55121 66.04395 L 52.86716 64.16455 L 52.18312 62.28516 L 51.49908 60.40576 L 50.81504 58.52637 L 49.52946 56.99429 L 48.24389 55.46222 L 46.95831 53.93015 L 45.67274 52.39807 L 43.9407 51.39807 L 42.20865 50.39807 L 40.23904 50.05078 L 38.26943 49.70349 M 42.20865 50.39807 L 40.4766 49.39807 L 38.74455 48.39807 L 37.45898 46.866 L 36.17341 45.33392 M 38.74455 48.39807 L 36.77494 48.05078 L 34.80533 47.70349 M 45.67274 52.39807 L 44.38717 50.866 L 43.10159 49.33392 L 41.81602 47.80185 L 40.53045 46.26978 L 39.84641 44.39038 L 39.16236 42.51099 L 37.87679 40.97891 L 36.59121 39.44684 M 39.16236 42.51099 L 38.47832 40.63159 L 37.79428 38.7522 L 37.79428 36.7522 L 37.79428 34.7522 M 37.79428 38.7522 L 36.50871 37.22012 L 35.22313 35.68805 M 40.53045 46.26978 L 38.7984 45.26978 L 37.06635 44.26978 L 35.09674 43.92249 L 33.12713 43.5752 M 37.06635 44.26978 L 35.3343 43.26978 L 33.60226 42.26978 L 32.31669 40.7377 L 31.03111 39.20563 M 33.60226 42.26978 L 31.63265 41.92249 L 29.66304 41.5752 M 50.81504 58.52637 L 50.131 56.64697 L 49.44696 54.76758 L 48.76292 52.88818 L 48.07888 51.00879 L 47.39483 49.12939 L 46.71078 47.25 L 46.02674 45.37061 L 45.3427 43.49121 L 45.3427 41.49121 L 45.3427 39.49121 L 45.3427 37.49121 L 45.3427 35.49121 L 44.65866 33.61182 L 43.97462 31.73242 L 42.68905 30.20035 L 41.40347 28.66827 M 43.97462 31.73242 L 43.29058 29.85303 L 42.60654 27.97363 L 42.60654 25.97363 L 42.60654 23.97363 M 42.60654 27.97363 L 41.32097 26.44156 L 40.03539 24.90948 M 45.3427 35.49121 L 45.3427 33.49121 L 45.3427 31.49121 L 45.3427 29.49121 L 45.3427 27.49121 L 46.02675 25.61182 L 46.71079 23.73242 L 46.71079 21.73242 L 46.71079 19.73242 M 46.71079 23.73242 L 47.39483 21.85303 L 48.07887 19.97363 L 49.36445 18.44156 L 50.65002 16.90948 M 48.07887 19.97363 L 48.07887 17.97363 L 48.07887 15.97363 M 45.3427 27.49121 L 44.65866 25.61182 L 43.97462 23.73242 L 42.68905 22.20035 L 41.40347 20.66827 M 43.97462 23.73242 L 43.29058 21.85303 L 42.60654 19.97363 L 42.60654 17.97363 L 42.60654 15.97363 M 42.60654 19.97363 L 41.32097 18.44156 L 40.03539 16.90948 M 45.3427 43.49121 L 44.05713 41.95914 L 42.77155 40.42706 L 41.48598 38.89499 L 40.20041 37.36292 L 38.46836 36.36292 L 36.73631 35.36292 L 34.7667 35.01563 L 32.79709 34.66833 M 36.73631 35.36292 L 35.00426 34.36292 L 33.27222 33.36292 L 31.98665 31.83084 L 30.70107 30.29877 M 33.27222 33.36292 L 31.30261 33.01563 L 29.333 32.66833 M 40.20041 37.36292 L 38.91483 35.83084 L 37.62926 34.29877 L 36.34369 32.76669 L 35.05811 31.23462 L 34.37407 29.35522 L 33.69002 27.47583 L 32.40444 25.94376 L 31.11886 24.41168 M 33.69002 27.47583 L 33.00597 25.59644 L 32.32193 23.71704 L 32.32193 21.71704 L 32.32193 19.71704 M 32.32193 23.71704 L 31.03635 22.18497 L 29.75078 20.65289 M 35.05811 31.23462 L 33.32607 30.23462 L 31.59402 29.23462 L 29.62441 28.88733 L 27.6548 28.54004 M 31.59402 29.23462 L 29.86198 28.23462 L 28.12993 27.23462 L 26.84435 25.70255 L 25.55878 24.17047 M 28.12993 27.23462 L 26.16031 26.88733 L 24.1907 26.54004 M 56.2874 73.56152 L 54.55535 72.56152 L 52.8233 71.56152 L 51.09126 70.56152 L 49.35921 69.56152 L 47.62717 68.56152 L 45.89512 67.56152 L 44.16307 66.56152 L 42.43102 65.56152 L 40.46141 65.21423 L 38.4918 64.86694 L 36.52218 64.51965 L 34.55257 64.17236 L 32.58296 64.51965 L 30.61335 64.86694 L 28.8813 65.86694 L 27.14925 66.86694 M 30.61335 64.86694 L 28.64374 65.21423 L 26.67412 65.56152 L 24.7045 65.21423 L 22.73488 64.86694 M 26.67412 65.56152 L 24.94207 66.56152 L 23.21002 67.56152 M 34.55257 64.17236 L 32.58296 63.82507 L 30.61335 63.47778 L 28.64374 63.13049 L 26.67412 62.7832 L 24.94207 61.7832 L 23.21002 60.7832 L 21.24041 60.43591 L 19.2708 60.08862 M 23.21002 60.7832 L 21.47797 59.7832 L 19.74592 58.7832 L 18.46034 57.25113 L 17.17477 55.71906 M 19.74592 58.7832 L 17.7763 58.43591 L 15.80668 58.08862 M 26.67412 62.7832 L 24.7045 63.13049 L 22.73488 63.47778 L 21.00283 64.47778 L 19.27078 65.47778 M 22.73488 63.47778 L 20.76526 63.82507 L 18.79565 64.17236 L 16.82604 63.82507 L 14.85643 63.47778 M 18.79565 64.17236 L 17.0636 65.17236 L 15.33155 66.17236 M 42.43102 65.56152 L 40.69897 64.56152 L 38.96693 63.56152 L 37.23488 62.56152 L 35.50283 61.56152 L 33.77078 60.56152 L 32.03873 59.56152 L 30.30668 58.56152 L 28.57463 57.56152 L 27.28905 56.02945 L 26.00348 54.49738 L 24.7179 52.9653 L 23.43233 51.43323 L 21.70029 50.43323 L 19.96824 49.43323 L 17.99863 49.08594 L 16.02902 48.73865 M 19.96824 49.43323 L 18.23619 48.43323 L 16.50414 47.43323 L 15.21857 45.90115 L 13.933 44.36908 M 16.50414 47.43323 L 14.53453 47.08594 L 12.56491 46.73865 M 23.43233 51.43323 L 22.14676 49.90115 L 20.86118 48.36908 L 19.57561 46.83701 L 18.29004 45.30493 L 17.606 43.42554 L 16.92195 41.54614 L 15.63637 40.01407 L 14.35079 38.48199 M 16.92195 41.54614 L 16.23792 39.66675 L 15.55387 37.78735 L 15.55387 35.78735 L 15.55387 33.78735 M 15.55387 37.78735 L 14.2683 36.25528 L 12.98273 34.72321 M 18.29004 45.30493 L 16.55799 44.30493 L 14.82594 43.30493 L 12.85632 42.95764 L 10.8867 42.61035 M 14.82594 43.30493 L 13.09389 42.30493 L 11.36183 41.30493 L 10.07626 39.77286 L 8.790695 38.24078 M 11.36183 41.30493 L 9.392212 40.95764 L 7.422592 40.61035 M 28.57463 57.56152 L 26.60502 57.21423 L 24.63541 56.86694 L 22.6658 56.51965 L 20.69619 56.17236 L 18.72658 56.51965 L 16.75696 56.86694 L 15.02491 57.86694 L 13.29286 58.86694 M 16.75696 56.86694 L 14.78734 57.21423 L 12.81772 57.56152 L 10.8481 57.21423 L 8.878479 56.86694 M 12.81772 57.56152 L 11.08566 58.56152 L 9.353607 59.56152 M 20.69619 56.17236 L 18.72658 55.82507 L 16.75696 55.47778 L 14.78734 55.13049 L 12.81772 54.7832 L 11.08566 53.7832 L 9.353607 52.7832 L 7.383987 52.43591 L 5.414368 52.08862 M 9.353607 52.7832 L 7.621552 51.7832 L 5.889496 50.7832 L 4.603928 49.25113 L 3.318359 47.71906 M 5.889496 50.7832 L 3.919876 50.43591 L 1.950256 50.08862 M 12.81772 54.7832 L 10.8481 55.13049 L 8.878479 55.47778 L 7.146423 56.47778 L 5.414368 57.47778 M 8.878479 55.47778 L 6.908859 55.82507 L 4.93924 56.17236 L 2.96962 55.82507 L 1 55.47778 M 4.93924 56.17236 L 3.207184 57.17236 L 1.475128 58.17236 " />
  </g>
</svg>
