<?xml version="1.0" encoding="UTF-8" standalone="no"?>
<!DOCTYPE svg PUBLIC "-//W3C//DTD SVG 1.1//EN"
    "http://www.w3.org/Graphics/SVG/1.1/DTD/svg11.dtd">
<svg xmlns="http://www.w3.org/2000/svg" width="165" height="488">
  <desc>plant_a LSystem</desc>
  <rect width="100%" height="100%" style="fill: white"/>
  <g stroke="black" fill="none" stroke-width="1">
    <path d="M 71.25275 487 L 71.25275 485 L 70.38543 483.1978 M 71.25275 485 L 71.25275 483 L 72.12006 481.1978 M 71.25275 483 L 71.25275 481 L 70.38543 479.1978 L 68.82239 477.9501 M 70.38543 479.1978 L 69.5181 477.3957 L 69.5181 475.3957 M 69.5181 477.3957 L 68.65079 475.5935 M 71.25275 481 L 71.25275 479 L 70.38543 477.1978 M 71.25275 479 L 71.25275 477 L 72.12006 475.1978 M 71.25275 477 L 71.25275 475 L 72.12006 473.1978 L 72.12006 471.1978 M 72.12006 473.1978 L 72.98739 471.3957 L 74.55043 470.1479 M 72.98739 471.3957 L 73.8547 469.5935 M 71.25275 475 L 71.25275 473 L 70.38543 471.1978 M 71.25275 473 L 71.25275 471 L 72.12006 469.1978 M 71.25275 471 L 71.25275 469 L 70.38543 467.1978 L 68.82239 465.9501 M 70.38543 467.1978 L 69.5181 465.3957 L 69.5181 463.3957 M 69.5181 465.3957 L 68.65079 463.5935 L 67.08775 462.3458 L 65.13823 461.8993 M 67.08775 462.3458 L 65.5247 461.098 L 64.65739 459.2959 M 65.5247 461.098 L 63.96167 459.8503 M 68.65079 463.5935 L 67.78348 461.7914 L 66.22044 460.5436 M 67.78348 461.7914 L 66.91615 459.9892 L 66.91615 457.9892 M 66.91615 459.9892 L 66.04884 458.1871 L 66.04884 456.1871 L 65.18152 454.3849 M 66.04884 456.1871 L 66.04884 454.1871 L 66.91615 452.3849 M 66.04884 454.1871 L 66.04884 452.1871 M 66.04884 458.1871 L 65.18152 456.3849 L 63.61848 455.1371 M 65.18152 456.3849 L 64.31419 454.5828 L 64.31419 452.5828 M 64.31419 454.5828 L 63.44689 452.7806 M 71.25275 469 L 71.25275 467 L 70.38543 465.1978 M 71.25275 467 L 71.25275 465 L 72.12006 463.1978 M 71.25275 465 L 71.25275 463 L 70.38543 461.1978 L 68.82239 459.9501 M 70.38543 461.1978 L 69.5181 459.3957 L 69.5181 457.3957 M 69.5181 459.3957 L 68.65079 457.5935 M 71.25275 463 L 71.25275 461 L 70.38543 459.1978 M 71.25275 461 L 71.25275 459 L 72.12006 457.1978 M 71.25275 459 L 71.25275 457 L 72.12006 455.1978 L 72.12006 453.1978 M 72.12006 455.1978 L 72.98737 453.3957 L 74.55043 452.1479 M 72.98737 453.3957 L 73.8547 451.5935 M 71.25275 457 L 71.25275 455 L 70.38543 453.1978 M 71.25275 455 L 71.25275 453 L 72.12006 451.1978 M 71.25275 453 L 71.25275 451 L 72.12006 449.1978 L 72.12006 447.1978 M 72.12006 449.1978 L 72.98737 447.3957 L 74.55043 446.1479 M 72.98737 447.3957 L 73.8547 445.5935 L 73.8547 443.5935 L 72.98737 441.7914 M 73.8547 443.5935 L 73.8547 441.5935 L 74.72202 439.7914 M 73.8547 441.5935 L 73.8547 439.5935 M 73.8547 445.5935 L 74.72202 443.7914 L 74.72202 441.7914 M 74.72202 443.7914 L 75.58934 441.9892 L 77.15237 440.7415 M 75.58934 441.9892 L 76.45666 440.1871 L 78.0197 438.9393 L 78.88702 437.1371 M 78.0197 438.9393 L 79.58273 437.6916 L 81.53226 437.2451 M 79.58273 437.6916 L 81.14577 436.4438 M 76.45666 440.1871 L 77.32397 438.3849 L 77.32397 436.3849 M 77.32397 438.3849 L 78.19128 436.5828 L 79.75433 435.335 M 78.19128 436.5828 L 79.05861 434.7806 M 71.25275 451 L 71.25275 449 L 70.38543 447.1978 M 71.25275 449 L 71.25275 447 L 72.12006 445.1978 M 71.25275 447 L 71.25275 445 L 70.38543 443.1978 L 68.82239 441.9501 M 70.38543 443.1978 L 69.5181 441.3957 L 69.5181 439.3957 M 69.5181 441.3957 L 68.65079 439.5935 M 71.25275 445 L 71.25275 443 L 70.38543 441.1978 M 71.25275 443 L 71.25275 441 L 72.12006 439.1978 M 71.25275 441 L 71.25275 439 L 72.12006 437.1978 L 72.12006 435.1978 M 72.12006 437.1978 L 72.98737 435.3957 L 74.55043 434.1479 M 72.98737 435.3957 L 73.8547 433.5935 M 71.25275 439 L 71.25275 437 L 70.38543 435.1978 M 71.25275 437 L 71.25275 435 L 72.12006 433.1978 M 71.25275 435 L 71.25275 433 L 70.38543 431.1978 L 68.82239 429.9501 M 70.38543 431.1978 L 69.5181 429.3957 L 69.5181 427.3957 M 69.5181 429.3957 L 68.65079 427.5935 L 67.08775 426.3458 L 65.13823 425.8993 M 67.08775 426.3458 L 65.5247 425.098 L 64.65739 423.2959 M 65.5247 425.098 L 63.96167 423.8503 M 68.65079 427.5935 L 67.78347 425.7914 L 66.22043 424.5436 M 67.78347 425.7914 L 66.91615 423.9892 L 66.91615 421.9892 M 66.91615 423.9892 L 66.04884 422.1871 L 66.04884 420.1871 L 65.18152 418.3849 M 66.04884 420.1871 L 66.04884 418.1871 L 66.91615 416.3849 M 66.04884 418.1871 L 66.04884 416.1871 M 66.04884 422.1871 L 65.18152 420.3849 L 63.61848 419.1371 M 65.18152 420.3849 L 64.31419 418.5828 L 64.31419 416.5828 M 64.31419 418.5828 L 63.44688 416.7806 L 61.88383 415.5328 L 59.93432 415.0864 M 61.88383 415.5328 L 60.3208 414.2851 L 59.45348 412.4829 M 60.3208 414.2851 L 58.75776 413.0374 L 56.80824 412.5909 L 54.85794 413.0339 M 56.80824 412.5909 L 54.85872 412.1443 L 53.29567 410.8966 M 54.85872 412.1443 L 52.90919 411.6978 M 58.75776 413.0374 L 57.19472 411.7896 L 55.2452 411.3431 M 57.19472 411.7896 L 55.63168 410.5418 L 54.76436 408.7397 M 55.63168 410.5418 L 54.06863 409.2941 L 53.20132 407.4919 L 51.63828 406.2442 M 53.20132 407.4919 L 52.334 405.6898 L 52.334 403.6898 M 52.334 405.6898 L 51.46667 403.8876 M 54.06863 409.2941 L 52.5056 408.0463 L 50.55608 407.5998 M 52.5056 408.0463 L 50.94256 406.7986 L 50.07524 404.9964 M 50.94256 406.7986 L 49.37951 405.5508 M 63.44688 416.7806 L 62.57957 414.9785 L 61.01652 413.7307 M 62.57957 414.9785 L 61.71225 413.1763 L 61.71225 411.1763 M 61.71225 413.1763 L 60.84492 411.3741 L 59.28189 410.1264 L 57.33237 409.6799 M 59.28189 410.1264 L 57.71885 408.8786 L 56.85152 407.0765 M 57.71885 408.8786 L 56.15581 407.6309 M 60.84492 411.3741 L 59.97761 409.572 L 58.41457 408.3242 M 59.97761 409.572 L 59.11029 407.7698 L 59.11029 405.7698 M 59.11029 407.7698 L 58.24297 405.9677 L 58.24297 403.9677 L 57.37566 402.1655 M 58.24297 403.9677 L 58.24297 401.9677 L 59.11029 400.1655 M 58.24297 401.9677 L 58.24297 399.9677 M 58.24297 405.9677 L 57.37566 404.1655 L 55.81261 402.9178 M 57.37566 404.1655 L 56.50834 402.3634 L 56.50834 400.3634 M 56.50834 402.3634 L 55.64102 400.5612 L 55.64102 398.5612 L 54.7737 396.7591 M 55.64102 398.5612 L 55.64102 396.5612 L 56.50834 394.7591 M 55.64102 396.5612 L 55.64102 394.5612 L 54.7737 392.7591 L 53.21066 391.5113 M 54.7737 392.7591 L 53.90638 390.9569 L 53.90638 388.9569 M 53.90638 390.9569 L 53.03905 389.1548 M 55.64102 394.5612 L 55.64102 392.5612 L 54.7737 390.7591 M 55.64102 392.5612 L 55.64102 390.5612 L 56.50834 388.7591 M 55.64102 390.5612 L 55.64102 388.5612 L 56.50834 386.7591 L 56.50834 384.7591 M 56.50834 386.7591 L 57.37566 384.9569 L 58.9387 383.7092 M 57.37566 384.9569 L 58.24297 383.1548 M 55.64102 388.5612 L 55.64102 386.5612 L 54.7737 384.7591 M 55.64102 386.5612 L 55.64102 384.5612 L 56.50834 382.7591 M 55.64102 384.5612 L 55.64102 382.5612 M 55.64102 400.5612 L 54.7737 398.7591 L 53.21066 397.5113 M 54.7737 398.7591 L 53.90638 396.9569 L 53.90638 394.9569 M 53.90638 396.9569 L 53.03905 395.1548 L 51.47602 393.907 L 49.5265 393.4605 M 51.47602 393.907 L 49.91298 392.6592 L 49.04565 390.8571 M 49.91298 392.6592 L 48.34994 391.4115 M 53.03905 395.1548 L 52.17174 393.3526 L 50.6087 392.1049 M 52.17174 393.3526 L 51.30443 391.5504 L 51.30443 389.5504 M 51.30443 391.5504 L 50.43711 389.7483 L 50.43711 387.7483 L 49.56979 385.9461 M 50.43711 387.7483 L 50.43711 385.7483 L 51.30443 383.9461 M 50.43711 385.7483 L 50.43711 383.7483 M 50.43711 389.7483 L 49.56979 387.9461 L 48.00674 386.6984 M 49.56979 387.9461 L 48.70247 386.144 L 48.70247 384.144 M 48.70247 386.144 L 47.83514 384.3418 M 71.25275 433 L 71.25275 431 L 70.38543 429.1978 M 71.25275 431 L 71.25275 429 L 72.12006 427.1978 M 71.25275 429 L 71.25275 427 L 70.38543 425.1978 L 68.82239 423.9501 M 70.38543 425.1978 L 69.5181 423.3957 L 69.5181 421.3957 M 69.5181 423.3957 L 68.65079 421.5935 M 71.25275 427 L 71.25275 425 L 70.38543 423.1978 M 71.25275 425 L 71.25275 423 L 72.12006 421.1978 M 71.25275 423 L 71.25275 421 L 72.12006 419.1978 L 72.12006 417.1978 M 72.12006 419.1978 L 72.98737 417.3957 L 74.55042 416.1479 M 72.98737 417.3957 L 73.8547 415.5935 M 71.25275 421 L 71.25275 419 L 70.38543 417.1978 M 71.25275 419 L 71.25275 417 L 72.12006 415.1978 M 71.25275 417 L 71.25275 415 L 70.38543 413.1978 L 68.82239 411.9501 M 70.38543 413.1978 L 69.5181 411.3957 L 69.5181 409.3957 M 69.5181 411.3957 L 68.65079 409.5935 L 67.08775 408.3458 L 65.13823 407.8993 M 67.08775 408.3458 L 65.5247 407.098 L 64.65739 405.2959 M 65.5247 407.098 L 63.96167 405.8503 M 68.65079 409.5935 L 67.78347 407.7914 L 66.22043 406.5436 M 67.78347 407.7914 L 66.91615 405.9892 L 66.91615 403.9892 M 66.91615 405.9892 L 66.04884 404.1871 L 66.04884 402.1871 L 65.18152 400.3849 M 66.04884 402.1871 L 66.04884 400.1871 L 66.91615 398.3849 M 66.04884 400.1871 L 66.04884 398.1871 M 66.04884 404.1871 L 65.18152 402.3849 L 63.61848 401.1371 M 65.18152 402.3849 L 64.31419 400.5828 L 64.31419 398.5828 M 64.31419 400.5828 L 63.44688 398.7806 M 71.25275 415 L 71.25275 413 L 70.38543 411.1978 M 71.25275 413 L 71.25275 411 L 72.12006 409.1978 M 71.25275 411 L 71.25275 409 L 70.38543 407.1978 L 68.82239 405.9501 M 70.38543 407.1978 L 69.5181 405.3957 L 69.5181 403.3957 M 69.5181 405.3957 L 68.65079 403.5935 M 71.25275 409 L 71.25275 407 L 70.38543 405.1978 M 71.25275 407 L 71.25275 405 L 72.12006 403.1978 M 71.25275 405 L 71.25275 403 L 72.12006 401.1978 L 72.12006 399.1978 M 72.12006 401.1978 L 72.98737 399.3957 L 74.55042 398.1479 M 72.98737 399.3957 L 73.8547 397.5935 M 71.25275 403 L 71.25275 401 L 70.38543 399.1978 M 71.25275 401 L 71.25275 399 L 72.12006 397.1978 M 71.25275 399 L 71.25275 397 L 72.12006 395.1978 L 72.12006 393.1978 M 72.12006 395.1978 L 72.98737 393.3957 L 74.55042 392.1479 M 72.98737 393.3957 L 73.8547 391.5935 L 73.8547 389.5935 L 72.98737 387.7914 M 73.8547 389.5935 L 73.8547 387.5935 L 74.72202 385.7914 M 73.8547 387.5935 L 73.8547 385.5935 M 73.8547 391.5935 L 74.72202 389.7914 L 74.72202 387.7914 M 74.72202 389.7914 L 75.58934 387.9892 L 77.15237 386.7415 M 75.58934 387.9892 L 76.45666 386.1871 L 78.0197 384.9393 L 78.88701 383.1371 M 78.0197 384.9393 L 79.58273 383.6916 L 81.53226 383.2451 M 79.58273 383.6916 L 81.14577 382.4438 M 76.45666 386.1871 L 77.32397 384.3849 L 77.32397 382.3849 M 77.32397 384.3849 L 78.19128 382.5828 L 79.75433 381.335 M 78.19128 382.5828 L 79.05861 380.7806 M 71.25275 397 L 71.25275 395 L 70.38543 393.1978 M 71.25275 395 L 71.25275 393 L 72.12006 391.1978 M 71.25275 393 L 71.25275 391 L 70.38543 389.1978 L 68.82239 387.9501 M 70.38543 389.1978 L 69.5181 387.3957 L 69.5181 385.3957 M 69.5181 387.3957 L 68.65079 385.5935 M 71.25275 391 L 71.25275 389 L 70.38543 387.1978 M 71.25275 389 L 71.25275 387 L 72.12006 385.1978 M 71.25275 387 L 71.25275 385 L 72.12006 383.1978 L 72.12006 381.1978 M 72.12006 383.1978 L 72.98737 381.3957 L 74.55042 380.1479 M 72.98737 381.3957 L 73.8547 379.5935 M 71.25275 385 L 71.25275 383 L 70.38543 381.1978 M 71.25275 383 L 71.25275 381 L 72.12006 379.1978 M 71.25275 381 L 71.25275 379 L 72.12006 377.1978 L 72.12006 375.1978 M 72.12006 377.1978 L 72.98737 375.3957 L 74.55042 374.1479 M 72.98737 375.3957 L 73.8547 373.5935 L 73.8547 371.5935 L 72.98737 369.7914 M 73.8547 371.5935 L 73.8547 369.5935 L 74.72202 367.7914 M 73.8547 369.5935 L 73.8547 367.5935 M 73.8547 373.5935 L 74.72202 371.7914 L 74.72202 369.7914 M 74.72202 371.7914 L 75.58934 369.9892 L 77.15237 368.7415 M 75.58934 369.9892 L 76.45665 368.1871 L 78.01968 366.9393 L 78.88701 365.1371 M 78.01968 366.9393 L 79.58273 365.6916 L 81.53226 365.2451 M 79.58273 365.6916 L 81.14577 364.4438 M 76.45665 368.1871 L 77.32397 366.3849 L 77.32397 364.3849 M 77.32397 366.3849 L 78.19128 364.5828 L 79.75433 363.335 M 78.19128 364.5828 L 79.05861 362.7806 L 79.05861 360.7806 L 78.19128 358.9785 M 79.05861 360.7806 L 79.05861 358.7806 L 79.92593 356.9785 M 79.05861 358.7806 L 79.05861 356.7806 L 78.19128 354.9785 L 76.62825 353.7307 M 78.19128 354.9785 L 77.32397 353.1763 L 77.32397 351.1763 M 77.32397 353.1763 L 76.45665 351.3741 M 79.05861 356.7806 L 79.05861 354.7806 L 78.19128 352.9785 M 79.05861 354.7806 L 79.05861 352.7806 L 79.92593 350.9785 M 79.05861 352.7806 L 79.05861 350.7806 L 79.92593 348.9785 L 79.92593 346.9785 M 79.92593 348.9785 L 80.79324 347.1763 L 82.35629 345.9285 M 80.79324 347.1763 L 81.66055 345.3741 M 79.05861 350.7806 L 79.05861 348.7806 L 78.19128 346.9785 M 79.05861 348.7806 L 79.05861 346.7806 L 79.92593 344.9785 M 79.05861 346.7806 L 79.05861 344.7806 M 79.05861 362.7806 L 79.92593 360.9785 L 79.92593 358.9785 M 79.92593 360.9785 L 80.79324 359.1763 L 82.35629 357.9285 M 80.79324 359.1763 L 81.66055 357.3741 L 81.66055 355.3741 L 80.79324 353.572 M 81.66055 355.3741 L 81.66055 353.3741 L 82.52788 351.572 M 81.66055 353.3741 L 81.66055 351.3741 M 81.66055 357.3741 L 82.52788 355.572 L 82.52788 353.572 M 82.52788 355.572 L 83.3952 353.7698 L 84.95824 352.5221 M 83.3952 353.7698 L 84.26252 351.9677 L 85.82555 350.7199 L 86.69288 348.9178 M 85.82555 350.7199 L 87.3886 349.4722 L 89.33812 349.0257 M 87.3886 349.4722 L 88.95164 348.2244 M 84.26252 351.9677 L 85.12984 350.1655 L 85.12984 348.1655 M 85.12984 350.1655 L 85.99715 348.3634 L 87.5602 347.1156 M 85.99715 348.3634 L 86.86446 346.5612 L 88.42751 345.3135 L 89.29483 343.5113 M 88.42751 345.3135 L 89.99055 344.0657 L 91.94008 343.6192 M 89.99055 344.0657 L 91.5536 342.8179 L 92.42091 341.0158 L 92.42091 339.0158 M 92.42091 341.0158 L 93.28822 339.2136 L 94.85126 337.9659 M 93.28822 339.2136 L 94.15555 337.4115 M 91.5536 342.8179 L 93.11664 341.5702 L 93.98395 339.768 M 93.11664 341.5702 L 94.67967 340.3224 L 96.6292 339.8759 M 94.67967 340.3224 L 96.24271 339.0747 L 98.19224 338.6282 L 99.75528 337.3804 M 98.19224 338.6282 L 100.1418 338.1817 L 102.0921 338.6248 M 100.1418 338.1817 L 102.0913 337.7352 M 96.24271 339.0747 L 97.80576 337.8269 L 98.67308 336.0248 M 97.80576 337.8269 L 99.3688 336.5792 L 101.3183 336.1327 M 99.3688 336.5792 L 100.9318 335.3314 M 86.86446 346.5612 L 87.73179 344.7591 L 87.73179 342.7591 M 87.73179 344.7591 L 88.59911 342.9569 L 90.16215 341.7092 M 88.59911 342.9569 L 89.46643 341.1548 L 89.46643 339.1548 L 88.59911 337.3526 M 89.46643 339.1548 L 89.46643 337.1548 L 90.33374 335.3526 M 89.46643 337.1548 L 89.46643 335.1548 M 89.46643 341.1548 L 90.33374 339.3526 L 90.33374 337.3526 M 90.33374 339.3526 L 91.20106 337.5504 L 92.7641 336.3027 M 91.20106 337.5504 L 92.06837 335.7483 L 93.63142 334.5005 L 94.49873 332.6984 M 93.63142 334.5005 L 95.19446 333.2528 L 97.14397 332.8063 M 95.19446 333.2528 L 96.75749 332.005 M 92.06837 335.7483 L 92.9357 333.9461 L 92.9357 331.9461 M 92.9357 333.9461 L 93.80301 332.144 L 95.36604 330.8962 M 93.80301 332.144 L 94.67033 330.3418 M 71.25275 379 L 71.25275 377 L 70.38543 375.1978 M 71.25275 377 L 71.25275 375 L 72.12006 373.1978 M 71.25275 375 L 71.25275 373 L 70.38543 371.1978 L 68.82239 369.9501 M 70.38543 371.1978 L 69.5181 369.3957 L 69.5181 367.3957 M 69.5181 369.3957 L 68.65079 367.5935 M 71.25275 373 L 71.25274 371 L 70.38543 369.1978 M 71.25274 371 L 71.25274 369 L 72.12006 367.1978 M 71.25274 369 L 71.25274 367 L 72.12006 365.1978 L 72.12006 363.1978 M 72.12006 365.1978 L 72.98737 363.3957 L 74.55042 362.1479 M 72.98737 363.3957 L 73.8547 361.5935 M 71.25274 367 L 71.25274 365 L 70.38543 363.1978 M 71.25274 365 L 71.25274 363 L 72.12006 361.1978 M 71.25274 363 L 71.25274 361 L 70.38543 359.1978 L 68.82239 357.9501 M 70.38543 359.1978 L 69.5181 357.3957 L 69.5181 355.3957 M 69.5181 357.3957 L 68.65079 355.5935 L 67.08775 354.3458 L 65.13823 353.8993 M 67.08775 354.3458 L 65.5247 353.098 L 64.65739 351.2959 M 65.5247 353.098 L 63.96167 351.8503 M 68.65079 355.5935 L 67.78347 353.7914 L 66.22043 352.5436 M 67.78347 353.7914 L 66.91615 351.9892 L 66.91615 349.9892 M 66.91615 351.9892 L 66.04884 350.1871 L 66.04884 348.1871 L 65.18152 346.3849 M 66.04884 348.1871 L 66.04884 346.1871 L 66.91615 344.3849 M 66.04884 346.1871 L 66.04884 344.1871 M 66.04884 350.1871 L 65.18152 348.3849 L 63.61848 347.1371 M 65.18152 348.3849 L 64.31419 346.5828 L 64.31419 344.5828 M 64.31419 346.5828 L 63.44688 344.7806 M 71.25274 361 L 71.25274 359 L 70.38543 357.1978 M 71.25274 359 L 71.25274 357 L 72.12006 355.1978 M 71.25274 357 L 71.25274 355 L 70.38543 353.1978 L 68.82238 351.9501 M 70.38543 353.1978 L 69.5181 351.3957 L 69.5181 349.3957 M 69.5181 351.3957 L 68.65079 349.5935 M 71.25274 355 L 71.25274 353 L 70.38543 351.1978 M 71.25274 353 L 71.25274 351 L 72.12006 349.1978 M 71.25274 351 L 71.25274 349 L 72.12006 347.1978 L 72.12006 345.1978 M 72.12006 347.1978 L 72.98737 345.3957 L 74.55042 344.1479 M 72.98737 345.3957 L 73.8547 343.5935 M 71.25274 349 L 71.25274 347 L 70.38543 345.1978 M 71.25274 347 L 71.25274 345 L 72.12006 343.1978 M 71.25274 345 L 71.25274 343 L 72.12006 341.1978 L 72.12006 339.1978 M 72.12006 341.1978 L 72.98737 339.3957 L 74.55042 338.1479 M 72.98737 339.3957 L 73.8547 337.5935 L 73.8547 335.5935 L 72.98737 333.7914 M 73.8547 335.5935 L 73.8547 333.5935 L 74.72202 331.7914 M 73.8547 333.5935 L 73.8547 331.5935 M 73.8547 337.5935 L 74.72202 335.7914 L 74.72202 333.7914 M 74.72202 335.7914 L 75.58932 333.9892 L 77.15237 332.7415 M 75.58932 333.9892 L 76.45665 332.1871 L 78.01968 330.9393 L 78.88701 329.1371 M 78.01968 330.9393 L 79.58273 329.6916 L 81.53226 329.2451 M 79.58273 329.6916 L 81.14577 328.4438 M 76.45665 332.1871 L 77.32397 330.3849 L 77.32397 328.3849 M 77.32397 330.3849 L 78.19128 328.5828 L 79.75433 327.335 M 78.19128 328.5828 L 79.05861 326.7806 M 71.25274 343 L 71.25274 341 L 70.38543 339.1978 M 71.25274 341 L 71.25274 339 L 72.12006 337.1978 M 71.25274 339 L 71.25274 337 L 70.38543 335.1978 L 68.82238 333.9501 M 70.38543 335.1978 L 69.5181 333.3957 L 69.5181 331.3957 M 69.5181 333.3957 L 68.65079 331.5935 M 71.25274 337 L 71.25274 335 L 70.38543 333.1978 M 71.25274 335 L 71.25274 333 L 72.12006 331.1978 M 71.25274 333 L 71.25274 331 L 72.12006 329.1978 L 72.12006 327.1978 M 72.12006 329.1978 L 72.98737 327.3957 L 74.55042 326.1479 M 72.98737 327.3957 L 73.8547 325.5935 M 71.25274 331 L 71.25274 329 L 70.38541 327.1978 M 71.25274 329 L 71.25274 327 L 72.12006 325.1978 M 71.25274 327 L 71.25274 325 L 70.38541 323.1978 L 68.82238 321.9501 M 70.38541 323.1978 L 69.5181 321.3957 L 69.5181 319.3957 M 69.5181 321.3957 L 68.65079 319.5935 L 67.08775 318.3458 L 65.13821 317.8993 M 67.08775 318.3458 L 65.5247 317.098 L 64.65739 315.2959 M 65.5247 317.098 L 63.96165 315.8503 M 68.65079 319.5935 L 67.78347 317.7914 L 66.22043 316.5436 M 67.78347 317.7914 L 66.91615 315.9892 L 66.91615 313.9892 M 66.91615 315.9892 L 66.04883 314.1871 L 66.04883 312.1871 L 65.18152 310.3849 M 66.04883 312.1871 L 66.04883 310.1871 L 66.91615 308.3849 M 66.04883 310.1871 L 66.04883 308.1871 M 66.04883 314.1871 L 65.18152 312.3849 L 63.61847 311.1371 M 65.18152 312.3849 L 64.31419 310.5828 L 64.31419 308.5828 M 64.31419 310.5828 L 63.44688 308.7806 L 61.88383 307.5328 L 59.93432 307.0864 M 61.88383 307.5328 L 60.3208 306.2851 L 59.45348 304.4829 M 60.3208 306.2851 L 58.75776 305.0374 L 56.80823 304.5908 L 54.85793 305.0339 M 56.80823 304.5908 L 54.85871 304.1443 L 53.29567 302.8966 M 54.85871 304.1443 L 52.90919 303.6978 M 58.75776 305.0374 L 57.19472 303.7896 L 55.24519 303.3431 M 57.19472 303.7896 L 55.63168 302.5418 L 54.76436 300.7397 M 55.63168 302.5418 L 54.06863 301.2941 L 53.20131 299.4919 L 51.63827 298.2441 M 53.20131 299.4919 L 52.334 297.6898 L 52.334 295.6898 M 52.334 297.6898 L 51.46667 295.8876 M 54.06863 301.2941 L 52.50558 300.0463 L 50.55607 299.5998 M 52.50558 300.0463 L 50.94255 298.7986 L 50.07523 296.9964 M 50.94255 298.7986 L 49.37951 297.5508 M 63.44688 308.7806 L 62.57956 306.9785 L 61.01652 305.7307 M 62.57956 306.9785 L 61.71223 305.1763 L 61.71223 303.1763 M 61.71223 305.1763 L 60.84492 303.3741 L 59.28188 302.1264 L 57.33236 301.6799 M 59.28188 302.1264 L 57.71884 300.8786 L 56.85152 299.0765 M 57.71884 300.8786 L 56.1558 299.6309 M 60.84492 303.3741 L 59.97761 301.572 L 58.41457 300.3242 M 59.97761 301.572 L 59.11029 299.7698 L 59.11029 297.7698 M 59.11029 299.7698 L 58.24297 297.9677 L 58.24297 295.9677 L 57.37565 294.1655 M 58.24297 295.9677 L 58.24297 293.9677 L 59.11029 292.1655 M 58.24297 293.9677 L 58.24297 291.9677 M 58.24297 297.9677 L 57.37565 296.1655 L 55.81261 294.9178 M 57.37565 296.1655 L 56.50833 294.3634 L 56.50833 292.3634 M 56.50833 294.3634 L 55.64102 292.5612 L 55.64102 290.5612 L 54.7737 288.7591 M 55.64102 290.5612 L 55.64102 288.5612 L 56.50833 286.7591 M 55.64102 288.5612 L 55.64102 286.5612 L 54.7737 284.7591 L 53.21065 283.5113 M 54.7737 284.7591 L 53.90638 282.9569 L 53.90638 280.9569 M 53.90638 282.9569 L 53.03905 281.1548 M 55.64102 286.5612 L 55.64102 284.5612 L 54.7737 282.7591 M 55.64102 284.5612 L 55.64102 282.5612 L 56.50833 280.7591 M 55.64102 282.5612 L 55.64102 280.5612 L 56.50833 278.7591 L 56.50833 276.7591 M 56.50833 278.7591 L 57.37565 276.9569 L 58.93869 275.7092 M 57.37565 276.9569 L 58.24297 275.1548 M 55.64102 280.5612 L 55.64102 278.5612 L 54.7737 276.7591 M 55.64102 278.5612 L 55.64102 276.5612 L 56.50833 274.7591 M 55.64102 276.5612 L 55.64102 274.5612 M 55.64102 292.5612 L 54.7737 290.7591 L 53.21065 289.5113 M 54.7737 290.7591 L 53.90638 288.9569 L 53.90638 286.9569 M 53.90638 288.9569 L 53.03905 287.1548 L 51.47602 285.907 L 49.52649 285.4605 M 51.47602 285.907 L 49.91296 284.6592 L 49.04565 282.8571 M 49.91296 284.6592 L 48.34993 283.4115 M 53.03905 287.1548 L 52.17174 285.3526 L 50.6087 284.1049 M 52.17174 285.3526 L 51.30442 283.5504 L 51.30442 281.5504 M 51.30442 283.5504 L 50.4371 281.7483 L 50.4371 279.7483 L 49.56978 277.9461 M 50.4371 279.7483 L 50.4371 277.7483 L 51.30442 275.9461 M 50.4371 277.7483 L 50.4371 275.7483 M 50.4371 281.7483 L 49.56978 279.9461 L 48.00674 278.6984 M 49.56978 279.9461 L 48.70246 278.144 L 48.70246 276.144 M 48.70246 278.144 L 47.83514 276.3418 L 46.27209 275.0941 L 44.32258 274.6476 M 46.27209 275.0941 L 44.70906 273.8463 L 43.84174 272.0442 M 44.70906 273.8463 L 43.14602 272.5986 L 41.1965 272.152 L 39.2462 272.5952 M 41.1965 272.152 L 39.24697 271.7056 L 37.68393 270.4578 M 39.24697 271.7056 L 37.29745 271.259 M 43.14602 272.5986 L 41.58298 271.3508 L 39.63345 270.9043 M 41.58298 271.3508 L 40.01994 270.103 L 39.15262 268.3009 M 40.01994 270.103 L 38.45689 268.8553 L 37.58958 267.0531 L 36.02653 265.8054 M 37.58958 267.0531 L 36.72226 265.251 L 36.72226 263.251 M 36.72226 265.251 L 35.85493 263.4488 M 38.45689 268.8553 L 36.89385 267.6075 L 34.94433 267.161 M 36.89385 267.6075 L 35.33081 266.3598 L 34.46349 264.5576 M 35.33081 266.3598 L 33.76777 265.112 L 31.81824 264.6655 L 29.86795 265.1086 M 31.81824 264.6655 L 29.86872 264.219 L 28.30568 262.9713 M 29.86872 264.219 L 27.9192 263.7725 L 25.96889 264.2156 L 24.40368 265.4606 M 25.96889 264.2156 L 24.0186 264.6587 L 22.06908 264.2122 M 24.0186 264.6587 L 22.0683 265.1018 M 27.9192 263.7725 L 25.96967 263.326 L 24.01937 263.7691 M 25.96967 263.326 L 24.02015 262.8795 L 22.45711 261.6317 M 24.02015 262.8795 L 22.07062 262.433 L 20.50758 261.1852 L 18.55806 260.7387 M 20.50758 261.1852 L 18.94454 259.9375 L 18.07722 258.1353 M 18.94454 259.9375 L 17.3815 258.6897 M 22.07062 262.433 L 20.1211 261.9865 L 18.1708 262.4296 M 20.1211 261.9865 L 18.17158 261.54 L 16.60854 260.2922 M 18.17158 261.54 L 16.22205 261.0935 M 33.76777 265.112 L 32.20473 263.8643 L 30.2552 263.4178 M 32.20473 263.8643 L 30.64169 262.6165 L 29.77437 260.8143 M 30.64169 262.6165 L 29.07864 261.3687 L 27.12912 260.9222 L 25.17882 261.3654 M 27.12912 260.9222 L 25.1796 260.4757 L 23.61655 259.228 M 25.1796 260.4757 L 23.23007 260.0292 M 29.07864 261.3687 L 27.5156 260.121 L 25.56608 259.6745 M 27.5156 260.121 L 25.95256 258.8732 L 25.08524 257.0711 M 25.95256 258.8732 L 24.38951 257.6255 L 23.5222 255.8233 L 21.95916 254.5756 M 23.5222 255.8233 L 22.65488 254.0212 L 22.65488 252.0212 M 22.65488 254.0212 L 21.78757 252.219 M 24.38951 257.6255 L 22.82648 256.3777 L 20.87695 255.9312 M 22.82648 256.3777 L 21.26343 255.13 L 20.39612 253.3278 M 21.26343 255.13 L 19.70039 253.8822 L 18.83308 252.08 L 17.27003 250.8323 M 18.83308 252.08 L 17.96576 250.2779 L 17.96576 248.2779 M 17.96576 250.2779 L 17.09844 248.4757 L 15.5354 247.228 L 13.58588 246.7815 M 15.5354 247.228 L 13.97235 245.9802 L 13.10504 244.1781 M 13.97235 245.9802 L 12.40932 244.7325 M 17.09844 248.4757 L 16.23112 246.6736 L 14.66808 245.4258 M 16.23112 246.6736 L 15.36381 244.8714 L 15.36381 242.8714 M 15.36381 244.8714 L 14.49649 243.0693 L 14.49649 241.0693 L 13.62917 239.2671 M 14.49649 241.0693 L 14.49649 239.0693 L 15.36381 237.2671 M 14.49649 239.0693 L 14.49649 237.0693 M 14.49649 243.0693 L 13.62917 241.2671 L 12.06613 240.0194 M 13.62917 241.2671 L 12.76186 239.465 L 12.76186 237.465 M 12.76186 239.465 L 11.89454 237.6628 M 19.70039 253.8822 L 18.13735 252.6344 L 16.18783 252.1879 M 18.13735 252.6344 L 16.57431 251.3867 L 15.70699 249.5845 M 16.57431 251.3867 L 15.01126 250.1389 L 13.06174 249.6924 L 11.11145 250.1355 M 13.06174 249.6924 L 11.11222 249.2459 L 9.549175 247.9982 M 11.11222 249.2459 L 9.162697 248.7994 M 15.01126 250.1389 L 13.44823 248.8912 L 11.4987 248.4447 M 13.44823 248.8912 L 11.88518 247.6434 L 11.01787 245.8413 M 11.88518 247.6434 L 10.32214 246.3957 L 9.454826 244.5935 L 7.891777 243.3457 M 9.454826 244.5935 L 8.587505 242.7914 L 8.587505 240.7914 M 8.587505 242.7914 L 7.720188 240.9892 M 10.32214 246.3957 L 8.759098 245.1479 L 6.809578 244.7014 M 8.759098 245.1479 L 7.19606 243.9001 L 6.328743 242.098 M 7.19606 243.9001 L 5.633018 242.6524 M 47.83514 276.3418 L 46.96782 274.5397 L 45.40478 273.2919 M 46.96782 274.5397 L 46.10051 272.7375 L 46.10051 270.7375 M 46.10051 272.7375 L 45.23318 270.9354 L 43.67014 269.6876 L 41.72062 269.2411 M 43.67014 269.6876 L 42.10709 268.4398 L 41.23978 266.6377 M 42.10709 268.4398 L 40.54406 267.1921 M 45.23318 270.9354 L 44.36587 269.1332 L 42.80283 267.8854 M 44.36587 269.1332 L 43.49855 267.3311 L 43.49855 265.3311 M 43.49855 267.3311 L 42.63123 265.5289 L 42.63123 263.5289 L 41.76391 261.7267 M 42.63123 263.5289 L 42.63123 261.5289 L 43.49855 259.7267 M 42.63123 261.5289 L 42.63123 259.5289 M 42.63123 265.5289 L 41.76391 263.7267 L 40.20087 262.479 M 41.76391 263.7267 L 40.89659 261.9246 L 40.89659 259.9246 M 40.89659 261.9246 L 40.02927 260.1224 L 38.46623 258.8747 L 36.51671 258.4282 M 38.46623 258.8747 L 36.90319 257.6269 L 36.03587 255.8248 M 36.90319 257.6269 L 35.34015 256.3792 L 33.39062 255.9327 L 31.44033 256.3758 M 33.39062 255.9327 L 31.4411 255.4862 L 29.87806 254.2384 M 31.4411 255.4862 L 29.49158 255.0397 M 35.34015 256.3792 L 33.77711 255.1314 L 31.82758 254.6849 M 33.77711 255.1314 L 32.21407 253.8837 L 31.34675 252.0815 M 32.21407 253.8837 L 30.65102 252.6359 L 29.78371 250.8337 L 28.22066 249.586 M 29.78371 250.8337 L 28.91639 249.0316 L 28.91639 247.0316 M 28.91639 249.0316 L 28.04907 247.2294 M 30.65102 252.6359 L 29.08798 251.3881 L 27.13846 250.9416 M 29.08798 251.3881 L 27.52494 250.1404 L 26.65762 248.3382 M 27.52494 250.1404 L 25.96189 248.8926 M 40.02927 260.1224 L 39.16195 258.3203 L 37.59891 257.0725 M 39.16195 258.3203 L 38.29464 256.5181 L 38.29464 254.5181 M 38.29464 256.5181 L 37.42731 254.716 L 35.86428 253.4682 L 33.91475 253.0217 M 35.86428 253.4682 L 34.30123 252.2205 L 33.43392 250.4183 M 34.30123 252.2205 L 32.73819 250.9727 M 37.42731 254.716 L 36.56 252.9138 L 34.99696 251.6661 M 36.56 252.9138 L 35.69268 251.1117 L 35.69268 249.1117 M 35.69268 251.1117 L 34.82537 249.3095 L 34.82537 247.3095 L 33.95805 245.5074 M 34.82537 247.3095 L 34.82537 245.3095 L 35.69268 243.5074 M 34.82537 245.3095 L 34.82537 243.3095 M 34.82537 249.3095 L 33.95805 247.5074 L 32.39501 246.2596 M 33.95805 247.5074 L 33.09072 245.7052 L 33.09072 243.7052 M 33.09072 245.7052 L 32.22341 243.903 L 32.22341 241.903 L 31.3561 240.1009 M 32.22341 241.903 L 32.22341 239.903 L 33.09072 238.1009 M 32.22341 239.903 L 32.22341 237.903 L 31.3561 236.1009 L 29.79306 234.8531 M 31.3561 236.1009 L 30.48878 234.2987 L 30.48878 232.2987 M 30.48878 234.2987 L 29.62146 232.4966 M 32.22341 237.903 L 32.22341 235.903 L 31.3561 234.1009 M 32.22341 235.903 L 32.22341 233.903 L 33.09072 232.1009 M 32.22341 233.903 L 32.22341 231.903 L 33.09072 230.1009 L 33.09072 228.1009 M 33.09072 230.1009 L 33.95805 228.2987 L 35.52109 227.051 M 33.95805 228.2987 L 34.82537 226.4966 M 32.22341 231.903 L 32.22341 229.903 L 31.3561 228.1009 M 32.22341 229.903 L 32.22341 227.903 L 33.09072 226.1009 M 32.22341 227.903 L 32.22341 225.903 M 32.22341 243.903 L 31.3561 242.1009 L 29.79306 240.8531 M 31.3561 242.1009 L 30.48878 240.2987 L 30.48878 238.2987 M 30.48878 240.2987 L 29.62146 238.4966 L 28.05842 237.2488 L 26.1089 236.8023 M 28.05842 237.2488 L 26.49538 236.0011 L 25.62806 234.1989 M 26.49538 236.0011 L 24.93233 234.7533 M 29.62146 238.4966 L 28.75415 236.6944 L 27.1911 235.4467 M 28.75415 236.6944 L 27.88683 234.8923 L 27.88683 232.8923 M 27.88683 234.8923 L 27.01951 233.0901 L 27.01951 231.0901 L 26.15219 229.288 M 27.01951 231.0901 L 27.01951 229.0901 L 27.88683 227.288 M 27.01951 229.0901 L 27.01951 227.0901 M 27.01951 233.0901 L 26.15219 231.288 L 24.58915 230.0402 M 26.15219 231.288 L 25.28488 229.4858 L 25.28488 227.4858 M 25.28488 229.4858 L 24.41756 227.6837 L 24.41756 225.6837 L 23.55024 223.8815 M 24.41756 225.6837 L 24.41756 223.6837 L 25.28488 221.8815 M 24.41756 223.6837 L 24.41756 221.6837 L 23.55024 219.8815 L 21.9872 218.6337 M 23.55024 219.8815 L 22.68293 218.0793 L 22.68293 216.0793 M 22.68293 218.0793 L 21.81561 216.2772 M 24.41756 221.6837 L 24.41756 219.6837 L 23.55024 217.8815 M 24.41756 219.6837 L 24.41756 217.6837 L 25.28488 215.8815 M 24.41756 217.6837 L 24.41756 215.6837 L 25.28488 213.8815 L 25.28488 211.8815 M 25.28488 213.8815 L 26.15219 212.0793 L 27.71524 210.8316 M 26.15219 212.0793 L 27.01951 210.2772 M 24.41756 215.6837 L 24.41756 213.6837 L 23.55024 211.8815 M 24.41756 213.6837 L 24.41756 211.6837 L 25.28488 209.8815 M 24.41756 211.6837 L 24.41756 209.6837 L 23.55024 207.8815 L 21.9872 206.6337 M 23.55024 207.8815 L 22.68293 206.0793 L 22.68293 204.0793 M 22.68293 206.0793 L 21.81561 204.2772 L 20.25257 203.0294 L 18.30304 202.5829 M 20.25257 203.0294 L 18.68953 201.7816 L 17.82221 199.9795 M 18.68953 201.7816 L 17.12648 200.5339 M 21.81561 204.2772 L 20.94829 202.475 L 19.38525 201.2273 M 20.94829 202.475 L 20.08097 200.6729 L 20.08097 198.6729 M 20.08097 200.6729 L 19.21366 198.8707 L 19.21366 196.8707 L 18.34634 195.0686 M 19.21366 196.8707 L 19.21366 194.8707 L 20.08097 193.0686 M 19.21366 194.8707 L 19.21366 192.8707 M 19.21366 198.8707 L 18.34634 197.0686 L 16.78329 195.8208 M 18.34634 197.0686 L 17.47902 195.2664 L 17.47902 193.2664 M 17.47902 195.2664 L 16.61171 193.4643 M 24.41756 209.6837 L 24.41756 207.6837 L 23.55024 205.8815 M 24.41756 207.6837 L 24.41756 205.6837 L 25.28488 203.8815 M 24.41756 205.6837 L 24.41756 203.6837 L 23.55024 201.8815 L 21.9872 200.6337 M 23.55024 201.8815 L 22.68293 200.0793 L 22.68293 198.0793 M 22.68293 200.0793 L 21.81561 198.2772 M 24.41756 203.6837 L 24.41756 201.6837 L 23.55024 199.8815 M 24.41756 201.6837 L 24.41756 199.6837 L 25.28488 197.8815 M 24.41756 199.6837 L 24.41756 197.6837 L 25.28488 195.8815 L 25.28488 193.8815 M 25.28488 195.8815 L 26.15219 194.0793 L 27.71524 192.8316 M 26.15219 194.0793 L 27.01951 192.2772 M 24.41756 197.6837 L 24.41756 195.6837 L 23.55024 193.8815 M 24.41756 195.6837 L 24.41756 193.6837 L 25.28488 191.8815 M 24.41756 193.6837 L 24.41756 191.6837 L 25.28488 189.8815 L 25.28488 187.8815 M 25.28488 189.8815 L 26.15219 188.0793 L 27.71524 186.8316 M 26.15219 188.0793 L 27.01951 186.2772 L 27.01951 184.2772 L 26.15219 182.475 M 27.01951 184.2772 L 27.01951 182.2772 L 27.88683 180.475 M 27.01951 182.2772 L 27.01951 180.2772 M 27.01951 186.2772 L 27.88683 184.475 L 27.88683 182.475 M 27.88683 184.475 L 28.75415 182.6729 L 30.31719 181.4251 M 28.75415 182.6729 L 29.62146 180.8707 L 31.18451 179.623 L 32.05182 177.8208 M 31.18451 179.623 L 32.74755 178.3752 L 34.69707 177.9287 M 32.74755 178.3752 L 34.31059 177.1274 M 29.62146 180.8707 L 30.48878 179.0686 L 30.48878 177.0686 M 30.48878 179.0686 L 31.3561 177.2664 L 32.91914 176.0186 M 31.3561 177.2664 L 32.22341 175.4643 M 24.41756 191.6837 L 24.41756 189.6837 L 23.55024 187.8815 M 24.41756 189.6837 L 24.41756 187.6837 L 25.28488 185.8815 M 24.41756 187.6837 L 24.41756 185.6837 L 23.55024 183.8815 L 21.9872 182.6337 M 23.55024 183.8815 L 22.68293 182.0793 L 22.68293 180.0793 M 22.68293 182.0793 L 21.81561 180.2772 M 24.41756 185.6837 L 24.41756 183.6837 L 23.55024 181.8815 M 24.41756 183.6837 L 24.41756 181.6837 L 25.28488 179.8815 M 24.41756 181.6837 L 24.41756 179.6837 L 25.28488 177.8815 L 25.28488 175.8815 M 25.28488 177.8815 L 26.15219 176.0793 L 27.71524 174.8316 M 26.15219 176.0793 L 27.01951 174.2772 M 24.41756 179.6837 L 24.41756 177.6837 L 23.55024 175.8815 M 24.41756 177.6837 L 24.41756 175.6837 L 25.28488 173.8815 M 24.41756 175.6837 L 24.41756 173.6837 M 24.41756 227.6837 L 23.55024 225.8815 L 21.9872 224.6337 M 23.55024 225.8815 L 22.68293 224.0793 L 22.68293 222.0793 M 22.68293 224.0793 L 21.81561 222.2772 L 20.25257 221.0294 L 18.30304 220.5829 M 20.25257 221.0294 L 18.68953 219.7816 L 17.82221 217.9795 M 18.68953 219.7816 L 17.12648 218.5339 M 21.81561 222.2772 L 20.94829 220.475 L 19.38525 219.2273 M 20.94829 220.475 L 20.08097 218.6729 L 20.08097 216.6729 M 20.08097 218.6729 L 19.21366 216.8707 L 19.21366 214.8707 L 18.34634 213.0686 M 19.21366 214.8707 L 19.21366 212.8707 L 20.08097 211.0686 M 19.21366 212.8707 L 19.21366 210.8707 M 19.21366 216.8707 L 18.34634 215.0686 L 16.78329 213.8208 M 18.34634 215.0686 L 17.47902 213.2664 L 17.47902 211.2664 M 17.47902 213.2664 L 16.61171 211.4643 L 15.04866 210.2165 L 13.09914 209.77 M 15.04866 210.2165 L 13.48561 208.9687 L 12.6183 207.1666 M 13.48561 208.9687 L 11.92258 207.7209 L 9.973057 207.2744 L 8.022758 207.7175 M 9.973057 207.2744 L 8.023525 206.8279 L 6.460487 205.5802 M 8.023525 206.8279 L 6.074005 206.3814 M 11.92258 207.7209 L 10.35954 206.4732 L 8.410007 206.0267 M 10.35954 206.4732 L 8.796497 205.2254 L 7.929176 203.4232 M 8.796497 205.2254 L 7.233459 203.9776 L 6.366135 202.1755 L 4.803093 200.9277 M 6.366135 202.1755 L 5.498817 200.3733 L 5.498817 198.3733 M 5.498817 200.3733 L 4.6315 198.5712 M 7.233459 203.9776 L 5.67041 202.7299 L 3.720886 202.2834 M 5.67041 202.7299 L 4.107368 201.4821 L 3.240044 199.6799 M 4.107368 201.4821 L 2.544327 200.2343 M 16.61171 211.4643 L 15.74438 209.6621 L 14.18135 208.4143 M 15.74438 209.6621 L 14.87707 207.86 L 14.87707 205.86 M 14.87707 207.86 L 14.00975 206.0578 L 12.4467 204.81 L 10.49718 204.3635 M 12.4467 204.81 L 10.88367 203.5623 L 10.01635 201.7601 M 10.88367 203.5623 L 9.320625 202.3145 M 14.00975 206.0578 L 13.14244 204.2556 L 11.57939 203.0079 M 13.14244 204.2556 L 12.27512 202.4535 L 12.27512 200.4535 M 12.27512 202.4535 L 11.40779 200.6513 L 11.40779 198.6513 L 10.54048 196.8492 M 11.40779 198.6513 L 11.40779 196.6513 L 12.27512 194.8492 M 11.40779 196.6513 L 11.40779 194.6513 M 11.40779 200.6513 L 10.54048 198.8492 L 8.977436 197.6014 M 10.54048 198.8492 L 9.673168 197.047 L 9.673168 195.047 M 9.673168 197.047 L 8.805847 195.2449 L 8.805847 193.2449 L 7.938526 191.4427 M 8.805847 193.2449 L 8.805847 191.2449 L 9.673168 189.4427 M 8.805847 191.2449 L 8.805847 189.2449 L 7.938526 187.4427 L 6.375488 186.1949 M 7.938526 187.4427 L 7.071213 185.6406 L 7.071213 183.6406 M 7.071213 185.6406 L 6.203896 183.8384 M 8.805847 189.2449 L 8.805847 187.2449 L 7.938526 185.4427 M 8.805847 187.2449 L 8.805847 185.2449 L 9.673168 183.4427 M 8.805847 185.2449 L 8.805847 183.2449 L 9.673168 181.4427 L 9.673168 179.4427 M 9.673168 181.4427 L 10.54048 179.6406 L 12.10353 178.3928 M 10.54048 179.6406 L 11.40779 177.8384 M 8.805847 183.2449 L 8.805847 181.2449 L 7.938526 179.4427 M 8.805847 181.2449 L 8.805847 179.2449 L 9.673168 177.4427 M 8.805847 179.2449 L 8.805847 177.2449 M 8.805847 195.2449 L 7.938526 193.4427 L 6.375488 192.1949 M 7.938526 193.4427 L 7.071213 191.6406 L 7.071213 189.6406 M 7.071213 191.6406 L 6.203896 189.8384 L 4.640854 188.5906 L 2.69133 188.1441 M 4.640854 188.5906 L 3.07782 187.3429 L 2.210495 185.5407 M 3.07782 187.3429 L 1.514763 186.0951 M 6.203896 189.8384 L 5.336578 188.0363 L 3.773537 186.7885 M 5.336578 188.0363 L 4.469254 186.2341 L 4.469254 184.2341 M 4.469254 186.2341 L 3.601944 184.4319 L 3.601944 182.4319 L 2.734627 180.6298 M 3.601944 182.4319 L 3.601944 180.4319 L 4.469254 178.6298 M 3.601944 180.4319 L 3.601944 178.4319 M 3.601944 184.4319 L 2.734627 182.6298 L 1.171585 181.382 M 2.734627 182.6298 L 1.86731 180.8276 L 1.86731 178.8276 M 1.86731 180.8276 L 1 179.0255 M 71.25274 325 L 71.25274 323 L 70.38541 321.1978 M 71.25274 323 L 71.25274 321 L 72.12006 319.1978 M 71.25274 321 L 71.25274 319 L 70.38541 317.1978 L 68.82238 315.9501 M 70.38541 317.1978 L 69.5181 315.3957 L 69.5181 313.3957 M 69.5181 315.3957 L 68.65079 313.5935 M 71.25274 319 L 71.25274 317 L 70.38541 315.1978 M 71.25274 317 L 71.25274 315 L 72.12006 313.1978 M 71.25274 315 L 71.25274 313 L 72.12006 311.1978 L 72.12006 309.1978 M 72.12006 311.1978 L 72.98737 309.3957 L 74.55042 308.1479 M 72.98737 309.3957 L 73.8547 307.5935 M 71.25274 313 L 71.25274 311 L 70.38541 309.1978 M 71.25274 311 L 71.25274 309 L 72.12006 307.1978 M 71.25274 309 L 71.25274 307 L 70.38541 305.1978 L 68.82238 303.9501 M 70.38541 305.1978 L 69.5181 303.3957 L 69.5181 301.3957 M 69.5181 303.3957 L 68.65079 301.5935 L 67.08775 300.3458 L 65.13821 299.8993 M 67.08775 300.3458 L 65.5247 299.098 L 64.65739 297.2959 M 65.5247 299.098 L 63.96165 297.8503 M 68.65079 301.5935 L 67.78347 299.7914 L 66.22043 298.5436 M 67.78347 299.7914 L 66.91615 297.9892 L 66.91615 295.9892 M 66.91615 297.9892 L 66.04883 296.1871 L 66.04883 294.1871 L 65.1815 292.3849 M 66.04883 294.1871 L 66.04883 292.1871 L 66.91615 290.3849 M 66.04883 292.1871 L 66.04883 290.1871 M 66.04883 296.1871 L 65.1815 294.3849 L 63.61847 293.1371 M 65.1815 294.3849 L 64.31419 292.5828 L 64.31419 290.5828 M 64.31419 292.5828 L 63.44688 290.7806 M 71.25274 307 L 71.25274 305 L 70.38541 303.1978 M 71.25274 305 L 71.25274 303 L 72.12006 301.1978 M 71.25274 303 L 71.25274 301 L 70.38541 299.1978 L 68.82238 297.9501 M 70.38541 299.1978 L 69.5181 297.3957 L 69.5181 295.3957 M 69.5181 297.3957 L 68.65079 295.5935 M 71.25274 301 L 71.25274 299 L 70.38541 297.1978 M 71.25274 299 L 71.25274 297 L 72.12006 295.1978 M 71.25274 297 L 71.25274 295 L 72.12006 293.1978 L 72.12006 291.1978 M 72.12006 293.1978 L 72.98737 291.3957 L 74.55042 290.1479 M 72.98737 291.3957 L 73.8547 289.5935 M 71.25274 295 L 71.25274 293 L 70.38541 291.1978 M 71.25274 293 L 71.25274 291 L 72.12006 289.1978 M 71.25274 291 L 71.25274 289 L 72.12006 287.1978 L 72.12006 285.1978 M 72.12006 287.1978 L 72.98737 285.3957 L 74.55042 284.1479 M 72.98737 285.3957 L 73.8547 283.5935 L 73.8547 281.5935 L 72.98737 279.7914 M 73.8547 281.5935 L 73.8547 279.5935 L 74.72201 277.7914 M 73.8547 279.5935 L 73.8547 277.5935 M 73.8547 283.5935 L 74.72201 281.7914 L 74.72201 279.7914 M 74.72201 281.7914 L 75.58932 279.9892 L 77.15237 278.7415 M 75.58932 279.9892 L 76.45665 278.1871 L 78.01968 276.9393 L 78.88701 275.1371 M 78.01968 276.9393 L 79.58273 275.6916 L 81.53225 275.2451 M 79.58273 275.6916 L 81.14577 274.4438 M 76.45665 278.1871 L 77.32397 276.3849 L 77.32397 274.3849 M 77.32397 276.3849 L 78.19128 274.5828 L 79.75433 273.335 M 78.19128 274.5828 L 79.05859 272.7806 M 71.25274 289 L 71.25274 287 L 70.38541 285.1978 M 71.25274 287 L 71.25274 285 L 72.12006 283.1978 M 71.25274 285 L 71.25274 283 L 70.38541 281.1978 L 68.82238 279.9501 M 70.38541 281.1978 L 69.5181 279.3957 L 69.5181 277.3957 M 69.5181 279.3957 L 68.65079 277.5935 M 71.25274 283 L 71.25274 281 L 70.38541 279.1978 M 71.25274 281 L 71.25274 279 L 72.12006 277.1978 M 71.25274 279 L 71.25274 277 L 72.12006 275.1978 L 72.12006 273.1978 M 72.12006 275.1978 L 72.98737 273.3957 L 74.55042 272.1479 M 72.98737 273.3957 L 73.8547 271.5935 M 71.25274 277 L 71.25274 275 L 70.38541 273.1978 M 71.25274 275 L 71.25274 273 L 72.12006 271.1978 M 71.25274 273 L 71.25274 271 L 70.38541 269.1978 L 68.82238 267.9501 M 70.38541 269.1978 L 69.5181 267.3957 L 69.5181 265.3957 M 69.5181 267.3957 L 68.65079 265.5935 L 67.08774 264.3458 L 65.13821 263.8993 M 67.08774 264.3458 L 65.5247 263.098 L 64.65739 261.2959 M 65.5247 263.098 L 63.96165 261.8503 M 68.65079 265.5935 L 67.78347 263.7914 L 66.22043 262.5436 M 67.78347 263.7914 L 66.91615 261.9892 L 66.91615 259.9892 M 66.91615 261.9892 L 66.04883 260.1871 L 66.04883 258.1871 L 65.1815 256.3849 M 66.04883 258.1871 L 66.04883 256.1871 L 66.91615 254.3849 M 66.04883 256.1871 L 66.04883 254.1871 M 66.04883 260.1871 L 65.1815 258.3849 L 63.61847 257.1371 M 65.1815 258.3849 L 64.31419 256.5828 L 64.31419 254.5828 M 64.31419 256.5828 L 63.44688 254.7806 L 61.88383 253.5329 L 59.93431 253.0863 M 61.88383 253.5329 L 60.32079 252.2851 L 59.45348 250.4829 M 60.32079 252.2851 L 58.75775 251.0373 L 56.80823 250.5908 L 54.85793 251.0339 M 56.80823 250.5908 L 54.85871 250.1443 L 53.29567 248.8966 M 54.85871 250.1443 L 52.90919 249.6978 M 58.75775 251.0373 L 57.19471 249.7896 L 55.24519 249.3431 M 57.19471 249.7896 L 55.63167 248.5418 L 54.76435 246.7397 M 55.63167 248.5418 L 54.06863 247.2941 L 53.20131 245.4919 L 51.63827 244.2442 M 53.20131 245.4919 L 52.33398 243.6898 L 52.33398 241.6898 M 52.33398 243.6898 L 51.46667 241.8876 M 54.06863 247.2941 L 52.50558 246.0463 L 50.55607 245.5998 M 52.50558 246.0463 L 50.94255 244.7986 L 50.07523 242.9964 M 50.94255 244.7986 L 49.37951 243.5508 M 63.44688 254.7806 L 62.57956 252.9785 L 61.01652 251.7307 M 62.57956 252.9785 L 61.71223 251.1763 L 61.71223 249.1763 M 61.71223 251.1763 L 60.84492 249.3741 L 59.28188 248.1264 L 57.33236 247.6799 M 59.28188 248.1264 L 57.71884 246.8786 L 56.85152 245.0765 M 57.71884 246.8786 L 56.1558 245.6309 M 60.84492 249.3741 L 59.9776 247.572 L 58.41456 246.3242 M 59.9776 247.572 L 59.11029 245.7698 L 59.11029 243.7698 M 59.11029 245.7698 L 58.24297 243.9677 L 58.24297 241.9677 L 57.37565 240.1655 M 58.24297 241.9677 L 58.24297 239.9677 L 59.11029 238.1655 M 58.24297 239.9677 L 58.24297 237.9677 M 58.24297 243.9677 L 57.37565 242.1655 L 55.81261 240.9178 M 57.37565 242.1655 L 56.50833 240.3634 L 56.50833 238.3634 M 56.50833 240.3634 L 55.64101 238.5612 L 55.64101 236.5612 L 54.77369 234.7591 M 55.64101 236.5612 L 55.64101 234.5612 L 56.50833 232.7591 M 55.64101 234.5612 L 55.64101 232.5612 L 54.77369 230.7591 L 53.21065 229.5113 M 54.77369 230.7591 L 53.90638 228.9569 L 53.90638 226.9569 M 53.90638 228.9569 L 53.03905 227.1548 M 55.64101 232.5612 L 55.64101 230.5612 L 54.77369 228.7591 M 55.64101 230.5612 L 55.64101 228.5612 L 56.50833 226.7591 M 55.64101 228.5612 L 55.64101 226.5612 L 56.50833 224.7591 L 56.50833 222.7591 M 56.50833 224.7591 L 57.37565 222.9569 L 58.93869 221.7091 M 57.37565 222.9569 L 58.24297 221.1548 M 55.64101 226.5612 L 55.64101 224.5612 L 54.77369 222.7591 M 55.64101 224.5612 L 55.64101 222.5612 L 56.50833 220.7591 M 55.64101 222.5612 L 55.64101 220.5612 M 55.64101 238.5612 L 54.77369 236.7591 L 53.21065 235.5113 M 54.77369 236.7591 L 53.90638 234.9569 L 53.90638 232.9569 M 53.90638 234.9569 L 53.03905 233.1548 L 51.47601 231.907 L 49.52649 231.4605 M 51.47601 231.907 L 49.91296 230.6592 L 49.04565 228.8571 M 49.91296 230.6592 L 48.34993 229.4115 M 53.03905 233.1548 L 52.17174 231.3526 L 50.6087 230.1048 M 52.17174 231.3526 L 51.30442 229.5504 L 51.30442 227.5504 M 51.30442 229.5504 L 50.4371 227.7483 L 50.4371 225.7483 L 49.56978 223.9461 M 50.4371 225.7483 L 50.4371 223.7483 L 51.30442 221.9461 M 50.4371 223.7483 L 50.4371 221.7483 M 50.4371 227.7483 L 49.56978 225.9461 L 48.00674 224.6984 M 49.56978 225.9461 L 48.70246 224.144 L 48.70246 222.144 M 48.70246 224.144 L 47.83514 222.3418 M 71.25274 271 L 71.25274 269 L 70.38541 267.1978 M 71.25274 269 L 71.25274 267 L 72.12006 265.1978 M 71.25274 267 L 71.25274 265 L 70.38541 263.1978 L 68.82238 261.9501 M 70.38541 263.1978 L 69.5181 261.3957 L 69.5181 259.3957 M 69.5181 261.3957 L 68.65079 259.5935 M 71.25274 265 L 71.25274 263 L 70.38541 261.1978 M 71.25274 263 L 71.25274 261 L 72.12006 259.1978 M 71.25274 261 L 71.25274 259 L 72.12006 257.1978 L 72.12006 255.1978 M 72.12006 257.1978 L 72.98737 255.3957 L 74.55042 254.1479 M 72.98737 255.3957 L 73.85468 253.5935 M 71.25274 259 L 71.25274 257 L 70.38541 255.1978 M 71.25274 257 L 71.25274 255 L 72.12006 253.1978 M 71.25274 255 L 71.25274 253 L 70.38541 251.1978 L 68.82238 249.9501 M 70.38541 251.1978 L 69.5181 249.3957 L 69.5181 247.3957 M 69.5181 249.3957 L 68.65079 247.5935 L 67.08774 246.3458 L 65.13821 245.8993 M 67.08774 246.3458 L 65.5247 245.098 L 64.65738 243.2959 M 65.5247 245.098 L 63.96165 243.8503 M 68.65079 247.5935 L 67.78347 245.7914 L 66.22043 244.5436 M 67.78347 245.7914 L 66.91615 243.9892 L 66.91615 241.9892 M 66.91615 243.9892 L 66.04883 242.1871 L 66.04883 240.1871 L 65.1815 238.3849 M 66.04883 240.1871 L 66.04883 238.1871 L 66.91615 236.3849 M 66.04883 238.1871 L 66.04883 236.1871 M 66.04883 242.1871 L 65.1815 240.3849 L 63.61847 239.1372 M 65.1815 240.3849 L 64.31419 238.5828 L 64.31419 236.5828 M 64.31419 238.5828 L 63.44688 236.7806 M 71.25274 253 L 71.25274 251 L 70.38541 249.1978 M 71.25274 251 L 71.25274 249 L 72.12006 247.1978 M 71.25274 249 L 71.25274 247 L 70.38541 245.1978 L 68.82238 243.9501 M 70.38541 245.1978 L 69.5181 243.3957 L 69.5181 241.3957 M 69.5181 243.3957 L 68.65078 241.5935 M 71.25274 247 L 71.25274 245 L 70.38541 243.1978 M 71.25274 245 L 71.25274 243 L 72.12006 241.1978 M 71.25274 243 L 71.25274 241 L 72.12006 239.1978 L 72.12006 237.1978 M 72.12006 239.1978 L 72.98737 237.3957 L 74.55042 236.1479 M 72.98737 237.3957 L 73.85468 235.5935 M 71.25274 241 L 71.25274 239 L 70.38541 237.1978 M 71.25274 239 L 71.25274 237 L 72.12006 235.1978 M 71.25274 237 L 71.25274 235 L 72.12006 233.1978 L 72.12006 231.1978 M 72.12006 233.1978 L 72.98737 231.3957 L 74.55042 230.1479 M 72.98737 231.3957 L 73.85468 229.5935 L 73.85468 227.5935 L 72.98737 225.7914 M 73.85468 227.5935 L 73.85468 225.5935 L 74.72201 223.7914 M 73.85468 225.5935 L 73.85468 223.5935 M 73.85468 229.5935 L 74.72201 227.7914 L 74.72201 225.7914 M 74.72201 227.7914 L 75.58932 225.9892 L 77.15237 224.7415 M 75.58932 225.9892 L 76.45665 224.1871 L 78.01968 222.9393 L 78.88701 221.1371 M 78.01968 222.9393 L 79.58273 221.6915 L 81.53225 221.245 M 79.58273 221.6915 L 81.14577 220.4438 M 76.45665 224.1871 L 77.32397 222.3849 L 77.32397 220.3849 M 77.32397 222.3849 L 78.19128 220.5828 L 79.75433 219.335 M 78.19128 220.5828 L 79.05859 218.7806 M 71.25274 235 L 71.25274 233 L 70.38541 231.1978 M 71.25274 233 L 71.25274 231 L 72.12006 229.1978 M 71.25274 231 L 71.25274 229 L 70.38541 227.1978 L 68.82238 225.9501 M 70.38541 227.1978 L 69.5181 225.3957 L 69.5181 223.3957 M 69.5181 225.3957 L 68.65078 223.5935 M 71.25274 229 L 71.25274 227 L 70.38541 225.1978 M 71.25274 227 L 71.25274 225 L 72.12006 223.1978 M 71.25274 225 L 71.25274 223 L 72.12006 221.1978 L 72.12006 219.1978 M 72.12006 221.1978 L 72.98737 219.3957 L 74.55042 218.1479 M 72.98737 219.3957 L 73.85468 217.5935 M 71.25274 223 L 71.25274 221 L 70.38541 219.1978 M 71.25274 221 L 71.25274 219 L 72.12006 217.1978 M 71.25274 219 L 71.25274 217 L 72.12006 215.1978 L 72.12006 213.1978 M 72.12006 215.1978 L 72.98737 213.3957 L 74.55042 212.1479 M 72.98737 213.3957 L 73.85468 211.5935 L 73.85468 209.5935 L 72.98737 207.7914 M 73.85468 209.5935 L 73.85468 207.5935 L 74.72201 205.7914 M 73.85468 207.5935 L 73.85468 205.5935 M 73.85468 211.5935 L 74.72201 209.7914 L 74.72201 207.7914 M 74.72201 209.7914 L 75.58932 207.9892 L 77.15237 206.7415 M 75.58932 207.9892 L 76.45665 206.1871 L 78.01968 204.9393 L 78.88701 203.1371 M 78.01968 204.9393 L 79.58273 203.6915 L 81.53225 203.245 M 79.58273 203.6915 L 81.14577 202.4438 M 76.45665 206.1871 L 77.32397 204.3849 L 77.32397 202.3849 M 77.32397 204.3849 L 78.19128 202.5828 L 79.75432 201.335 M 78.19128 202.5828 L 79.05859 200.7806 L 79.05859 198.7806 L 78.19128 196.9785 M 79.05859 198.7806 L 79.05859 196.7806 L 79.92592 194.9785 M 79.05859 196.7806 L 79.05859 194.7806 L 78.19128 192.9785 L 76.62823 191.7307 M 78.19128 192.9785 L 77.32397 191.1763 L 77.32397 189.1763 M 77.32397 191.1763 L 76.45665 189.3741 M 79.05859 194.7806 L 79.05859 192.7806 L 78.19128 190.9785 M 79.05859 192.7806 L 79.05859 190.7806 L 79.92592 188.9785 M 79.05859 190.7806 L 79.05859 188.7806 L 79.92592 186.9785 L 79.92592 184.9785 M 79.92592 186.9785 L 80.79324 185.1763 L 82.35628 183.9285 M 80.79324 185.1763 L 81.66055 183.3741 M 79.05859 188.7806 L 79.05859 186.7806 L 78.19128 184.9785 M 79.05859 186.7806 L 79.05859 184.7806 L 79.92592 182.9785 M 79.05859 184.7806 L 79.05859 182.7806 M 79.05859 200.7806 L 79.92592 198.9785 L 79.92592 196.9785 M 79.92592 198.9785 L 80.79324 197.1763 L 82.35628 195.9285 M 80.79324 197.1763 L 81.66055 195.3741 L 81.66055 193.3741 L 80.79324 191.572 M 81.66055 193.3741 L 81.66055 191.3741 L 82.52786 189.572 M 81.66055 191.3741 L 81.66055 189.3741 M 81.66055 195.3741 L 82.52786 193.572 L 82.52786 191.572 M 82.52786 193.572 L 83.39519 191.7698 L 84.95823 190.5221 M 83.39519 191.7698 L 84.2625 189.9677 L 85.82555 188.7199 L 86.69286 186.9178 M 85.82555 188.7199 L 87.38859 187.4721 L 89.33812 187.0256 M 87.38859 187.4721 L 88.95163 186.2244 M 84.2625 189.9677 L 85.12983 188.1655 L 85.12983 186.1655 M 85.12983 188.1655 L 85.99715 186.3634 L 87.56019 185.1156 M 85.99715 186.3634 L 86.86446 184.5612 L 88.42751 183.3134 L 89.29483 181.5113 M 88.42751 183.3134 L 89.99055 182.0657 L 91.94006 181.6192 M 89.99055 182.0657 L 91.55359 180.8179 L 92.42091 179.0157 L 92.42091 177.0157 M 92.42091 179.0157 L 93.28822 177.2136 L 94.85126 175.9658 M 93.28822 177.2136 L 94.15553 175.4114 M 91.55359 180.8179 L 93.11662 179.5701 L 93.98395 177.768 M 93.11662 179.5701 L 94.67966 178.3224 L 96.6292 177.8759 M 94.67966 178.3224 L 96.24271 177.0746 L 98.19224 176.6281 L 99.75528 175.3803 M 98.19224 176.6281 L 100.1418 176.1816 L 102.0921 176.6247 M 100.1418 176.1816 L 102.0913 175.7351 M 96.24271 177.0746 L 97.80576 175.8268 L 98.67308 174.0247 M 97.80576 175.8268 L 99.3688 174.579 L 101.3183 174.1325 M 99.3688 174.579 L 100.9318 173.3313 M 86.86446 184.5612 L 87.73178 182.7591 L 87.73178 180.7591 M 87.73178 182.7591 L 88.5991 180.9569 L 90.16214 179.7091 M 88.5991 180.9569 L 89.46642 179.1548 L 89.46642 177.1548 L 88.5991 175.3526 M 89.46642 177.1548 L 89.46642 175.1548 L 90.33374 173.3526 M 89.46642 175.1548 L 89.46642 173.1548 M 89.46642 179.1548 L 90.33374 177.3526 L 90.33374 175.3526 M 90.33374 177.3526 L 91.20105 175.5504 L 92.76408 174.3027 M 91.20105 175.5504 L 92.06837 173.7483 L 93.63141 172.5005 L 94.49873 170.6984 M 93.63141 172.5005 L 95.19444 171.2527 L 97.14397 170.8062 M 95.19444 171.2527 L 96.75749 170.005 M 92.06837 173.7483 L 92.93568 171.9461 L 92.93568 169.9461 M 92.93568 171.9461 L 93.80299 170.144 L 95.36604 168.8962 M 93.80299 170.144 L 94.67032 168.3418 M 71.25274 217 L 71.25274 215 L 70.38541 213.1978 M 71.25274 215 L 71.25274 213 L 72.12006 211.1978 M 71.25274 213 L 71.25274 211 L 70.38541 209.1978 L 68.82238 207.9501 M 70.38541 209.1978 L 69.5181 207.3957 L 69.5181 205.3957 M 69.5181 207.3957 L 68.65078 205.5935 M 71.25274 211 L 71.25274 209 L 70.38541 207.1978 M 71.25274 209 L 71.25274 207 L 72.12006 205.1978 M 71.25274 207 L 71.25274 205 L 72.12006 203.1978 L 72.12006 201.1978 M 72.12006 203.1978 L 72.98737 201.3957 L 74.55041 200.1479 M 72.98737 201.3957 L 73.85468 199.5935 M 71.25274 205 L 71.25274 203 L 70.38541 201.1978 M 71.25274 203 L 71.25274 201 L 72.12006 199.1978 M 71.25274 201 L 71.25274 199 L 70.38541 197.1978 L 68.82238 195.9501 M 70.38541 197.1978 L 69.5181 195.3957 L 69.5181 193.3957 M 69.5181 195.3957 L 68.65078 193.5935 L 67.08774 192.3458 L 65.13821 191.8993 M 67.08774 192.3458 L 65.5247 191.098 L 64.65738 189.2958 M 65.5247 191.098 L 63.96165 189.8502 M 68.65078 193.5935 L 67.78345 191.7914 L 66.22041 190.5436 M 67.78345 191.7914 L 66.91615 189.9892 L 66.91615 187.9892 M 66.91615 189.9892 L 66.04883 188.1871 L 66.04883 186.1871 L 65.1815 184.3849 M 66.04883 186.1871 L 66.04883 184.1871 L 66.91615 182.3849 M 66.04883 184.1871 L 66.04883 182.1871 M 66.04883 188.1871 L 65.1815 186.3849 L 63.61847 185.1371 M 65.1815 186.3849 L 64.31419 184.5828 L 64.31419 182.5828 M 64.31419 184.5828 L 63.44687 182.7806 M 71.25274 199 L 71.25274 197 L 70.38541 195.1978 M 71.25274 197 L 71.25274 195 L 72.12006 193.1978 M 71.25274 195 L 71.25274 193 L 70.38541 191.1978 L 68.82238 189.9501 M 70.38541 191.1978 L 69.5181 189.3957 L 69.5181 187.3957 M 69.5181 189.3957 L 68.65078 187.5935 M 71.25274 193 L 71.25274 191 L 70.38541 189.1978 M 71.25274 191 L 71.25274 189 L 72.12006 187.1978 M 71.25274 189 L 71.25274 187 L 72.12006 185.1978 L 72.12005 183.1978 M 72.12006 185.1978 L 72.98737 183.3957 L 74.55041 182.1479 M 72.98737 183.3957 L 73.85468 181.5935 M 71.25274 187 L 71.25274 185 L 70.38541 183.1978 M 71.25274 185 L 71.25274 183 L 72.12005 181.1978 M 71.25274 183 L 71.25274 181 L 72.12005 179.1978 L 72.12005 177.1978 M 72.12005 179.1978 L 72.98737 177.3957 L 74.55041 176.1479 M 72.98737 177.3957 L 73.85468 175.5935 L 73.85468 173.5935 L 72.98737 171.7914 M 73.85468 173.5935 L 73.85468 171.5935 L 74.72201 169.7914 M 73.85468 171.5935 L 73.85468 169.5935 M 73.85468 175.5935 L 74.72201 173.7914 L 74.72201 171.7914 M 74.72201 173.7914 L 75.58932 171.9892 L 77.15237 170.7415 M 75.58932 171.9892 L 76.45665 170.1871 L 78.01968 168.9393 L 78.88699 167.1371 M 78.01968 168.9393 L 79.58273 167.6915 L 81.53225 167.245 M 79.58273 167.6915 L 81.14577 166.4438 M 76.45665 170.1871 L 77.32396 168.3849 L 77.32396 166.3849 M 77.32396 168.3849 L 78.19128 166.5828 L 79.75432 165.335 M 78.19128 166.5828 L 79.05859 164.7806 M 71.25274 181 L 71.25274 179 L 70.38541 177.1978 M 71.25274 179 L 71.25274 177 L 72.12005 175.1978 M 71.25274 177 L 71.25274 175 L 70.38541 173.1978 L 68.82238 171.9501 M 70.38541 173.1978 L 69.5181 171.3957 L 69.5181 169.3957 M 69.5181 171.3957 L 68.65078 169.5935 M 71.25274 175 L 71.25274 173 L 70.38541 171.1978 M 71.25274 173 L 71.25274 171 L 72.12005 169.1978 M 71.25274 171 L 71.25274 169 L 72.12005 167.1978 L 72.12005 165.1978 M 72.12005 167.1978 L 72.98737 165.3957 L 74.55041 164.1479 M 72.98737 165.3957 L 73.85468 163.5935 M 71.25274 169 L 71.25274 167 L 70.38541 165.1978 M 71.25274 167 L 71.25274 165 L 72.12005 163.1978 M 71.25274 165 L 71.25274 163 L 72.12005 161.1978 L 72.12005 159.1978 M 72.12005 161.1978 L 72.98737 159.3957 L 74.55041 158.1479 M 72.98737 159.3957 L 73.85468 157.5935 L 73.85468 155.5935 L 72.98737 153.7914 M 73.85468 155.5935 L 73.85468 153.5935 L 74.72201 151.7914 M 73.85468 153.5935 L 73.85468 151.5935 M 73.85468 157.5935 L 74.72201 155.7914 L 74.72201 153.7914 M 74.72201 155.7914 L 75.58932 153.9892 L 77.15237 152.7415 M 75.58932 153.9892 L 76.45663 152.1871 L 78.01968 150.9393 L 78.88699 149.1371 M 78.01968 150.9393 L 79.58273 149.6915 L 81.53225 149.245 M 79.58273 149.6915 L 81.14577 148.4438 M 76.45663 152.1871 L 77.32396 150.3849 L 77.32396 148.3849 M 77.32396 150.3849 L 78.19128 148.5828 L 79.75432 147.335 M 78.19128 148.5828 L 79.05859 146.7806 L 79.05859 144.7806 L 78.19128 142.9785 M 79.05859 144.7806 L 79.05859 142.7806 L 79.92592 140.9785 M 79.05859 142.7806 L 79.05859 140.7806 L 78.19128 138.9785 L 76.62823 137.7307 M 78.19128 138.9785 L 77.32396 137.1763 L 77.32396 135.1763 M 77.32396 137.1763 L 76.45663 135.3741 M 79.05859 140.7806 L 79.05859 138.7806 L 78.19128 136.9785 M 79.05859 138.7806 L 79.05859 136.7806 L 79.92592 134.9785 M 79.05859 136.7806 L 79.05859 134.7806 L 79.92592 132.9785 L 79.92592 130.9785 M 79.92592 132.9785 L 80.79324 131.1763 L 82.35628 129.9285 M 80.79324 131.1763 L 81.66055 129.3741 M 79.05859 134.7806 L 79.05859 132.7806 L 78.19128 130.9785 M 79.05859 132.7806 L 79.05859 130.7806 L 79.92592 128.9785 M 79.05859 130.7806 L 79.05859 128.7806 M 79.05859 146.7806 L 79.92592 144.9785 L 79.92592 142.9785 M 79.92592 144.9785 L 80.79324 143.1763 L 82.35628 141.9285 M 80.79324 143.1763 L 81.66055 141.3741 L 81.66055 139.3741 L 80.79324 137.572 M 81.66055 139.3741 L 81.66055 137.3741 L 82.52786 135.572 M 81.66055 137.3741 L 81.66055 135.3741 M 81.66055 141.3741 L 82.52786 139.572 L 82.52786 137.572 M 82.52786 139.572 L 83.39519 137.7698 L 84.95823 136.5221 M 83.39519 137.7698 L 84.2625 135.9677 L 85.82555 134.7199 L 86.69286 132.9178 M 85.82555 134.7199 L 87.38859 133.4721 L 89.3381 133.0256 M 87.38859 133.4721 L 88.95163 132.2244 M 84.2625 135.9677 L 85.12983 134.1655 L 85.12983 132.1655 M 85.12983 134.1655 L 85.99714 132.3634 L 87.56019 131.1156 M 85.99714 132.3634 L 86.86446 130.5612 L 88.4275 129.3134 L 89.29482 127.5113 M 88.4275 129.3134 L 89.99054 128.0657 L 91.94006 127.6192 M 89.99054 128.0657 L 91.55359 126.8179 L 92.42091 125.0157 L 92.42091 123.0157 M 92.42091 125.0157 L 93.28822 123.2136 L 94.85126 121.9658 M 93.28822 123.2136 L 94.15553 121.4114 M 91.55359 126.8179 L 93.11662 125.5701 L 93.98395 123.768 M 93.11662 125.5701 L 94.67966 124.3224 L 96.62919 123.8759 M 94.67966 124.3224 L 96.24271 123.0746 L 98.19223 122.6281 L 99.75528 121.3803 M 98.19223 122.6281 L 100.1418 122.1816 L 102.092 122.6247 M 100.1418 122.1816 L 102.0913 121.7351 M 96.24271 123.0746 L 97.80575 121.8268 L 98.67307 120.0247 M 97.80575 121.8268 L 99.36879 120.579 L 101.3183 120.1325 M 99.36879 120.579 L 100.9318 119.3313 M 86.86446 130.5612 L 87.73178 128.7591 L 87.73178 126.7591 M 87.73178 128.7591 L 88.5991 126.9569 L 90.16214 125.7091 M 88.5991 126.9569 L 89.46642 125.1548 L 89.46642 123.1548 L 88.5991 121.3526 M 89.46642 123.1548 L 89.46642 121.1548 L 90.33372 119.3526 M 89.46642 121.1548 L 89.46642 119.1548 M 89.46642 125.1548 L 90.33372 123.3526 L 90.33372 121.3526 M 90.33372 123.3526 L 91.20105 121.5504 L 92.76408 120.3027 M 91.20105 121.5504 L 92.06837 119.7483 L 93.63141 118.5005 L 94.49873 116.6984 M 93.63141 118.5005 L 95.19444 117.2527 L 97.14397 116.8062 M 95.19444 117.2527 L 96.75748 116.005 M 92.06837 119.7483 L 92.93568 117.9461 L 92.93568 115.9461 M 92.93568 117.9461 L 93.80299 116.144 L 95.36604 114.8962 M 93.80299 116.144 L 94.67032 114.3418 L 94.67032 112.3418 L 93.80299 110.5397 M 94.67032 112.3418 L 94.67032 110.3418 L 95.53764 108.5397 M 94.67032 110.3418 L 94.67032 108.3418 L 93.80299 106.5397 L 92.23996 105.2919 M 93.80299 106.5397 L 92.93568 104.7375 L 92.93568 102.7375 M 92.93568 104.7375 L 92.06836 102.9354 M 94.67032 108.3418 L 94.67032 106.3418 L 93.80299 104.5397 M 94.67032 106.3418 L 94.67032 104.3418 L 95.53764 102.5397 M 94.67032 104.3418 L 94.67032 102.3418 L 95.53764 100.5397 L 95.53764 98.53967 M 95.53764 100.5397 L 96.40495 98.73752 L 97.96799 97.48975 M 96.40495 98.73752 L 97.27226 96.93536 M 94.67032 102.3418 L 94.67032 100.3418 L 93.80299 98.53967 M 94.67032 100.3418 L 94.67032 98.34183 L 95.53764 96.53967 M 94.67032 98.34183 L 94.67032 96.34183 L 93.80299 94.53967 L 92.23996 93.2919 M 93.80299 94.53967 L 92.93568 92.73752 L 92.93568 90.73752 M 92.93568 92.73752 L 92.06836 90.93536 L 90.50532 89.68759 L 88.55579 89.24109 M 90.50532 89.68759 L 88.94228 88.43982 L 88.07496 86.63766 M 88.94228 88.43982 L 87.37923 87.19205 M 92.06836 90.93536 L 91.20103 89.13321 L 89.638 87.88544 M 91.20103 89.13321 L 90.33372 87.33105 L 90.33372 85.33105 M 90.33372 87.33105 L 89.4664 85.5289 L 89.4664 83.5289 L 88.59908 81.72675 M 89.4664 83.5289 L 89.4664 81.5289 L 90.33372 79.72675 M 89.4664 81.5289 L 89.4664 79.5289 M 89.4664 85.5289 L 88.59908 83.72675 L 87.03603 82.47897 M 88.59908 83.72675 L 87.73177 81.92459 L 87.73177 79.92459 M 87.73177 81.92459 L 86.86445 80.12244 M 94.67032 96.34183 L 94.67032 94.34183 L 93.80299 92.53967 M 94.67032 94.34183 L 94.67032 92.34183 L 95.53764 90.53967 M 94.67032 92.34183 L 94.67032 90.34183 L 93.80299 88.53967 L 92.23996 87.2919 M 93.80299 88.53967 L 92.93568 86.73752 L 92.93568 84.73752 M 92.93568 86.73752 L 92.06836 84.93536 M 94.67032 90.34183 L 94.67032 88.34183 L 93.80299 86.53967 M 94.67032 88.34183 L 94.67032 86.34183 L 95.53764 84.53967 M 94.67032 86.34183 L 94.67032 84.34183 L 95.53764 82.53967 L 95.53764 80.53967 M 95.53764 82.53967 L 96.40495 80.73752 L 97.96799 79.48975 M 96.40495 80.73752 L 97.27226 78.93536 M 94.67032 84.34183 L 94.67032 82.34183 L 93.80299 80.53967 M 94.67032 82.34183 L 94.67032 80.34183 L 95.53764 78.53967 M 94.67032 80.34183 L 94.67032 78.34183 L 95.53764 76.53967 L 95.53764 74.53967 M 95.53764 76.53967 L 96.40495 74.73752 L 97.96799 73.48975 M 96.40495 74.73752 L 97.27226 72.93536 L 97.27226 70.93536 L 96.40495 69.13321 M 97.27226 70.93536 L 97.27226 68.93536 L 98.13959 67.13321 M 97.27226 68.93536 L 97.27226 66.93536 M 97.27226 72.93536 L 98.13959 71.13321 L 98.13959 69.13321 M 98.13959 71.13321 L 99.0069 69.33105 L 100.5699 68.08328 M 99.0069 69.33105 L 99.87421 67.5289 L 101.4373 66.28113 L 102.3046 64.47897 M 101.4373 66.28113 L 103.0003 65.03336 L 104.9498 64.58685 M 103.0003 65.03336 L 104.5633 63.78558 M 99.87421 67.5289 L 100.7415 65.72675 L 100.7415 63.72675 M 100.7415 65.72675 L 101.6089 63.92459 L 103.1719 62.67682 M 101.6089 63.92459 L 102.4762 62.12244 M 94.67032 78.34183 L 94.67032 76.34183 L 93.80299 74.53967 M 94.67032 76.34183 L 94.67032 74.34183 L 95.53764 72.53967 M 94.67032 74.34183 L 94.67032 72.34183 L 93.80299 70.53967 L 92.23996 69.2919 M 93.80299 70.53967 L 92.93568 68.73752 L 92.93568 66.73752 M 92.93568 68.73752 L 92.06836 66.93536 M 94.67032 72.34183 L 94.67032 70.34183 L 93.80299 68.53967 M 94.67032 70.34183 L 94.67032 68.34183 L 95.53764 66.53967 M 94.67032 68.34183 L 94.67032 66.34183 L 95.53764 64.53967 L 95.53764 62.53967 M 95.53764 64.53967 L 96.40495 62.73752 L 97.96799 61.48975 M 96.40495 62.73752 L 97.27226 60.93536 M 94.67032 66.34183 L 94.67032 64.34183 L 93.80299 62.53967 M 94.67032 64.34183 L 94.67032 62.34183 L 95.53764 60.53967 M 94.67032 62.34183 L 94.67032 60.34183 M 94.67032 114.3418 L 95.53764 112.5397 L 95.53764 110.5397 M 95.53764 112.5397 L 96.40495 110.7375 L 97.96799 109.4897 M 96.40495 110.7375 L 97.27226 108.9354 L 97.27226 106.9354 L 96.40495 105.1332 M 97.27226 106.9354 L 97.27226 104.9354 L 98.13959 103.1332 M 97.27226 104.9354 L 97.27226 102.9354 M 97.27226 108.9354 L 98.13959 107.1332 L 98.13959 105.1332 M 98.13959 107.1332 L 99.0069 105.3311 L 100.5699 104.0833 M 99.0069 105.3311 L 99.87421 103.5289 L 101.4373 102.2811 L 102.3046 100.479 M 101.4373 102.2811 L 103.0003 101.0334 L 104.9498 100.5869 M 103.0003 101.0334 L 104.5633 99.78558 M 99.87421 103.5289 L 100.7415 101.7267 L 100.7415 99.72675 M 100.7415 101.7267 L 101.6089 99.92459 L 103.1719 98.67682 M 101.6089 99.92459 L 102.4762 98.12244 L 102.4762 96.12244 L 101.6088 94.32028 M 102.4762 96.12244 L 102.4762 94.12244 L 103.3435 92.32028 M 102.4762 94.12244 L 102.4762 92.12244 L 101.6088 90.32028 L 100.0458 89.07251 M 101.6088 90.32028 L 100.7415 88.51813 L 100.7415 86.51813 M 100.7415 88.51813 L 99.87421 86.71597 M 102.4762 92.12244 L 102.4762 90.12244 L 101.6088 88.32028 M 102.4762 90.12244 L 102.4762 88.12244 L 103.3435 86.32028 M 102.4762 88.12244 L 102.4762 86.12244 L 103.3435 84.32028 L 103.3435 82.32028 M 103.3435 84.32028 L 104.2108 82.51813 L 105.7738 81.27036 M 104.2108 82.51813 L 105.0781 80.71597 M 102.4762 86.12244 L 102.4762 84.12244 L 101.6088 82.32028 M 102.4762 84.12244 L 102.4762 82.12244 L 103.3435 80.32028 M 102.4762 82.12244 L 102.4762 80.12244 M 102.4762 98.12244 L 103.3435 96.32028 L 103.3435 94.32028 M 103.3435 96.32028 L 104.2108 94.51813 L 105.7738 93.27036 M 104.2108 94.51813 L 105.0781 92.71597 L 105.0781 90.71597 L 104.2108 88.91382 M 105.0781 90.71597 L 105.0781 88.71597 L 105.9454 86.91382 M 105.0781 88.71597 L 105.0781 86.71597 M 105.0781 92.71597 L 105.9454 90.91382 L 105.9454 88.91382 M 105.9454 90.91382 L 106.8128 89.11166 L 108.3758 87.86389 M 106.8128 89.11166 L 107.6801 87.30951 L 109.2431 86.06174 L 110.1104 84.25958 M 109.2431 86.06174 L 110.8062 84.81396 L 112.7557 84.36746 M 110.8062 84.81396 L 112.3692 83.56619 M 107.6801 87.30951 L 108.5474 85.50735 L 108.5474 83.50735 M 108.5474 85.50735 L 109.4147 83.7052 L 110.9777 82.45743 M 109.4147 83.7052 L 110.282 81.90305 L 111.8451 80.65527 L 112.7124 78.85312 M 111.8451 80.65527 L 113.4081 79.4075 L 115.3576 78.961 M 113.4081 79.4075 L 114.9711 78.15973 L 115.8385 76.35757 L 115.8385 74.35757 M 115.8385 76.35757 L 116.7058 74.55542 L 118.2688 73.30765 M 116.7058 74.55542 L 117.5731 72.75327 M 114.9711 78.15973 L 116.5342 76.91196 L 117.4015 75.1098 M 116.5342 76.91196 L 118.0972 75.66418 L 120.0468 75.21768 M 118.0972 75.66418 L 119.6603 74.41641 L 121.6098 73.96991 L 123.1728 72.72214 M 121.6098 73.96991 L 123.5593 73.52341 L 125.5096 73.96649 M 123.5593 73.52341 L 125.5089 73.0769 M 119.6603 74.41641 L 121.2233 73.16864 L 122.0906 71.36649 M 121.2233 73.16864 L 122.7864 71.92087 L 124.7359 71.47437 M 122.7864 71.92087 L 124.3494 70.6731 M 110.282 81.90305 L 111.1493 80.10089 L 111.1493 78.10089 M 111.1493 80.10089 L 112.0167 78.29874 L 113.5797 77.05096 M 112.0167 78.29874 L 112.884 76.49658 L 112.884 74.49658 L 112.0167 72.69443 M 112.884 74.49658 L 112.884 72.49658 L 113.7513 70.69443 M 112.884 72.49658 L 112.884 70.49658 M 112.884 76.49658 L 113.7513 74.69443 L 113.7513 72.69443 M 113.7513 74.69443 L 114.6186 72.89227 L 116.1817 71.6445 M 114.6186 72.89227 L 115.4859 71.09012 L 117.049 69.84235 L 117.9163 68.04019 M 117.049 69.84235 L 118.612 68.59457 L 120.5615 68.14807 M 118.612 68.59457 L 120.1751 67.3468 M 115.4859 71.09012 L 116.3532 69.28796 L 116.3532 67.28796 M 116.3532 69.28796 L 117.2206 67.48581 L 118.7836 66.23804 M 117.2206 67.48581 L 118.0879 65.68365 L 119.6509 64.43588 L 120.5182 62.63373 M 119.6509 64.43588 L 121.214 63.18811 L 123.1635 62.74161 M 121.214 63.18811 L 122.777 61.94034 L 123.6443 60.13818 L 123.6443 58.13818 M 123.6443 60.13818 L 124.5116 58.33603 L 126.0747 57.08826 M 124.5116 58.33603 L 125.379 56.53387 M 122.777 61.94034 L 124.34 60.69257 L 125.2074 58.89041 M 124.34 60.69257 L 125.9031 59.44479 L 127.8526 58.99829 M 125.9031 59.44479 L 127.4661 58.19702 L 129.4156 57.75052 L 130.9787 56.50275 M 129.4156 57.75052 L 131.3652 57.30402 L 133.3155 57.7471 M 131.3652 57.30402 L 133.3147 56.85751 M 127.4661 58.19702 L 129.0292 56.94925 L 129.8965 55.14709 M 129.0292 56.94925 L 130.5922 55.70148 L 132.5417 55.25497 M 130.5922 55.70148 L 132.1553 54.4537 L 133.0226 52.65155 L 133.0226 50.65155 M 133.0226 52.65155 L 133.8899 50.8494 L 135.4529 49.60162 M 133.8899 50.8494 L 134.7572 49.04724 L 134.7572 47.04724 L 133.8899 45.24509 M 134.7572 47.04724 L 134.7572 45.04724 L 135.6245 43.24509 M 134.7572 45.04724 L 134.7572 43.04724 M 134.7572 49.04724 L 135.6245 47.24509 L 135.6245 45.24509 M 135.6245 47.24509 L 136.4919 45.44293 L 138.0549 44.19516 M 136.4919 45.44293 L 137.3592 43.64078 L 138.9222 42.39301 L 139.7895 40.59085 M 138.9222 42.39301 L 140.4852 41.14523 L 142.4348 40.69873 M 140.4852 41.14523 L 142.0483 39.89746 M 137.3592 43.64078 L 138.2265 41.83862 L 138.2265 39.83862 M 138.2265 41.83862 L 139.0938 40.03647 L 140.6568 38.7887 M 139.0938 40.03647 L 139.9611 38.23431 M 132.1553 54.4537 L 133.7183 53.20593 L 134.5856 51.40378 M 133.7183 53.20593 L 135.2813 51.95816 L 137.2309 51.51166 M 135.2813 51.95816 L 136.8444 50.71039 L 137.7117 48.90823 L 137.7117 46.90823 M 137.7117 48.90823 L 138.579 47.10608 L 140.1421 45.85831 M 138.579 47.10608 L 139.4463 45.30392 M 136.8444 50.71039 L 138.4074 49.46262 L 139.2747 47.66046 M 138.4074 49.46262 L 139.9705 48.21484 L 141.92 47.76834 M 139.9705 48.21484 L 141.5335 46.96707 L 143.483 46.52057 L 145.0461 45.2728 M 143.483 46.52057 L 145.4326 46.07407 L 147.3828 46.51715 M 145.4326 46.07407 L 147.3821 45.62756 M 141.5335 46.96707 L 143.0966 45.7193 L 143.9639 43.91714 M 143.0966 45.7193 L 144.6596 44.47153 L 146.6091 44.02502 M 144.6596 44.47153 L 146.2226 43.22375 L 148.1721 42.77725 L 149.7352 41.52948 M 148.1721 42.77725 L 150.1217 42.33075 L 152.072 42.77383 M 150.1217 42.33075 L 152.0712 41.88425 L 153.6342 40.63647 L 154.5016 38.83432 M 153.6342 40.63647 L 155.1973 39.3887 L 157.1468 38.9422 M 155.1973 39.3887 L 156.7603 38.14093 M 152.0712 41.88425 L 154.0207 41.43774 L 155.5838 40.18997 M 154.0207 41.43774 L 155.9702 40.99124 L 157.9205 41.43433 M 155.9702 40.99124 L 157.9198 40.54474 L 159.8701 40.98782 L 161.8196 40.54132 M 159.8701 40.98782 L 161.8204 41.43091 L 163.3856 42.67593 M 161.8204 41.43091 L 163.7707 41.87399 M 157.9198 40.54474 L 159.8693 40.09824 L 161.4323 38.85046 M 159.8693 40.09824 L 161.8188 39.65173 L 163.7691 40.09482 M 161.8188 39.65173 L 163.7683 39.20523 M 146.2226 43.22375 L 147.7857 41.97598 L 148.653 40.17383 M 147.7857 41.97598 L 149.3487 40.72821 L 151.2982 40.28171 M 149.3487 40.72821 L 150.9117 39.48044 L 151.7791 37.67828 L 151.7791 35.67828 M 151.7791 37.67828 L 152.6464 35.87613 L 154.2094 34.62836 M 152.6464 35.87613 L 153.5137 34.07397 M 150.9117 39.48044 L 152.4748 38.23267 L 153.3421 36.43051 M 152.4748 38.23267 L 154.0378 36.98489 L 155.9874 36.53839 M 154.0378 36.98489 L 155.6009 35.73712 L 157.5504 35.29062 L 159.1134 34.04285 M 157.5504 35.29062 L 159.4999 34.84412 L 161.4502 35.2872 M 159.4999 34.84412 L 161.4494 34.39761 M 155.6009 35.73712 L 157.1639 34.48935 L 158.0312 32.68719 M 157.1639 34.48935 L 158.727 33.24158 L 160.6765 32.79507 M 158.727 33.24158 L 160.29 31.9938 M 118.0879 65.68365 L 118.9552 63.8815 L 118.9552 61.8815 M 118.9552 63.8815 L 119.8225 62.07935 L 121.3856 60.83157 M 119.8225 62.07935 L 120.6898 60.27719 L 120.6898 58.27719 L 119.8225 56.47504 M 120.6898 58.27719 L 120.6898 56.27719 L 121.5571 54.47504 M 120.6898 56.27719 L 120.6898 54.27719 M 120.6898 60.27719 L 121.5571 58.47504 L 121.5571 56.47504 M 121.5571 58.47504 L 122.4245 56.67288 L 123.9875 55.42511 M 122.4245 56.67288 L 123.2918 54.87073 L 124.8548 53.62296 L 125.7221 51.8208 M 124.8548 53.62296 L 126.4179 52.37518 L 128.3674 51.92868 M 126.4179 52.37518 L 127.9809 51.12741 M 123.2918 54.87073 L 124.1591 53.06857 L 124.1591 51.06857 M 124.1591 53.06857 L 125.0264 51.26642 L 126.5895 50.01865 M 125.0264 51.26642 L 125.8937 49.46426 L 125.8937 47.46426 L 125.0264 45.66211 M 125.8937 47.46426 L 125.8937 45.46426 L 126.761 43.66211 M 125.8937 45.46426 L 125.8937 43.46426 L 125.0264 41.66211 L 123.4634 40.41434 M 125.0264 41.66211 L 124.1591 39.85995 L 124.1591 37.85995 M 124.1591 39.85995 L 123.2918 38.0578 M 125.8937 43.46426 L 125.8937 41.46426 L 125.0264 39.66211 M 125.8937 41.46426 L 125.8937 39.46426 L 126.761 37.66211 M 125.8937 39.46426 L 125.8937 37.46426 L 126.761 35.66211 L 126.761 33.66211 M 126.761 35.66211 L 127.6284 33.85995 L 129.1914 32.61218 M 127.6284 33.85995 L 128.4957 32.0578 M 125.8937 37.46426 L 125.8937 35.46426 L 125.0264 33.66211 M 125.8937 35.46426 L 125.8937 33.46426 L 126.761 31.66211 M 125.8937 33.46426 L 125.8937 31.46426 M 125.8937 49.46426 L 126.761 47.66211 L 126.761 45.66211 M 126.761 47.66211 L 127.6284 45.85995 L 129.1914 44.61218 M 127.6284 45.85995 L 128.4957 44.0578 L 128.4957 42.0578 L 127.6284 40.25565 M 128.4957 42.0578 L 128.4957 40.0578 L 129.363 38.25565 M 128.4957 40.0578 L 128.4957 38.0578 M 128.4957 44.0578 L 129.363 42.25565 L 129.363 40.25565 M 129.363 42.25565 L 130.2303 40.45349 L 131.7934 39.20572 M 130.2303 40.45349 L 131.0976 38.65134 L 132.6607 37.40356 L 133.528 35.60141 M 132.6607 37.40356 L 134.2237 36.15579 L 136.1732 35.70929 M 134.2237 36.15579 L 135.7868 34.90802 M 131.0976 38.65134 L 131.965 36.84918 L 131.965 34.84918 M 131.965 36.84918 L 132.8323 35.04703 L 134.3953 33.79926 M 132.8323 35.04703 L 133.6996 33.24487 L 135.2626 31.9971 L 136.1299 30.19495 M 135.2626 31.9971 L 136.8257 30.74933 L 138.7752 30.30283 M 136.8257 30.74933 L 138.3887 29.50156 L 139.256 27.6994 L 139.256 25.6994 M 139.256 27.6994 L 140.1234 25.89725 L 141.6864 24.64948 M 140.1234 25.89725 L 140.9907 24.09509 M 138.3887 29.50156 L 139.9518 28.25378 L 140.8191 26.45163 M 139.9518 28.25378 L 141.5148 27.00601 L 143.4643 26.55951 M 141.5148 27.00601 L 143.0778 25.75824 L 145.0274 25.31174 L 146.5904 24.06396 M 145.0274 25.31174 L 146.9769 24.86523 L 148.9272 25.30832 M 146.9769 24.86523 L 148.9264 24.41873 M 143.0778 25.75824 L 144.6409 24.51047 L 145.5082 22.70831 M 144.6409 24.51047 L 146.2039 23.2627 L 148.1534 22.81619 M 146.2039 23.2627 L 147.767 22.01492 M 133.6996 33.24487 L 134.5669 31.44272 L 134.5669 29.44272 M 134.5669 31.44272 L 135.4342 29.64056 L 136.9973 28.39279 M 135.4342 29.64056 L 136.3015 27.83841 L 136.3015 25.83841 L 135.4342 24.03625 M 136.3015 25.83841 L 136.3015 23.83841 L 137.1689 22.03625 M 136.3015 23.83841 L 136.3015 21.83841 M 136.3015 27.83841 L 137.1689 26.03625 L 137.1689 24.03625 M 137.1689 26.03625 L 138.0362 24.2341 L 139.5992 22.98633 M 138.0362 24.2341 L 138.9035 22.43195 L 140.4665 21.18417 L 141.3339 19.38202 M 140.4665 21.18417 L 142.0296 19.9364 L 143.9791 19.4899 M 142.0296 19.9364 L 143.5926 18.68863 M 138.9035 22.43195 L 139.7708 20.62979 L 139.7708 18.62979 M 139.7708 20.62979 L 140.6381 18.82764 L 142.2012 17.57986 M 140.6381 18.82764 L 141.5054 17.02548 M 71.25274 163 L 71.25274 161 L 70.38541 159.1978 M 71.25274 161 L 71.25274 159 L 72.12005 157.1978 M 71.25274 159 L 71.25274 157 L 70.38541 155.1978 L 68.82238 153.9501 M 70.38541 155.1978 L 69.5181 153.3957 L 69.5181 151.3957 M 69.5181 153.3957 L 68.65078 151.5935 M 71.25274 157 L 71.25274 155 L 70.38541 153.1978 M 71.25274 155 L 71.25274 153 L 72.12005 151.1978 M 71.25274 153 L 71.25274 151 L 72.12005 149.1978 L 72.12005 147.1978 M 72.12005 149.1978 L 72.98737 147.3957 L 74.55041 146.1479 M 72.98737 147.3957 L 73.85468 145.5935 M 71.25274 151 L 71.25274 149 L 70.38541 147.1978 M 71.25274 149 L 71.25274 147 L 72.12005 145.1978 M 71.25274 147 L 71.25274 145 L 70.38541 143.1978 L 68.82238 141.9501 M 70.38541 143.1978 L 69.5181 141.3957 L 69.5181 139.3957 M 69.5181 141.3957 L 68.65078 139.5935 L 67.08774 138.3458 L 65.13821 137.8993 M 67.08774 138.3458 L 65.5247 137.098 L 64.65738 135.2958 M 65.5247 137.098 L 63.96165 135.8502 M 68.65078 139.5935 L 67.78345 137.7914 L 66.22041 136.5436 M 67.78345 137.7914 L 66.91614 135.9892 L 66.91614 133.9892 M 66.91614 135.9892 L 66.04883 134.1871 L 66.04883 132.1871 L 65.1815 130.3849 M 66.04883 132.1871 L 66.04883 130.1871 L 66.91614 128.3849 M 66.04883 130.1871 L 66.04883 128.1871 M 66.04883 134.1871 L 65.1815 132.3849 L 63.61847 131.1371 M 65.1815 132.3849 L 64.31419 130.5828 L 64.31419 128.5828 M 64.31419 130.5828 L 63.44687 128.7806 M 71.25274 145 L 71.25272 143 L 70.38541 141.1978 M 71.25272 143 L 71.25272 141 L 72.12005 139.1978 M 71.25272 141 L 71.25272 139 L 70.38541 137.1978 L 68.82238 135.9501 M 70.38541 137.1978 L 69.5181 135.3957 L 69.5181 133.3957 M 69.5181 135.3957 L 68.65078 133.5935 M 71.25272 139 L 71.25272 137 L 70.38541 135.1978 M 71.25272 137 L 71.25272 135 L 72.12005 133.1978 M 71.25272 135 L 71.25272 133 L 72.12005 131.1978 L 72.12005 129.1978 M 72.12005 131.1978 L 72.98737 129.3957 L 74.55041 128.1479 M 72.98737 129.3957 L 73.85468 127.5935 M 71.25272 133 L 71.25272 131 L 70.38541 129.1978 M 71.25272 131 L 71.25272 129 L 72.12005 127.1978 M 71.25272 129 L 71.25272 127 L 72.12005 125.1978 L 72.12005 123.1978 M 72.12005 125.1978 L 72.98737 123.3957 L 74.55041 122.1479 M 72.98737 123.3957 L 73.85468 121.5935 L 73.85468 119.5935 L 72.98737 117.7914 M 73.85468 119.5935 L 73.85468 117.5935 L 74.72201 115.7914 M 73.85468 117.5935 L 73.85468 115.5935 M 73.85468 121.5935 L 74.72201 119.7914 L 74.72201 117.7914 M 74.72201 119.7914 L 75.58932 117.9892 L 77.15237 116.7415 M 75.58932 117.9892 L 76.45663 116.1871 L 78.01968 114.9393 L 78.88699 113.1371 M 78.01968 114.9393 L 79.58273 113.6915 L 81.53225 113.245 M 79.58273 113.6915 L 81.14577 112.4438 M 76.45663 116.1871 L 77.32396 114.3849 L 77.32396 112.3849 M 77.32396 114.3849 L 78.19128 112.5828 L 79.75432 111.335 M 78.19128 112.5828 L 79.05859 110.7806 M 71.25272 127 L 71.25272 125 L 70.38541 123.1978 M 71.25272 125 L 71.25272 123 L 72.12005 121.1978 M 71.25272 123 L 71.25272 121 L 70.38541 119.1978 L 68.82236 117.9501 M 70.38541 119.1978 L 69.5181 117.3957 L 69.5181 115.3957 M 69.5181 117.3957 L 68.65078 115.5935 M 71.25272 121 L 71.25272 119 L 70.38541 117.1978 M 71.25272 119 L 71.25272 117 L 72.12005 115.1978 M 71.25272 117 L 71.25272 115 L 72.12005 113.1978 L 72.12005 111.1978 M 72.12005 113.1978 L 72.98737 111.3957 L 74.55041 110.1479 M 72.98737 111.3957 L 73.85468 109.5935 M 71.25272 115 L 71.25272 113 L 70.38541 111.1978 M 71.25272 113 L 71.25272 111 L 72.12005 109.1978 M 71.25272 111 L 71.25272 109 L 70.38541 107.1978 L 68.82236 105.9501 M 70.38541 107.1978 L 69.5181 105.3957 L 69.5181 103.3957 M 69.5181 105.3957 L 68.65078 103.5935 L 67.08774 102.3458 L 65.13821 101.8993 M 67.08774 102.3458 L 65.5247 101.098 L 64.65738 99.29584 M 65.5247 101.098 L 63.96165 99.85022 M 68.65078 103.5935 L 67.78345 101.7914 L 66.22041 100.5436 M 67.78345 101.7914 L 66.91614 99.98923 L 66.91614 97.98923 M 66.91614 99.98923 L 66.04881 98.18707 L 66.04881 96.18707 L 65.1815 94.38492 M 66.04881 96.18707 L 66.04881 94.18707 L 66.91614 92.38492 M 66.04881 94.18707 L 66.04881 92.18707 M 66.04881 98.18707 L 65.1815 96.38492 L 63.61847 95.13715 M 65.1815 96.38492 L 64.31419 94.58276 L 64.31419 92.58276 M 64.31419 94.58276 L 63.44687 92.78061 L 61.88383 91.53284 L 59.93431 91.08633 M 61.88383 91.53284 L 60.32079 90.28506 L 59.45347 88.48291 M 60.32079 90.28506 L 58.75775 89.03729 L 56.80822 88.59079 L 54.85793 89.03387 M 56.80822 88.59079 L 54.8587 88.14429 L 53.29565 86.89651 M 54.8587 88.14429 L 52.90918 87.69778 M 58.75775 89.03729 L 57.19471 87.78952 L 55.24518 87.34302 M 57.19471 87.78952 L 55.63167 86.54175 L 54.76435 84.73959 M 55.63167 86.54175 L 54.06862 85.29398 L 53.20129 83.49182 L 51.63826 82.24405 M 53.20129 83.49182 L 52.33398 81.68967 L 52.33398 79.68967 M 52.33398 81.68967 L 51.46667 79.88751 M 54.06862 85.29398 L 52.50558 84.0462 L 50.55606 83.5997 M 52.50558 84.0462 L 50.94254 82.79843 L 50.07522 80.99628 M 50.94254 82.79843 L 49.3795 81.55066 M 63.44687 92.78061 L 62.57955 90.97845 L 61.01651 89.73068 M 62.57955 90.97845 L 61.71223 89.1763 L 61.71223 87.1763 M 61.71223 89.1763 L 60.84491 87.37415 L 59.28187 86.12637 L 57.33235 85.67987 M 59.28187 86.12637 L 57.71883 84.8786 L 56.85152 83.07645 M 57.71883 84.8786 L 56.15578 83.63083 M 60.84491 87.37415 L 59.9776 85.57199 L 58.41456 84.32422 M 59.9776 85.57199 L 59.11028 83.76984 L 59.11028 81.76984 M 59.11028 83.76984 L 58.24296 81.96768 L 58.24296 79.96768 L 57.37564 78.16553 M 58.24296 79.96768 L 58.24296 77.96768 L 59.11028 76.16553 M 58.24296 77.96768 L 58.24296 75.96768 M 58.24296 81.96768 L 57.37564 80.16553 L 55.8126 78.91776 M 57.37564 80.16553 L 56.50832 78.36337 L 56.50832 76.36337 M 56.50832 78.36337 L 55.64101 76.56122 L 55.64101 74.56122 L 54.77369 72.75906 M 55.64101 74.56122 L 55.64101 72.56122 L 56.50832 70.75906 M 55.64101 72.56122 L 55.64101 70.56122 L 54.77369 68.75906 L 53.21065 67.51129 M 54.77369 68.75906 L 53.90636 66.95691 L 53.90636 64.95691 M 53.90636 66.95691 L 53.03905 65.15475 M 55.64101 70.56122 L 55.64101 68.56122 L 54.77369 66.75906 M 55.64101 68.56122 L 55.64101 66.56122 L 56.50832 64.75906 M 55.64101 66.56122 L 55.64101 64.56122 L 56.50832 62.75906 L 56.50832 60.75906 M 56.50832 62.75906 L 57.37564 60.95691 L 58.93867 59.70914 M 57.37564 60.95691 L 58.24296 59.15475 M 55.64101 64.56122 L 55.64101 62.56122 L 54.77369 60.75906 M 55.64101 62.56122 L 55.64101 60.56122 L 56.50832 58.75906 M 55.64101 60.56122 L 55.64101 58.56122 M 55.64101 76.56122 L 54.77369 74.75906 L 53.21065 73.51129 M 54.77369 74.75906 L 53.90636 72.95691 L 53.90636 70.95691 M 53.90636 72.95691 L 53.03905 71.15475 L 51.47601 69.90698 L 49.52649 69.46048 M 51.47601 69.90698 L 49.91296 68.65921 L 49.04565 66.85706 M 49.91296 68.65921 L 48.34991 67.41144 M 53.03905 71.15475 L 52.17173 69.3526 L 50.60869 68.10483 M 52.17173 69.3526 L 51.30441 67.55045 L 51.30441 65.55045 M 51.30441 67.55045 L 50.43709 65.74829 L 50.43709 63.74829 L 49.56977 61.94614 M 50.43709 63.74829 L 50.43709 61.74829 L 51.30441 59.94614 M 50.43709 61.74829 L 50.43709 59.74829 M 50.43709 65.74829 L 49.56977 63.94614 L 48.00673 62.69836 M 49.56977 63.94614 L 48.70245 62.14398 L 48.70245 60.14398 M 48.70245 62.14398 L 47.83513 60.34183 M 71.25272 109 L 71.25272 107 L 70.38541 105.1978 M 71.25272 107 L 71.25272 105 L 72.12005 103.1978 M 71.25272 105 L 71.25272 103 L 70.38541 101.1978 L 68.82236 99.95007 M 70.38541 101.1978 L 69.5181 99.39569 L 69.5181 97.39569 M 69.5181 99.39569 L 68.65078 97.59354 M 71.25272 103 L 71.25272 101 L 70.38541 99.19785 M 71.25272 101 L 71.25272 99 L 72.12005 97.19785 M 71.25272 99 L 71.25272 97 L 72.12005 95.19785 L 72.12005 93.19785 M 72.12005 95.19785 L 72.98737 93.39569 L 74.55041 92.14792 M 72.98737 93.39569 L 73.85468 91.59354 M 71.25272 97 L 71.25272 95 L 70.38541 93.19785 M 71.25272 95 L 71.25272 93 L 72.12005 91.19785 M 71.25272 93 L 71.25272 91 L 70.38541 89.19785 L 68.82236 87.95007 M 70.38541 89.19785 L 69.5181 87.39569 L 69.5181 85.39569 M 69.5181 87.39569 L 68.65078 85.59354 L 67.08774 84.34576 L 65.13821 83.89926 M 67.08774 84.34576 L 65.5247 83.09799 L 64.65738 81.29584 M 65.5247 83.09799 L 63.96165 81.85022 M 68.65078 85.59354 L 67.78345 83.79138 L 66.22041 82.54361 M 67.78345 83.79138 L 66.91614 81.98923 L 66.91614 79.98923 M 66.91614 81.98923 L 66.04881 80.18707 L 66.04881 78.18707 L 65.1815 76.38492 M 66.04881 78.18707 L 66.04881 76.18707 L 66.91614 74.38492 M 66.04881 76.18707 L 66.04881 74.18707 M 66.04881 80.18707 L 65.1815 78.38492 L 63.61846 77.13715 M 65.1815 78.38492 L 64.31419 76.58276 L 64.31419 74.58276 M 64.31419 76.58276 L 63.44687 74.78061 M 71.25272 91 L 71.25272 89 L 70.38541 87.19785 M 71.25272 89 L 71.25272 87 L 72.12005 85.19785 M 71.25272 87 L 71.25272 85 L 70.38541 83.19785 L 68.82236 81.95007 M 70.38541 83.19785 L 69.5181 81.39569 L 69.5181 79.39569 M 69.5181 81.39569 L 68.65078 79.59354 M 71.25272 85 L 71.25272 83 L 70.38541 81.19785 M 71.25272 83 L 71.25272 81 L 72.12005 79.19785 M 71.25272 81 L 71.25272 79 L 72.12005 77.19785 L 72.12005 75.19785 M 72.12005 77.19785 L 72.98737 75.39569 L 74.55041 74.14792 M 72.98737 75.39569 L 73.85468 73.59354 M 71.25272 79 L 71.25272 77 L 70.38541 75.19785 M 71.25272 77 L 71.25272 75 L 72.12005 73.19785 M 71.25272 75 L 71.25272 73 L 72.12005 71.19785 L 72.12005 69.19785 M 72.12005 71.19785 L 72.98737 69.39569 L 74.55041 68.14792 M 72.98737 69.39569 L 73.85468 67.59354 L 73.85468 65.59354 L 72.98737 63.79138 M 73.85468 65.59354 L 73.85468 63.59354 L 74.722 61.79138 M 73.85468 63.59354 L 73.85468 61.59354 M 73.85468 67.59354 L 74.722 65.79138 L 74.722 63.79138 M 74.722 65.79138 L 75.58932 63.98923 L 77.15236 62.74146 M 75.58932 63.98923 L 76.45663 62.18707 L 78.01968 60.9393 L 78.88699 59.13715 M 78.01968 60.9393 L 79.58272 59.69153 L 81.53225 59.24503 M 79.58272 59.69153 L 81.14576 58.44376 M 76.45663 62.18707 L 77.32396 60.38492 L 77.32396 58.38492 M 77.32396 60.38492 L 78.19128 58.58276 L 79.75432 57.33499 M 78.19128 58.58276 L 79.05859 56.78061 M 71.25272 73 L 71.25272 71 L 70.38541 69.19785 M 71.25272 71 L 71.25272 69 L 72.12005 67.19785 M 71.25272 69 L 71.25272 67 L 70.38541 65.19785 L 68.82236 63.95007 M 70.38541 65.19785 L 69.5181 63.39569 L 69.5181 61.39569 M 69.5181 63.39569 L 68.65078 61.59354 M 71.25272 67 L 71.25272 65 L 70.38541 63.19785 M 71.25272 65 L 71.25272 63 L 72.12005 61.19785 M 71.25272 63 L 71.25272 61 L 72.12005 59.19785 L 72.12005 57.19785 M 72.12005 59.19785 L 72.98737 57.39569 L 74.55041 56.14792 M 72.98737 57.39569 L 73.85468 55.59354 M 71.25272 61 L 71.25272 59 L 70.38541 57.19785 M 71.25272 59 L 71.25272 57 L 72.12005 55.19785 M 71.25272 57 L 71.25272 55 L 72.12005 53.19785 L 72.12005 51.19785 M 72.12005 53.19785 L 72.98737 51.39569 L 74.55041 50.14792 M 72.98737 51.39569 L 73.85468 49.59354 L 73.85468 47.59354 L 72.98737 45.79138 M 73.85468 47.59354 L 73.85468 45.59354 L 74.722 43.79138 M 73.85468 45.59354 L 73.85468 43.59354 M 73.85468 49.59354 L 74.722 47.79138 L 74.722 45.79138 M 74.722 47.79138 L 75.58932 45.98923 L 77.15236 44.74146 M 75.58932 45.98923 L 76.45663 44.18707 L 78.01968 42.9393 L 78.88699 41.13715 M 78.01968 42.9393 L 79.58272 41.69153 L 81.53223 41.24503 M 79.58272 41.69153 L 81.14576 40.44376 M 76.45663 44.18707 L 77.32396 42.38492 L 77.32396 40.38492 M 77.32396 42.38492 L 78.19128 40.58276 L 79.75432 39.33499 M 78.19128 40.58276 L 79.05859 38.78061 L 79.05859 36.78061 L 78.19128 34.97845 M 79.05859 36.78061 L 79.05859 34.78061 L 79.9259 32.97845 M 79.05859 34.78061 L 79.05859 32.78061 L 78.19128 30.97845 L 76.62823 29.73068 M 78.19128 30.97845 L 77.32396 29.1763 L 77.32396 27.1763 M 77.32396 29.1763 L 76.45663 27.37415 M 79.05859 32.78061 L 79.05859 30.78061 L 78.19128 28.97845 M 79.05859 30.78061 L 79.05859 28.78061 L 79.9259 26.97845 M 79.05859 28.78061 L 79.05859 26.78061 L 79.9259 24.97845 L 79.9259 22.97845 M 79.9259 24.97845 L 80.79323 23.1763 L 82.35627 21.92853 M 80.79323 23.1763 L 81.66055 21.37415 M 79.05859 26.78061 L 79.05859 24.78061 L 78.19128 22.97845 M 79.05859 24.78061 L 79.05859 22.78061 L 79.9259 20.97845 M 79.05859 22.78061 L 79.05859 20.78061 M 79.05859 38.78061 L 79.9259 36.97845 L 79.9259 34.97845 M 79.9259 36.97845 L 80.79323 35.1763 L 82.35627 33.92853 M 80.79323 35.1763 L 81.66055 33.37415 L 81.66055 31.37415 L 80.79323 29.57199 M 81.66055 31.37415 L 81.66055 29.37415 L 82.52786 27.57199 M 81.66055 29.37415 L 81.66055 27.37415 M 81.66055 33.37415 L 82.52786 31.57199 L 82.52786 29.57199 M 82.52786 31.57199 L 83.39519 29.76984 L 84.95823 28.52206 M 83.39519 29.76984 L 84.2625 27.96768 L 85.82554 26.71991 L 86.69286 24.91776 M 85.82554 26.71991 L 87.38859 25.47214 L 89.3381 25.02563 M 87.38859 25.47214 L 88.95163 24.22437 M 84.2625 27.96768 L 85.12981 26.16553 L 85.12981 24.16553 M 85.12981 26.16553 L 85.99714 24.36337 L 87.56018 23.1156 M 85.99714 24.36337 L 86.86446 22.56122 L 88.4275 21.31345 L 89.29482 19.51129 M 88.4275 21.31345 L 89.99054 20.06567 L 91.94006 19.61917 M 89.99054 20.06567 L 91.55357 18.8179 L 92.4209 17.01575 L 92.4209 15.01575 M 92.4209 17.01575 L 93.28822 15.21359 L 94.85126 13.96582 M 93.28822 15.21359 L 94.15553 13.41144 M 91.55357 18.8179 L 93.11662 17.57013 L 93.98393 15.76797 M 93.11662 17.57013 L 94.67966 16.32236 L 96.62919 15.87585 M 94.67966 16.32236 L 96.24271 15.07458 L 98.19223 14.62808 L 99.75526 13.38031 M 98.19223 14.62808 L 100.1417 14.18158 L 102.092 14.62466 M 100.1417 14.18158 L 102.0913 13.73508 M 96.24271 15.07458 L 97.80575 13.82681 L 98.67307 12.02466 M 97.80575 13.82681 L 99.36879 12.57904 L 101.3183 12.13254 M 99.36879 12.57904 L 100.9318 11.33127 M 86.86446 22.56122 L 87.73178 20.75906 L 87.73178 18.75906 M 87.73178 20.75906 L 88.59909 18.95691 L 90.16214 17.70914 M 88.59909 18.95691 L 89.46641 17.15475 L 89.46641 15.15475 L 88.59909 13.3526 M 89.46641 15.15475 L 89.46641 13.15475 L 90.33372 11.3526 M 89.46641 13.15475 L 89.46641 11.15475 M 89.46641 17.15475 L 90.33372 15.3526 L 90.33372 13.3526 M 90.33372 15.3526 L 91.20105 13.55045 L 92.76408 12.30267 M 91.20105 13.55045 L 92.06836 11.74829 L 93.63139 10.50052 L 94.49872 8.698364 M 93.63139 10.50052 L 95.19444 9.252747 L 97.14397 8.806244 M 95.19444 9.252747 L 96.75748 8.004974 M 92.06836 11.74829 L 92.93568 9.946136 L 92.93568 7.946136 M 92.93568 9.946136 L 93.80299 8.143982 L 95.36604 6.89621 M 93.80299 8.143982 L 94.6703 6.341827 M 71.25272 55 L 71.25272 53 L 70.38541 51.19785 M 71.25272 53 L 71.25272 51 L 72.12005 49.19785 M 71.25272 51 L 71.25272 49 L 70.38541 47.19785 L 68.82236 45.95007 M 70.38541 47.19785 L 69.51809 45.39569 L 69.51809 43.39569 M 69.51809 45.39569 L 68.65078 43.59354 M 71.25272 49 L 71.25272 47 L 70.38541 45.19785 M 71.25272 47 L 71.25272 45 L 72.12005 43.19785 M 71.25272 45 L 71.25272 43 L 72.12005 41.19785 L 72.12005 39.19785 M 72.12005 41.19785 L 72.98737 39.39569 L 74.55041 38.14792 M 72.98737 39.39569 L 73.85468 37.59354 M 71.25272 43 L 71.25272 41 L 70.38541 39.19785 M 71.25272 41 L 71.25272 39 L 72.12005 37.19785 M 71.25272 39 L 71.25272 37 L 70.38541 35.19785 L 68.82236 33.95007 M 70.38541 35.19785 L 69.51809 33.39569 L 69.51809 31.39569 M 69.51809 33.39569 L 68.65078 31.59354 L 67.08772 30.34576 L 65.13821 29.89926 M 67.08772 30.34576 L 65.52469 29.09799 L 64.65736 27.29584 M 65.52469 29.09799 L 63.96165 27.85022 M 68.65078 31.59354 L 67.78345 29.79138 L 66.22041 28.54361 M 67.78345 29.79138 L 66.91614 27.98923 L 66.91614 25.98923 M 66.91614 27.98923 L 66.04881 26.18707 L 66.04881 24.18707 L 65.1815 22.38492 M 66.04881 24.18707 L 66.04881 22.18707 L 66.91614 20.38492 M 66.04881 22.18707 L 66.04881 20.18707 M 66.04881 26.18707 L 65.1815 24.38492 L 63.61846 23.13715 M 65.1815 24.38492 L 64.31418 22.58276 L 64.31418 20.58276 M 64.31418 22.58276 L 63.44687 20.78061 M 71.25272 37 L 71.25272 35 L 70.38541 33.19785 M 71.25272 35 L 71.25272 33 L 72.12005 31.19785 M 71.25272 33 L 71.25272 31 L 70.38541 29.19785 L 68.82236 27.95007 M 70.38541 29.19785 L 69.51809 27.39569 L 69.51809 25.39569 M 69.51809 27.39569 L 68.65078 25.59354 M 71.25272 31 L 71.25272 29 L 70.38541 27.19785 M 71.25272 29 L 71.25272 27 L 72.12005 25.19785 M 71.25272 27 L 71.25272 25 L 72.12005 23.19785 L 72.12005 21.19785 M 72.12005 23.19785 L 72.98737 21.39569 L 74.55041 20.14792 M 72.98737 21.39569 L 73.85468 19.59354 M 71.25272 25 L 71.25272 23 L 70.38541 21.19785 M 71.25272 23 L 71.25272 21 L 72.12005 19.19785 M 71.25272 21 L 71.25272 19 L 72.12005 17.19785 L 72.12005 15.19785 M 72.12005 17.19785 L 72.98737 15.39569 L 74.55041 14.14792 M 72.98737 15.39569 L 73.85468 13.59354 L 73.85468 11.59354 L 72.98737 9.791382 M 73.85468 11.59354 L 73.85468 9.593536 L 74.722 7.791382 M 73.85468 9.593536 L 73.85468 7.593536 M 73.85468 13.59354 L 74.722 11.79138 L 74.722 9.791382 M 74.722 11.79138 L 75.58932 9.989227 L 77.15236 8.741455 M 75.58932 9.989227 L 76.45663 8.187073 L 78.01968 6.939301 L 78.88699 5.137146 M 78.01968 6.939301 L 79.58272 5.691528 L 81.53223 5.245026 M 79.58272 5.691528 L 81.14576 4.443756 M 76.45663 8.187073 L 77.32396 6.384918 L 77.32396 4.384918 M 77.32396 6.384918 L 78.19127 4.582764 L 79.75432 3.334991 M 78.19127 4.582764 L 79.05859 2.780609 M 71.25272 19 L 71.25272 17 L 70.38541 15.19785 M 71.25272 17 L 71.25272 15 L 72.12005 13.19785 M 71.25272 15 L 71.25272 13 L 70.38541 11.19785 L 68.82236 9.950073 M 70.38541 11.19785 L 69.51809 9.395691 L 69.51809 7.395691 M 69.51809 9.395691 L 68.65076 7.593536 M 71.25272 13 L 71.25272 11 L 70.38541 9.197845 M 71.25272 11 L 71.25272 9 L 72.12005 7.197845 M 71.25272 9 L 71.25272 7 L 72.12005 5.197845 L 72.12005 3.197845 M 72.12005 5.197845 L 72.98737 3.395691 L 74.55041 2.147919 M 72.98737 3.395691 L 73.85468 1.593536 M 71.25272 7 L 71.25272 5 L 70.38541 3.197845 M 71.25272 5 L 71.25272 3 L 72.12005 1.197845 M 71.25272 3 L 71.25272 1 " />
  </g>
</svg>
