<?xml version="1.0" encoding="UTF-8" standalone="no"?>
<!DOCTYPE svg PUBLIC "-//W3C//DTD SVG 1.1//EN"
    "http://www.w3.org/Graphics/SVG/1.1/DTD/svg11.dtd">
<svg xmlns="http://www.w3.org/2000/svg" width="252" height="510">
  <desc>plant_e LSystem</desc>
  <rect width="100%" height="100%" style="fill: white"/>
  <g stroke="black" fill="none" stroke-width="1">
    <path d="M 125.6628 509 L 125.6628 507 L 125.6628 505 L 125.6628 503 L 125.6628 501 L 125.6628 499 L 125.6628 497 L 125.6628 495 L 125.6628 493 L 125.6628 491 L 125.6628 489 L 125.6628 487 L 125.6628 485 L 125.6628 483 L 125.6628 481 L 125.6628 479 L 125.6628 477 L 125.6628 475 L 125.6628 473 L 125.6628 471 L 125.6628 469 L 125.6628 467 L 125.6628 465 L 125.6628 463 L 125.6628 461 L 125.6628 459 L 125.6628 457 L 125.6628 455 L 125.6628 453 L 125.6628 451 L 125.6628 449 L 125.6628 447 L 125.6628 445 L 125.6628 443 L 125.6628 441 L 125.6628 439 L 125.6628 437 L 125.6628 435 L 125.6628 433 L 125.6628 431 L 125.6628 429 L 125.6628 427 L 125.6628 425 L 125.6628 423 L 125.6628 421 L 125.6628 419 L 125.6628 417 L 125.6628 415 L 125.6628 413 L 125.6628 411 L 125.6628 409 L 125.6628 407 L 125.6628 405 L 125.6628 403 L 125.6628 401 L 125.6628 399 L 125.6628 397 L 125.6628 395 L 125.6628 393 L 125.6628 391 L 125.6628 389 L 125.6628 387 L 125.6628 385 L 125.6628 383 L 125.6628 381 L 124.7954 379.1978 L 123.9281 377.3957 L 123.0608 375.5935 L 122.1935 373.7914 L 121.3262 371.9892 L 120.4588 370.1871 L 119.5915 368.3849 L 118.7242 366.5828 L 117.8569 364.7806 L 116.9896 362.9785 L 116.1222 361.1763 L 115.2549 359.3741 L 114.3876 357.572 L 113.5203 355.7698 L 112.653 353.9677 L 111.7856 352.1655 L 110.9183 350.3634 L 110.051 348.5612 L 109.1837 346.7591 L 108.3164 344.9569 L 107.449 343.1548 L 106.5817 341.3526 L 105.7144 339.5504 L 104.8471 337.7483 L 103.9798 335.9461 L 103.1124 334.144 L 102.2451 332.3418 L 101.3778 330.5397 L 100.5105 328.7375 L 99.64316 326.9354 L 98.77583 325.1332 L 97.90852 323.3311 L 96.34547 322.0833 L 94.78244 320.8355 L 93.2194 319.5878 L 91.65636 318.34 L 90.09332 317.0923 L 88.53027 315.8445 L 86.96724 314.5967 L 85.4042 313.349 L 83.84116 312.1013 L 82.27812 310.8535 L 80.71507 309.6057 L 79.15204 308.358 L 77.589 307.1102 L 76.02596 305.8625 L 74.46292 304.6147 L 72.89988 303.3669 L 70.95036 302.9204 L 69.00084 302.4739 L 67.05132 302.0274 L 65.1018 301.5809 L 63.15228 301.1344 L 61.20276 300.6879 L 59.25323 300.2414 L 57.30371 299.7949 L 55.35341 300.238 L 53.40311 300.6811 L 51.4528 301.1242 L 49.50249 301.5673 L 47.93728 302.8123 L 46.37206 304.0574 L 45.50159 305.858 L 44.63114 307.6587 M 46.37206 304.0574 L 44.42176 304.5005 L 42.47146 304.9436 M 46.37206 304.0574 L 44.80684 305.3024 L 43.24163 306.5474 L 41.67641 307.7924 L 40.1112 309.0375 M 49.50249 301.5673 L 47.55297 301.1208 L 45.60345 300.6743 L 43.65314 301.1174 L 41.70284 301.5605 M 45.60345 300.6743 L 44.04041 299.4266 L 42.47737 298.1788 M 45.60345 300.6743 L 43.65393 300.2278 L 41.70441 299.7813 L 39.75488 299.3348 L 37.80535 298.8883 M 49.50249 301.5673 L 47.55219 302.0104 L 45.60189 302.4535 L 43.65159 302.8966 L 41.70129 303.3397 L 39.75098 303.7828 L 37.80067 304.2259 L 36.23546 305.4709 L 34.67023 306.716 M 37.80067 304.2259 L 35.85115 303.7794 L 33.90163 303.3329 M 37.80067 304.2259 L 35.85036 304.669 L 33.90005 305.1121 L 31.94975 305.5552 L 29.99945 305.9983 M 57.30371 299.7949 L 55.74067 298.5472 L 54.17763 297.2994 L 52.61459 296.0516 L 51.05154 294.8039 L 49.10202 294.3574 L 47.1525 293.9109 L 45.20219 294.354 L 43.25188 294.7971 M 47.1525 293.9109 L 45.58945 292.6631 L 44.02642 291.4154 M 47.1525 293.9109 L 45.20296 293.4644 L 43.25344 293.0179 L 41.30392 292.5714 L 39.3544 292.1249 M 51.05154 294.8039 L 50.18423 293.0017 L 49.31691 291.1996 L 47.75387 289.9518 L 46.19083 288.7041 M 49.31691 291.1996 L 49.31691 289.1996 L 49.31691 287.1996 M 49.31691 291.1996 L 48.44958 289.3974 L 47.58227 287.5953 L 46.71495 285.7931 L 45.84764 283.991 M 51.05154 294.8039 L 49.48849 293.5562 L 47.92546 292.3084 L 46.36242 291.0606 L 44.79938 289.8129 L 43.23634 288.5651 L 41.67329 287.3174 L 39.72377 286.8708 L 37.77425 286.4243 M 41.67329 287.3174 L 40.80598 285.5152 L 39.93866 283.713 M 41.67329 287.3174 L 40.11024 286.0696 L 38.54721 284.8218 L 36.98417 283.5741 L 35.42113 282.3263 M 57.30371 299.7949 L 55.35419 299.3484 L 53.40467 298.9019 L 51.45515 298.4554 L 49.50562 298.0089 L 47.55609 297.5624 L 45.60657 297.1159 L 43.65705 296.6694 L 41.70753 296.2229 L 39.75801 295.7764 L 37.80849 295.3299 L 35.85897 294.8834 L 33.90945 294.4369 L 31.95914 294.88 L 30.00883 295.3231 L 28.44362 296.5681 L 26.8784 297.8131 M 30.00883 295.3231 L 28.05931 294.8766 L 26.10979 294.4301 M 30.00883 295.3231 L 28.05853 295.7662 L 26.10823 296.2093 L 24.15793 296.6524 L 22.20763 297.0955 M 33.90945 294.4369 L 32.34641 293.1891 L 30.78337 291.9414 L 28.83385 291.4949 L 26.88433 291.0484 M 30.78337 291.9414 L 29.91606 290.1392 L 29.04874 288.3371 M 30.78337 291.9414 L 29.22033 290.6936 L 27.65729 289.4459 L 26.09425 288.1981 L 24.5312 286.9503 M 33.90945 294.4369 L 31.95992 293.9904 L 30.01039 293.5439 L 28.06087 293.0974 L 26.11135 292.6509 L 24.16183 292.2044 L 22.21231 291.7579 L 20.26201 292.201 L 18.31171 292.6441 M 22.21231 291.7579 L 20.64927 290.5101 L 19.08623 289.2624 M 22.21231 291.7579 L 20.26279 291.3114 L 18.31327 290.8649 L 16.36375 290.4184 L 14.41422 289.9719 M 72.89988 303.3669 L 72.03256 301.5648 L 71.16524 299.7626 L 70.29791 297.9605 L 69.4306 296.1583 L 68.56328 294.3562 L 67.69595 292.554 L 66.82864 290.7519 L 65.96132 288.9497 L 64.39828 287.702 L 62.83524 286.4542 L 61.2722 285.2064 L 59.70916 283.9587 L 57.75964 283.5122 L 55.8101 283.0657 L 53.85979 283.5088 L 51.90948 283.9519 M 55.8101 283.0657 L 54.24706 281.8179 L 52.68402 280.5702 M 55.8101 283.0657 L 53.86058 282.6192 L 51.91106 282.1727 L 49.96152 281.7262 L 48.012 281.2797 M 59.70916 283.9587 L 58.84184 282.1565 L 57.97452 280.3544 L 56.41148 279.1066 L 54.84843 277.8589 M 57.97452 280.3544 L 57.97452 278.3544 L 57.97452 276.3544 M 57.97452 280.3544 L 57.1072 278.5522 L 56.23989 276.7501 L 55.37258 274.9479 L 54.50526 273.1458 M 59.70916 283.9587 L 58.14612 282.7109 L 56.58308 281.4632 L 55.02003 280.2154 L 53.457 278.9677 L 51.89396 277.7199 L 50.33092 276.4721 L 48.3814 276.0256 L 46.43188 275.5791 M 50.33092 276.4721 L 49.4636 274.67 L 48.59629 272.8678 M 50.33092 276.4721 L 48.76788 275.2244 L 47.20484 273.9766 L 45.6418 272.7289 L 44.07876 271.4811 M 65.96132 288.9497 L 65.96132 286.9497 L 65.96132 284.9497 L 65.96132 282.9497 L 65.96132 280.9497 L 65.09399 279.1476 L 64.22668 277.3454 L 62.66364 276.0977 L 61.1006 274.8499 M 64.22668 277.3454 L 64.22668 275.3454 L 64.22668 273.3454 M 64.22668 277.3454 L 63.35936 275.5432 L 62.49204 273.7411 L 61.62472 271.9389 L 60.7574 270.1368 M 65.96132 280.9497 L 66.82864 279.1476 L 67.69595 277.3454 L 67.69595 275.3454 L 67.69595 273.3454 M 67.69595 277.3454 L 69.259 276.0977 L 70.82204 274.8499 M 67.69595 277.3454 L 68.56328 275.5432 L 69.4306 273.7411 L 70.29791 271.9389 L 71.16524 270.1368 M 65.96132 280.9497 L 65.96132 278.9497 L 65.96132 276.9497 L 65.96132 274.9497 L 65.96132 272.9497 L 65.96132 270.9497 L 65.96132 268.9497 L 65.09399 267.1476 L 64.22668 265.3454 M 65.96132 268.9497 L 66.82864 267.1476 L 67.69595 265.3454 M 65.96132 268.9497 L 65.96132 266.9497 L 65.96132 264.9497 L 65.96132 262.9497 L 65.96132 260.9497 M 65.96132 288.9497 L 65.09399 287.1476 L 64.22668 285.3454 L 63.35936 283.5432 L 62.49204 281.7411 L 61.62472 279.9389 L 60.7574 278.1368 L 59.89009 276.3346 L 59.02278 274.5325 L 58.15546 272.7303 L 57.28815 270.9282 L 56.42083 269.126 L 55.5535 267.3239 L 53.99047 266.0761 L 52.42743 264.8283 L 50.47791 264.3818 L 48.52838 263.9353 M 52.42743 264.8283 L 51.5601 263.0262 L 50.69279 261.224 M 52.42743 264.8283 L 50.86439 263.5806 L 49.30135 262.3328 L 47.7383 261.0851 L 46.17525 259.8373 M 55.5535 267.3239 L 55.5535 265.3239 L 55.5535 263.3239 L 54.68619 261.5217 L 53.81887 259.7195 M 55.5535 263.3239 L 56.42081 261.5217 L 57.28812 259.7195 M 55.5535 263.3239 L 55.5535 261.3239 L 55.5535 259.3239 L 55.5535 257.3239 L 55.5535 255.3239 M 55.5535 267.3239 L 54.68619 265.5217 L 53.81887 263.7195 L 52.95156 261.9174 L 52.08425 260.1152 L 51.21693 258.3131 L 50.34962 256.5109 L 48.78658 255.2632 L 47.22354 254.0154 M 50.34962 256.5109 L 50.34962 254.5109 L 50.34962 252.5109 M 50.34962 256.5109 L 49.4823 254.7088 L 48.61497 252.9066 L 47.74766 251.1045 L 46.88034 249.3023 M 72.89988 303.3669 L 71.33684 302.1192 L 69.7738 300.8714 L 68.21075 299.6237 L 66.64772 298.3759 L 65.08468 297.1282 L 63.52164 295.8804 L 61.9586 294.6326 L 60.39556 293.3849 L 58.83252 292.1371 L 57.26948 290.8894 L 55.70644 289.6416 L 54.14339 288.3939 L 52.58035 287.1461 L 51.01731 285.8983 L 49.45427 284.6506 L 47.89123 283.4028 L 46.32819 282.1551 L 44.76514 280.9073 L 43.2021 279.6595 L 41.63906 278.4118 L 40.07602 277.1641 L 38.51298 275.9163 L 36.94994 274.6685 L 35.38689 273.4208 L 33.43737 272.9743 L 31.48785 272.5278 L 29.53831 272.0813 L 27.58879 271.6348 L 25.63849 272.0779 L 23.68819 272.521 L 22.12297 273.766 L 20.55775 275.011 M 23.68819 272.521 L 21.73866 272.0745 L 19.78913 271.628 M 23.68819 272.521 L 21.73788 272.9641 L 19.78757 273.4072 L 17.83727 273.8503 L 15.88697 274.2934 M 27.58879 271.6348 L 26.02575 270.387 L 24.46271 269.1393 L 22.51319 268.6927 L 20.56367 268.2462 M 24.46271 269.1393 L 23.59539 267.3371 L 22.72808 265.5349 M 24.46271 269.1393 L 22.89967 267.8915 L 21.33662 266.6437 L 19.77357 265.396 L 18.21054 264.1482 M 27.58879 271.6348 L 25.63927 271.1883 L 23.68975 270.7418 L 21.74023 270.2953 L 19.7907 269.8488 L 17.84117 269.4023 L 15.89165 268.9557 L 13.94135 269.3989 L 11.99105 269.8419 M 15.89165 268.9557 L 14.32861 267.708 L 12.76557 266.4602 M 15.89165 268.9557 L 13.94213 268.5092 L 11.99261 268.0627 L 10.04309 267.6162 L 8.093567 267.1697 M 35.38689 273.4208 L 34.51958 271.6186 L 33.65226 269.8165 L 32.78493 268.0143 L 31.91762 266.2122 L 30.35458 264.9644 L 28.79153 263.7166 L 26.84201 263.2701 L 24.89249 262.8236 M 28.79153 263.7166 L 27.92422 261.9145 L 27.0569 260.1123 M 28.79153 263.7166 L 27.22849 262.4689 L 25.66545 261.2211 L 24.10241 259.9734 L 22.53937 258.7256 M 31.91762 266.2122 L 31.91762 264.2122 L 31.91762 262.2122 L 31.0503 260.41 L 30.18299 258.6078 M 31.91762 262.2122 L 32.78493 260.41 L 33.65224 258.6078 M 31.91762 262.2122 L 31.91762 260.2122 L 31.91762 258.2122 L 31.91762 256.2122 L 31.91762 254.2122 M 31.91762 266.2122 L 31.0503 264.41 L 30.18299 262.6078 L 29.31568 260.8057 L 28.44836 259.0035 L 27.58105 257.2014 L 26.71373 255.3992 L 25.15069 254.1515 L 23.58765 252.9037 M 26.71373 255.3992 L 26.71373 253.3992 L 26.71373 251.3992 M 26.71373 255.3992 L 25.84641 253.5971 L 24.97909 251.7949 L 24.11177 249.9928 L 23.24446 248.1906 M 35.38689 273.4208 L 33.82384 272.173 L 32.26081 270.9253 L 30.69777 269.6775 L 29.13473 268.4297 L 27.57169 267.182 L 26.00864 265.9342 L 24.44559 264.6865 L 22.88256 263.4387 L 21.31952 262.191 L 19.75648 260.9432 L 18.19344 259.6954 L 16.6304 258.4477 L 14.68088 258.0012 L 12.73136 257.5547 L 10.78106 257.9978 L 8.830757 258.4409 M 12.73136 257.5547 L 11.16832 256.3069 L 9.605278 255.0592 M 12.73136 257.5547 L 10.78184 257.1082 L 8.832321 256.6617 L 6.882797 256.2152 L 4.933281 255.7687 M 16.6304 258.4477 L 15.76308 256.6455 L 14.89577 254.8434 L 13.33273 253.5956 L 11.76969 252.3479 M 14.89577 254.8434 L 14.89577 252.8434 L 14.89577 250.8434 M 14.89577 254.8434 L 14.02845 253.0412 L 13.16113 251.2391 L 12.29381 249.4369 L 11.42649 247.6348 M 16.6304 258.4477 L 15.06736 257.2 L 13.50432 255.9522 L 11.94128 254.7044 L 10.37823 253.4567 L 8.815201 252.2089 L 7.252159 250.9611 L 5.302635 250.5146 L 3.353111 250.0681 M 7.252159 250.9611 L 6.384834 249.159 L 5.517517 247.3568 M 7.252159 250.9611 L 5.689117 249.7133 L 4.126076 248.4656 L 2.563042 247.2178 L 1 245.97 M 97.90852 323.3311 L 97.90852 321.3311 L 97.90852 319.3311 L 97.90852 317.3311 L 97.90852 315.3311 L 97.90852 313.3311 L 97.90852 311.3311 L 97.90852 309.3311 L 97.90852 307.3311 L 97.90852 305.3311 L 97.90852 303.3311 L 97.90852 301.3311 L 97.90852 299.3311 L 97.90852 297.3311 L 97.90852 295.3311 L 97.90852 293.3311 L 97.90852 291.3311 L 97.0412 289.5289 L 96.17387 287.7267 L 95.30656 285.9246 L 94.43924 284.1224 L 93.57191 282.3203 L 92.7046 280.5181 L 91.83728 278.716 L 90.96996 276.9138 L 89.40692 275.6661 L 87.84388 274.4183 L 86.28084 273.1705 L 84.7178 271.9228 L 82.76826 271.4763 L 80.81875 271.0298 L 78.86845 271.4729 L 76.91815 271.916 M 80.81875 271.0298 L 79.25571 269.782 L 77.69267 268.5343 M 80.81875 271.0298 L 78.86923 270.5833 L 76.91971 270.1368 L 74.97018 269.6903 L 73.02067 269.2438 M 84.7178 271.9228 L 83.85048 270.1206 L 82.98315 268.3185 L 81.42012 267.0707 L 79.85708 265.823 M 82.98315 268.3185 L 82.98315 266.3185 L 82.98315 264.3185 M 82.98315 268.3185 L 82.11584 266.5163 L 81.24852 264.7142 L 80.3812 262.912 L 79.51388 261.1099 M 84.7178 271.9228 L 83.15475 270.675 L 81.59172 269.4273 L 80.02868 268.1795 L 78.46564 266.9318 L 76.9026 265.684 L 75.33955 264.4362 L 73.39004 263.9897 L 71.44052 263.5432 M 75.33955 264.4362 L 74.47224 262.6341 L 73.60492 260.8319 M 75.33955 264.4362 L 73.77652 263.1885 L 72.21348 261.9407 L 70.65044 260.693 L 69.0874 259.4452 M 90.96996 276.9138 L 90.96996 274.9138 L 90.96996 272.9138 L 90.96996 270.9138 L 90.96996 268.9138 L 90.10264 267.1117 L 89.23532 265.3095 L 87.67228 264.0618 L 86.10924 262.814 M 89.23532 265.3095 L 89.23532 263.3095 L 89.23532 261.3095 M 89.23532 265.3095 L 88.368 263.5074 L 87.50068 261.7052 L 86.63336 259.903 L 85.76604 258.1009 M 90.96996 268.9138 L 91.83728 267.1117 L 92.7046 265.3095 L 92.7046 263.3095 L 92.7046 261.3095 M 92.7046 265.3095 L 94.26764 264.0618 L 95.83067 262.814 M 92.7046 265.3095 L 93.57191 263.5074 L 94.43924 261.7052 L 95.30656 259.903 L 96.17387 258.1009 M 90.96996 268.9138 L 90.96996 266.9138 L 90.96996 264.9138 L 90.96996 262.9138 L 90.96996 260.9138 L 90.96996 258.9138 L 90.96996 256.9138 L 90.10264 255.1117 L 89.23532 253.3095 M 90.96996 256.9138 L 91.83728 255.1117 L 92.7046 253.3095 M 90.96996 256.9138 L 90.96996 254.9138 L 90.96996 252.9138 L 90.96996 250.9138 L 90.96996 248.9138 M 90.96996 276.9138 L 90.10264 275.1117 L 89.23532 273.3095 L 88.368 271.5074 L 87.50068 269.7052 L 86.63336 267.903 L 85.76604 266.1009 L 84.89871 264.2987 L 84.0314 262.4966 L 83.16408 260.6944 L 82.29675 258.8923 L 81.42944 257.0901 L 80.56212 255.288 L 78.99908 254.0402 L 77.43604 252.7924 L 75.48652 252.3459 L 73.537 251.8994 M 77.43604 252.7924 L 76.56872 250.9903 L 75.7014 249.1881 M 77.43604 252.7924 L 75.873 251.5447 L 74.30996 250.2969 L 72.74692 249.0491 L 71.18388 247.8014 M 80.56212 255.288 L 80.56212 253.288 L 80.56212 251.288 L 79.69479 249.4858 L 78.82748 247.6837 M 80.56212 251.288 L 81.42944 249.4858 L 82.29675 247.6837 M 80.56212 251.288 L 80.56212 249.288 L 80.56212 247.288 L 80.56212 245.288 L 80.56212 243.288 M 80.56212 255.288 L 79.69479 253.4858 L 78.82748 251.6837 L 77.96016 249.8815 L 77.09283 248.0793 L 76.22552 246.2772 L 75.3582 244.475 L 73.79516 243.2273 L 72.23212 241.9795 M 75.3582 244.475 L 75.3582 242.475 L 75.3582 240.475 M 75.3582 244.475 L 74.49088 242.6729 L 73.62356 240.8707 L 72.75624 239.0686 L 71.88892 237.2664 M 97.90852 291.3311 L 98.77583 289.5289 L 99.64316 287.7267 L 100.5105 285.9246 L 101.3778 284.1224 L 102.2451 282.3203 L 103.1124 280.5181 L 103.9798 278.716 L 104.8471 276.9138 L 104.8471 274.9138 L 104.8471 272.9138 L 104.8471 270.9138 L 104.8471 268.9138 L 103.9798 267.1117 L 103.1124 265.3095 L 101.5494 264.0618 L 99.98636 262.814 M 103.1124 265.3095 L 103.1124 263.3095 L 103.1124 261.3095 M 103.1124 265.3095 L 102.2451 263.5074 L 101.3778 261.7052 L 100.5105 259.903 L 99.64316 258.1009 M 104.8471 268.9138 L 105.7144 267.1117 L 106.5817 265.3095 L 106.5817 263.3095 L 106.5817 261.3095 M 106.5817 265.3095 L 108.1448 264.0618 L 109.7078 262.814 M 106.5817 265.3095 L 107.449 263.5074 L 108.3164 261.7052 L 109.1837 259.903 L 110.051 258.1009 M 104.8471 268.9138 L 104.8471 266.9138 L 104.8471 264.9138 L 104.8471 262.9138 L 104.8471 260.9138 L 104.8471 258.9138 L 104.8471 256.9138 L 103.9798 255.1117 L 103.1124 253.3095 M 104.8471 256.9138 L 105.7144 255.1117 L 106.5817 253.3095 M 104.8471 256.9138 L 104.8471 254.9138 L 104.8471 252.9138 L 104.8471 250.9138 L 104.8471 248.9138 M 104.8471 276.9138 L 106.4101 275.6661 L 107.9732 274.4183 L 109.5362 273.1705 L 111.0992 271.9228 L 111.9666 270.1206 L 112.8339 268.3185 L 112.8339 266.3185 L 112.8339 264.3185 M 112.8339 268.3185 L 114.3969 267.0707 L 115.96 265.823 M 112.8339 268.3185 L 113.7012 266.5163 L 114.5685 264.7142 L 115.4358 262.912 L 116.3032 261.1099 M 111.0992 271.9228 L 113.0488 271.4763 L 114.9983 271.0298 L 116.5613 269.782 L 118.1244 268.5343 M 114.9983 271.0298 L 116.9486 271.4729 L 118.8989 271.916 M 114.9983 271.0298 L 116.9478 270.5833 L 118.8973 270.1368 L 120.8468 269.6903 L 122.7964 269.2438 M 111.0992 271.9228 L 112.6623 270.675 L 114.2253 269.4273 L 115.7884 268.1795 L 117.3514 266.9318 L 118.9144 265.684 L 120.4775 264.4362 L 121.3448 262.6341 L 122.2121 260.8319 M 120.4775 264.4362 L 122.427 263.9897 L 124.3765 263.5432 M 120.4775 264.4362 L 122.0405 263.1885 L 123.6036 261.9407 L 125.1666 260.693 L 126.7296 259.4452 M 104.8471 276.9138 L 105.7144 275.1117 L 106.5817 273.3095 L 107.449 271.5074 L 108.3164 269.7052 L 109.1837 267.903 L 110.051 266.1009 L 110.9183 264.2987 L 111.7856 262.4966 L 112.653 260.6944 L 113.5203 258.8923 L 114.3876 257.0901 L 115.2549 255.288 L 115.2549 253.288 L 115.2549 251.288 L 114.3876 249.4858 L 113.5203 247.6837 M 115.2549 251.288 L 116.1222 249.4858 L 116.9896 247.6837 M 115.2549 251.288 L 115.2549 249.288 L 115.2549 247.288 L 115.2549 245.288 L 115.2549 243.288 M 115.2549 255.288 L 116.818 254.0402 L 118.381 252.7924 L 119.2483 250.9903 L 120.1156 249.1881 M 118.381 252.7924 L 120.3305 252.3459 L 122.28 251.8994 M 118.381 252.7924 L 119.944 251.5447 L 121.5071 250.2969 L 123.0701 249.0491 L 124.6332 247.8014 M 115.2549 255.288 L 116.1222 253.4858 L 116.9896 251.6837 L 117.8569 249.8815 L 118.7242 248.0793 L 119.5915 246.2772 L 120.4588 244.475 L 120.4588 242.475 L 120.4588 240.475 M 120.4588 244.475 L 122.0219 243.2273 L 123.5849 241.9795 M 120.4588 244.475 L 121.3262 242.6729 L 122.1935 240.8707 L 123.0608 239.0686 L 123.9281 237.2664 M 97.90852 291.3311 L 97.90852 289.3311 L 97.90852 287.3311 L 97.90852 285.3311 L 97.90852 283.3311 L 97.90852 281.3311 L 97.90852 279.3311 L 97.90852 277.3311 L 97.90852 275.3311 L 97.90852 273.3311 L 97.90852 271.3311 L 97.90852 269.3311 L 97.90852 267.3311 L 97.90852 265.3311 L 97.90852 263.3311 L 97.90852 261.3311 L 97.90852 259.3311 L 97.90852 257.3311 L 97.90852 255.3311 L 97.90852 253.3311 L 97.90852 251.3311 L 97.90852 249.3311 L 97.90852 247.3311 L 97.90852 245.3311 L 97.90852 243.3311 L 97.0412 241.5289 L 96.17387 239.7267 L 95.30656 237.9246 L 94.43924 236.1224 L 92.8762 234.8747 L 91.31316 233.6269 L 89.36363 233.1804 L 87.41411 232.7339 M 91.31316 233.6269 L 90.44584 231.8247 L 89.57852 230.0226 M 91.31316 233.6269 L 89.75012 232.3791 L 88.18707 231.1313 L 86.62404 229.8836 L 85.061 228.6358 M 94.43924 236.1224 L 94.43924 234.1224 L 94.43924 232.1224 L 93.57191 230.3203 L 92.7046 228.5181 M 94.43924 232.1224 L 95.30656 230.3203 L 96.17387 228.5181 M 94.43924 232.1224 L 94.43924 230.1224 L 94.43924 228.1224 L 94.43924 226.1224 L 94.43924 224.1224 M 94.43924 236.1224 L 93.57191 234.3203 L 92.7046 232.5181 L 91.83728 230.716 L 90.96996 228.9138 L 90.10264 227.1117 L 89.23532 225.3095 L 87.67228 224.0617 L 86.10924 222.814 M 89.23532 225.3095 L 89.23532 223.3095 L 89.23532 221.3095 M 89.23532 225.3095 L 88.368 223.5074 L 87.50068 221.7052 L 86.63336 219.903 L 85.76604 218.1009 M 97.90852 243.3311 L 98.77583 241.5289 L 99.64316 239.7267 L 100.5105 237.9246 L 101.3778 236.1224 L 101.3778 234.1224 L 101.3778 232.1224 L 100.5105 230.3203 L 99.64316 228.5181 M 101.3778 232.1224 L 102.2451 230.3203 L 103.1124 228.5181 M 101.3778 232.1224 L 101.3778 230.1224 L 101.3778 228.1224 L 101.3778 226.1224 L 101.3778 224.1224 M 101.3778 236.1224 L 102.9408 234.8747 L 104.5039 233.6269 L 105.3712 231.8247 L 106.2385 230.0226 M 104.5039 233.6269 L 106.4534 233.1804 L 108.4029 232.7339 M 104.5039 233.6269 L 106.0669 232.3791 L 107.63 231.1313 L 109.193 229.8836 L 110.756 228.6358 M 101.3778 236.1224 L 102.2451 234.3203 L 103.1124 232.5181 L 103.9798 230.716 L 104.8471 228.9138 L 105.7144 227.1117 L 106.5817 225.3095 L 106.5817 223.3095 L 106.5817 221.3095 M 106.5817 225.3095 L 108.1448 224.0617 L 109.7078 222.814 M 106.5817 225.3095 L 107.449 223.5074 L 108.3164 221.7052 L 109.1837 219.903 L 110.051 218.1009 M 97.90852 243.3311 L 97.90852 241.3311 L 97.90852 239.3311 L 97.90852 237.3311 L 97.90852 235.3311 L 97.90852 233.3311 L 97.90852 231.3311 L 97.90852 229.3311 L 97.90852 227.3311 L 97.90852 225.3311 L 97.90852 223.3311 L 97.90852 221.3311 L 97.90852 219.3311 L 97.0412 217.5289 L 96.17387 215.7267 L 94.61084 214.479 L 93.0478 213.2312 M 96.17387 215.7267 L 96.17387 213.7267 L 96.17387 211.7267 M 96.17387 215.7267 L 95.30656 213.9246 L 94.43924 212.1224 L 93.57191 210.3203 L 92.7046 208.5181 M 97.90852 219.3311 L 98.77583 217.5289 L 99.64316 215.7267 L 99.64316 213.7267 L 99.64316 211.7267 M 99.64316 215.7267 L 101.2062 214.479 L 102.7692 213.2312 M 99.64316 215.7267 L 100.5105 213.9246 L 101.3778 212.1224 L 102.2451 210.3203 L 103.1124 208.5181 M 97.90852 219.3311 L 97.90852 217.3311 L 97.90852 215.3311 L 97.90852 213.3311 L 97.90852 211.3311 L 97.90852 209.3311 L 97.90852 207.3311 L 97.0412 205.5289 L 96.17387 203.7267 M 97.90852 207.3311 L 98.77583 205.5289 L 99.64316 203.7267 M 97.90852 207.3311 L 97.90852 205.3311 L 97.90852 203.3311 L 97.90852 201.3311 L 97.90852 199.3311 M 97.90852 323.3311 L 97.0412 321.5289 L 96.17387 319.7267 L 95.30656 317.9246 L 94.43924 316.1224 L 93.57191 314.3203 L 92.7046 312.5181 L 91.83728 310.716 L 90.96996 308.9138 L 90.10264 307.1117 L 89.23532 305.3095 L 88.368 303.5074 L 87.50068 301.7052 L 86.63336 299.903 L 85.76604 298.1009 L 84.89871 296.2987 L 84.0314 294.4966 L 83.16408 292.6944 L 82.29675 290.8923 L 81.42944 289.0901 L 80.56212 287.288 L 79.69479 285.4858 L 78.82748 283.6837 L 77.96016 281.8815 L 77.09283 280.0793 L 76.22552 278.2772 L 75.3582 276.475 L 74.49088 274.6729 L 73.62356 272.8707 L 72.75624 271.0686 L 71.88892 269.2664 L 71.0216 267.4643 L 70.15428 265.6621 L 69.28696 263.86 L 68.41964 262.0578 L 67.55232 260.2556 L 66.685 258.4535 L 65.81767 256.6513 L 64.95036 254.8492 L 64.08304 253.047 L 63.21572 251.2449 L 62.3484 249.4427 L 61.48108 247.6406 L 60.61375 245.8384 L 59.74644 244.0363 L 58.87912 242.2341 L 58.0118 240.4319 L 57.14448 238.6298 L 56.27716 236.8276 L 54.71412 235.5799 L 53.15108 234.3321 L 51.58804 233.0843 L 50.025 231.8365 L 48.46196 230.5888 L 46.89892 229.341 L 45.33588 228.0932 L 43.77283 226.8455 L 41.82331 226.399 L 39.87379 225.9525 L 37.92427 225.506 L 35.97475 225.0594 L 34.02444 225.5025 L 32.07413 225.9456 L 30.50892 227.1906 L 28.9437 228.4357 M 32.07413 225.9456 L 30.12461 225.4991 L 28.17509 225.0526 M 32.07413 225.9456 L 30.12383 226.3887 L 28.17353 226.8318 L 26.22323 227.2749 L 24.27293 227.718 M 35.97475 225.0594 L 34.41171 223.8117 L 32.84867 222.5639 L 30.89915 222.1174 L 28.94963 221.6709 M 32.84867 222.5639 L 31.98136 220.7617 L 31.11404 218.9596 M 32.84867 222.5639 L 31.28563 221.3161 L 29.72259 220.0684 L 28.15955 218.8206 L 26.5965 217.5728 M 35.97475 225.0594 L 34.02522 224.6129 L 32.07569 224.1664 L 30.12617 223.7199 L 28.17665 223.2734 L 26.22713 222.8269 L 24.27761 222.3804 L 22.32731 222.8235 L 20.37701 223.2666 M 24.27761 222.3804 L 22.71457 221.1327 L 21.15153 219.8849 M 24.27761 222.3804 L 22.32809 221.9339 L 20.37857 221.4874 L 18.42905 221.0409 L 16.47952 220.5944 M 43.77283 226.8455 L 42.90552 225.0433 L 42.0382 223.2411 L 41.17089 221.439 L 40.30358 219.6368 L 38.74054 218.3891 L 37.1775 217.1413 L 35.22798 216.6948 L 33.27846 216.2483 M 37.1775 217.1413 L 36.31018 215.3391 L 35.44287 213.537 M 37.1775 217.1413 L 35.61446 215.8935 L 34.05141 214.6458 L 32.48837 213.398 L 30.92533 212.1502 M 40.30358 219.6368 L 40.30358 217.6368 L 40.30358 215.6368 L 39.43627 213.8347 L 38.56895 212.0325 M 40.30358 215.6368 L 41.1709 213.8347 L 42.03822 212.0325 M 40.30358 215.6368 L 40.30358 213.6368 L 40.30358 211.6368 L 40.30358 209.6368 L 40.30358 207.6368 M 40.30358 219.6368 L 39.43627 217.8347 L 38.56895 216.0325 L 37.70164 214.2304 L 36.83432 212.4282 L 35.967 210.6261 L 35.09968 208.8239 L 33.53664 207.5761 L 31.97359 206.3284 M 35.09968 208.8239 L 35.09968 206.8239 L 35.09968 204.8239 M 35.09968 208.8239 L 34.23236 207.0218 L 33.36505 205.2196 L 32.49773 203.4174 L 31.63042 201.6153 M 43.77283 226.8455 L 42.2098 225.5977 L 40.64676 224.3499 L 39.08372 223.1021 L 37.52068 221.8544 L 35.95764 220.6066 L 34.3946 219.3588 L 32.83156 218.1111 L 31.26852 216.8633 L 29.70547 215.6155 L 28.14244 214.3677 L 26.5794 213.12 L 25.01636 211.8722 L 23.06684 211.4257 L 21.11732 210.9792 L 19.16702 211.4223 L 17.21672 211.8654 M 21.11732 210.9792 L 19.55428 209.7314 L 17.99124 208.4836 M 21.11732 210.9792 L 19.1678 210.5327 L 17.21828 210.0862 L 15.26876 209.6397 L 13.31924 209.1932 M 25.01636 211.8722 L 24.14904 210.07 L 23.28173 208.2679 L 21.71869 207.0201 L 20.15565 205.7723 M 23.28173 208.2679 L 23.28173 206.2679 L 23.28173 204.2679 M 23.28173 208.2679 L 22.41442 206.4657 L 21.54711 204.6636 L 20.67979 202.8614 L 19.81248 201.0593 M 25.01636 211.8722 L 23.45332 210.6244 L 21.89028 209.3766 L 20.32724 208.1289 L 18.7642 206.8811 L 17.20116 205.6333 L 15.63811 204.3856 L 13.68859 203.9391 L 11.73907 203.4926 M 15.63811 204.3856 L 14.7708 202.5834 L 13.90348 200.7813 M 15.63811 204.3856 L 14.07508 203.1378 L 12.51204 201.89 L 10.949 200.6422 L 9.385956 199.3945 M 56.27716 236.8276 L 56.27716 234.8276 L 56.27716 232.8276 L 56.27716 230.8276 L 56.27716 228.8276 L 56.27716 226.8276 L 56.27716 224.8276 L 56.27716 222.8276 L 56.27716 220.8276 L 55.40985 219.0255 L 54.54254 217.2233 L 53.67522 215.4212 L 52.80791 213.619 L 51.24487 212.3712 L 49.68183 211.1235 L 47.73231 210.677 L 45.78279 210.2305 M 49.68183 211.1235 L 48.81451 209.3213 L 47.9472 207.5192 M 49.68183 211.1235 L 48.11879 209.8757 L 46.55575 208.6279 L 44.99271 207.3802 L 43.42966 206.1324 M 52.80791 213.619 L 52.80791 211.619 L 52.80791 209.619 L 51.94059 207.8169 L 51.07327 206.0147 M 52.80791 209.619 L 53.67522 207.8169 L 54.54254 206.0147 M 52.80791 209.619 L 52.80791 207.619 L 52.80791 205.619 L 52.80791 203.619 L 52.80791 201.619 M 52.80791 213.619 L 51.94059 211.8169 L 51.07327 210.0147 L 50.20595 208.2126 L 49.33863 206.4104 L 48.47132 204.6082 L 47.60401 202.8061 L 46.04097 201.5583 L 44.47793 200.3105 M 47.60401 202.8061 L 47.60401 200.8061 L 47.60401 198.8061 M 47.60401 202.8061 L 46.73669 201.0039 L 45.86938 199.2018 L 45.00206 197.3996 L 44.13474 195.5975 M 56.27716 220.8276 L 57.14448 219.0255 L 58.0118 217.2233 L 58.8791 215.4212 L 59.74641 213.619 L 59.74641 211.619 L 59.74641 209.619 L 58.8791 207.8169 L 58.01178 206.0147 M 59.74641 209.619 L 60.61373 207.8169 L 61.48105 206.0147 M 59.74641 209.619 L 59.74641 207.619 L 59.74641 205.619 L 59.74641 203.619 L 59.74641 201.619 M 59.74641 213.619 L 61.30946 212.3712 L 62.8725 211.1235 L 63.73982 209.3213 L 64.60714 207.5192 M 62.8725 211.1235 L 64.82202 210.677 L 66.77154 210.2305 M 62.8725 211.1235 L 64.43554 209.8757 L 65.99858 208.6279 L 67.56161 207.3802 L 69.12466 206.1324 M 59.74641 213.619 L 60.61373 211.8169 L 61.48105 210.0147 L 62.34837 208.2126 L 63.21569 206.4104 L 64.08301 204.6082 L 64.95033 202.8061 L 64.95033 200.8061 L 64.95033 198.8061 M 64.95033 202.8061 L 66.51337 201.5583 L 68.07641 200.3105 M 64.95033 202.8061 L 65.81764 201.0039 L 66.68497 199.2018 L 67.55229 197.3996 L 68.41961 195.5975 M 56.27716 220.8276 L 56.27716 218.8276 L 56.27716 216.8276 L 56.27716 214.8276 L 56.27716 212.8276 L 56.27716 210.8276 L 56.27716 208.8276 L 56.27716 206.8276 L 56.27716 204.8276 L 56.27716 202.8276 L 56.27716 200.8276 L 56.27716 198.8276 L 56.27716 196.8276 L 55.40985 195.0255 L 54.54254 193.2233 L 52.9795 191.9756 L 51.41646 190.7278 M 54.54254 193.2233 L 54.54254 191.2233 L 54.54254 189.2233 M 54.54254 193.2233 L 53.67522 191.4212 L 52.80791 189.619 L 51.94059 187.8169 L 51.07327 186.0147 M 56.27716 196.8276 L 57.14448 195.0255 L 58.0118 193.2233 L 58.0118 191.2233 L 58.0118 189.2233 M 58.0118 193.2233 L 59.57484 191.9756 L 61.13788 190.7278 M 58.0118 193.2233 L 58.8791 191.4212 L 59.74641 189.619 L 60.61373 187.8169 L 61.48105 186.0147 M 56.27716 196.8276 L 56.27716 194.8276 L 56.27716 192.8276 L 56.27716 190.8276 L 56.27716 188.8276 L 56.27716 186.8276 L 56.27716 184.8276 L 55.40985 183.0255 L 54.54254 181.2233 M 56.27716 184.8276 L 57.14448 183.0255 L 58.0118 181.2233 M 56.27716 184.8276 L 56.27716 182.8276 L 56.27716 180.8276 L 56.27716 178.8276 L 56.27716 176.8276 M 56.27716 236.8276 L 55.40985 235.0255 L 54.54254 233.2233 L 53.67522 231.4212 L 52.80791 229.619 L 51.94059 227.8169 L 51.07327 226.0147 L 50.20595 224.2126 L 49.33863 222.4104 L 48.47132 220.6082 L 47.60401 218.8061 L 46.73669 217.0039 L 45.86938 215.2018 L 45.00206 213.3996 L 44.13474 211.5975 L 43.26742 209.7953 L 42.4001 207.9932 L 41.53279 206.191 L 40.66548 204.3889 L 39.79816 202.5867 L 38.93085 200.7845 L 38.06353 198.9824 L 37.19621 197.1802 L 36.32889 195.3781 L 35.46157 193.5759 L 33.89853 192.3282 L 32.33549 191.0804 L 30.77245 189.8326 L 29.20941 188.5848 L 27.25989 188.1383 L 25.31037 187.6918 L 23.36007 188.1349 L 21.40977 188.578 M 25.31037 187.6918 L 23.74733 186.4441 L 22.18429 185.1963 M 25.31037 187.6918 L 23.36085 187.2453 L 21.41133 186.7988 L 19.46181 186.3523 L 17.51229 185.9058 M 29.20941 188.5848 L 28.34209 186.7827 L 27.47478 184.9805 L 25.91174 183.7328 L 24.3487 182.485 M 27.47478 184.9805 L 27.47478 182.9805 L 27.47478 180.9805 M 27.47478 184.9805 L 26.60746 183.1784 L 25.74014 181.3762 L 24.87282 179.5741 L 24.0055 177.7719 M 29.20941 188.5848 L 27.64637 187.3371 L 26.08333 186.0893 L 24.52029 184.8415 L 22.95724 183.5938 L 21.39421 182.346 L 19.83117 181.0982 L 17.88165 180.6517 L 15.93212 180.2052 M 19.83117 181.0982 L 18.96384 179.2961 L 18.09653 177.4939 M 19.83117 181.0982 L 18.26813 179.8504 L 16.70509 178.6027 L 15.14204 177.3549 L 13.57899 176.1071 M 35.46157 193.5759 L 35.46157 191.5759 L 35.46157 189.5759 L 35.46157 187.5759 L 35.46157 185.5759 L 34.59426 183.7738 L 33.72695 181.9716 L 32.16391 180.7238 L 30.60087 179.4761 M 33.72695 181.9716 L 33.72695 179.9716 L 33.72695 177.9716 M 33.72695 181.9716 L 32.85963 180.1695 L 31.99232 178.3673 L 31.125 176.5652 L 30.25768 174.763 M 35.46157 185.5759 L 36.32889 183.7738 L 37.19621 181.9716 L 37.19621 179.9716 L 37.19621 177.9716 M 37.19621 181.9716 L 38.75925 180.7238 L 40.32229 179.4761 M 37.19621 181.9716 L 38.06351 180.1695 L 38.93082 178.3673 L 39.79814 176.5652 L 40.66546 174.763 M 35.46157 185.5759 L 35.46157 183.5759 L 35.46157 181.5759 L 35.46157 179.5759 L 35.46157 177.5759 L 35.46157 175.5759 L 35.46157 173.5759 L 34.59426 171.7738 L 33.72695 169.9716 M 35.46157 173.5759 L 36.32889 171.7738 L 37.19621 169.9716 M 35.46157 173.5759 L 35.46157 171.5759 L 35.46157 169.5759 L 35.46157 167.5759 L 35.46157 165.5759 M 35.46157 193.5759 L 34.59426 191.7738 L 33.72695 189.9716 L 32.85963 188.1695 L 31.99232 186.3673 L 31.125 184.5652 L 30.25768 182.763 L 29.39036 180.9608 L 28.52304 179.1587 L 27.65573 177.3565 L 26.78842 175.5544 L 25.9211 173.7522 L 25.05379 171.9501 L 23.49075 170.7023 L 21.92771 169.4545 L 19.97819 169.008 L 18.02867 168.5615 M 21.92771 169.4545 L 21.06039 167.6524 L 20.19308 165.8502 M 21.92771 169.4545 L 20.36467 168.2068 L 18.80163 166.959 L 17.23859 165.7112 L 15.67554 164.4634 M 25.05379 171.9501 L 25.05379 169.9501 L 25.05379 167.9501 L 24.18647 166.1479 L 23.31915 164.3458 M 25.05379 167.9501 L 25.9211 166.1479 L 26.78842 164.3458 M 25.05379 167.9501 L 25.05379 165.9501 L 25.05379 163.9501 L 25.05379 161.9501 L 25.05379 159.9501 M 25.05379 171.9501 L 24.18647 170.1479 L 23.31915 168.3458 L 22.45183 166.5436 L 21.58451 164.7415 L 20.7172 162.9393 L 19.84989 161.1371 L 18.28685 159.8894 L 16.72381 158.6416 M 19.84989 161.1371 L 19.84989 159.1371 L 19.84989 157.1371 M 19.84989 161.1371 L 18.98257 159.335 L 18.11526 157.5328 L 17.24794 155.7307 L 16.38062 153.9285 M 125.6628 381 L 126.5301 379.1978 L 127.3974 377.3957 L 128.2647 375.5935 L 129.132 373.7914 L 129.9994 371.9892 L 130.8667 370.1871 L 131.734 368.3849 L 132.6013 366.5828 L 133.4686 364.7806 L 134.336 362.9785 L 135.2033 361.1763 L 136.0706 359.3741 L 136.9379 357.572 L 137.8052 355.7698 L 138.6726 353.9677 L 139.5399 352.1655 L 140.4072 350.3634 L 141.2745 348.5612 L 142.1418 346.7591 L 143.0092 344.9569 L 143.8765 343.1548 L 144.7438 341.3526 L 145.6111 339.5504 L 146.4784 337.7483 L 147.3458 335.9461 L 148.2131 334.144 L 149.0804 332.3418 L 149.9477 330.5397 L 150.815 328.7375 L 151.6824 326.9354 L 152.5497 325.1332 L 153.417 323.3311 L 153.417 321.3311 L 153.417 319.3311 L 153.417 317.3311 L 153.417 315.3311 L 153.417 313.3311 L 153.417 311.3311 L 153.417 309.3311 L 153.417 307.3311 L 153.417 305.3311 L 153.417 303.3311 L 153.417 301.3311 L 153.417 299.3311 L 153.417 297.3311 L 153.417 295.3311 L 153.417 293.3311 L 153.417 291.3311 L 152.5497 289.5289 L 151.6824 287.7267 L 150.815 285.9246 L 149.9477 284.1224 L 149.0804 282.3203 L 148.2131 280.5181 L 147.3458 278.716 L 146.4784 276.9138 L 144.9154 275.6661 L 143.3524 274.4183 L 141.7893 273.1705 L 140.2263 271.9228 L 138.2768 271.4763 L 136.3272 271.0298 L 134.3769 271.4729 L 132.4266 271.916 M 136.3272 271.0298 L 134.7642 269.782 L 133.2012 268.5343 M 136.3272 271.0298 L 134.3777 270.5833 L 132.4282 270.1368 L 130.4787 269.6903 L 128.5292 269.2438 M 140.2263 271.9228 L 139.359 270.1206 L 138.4916 268.3185 L 136.9286 267.0707 L 135.3656 265.823 M 138.4916 268.3185 L 138.4916 266.3185 L 138.4916 264.3185 M 138.4916 268.3185 L 137.6243 266.5163 L 136.757 264.7142 L 135.8897 262.912 L 135.0224 261.1099 M 140.2263 271.9228 L 138.6632 270.675 L 137.1002 269.4273 L 135.5372 268.1795 L 133.9741 266.9318 L 132.4111 265.684 L 130.848 264.4362 L 128.8985 263.9897 L 126.949 263.5432 M 130.848 264.4362 L 129.9807 262.6341 L 129.1134 260.8319 M 130.848 264.4362 L 129.285 263.1885 L 127.722 261.9407 L 126.1589 260.693 L 124.5959 259.4452 M 146.4784 276.9138 L 146.4784 274.9138 L 146.4784 272.9138 L 146.4784 270.9138 L 146.4784 268.9138 L 145.6111 267.1117 L 144.7438 265.3095 L 143.1808 264.0618 L 141.6177 262.814 M 144.7438 265.3095 L 144.7438 263.3095 L 144.7438 261.3095 M 144.7438 265.3095 L 143.8765 263.5074 L 143.0092 261.7052 L 142.1418 259.903 L 141.2745 258.1009 M 146.4784 268.9138 L 147.3458 267.1117 L 148.2131 265.3095 L 148.2131 263.3095 L 148.2131 261.3095 M 148.2131 265.3095 L 149.7761 264.0618 L 151.3392 262.814 M 148.2131 265.3095 L 149.0804 263.5074 L 149.9477 261.7052 L 150.815 259.903 L 151.6824 258.1009 M 146.4784 268.9138 L 146.4784 266.9138 L 146.4784 264.9138 L 146.4784 262.9138 L 146.4784 260.9138 L 146.4784 258.9138 L 146.4784 256.9138 L 145.6111 255.1117 L 144.7438 253.3095 M 146.4784 256.9138 L 147.3458 255.1117 L 148.2131 253.3095 M 146.4784 256.9138 L 146.4784 254.9138 L 146.4784 252.9138 L 146.4784 250.9138 L 146.4784 248.9138 M 146.4784 276.9138 L 145.6111 275.1117 L 144.7438 273.3095 L 143.8765 271.5074 L 143.0092 269.7052 L 142.1418 267.903 L 141.2745 266.1009 L 140.4072 264.2987 L 139.5399 262.4966 L 138.6726 260.6944 L 137.8052 258.8923 L 136.9379 257.0901 L 136.0706 255.288 L 134.5076 254.0402 L 132.9445 252.7924 L 130.995 252.3459 L 129.0455 251.8994 M 132.9445 252.7924 L 132.0772 250.9903 L 131.2099 249.1881 M 132.9445 252.7924 L 131.3815 251.5447 L 129.8184 250.2969 L 128.2554 249.0491 L 126.6924 247.8014 M 136.0706 255.288 L 136.0706 253.288 L 136.0706 251.288 L 135.2033 249.4858 L 134.336 247.6837 M 136.0706 251.288 L 136.9379 249.4858 L 137.8052 247.6837 M 136.0706 251.288 L 136.0706 249.288 L 136.0706 247.288 L 136.0706 245.288 L 136.0706 243.288 M 136.0706 255.288 L 135.2033 253.4858 L 134.336 251.6837 L 133.4686 249.8815 L 132.6013 248.0793 L 131.734 246.2772 L 130.8667 244.475 L 129.3036 243.2273 L 127.7406 241.9795 M 130.8667 244.475 L 130.8667 242.475 L 130.8667 240.475 M 130.8667 244.475 L 129.9994 242.6729 L 129.132 240.8707 L 128.2647 239.0686 L 127.3974 237.2664 M 153.417 291.3311 L 154.2843 289.5289 L 155.1516 287.7267 L 156.019 285.9246 L 156.8863 284.1224 L 157.7536 282.3203 L 158.6209 280.5181 L 159.4882 278.716 L 160.3556 276.9138 L 160.3556 274.9138 L 160.3556 272.9138 L 160.3556 270.9138 L 160.3556 268.9138 L 159.4882 267.1117 L 158.6209 265.3095 L 157.0579 264.0618 L 155.4948 262.814 M 158.6209 265.3095 L 158.6209 263.3095 L 158.6209 261.3095 M 158.6209 265.3095 L 157.7536 263.5074 L 156.8863 261.7052 L 156.019 259.903 L 155.1516 258.1009 M 160.3556 268.9138 L 161.2229 267.1117 L 162.0902 265.3095 L 162.0902 263.3095 L 162.0902 261.3095 M 162.0902 265.3095 L 163.6532 264.0618 L 165.2163 262.814 M 162.0902 265.3095 L 162.9575 263.5074 L 163.8248 261.7052 L 164.6922 259.903 L 165.5595 258.1009 M 160.3556 268.9138 L 160.3556 266.9138 L 160.3556 264.9138 L 160.3556 262.9138 L 160.3556 260.9138 L 160.3556 258.9138 L 160.3556 256.9138 L 159.4882 255.1117 L 158.6209 253.3095 M 160.3556 256.9138 L 161.2229 255.1117 L 162.0902 253.3095 M 160.3556 256.9138 L 160.3556 254.9138 L 160.3556 252.9138 L 160.3556 250.9138 L 160.3556 248.9138 M 160.3556 276.9138 L 161.9186 275.6661 L 163.4816 274.4183 L 165.0447 273.1705 L 166.6077 271.9228 L 167.475 270.1206 L 168.3424 268.3185 L 168.3424 266.3185 L 168.3424 264.3185 M 168.3424 268.3185 L 169.9054 267.0707 L 171.4684 265.823 M 168.3424 268.3185 L 169.2097 266.5163 L 170.077 264.7142 L 170.9443 262.912 L 171.8116 261.1099 M 166.6077 271.9228 L 168.5573 271.4763 L 170.5068 271.0298 L 172.0698 269.782 L 173.6328 268.5343 M 170.5068 271.0298 L 172.4571 271.4729 L 174.4074 271.916 M 170.5068 271.0298 L 172.4563 270.5833 L 174.4058 270.1368 L 176.3553 269.6903 L 178.3048 269.2438 M 166.6077 271.9228 L 168.1708 270.675 L 169.7338 269.4273 L 171.2968 268.1795 L 172.8599 266.9318 L 174.4229 265.684 L 175.986 264.4362 L 176.8533 262.6341 L 177.7206 260.8319 M 175.986 264.4362 L 177.9355 263.9897 L 179.885 263.5432 M 175.986 264.4362 L 177.549 263.1885 L 179.112 261.9407 L 180.6751 260.693 L 182.2381 259.4452 M 160.3556 276.9138 L 161.2229 275.1117 L 162.0902 273.3095 L 162.9575 271.5074 L 163.8248 269.7052 L 164.6922 267.903 L 165.5595 266.1009 L 166.4268 264.2987 L 167.2941 262.4966 L 168.1614 260.6944 L 169.0288 258.8923 L 169.8961 257.0901 L 170.7634 255.288 L 170.7634 253.288 L 170.7634 251.288 L 169.8961 249.4858 L 169.0288 247.6837 M 170.7634 251.288 L 171.6307 249.4858 L 172.498 247.6837 M 170.7634 251.288 L 170.7634 249.288 L 170.7634 247.288 L 170.7634 245.288 L 170.7634 243.288 M 170.7634 255.288 L 172.3264 254.0402 L 173.8895 252.7924 L 174.7568 250.9903 L 175.6241 249.1881 M 173.8895 252.7924 L 175.839 252.3459 L 177.7885 251.8994 M 173.8895 252.7924 L 175.4525 251.5447 L 177.0156 250.2969 L 178.5786 249.0491 L 180.1416 247.8014 M 170.7634 255.288 L 171.6307 253.4858 L 172.498 251.6837 L 173.3654 249.8815 L 174.2327 248.0793 L 175.1 246.2772 L 175.9673 244.475 L 175.9673 242.475 L 175.9673 240.475 M 175.9673 244.475 L 177.5304 243.2273 L 179.0934 241.9795 M 175.9673 244.475 L 176.8346 242.6729 L 177.702 240.8707 L 178.5693 239.0686 L 179.4366 237.2664 M 153.417 291.3311 L 153.417 289.3311 L 153.417 287.3311 L 153.417 285.3311 L 153.417 283.3311 L 153.417 281.3311 L 153.417 279.3311 L 153.417 277.3311 L 153.417 275.3311 L 153.417 273.3311 L 153.417 271.3311 L 153.417 269.3311 L 153.417 267.3311 L 153.417 265.3311 L 153.417 263.3311 L 153.417 261.3311 L 153.417 259.3311 L 153.417 257.3311 L 153.417 255.3311 L 153.417 253.3311 L 153.417 251.3311 L 153.417 249.3311 L 153.417 247.3311 L 153.417 245.3311 L 153.417 243.3311 L 152.5497 241.5289 L 151.6824 239.7267 L 150.815 237.9246 L 149.9477 236.1224 L 148.3847 234.8747 L 146.8216 233.6269 L 144.8721 233.1804 L 142.9226 232.7339 M 146.8216 233.6269 L 145.9543 231.8247 L 145.087 230.0226 M 146.8216 233.6269 L 145.2586 232.3791 L 143.6956 231.1313 L 142.1325 229.8836 L 140.5695 228.6358 M 149.9477 236.1224 L 149.9477 234.1224 L 149.9477 232.1224 L 149.0804 230.3203 L 148.2131 228.5181 M 149.9477 232.1224 L 150.815 230.3203 L 151.6824 228.5181 M 149.9477 232.1224 L 149.9477 230.1224 L 149.9477 228.1224 L 149.9477 226.1224 L 149.9477 224.1224 M 149.9477 236.1224 L 149.0804 234.3203 L 148.2131 232.5181 L 147.3458 230.716 L 146.4784 228.9138 L 145.6111 227.1117 L 144.7438 225.3095 L 143.1808 224.0617 L 141.6177 222.814 M 144.7438 225.3095 L 144.7438 223.3095 L 144.7438 221.3095 M 144.7438 225.3095 L 143.8765 223.5074 L 143.0092 221.7052 L 142.1418 219.903 L 141.2745 218.1009 M 153.417 243.3311 L 154.2843 241.5289 L 155.1516 239.7267 L 156.019 237.9246 L 156.8863 236.1224 L 156.8863 234.1224 L 156.8863 232.1224 L 156.019 230.3203 L 155.1516 228.5181 M 156.8863 232.1224 L 157.7536 230.3203 L 158.6209 228.5181 M 156.8863 232.1224 L 156.8863 230.1224 L 156.8863 228.1224 L 156.8863 226.1224 L 156.8863 224.1224 M 156.8863 236.1224 L 158.4493 234.8747 L 160.0124 233.6269 L 160.8797 231.8247 L 161.747 230.0226 M 160.0124 233.6269 L 161.9619 233.1804 L 163.9114 232.7339 M 160.0124 233.6269 L 161.5754 232.3791 L 163.1384 231.1313 L 164.7015 229.8836 L 166.2645 228.6358 M 156.8863 236.1224 L 157.7536 234.3203 L 158.6209 232.5181 L 159.4882 230.716 L 160.3556 228.9138 L 161.2229 227.1117 L 162.0902 225.3095 L 162.0902 223.3095 L 162.0902 221.3095 M 162.0902 225.3095 L 163.6532 224.0617 L 165.2163 222.814 M 162.0902 225.3095 L 162.9575 223.5074 L 163.8248 221.7052 L 164.6922 219.903 L 165.5595 218.1009 M 153.417 243.3311 L 153.417 241.3311 L 153.417 239.3311 L 153.417 237.3311 L 153.417 235.3311 L 153.417 233.3311 L 153.417 231.3311 L 153.417 229.3311 L 153.417 227.3311 L 153.417 225.3311 L 153.417 223.3311 L 153.417 221.3311 L 153.417 219.3311 L 152.5497 217.5289 L 151.6824 215.7267 L 150.1193 214.479 L 148.5563 213.2312 M 151.6824 215.7267 L 151.6824 213.7267 L 151.6824 211.7267 M 151.6824 215.7267 L 150.815 213.9246 L 149.9477 212.1224 L 149.0804 210.3203 L 148.2131 208.5181 M 153.417 219.3311 L 154.2843 217.5289 L 155.1516 215.7267 L 155.1516 213.7267 L 155.1516 211.7267 M 155.1516 215.7267 L 156.7147 214.479 L 158.2777 213.2312 M 155.1516 215.7267 L 156.019 213.9246 L 156.8863 212.1224 L 157.7536 210.3203 L 158.6209 208.5181 M 153.417 219.3311 L 153.417 217.3311 L 153.417 215.3311 L 153.417 213.3311 L 153.417 211.3311 L 153.417 209.3311 L 153.417 207.3311 L 152.5497 205.5289 L 151.6824 203.7267 M 153.417 207.3311 L 154.2843 205.5289 L 155.1516 203.7267 M 153.417 207.3311 L 153.417 205.3311 L 153.417 203.3311 L 153.417 201.3311 L 153.417 199.3311 M 153.417 323.3311 L 154.98 322.0833 L 156.5431 320.8355 L 158.1061 319.5878 L 159.6692 318.34 L 161.2322 317.0923 L 162.7952 315.8445 L 164.3583 314.5967 L 165.9213 313.349 L 167.4844 312.1013 L 169.0474 310.8535 L 170.6104 309.6057 L 172.1735 308.358 L 173.7365 307.1102 L 175.2996 305.8625 L 176.8626 304.6147 L 178.4256 303.3669 L 179.293 301.5648 L 180.1603 299.7626 L 181.0276 297.9605 L 181.8949 296.1583 L 182.7622 294.3562 L 183.6296 292.554 L 184.4969 290.7519 L 185.3642 288.9497 L 185.3642 286.9497 L 185.3642 284.9497 L 185.3642 282.9497 L 185.3642 280.9497 L 184.4969 279.1476 L 183.6296 277.3454 L 182.0665 276.0977 L 180.5035 274.8499 M 183.6296 277.3454 L 183.6296 275.3454 L 183.6296 273.3454 M 183.6296 277.3454 L 182.7622 275.5432 L 181.8949 273.7411 L 181.0276 271.9389 L 180.1603 270.1368 M 185.3642 280.9497 L 186.2315 279.1476 L 187.0988 277.3454 L 187.0988 275.3454 L 187.0988 273.3454 M 187.0988 277.3454 L 188.6619 276.0977 L 190.2249 274.8499 M 187.0988 277.3454 L 187.9662 275.5432 L 188.8335 273.7411 L 189.7008 271.9389 L 190.5681 270.1368 M 185.3642 280.9497 L 185.3642 278.9497 L 185.3642 276.9497 L 185.3642 274.9497 L 185.3642 272.9497 L 185.3642 270.9497 L 185.3642 268.9497 L 184.4969 267.1476 L 183.6296 265.3454 M 185.3642 268.9497 L 186.2315 267.1476 L 187.0988 265.3454 M 185.3642 268.9497 L 185.3642 266.9497 L 185.3642 264.9497 L 185.3642 262.9497 L 185.3642 260.9497 M 185.3642 288.9497 L 186.9272 287.702 L 188.4903 286.4542 L 190.0533 285.2064 L 191.6164 283.9587 L 192.4837 282.1565 L 193.351 280.3544 L 193.351 278.3544 L 193.351 276.3544 M 193.351 280.3544 L 194.914 279.1066 L 196.4771 277.8589 M 193.351 280.3544 L 194.2183 278.5522 L 195.0856 276.7501 L 195.9529 274.9479 L 196.8203 273.1458 M 191.6164 283.9587 L 193.5659 283.5122 L 195.5154 283.0657 L 197.0785 281.8179 L 198.6415 280.5702 M 195.5154 283.0657 L 197.4657 283.5088 L 199.416 283.9519 M 195.5154 283.0657 L 197.4649 282.6192 L 199.4145 282.1727 L 201.364 281.7262 L 203.3135 281.2797 M 191.6164 283.9587 L 193.1794 282.7109 L 194.7424 281.4632 L 196.3055 280.2154 L 197.8685 278.9677 L 199.4315 277.7199 L 200.9946 276.4721 L 201.8619 274.67 L 202.7292 272.8678 M 200.9946 276.4721 L 202.9441 276.0256 L 204.8936 275.5791 M 200.9946 276.4721 L 202.5576 275.2244 L 204.1207 273.9766 L 205.6837 272.7289 L 207.2468 271.4811 M 185.3642 288.9497 L 186.2315 287.1476 L 187.0988 285.3454 L 187.9662 283.5432 L 188.8335 281.7411 L 189.7008 279.9389 L 190.5681 278.1368 L 191.4354 276.3346 L 192.3027 274.5325 L 193.17 272.7303 L 194.0374 270.9282 L 194.9047 269.126 L 195.772 267.3239 L 195.772 265.3239 L 195.772 263.3239 L 194.9047 261.5217 L 194.0374 259.7195 M 195.772 263.3239 L 196.6393 261.5217 L 197.5067 259.7195 M 195.772 263.3239 L 195.772 261.3239 L 195.772 259.3239 L 195.772 257.3239 L 195.772 255.3239 M 195.772 267.3239 L 197.3351 266.0761 L 198.8981 264.8283 L 199.7654 263.0262 L 200.6327 261.224 M 198.8981 264.8283 L 200.8476 264.3818 L 202.7971 263.9353 M 198.8981 264.8283 L 200.4611 263.5806 L 202.0242 262.3328 L 203.5872 261.0851 L 205.1503 259.8373 M 195.772 267.3239 L 196.6393 265.5217 L 197.5067 263.7195 L 198.374 261.9174 L 199.2413 260.1152 L 200.1086 258.3131 L 200.9759 256.5109 L 200.9759 254.5109 L 200.9759 252.5109 M 200.9759 256.5109 L 202.5389 255.2632 L 204.102 254.0154 M 200.9759 256.5109 L 201.8432 254.7088 L 202.7105 252.9066 L 203.5779 251.1045 L 204.4452 249.3023 M 178.4256 303.3669 L 180.3752 302.9204 L 182.3247 302.4739 L 184.2742 302.0274 L 186.2237 301.5809 L 188.1732 301.1344 L 190.1228 300.6879 L 192.0723 300.2414 L 194.0218 299.7949 L 195.5848 298.5472 L 197.1479 297.2994 L 198.7109 296.0516 L 200.274 294.8039 L 201.1413 293.0017 L 202.0086 291.1996 L 202.0086 289.1996 L 202.0086 287.1996 M 202.0086 291.1996 L 203.5717 289.9518 L 205.1347 288.7041 M 202.0086 291.1996 L 202.8759 289.3974 L 203.7433 287.5953 L 204.6106 285.7931 L 205.4779 283.991 M 200.274 294.8039 L 202.2235 294.3574 L 204.173 293.9109 L 205.7361 292.6631 L 207.2991 291.4154 M 204.173 293.9109 L 206.1233 294.354 L 208.0736 294.7971 M 204.173 293.9109 L 206.1226 293.4644 L 208.0721 293.0179 L 210.0216 292.5714 L 211.9711 292.1249 M 200.274 294.8039 L 201.837 293.5562 L 203.4001 292.3084 L 204.9631 291.0606 L 206.5261 289.8129 L 208.0892 288.5651 L 209.6522 287.3174 L 210.5195 285.5152 L 211.3869 283.713 M 209.6522 287.3174 L 211.6017 286.8708 L 213.5513 286.4243 M 209.6522 287.3174 L 211.2153 286.0696 L 212.7783 284.8218 L 214.3413 283.5741 L 215.9044 282.3263 M 194.0218 299.7949 L 195.9721 300.238 L 197.9224 300.6811 L 199.8727 301.1242 L 201.823 301.5673 L 203.7726 301.1208 L 205.7221 300.6743 L 207.2851 299.4266 L 208.8481 298.1788 M 205.7221 300.6743 L 207.6724 301.1174 L 209.6227 301.5605 M 205.7221 300.6743 L 207.6716 300.2278 L 209.6211 299.7813 L 211.5706 299.3348 L 213.5202 298.8883 M 201.823 301.5673 L 203.3882 302.8123 L 204.9535 304.0574 L 206.9037 304.5005 L 208.8541 304.9436 M 204.9535 304.0574 L 205.8239 305.858 L 206.6944 307.6587 M 204.9535 304.0574 L 206.5187 305.3024 L 208.0839 306.5474 L 209.6491 307.7924 L 211.2143 309.0375 M 201.823 301.5673 L 203.7733 302.0104 L 205.7236 302.4535 L 207.6739 302.8966 L 209.6242 303.3397 L 211.5745 303.7828 L 213.5248 304.2259 L 215.4744 303.7794 L 217.4239 303.3329 M 213.5248 304.2259 L 215.0901 305.4709 L 216.6553 306.716 M 213.5248 304.2259 L 215.4752 304.669 L 217.4255 305.1121 L 219.3758 305.5552 L 221.3261 305.9983 M 194.0218 299.7949 L 195.9713 299.3484 L 197.9208 298.9019 L 199.8704 298.4554 L 201.8199 298.0089 L 203.7694 297.5624 L 205.7189 297.1159 L 207.6685 296.6694 L 209.618 296.2229 L 211.5675 295.7764 L 213.517 295.3299 L 215.4666 294.8834 L 217.4161 294.4369 L 218.9791 293.1891 L 220.5421 291.9414 L 221.4095 290.1392 L 222.2768 288.3371 M 220.5421 291.9414 L 222.4917 291.4949 L 224.4412 291.0484 M 220.5421 291.9414 L 222.1052 290.6936 L 223.6682 289.4459 L 225.2313 288.1981 L 226.7943 286.9503 M 217.4161 294.4369 L 219.3664 294.88 L 221.3167 295.3231 L 223.2662 294.8766 L 225.2157 294.4301 M 221.3167 295.3231 L 222.8819 296.5681 L 224.4471 297.8131 M 221.3167 295.3231 L 223.267 295.7662 L 225.2173 296.2093 L 227.1676 296.6524 L 229.1179 297.0955 M 217.4161 294.4369 L 219.3656 293.9904 L 221.3151 293.5439 L 223.2646 293.0974 L 225.2142 292.6509 L 227.1637 292.2044 L 229.1132 291.7579 L 230.6762 290.5101 L 232.2393 289.2624 M 229.1132 291.7579 L 231.0635 292.201 L 233.0138 292.6441 M 229.1132 291.7579 L 231.0627 291.3114 L 233.0122 290.8649 L 234.9618 290.4184 L 236.9113 289.9719 M 178.4256 303.3669 L 179.9887 302.1192 L 181.5517 300.8714 L 183.1148 299.6237 L 184.6778 298.3759 L 186.2408 297.1282 L 187.8039 295.8804 L 189.3669 294.6326 L 190.93 293.3849 L 192.493 292.1371 L 194.056 290.8894 L 195.6191 289.6416 L 197.1821 288.3939 L 198.7452 287.1461 L 200.3082 285.8983 L 201.8712 284.6506 L 203.4343 283.4028 L 204.9973 282.1551 L 206.5604 280.9073 L 208.1234 279.6595 L 209.6865 278.4118 L 211.2495 277.1641 L 212.8125 275.9163 L 214.3756 274.6685 L 215.9386 273.4208 L 216.8059 271.6186 L 217.6732 269.8165 L 218.5406 268.0143 L 219.4079 266.2122 L 219.4079 264.2122 L 219.4079 262.2122 L 218.5406 260.41 L 217.6733 258.6078 M 219.4079 262.2122 L 220.2752 260.41 L 221.1425 258.6078 M 219.4079 262.2122 L 219.4079 260.2122 L 219.4079 258.2122 L 219.4079 256.2122 L 219.4079 254.2122 M 219.4079 266.2122 L 220.9709 264.9644 L 222.534 263.7166 L 223.4013 261.9145 L 224.2686 260.1123 M 222.534 263.7166 L 224.4835 263.2701 L 226.433 262.8236 M 222.534 263.7166 L 224.097 262.4689 L 225.6601 261.2211 L 227.2231 259.9734 L 228.7861 258.7256 M 219.4079 266.2122 L 220.2752 264.41 L 221.1425 262.6078 L 222.0098 260.8057 L 222.8772 259.0035 L 223.7445 257.2014 L 224.6118 255.3992 L 224.6118 253.3992 L 224.6118 251.3992 M 224.6118 255.3992 L 226.1748 254.1515 L 227.7379 252.9037 M 224.6118 255.3992 L 225.4791 253.5971 L 226.3464 251.7949 L 227.2137 249.9928 L 228.0811 248.1906 M 215.9386 273.4208 L 217.8882 272.9743 L 219.8377 272.5278 L 221.7872 272.0813 L 223.7367 271.6348 L 225.2998 270.387 L 226.8628 269.1393 L 227.7301 267.3371 L 228.5974 265.5349 M 226.8628 269.1393 L 228.8123 268.6927 L 230.7618 268.2462 M 226.8628 269.1393 L 228.4258 267.8915 L 229.9889 266.6437 L 231.5519 265.396 L 233.115 264.1482 M 223.7367 271.6348 L 225.687 272.0779 L 227.6373 272.521 L 229.5869 272.0745 L 231.5364 271.628 M 227.6373 272.521 L 229.2025 273.766 L 230.7678 275.011 M 227.6373 272.521 L 229.5876 272.9641 L 231.5379 273.4072 L 233.4883 273.8503 L 235.4385 274.2934 M 223.7367 271.6348 L 225.6862 271.1883 L 227.6358 270.7418 L 229.5853 270.2953 L 231.5348 269.8488 L 233.4843 269.4023 L 235.4339 268.9557 L 236.9969 267.708 L 238.5599 266.4602 M 235.4339 268.9557 L 237.3842 269.3989 L 239.3345 269.8419 M 235.4339 268.9557 L 237.3834 268.5092 L 239.3329 268.0627 L 241.2824 267.6162 L 243.2319 267.1697 M 215.9386 273.4208 L 217.5017 272.173 L 219.0647 270.9253 L 220.6277 269.6775 L 222.1908 268.4297 L 223.7538 267.182 L 225.3169 265.9342 L 226.8799 264.6865 L 228.443 263.4387 L 230.006 262.191 L 231.569 260.9432 L 233.1321 259.6954 L 234.6951 258.4477 L 235.5624 256.6455 L 236.4297 254.8434 L 236.4297 252.8434 L 236.4297 250.8434 M 236.4297 254.8434 L 237.9928 253.5956 L 239.5558 252.3479 M 236.4297 254.8434 L 237.2971 253.0412 L 238.1644 251.2391 L 239.0317 249.4369 L 239.899 247.6348 M 234.6951 258.4477 L 236.6446 258.0012 L 238.5941 257.5547 L 240.1572 256.3069 L 241.7202 255.0592 M 238.5941 257.5547 L 240.5445 257.9978 L 242.4948 258.4409 M 238.5941 257.5547 L 240.5437 257.1082 L 242.4932 256.6617 L 244.4427 256.2152 L 246.3922 255.7687 M 234.6951 258.4477 L 236.2581 257.2 L 237.8212 255.9522 L 239.3842 254.7044 L 240.9473 253.4567 L 242.5103 252.2089 L 244.0734 250.9611 L 244.9407 249.159 L 245.808 247.3568 M 244.0734 250.9611 L 246.0229 250.5146 L 247.9724 250.0681 M 244.0734 250.9611 L 245.6364 249.7133 L 247.1994 248.4656 L 248.7625 247.2178 L 250.3255 245.97 M 153.417 323.3311 L 154.2843 321.5289 L 155.1516 319.7267 L 156.019 317.9246 L 156.8863 316.1224 L 157.7536 314.3203 L 158.6209 312.5181 L 159.4882 310.716 L 160.3556 308.9138 L 161.2229 307.1117 L 162.0902 305.3095 L 162.9575 303.5074 L 163.8248 301.7052 L 164.6922 299.903 L 165.5595 298.1009 L 166.4268 296.2987 L 167.2941 294.4966 L 168.1614 292.6944 L 169.0288 290.8923 L 169.8961 289.0901 L 170.7634 287.288 L 171.6307 285.4858 L 172.498 283.6837 L 173.3654 281.8815 L 174.2327 280.0793 L 175.1 278.2772 L 175.9673 276.475 L 176.8346 274.6729 L 177.702 272.8707 L 178.5693 271.0686 L 179.4366 269.2664 L 180.3039 267.4643 L 181.1712 265.6621 L 182.0386 263.86 L 182.9059 262.0578 L 183.7732 260.2556 L 184.6405 258.4535 L 185.5078 256.6513 L 186.3752 254.8492 L 187.2425 253.047 L 188.1098 251.2449 L 188.9771 249.4427 L 189.8444 247.6406 L 190.7118 245.8384 L 191.5791 244.0363 L 192.4464 242.2341 L 193.3137 240.4319 L 194.181 238.6298 L 195.0484 236.8276 L 195.0484 234.8276 L 195.0484 232.8276 L 195.0484 230.8276 L 195.0484 228.8276 L 195.0484 226.8276 L 195.0484 224.8276 L 195.0484 222.8276 L 195.0484 220.8276 L 194.181 219.0255 L 193.3137 217.2233 L 192.4464 215.4212 L 191.5791 213.619 L 190.0161 212.3712 L 188.453 211.1235 L 186.5035 210.677 L 184.554 210.2305 M 188.453 211.1235 L 187.5857 209.3213 L 186.7184 207.5192 M 188.453 211.1235 L 186.89 209.8757 L 185.3269 208.6279 L 183.7639 207.3802 L 182.2009 206.1324 M 191.5791 213.619 L 191.5791 211.619 L 191.5791 209.619 L 190.7118 207.8169 L 189.8445 206.0147 M 191.5791 209.619 L 192.4464 207.8169 L 193.3137 206.0147 M 191.5791 209.619 L 191.5791 207.619 L 191.5791 205.619 L 191.5791 203.619 L 191.5791 201.619 M 191.5791 213.619 L 190.7118 211.8169 L 189.8445 210.0147 L 188.9771 208.2126 L 188.1098 206.4104 L 187.2425 204.6082 L 186.3752 202.8061 L 184.8121 201.5583 L 183.2491 200.3105 M 186.3752 202.8061 L 186.3752 200.8061 L 186.3752 198.8061 M 186.3752 202.8061 L 185.5079 201.0039 L 184.6405 199.2018 L 183.7732 197.3996 L 182.9059 195.5975 M 195.0484 220.8276 L 195.9157 219.0255 L 196.783 217.2233 L 197.6503 215.4212 L 198.5176 213.619 L 198.5176 211.619 L 198.5176 209.619 L 197.6503 207.8169 L 196.783 206.0147 M 198.5176 209.619 L 199.3849 207.8169 L 200.2523 206.0147 M 198.5176 209.619 L 198.5176 207.619 L 198.5176 205.619 L 198.5176 203.619 L 198.5176 201.619 M 198.5176 213.619 L 200.0807 212.3712 L 201.6437 211.1235 L 202.511 209.3213 L 203.3783 207.5192 M 201.6437 211.1235 L 203.5932 210.677 L 205.5427 210.2305 M 201.6437 211.1235 L 203.2067 209.8757 L 204.7698 208.6279 L 206.3328 207.3802 L 207.8958 206.1324 M 198.5176 213.619 L 199.3849 211.8169 L 200.2523 210.0147 L 201.1196 208.2126 L 201.9869 206.4104 L 202.8542 204.6082 L 203.7215 202.8061 L 203.7215 200.8061 L 203.7215 198.8061 M 203.7215 202.8061 L 205.2845 201.5583 L 206.8476 200.3105 M 203.7215 202.8061 L 204.5888 201.0039 L 205.4561 199.2018 L 206.3235 197.3996 L 207.1908 195.5975 M 195.0484 220.8276 L 195.0484 218.8276 L 195.0484 216.8276 L 195.0484 214.8276 L 195.0484 212.8276 L 195.0484 210.8276 L 195.0484 208.8276 L 195.0484 206.8276 L 195.0484 204.8276 L 195.0484 202.8276 L 195.0484 200.8276 L 195.0484 198.8276 L 195.0484 196.8276 L 194.181 195.0255 L 193.3137 193.2233 L 191.7507 191.9756 L 190.1876 190.7278 M 193.3137 193.2233 L 193.3137 191.2233 L 193.3137 189.2233 M 193.3137 193.2233 L 192.4464 191.4212 L 191.5791 189.619 L 190.7118 187.8169 L 189.8445 186.0147 M 195.0484 196.8276 L 195.9157 195.0255 L 196.783 193.2233 L 196.783 191.2233 L 196.783 189.2233 M 196.783 193.2233 L 198.346 191.9756 L 199.9091 190.7278 M 196.783 193.2233 L 197.6503 191.4212 L 198.5176 189.619 L 199.3849 187.8169 L 200.2523 186.0147 M 195.0484 196.8276 L 195.0484 194.8276 L 195.0484 192.8276 L 195.0484 190.8276 L 195.0484 188.8276 L 195.0484 186.8276 L 195.0484 184.8276 L 194.181 183.0255 L 193.3137 181.2233 M 195.0484 184.8276 L 195.9157 183.0255 L 196.783 181.2233 M 195.0484 184.8276 L 195.0484 182.8276 L 195.0484 180.8276 L 195.0484 178.8276 L 195.0484 176.8276 M 195.0484 236.8276 L 196.6114 235.5799 L 198.1744 234.3321 L 199.7375 233.0843 L 201.3005 231.8365 L 202.8636 230.5888 L 204.4266 229.341 L 205.9896 228.0932 L 207.5527 226.8455 L 208.42 225.0433 L 209.2873 223.2411 L 210.1546 221.439 L 211.0219 219.6368 L 211.0219 217.6368 L 211.0219 215.6368 L 210.1546 213.8347 L 209.2873 212.0325 M 211.0219 215.6368 L 211.8893 213.8347 L 212.7566 212.0325 M 211.0219 215.6368 L 211.0219 213.6368 L 211.0219 211.6368 L 211.0219 209.6368 L 211.0219 207.6368 M 211.0219 219.6368 L 212.585 218.3891 L 214.148 217.1413 L 215.0153 215.3391 L 215.8826 213.537 M 214.148 217.1413 L 216.0975 216.6948 L 218.0471 216.2483 M 214.148 217.1413 L 215.7111 215.8935 L 217.2741 214.6458 L 218.8372 213.398 L 220.4002 212.1502 M 211.0219 219.6368 L 211.8893 217.8347 L 212.7566 216.0325 L 213.6239 214.2304 L 214.4912 212.4282 L 215.3585 210.6261 L 216.2258 208.8239 L 216.2258 206.8239 L 216.2258 204.8239 M 216.2258 208.8239 L 217.7889 207.5761 L 219.3519 206.3284 M 216.2258 208.8239 L 217.0932 207.0218 L 217.9605 205.2196 L 218.8278 203.4174 L 219.6951 201.6153 M 207.5527 226.8455 L 209.5022 226.399 L 211.4517 225.9525 L 213.4012 225.506 L 215.3508 225.0594 L 216.9138 223.8117 L 218.4768 222.5639 L 219.3441 220.7617 L 220.2115 218.9596 M 218.4768 222.5639 L 220.4264 222.1174 L 222.3759 221.6709 M 218.4768 222.5639 L 220.0399 221.3161 L 221.6029 220.0684 L 223.166 218.8206 L 224.729 217.5728 M 215.3508 225.0594 L 217.3011 225.5025 L 219.2514 225.9456 L 221.2009 225.4991 L 223.1504 225.0526 M 219.2514 225.9456 L 220.8166 227.1906 L 222.3818 228.4357 M 219.2514 225.9456 L 221.2017 226.3887 L 223.152 226.8318 L 225.1023 227.2749 L 227.0526 227.718 M 215.3508 225.0594 L 217.3003 224.6129 L 219.2498 224.1664 L 221.1993 223.7199 L 223.1489 223.2734 L 225.0984 222.8269 L 227.0479 222.3804 L 228.6109 221.1327 L 230.174 219.8849 M 227.0479 222.3804 L 228.9982 222.8235 L 230.9485 223.2666 M 227.0479 222.3804 L 228.9974 221.9339 L 230.9469 221.4874 L 232.8965 221.0409 L 234.846 220.5944 M 207.5527 226.8455 L 209.1157 225.5977 L 210.6788 224.3499 L 212.2418 223.1021 L 213.8048 221.8544 L 215.3679 220.6066 L 216.9309 219.3588 L 218.494 218.1111 L 220.057 216.8633 L 221.62 215.6155 L 223.1831 214.3677 L 224.7461 213.12 L 226.3092 211.8722 L 227.1765 210.07 L 228.0438 208.2679 L 228.0438 206.2679 L 228.0438 204.2679 M 228.0438 208.2679 L 229.6068 207.0201 L 231.1699 205.7723 M 228.0438 208.2679 L 228.9111 206.4657 L 229.7784 204.6636 L 230.6457 202.8614 L 231.513 201.0593 M 226.3092 211.8722 L 228.2587 211.4257 L 230.2082 210.9792 L 231.7712 209.7314 L 233.3343 208.4836 M 230.2082 210.9792 L 232.1585 211.4223 L 234.1088 211.8654 M 230.2082 210.9792 L 232.1577 210.5327 L 234.1072 210.0862 L 236.0568 209.6397 L 238.0063 209.1932 M 226.3092 211.8722 L 227.8722 210.6244 L 229.4352 209.3766 L 230.9983 208.1289 L 232.5613 206.8811 L 234.1244 205.6333 L 235.6874 204.3856 L 236.5547 202.5834 L 237.422 200.7813 M 235.6874 204.3856 L 237.6369 203.9391 L 239.5865 203.4926 M 235.6874 204.3856 L 237.2504 203.1378 L 238.8135 201.89 L 240.3765 200.6422 L 241.9396 199.3945 M 195.0484 236.8276 L 195.9157 235.0255 L 196.783 233.2233 L 197.6503 231.4212 L 198.5176 229.619 L 199.3849 227.8169 L 200.2523 226.0147 L 201.1196 224.2126 L 201.9869 222.4104 L 202.8542 220.6082 L 203.7215 218.8061 L 204.5888 217.0039 L 205.4561 215.2018 L 206.3235 213.3996 L 207.1908 211.5975 L 208.0581 209.7953 L 208.9254 207.9932 L 209.7927 206.191 L 210.66 204.3889 L 211.5273 202.5867 L 212.3947 200.7845 L 213.262 198.9824 L 214.1293 197.1802 L 214.9966 195.3781 L 215.864 193.5759 L 215.864 191.5759 L 215.864 189.5759 L 215.864 187.5759 L 215.864 185.5759 L 214.9966 183.7738 L 214.1293 181.9716 L 212.5663 180.7238 L 211.0032 179.4761 M 214.1293 181.9716 L 214.1293 179.9716 L 214.1293 177.9716 M 214.1293 181.9716 L 213.262 180.1695 L 212.3947 178.3673 L 211.5274 176.5652 L 210.6601 174.763 M 215.864 185.5759 L 216.7313 183.7738 L 217.5986 181.9716 L 217.5986 179.9716 L 217.5986 177.9716 M 217.5986 181.9716 L 219.1616 180.7238 L 220.7246 179.4761 M 217.5986 181.9716 L 218.4659 180.1695 L 219.3332 178.3673 L 220.2005 176.5652 L 221.0678 174.763 M 215.864 185.5759 L 215.864 183.5759 L 215.864 181.5759 L 215.864 179.5759 L 215.864 177.5759 L 215.864 175.5759 L 215.864 173.5759 L 214.9966 171.7738 L 214.1293 169.9716 M 215.864 173.5759 L 216.7313 171.7738 L 217.5986 169.9716 M 215.864 173.5759 L 215.864 171.5759 L 215.864 169.5759 L 215.864 167.5759 L 215.864 165.5759 M 215.864 193.5759 L 217.427 192.3282 L 218.99 191.0804 L 220.5531 189.8326 L 222.1161 188.5848 L 222.9834 186.7827 L 223.8507 184.9805 L 223.8507 182.9805 L 223.8507 180.9805 M 223.8507 184.9805 L 225.4138 183.7328 L 226.9768 182.485 M 223.8507 184.9805 L 224.718 183.1784 L 225.5854 181.3762 L 226.4527 179.5741 L 227.32 177.7719 M 222.1161 188.5848 L 224.0656 188.1383 L 226.0151 187.6918 L 227.5782 186.4441 L 229.1412 185.1963 M 226.0151 187.6918 L 227.9655 188.1349 L 229.9157 188.578 M 226.0151 187.6918 L 227.9647 187.2453 L 229.9142 186.7988 L 231.8637 186.3523 L 233.8132 185.9058 M 222.1161 188.5848 L 223.6791 187.3371 L 225.2422 186.0893 L 226.8052 184.8415 L 228.3683 183.5938 L 229.9313 182.346 L 231.4944 181.0982 L 232.3617 179.2961 L 233.229 177.4939 M 231.4944 181.0982 L 233.4439 180.6517 L 235.3934 180.2052 M 231.4944 181.0982 L 233.0574 179.8504 L 234.6204 178.6027 L 236.1835 177.3549 L 237.7465 176.1071 M 215.864 193.5759 L 216.7313 191.7738 L 217.5986 189.9716 L 218.4659 188.1695 L 219.3332 186.3673 L 220.2005 184.5652 L 221.0678 182.763 L 221.9352 180.9608 L 222.8025 179.1587 L 223.6698 177.3565 L 224.5371 175.5544 L 225.4044 173.7522 L 226.2717 171.9501 L 226.2717 169.9501 L 226.2717 167.9501 L 225.4044 166.1479 L 224.5371 164.3458 M 226.2717 167.9501 L 227.139 166.1479 L 228.0064 164.3458 M 226.2717 167.9501 L 226.2717 165.9501 L 226.2717 163.9501 L 226.2717 161.9501 L 226.2717 159.9501 M 226.2717 171.9501 L 227.8348 170.7023 L 229.3978 169.4545 L 230.2651 167.6524 L 231.1324 165.8502 M 229.3978 169.4545 L 231.3473 169.008 L 233.2968 168.5615 M 229.3978 169.4545 L 230.9608 168.2068 L 232.5239 166.959 L 234.0869 165.7112 L 235.65 164.4634 M 226.2717 171.9501 L 227.139 170.1479 L 228.0064 168.3458 L 228.8737 166.5436 L 229.741 164.7415 L 230.6083 162.9393 L 231.4756 161.1371 L 231.4756 159.1371 L 231.4756 157.1371 M 231.4756 161.1371 L 233.0387 159.8894 L 234.6017 158.6416 M 231.4756 161.1371 L 232.3429 159.335 L 233.2103 157.5328 L 234.0776 155.7307 L 234.9449 153.9285 M 125.6628 381 L 125.6628 379 L 125.6628 377 L 125.6628 375 L 125.6628 373 L 125.6628 371 L 125.6628 369 L 125.6628 367 L 125.6628 365 L 125.6628 363 L 125.6628 361 L 125.6628 359 L 125.6628 357 L 125.6628 355 L 125.6628 353 L 125.6628 351 L 125.6628 349 L 125.6628 347 L 125.6628 345 L 125.6628 343 L 125.6628 341 L 125.6628 339 L 125.6628 337 L 125.6628 335 L 125.6628 333 L 125.6628 331 L 125.6628 329 L 125.6628 327 L 125.6628 325 L 125.6628 323 L 125.6628 321 L 125.6628 319 L 125.6628 317 L 125.6628 315 L 125.6628 313 L 125.6628 311 L 125.6628 309 L 125.6628 307 L 125.6628 305 L 125.6628 303 L 125.6628 301 L 125.6628 299 L 125.6628 297 L 125.6628 295 L 125.6628 293 L 125.6628 291 L 125.6628 289 L 125.6628 287 L 125.6628 285 L 125.6628 283 L 125.6628 281 L 125.6628 279 L 125.6628 277 L 125.6628 275 L 125.6628 273 L 125.6628 271 L 125.6628 269 L 125.6628 267 L 125.6628 265 L 125.6628 263 L 125.6628 261 L 125.6628 259 L 125.6628 257 L 125.6628 255 L 125.6628 253 L 125.6628 251 L 125.6628 249 L 125.6628 247 L 125.6628 245 L 125.6628 243 L 125.6628 241 L 125.6628 239 L 125.6628 237 L 125.6628 235 L 125.6628 233 L 125.6628 231 L 125.6628 229 L 125.6628 227 L 125.6628 225 L 125.6628 223 L 125.6628 221 L 125.6628 219 L 125.6628 217 L 125.6628 215 L 125.6628 213 L 125.6628 211 L 125.6628 209 L 125.6628 207 L 125.6628 205 L 125.6628 203 L 125.6628 201 L 125.6628 199 L 125.6628 197 L 125.6628 195 L 125.6628 193 L 125.6628 191 L 125.6628 189 L 124.7954 187.1978 L 123.9281 185.3957 L 123.0608 183.5935 L 122.1935 181.7914 L 121.3262 179.9892 L 120.4588 178.1871 L 119.5915 176.3849 L 118.7242 174.5828 L 117.8569 172.7806 L 116.9896 170.9785 L 116.1222 169.1763 L 115.2549 167.3741 L 114.3876 165.572 L 113.5203 163.7698 L 112.653 161.9677 L 111.7856 160.1655 L 110.2226 158.9178 L 108.6596 157.67 L 107.0965 156.4222 L 105.5335 155.1744 L 103.9704 153.9267 L 102.4074 152.6789 L 100.8444 151.4311 L 99.28132 150.1833 L 97.3318 149.7368 L 95.38228 149.2903 L 93.43275 148.8438 L 91.48324 148.3973 L 89.53294 148.8404 L 87.58264 149.2835 L 86.01742 150.5285 L 84.45219 151.7736 M 87.58264 149.2835 L 85.63312 148.837 L 83.68359 148.3905 M 87.58264 149.2835 L 85.63234 149.7266 L 83.68204 150.1697 L 81.73174 150.6128 L 79.78143 151.0558 M 91.48324 148.3973 L 89.9202 147.1496 L 88.35716 145.9018 L 86.40764 145.4553 L 84.45811 145.0088 M 88.35716 145.9018 L 87.48984 144.0996 L 86.62251 142.2975 M 88.35716 145.9018 L 86.79411 144.654 L 85.23108 143.4063 L 83.66804 142.1585 L 82.105 140.9107 M 91.48324 148.3973 L 89.53372 147.9508 L 87.5842 147.5043 L 85.63467 147.0578 L 83.68516 146.6113 L 81.73564 146.1648 L 79.78612 145.7183 L 77.83582 146.1614 L 75.88551 146.6045 M 79.78612 145.7183 L 78.22308 144.4706 L 76.66003 143.2228 M 79.78612 145.7183 L 77.83659 145.2718 L 75.88708 144.8253 L 73.93756 144.3788 L 71.98804 143.9323 M 99.28132 150.1833 L 98.414 148.3812 L 97.54668 146.579 L 96.67936 144.7769 L 95.81204 142.9747 L 94.249 141.727 L 92.68596 140.4792 L 90.73643 140.0327 L 88.78692 139.5862 M 92.68596 140.4792 L 91.81863 138.677 L 90.95132 136.8749 M 92.68596 140.4792 L 91.12292 139.2314 L 89.55988 137.9836 L 87.99684 136.7359 L 86.4338 135.4881 M 95.81204 142.9747 L 95.81204 140.9747 L 95.81204 138.9747 L 94.94472 137.1726 L 94.0774 135.3704 M 95.81204 138.9747 L 96.67936 137.1726 L 97.54668 135.3704 M 95.81204 138.9747 L 95.81204 136.9747 L 95.81204 134.9747 L 95.81204 132.9747 L 95.81204 130.9747 M 95.81204 142.9747 L 94.94472 141.1726 L 94.0774 139.3704 L 93.21008 137.5683 L 92.34276 135.7661 L 91.47543 133.964 L 90.60812 132.1618 L 89.04507 130.914 L 87.48204 129.6663 M 90.60812 132.1618 L 90.60812 130.1618 L 90.60812 128.1618 M 90.60812 132.1618 L 89.7408 130.3596 L 88.87347 128.5575 L 88.00616 126.7553 L 87.13884 124.9532 M 99.28132 150.1833 L 97.71828 148.9356 L 96.15524 147.6878 L 94.59219 146.44 L 93.02916 145.1923 L 91.46612 143.9445 L 89.90308 142.6967 L 88.34004 141.4489 L 86.77699 140.2012 L 85.21396 138.9534 L 83.65092 137.7056 L 82.08788 136.4579 L 80.52484 135.2101 L 78.57532 134.7636 L 76.62579 134.3171 L 74.6755 134.7602 L 72.7252 135.2032 M 76.62579 134.3171 L 75.06276 133.0693 L 73.49972 131.8215 M 76.62579 134.3171 L 74.67628 133.8706 L 72.72676 133.4241 L 70.77724 132.9776 L 68.82771 132.5311 M 80.52484 135.2101 L 79.65752 133.4079 L 78.7902 131.6058 L 77.22716 130.358 L 75.66412 129.1102 M 78.7902 131.6058 L 78.7902 129.6058 L 78.7902 127.6058 M 78.7902 131.6058 L 77.92288 129.8036 L 77.05556 128.0015 L 76.18823 126.1993 L 75.32092 124.3972 M 80.52484 135.2101 L 78.9618 133.9623 L 77.39876 132.7145 L 75.83572 131.4668 L 74.27267 130.219 L 72.70964 128.9712 L 71.1466 127.7234 L 69.19708 127.2769 L 67.24756 126.8304 M 71.1466 127.7234 L 70.27928 125.9213 L 69.41196 124.1191 M 71.1466 127.7234 L 69.58356 126.4757 L 68.02052 125.2279 L 66.45747 123.9801 L 64.89444 122.7324 M 111.7856 160.1655 L 111.7856 158.1655 L 111.7856 156.1655 L 111.7856 154.1655 L 111.7856 152.1655 L 111.7856 150.1655 L 111.7856 148.1655 L 111.7856 146.1655 L 111.7856 144.1655 L 110.9183 142.3634 L 110.051 140.5612 L 109.1837 138.7591 L 108.3164 136.9569 L 106.7533 135.7091 L 105.1903 134.4614 L 103.2408 134.0149 L 101.2912 133.5684 M 105.1903 134.4614 L 104.323 132.6592 L 103.4556 130.8571 M 105.1903 134.4614 L 103.6272 133.2136 L 102.0642 131.9658 L 100.5012 130.718 L 98.93812 129.4703 M 108.3164 136.9569 L 108.3164 134.9569 L 108.3164 132.9569 L 107.449 131.1548 L 106.5817 129.3526 M 108.3164 132.9569 L 109.1837 131.1548 L 110.051 129.3526 M 108.3164 132.9569 L 108.3164 130.9569 L 108.3164 128.9569 L 108.3164 126.9569 L 108.3164 124.9569 M 108.3164 136.9569 L 107.449 135.1548 L 106.5817 133.3526 L 105.7144 131.5504 L 104.8471 129.7483 L 103.9798 127.9461 L 103.1124 126.144 L 101.5494 124.8962 L 99.98636 123.6484 M 103.1124 126.144 L 103.1124 124.144 L 103.1124 122.144 M 103.1124 126.144 L 102.2451 124.3418 L 101.3778 122.5397 L 100.5105 120.7375 L 99.64316 118.9354 M 111.7856 144.1655 L 112.653 142.3634 L 113.5203 140.5612 L 114.3876 138.7591 L 115.2549 136.9569 L 115.2549 134.9569 L 115.2549 132.9569 L 114.3876 131.1548 L 113.5203 129.3526 M 115.2549 132.9569 L 116.1222 131.1548 L 116.9896 129.3526 M 115.2549 132.9569 L 115.2549 130.9569 L 115.2549 128.9569 L 115.2549 126.9569 L 115.2549 124.9569 M 115.2549 136.9569 L 116.818 135.7091 L 118.381 134.4614 L 119.2483 132.6592 L 120.1156 130.8571 M 118.381 134.4614 L 120.3305 134.0149 L 122.28 133.5684 M 118.381 134.4614 L 119.944 133.2136 L 121.5071 131.9658 L 123.0701 130.718 L 124.6332 129.4703 M 115.2549 136.9569 L 116.1222 135.1548 L 116.9896 133.3526 L 117.8569 131.5504 L 118.7242 129.7483 L 119.5915 127.9461 L 120.4588 126.144 L 120.4588 124.144 L 120.4588 122.144 M 120.4588 126.144 L 122.0219 124.8962 L 123.5849 123.6484 M 120.4588 126.144 L 121.3262 124.3418 L 122.1935 122.5397 L 123.0608 120.7375 L 123.9281 118.9354 M 111.7856 144.1655 L 111.7856 142.1655 L 111.7856 140.1655 L 111.7856 138.1655 L 111.7856 136.1655 L 111.7856 134.1655 L 111.7856 132.1655 L 111.7856 130.1655 L 111.7856 128.1655 L 111.7856 126.1655 L 111.7856 124.1655 L 111.7856 122.1655 L 111.7856 120.1655 L 110.9183 118.3634 L 110.051 116.5612 L 108.488 115.3134 L 106.9249 114.0657 M 110.051 116.5612 L 110.051 114.5612 L 110.051 112.5612 M 110.051 116.5612 L 109.1837 114.7591 L 108.3164 112.9569 L 107.449 111.1548 L 106.5817 109.3526 M 111.7856 120.1655 L 112.653 118.3634 L 113.5203 116.5612 L 113.5203 114.5612 L 113.5203 112.5612 M 113.5203 116.5612 L 115.0833 115.3134 L 116.6464 114.0657 M 113.5203 116.5612 L 114.3876 114.7591 L 115.2549 112.9569 L 116.1222 111.1548 L 116.9896 109.3526 M 111.7856 120.1655 L 111.7856 118.1655 L 111.7856 116.1655 L 111.7856 114.1655 L 111.7856 112.1655 L 111.7856 110.1655 L 111.7856 108.1655 L 110.9183 106.3634 L 110.051 104.5612 M 111.7856 108.1655 L 112.653 106.3634 L 113.5203 104.5612 M 111.7856 108.1655 L 111.7856 106.1655 L 111.7856 104.1655 L 111.7856 102.1655 L 111.7856 100.1655 M 111.7856 160.1655 L 110.9183 158.3634 L 110.051 156.5612 L 109.1837 154.7591 L 108.3164 152.9569 L 107.449 151.1548 L 106.5817 149.3526 L 105.7144 147.5504 L 104.8471 145.7483 L 103.9798 143.9461 L 103.1124 142.144 L 102.2451 140.3418 L 101.3778 138.5397 L 100.5105 136.7375 L 99.64316 134.9354 L 98.77583 133.1332 L 97.90852 131.3311 L 97.0412 129.5289 L 96.17387 127.7267 L 95.30656 125.9246 L 94.43924 124.1224 L 93.57191 122.3203 L 92.7046 120.5181 L 91.83728 118.716 L 90.96996 116.9138 L 89.40692 115.666 L 87.84388 114.4183 L 86.28084 113.1705 L 84.7178 111.9227 L 82.76826 111.4762 L 80.81875 111.0297 L 78.86845 111.4728 L 76.91815 111.9159 M 80.81875 111.0297 L 79.25571 109.782 L 77.69267 108.5342 M 80.81875 111.0297 L 78.86923 110.5832 L 76.91971 110.1367 L 74.97018 109.6902 L 73.02067 109.2437 M 84.7178 111.9227 L 83.85048 110.1206 L 82.98315 108.3184 L 81.42012 107.0706 L 79.85708 105.8229 M 82.98315 108.3184 L 82.98315 106.3184 L 82.98315 104.3184 M 82.98315 108.3184 L 82.11584 106.5163 L 81.24852 104.7141 L 80.3812 102.912 L 79.51388 101.1098 M 84.7178 111.9227 L 83.15475 110.675 L 81.59172 109.4272 L 80.02868 108.1794 L 78.46564 106.9316 L 76.9026 105.6839 L 75.33955 104.4361 L 73.39004 103.9896 L 71.44052 103.5431 M 75.33955 104.4361 L 74.47224 102.6339 L 73.60492 100.8318 M 75.33955 104.4361 L 73.77652 103.1883 L 72.21348 101.9406 L 70.65044 100.6928 L 69.0874 99.44501 M 90.96996 116.9138 L 90.96996 114.9138 L 90.96996 112.9138 L 90.96996 110.9138 L 90.96996 108.9138 L 90.10264 107.1117 L 89.23532 105.3095 L 87.67228 104.0617 L 86.10924 102.814 M 89.23532 105.3095 L 89.23532 103.3095 L 89.23532 101.3095 M 89.23532 105.3095 L 88.368 103.5074 L 87.50068 101.7052 L 86.63336 99.90305 L 85.76604 98.10089 M 90.96996 108.9138 L 91.83728 107.1117 L 92.7046 105.3095 L 92.7046 103.3095 L 92.7046 101.3095 M 92.7046 105.3095 L 94.26764 104.0617 L 95.83067 102.814 M 92.7046 105.3095 L 93.57191 103.5074 L 94.43924 101.7052 L 95.30656 99.90305 L 96.17387 98.10089 M 90.96996 108.9138 L 90.96996 106.9138 L 90.96996 104.9138 L 90.96996 102.9138 L 90.96996 100.9138 L 90.96996 98.91382 L 90.96996 96.91382 L 90.10264 95.11166 L 89.23532 93.30951 M 90.96996 96.91382 L 91.83728 95.11166 L 92.7046 93.30951 M 90.96996 96.91382 L 90.96996 94.91382 L 90.96996 92.91382 L 90.96996 90.91382 L 90.96996 88.91382 M 90.96996 116.9138 L 90.10264 115.1117 L 89.23532 113.3095 L 88.368 111.5074 L 87.50068 109.7052 L 86.63336 107.903 L 85.76604 106.1009 L 84.89871 104.2987 L 84.0314 102.4966 L 83.16408 100.6944 L 82.29675 98.89227 L 81.42944 97.09012 L 80.56212 95.28796 L 78.99908 94.04019 L 77.43604 92.79242 L 75.48652 92.34592 L 73.537 91.89941 M 77.43604 92.79242 L 76.56872 90.99026 L 75.7014 89.18811 M 77.43604 92.79242 L 75.873 91.54465 L 74.30996 90.29688 L 72.74692 89.0491 L 71.18388 87.80133 M 80.56212 95.28796 L 80.56212 93.28796 L 80.56212 91.28796 L 79.69479 89.48581 L 78.82748 87.68365 M 80.56212 91.28796 L 81.42944 89.48581 L 82.29675 87.68365 M 80.56212 91.28796 L 80.56212 89.28796 L 80.56212 87.28796 L 80.56212 85.28796 L 80.56212 83.28796 M 80.56212 95.28796 L 79.69479 93.48581 L 78.82748 91.68365 L 77.96016 89.8815 L 77.09283 88.07935 L 76.22552 86.27719 L 75.3582 84.47504 L 73.79516 83.22726 L 72.23212 81.97949 M 75.3582 84.47504 L 75.3582 82.47504 L 75.3582 80.47504 M 75.3582 84.47504 L 74.49088 82.67288 L 73.62356 80.87073 L 72.75624 79.06857 L 71.88892 77.26642 M 125.6628 189 L 126.5301 187.1978 L 127.3974 185.3957 L 128.2647 183.5935 L 129.132 181.7914 L 129.9994 179.9892 L 130.8667 178.1871 L 131.734 176.3849 L 132.6013 174.5828 L 133.4686 172.7806 L 134.336 170.9785 L 135.2033 169.1763 L 136.0706 167.3741 L 136.9379 165.572 L 137.8052 163.7698 L 138.6726 161.9677 L 139.5399 160.1655 L 139.5399 158.1655 L 139.5399 156.1655 L 139.5399 154.1655 L 139.5399 152.1655 L 139.5399 150.1655 L 139.5399 148.1655 L 139.5399 146.1655 L 139.5399 144.1655 L 138.6726 142.3634 L 137.8052 140.5612 L 136.9379 138.7591 L 136.0706 136.9569 L 134.5076 135.7091 L 132.9445 134.4614 L 130.995 134.0149 L 129.0455 133.5684 M 132.9445 134.4614 L 132.0772 132.6592 L 131.2099 130.8571 M 132.9445 134.4614 L 131.3815 133.2136 L 129.8184 131.9658 L 128.2554 130.718 L 126.6924 129.4703 M 136.0706 136.9569 L 136.0706 134.9569 L 136.0706 132.9569 L 135.2033 131.1548 L 134.336 129.3526 M 136.0706 132.9569 L 136.9379 131.1548 L 137.8052 129.3526 M 136.0706 132.9569 L 136.0706 130.9569 L 136.0706 128.9569 L 136.0706 126.9569 L 136.0706 124.9569 M 136.0706 136.9569 L 135.2033 135.1548 L 134.336 133.3526 L 133.4686 131.5504 L 132.6013 129.7483 L 131.734 127.9461 L 130.8667 126.144 L 129.3036 124.8962 L 127.7406 123.6484 M 130.8667 126.144 L 130.8667 124.144 L 130.8667 122.144 M 130.8667 126.144 L 129.9994 124.3418 L 129.132 122.5397 L 128.2647 120.7375 L 127.3974 118.9354 M 139.5399 144.1655 L 140.4072 142.3634 L 141.2745 140.5612 L 142.1418 138.7591 L 143.0092 136.9569 L 143.0092 134.9569 L 143.0092 132.9569 L 142.1418 131.1548 L 141.2745 129.3526 M 143.0092 132.9569 L 143.8765 131.1548 L 144.7438 129.3526 M 143.0092 132.9569 L 143.0092 130.9569 L 143.0092 128.9569 L 143.0092 126.9569 L 143.0092 124.9569 M 143.0092 136.9569 L 144.5722 135.7091 L 146.1352 134.4614 L 147.0026 132.6592 L 147.8699 130.8571 M 146.1352 134.4614 L 148.0848 134.0149 L 150.0343 133.5684 M 146.1352 134.4614 L 147.6983 133.2136 L 149.2613 131.9658 L 150.8244 130.718 L 152.3874 129.4703 M 143.0092 136.9569 L 143.8765 135.1548 L 144.7438 133.3526 L 145.6111 131.5504 L 146.4784 129.7483 L 147.3458 127.9461 L 148.2131 126.144 L 148.2131 124.144 L 148.2131 122.144 M 148.2131 126.144 L 149.7761 124.8962 L 151.3392 123.6484 M 148.2131 126.144 L 149.0804 124.3418 L 149.9477 122.5397 L 150.815 120.7375 L 151.6824 118.9354 M 139.5399 144.1655 L 139.5399 142.1655 L 139.5399 140.1655 L 139.5399 138.1655 L 139.5399 136.1655 L 139.5399 134.1655 L 139.5399 132.1655 L 139.5399 130.1655 L 139.5399 128.1655 L 139.5399 126.1655 L 139.5399 124.1655 L 139.5399 122.1655 L 139.5399 120.1655 L 138.6726 118.3634 L 137.8052 116.5612 L 136.2422 115.3134 L 134.6792 114.0657 M 137.8052 116.5612 L 137.8052 114.5612 L 137.8052 112.5612 M 137.8052 116.5612 L 136.9379 114.7591 L 136.0706 112.9569 L 135.2033 111.1548 L 134.336 109.3526 M 139.5399 120.1655 L 140.4072 118.3634 L 141.2745 116.5612 L 141.2745 114.5612 L 141.2745 112.5612 M 141.2745 116.5612 L 142.8376 115.3134 L 144.4006 114.0657 M 141.2745 116.5612 L 142.1418 114.7591 L 143.0092 112.9569 L 143.8765 111.1548 L 144.7438 109.3526 M 139.5399 120.1655 L 139.5399 118.1655 L 139.5399 116.1655 L 139.5399 114.1655 L 139.5399 112.1655 L 139.5399 110.1655 L 139.5399 108.1655 L 138.6726 106.3634 L 137.8052 104.5612 M 139.5399 108.1655 L 140.4072 106.3634 L 141.2745 104.5612 M 139.5399 108.1655 L 139.5399 106.1655 L 139.5399 104.1655 L 139.5399 102.1655 L 139.5399 100.1655 M 139.5399 160.1655 L 141.1029 158.9178 L 142.666 157.67 L 144.229 156.4222 L 145.792 155.1744 L 147.3551 153.9267 L 148.9181 152.6789 L 150.4812 151.4311 L 152.0442 150.1833 L 152.9115 148.3812 L 153.7788 146.579 L 154.6462 144.7769 L 155.5135 142.9747 L 155.5135 140.9747 L 155.5135 138.9747 L 154.6462 137.1726 L 153.7788 135.3704 M 155.5135 138.9747 L 156.3808 137.1726 L 157.2481 135.3704 M 155.5135 138.9747 L 155.5135 136.9747 L 155.5135 134.9747 L 155.5135 132.9747 L 155.5135 130.9747 M 155.5135 142.9747 L 157.0765 141.727 L 158.6396 140.4792 L 159.5069 138.677 L 160.3742 136.8749 M 158.6396 140.4792 L 160.5891 140.0327 L 162.5386 139.5862 M 158.6396 140.4792 L 160.2026 139.2314 L 161.7656 137.9836 L 163.3287 136.7359 L 164.8917 135.4881 M 155.5135 142.9747 L 156.3808 141.1726 L 157.2481 139.3704 L 158.1154 137.5683 L 158.9828 135.7661 L 159.8501 133.964 L 160.7174 132.1618 L 160.7174 130.1618 L 160.7174 128.1618 M 160.7174 132.1618 L 162.2804 130.914 L 163.8435 129.6663 M 160.7174 132.1618 L 161.5847 130.3596 L 162.452 128.5575 L 163.3194 126.7553 L 164.1867 124.9532 M 152.0442 150.1833 L 153.9937 149.7368 L 155.9432 149.2903 L 157.8928 148.8438 L 159.8423 148.3973 L 161.4053 147.1496 L 162.9684 145.9018 L 163.8357 144.0996 L 164.703 142.2975 M 162.9684 145.9018 L 164.9179 145.4553 L 166.8674 145.0088 M 162.9684 145.9018 L 164.5314 144.654 L 166.0944 143.4063 L 167.6575 142.1585 L 169.2205 140.9107 M 159.8423 148.3973 L 161.7926 148.8404 L 163.7429 149.2835 L 165.6924 148.837 L 167.6419 148.3905 M 163.7429 149.2835 L 165.3081 150.5285 L 166.8733 151.7736 M 163.7429 149.2835 L 165.6932 149.7266 L 167.6435 150.1697 L 169.5938 150.6128 L 171.5441 151.0558 M 159.8423 148.3973 L 161.7918 147.9508 L 163.7413 147.5043 L 165.6908 147.0578 L 167.6404 146.6113 L 169.5899 146.1648 L 171.5394 145.7183 L 173.1024 144.4706 L 174.6655 143.2228 M 171.5394 145.7183 L 173.4897 146.1614 L 175.44 146.6045 M 171.5394 145.7183 L 173.4889 145.2718 L 175.4384 144.8253 L 177.388 144.3788 L 179.3375 143.9323 M 152.0442 150.1833 L 153.6072 148.9356 L 155.1703 147.6878 L 156.7333 146.44 L 158.2964 145.1923 L 159.8594 143.9445 L 161.4224 142.6967 L 162.9855 141.4489 L 164.5485 140.2012 L 166.1116 138.9534 L 167.6746 137.7056 L 169.2376 136.4579 L 170.8007 135.2101 L 171.668 133.4079 L 172.5353 131.6058 L 172.5353 129.6058 L 172.5353 127.6058 M 172.5353 131.6058 L 174.0984 130.358 L 175.6614 129.1102 M 172.5353 131.6058 L 173.4026 129.8036 L 174.27 128.0015 L 175.1373 126.1993 L 176.0046 124.3972 M 170.8007 135.2101 L 172.7502 134.7636 L 174.6997 134.3171 L 176.2628 133.0693 L 177.8258 131.8215 M 174.6997 134.3171 L 176.65 134.7602 L 178.6003 135.2032 M 174.6997 134.3171 L 176.6492 133.8706 L 178.5988 133.4241 L 180.5483 132.9776 L 182.4978 132.5311 M 170.8007 135.2101 L 172.3637 133.9623 L 173.9268 132.7145 L 175.4898 131.4668 L 177.0528 130.219 L 178.6159 128.9712 L 180.1789 127.7234 L 181.0462 125.9213 L 181.9136 124.1191 M 180.1789 127.7234 L 182.1284 127.2769 L 184.078 126.8304 M 180.1789 127.7234 L 181.742 126.4757 L 183.305 125.2279 L 184.868 123.9801 L 186.4311 122.7324 M 139.5399 160.1655 L 140.4072 158.3634 L 141.2745 156.5612 L 142.1418 154.7591 L 143.0092 152.9569 L 143.8765 151.1548 L 144.7438 149.3526 L 145.6111 147.5504 L 146.4784 145.7483 L 147.3458 143.9461 L 148.2131 142.144 L 149.0804 140.3418 L 149.9477 138.5397 L 150.815 136.7375 L 151.6824 134.9354 L 152.5497 133.1332 L 153.417 131.3311 L 154.2843 129.5289 L 155.1516 127.7267 L 156.019 125.9246 L 156.8863 124.1224 L 157.7536 122.3203 L 158.6209 120.5181 L 159.4882 118.716 L 160.3556 116.9138 L 160.3556 114.9138 L 160.3556 112.9138 L 160.3556 110.9138 L 160.3556 108.9138 L 159.4882 107.1117 L 158.6209 105.3095 L 157.0579 104.0617 L 155.4948 102.814 M 158.6209 105.3095 L 158.6209 103.3095 L 158.6209 101.3095 M 158.6209 105.3095 L 157.7536 103.5074 L 156.8863 101.7052 L 156.019 99.90305 L 155.1516 98.10089 M 160.3556 108.9138 L 161.2229 107.1117 L 162.0902 105.3095 L 162.0902 103.3095 L 162.0902 101.3095 M 162.0902 105.3095 L 163.6532 104.0617 L 165.2163 102.814 M 162.0902 105.3095 L 162.9575 103.5074 L 163.8248 101.7052 L 164.6922 99.90305 L 165.5595 98.10089 M 160.3556 108.9138 L 160.3556 106.9138 L 160.3556 104.9138 L 160.3556 102.9138 L 160.3556 100.9138 L 160.3556 98.91382 L 160.3556 96.91382 L 159.4882 95.11166 L 158.6209 93.30951 M 160.3556 96.91382 L 161.2229 95.11166 L 162.0902 93.30951 M 160.3556 96.91382 L 160.3556 94.91382 L 160.3556 92.91382 L 160.3556 90.91382 L 160.3556 88.91382 M 160.3556 116.9138 L 161.9186 115.666 L 163.4816 114.4183 L 165.0447 113.1705 L 166.6077 111.9227 L 167.475 110.1206 L 168.3424 108.3184 L 168.3424 106.3184 L 168.3424 104.3184 M 168.3424 108.3184 L 169.9054 107.0706 L 171.4684 105.8229 M 168.3424 108.3184 L 169.2097 106.5163 L 170.077 104.7141 L 170.9443 102.912 L 171.8116 101.1098 M 166.6077 111.9227 L 168.5573 111.4762 L 170.5068 111.0297 L 172.0698 109.782 L 173.6328 108.5342 M 170.5068 111.0297 L 172.4571 111.4728 L 174.4074 111.9159 M 170.5068 111.0297 L 172.4563 110.5832 L 174.4058 110.1367 L 176.3553 109.6902 L 178.3048 109.2437 M 166.6077 111.9227 L 168.1708 110.675 L 169.7338 109.4272 L 171.2968 108.1794 L 172.8599 106.9316 L 174.4229 105.6839 L 175.986 104.4361 L 176.8533 102.6339 L 177.7206 100.8318 M 175.986 104.4361 L 177.9355 103.9896 L 179.885 103.5431 M 175.986 104.4361 L 177.549 103.1883 L 179.112 101.9406 L 180.6751 100.6928 L 182.2381 99.44501 M 160.3556 116.9138 L 161.2229 115.1117 L 162.0902 113.3095 L 162.9575 111.5074 L 163.8248 109.7052 L 164.6922 107.903 L 165.5595 106.1009 L 166.4268 104.2987 L 167.2941 102.4966 L 168.1614 100.6944 L 169.0288 98.89227 L 169.8961 97.09012 L 170.7634 95.28796 L 170.7634 93.28796 L 170.7634 91.28796 L 169.8961 89.48581 L 169.0288 87.68365 M 170.7634 91.28796 L 171.6307 89.48581 L 172.498 87.68365 M 170.7634 91.28796 L 170.7634 89.28796 L 170.7634 87.28796 L 170.7634 85.28796 L 170.7634 83.28796 M 170.7634 95.28796 L 172.3264 94.04019 L 173.8895 92.79242 L 174.7568 90.99026 L 175.6241 89.18811 M 173.8895 92.79242 L 175.839 92.34592 L 177.7885 91.89941 M 173.8895 92.79242 L 175.4525 91.54465 L 177.0156 90.29688 L 178.5786 89.0491 L 180.1416 87.80133 M 170.7634 95.28796 L 171.6307 93.48581 L 172.498 91.68365 L 173.3654 89.8815 L 174.2327 88.07935 L 175.1 86.27719 L 175.9673 84.47504 L 175.9673 82.47504 L 175.9673 80.47504 M 175.9673 84.47504 L 177.5304 83.22726 L 179.0934 81.97949 M 175.9673 84.47504 L 176.8346 82.67288 L 177.702 80.87073 L 178.5693 79.06857 L 179.4366 77.26642 M 125.6628 189 L 125.6628 187 L 125.6628 185 L 125.6628 183 L 125.6628 181 L 125.6628 179 L 125.6628 177 L 125.6628 175 L 125.6628 173 L 125.6628 171 L 125.6628 169 L 125.6628 167 L 125.6628 165 L 125.6628 163 L 125.6628 161 L 125.6628 159 L 125.6628 157 L 125.6628 155 L 125.6628 153 L 125.6628 151 L 125.6628 149 L 125.6628 147 L 125.6628 145 L 125.6628 143 L 125.6628 141 L 125.6628 139 L 125.6628 137 L 125.6628 135 L 125.6628 133 L 125.6628 131 L 125.6628 129 L 125.6628 127 L 125.6628 125 L 125.6628 123 L 125.6628 121 L 125.6628 119 L 125.6628 117 L 125.6628 115 L 125.6628 113 L 125.6628 111 L 125.6628 109 L 125.6628 107 L 125.6628 105 L 125.6628 103 L 125.6628 101 L 125.6628 99 L 125.6628 97 L 125.6628 95 L 125.6628 93 L 124.7954 91.19785 L 123.9281 89.39569 L 123.0608 87.59354 L 122.1935 85.79138 L 121.3262 83.98923 L 120.4588 82.18707 L 119.5915 80.38492 L 118.7242 78.58276 L 117.1612 77.33499 L 115.5981 76.08722 L 114.0351 74.83945 L 112.472 73.59167 L 110.5225 73.14517 L 108.573 72.69867 L 106.6227 73.14175 L 104.6724 73.58484 M 108.573 72.69867 L 107.01 71.4509 L 105.4469 70.20313 M 108.573 72.69867 L 106.6235 72.25217 L 104.674 71.80566 L 102.7244 71.35916 L 100.7749 70.91266 M 112.472 73.59167 L 111.6047 71.78952 L 110.7374 69.98737 L 109.1744 68.73959 L 107.6113 67.49182 M 110.7374 69.98737 L 110.7374 67.98737 L 110.7374 65.98737 M 110.7374 69.98737 L 109.8701 68.18521 L 109.0028 66.38306 L 108.1354 64.5809 L 107.2681 62.77875 M 112.472 73.59167 L 110.909 72.3439 L 109.346 71.09613 L 107.7829 69.84836 L 106.2199 68.60059 L 104.6568 67.35281 L 103.0938 66.10504 L 101.1443 65.65854 L 99.19476 65.21204 M 103.0938 66.10504 L 102.2265 64.30289 L 101.3592 62.50073 M 103.0938 66.10504 L 101.5308 64.85727 L 99.96772 63.6095 L 98.40468 62.36172 L 96.84164 61.11395 M 118.7242 78.58276 L 118.7242 76.58276 L 118.7242 74.58276 L 118.7242 72.58276 L 118.7242 70.58276 L 117.8569 68.78061 L 116.9896 66.97845 L 115.4265 65.73068 L 113.8635 64.48291 M 116.9896 66.97845 L 116.9896 64.97845 L 116.9896 62.97845 M 116.9896 66.97845 L 116.1222 65.1763 L 115.2549 63.37415 L 114.3876 61.57199 L 113.5203 59.76984 M 118.7242 70.58276 L 119.5915 68.78061 L 120.4588 66.97845 L 120.4588 64.97845 L 120.4588 62.97845 M 120.4588 66.97845 L 122.0219 65.73068 L 123.5849 64.48291 M 120.4588 66.97845 L 121.3262 65.1763 L 122.1935 63.37415 L 123.0608 61.57199 L 123.9281 59.76984 M 118.7242 70.58276 L 118.7242 68.58276 L 118.7242 66.58276 L 118.7242 64.58276 L 118.7242 62.58276 L 118.7242 60.58276 L 118.7242 58.58276 L 117.8569 56.78061 L 116.9896 54.97845 M 118.7242 58.58276 L 119.5915 56.78061 L 120.4588 54.97845 M 118.7242 58.58276 L 118.7242 56.58276 L 118.7242 54.58276 L 118.7242 52.58276 L 118.7242 50.58276 M 118.7242 78.58276 L 117.8569 76.78061 L 116.9896 74.97845 L 116.1222 73.1763 L 115.2549 71.37415 L 114.3876 69.57199 L 113.5203 67.76984 L 112.653 65.96768 L 111.7856 64.16553 L 110.9183 62.36337 L 110.051 60.56122 L 109.1837 58.75906 L 108.3164 56.95691 L 106.7533 55.70914 L 105.1903 54.46136 L 103.2408 54.01486 L 101.2912 53.56836 M 105.1903 54.46136 L 104.323 52.65921 L 103.4556 50.85706 M 105.1903 54.46136 L 103.6272 53.21359 L 102.0642 51.96582 L 100.5012 50.71805 L 98.93812 49.47028 M 108.3164 56.95691 L 108.3164 54.95691 L 108.3164 52.95691 L 107.449 51.15475 L 106.5817 49.3526 M 108.3164 52.95691 L 109.1837 51.15475 L 110.051 49.3526 M 108.3164 52.95691 L 108.3164 50.95691 L 108.3164 48.95691 L 108.3164 46.95691 L 108.3164 44.95691 M 108.3164 56.95691 L 107.449 55.15475 L 106.5817 53.3526 L 105.7144 51.55045 L 104.8471 49.74829 L 103.9798 47.94614 L 103.1124 46.14398 L 101.5494 44.89621 L 99.98636 43.64844 M 103.1124 46.14398 L 103.1124 44.14398 L 103.1124 42.14398 M 103.1124 46.14398 L 102.2451 44.34183 L 101.3778 42.53967 L 100.5105 40.73752 L 99.64316 38.93536 M 125.6628 93 L 126.5301 91.19785 L 127.3974 89.39569 L 128.2647 87.59354 L 129.132 85.79138 L 129.9994 83.98923 L 130.8667 82.18707 L 131.734 80.38492 L 132.6013 78.58276 L 132.6013 76.58276 L 132.6013 74.58276 L 132.6013 72.58276 L 132.6013 70.58276 L 131.734 68.78061 L 130.8667 66.97845 L 129.3036 65.73068 L 127.7406 64.48291 M 130.8667 66.97845 L 130.8667 64.97845 L 130.8667 62.97845 M 130.8667 66.97845 L 129.9994 65.1763 L 129.132 63.37415 L 128.2647 61.57199 L 127.3974 59.76984 M 132.6013 70.58276 L 133.4686 68.78061 L 134.336 66.97845 L 134.336 64.97845 L 134.336 62.97845 M 134.336 66.97845 L 135.899 65.73068 L 137.462 64.48291 M 134.336 66.97845 L 135.2033 65.1763 L 136.0706 63.37415 L 136.9379 61.57199 L 137.8052 59.76984 M 132.6013 70.58276 L 132.6013 68.58276 L 132.6013 66.58276 L 132.6013 64.58276 L 132.6013 62.58276 L 132.6013 60.58276 L 132.6013 58.58276 L 131.734 56.78061 L 130.8667 54.97845 M 132.6013 58.58276 L 133.4686 56.78061 L 134.336 54.97845 M 132.6013 58.58276 L 132.6013 56.58276 L 132.6013 54.58276 L 132.6013 52.58276 L 132.6013 50.58276 M 132.6013 78.58276 L 134.1644 77.33499 L 135.7274 76.08722 L 137.2904 74.83945 L 138.8535 73.59167 L 139.7208 71.78952 L 140.5881 69.98737 L 140.5881 67.98737 L 140.5881 65.98737 M 140.5881 69.98737 L 142.1512 68.73959 L 143.7142 67.49182 M 140.5881 69.98737 L 141.4554 68.18521 L 142.3228 66.38306 L 143.1901 64.5809 L 144.0574 62.77875 M 138.8535 73.59167 L 140.803 73.14517 L 142.7525 72.69867 L 144.3156 71.4509 L 145.8786 70.20313 M 142.7525 72.69867 L 144.7028 73.14175 L 146.6531 73.58484 M 142.7525 72.69867 L 144.702 72.25217 L 146.6516 71.80566 L 148.6011 71.35916 L 150.5506 70.91266 M 138.8535 73.59167 L 140.4165 72.3439 L 141.9796 71.09613 L 143.5426 69.84836 L 145.1056 68.60059 L 146.6687 67.35281 L 148.2317 66.10504 L 149.099 64.30289 L 149.9664 62.50073 M 148.2317 66.10504 L 150.1812 65.65854 L 152.1308 65.21204 M 148.2317 66.10504 L 149.7948 64.85727 L 151.3578 63.6095 L 152.9208 62.36172 L 154.4839 61.11395 M 132.6013 78.58276 L 133.4686 76.78061 L 134.336 74.97845 L 135.2033 73.1763 L 136.0706 71.37415 L 136.9379 69.57199 L 137.8052 67.76984 L 138.6726 65.96768 L 139.5399 64.16553 L 140.4072 62.36337 L 141.2745 60.56122 L 142.1418 58.75906 L 143.0092 56.95691 L 143.0092 54.95691 L 143.0092 52.95691 L 142.1418 51.15475 L 141.2745 49.3526 M 143.0092 52.95691 L 143.8765 51.15475 L 144.7438 49.3526 M 143.0092 52.95691 L 143.0092 50.95691 L 143.0092 48.95691 L 143.0092 46.95691 L 143.0092 44.95691 M 143.0092 56.95691 L 144.5722 55.70914 L 146.1352 54.46136 L 147.0026 52.65921 L 147.8699 50.85706 M 146.1352 54.46136 L 148.0848 54.01486 L 150.0343 53.56836 M 146.1352 54.46136 L 147.6983 53.21359 L 149.2613 51.96582 L 150.8244 50.71805 L 152.3874 49.47028 M 143.0092 56.95691 L 143.8765 55.15475 L 144.7438 53.3526 L 145.6111 51.55045 L 146.4784 49.74829 L 147.3458 47.94614 L 148.2131 46.14398 L 148.2131 44.14398 L 148.2131 42.14398 M 148.2131 46.14398 L 149.7761 44.89621 L 151.3392 43.64844 M 148.2131 46.14398 L 149.0804 44.34183 L 149.9477 42.53967 L 150.815 40.73752 L 151.6824 38.93536 M 125.6628 93 L 125.6628 91 L 125.6628 89 L 125.6628 87 L 125.6628 85 L 125.6628 83 L 125.6628 81 L 125.6628 79 L 125.6628 77 L 125.6628 75 L 125.6628 73 L 125.6628 71 L 125.6628 69 L 125.6628 67 L 125.6628 65 L 125.6628 63 L 125.6628 61 L 125.6628 59 L 125.6628 57 L 125.6628 55 L 125.6628 53 L 125.6628 51 L 125.6628 49 L 125.6628 47 L 125.6628 45 L 124.7954 43.19785 L 123.9281 41.39569 L 123.0608 39.59354 L 122.1935 37.79138 L 120.6304 36.54361 L 119.0674 35.29584 L 117.1179 34.84933 L 115.1684 34.40283 M 119.0674 35.29584 L 118.2001 33.49368 L 117.3328 31.69153 M 119.0674 35.29584 L 117.5044 34.04807 L 115.9413 32.80029 L 114.3783 31.55252 L 112.8152 30.30475 M 122.1935 37.79138 L 122.1935 35.79138 L 122.1935 33.79138 L 121.3262 31.98923 L 120.4588 30.18707 M 122.1935 33.79138 L 123.0608 31.98923 L 123.9281 30.18707 M 122.1935 33.79138 L 122.1935 31.79138 L 122.1935 29.79138 L 122.1935 27.79138 L 122.1935 25.79138 M 122.1935 37.79138 L 121.3262 35.98923 L 120.4588 34.18707 L 119.5915 32.38492 L 118.7242 30.58276 L 117.8569 28.78061 L 116.9896 26.97845 L 115.4265 25.73068 L 113.8635 24.48291 M 116.9896 26.97845 L 116.9896 24.97845 L 116.9896 22.97845 M 116.9896 26.97845 L 116.1222 25.1763 L 115.2549 23.37415 L 114.3876 21.57199 L 113.5203 19.76984 M 125.6628 45 L 126.5301 43.19785 L 127.3974 41.39569 L 128.2647 39.59354 L 129.132 37.79138 L 129.132 35.79138 L 129.132 33.79138 L 128.2647 31.98923 L 127.3974 30.18707 M 129.132 33.79138 L 129.9994 31.98923 L 130.8667 30.18707 M 129.132 33.79138 L 129.132 31.79138 L 129.132 29.79138 L 129.132 27.79138 L 129.132 25.79138 M 129.132 37.79138 L 130.6951 36.54361 L 132.2581 35.29584 L 133.1254 33.49368 L 133.9928 31.69153 M 132.2581 35.29584 L 134.2076 34.84933 L 136.1572 34.40283 M 132.2581 35.29584 L 133.8212 34.04807 L 135.3842 32.80029 L 136.9472 31.55252 L 138.5103 30.30475 M 129.132 37.79138 L 129.9994 35.98923 L 130.8667 34.18707 L 131.734 32.38492 L 132.6013 30.58276 L 133.4686 28.78061 L 134.336 26.97845 L 134.336 24.97845 L 134.336 22.97845 M 134.336 26.97845 L 135.899 25.73068 L 137.462 24.48291 M 134.336 26.97845 L 135.2033 25.1763 L 136.0706 23.37415 L 136.9379 21.57199 L 137.8052 19.76984 M 125.6628 45 L 125.6628 43 L 125.6628 41 L 125.6628 39 L 125.6628 37 L 125.6628 35 L 125.6628 33 L 125.6628 31 L 125.6628 29 L 125.6628 27 L 125.6628 25 L 125.6628 23 L 125.6628 21 L 124.7954 19.19785 L 123.9281 17.39569 L 122.3651 16.14792 L 120.802 14.90015 M 123.9281 17.39569 L 123.9281 15.39569 L 123.9281 13.39569 M 123.9281 17.39569 L 123.0608 15.59354 L 122.1935 13.79138 L 121.3262 11.98923 L 120.4588 10.18707 M 125.6628 21 L 126.5301 19.19785 L 127.3974 17.39569 L 127.3974 15.39569 L 127.3974 13.39569 M 127.3974 17.39569 L 128.9604 16.14792 L 130.5235 14.90015 M 127.3974 17.39569 L 128.2647 15.59354 L 129.132 13.79138 L 129.9994 11.98923 L 130.8667 10.18707 M 125.6628 21 L 125.6628 19 L 125.6628 17 L 125.6628 15 L 125.6628 13 L 125.6628 11 L 125.6628 9 L 124.7954 7.197845 L 123.9281 5.395691 M 125.6628 9 L 126.5301 7.197845 L 127.3974 5.395691 M 125.6628 9 L 125.6628 7 L 125.6628 5 L 125.6628 3 L 125.6628 1 " />
  </g>
</svg>
