<?xml version="1.0" encoding="UTF-8" standalone="no"?>
<!DOCTYPE svg PUBLIC "-//W3C//DTD SVG 1.1//EN"
    "http://www.w3.org/Graphics/SVG/1.1/DTD/svg11.dtd">
<svg xmlns="http://www.w3.org/2000/svg" width="283" height="500">
  <desc>plant_d LSystem</desc>
  <rect width="100%" height="100%" style="fill: white"/>
  <g stroke="black" fill="none" stroke-width="1">
    <path d="M 141.2044 498.8691 L 141.2044 496.8691 L 141.2044 494.8691 L 141.2044 492.8691 L 141.2044 490.8691 L 141.2044 488.8691 L 141.2044 486.8691 L 141.2044 484.8691 L 141.2044 482.8691 L 141.2044 480.8691 L 141.2044 478.8691 L 141.2044 476.8691 L 141.2044 474.8691 L 141.2044 472.8691 L 141.2044 470.8691 L 141.2044 468.8691 L 141.2044 466.8691 L 141.2044 464.8691 L 141.2044 462.8691 L 141.2044 460.8691 L 141.2044 458.8691 L 141.2044 456.8691 L 141.2044 454.8691 L 141.2044 452.8691 L 141.2044 450.8691 L 141.2044 448.8691 L 141.2044 446.8691 L 141.2044 444.8691 L 141.2044 442.8691 L 141.2044 440.8691 L 141.2044 438.8691 L 141.2044 436.8691 L 141.2044 434.8691 L 141.2044 432.8691 L 141.2044 430.8691 L 141.2044 428.8691 L 141.2044 426.8691 L 141.2044 424.8691 L 141.2044 422.8691 L 141.2044 420.8691 L 141.2044 418.8691 L 141.2044 416.8691 L 141.2044 414.8691 L 141.2044 412.8691 L 141.2044 410.8691 L 141.2044 408.8691 L 141.2044 406.8691 L 141.2044 404.8691 L 141.2044 402.8691 L 141.2044 400.8691 L 141.2044 398.8691 L 141.2044 396.8691 L 141.2044 394.8691 L 141.2044 392.8691 L 141.2044 390.8691 L 141.2044 388.8691 L 141.2044 386.8691 L 141.2044 384.8691 L 141.2044 382.8691 L 141.2044 380.8691 L 141.2044 378.8691 L 141.2044 376.8691 L 141.2044 374.8691 L 141.2044 372.8691 L 141.2044 370.8691 L 140.5203 368.9897 L 139.8363 367.1104 L 139.1523 365.231 L 138.4682 363.3516 L 137.7842 361.4722 L 137.1001 359.5929 L 136.4161 357.7135 L 135.7321 355.8341 L 135.048 353.9547 L 134.364 352.0753 L 133.6799 350.196 L 132.9959 348.3166 L 132.3119 346.4372 L 131.6278 344.5578 L 130.9438 342.6785 L 130.2597 340.7991 L 129.5757 338.9197 L 128.8917 337.0403 L 128.2076 335.1609 L 127.5236 333.2816 L 126.8395 331.4022 L 126.1555 329.5228 L 125.4715 327.6434 L 124.7874 325.764 L 124.1034 323.8846 L 123.4193 322.0053 L 122.7353 320.1259 L 122.0513 318.2465 L 121.3672 316.3671 L 120.6832 314.4878 L 119.9991 312.6084 L 119.3151 310.729 L 118.0295 309.1969 L 116.7439 307.6648 L 115.4584 306.1328 L 114.1728 304.6006 L 112.8872 303.0685 L 111.6016 301.5365 L 110.3161 300.0044 L 109.0305 298.4723 L 107.7449 296.9402 L 106.4593 295.4081 L 105.1738 293.876 L 103.8882 292.3439 L 102.6026 290.8118 L 101.317 289.2798 L 100.0315 287.7477 L 98.7459 286.2156 L 97.01383 285.2156 L 95.28178 284.2156 L 93.54973 283.2156 L 91.81768 282.2156 L 90.08563 281.2156 L 88.35358 280.2156 L 86.62152 279.2156 L 84.88947 278.2156 L 82.91986 277.8683 L 80.95024 277.521 L 78.98062 277.1737 L 77.01101 276.8264 L 75.0414 277.1737 L 73.07178 277.521 L 71.33974 278.521 L 69.60769 279.521 M 73.07178 277.521 L 71.10217 277.8683 L 69.13256 278.2156 L 67.16295 277.8683 L 65.19334 277.521 M 69.13256 278.2156 L 67.40051 279.2156 L 65.66846 280.2156 M 77.01101 276.8264 L 75.0414 276.4791 L 73.07178 276.1318 L 71.10217 275.7845 L 69.13256 275.4373 L 67.40051 274.4373 L 65.66846 273.4373 L 63.69885 273.09 L 61.72924 272.7427 M 65.66846 273.4373 L 63.93642 272.4373 L 62.20437 271.4373 L 60.91879 269.9052 L 59.63322 268.3731 M 62.20437 271.4373 L 60.23475 271.09 L 58.26514 270.7427 M 69.13256 275.4373 L 67.16295 275.7845 L 65.19334 276.1318 L 63.46129 277.1318 L 61.72924 278.1318 M 65.19334 276.1318 L 63.22372 276.4791 L 61.25411 276.8264 L 59.2845 276.4791 L 57.31489 276.1318 M 61.25411 276.8264 L 59.52206 277.8264 L 57.79001 278.8264 M 84.88947 278.2156 L 83.15742 277.2156 L 81.42537 276.2156 L 79.69332 275.2156 L 77.96126 274.2156 L 76.22923 273.2156 L 74.49717 272.2156 L 72.76512 271.2156 L 71.03307 270.2156 L 69.74751 268.6835 L 68.46192 267.1514 L 67.17634 265.6193 L 65.89077 264.0872 L 64.15872 263.0872 L 62.42667 262.0872 L 60.45706 261.7399 L 58.48745 261.3926 M 62.42667 262.0872 L 60.69462 261.0872 L 58.96258 260.0872 L 57.677 258.5551 L 56.39142 257.023 M 58.96258 260.0872 L 56.99296 259.7399 L 55.02335 259.3926 M 65.89077 264.0872 L 64.60519 262.5551 L 63.31962 261.023 L 62.03404 259.491 L 60.74847 257.9589 L 60.06442 256.0795 L 59.38038 254.2001 L 58.0948 252.668 L 56.80923 251.1359 M 59.38038 254.2001 L 58.69633 252.3207 L 58.01229 250.4413 L 58.01229 248.4413 L 58.01229 246.4413 M 58.01229 250.4413 L 56.72672 248.9093 L 55.44114 247.3772 M 60.74847 257.9589 L 59.01642 256.9589 L 57.28437 255.9589 L 55.31476 255.6116 L 53.34514 255.2643 M 57.28437 255.9589 L 55.55232 254.9589 L 53.82027 253.9589 L 52.5347 252.4268 L 51.24912 250.8947 M 53.82027 253.9589 L 51.85066 253.6116 L 49.88105 253.2643 M 71.03307 270.2156 L 69.06346 269.8683 L 67.09385 269.521 L 65.12424 269.1737 L 63.15462 268.8264 L 61.18501 269.1737 L 59.2154 269.521 L 57.48335 270.521 L 55.7513 271.521 M 59.2154 269.521 L 57.24579 269.8683 L 55.27617 270.2156 L 53.30656 269.8683 L 51.33695 269.521 M 55.27617 270.2156 L 53.54413 271.2156 L 51.81208 272.2156 M 63.15462 268.8264 L 61.18501 268.4791 L 59.2154 268.1318 L 57.24579 267.7845 L 55.27617 267.4373 L 53.54413 266.4373 L 51.81208 265.4373 L 49.84247 265.09 L 47.87285 264.7427 M 51.81208 265.4373 L 50.08003 264.4373 L 48.34798 263.4373 L 47.06241 261.9052 L 45.77683 260.3731 M 48.34798 263.4373 L 46.37837 263.09 L 44.40876 262.7427 M 55.27617 267.4373 L 53.30656 267.7845 L 51.33695 268.1318 L 49.6049 269.1318 L 47.87285 270.1318 M 51.33695 268.1318 L 49.36734 268.4791 L 47.39773 268.8264 L 45.42811 268.4791 L 43.4585 268.1318 M 47.39773 268.8264 L 45.66568 269.8264 L 43.93363 270.8264 M 98.7459 286.2156 L 97.46031 284.6835 L 96.17473 283.1514 L 94.88916 281.6193 L 93.60358 280.0872 L 92.31801 278.5551 L 91.03243 277.023 L 89.74686 275.491 L 88.46128 273.9589 L 87.1757 272.4268 L 85.89014 270.8947 L 84.60455 269.3626 L 83.31898 267.8305 L 82.0334 266.2984 L 80.74782 264.7663 L 79.46225 263.2343 L 78.17667 261.7021 L 77.49263 259.8228 L 76.80859 257.9434 L 76.12455 256.064 L 75.4405 254.1846 L 74.75646 252.3053 L 74.07242 250.4259 L 73.38837 248.5465 L 72.70433 246.6671 L 71.41875 245.135 L 70.13318 243.6029 L 68.8476 242.0709 L 67.56203 240.5388 L 65.82998 239.5388 L 64.09793 238.5388 L 62.12832 238.1915 L 60.15871 237.8442 M 64.09793 238.5388 L 62.36588 237.5388 L 60.63383 236.5388 L 59.34826 235.0067 L 58.06268 233.4746 M 60.63383 236.5388 L 58.66422 236.1915 L 56.69461 235.8442 M 67.56203 240.5388 L 66.27645 239.0067 L 64.99088 237.4746 L 63.7053 235.9426 L 62.41972 234.4105 L 61.73568 232.5311 L 61.05163 230.6517 L 59.76606 229.1196 L 58.48048 227.5876 M 61.05163 230.6517 L 60.36759 228.7723 L 59.68355 226.8929 L 59.68355 224.8929 L 59.68355 222.8929 M 59.68355 226.8929 L 58.39797 225.3608 L 57.11239 223.8288 M 62.41972 234.4105 L 60.68767 233.4105 L 58.95564 232.4105 L 56.98601 232.0632 L 55.0164 231.7159 M 58.95564 232.4105 L 57.22358 231.4105 L 55.49153 230.4105 L 54.20595 228.8784 L 52.92038 227.3463 M 55.49153 230.4105 L 53.52192 230.0632 L 51.55231 229.7159 M 72.70433 246.6671 L 72.02029 244.7877 L 71.33624 242.9084 L 70.6522 241.029 L 69.96815 239.1496 L 69.28411 237.2702 L 68.60007 235.3908 L 67.91602 233.5114 L 67.23198 231.632 L 67.23198 229.632 L 67.23198 227.632 L 67.23198 225.632 L 67.23198 223.632 L 66.54793 221.7526 L 65.86389 219.8732 L 64.57831 218.3411 L 63.29274 216.8091 M 65.86389 219.8732 L 65.17985 217.9938 L 64.4958 216.1144 L 64.4958 214.1144 L 64.4958 212.1144 M 64.4958 216.1144 L 63.21023 214.5823 L 61.92465 213.0503 M 67.23198 223.632 L 67.23198 221.632 L 67.23198 219.632 L 67.23198 217.632 L 67.23198 215.632 L 67.91602 213.7526 L 68.60007 211.8732 L 68.60007 209.8732 L 68.60007 207.8732 M 68.60007 211.8732 L 69.28411 209.9938 L 69.96815 208.1144 L 71.25373 206.5823 L 72.53931 205.0503 M 69.96815 208.1144 L 69.96815 206.1144 L 69.96815 204.1144 M 67.23198 215.632 L 66.54793 213.7526 L 65.86389 211.8732 L 64.57831 210.3411 L 63.29274 208.8091 M 65.86389 211.8732 L 65.17985 209.9938 L 64.4958 208.1144 L 64.4958 206.1144 L 64.4958 204.1144 M 64.4958 208.1144 L 63.21023 206.5823 L 61.92465 205.0503 M 67.23198 231.632 L 65.9464 230.0999 L 64.66084 228.5678 L 63.37525 227.0358 L 62.08967 225.5037 L 60.35763 224.5037 L 58.62558 223.5037 L 56.65597 223.1564 L 54.68635 222.8091 M 58.62558 223.5037 L 56.89353 222.5037 L 55.16148 221.5037 L 53.87591 219.9716 L 52.59033 218.4395 M 55.16148 221.5037 L 53.19187 221.1564 L 51.22226 220.8091 M 62.08967 225.5037 L 60.8041 223.9716 L 59.51852 222.4395 L 58.23295 220.9075 L 56.94737 219.3754 L 56.26333 217.496 L 55.57928 215.6166 L 54.29371 214.0845 L 53.00813 212.5525 M 55.57928 215.6166 L 54.89524 213.7372 L 54.2112 211.8578 L 54.2112 209.8578 L 54.2112 207.8578 M 54.2112 211.8578 L 52.92562 210.3257 L 51.64005 208.7937 M 56.94737 219.3754 L 55.21532 218.3754 L 53.48327 217.3754 L 51.51366 217.0281 L 49.54405 216.6808 M 53.48327 217.3754 L 51.75123 216.3754 L 50.01918 215.3754 L 48.7336 213.8433 L 47.44803 212.3112 M 50.01918 215.3754 L 48.04957 215.0281 L 46.07995 214.6808 M 78.17667 261.7021 L 76.44462 260.7021 L 74.71258 259.7021 L 72.98053 258.7021 L 71.24848 257.7021 L 69.51643 256.7021 L 67.78438 255.7021 L 66.05235 254.7021 L 64.32029 253.7021 L 62.35069 253.3549 L 60.38106 253.0076 L 58.41145 252.6603 L 56.44184 252.313 L 54.47223 252.6603 L 52.50262 253.0076 L 50.77057 254.0076 L 49.03852 255.0076 M 52.50262 253.0076 L 50.533 253.3549 L 48.56339 253.7021 L 46.59378 253.3549 L 44.62417 253.0076 M 48.56339 253.7021 L 46.83134 254.7021 L 45.0993 255.7021 M 56.44184 252.313 L 54.47223 251.9657 L 52.50262 251.6184 L 50.533 251.2711 L 48.56339 250.9238 L 46.83134 249.9238 L 45.0993 248.9238 L 43.12968 248.5765 L 41.16007 248.2292 M 45.0993 248.9238 L 43.36725 247.9238 L 41.6352 246.9238 L 40.34962 245.3917 L 39.06405 243.8596 M 41.6352 246.9238 L 39.66559 246.5765 L 37.69597 246.2292 M 48.56339 250.9238 L 46.59378 251.2711 L 44.62417 251.6184 L 42.89212 252.6184 L 41.16007 253.6184 M 44.62417 251.6184 L 42.65455 251.9657 L 40.68494 252.313 L 38.71533 251.9657 L 36.74572 251.6184 M 40.68494 252.313 L 38.95289 253.313 L 37.22085 254.313 M 64.32029 253.7021 L 62.58824 252.7021 L 60.85619 251.7021 L 59.12414 250.7021 L 57.39211 249.7021 L 55.66005 248.7021 L 53.928 247.7021 L 52.19595 246.7021 L 50.4639 245.7021 L 49.17833 244.1701 L 47.89275 242.638 L 46.60718 241.1059 L 45.3216 239.5738 L 43.58955 238.5738 L 41.8575 237.5738 L 39.88789 237.2265 L 37.91828 236.8792 M 41.8575 237.5738 L 40.12546 236.5738 L 38.39341 235.5738 L 37.10783 234.0417 L 35.82226 232.5097 M 38.39341 235.5738 L 36.42381 235.2265 L 34.45418 234.8792 M 45.3216 239.5738 L 44.03602 238.0417 L 42.75045 236.5097 L 41.46487 234.9776 L 40.1793 233.4455 L 39.49525 231.5661 L 38.81121 229.6867 L 37.52563 228.1547 L 36.24006 226.6226 M 38.81121 229.6867 L 38.12717 227.8073 L 37.44312 225.9279 L 37.44312 223.9279 L 37.44312 221.9279 M 37.44312 225.9279 L 36.15755 224.3959 L 34.87197 222.8638 M 40.1793 233.4455 L 38.44725 232.4455 L 36.7152 231.4455 L 34.74559 231.0982 L 32.77598 230.7509 M 36.7152 231.4455 L 34.98315 230.4455 L 33.2511 229.4455 L 31.96553 227.9135 L 30.67995 226.3814 M 33.2511 229.4455 L 31.28149 229.0982 L 29.31188 228.7509 M 50.4639 245.7021 L 48.49429 245.3549 L 46.52468 245.0076 L 44.55507 244.6603 L 42.58546 244.313 L 40.61584 244.6603 L 38.64623 245.0076 L 36.91418 246.0076 L 35.18214 247.0076 M 38.64623 245.0076 L 36.67662 245.3549 L 34.70701 245.7021 L 32.73739 245.3549 L 30.76778 245.0076 M 34.70701 245.7021 L 32.97496 246.7021 L 31.24291 247.7021 M 42.58546 244.313 L 40.61584 243.9657 L 38.64623 243.6184 L 36.67662 243.2711 L 34.70701 242.9238 L 32.97496 241.9238 L 31.24291 240.9238 L 29.2733 240.5765 L 27.30369 240.2292 M 31.24291 240.9238 L 29.51086 239.9238 L 27.77881 238.9238 L 26.49324 237.3918 L 25.20766 235.8597 M 27.77881 238.9238 L 25.8092 238.5765 L 23.83959 238.2292 M 34.70701 242.9238 L 32.73739 243.2711 L 30.76778 243.6184 L 29.03573 244.6184 L 27.30369 245.6184 M 30.76778 243.6184 L 28.79817 243.9657 L 26.82856 244.313 L 24.85895 243.9657 L 22.88933 243.6184 M 26.82856 244.313 L 25.09651 245.313 L 23.36446 246.313 M 119.3151 310.729 L 118.6311 308.8496 L 117.947 306.9702 L 117.263 305.0909 L 116.5789 303.2115 L 115.8949 301.3321 L 115.2109 299.4527 L 114.5268 297.5734 L 113.8428 295.694 L 113.1587 293.8146 L 112.4747 291.9352 L 111.7907 290.0558 L 111.1066 288.1765 L 110.4226 286.2971 L 109.7385 284.4177 L 109.0545 282.5383 L 108.3705 280.6589 L 107.6864 278.7795 L 107.0024 276.9002 L 106.3183 275.0208 L 105.6343 273.1414 L 104.9503 271.262 L 104.2662 269.3827 L 103.5822 267.5033 L 102.8981 265.6239 L 102.2141 263.7445 L 101.5301 261.8651 L 100.846 259.9858 L 100.162 258.1064 L 99.47794 256.227 L 98.7939 254.3476 L 98.10986 252.4682 L 97.42583 250.5889 L 97.42583 248.5889 L 97.42583 246.5889 L 97.42583 244.5889 L 97.42583 242.5889 L 97.42583 240.5889 L 97.42583 238.5889 L 97.42583 236.5889 L 97.42583 234.5889 L 97.42583 232.5889 L 97.42583 230.5889 L 97.42583 228.5889 L 97.42583 226.5889 L 97.42583 224.5889 L 97.42583 222.5889 L 97.42583 220.5889 L 97.42583 218.5889 L 96.74178 216.7095 L 96.05774 214.8301 L 95.3737 212.9507 L 94.68967 211.0713 L 94.00562 209.1919 L 93.32158 207.3125 L 92.63754 205.4331 L 91.95351 203.5537 L 90.66792 202.0216 L 89.38235 200.4896 L 88.09677 198.9575 L 86.81119 197.4254 L 85.07914 196.4254 L 83.34709 195.4254 L 81.37747 195.0781 L 79.40786 194.7308 M 83.34709 195.4254 L 81.61504 194.4254 L 79.883 193.4254 L 78.59741 191.8933 L 77.31183 190.3613 M 79.883 193.4254 L 77.91338 193.0781 L 75.94375 192.7308 M 86.81119 197.4254 L 85.52562 195.8933 L 84.24004 194.3613 L 82.95447 192.8292 L 81.66889 191.2971 L 80.98485 189.4177 L 80.30081 187.5383 L 79.01523 186.0063 L 77.72966 184.4742 M 80.30081 187.5383 L 79.61678 185.6589 L 78.93273 183.7795 L 78.93273 181.7795 L 78.93273 179.7795 M 78.93273 183.7795 L 77.64716 182.2475 L 76.36158 180.7154 M 81.66889 191.2971 L 79.93684 190.2971 L 78.20479 189.2971 L 76.23517 188.9498 L 74.26556 188.6025 M 78.20479 189.2971 L 76.47274 188.2971 L 74.74069 187.2971 L 73.45511 185.765 L 72.16954 184.233 M 74.74069 187.2971 L 72.77108 186.9498 L 70.80147 186.6025 M 91.95351 203.5537 L 91.26946 201.6743 L 90.58542 199.7949 L 89.90138 197.9155 L 89.21735 196.0361 L 88.5333 194.1567 L 87.84926 192.2773 L 87.16522 190.3979 L 86.48119 188.5186 L 86.48119 186.5186 L 86.48119 184.5186 L 86.48119 182.5186 L 86.48119 180.5186 L 85.79714 178.6392 L 85.1131 176.7598 L 83.82752 175.2277 L 82.54195 173.6956 M 85.1131 176.7598 L 84.42906 174.8804 L 83.74503 173.001 L 83.74503 171.001 L 83.74503 169.001 M 83.74503 173.001 L 82.45944 171.4689 L 81.17386 169.9368 M 86.48119 180.5186 L 86.48119 178.5186 L 86.48119 176.5186 L 86.48119 174.5186 L 86.48119 172.5186 L 87.16522 170.6392 L 87.84926 168.7598 L 87.84926 166.7598 L 87.84926 164.7598 M 87.84926 168.7598 L 88.5333 166.8804 L 89.21735 165.001 L 90.50291 163.4689 L 91.78849 161.9368 M 89.21735 165.001 L 89.21735 163.001 L 89.21735 161.001 M 86.48119 172.5186 L 85.79714 170.6392 L 85.1131 168.7598 L 83.82752 167.2277 L 82.54195 165.6956 M 85.1131 168.7598 L 84.42906 166.8804 L 83.74503 165.001 L 83.74503 163.001 L 83.74503 161.001 M 83.74503 165.001 L 82.45944 163.4689 L 81.17386 161.9368 M 86.48119 188.5186 L 85.1956 186.9865 L 83.91003 185.4544 L 82.62445 183.9223 L 81.33887 182.3903 L 79.60683 181.3903 L 77.87477 180.3903 L 75.90516 180.043 L 73.93555 179.6957 M 77.87477 180.3903 L 76.14272 179.3903 L 74.41068 178.3903 L 73.1251 176.8582 L 71.83952 175.3261 M 74.41068 178.3903 L 72.44106 178.043 L 70.47145 177.6957 M 81.33887 182.3903 L 80.0533 180.8582 L 78.76772 179.3261 L 77.48215 177.794 L 76.19657 176.262 L 75.51254 174.3826 L 74.82848 172.5032 L 73.54291 170.9711 L 72.25733 169.439 M 74.82848 172.5032 L 74.14444 170.6238 L 73.46039 168.7444 L 73.46039 166.7444 L 73.46039 164.7444 M 73.46039 168.7444 L 72.17482 167.2123 L 70.88924 165.6802 M 76.19657 176.262 L 74.46452 175.262 L 72.73248 174.262 L 70.76286 173.9147 L 68.79325 173.5674 M 72.73248 174.262 L 71.00043 173.262 L 69.26838 172.262 L 67.9828 170.7299 L 66.69724 169.1978 M 69.26838 172.262 L 67.29877 171.9147 L 65.32915 171.5674 M 97.42583 218.5889 L 97.42583 216.5889 L 97.42583 214.5889 L 97.42583 212.5889 L 97.42583 210.5889 L 97.42583 208.5889 L 97.42583 206.5889 L 97.42583 204.5889 L 97.42583 202.5889 L 97.42583 200.5889 L 97.42583 198.5889 L 97.42583 196.5889 L 97.42583 194.5889 L 97.42583 192.5889 L 97.42583 190.5889 L 97.42583 188.5889 L 97.42583 186.5889 L 98.10986 184.7095 L 98.7939 182.8301 L 99.47794 180.9507 L 100.162 179.0713 L 100.846 177.1919 L 101.5301 175.3125 L 102.2141 173.4331 L 102.8981 171.5537 L 102.8981 169.5537 L 102.8981 167.5537 L 102.8981 165.5537 L 102.8981 163.5537 L 102.2141 161.6743 L 101.5301 159.7949 L 100.2445 158.2628 L 98.95891 156.7308 M 101.5301 159.7949 L 100.846 157.9155 L 100.162 156.0361 L 100.162 154.0361 L 100.162 152.0361 M 100.162 156.0361 L 98.8764 154.5041 L 97.59084 152.972 M 102.8981 163.5537 L 102.8981 161.5537 L 102.8981 159.5537 L 102.8981 157.5537 L 102.8981 155.5537 L 103.5822 153.6743 L 104.2662 151.7949 L 104.2662 149.7949 L 104.2662 147.7949 M 104.2662 151.7949 L 104.9503 149.9155 L 105.6343 148.0361 L 106.9199 146.5041 L 108.2055 144.972 M 105.6343 148.0361 L 105.6343 146.0361 L 105.6343 144.0361 M 102.8981 155.5537 L 102.2141 153.6743 L 101.5301 151.7949 L 100.2445 150.2628 L 98.95891 148.7308 M 101.5301 151.7949 L 100.846 149.9155 L 100.162 148.0361 L 100.162 146.0361 L 100.162 144.0361 M 100.162 148.0361 L 98.8764 146.5041 L 97.59084 144.972 M 102.8981 171.5537 L 103.5822 169.6743 L 104.2662 167.7949 L 104.9503 165.9155 L 105.6343 164.0361 L 106.3183 162.1567 L 107.0024 160.2773 L 107.6864 158.3979 L 108.3705 156.5186 L 109.656 154.9865 L 110.9416 153.4544 L 112.2272 151.9223 L 113.5128 150.3903 L 114.1968 148.5109 L 114.8808 146.6315 L 114.8808 144.6315 L 114.8808 142.6315 M 114.8808 146.6315 L 115.5649 144.7521 L 116.2489 142.8727 L 117.5345 141.3406 L 118.8201 139.8085 M 116.2489 142.8727 L 116.2489 140.8727 L 116.2489 138.8727 M 113.5128 150.3903 L 114.7983 148.8582 L 116.0839 147.3261 L 117.3695 145.794 L 118.6551 144.262 L 120.3871 143.262 L 122.1192 142.262 L 123.4047 140.7299 L 124.6903 139.1978 M 122.1192 142.262 L 123.8512 141.262 L 125.5833 140.262 L 127.5529 139.9147 L 129.5225 139.5674 M 125.5833 140.262 L 126.8688 138.7299 L 128.1544 137.1978 M 118.6551 144.262 L 119.3391 142.3826 L 120.0231 140.5032 L 120.0231 138.5032 L 120.0231 136.5032 M 120.0231 140.5032 L 120.7072 138.6238 L 121.3912 136.7444 L 122.6768 135.2123 L 123.9624 133.6802 M 121.3912 136.7444 L 121.3912 134.7444 L 121.3912 132.7444 M 108.3705 156.5186 L 108.3705 154.5186 L 108.3705 152.5186 L 108.3705 150.5186 L 108.3705 148.5186 L 107.6864 146.6392 L 107.0024 144.7598 L 105.7168 143.2277 L 104.4312 141.6956 M 107.0024 144.7598 L 106.3183 142.8804 L 105.6343 141.001 L 105.6343 139.001 L 105.6343 137.001 M 105.6343 141.001 L 104.3487 139.4689 L 103.0632 137.9368 M 108.3705 148.5186 L 108.3705 146.5186 L 108.3705 144.5186 L 108.3705 142.5186 L 108.3705 140.5186 L 109.0545 138.6392 L 109.7385 136.7598 L 109.7385 134.7598 L 109.7385 132.7598 M 109.7385 136.7598 L 110.4226 134.8804 L 111.1066 133.001 L 112.3922 131.4689 L 113.6778 129.9368 M 111.1066 133.001 L 111.1066 131.001 L 111.1066 129.001 M 108.3705 140.5186 L 107.6864 138.6392 L 107.0024 136.7598 L 105.7168 135.2277 L 104.4312 133.6956 M 107.0024 136.7598 L 106.3183 134.8804 L 105.6343 133.001 L 105.6343 131.001 L 105.6343 129.001 M 105.6343 133.001 L 104.3487 131.4689 L 103.0632 129.9368 M 97.42583 186.5889 L 96.74178 184.7095 L 96.05774 182.8301 L 95.3737 180.9507 L 94.68967 179.0713 L 94.00562 177.1919 L 93.32158 175.3125 L 92.63754 173.4331 L 91.95351 171.5537 L 90.66792 170.0216 L 89.38235 168.4896 L 88.09677 166.9575 L 86.81119 165.4254 L 85.07914 164.4254 L 83.34709 163.4254 L 81.37747 163.0781 L 79.40786 162.7308 M 83.34709 163.4254 L 81.61504 162.4254 L 79.883 161.4254 L 78.59741 159.8933 L 77.31183 158.3613 M 79.883 161.4254 L 77.91338 161.0781 L 75.94375 160.7308 M 86.81119 165.4254 L 85.52562 163.8933 L 84.24004 162.3613 L 82.95447 160.8292 L 81.66889 159.2971 L 80.98485 157.4177 L 80.30081 155.5383 L 79.01523 154.0063 L 77.72966 152.4742 M 80.30081 155.5383 L 79.61678 153.6589 L 78.93273 151.7795 L 78.93273 149.7795 L 78.93273 147.7795 M 78.93273 151.7795 L 77.64716 150.2475 L 76.36158 148.7154 M 81.66889 159.2971 L 79.93684 158.2971 L 78.20479 157.2971 L 76.23517 156.9498 L 74.26556 156.6025 M 78.20479 157.2971 L 76.47274 156.2971 L 74.74069 155.2971 L 73.45511 153.765 L 72.16954 152.233 M 74.74069 155.2971 L 72.77108 154.9498 L 70.80147 154.6025 M 91.95351 171.5537 L 91.26946 169.6743 L 90.58542 167.7949 L 89.90138 165.9155 L 89.21735 164.0361 L 88.5333 162.1567 L 87.84926 160.2773 L 87.16522 158.3979 L 86.48119 156.5186 L 86.48119 154.5186 L 86.48119 152.5186 L 86.48119 150.5186 L 86.48119 148.5186 L 85.79714 146.6392 L 85.1131 144.7598 L 83.82752 143.2277 L 82.54195 141.6956 M 85.1131 144.7598 L 84.42906 142.8804 L 83.74503 141.001 L 83.74503 139.001 L 83.74503 137.001 M 83.74503 141.001 L 82.45944 139.4689 L 81.17386 137.9368 M 86.48119 148.5186 L 86.48119 146.5186 L 86.48119 144.5186 L 86.48119 142.5186 L 86.48119 140.5186 L 87.16522 138.6392 L 87.84926 136.7598 L 87.84926 134.7598 L 87.84926 132.7598 M 87.84926 136.7598 L 88.5333 134.8804 L 89.21735 133.001 L 90.50291 131.4689 L 91.78849 129.9368 M 89.21735 133.001 L 89.21735 131.001 L 89.21735 129.001 M 86.48119 140.5186 L 85.79714 138.6392 L 85.1131 136.7598 L 83.82752 135.2277 L 82.54195 133.6956 M 85.1131 136.7598 L 84.42906 134.8804 L 83.74503 133.001 L 83.74503 131.001 L 83.74503 129.001 M 83.74503 133.001 L 82.45944 131.4689 L 81.17386 129.9368 M 86.48119 156.5186 L 85.1956 154.9865 L 83.91003 153.4544 L 82.62445 151.9223 L 81.33887 150.3903 L 79.60683 149.3903 L 77.87477 148.3903 L 75.90516 148.043 L 73.93555 147.6957 M 77.87477 148.3903 L 76.14272 147.3903 L 74.41068 146.3903 L 73.1251 144.8582 L 71.83952 143.3261 M 74.41068 146.3903 L 72.44106 146.043 L 70.47145 145.6957 M 81.33887 150.3903 L 80.0533 148.8582 L 78.76772 147.3261 L 77.48215 145.794 L 76.19657 144.262 L 75.51254 142.3826 L 74.82848 140.5032 L 73.54291 138.9711 L 72.25733 137.439 M 74.82848 140.5032 L 74.14444 138.6238 L 73.46039 136.7444 L 73.46039 134.7444 L 73.46039 132.7444 M 73.46039 136.7444 L 72.17482 135.2123 L 70.88924 133.6802 M 76.19657 144.262 L 74.46452 143.262 L 72.73248 142.262 L 70.76286 141.9147 L 68.79325 141.5674 M 72.73248 142.262 L 71.00043 141.262 L 69.26838 140.262 L 67.9828 138.7299 L 66.69724 137.1978 M 69.26838 140.262 L 67.29877 139.9147 L 65.32915 139.5674 M 97.42583 250.5889 L 96.14024 249.0568 L 94.85468 247.5247 L 93.56909 245.9926 L 92.28351 244.4605 L 90.99794 242.9284 L 89.71236 241.3963 L 88.42679 239.8643 L 87.14121 238.3322 L 85.85564 236.8001 L 84.57006 235.268 L 83.28448 233.736 L 81.99892 232.2039 L 80.71333 230.6718 L 79.42776 229.1397 L 78.14218 227.6077 L 76.8566 226.0756 L 75.12457 225.0756 L 73.39251 224.0756 L 71.66046 223.0756 L 69.92841 222.0756 L 68.19636 221.0756 L 66.46432 220.0756 L 64.73227 219.0756 L 63.00022 218.0756 L 61.03061 217.7283 L 59.061 217.381 L 57.09138 217.0337 L 55.12177 216.6864 L 53.15216 217.0337 L 51.18255 217.381 L 49.4505 218.381 L 47.71845 219.381 M 51.18255 217.381 L 49.21293 217.7283 L 47.24332 218.0756 L 45.27371 217.7283 L 43.3041 217.381 M 47.24332 218.0756 L 45.51127 219.0756 L 43.77923 220.0756 M 55.12177 216.6864 L 53.15216 216.3391 L 51.18255 215.9919 L 49.21293 215.6446 L 47.24332 215.2973 L 45.51127 214.2973 L 43.77923 213.2973 L 41.80961 212.95 L 39.84 212.6027 M 43.77923 213.2973 L 42.04718 212.2973 L 40.31513 211.2973 L 39.02955 209.7652 L 37.74398 208.2331 M 40.31513 211.2973 L 38.34552 210.95 L 36.37591 210.6027 M 47.24332 215.2973 L 45.27371 215.6446 L 43.3041 215.9919 L 41.57205 216.9919 L 39.84 217.9919 M 43.3041 215.9919 L 41.33449 216.3391 L 39.36487 216.6864 L 37.39526 216.3391 L 35.42565 215.9919 M 39.36487 216.6864 L 37.63283 217.6864 L 35.90078 218.6864 M 63.00022 218.0756 L 61.26817 217.0756 L 59.53613 216.0756 L 57.80408 215.0756 L 56.07203 214.0756 L 54.33998 213.0756 L 52.60793 212.0756 L 50.87589 211.0756 L 49.14384 210.0756 L 47.85826 208.5435 L 46.57269 207.0114 L 45.28711 205.4794 L 44.00153 203.9473 L 42.26948 202.9473 L 40.53745 201.9473 L 38.56782 201.6 L 36.59821 201.2527 M 40.53745 201.9473 L 38.80539 200.9473 L 37.07334 199.9473 L 35.78776 198.4152 L 34.50219 196.8831 M 37.07334 199.9473 L 35.10373 199.6 L 33.13412 199.2527 M 44.00153 203.9473 L 42.71597 202.4152 L 41.43038 200.8831 L 40.1448 199.3511 L 38.85923 197.819 L 38.17518 195.9396 L 37.49114 194.0602 L 36.20556 192.5281 L 34.91999 190.9961 M 37.49114 194.0602 L 36.8071 192.1808 L 36.12305 190.3014 L 36.12305 188.3014 L 36.12305 186.3014 M 36.12305 190.3014 L 34.83748 188.7693 L 33.5519 187.2373 M 38.85923 197.819 L 37.12718 196.819 L 35.39513 195.819 L 33.42552 195.4717 L 31.45591 195.1244 M 35.39513 195.819 L 33.66308 194.819 L 31.93104 193.819 L 30.64546 192.2869 L 29.35988 190.7549 M 31.93104 193.819 L 29.96142 193.4717 L 27.99181 193.1244 M 49.14384 210.0756 L 47.17422 209.7283 L 45.20461 209.381 L 43.235 209.0337 L 41.26539 208.6864 L 39.29577 209.0337 L 37.32616 209.381 L 35.59411 210.381 L 33.86207 211.381 M 37.32616 209.381 L 35.35655 209.7283 L 33.38694 210.0756 L 31.41733 209.7283 L 29.44771 209.381 M 33.38694 210.0756 L 31.65489 211.0756 L 29.92284 212.0756 M 41.26539 208.6864 L 39.29577 208.3391 L 37.32616 207.9919 L 35.35655 207.6446 L 33.38694 207.2973 L 31.65489 206.2973 L 29.92284 205.2973 L 27.95323 204.95 L 25.98362 204.6027 M 29.92284 205.2973 L 28.19079 204.2973 L 26.45875 203.2973 L 25.17317 201.7652 L 23.88759 200.2331 M 26.45875 203.2973 L 24.48913 202.95 L 22.51952 202.6027 M 33.38694 207.2973 L 31.41733 207.6446 L 29.44771 207.9919 L 27.71567 208.9919 L 25.98362 209.9919 M 29.44771 207.9919 L 27.4781 208.3391 L 25.50849 208.6864 L 23.53888 208.3391 L 21.56927 207.9919 M 25.50849 208.6864 L 23.77644 209.6864 L 22.04439 210.6864 M 76.8566 226.0756 L 75.57103 224.5435 L 74.28545 223.0114 L 72.99988 221.4794 L 71.7143 219.9473 L 70.42872 218.4152 L 69.14315 216.8831 L 67.85757 215.3511 L 66.572 213.819 L 65.28642 212.2869 L 64.00085 210.7549 L 62.71527 209.2228 L 61.4297 207.6907 L 60.14412 206.1586 L 58.85854 204.6266 L 57.57298 203.0945 L 56.28739 201.5624 L 55.60335 199.683 L 54.9193 197.8036 L 54.23526 195.9242 L 53.55121 194.0448 L 52.86717 192.1654 L 52.18313 190.286 L 51.49908 188.4066 L 50.81504 186.5273 L 49.52946 184.9952 L 48.24389 183.4631 L 46.95831 181.931 L 45.67274 180.399 L 43.94069 179.399 L 42.20864 178.399 L 40.23903 178.0517 L 38.26942 177.7044 M 42.20864 178.399 L 40.47659 177.399 L 38.74454 176.399 L 37.45897 174.8669 L 36.17339 173.3348 M 38.74454 176.399 L 36.77493 176.0517 L 34.80532 175.7044 M 45.67274 180.399 L 44.38716 178.8669 L 43.10158 177.3348 L 41.81601 175.8027 L 40.53043 174.2707 L 39.84639 172.3913 L 39.16234 170.5119 L 37.87677 168.9798 L 36.59119 167.4477 M 39.16234 170.5119 L 38.4783 168.6325 L 37.79426 166.7531 L 37.79426 164.7531 L 37.79426 162.7531 M 37.79426 166.7531 L 36.50868 165.221 L 35.2231 163.6889 M 40.53043 174.2707 L 38.79838 173.2707 L 37.06635 172.2707 L 35.09672 171.9234 L 33.12711 171.5761 M 37.06635 172.2707 L 35.33429 171.2707 L 33.60224 170.2707 L 32.31666 168.7386 L 31.03109 167.2065 M 33.60224 170.2707 L 31.63263 169.9234 L 29.66302 169.5761 M 50.81504 186.5273 L 50.131 184.6479 L 49.44695 182.7685 L 48.76291 180.8891 L 48.07887 179.0097 L 47.39482 177.1303 L 46.71078 175.2509 L 46.02673 173.3715 L 45.34269 171.4921 L 45.34269 169.4921 L 45.34269 167.4921 L 45.34269 165.4921 L 45.34269 163.4921 L 44.65864 161.6127 L 43.9746 159.7333 L 42.68902 158.2012 L 41.40345 156.6692 M 43.9746 159.7333 L 43.29056 157.8539 L 42.60651 155.9745 L 42.60651 153.9745 L 42.60651 151.9745 M 42.60651 155.9745 L 41.32094 154.4424 L 40.03536 152.9104 M 45.34269 163.4921 L 45.34269 161.4921 L 45.34269 159.4921 L 45.34269 157.4921 L 45.34269 155.4921 L 46.02673 153.6127 L 46.71078 151.7333 L 46.71078 149.7333 L 46.71078 147.7333 M 46.71078 151.7333 L 47.39482 149.8539 L 48.07887 147.9745 L 49.36444 146.4424 L 50.65002 144.9104 M 48.07887 147.9745 L 48.07887 145.9745 L 48.07887 143.9745 M 45.34269 155.4921 L 44.65864 153.6127 L 43.9746 151.7333 L 42.68902 150.2012 L 41.40345 148.6692 M 43.9746 151.7333 L 43.29056 149.8539 L 42.60651 147.9745 L 42.60651 145.9745 L 42.60651 143.9745 M 42.60651 147.9745 L 41.32094 146.4424 L 40.03536 144.9104 M 45.34269 171.4921 L 44.05711 169.96 L 42.77154 168.4279 L 41.48596 166.8959 L 40.20038 165.3638 L 38.46834 164.3638 L 36.73629 163.3638 L 34.76668 163.0165 L 32.79706 162.6692 M 36.73629 163.3638 L 35.00424 162.3638 L 33.27219 161.3638 L 31.98662 159.8317 L 30.70104 158.2997 M 33.27219 161.3638 L 31.30258 161.0165 L 29.33297 160.6692 M 40.20038 165.3638 L 38.91481 163.8317 L 37.62923 162.2997 L 36.34366 160.7676 L 35.05808 159.2355 L 34.37404 157.3561 L 33.68999 155.4767 L 32.40442 153.9446 L 31.11884 152.4126 M 33.68999 155.4767 L 33.00595 153.5973 L 32.32191 151.7179 L 32.32191 149.7179 L 32.32191 147.7179 M 32.32191 151.7179 L 31.03633 150.1859 L 29.75075 148.6538 M 35.05808 159.2355 L 33.32603 158.2355 L 31.59399 157.2355 L 29.62437 156.8882 L 27.65476 156.5409 M 31.59399 157.2355 L 29.86194 156.2355 L 28.12989 155.2355 L 26.84431 153.7034 L 25.55874 152.1714 M 28.12989 155.2355 L 26.16028 154.8882 L 24.19066 154.5409 M 56.28739 201.5624 L 54.55534 200.5624 L 52.82329 199.5624 L 51.09126 198.5624 L 49.3592 197.5624 L 47.62715 196.5624 L 45.8951 195.5624 L 44.16305 194.5624 L 42.43102 193.5624 L 40.4614 193.2151 L 38.49178 192.8678 L 36.52217 192.5205 L 34.55256 192.1732 L 32.58295 192.5205 L 30.61333 192.8678 L 28.88129 193.8678 L 27.14924 194.8678 M 30.61333 192.8678 L 28.64372 193.2151 L 26.67411 193.5624 L 24.7045 193.2151 L 22.73488 192.8678 M 26.67411 193.5624 L 24.94206 194.5624 L 23.21001 195.5624 M 34.55256 192.1732 L 32.58295 191.826 L 30.61333 191.4787 L 28.64372 191.1314 L 26.67411 190.7841 L 24.94206 189.7841 L 23.21001 188.7841 L 21.2404 188.4368 L 19.27079 188.0895 M 23.21001 188.7841 L 21.47796 187.7841 L 19.74592 186.7841 L 18.46034 185.252 L 17.17477 183.7199 M 19.74592 186.7841 L 17.7763 186.4368 L 15.80669 186.0895 M 26.67411 190.7841 L 24.7045 191.1314 L 22.73488 191.4787 L 21.00284 192.4787 L 19.27079 193.4787 M 22.73488 191.4787 L 20.76527 191.826 L 18.79566 192.1732 L 16.82605 191.826 L 14.85644 191.4787 M 18.79566 192.1732 L 17.06361 193.1732 L 15.33156 194.1732 M 42.43102 193.5624 L 40.69896 192.5624 L 38.96691 191.5624 L 37.23486 190.5624 L 35.50282 189.5624 L 33.77077 188.5624 L 32.03872 187.5624 L 30.30667 186.5624 L 28.57462 185.5624 L 27.28905 184.0303 L 26.00347 182.4983 L 24.71789 180.9662 L 23.43232 179.4341 L 21.70027 178.4341 L 19.96822 177.4341 L 17.99861 177.0868 L 16.029 176.7395 M 19.96822 177.4341 L 18.23617 176.4341 L 16.50414 175.4341 L 15.21855 173.902 L 13.93297 172.37 M 16.50414 175.4341 L 14.53451 175.0868 L 12.5649 174.7395 M 23.43232 179.4341 L 22.14674 177.902 L 20.86117 176.37 L 19.57559 174.8379 L 18.29001 173.3058 L 17.60597 171.4264 L 16.92193 169.547 L 15.63635 168.015 L 14.35078 166.4829 M 16.92193 169.547 L 16.23788 167.6676 L 15.55384 165.7882 L 15.55384 163.7882 L 15.55384 161.7882 M 15.55384 165.7882 L 14.26826 164.2562 L 12.9827 162.7241 M 18.29001 173.3058 L 16.55797 172.3058 L 14.82592 171.3058 L 12.85631 170.9585 L 10.88669 170.6112 M 14.82592 171.3058 L 13.09387 170.3058 L 11.36182 169.3058 L 10.07625 167.7737 L 8.79068 166.2417 M 11.36182 169.3058 L 9.392197 168.9585 L 7.422577 168.6112 M 28.57462 185.5624 L 26.60501 185.2151 L 24.6354 184.8678 L 22.66579 184.5205 L 20.69617 184.1732 L 18.72656 184.5205 L 16.75695 184.8678 L 15.0249 185.8678 L 13.29285 186.8678 M 16.75695 184.8678 L 14.78734 185.2151 L 12.81772 185.5624 L 10.8481 185.2151 L 8.878479 184.8678 M 12.81772 185.5624 L 11.08566 186.5624 L 9.353607 187.5624 M 20.69617 184.1732 L 18.72656 183.826 L 16.75695 183.4787 L 14.78734 183.1314 L 12.81772 182.7841 L 11.08566 181.7841 L 9.353607 180.7841 L 7.383987 180.4368 L 5.414368 180.0895 M 9.353607 180.7841 L 7.621552 179.7841 L 5.889496 178.7841 L 4.603928 177.252 L 3.318359 175.7199 M 5.889496 178.7841 L 3.919876 178.4368 L 1.950256 178.0895 M 12.81772 182.7841 L 10.8481 183.1314 L 8.878479 183.4787 L 7.146423 184.4787 L 5.414368 185.4787 M 8.878479 183.4787 L 6.908859 183.826 L 4.93924 184.1732 L 2.96962 183.826 L 1 183.4787 M 4.93924 184.1732 L 3.207184 185.1732 L 1.475128 186.1732 M 141.2044 370.8691 L 141.2044 368.8691 L 141.2044 366.8691 L 141.2044 364.8691 L 141.2044 362.8691 L 141.2044 360.8691 L 141.2044 358.8691 L 141.2044 356.8691 L 141.2044 354.8691 L 141.2044 352.8691 L 141.2044 350.8691 L 141.2044 348.8691 L 141.2044 346.8691 L 141.2044 344.8691 L 141.2044 342.8691 L 141.2044 340.8691 L 141.2044 338.8691 L 141.2044 336.8691 L 141.2044 334.8691 L 141.2044 332.8691 L 141.2044 330.8691 L 141.2044 328.8691 L 141.2044 326.8691 L 141.2044 324.8691 L 141.2044 322.8691 L 141.2044 320.8691 L 141.2044 318.8691 L 141.2044 316.8691 L 141.2044 314.8691 L 141.2044 312.8691 L 141.2044 310.8691 L 141.2044 308.8691 L 141.2044 306.8691 L 141.2044 304.8691 L 141.2044 302.8691 L 141.2044 300.8691 L 141.2044 298.8691 L 141.2044 296.8691 L 141.2044 294.8691 L 141.2044 292.8691 L 141.2044 290.8691 L 141.2044 288.8691 L 141.2044 286.8691 L 141.2044 284.8691 L 141.2044 282.8691 L 141.2044 280.8691 L 141.2044 278.8691 L 141.2044 276.8691 L 141.2044 274.8691 L 141.2044 272.8691 L 141.2044 270.8691 L 141.2044 268.8691 L 141.2044 266.8691 L 141.2044 264.8691 L 141.2044 262.8691 L 141.2044 260.8691 L 141.2044 258.8691 L 141.2044 256.8691 L 141.2044 254.8691 L 141.2044 252.8691 L 141.2044 250.8691 L 141.2044 248.8691 L 141.2044 246.8691 L 141.2044 244.8691 L 141.2044 242.8691 L 141.8884 240.9897 L 142.5725 239.1104 L 143.2565 237.231 L 143.9405 235.3516 L 144.6246 233.4722 L 145.3086 231.5928 L 145.9927 229.7134 L 146.6767 227.834 L 147.3607 225.9546 L 148.0448 224.0752 L 148.7288 222.1958 L 149.4129 220.3164 L 150.0969 218.437 L 150.7809 216.5576 L 151.465 214.6782 L 152.149 212.7988 L 152.8331 210.9194 L 153.5171 209.04 L 154.2011 207.1606 L 154.8852 205.2813 L 155.5692 203.4019 L 156.2533 201.5225 L 156.9373 199.6431 L 157.6213 197.7637 L 158.3054 195.8843 L 158.9894 194.0049 L 159.6735 192.1255 L 160.3575 190.2461 L 161.0415 188.3667 L 161.7256 186.4873 L 162.4096 184.6079 L 163.0937 182.7285 L 163.0937 180.7285 L 163.0937 178.7285 L 163.0937 176.7285 L 163.0937 174.7285 L 163.0937 172.7285 L 163.0937 170.7285 L 163.0937 168.7285 L 163.0937 166.7285 L 163.0937 164.7285 L 163.0937 162.7285 L 163.0937 160.7285 L 163.0937 158.7285 L 163.0937 156.7285 L 163.0937 154.7285 L 163.0937 152.7285 L 163.0937 150.7285 L 162.4096 148.8491 L 161.7256 146.9697 L 161.0415 145.0903 L 160.3575 143.2109 L 159.6735 141.3315 L 158.9894 139.4521 L 158.3054 137.5728 L 157.6213 135.6934 L 156.3358 134.1613 L 155.0502 132.6292 L 153.7646 131.0971 L 152.479 129.5651 L 150.747 128.5651 L 149.0149 127.5651 L 147.0453 127.2178 L 145.0757 126.8705 M 149.0149 127.5651 L 147.2829 126.5651 L 145.5508 125.5651 L 144.2653 124.033 L 142.9797 122.5009 M 145.5508 125.5651 L 143.5812 125.2178 L 141.6116 124.8705 M 152.479 129.5651 L 151.1935 128.033 L 149.9079 126.5009 L 148.6223 124.9688 L 147.3367 123.4368 L 146.6527 121.5574 L 145.9687 119.678 L 144.6831 118.1459 L 143.3975 116.6138 M 145.9687 119.678 L 145.2846 117.7986 L 144.6006 115.9192 L 144.6006 113.9192 L 144.6006 111.9192 M 144.6006 115.9192 L 143.315 114.3871 L 142.0294 112.855 M 147.3367 123.4368 L 145.6047 122.4368 L 143.8726 121.4368 L 141.903 121.0895 L 139.9334 120.7422 M 143.8726 121.4368 L 142.1406 120.4368 L 140.4085 119.4368 L 139.123 117.9047 L 137.8374 116.3726 M 140.4085 119.4368 L 138.4389 119.0895 L 136.4693 118.7422 M 157.6213 135.6934 L 156.9373 133.814 L 156.2533 131.9346 L 155.5692 130.0552 L 154.8852 128.1758 L 154.2011 126.2964 L 153.5171 124.417 L 152.8331 122.5376 L 152.149 120.6582 L 152.149 118.6582 L 152.149 116.6582 L 152.149 114.6582 L 152.149 112.6582 L 151.465 110.7788 L 150.7809 108.8994 L 149.4954 107.3673 L 148.2098 105.8353 M 150.7809 108.8994 L 150.0969 107.02 L 149.4129 105.1406 L 149.4129 103.1406 L 149.4129 101.1406 M 149.4129 105.1406 L 148.1273 103.6086 L 146.8417 102.0765 M 152.149 112.6582 L 152.149 110.6582 L 152.149 108.6582 L 152.149 106.6582 L 152.149 104.6582 L 152.8331 102.7788 L 153.5171 100.8994 L 153.5171 98.89941 L 153.5171 96.89941 M 153.5171 100.8994 L 154.2011 99.02002 L 154.8852 97.14063 L 156.1708 95.60855 L 157.4563 94.07648 M 154.8852 97.14063 L 154.8852 95.14063 L 154.8852 93.14063 M 152.149 104.6582 L 151.465 102.7788 L 150.7809 100.8994 L 149.4954 99.36734 L 148.2098 97.83527 M 150.7809 100.8994 L 150.0969 99.02002 L 149.4129 97.14063 L 149.4129 95.14063 L 149.4129 93.14063 M 149.4129 97.14063 L 148.1273 95.60855 L 146.8417 94.07648 M 152.149 120.6582 L 150.8634 119.1261 L 149.5779 117.5941 L 148.2923 116.062 L 147.0067 114.5299 L 145.2747 113.5299 L 143.5426 112.5299 L 141.573 112.1826 L 139.6034 111.8353 M 143.5426 112.5299 L 141.8106 111.5299 L 140.0785 110.5299 L 138.7929 108.9978 L 137.5074 107.4658 M 140.0785 110.5299 L 138.1089 110.1826 L 136.1393 109.8353 M 147.0067 114.5299 L 145.7211 112.9978 L 144.4356 111.4658 L 143.15 109.9337 L 141.8644 108.4016 L 141.1804 106.5222 L 140.4963 104.6428 L 139.2108 103.1107 L 137.9252 101.5787 M 140.4963 104.6428 L 139.8123 102.7634 L 139.1283 100.884 L 139.1283 98.88403 L 139.1283 96.88403 M 139.1283 100.884 L 137.8427 99.35196 L 136.5571 97.81989 M 141.8644 108.4016 L 140.1324 107.4016 L 138.4003 106.4016 L 136.4307 106.0543 L 134.4611 105.707 M 138.4003 106.4016 L 136.6683 105.4016 L 134.9362 104.4016 L 133.6506 102.8695 L 132.3651 101.3375 M 134.9362 104.4016 L 132.9666 104.0543 L 130.997 103.707 M 163.0937 150.7285 L 163.0937 148.7285 L 163.0937 146.7285 L 163.0937 144.7285 L 163.0937 142.7285 L 163.0937 140.7285 L 163.0937 138.7285 L 163.0937 136.7285 L 163.0937 134.7285 L 163.0937 132.7285 L 163.0937 130.7285 L 163.0937 128.7285 L 163.0937 126.7285 L 163.0937 124.7285 L 163.0937 122.7285 L 163.0937 120.7285 L 163.0937 118.7285 L 163.7777 116.8491 L 164.4617 114.9697 L 165.1458 113.0903 L 165.8298 111.2109 L 166.5139 109.3315 L 167.1979 107.4521 L 167.8819 105.5728 L 168.566 103.6934 L 168.566 101.6934 L 168.566 99.69336 L 168.566 97.69336 L 168.566 95.69336 L 167.8819 93.81396 L 167.1979 91.93457 L 165.9123 90.4025 L 164.6268 88.87042 M 167.1979 91.93457 L 166.5139 90.05518 L 165.8298 88.17578 L 165.8298 86.17578 L 165.8298 84.17578 M 165.8298 88.17578 L 164.5443 86.64371 L 163.2587 85.11163 M 168.566 95.69336 L 168.566 93.69336 L 168.566 91.69336 L 168.566 89.69336 L 168.566 87.69336 L 169.25 85.81396 L 169.9341 83.93457 L 169.9341 81.93457 L 169.9341 79.93457 M 169.9341 83.93457 L 170.6181 82.05518 L 171.3021 80.17578 L 172.5877 78.64371 L 173.8733 77.11163 M 171.3021 80.17578 L 171.3021 78.17578 L 171.3021 76.17578 M 168.566 87.69336 L 167.8819 85.81396 L 167.1979 83.93457 L 165.9123 82.4025 L 164.6268 80.87042 M 167.1979 83.93457 L 166.5139 82.05518 L 165.8298 80.17578 L 165.8298 78.17578 L 165.8298 76.17578 M 165.8298 80.17578 L 164.5443 78.64371 L 163.2587 77.11163 M 168.566 103.6934 L 169.25 101.814 L 169.9341 99.93457 L 170.6181 98.05518 L 171.3021 96.17578 L 171.9862 94.29639 L 172.6702 92.41699 L 173.3543 90.5376 L 174.0383 88.6582 L 175.3239 87.12613 L 176.6095 85.59406 L 177.895 84.06198 L 179.1806 82.52991 L 179.8647 80.65051 L 180.5487 78.77112 L 180.5487 76.77112 L 180.5487 74.77112 M 180.5487 78.77112 L 181.2327 76.89172 L 181.9168 75.01233 L 183.2023 73.48026 L 184.4879 71.94818 M 181.9168 75.01233 L 181.9168 73.01233 L 181.9168 71.01233 M 179.1806 82.52991 L 180.4662 80.99783 L 181.7518 79.46576 L 183.0373 77.93369 L 184.3229 76.40161 L 186.055 75.40161 L 187.787 74.40161 L 189.0726 72.86954 L 190.3582 71.33746 M 187.787 74.40161 L 189.5191 73.40161 L 191.2511 72.40161 L 193.2207 72.05432 L 195.1904 71.70703 M 191.2511 72.40161 L 192.5367 70.86954 L 193.8223 69.33746 M 184.3229 76.40161 L 185.007 74.52222 L 185.691 72.64282 L 185.691 70.64282 L 185.691 68.64282 M 185.691 72.64282 L 186.375 70.76343 L 187.0591 68.88403 L 188.3447 67.35196 L 189.6302 65.81989 M 187.0591 68.88403 L 187.0591 66.88403 L 187.0591 64.88403 M 174.0383 88.6582 L 174.0383 86.6582 L 174.0383 84.6582 L 174.0383 82.6582 L 174.0383 80.6582 L 173.3543 78.77881 L 172.6702 76.89941 L 171.3846 75.36734 L 170.0991 73.83527 M 172.6702 76.89941 L 171.9862 75.02002 L 171.3022 73.14063 L 171.3022 71.14063 L 171.3022 69.14063 M 171.3022 73.14063 L 170.0166 71.60855 L 168.731 70.07648 M 174.0383 80.6582 L 174.0383 78.6582 L 174.0383 76.6582 L 174.0383 74.6582 L 174.0383 72.6582 L 174.7224 70.77881 L 175.4064 68.89941 L 175.4064 66.89941 L 175.4064 64.89941 M 175.4064 68.89941 L 176.0904 67.02002 L 176.7745 65.14063 L 178.06 63.60855 L 179.3456 62.07648 M 176.7745 65.14063 L 176.7745 63.14063 L 176.7745 61.14063 M 174.0383 72.6582 L 173.3543 70.77881 L 172.6702 68.89941 L 171.3846 67.36734 L 170.0991 65.83527 M 172.6702 68.89941 L 171.9862 67.02002 L 171.3022 65.14063 L 171.3022 63.14063 L 171.3022 61.14063 M 171.3022 65.14063 L 170.0166 63.60855 L 168.731 62.07648 M 163.0937 118.7285 L 162.4096 116.8491 L 161.7256 114.9697 L 161.0415 113.0903 L 160.3575 111.2109 L 159.6735 109.3315 L 158.9894 107.4521 L 158.3054 105.5728 L 157.6213 103.6934 L 156.3358 102.1613 L 155.0502 100.6292 L 153.7646 99.09714 L 152.479 97.56506 L 150.747 96.56506 L 149.0149 95.56506 L 147.0453 95.21777 L 145.0757 94.87048 M 149.0149 95.56506 L 147.2829 94.56506 L 145.5508 93.56506 L 144.2653 92.03299 L 142.9797 90.50092 M 145.5508 93.56506 L 143.5812 93.21777 L 141.6116 92.87048 M 152.479 97.56506 L 151.1935 96.03299 L 149.9079 94.50092 L 148.6223 92.96884 L 147.3367 91.43677 L 146.6527 89.55737 L 145.9687 87.67798 L 144.6831 86.1459 L 143.3975 84.61383 M 145.9687 87.67798 L 145.2846 85.79858 L 144.6006 83.91919 L 144.6006 81.91919 L 144.6006 79.91919 M 144.6006 83.91919 L 143.315 82.38712 L 142.0294 80.85504 M 147.3367 91.43677 L 145.6047 90.43677 L 143.8726 89.43677 L 141.903 89.08948 L 139.9334 88.74219 M 143.8726 89.43677 L 142.1406 88.43677 L 140.4085 87.43677 L 139.123 85.90469 L 137.8374 84.37262 M 140.4085 87.43677 L 138.4389 87.08948 L 136.4693 86.74219 M 157.6213 103.6934 L 156.9373 101.814 L 156.2533 99.93457 L 155.5692 98.05518 L 154.8852 96.17578 L 154.2011 94.29639 L 153.5171 92.41699 L 152.8331 90.5376 L 152.149 88.6582 L 152.149 86.6582 L 152.149 84.6582 L 152.149 82.6582 L 152.149 80.6582 L 151.465 78.77881 L 150.7809 76.89941 L 149.4954 75.36734 L 148.2098 73.83527 M 150.7809 76.89941 L 150.0969 75.02002 L 149.4129 73.14063 L 149.4129 71.14063 L 149.4129 69.14063 M 149.4129 73.14063 L 148.1273 71.60855 L 146.8417 70.07648 M 152.149 80.6582 L 152.149 78.6582 L 152.149 76.6582 L 152.149 74.6582 L 152.149 72.6582 L 152.8331 70.77881 L 153.5171 68.89941 L 153.5171 66.89941 L 153.5171 64.89941 M 153.5171 68.89941 L 154.2011 67.02002 L 154.8852 65.14063 L 156.1708 63.60855 L 157.4563 62.07648 M 154.8852 65.14063 L 154.8852 63.14063 L 154.8852 61.14063 M 152.149 72.6582 L 151.465 70.77881 L 150.7809 68.89941 L 149.4954 67.36734 L 148.2098 65.83527 M 150.7809 68.89941 L 150.0969 67.02002 L 149.4129 65.14063 L 149.4129 63.14063 L 149.4129 61.14063 M 149.4129 65.14063 L 148.1273 63.60855 L 146.8417 62.07648 M 152.149 88.6582 L 150.8634 87.12613 L 149.5779 85.59406 L 148.2923 84.06198 L 147.0067 82.52991 L 145.2747 81.52991 L 143.5426 80.52991 L 141.573 80.18262 L 139.6034 79.83533 M 143.5426 80.52991 L 141.8106 79.52991 L 140.0785 78.52991 L 138.7929 76.99783 L 137.5074 75.46576 M 140.0785 78.52991 L 138.1089 78.18262 L 136.1393 77.83533 M 147.0067 82.52991 L 145.7211 80.99783 L 144.4356 79.46576 L 143.15 77.93369 L 141.8644 76.40161 L 141.1804 74.52222 L 140.4963 72.64282 L 139.2108 71.11075 L 137.9252 69.57867 M 140.4963 72.64282 L 139.8123 70.76343 L 139.1283 68.88403 L 139.1283 66.88403 L 139.1283 64.88403 M 139.1283 68.88403 L 137.8427 67.35196 L 136.5571 65.81989 M 141.8644 76.40161 L 140.1324 75.40161 L 138.4003 74.40161 L 136.4307 74.05432 L 134.4611 73.70703 M 138.4003 74.40161 L 136.6683 73.40161 L 134.9362 72.40161 L 133.6506 70.86954 L 132.3651 69.33746 M 134.9362 72.40161 L 132.9666 72.05432 L 130.997 71.70703 M 163.0937 182.7285 L 163.7777 180.8491 L 164.4617 178.9697 L 165.1458 177.0903 L 165.8298 175.2109 L 166.5139 173.3315 L 167.1979 171.4521 L 167.8819 169.5728 L 168.566 167.6934 L 169.25 165.814 L 169.9341 163.9346 L 170.6181 162.0552 L 171.3021 160.1758 L 171.9862 158.2964 L 172.6702 156.417 L 173.3543 154.5376 L 174.0383 152.6582 L 174.7224 150.7788 L 175.4064 148.8994 L 176.0904 147.02 L 176.7745 145.1406 L 177.4585 143.2612 L 178.1425 141.3818 L 178.8266 139.5024 L 179.5106 137.623 L 180.1947 135.7437 L 180.8787 133.8643 L 181.5627 131.9849 L 182.2468 130.1055 L 182.9308 128.2261 L 183.6149 126.3467 L 184.2989 124.4673 L 184.983 122.5879 L 186.2685 121.0558 L 187.5541 119.5237 L 188.8397 117.9917 L 190.1252 116.4596 L 191.4108 114.9275 L 192.6964 113.3954 L 193.982 111.8634 L 195.2675 110.3313 L 196.5531 108.7992 L 197.8387 107.2672 L 199.1243 105.7351 L 200.4099 104.203 L 201.6954 102.6709 L 202.981 101.1389 L 204.2666 99.60678 L 205.5522 98.07471 L 206.2362 96.19531 L 206.9203 94.31592 L 207.6043 92.43652 L 208.2883 90.55713 L 208.9724 88.67773 L 209.6564 86.79834 L 210.3405 84.91895 L 211.0245 83.03955 L 211.0245 81.03955 L 211.0245 79.03955 L 211.0245 77.03955 L 211.0245 75.03955 L 210.3405 73.16016 L 209.6564 71.28076 L 208.3708 69.74869 L 207.0853 68.21661 M 209.6564 71.28076 L 208.9724 69.40137 L 208.2883 67.52197 L 208.2883 65.52197 L 208.2883 63.52197 M 208.2883 67.52197 L 207.0028 65.9899 L 205.7172 64.45782 M 211.0245 75.03955 L 211.0245 73.03955 L 211.0245 71.03955 L 211.0245 69.03955 L 211.0245 67.03955 L 211.7086 65.16016 L 212.3926 63.28076 L 212.3926 61.28076 L 212.3926 59.28076 M 212.3926 63.28076 L 213.0766 61.40137 L 213.7607 59.52197 L 215.0463 57.9899 L 216.3318 56.45782 M 213.7607 59.52197 L 213.7607 57.52197 L 213.7607 55.52197 M 211.0245 67.03955 L 210.3405 65.16016 L 209.6564 63.28076 L 208.3708 61.74869 L 207.0853 60.21661 M 209.6564 63.28076 L 208.9724 61.40137 L 208.2883 59.52197 L 208.2883 57.52197 L 208.2883 55.52197 M 208.2883 59.52197 L 207.0028 57.9899 L 205.7172 56.45782 M 211.0245 83.03955 L 211.7086 81.16016 L 212.3926 79.28076 L 213.0766 77.40137 L 213.7607 75.52197 L 214.4447 73.64258 L 215.1288 71.76318 L 215.8128 69.88379 L 216.4969 68.00439 L 217.7824 66.47232 L 219.068 64.94025 L 220.3536 63.40817 L 221.6392 61.8761 L 222.3232 59.9967 L 223.0072 58.11731 L 223.0072 56.11731 L 223.0072 54.11731 M 223.0072 58.11731 L 223.6913 56.23792 L 224.3753 54.35852 L 225.6609 52.82645 L 226.9465 51.29437 M 224.3753 54.35852 L 224.3753 52.35852 L 224.3753 50.35852 M 221.6392 61.8761 L 222.9247 60.34402 L 224.2103 58.81195 L 225.4959 57.27988 L 226.7815 55.7478 L 228.5135 54.7478 L 230.2456 53.7478 L 231.5311 52.21573 L 232.8167 50.68365 M 230.2456 53.7478 L 231.9776 52.7478 L 233.7097 51.7478 L 235.6793 51.40051 L 237.6489 51.05322 M 233.7097 51.7478 L 234.9952 50.21573 L 236.2808 48.68365 M 226.7815 55.7478 L 227.4655 53.86841 L 228.1496 51.98901 L 228.1496 49.98901 L 228.1496 47.98901 M 228.1496 51.98901 L 228.8336 50.10962 L 229.5177 48.23022 L 230.8032 46.69815 L 232.0888 45.16608 M 229.5177 48.23022 L 229.5177 46.23022 L 229.5177 44.23022 M 216.4969 68.00439 L 216.4969 66.00439 L 216.4969 64.00439 L 216.4969 62.00439 L 216.4969 60.00439 L 215.8128 58.125 L 215.1288 56.24561 L 213.8432 54.71353 L 212.5576 53.18146 M 215.1288 56.24561 L 214.4447 54.36621 L 213.7607 52.48682 L 213.7607 50.48682 L 213.7607 48.48682 M 213.7607 52.48682 L 212.4751 50.95474 L 211.1895 49.42267 M 216.4969 60.00439 L 216.4969 58.00439 L 216.4969 56.00439 L 216.4969 54.00439 L 216.4969 52.00439 L 217.1809 50.125 L 217.865 48.24561 L 217.865 46.24561 L 217.865 44.24561 M 217.865 48.24561 L 218.549 46.36621 L 219.233 44.48682 L 220.5186 42.95474 L 221.8042 41.42267 M 219.233 44.48682 L 219.233 42.48682 L 219.233 40.48682 M 216.4969 52.00439 L 215.8128 50.125 L 215.1288 48.24561 L 213.8432 46.71353 L 212.5576 45.18146 M 215.1288 48.24561 L 214.4447 46.36621 L 213.7607 44.48682 L 213.7607 42.48682 L 213.7607 40.48682 M 213.7607 44.48682 L 212.4751 42.95474 L 211.1895 41.42267 M 205.5522 98.07471 L 206.8377 96.54263 L 208.1233 95.01056 L 209.4089 93.47849 L 210.6945 91.94641 L 211.98 90.41434 L 213.2656 88.88226 L 214.5512 87.35019 L 215.8368 85.81812 L 217.1223 84.28604 L 218.4079 82.75397 L 219.6935 81.22189 L 220.9791 79.68982 L 222.2646 78.15775 L 223.5502 76.62567 L 224.8358 75.0936 L 226.1214 73.56152 L 227.8534 72.56152 L 229.5855 71.56152 L 231.3175 70.56152 L 233.0496 69.56152 L 234.7816 68.56152 L 236.5137 67.56152 L 238.2457 66.56152 L 239.9778 65.56152 L 241.2633 64.02945 L 242.5489 62.49738 L 243.8345 60.9653 L 245.1201 59.43323 L 245.8041 57.55383 L 246.4882 55.67444 L 246.4882 53.67444 L 246.4882 51.67444 M 246.4882 55.67444 L 247.1722 53.79504 L 247.8562 51.91565 L 249.1418 50.38358 L 250.4274 48.8515 M 247.8562 51.91565 L 247.8562 49.91565 L 247.8562 47.91565 M 245.1201 59.43323 L 246.4056 57.90115 L 247.6912 56.36908 L 248.9768 54.83701 L 250.2624 53.30493 L 251.9944 52.30493 L 253.7265 51.30493 L 255.012 49.77286 L 256.2976 48.24078 M 253.7265 51.30493 L 255.4585 50.30493 L 257.1906 49.30493 L 259.1602 48.95764 L 261.1298 48.61035 M 257.1906 49.30493 L 258.4761 47.77286 L 259.7617 46.24078 M 250.2624 53.30493 L 250.9464 51.42554 L 251.6305 49.54614 L 251.6305 47.54614 L 251.6305 45.54614 M 251.6305 49.54614 L 252.3145 47.66675 L 252.9985 45.78735 L 254.2841 44.25528 L 255.5697 42.72321 M 252.9985 45.78735 L 252.9985 43.78735 L 252.9985 41.78735 M 239.9778 65.56152 L 241.7098 64.56152 L 243.4418 63.56152 L 245.1739 62.56152 L 246.9059 61.56152 L 248.638 60.56152 L 250.3701 59.56152 L 252.1021 58.56152 L 253.8341 57.56152 L 255.8038 57.21423 L 257.7734 56.86694 L 259.743 56.51965 L 261.7126 56.17236 L 263.4446 55.17236 L 265.1767 54.17236 L 266.4623 52.64029 L 267.7478 51.10822 M 265.1767 54.17236 L 266.9088 53.17236 L 268.6408 52.17236 L 270.6104 51.82507 L 272.58 51.47778 M 268.6408 52.17236 L 269.9264 50.64029 L 271.2119 49.10822 M 261.7126 56.17236 L 263.6822 55.82507 L 265.6518 55.47778 L 267.6214 55.13049 L 269.5911 54.7832 L 271.5607 55.13049 L 273.5303 55.47778 L 275.4999 55.13049 L 277.4695 54.7832 M 273.5303 55.47778 L 275.4999 55.82507 L 277.4695 56.17236 L 279.2016 57.17236 L 280.9337 58.17236 M 277.4695 56.17236 L 279.4391 55.82507 L 281.4088 55.47778 M 269.5911 54.7832 L 271.3231 53.7832 L 273.0552 52.7832 L 274.3407 51.25113 L 275.6263 49.71906 M 273.0552 52.7832 L 274.7872 51.7832 L 276.5193 50.7832 L 278.4889 50.43591 L 280.4585 50.08862 M 276.5193 50.7832 L 277.8048 49.25113 L 279.0904 47.71906 M 253.8341 57.56152 L 255.1197 56.02945 L 256.4053 54.49738 L 257.6909 52.9653 L 258.9764 51.43323 L 259.6605 49.55383 L 260.3445 47.67444 L 260.3445 45.67444 L 260.3445 43.67444 M 260.3445 47.67444 L 261.0286 45.79504 L 261.7126 43.91565 L 262.9982 42.38358 L 264.2838 40.8515 M 261.7126 43.91565 L 261.7126 41.91565 L 261.7126 39.91565 M 258.9764 51.43323 L 260.262 49.90115 L 261.5476 48.36908 L 262.8332 46.83701 L 264.1187 45.30493 L 265.8508 44.30493 L 267.5829 43.30493 L 268.8684 41.77286 L 270.154 40.24078 M 267.5829 43.30493 L 269.3149 42.30493 L 271.0469 41.30493 L 273.0166 40.95764 L 274.9862 40.61035 M 271.0469 41.30493 L 272.3325 39.77286 L 273.6181 38.24078 M 264.1187 45.30493 L 264.8028 43.42554 L 265.4868 41.54614 L 265.4868 39.54614 L 265.4868 37.54614 M 265.4868 41.54614 L 266.1709 39.66675 L 266.8549 37.78735 L 268.1405 36.25528 L 269.4261 34.72321 M 266.8549 37.78735 L 266.8549 35.78735 L 266.8549 33.78735 M 226.1214 73.56152 L 226.8054 71.68213 L 227.4895 69.80273 L 228.1735 67.92334 L 228.8575 66.04395 L 229.5416 64.16455 L 230.2256 62.28516 L 230.9097 60.40576 L 231.5937 58.52637 L 231.5937 56.52637 L 231.5937 54.52637 L 231.5937 52.52637 L 231.5937 50.52637 L 230.9097 48.64697 L 230.2256 46.76758 L 228.9401 45.2355 L 227.6545 43.70343 M 230.2256 46.76758 L 229.5416 44.88818 L 228.8575 43.00879 L 228.8575 41.00879 L 228.8575 39.00879 M 228.8575 43.00879 L 227.572 41.47672 L 226.2864 39.94464 M 231.5937 50.52637 L 231.5937 48.52637 L 231.5937 46.52637 L 231.5937 44.52637 L 231.5937 42.52637 L 232.2778 40.64697 L 232.9618 38.76758 L 232.9618 36.76758 L 232.9618 34.76758 M 232.9618 38.76758 L 233.6459 36.88818 L 234.3299 35.00879 L 235.6155 33.47672 L 236.9011 31.94464 M 234.3299 35.00879 L 234.3299 33.00879 L 234.3299 31.00879 M 231.5937 42.52637 L 230.9097 40.64697 L 230.2256 38.76758 L 228.9401 37.2355 L 227.6545 35.70343 M 230.2256 38.76758 L 229.5416 36.88818 L 228.8575 35.00879 L 228.8575 33.00879 L 228.8575 31.00879 M 228.8575 35.00879 L 227.572 33.47672 L 226.2864 31.94464 M 231.5937 58.52637 L 232.2778 56.64697 L 232.9618 54.76758 L 233.6459 52.88818 L 234.3299 51.00879 L 235.0139 49.12939 L 235.698 47.25 L 236.382 45.37061 L 237.0661 43.49121 L 238.3517 41.95914 L 239.6372 40.42706 L 240.9228 38.89499 L 242.2084 37.36292 L 242.8924 35.48352 L 243.5765 33.60413 L 243.5765 31.60413 L 243.5765 29.60413 M 243.5765 33.60413 L 244.2605 31.72473 L 244.9446 29.84534 L 246.2301 28.31326 L 247.5157 26.78119 M 244.9446 29.84534 L 244.9446 27.84534 L 244.9446 25.84534 M 242.2084 37.36292 L 243.494 35.83084 L 244.7795 34.29877 L 246.0651 32.76669 L 247.3507 31.23462 L 249.0827 30.23462 L 250.8148 29.23462 L 252.1004 27.70255 L 253.3859 26.17047 M 250.8148 29.23462 L 252.5468 28.23462 L 254.2789 27.23462 L 256.2485 26.88733 L 258.2181 26.54004 M 254.2789 27.23462 L 255.5645 25.70255 L 256.85 24.17047 M 247.3507 31.23462 L 248.0347 29.35522 L 248.7188 27.47583 L 248.7188 25.47583 L 248.7188 23.47583 M 248.7188 27.47583 L 249.4028 25.59644 L 250.0869 23.71704 L 251.3724 22.18497 L 252.658 20.65289 M 250.0869 23.71704 L 250.0869 21.71704 L 250.0869 19.71704 M 237.0661 43.49121 L 237.0661 41.49121 L 237.0661 39.49121 L 237.0661 37.49121 L 237.0661 35.49121 L 236.382 33.61182 L 235.698 31.73242 L 234.4124 30.20035 L 233.1268 28.66827 M 235.698 31.73242 L 235.0139 29.85303 L 234.3299 27.97363 L 234.3299 25.97363 L 234.3299 23.97363 M 234.3299 27.97363 L 233.0443 26.44156 L 231.7588 24.90948 M 237.0661 35.49121 L 237.0661 33.49121 L 237.0661 31.49121 L 237.0661 29.49121 L 237.0661 27.49121 L 237.7501 25.61182 L 238.4342 23.73242 L 238.4342 21.73242 L 238.4342 19.73242 M 238.4342 23.73242 L 239.1182 21.85303 L 239.8022 19.97363 L 241.0878 18.44156 L 242.3734 16.90948 M 239.8022 19.97363 L 239.8022 17.97363 L 239.8022 15.97363 M 237.0661 27.49121 L 236.382 25.61182 L 235.698 23.73242 L 234.4124 22.20035 L 233.1268 20.66827 M 235.698 23.73242 L 235.0139 21.85303 L 234.3299 19.97363 L 234.3299 17.97363 L 234.3299 15.97363 M 234.3299 19.97363 L 233.0443 18.44156 L 231.7588 16.90948 M 184.983 122.5879 L 184.983 120.5879 L 184.983 118.5879 L 184.983 116.5879 L 184.983 114.5879 L 184.983 112.5879 L 184.983 110.5879 L 184.983 108.5879 L 184.983 106.5879 L 184.983 104.5879 L 184.983 102.5879 L 184.983 100.5879 L 184.983 98.58789 L 184.983 96.58789 L 184.983 94.58789 L 184.983 92.58789 L 184.983 90.58789 L 184.2989 88.7085 L 183.6149 86.8291 L 182.9308 84.94971 L 182.2468 83.07031 L 181.5627 81.19092 L 180.8787 79.31152 L 180.1947 77.43213 L 179.5106 75.55273 L 178.2251 74.02066 L 176.9395 72.48859 L 175.6539 70.95651 L 174.3683 69.42444 L 172.6363 68.42444 L 170.9042 67.42444 L 168.9346 67.07715 L 166.965 66.72986 M 170.9042 67.42444 L 169.1722 66.42444 L 167.4401 65.42444 L 166.1546 63.89236 L 164.869 62.36029 M 167.4401 65.42444 L 165.4705 65.07715 L 163.5009 64.72986 M 174.3683 69.42444 L 173.0827 67.89236 L 171.7972 66.36029 L 170.5116 64.82822 L 169.226 63.29614 L 168.542 61.41675 L 167.8579 59.53735 L 166.5724 58.00528 L 165.2868 56.47321 M 167.8579 59.53735 L 167.1739 57.65796 L 166.4899 55.77856 L 166.4899 53.77856 L 166.4899 51.77856 M 166.4899 55.77856 L 165.2043 54.24649 L 163.9187 52.71442 M 169.226 63.29614 L 167.494 62.29614 L 165.7619 61.29614 L 163.7923 60.94885 L 161.8227 60.60156 M 165.7619 61.29614 L 164.0299 60.29614 L 162.2978 59.29614 L 161.0122 57.76407 L 159.7267 56.23199 M 162.2978 59.29614 L 160.3282 58.94885 L 158.3586 58.60156 M 179.5106 75.55273 L 178.8266 73.67334 L 178.1425 71.79395 L 177.4585 69.91455 L 176.7745 68.03516 L 176.0904 66.15576 L 175.4064 64.27637 L 174.7224 62.39697 L 174.0383 60.51758 L 174.0383 58.51758 L 174.0383 56.51758 L 174.0383 54.51758 L 174.0383 52.51758 L 173.3543 50.63818 L 172.6702 48.75879 L 171.3846 47.22672 L 170.0991 45.69464 M 172.6702 48.75879 L 171.9862 46.87939 L 171.3022 45 L 171.3022 43 L 171.3022 41 M 171.3022 45 L 170.0166 43.46793 L 168.731 41.93585 M 174.0383 52.51758 L 174.0383 50.51758 L 174.0383 48.51758 L 174.0383 46.51758 L 174.0383 44.51758 L 174.7224 42.63818 L 175.4064 40.75879 L 175.4064 38.75879 L 175.4064 36.75879 M 175.4064 40.75879 L 176.0904 38.87939 L 176.7745 37 L 178.06 35.46793 L 179.3456 33.93585 M 176.7745 37 L 176.7745 35 L 176.7745 33 M 174.0383 44.51758 L 173.3543 42.63818 L 172.6702 40.75879 L 171.3846 39.22672 L 170.0991 37.69464 M 172.6702 40.75879 L 171.9862 38.87939 L 171.3022 37 L 171.3022 35 L 171.3022 33 M 171.3022 37 L 170.0166 35.46793 L 168.731 33.93585 M 174.0383 60.51758 L 172.7527 58.9855 L 171.4671 57.45343 L 170.1816 55.92136 L 168.896 54.38928 L 167.164 53.38928 L 165.4319 52.38928 L 163.4623 52.04199 L 161.4927 51.6947 M 165.4319 52.38928 L 163.6999 51.38928 L 161.9678 50.38928 L 160.6822 48.85721 L 159.3967 47.32513 M 161.9678 50.38928 L 159.9982 50.04199 L 158.0286 49.6947 M 168.896 54.38928 L 167.6104 52.85721 L 166.3249 51.32513 L 165.0393 49.79306 L 163.7537 48.26099 L 163.0697 46.38159 L 162.3856 44.5022 L 161.1 42.97012 L 159.8145 41.43805 M 162.3856 44.5022 L 161.7016 42.6228 L 161.0175 40.74341 L 161.0175 38.74341 L 161.0175 36.74341 M 161.0175 40.74341 L 159.732 39.21133 L 158.4464 37.67926 M 163.7537 48.26099 L 162.0217 47.26099 L 160.2896 46.26099 L 158.32 45.9137 L 156.3504 45.56641 M 160.2896 46.26099 L 158.5576 45.26099 L 156.8255 44.26099 L 155.5399 42.72891 L 154.2543 41.19684 M 156.8255 44.26099 L 154.8559 43.9137 L 152.8863 43.56641 M 184.983 90.58789 L 184.983 88.58789 L 184.983 86.58789 L 184.983 84.58789 L 184.983 82.58789 L 184.983 80.58789 L 184.983 78.58789 L 184.983 76.58789 L 184.983 74.58789 L 184.983 72.58789 L 184.983 70.58789 L 184.983 68.58789 L 184.983 66.58789 L 184.983 64.58789 L 184.983 62.58789 L 184.983 60.58789 L 184.983 58.58789 L 185.667 56.7085 L 186.351 54.8291 L 187.0351 52.94971 L 187.7191 51.07031 L 188.4032 49.19092 L 189.0872 47.31152 L 189.7712 45.43213 L 190.4553 43.55273 L 190.4553 41.55273 L 190.4553 39.55273 L 190.4553 37.55273 L 190.4553 35.55273 L 189.7712 33.67334 L 189.0872 31.79395 L 187.8016 30.26187 L 186.516 28.7298 M 189.0872 31.79395 L 188.4032 29.91455 L 187.7191 28.03516 L 187.7191 26.03516 L 187.7191 24.03516 M 187.7191 28.03516 L 186.4335 26.50308 L 185.148 24.97101 M 190.4553 35.55273 L 190.4553 33.55273 L 190.4553 31.55273 L 190.4553 29.55273 L 190.4553 27.55273 L 191.1393 25.67334 L 191.8233 23.79395 L 191.8233 21.79395 L 191.8233 19.79395 M 191.8233 23.79395 L 192.5074 21.91455 L 193.1914 20.03516 L 194.477 18.50308 L 195.7626 16.97101 M 193.1914 20.03516 L 193.1914 18.03516 L 193.1914 16.03516 M 190.4553 27.55273 L 189.7712 25.67334 L 189.0872 23.79395 L 187.8016 22.26187 L 186.516 20.7298 M 189.0872 23.79395 L 188.4032 21.91455 L 187.7191 20.03516 L 187.7191 18.03516 L 187.7191 16.03516 M 187.7191 20.03516 L 186.4335 18.50308 L 185.148 16.97101 M 190.4553 43.55273 L 191.1393 41.67334 L 191.8233 39.79395 L 192.5074 37.91455 L 193.1914 36.03516 L 193.8755 34.15576 L 194.5595 32.27637 L 195.2436 30.39697 L 195.9276 28.51758 L 197.2132 26.9855 L 198.4987 25.45343 L 199.7843 23.92136 L 201.0699 22.38928 L 201.7539 20.50989 L 202.438 18.63049 L 202.438 16.63049 L 202.438 14.63049 M 202.438 18.63049 L 203.122 16.7511 L 203.8061 14.8717 L 205.0916 13.33963 L 206.3772 11.80756 M 203.8061 14.8717 L 203.8061 12.8717 L 203.8061 10.8717 M 201.0699 22.38928 L 202.3555 20.85721 L 203.641 19.32513 L 204.9266 17.79306 L 206.2122 16.26099 L 207.9442 15.26099 L 209.6763 14.26099 L 210.9619 12.72891 L 212.2474 11.19684 M 209.6763 14.26099 L 211.4083 13.26099 L 213.1404 12.26099 L 215.11 11.9137 L 217.0796 11.56641 M 213.1404 12.26099 L 214.426 10.72891 L 215.7115 9.196838 M 206.2122 16.26099 L 206.8962 14.38159 L 207.5803 12.5022 L 207.5803 10.5022 L 207.5803 8.502197 M 207.5803 12.5022 L 208.2643 10.6228 L 208.9483 8.743408 L 210.2339 7.211334 L 211.5195 5.67926 M 208.9483 8.743408 L 208.9483 6.743408 L 208.9483 4.743408 M 195.9276 28.51758 L 195.9276 26.51758 L 195.9276 24.51758 L 195.9276 22.51758 L 195.9276 20.51758 L 195.2436 18.63818 L 194.5595 16.75879 L 193.2739 15.22672 L 191.9884 13.69464 M 194.5595 16.75879 L 193.8755 14.87939 L 193.1914 13 L 193.1914 11 L 193.1914 9 M 193.1914 13 L 191.9059 11.46793 L 190.6203 9.935852 M 195.9276 20.51758 L 195.9276 18.51758 L 195.9276 16.51758 L 195.9276 14.51758 L 195.9276 12.51758 L 196.6116 10.63818 L 197.2957 8.758789 L 197.2957 6.758789 L 197.2957 4.758789 M 197.2957 8.758789 L 197.9797 6.879395 L 198.6638 5 L 199.9493 3.467926 L 201.2349 1.935852 M 198.6638 5 L 198.6638 3 L 198.6638 1 M 195.9276 12.51758 L 195.2436 10.63818 L 194.5595 8.758789 L 193.2739 7.226715 L 191.9884 5.694641 M 194.5595 8.758789 L 193.8755 6.879395 L 193.1914 5 L 193.1914 3 L 193.1914 1 M 193.1914 5 L 191.9059 3.467926 L 190.6203 1.935852 M 184.983 58.58789 L 184.2989 56.7085 L 183.6149 54.8291 L 182.9308 52.94971 L 182.2468 51.07031 L 181.5627 49.19092 L 180.8787 47.31152 L 180.1947 45.43213 L 179.5106 43.55273 L 178.2251 42.02066 L 176.9395 40.48859 L 175.6539 38.95651 L 174.3683 37.42444 L 172.6363 36.42444 L 170.9042 35.42444 L 168.9346 35.07715 L 166.965 34.72986 M 170.9042 35.42444 L 169.1722 34.42444 L 167.4401 33.42444 L 166.1546 31.89236 L 164.869 30.36029 M 167.4401 33.42444 L 165.4705 33.07715 L 163.5009 32.72986 M 174.3683 37.42444 L 173.0827 35.89236 L 171.7972 34.36029 L 170.5116 32.82822 L 169.226 31.29614 L 168.542 29.41675 L 167.8579 27.53735 L 166.5724 26.00528 L 165.2868 24.47321 M 167.8579 27.53735 L 167.1739 25.65796 L 166.4899 23.77856 L 166.4899 21.77856 L 166.4899 19.77856 M 166.4899 23.77856 L 165.2043 22.24649 L 163.9187 20.71442 M 169.226 31.29614 L 167.494 30.29614 L 165.7619 29.29614 L 163.7923 28.94885 L 161.8227 28.60156 M 165.7619 29.29614 L 164.0299 28.29614 L 162.2978 27.29614 L 161.0122 25.76407 L 159.7267 24.23199 M 162.2978 27.29614 L 160.3282 26.94885 L 158.3586 26.60156 M 179.5106 43.55273 L 178.8266 41.67334 L 178.1425 39.79395 L 177.4585 37.91455 L 176.7745 36.03516 L 176.0904 34.15576 L 175.4064 32.27637 L 174.7224 30.39697 L 174.0383 28.51758 L 174.0383 26.51758 L 174.0383 24.51758 L 174.0383 22.51758 L 174.0383 20.51758 L 173.3543 18.63818 L 172.6702 16.75879 L 171.3846 15.22672 L 170.0991 13.69464 M 172.6702 16.75879 L 171.9862 14.87939 L 171.3022 13 L 171.3022 11 L 171.3022 9 M 171.3022 13 L 170.0166 11.46793 L 168.731 9.935852 M 174.0383 20.51758 L 174.0383 18.51758 L 174.0383 16.51758 L 174.0383 14.51758 L 174.0383 12.51758 L 174.7224 10.63818 L 175.4064 8.758789 L 175.4064 6.758789 L 175.4064 4.758789 M 175.4064 8.758789 L 176.0904 6.879395 L 176.7745 5 L 178.06 3.467926 L 179.3456 1.935852 M 176.7745 5 L 176.7745 3 L 176.7745 1 M 174.0383 12.51758 L 173.3543 10.63818 L 172.6702 8.758789 L 171.3846 7.226715 L 170.0991 5.694641 M 172.6702 8.758789 L 171.9862 6.879395 L 171.3022 5 L 171.3022 3 L 171.3022 1 M 171.3022 5 L 170.0166 3.467926 L 168.731 1.935852 M 174.0383 28.51758 L 172.7527 26.9855 L 171.4671 25.45343 L 170.1816 23.92136 L 168.896 22.38928 L 167.164 21.38928 L 165.4319 20.38928 L 163.4623 20.04199 L 161.4927 19.6947 M 165.4319 20.38928 L 163.6999 19.38928 L 161.9678 18.38928 L 160.6822 16.85721 L 159.3967 15.32513 M 161.9678 18.38928 L 159.9982 18.04199 L 158.0286 17.6947 M 168.896 22.38928 L 167.6104 20.85721 L 166.3249 19.32513 L 165.0393 17.79306 L 163.7537 16.26099 L 163.0697 14.38159 L 162.3856 12.5022 L 161.1 10.97012 L 159.8145 9.438049 M 162.3856 12.5022 L 161.7016 10.6228 L 161.0175 8.743408 L 161.0175 6.743408 L 161.0175 4.743408 M 161.0175 8.743408 L 159.732 7.211334 L 158.4464 5.67926 M 163.7537 16.26099 L 162.0217 15.26099 L 160.2896 14.26099 L 158.32 13.9137 L 156.3504 13.56641 M 160.2896 14.26099 L 158.5576 13.26099 L 156.8255 12.26099 L 155.5399 10.72891 L 154.2543 9.196838 M 156.8255 12.26099 L 154.8559 11.9137 L 152.8863 11.56641 M 141.2044 242.8691 L 140.5203 240.9897 L 139.8363 239.1104 L 139.1523 237.231 L 138.4682 235.3516 L 137.7842 233.4722 L 137.1001 231.5928 L 136.4161 229.7134 L 135.7321 227.834 L 135.048 225.9546 L 134.364 224.0752 L 133.6799 222.1958 L 132.9959 220.3164 L 132.3119 218.437 L 131.6278 216.5576 L 130.9438 214.6782 L 130.2597 212.7988 L 129.5757 210.9194 L 128.8917 209.04 L 128.2076 207.1606 L 127.5236 205.2813 L 126.8395 203.4019 L 126.1555 201.5225 L 125.4715 199.6431 L 124.7874 197.7637 L 124.1034 195.8843 L 123.4193 194.0049 L 122.7353 192.1255 L 122.0513 190.2461 L 121.3672 188.3667 L 120.6832 186.4873 L 119.9991 184.6079 L 119.3151 182.7285 L 118.0295 181.1964 L 116.7439 179.6644 L 115.4584 178.1323 L 114.1728 176.6002 L 112.8872 175.0681 L 111.6016 173.5361 L 110.3161 172.004 L 109.0305 170.4719 L 107.7449 168.9398 L 106.4593 167.4078 L 105.1738 165.8757 L 103.8882 164.3436 L 102.6026 162.8116 L 101.317 161.2795 L 100.0315 159.7474 L 98.74588 158.2153 L 97.01383 157.2153 L 95.28178 156.2153 L 93.54973 155.2153 L 91.81768 154.2153 L 90.08562 153.2153 L 88.35358 152.2153 L 86.62152 151.2153 L 84.88947 150.2153 L 82.91985 149.868 L 80.95024 149.5208 L 78.98062 149.1735 L 77.01101 148.8262 L 75.0414 149.1735 L 73.07178 149.5208 L 71.33974 150.5208 L 69.60769 151.5208 M 73.07178 149.5208 L 71.10217 149.868 L 69.13256 150.2153 L 67.16295 149.868 L 65.19334 149.5208 M 69.13256 150.2153 L 67.40051 151.2153 L 65.66846 152.2153 M 77.01101 148.8262 L 75.0414 148.4789 L 73.07178 148.1316 L 71.10217 147.7843 L 69.13256 147.437 L 67.40051 146.437 L 65.66846 145.437 L 63.69885 145.0897 L 61.72924 144.7424 M 65.66846 145.437 L 63.93642 144.437 L 62.20437 143.437 L 60.91879 141.9049 L 59.63322 140.3729 M 62.20437 143.437 L 60.23475 143.0897 L 58.26514 142.7424 M 69.13256 147.437 L 67.16295 147.7843 L 65.19334 148.1316 L 63.46129 149.1316 L 61.72924 150.1316 M 65.19334 148.1316 L 63.22372 148.4789 L 61.25411 148.8262 L 59.2845 148.4789 L 57.31489 148.1316 M 61.25411 148.8262 L 59.52206 149.8262 L 57.79001 150.8262 M 84.88947 150.2153 L 83.15742 149.2153 L 81.42536 148.2153 L 79.69331 147.2153 L 77.96126 146.2153 L 76.22921 145.2153 L 74.49716 144.2153 L 72.76511 143.2153 L 71.03306 142.2153 L 69.74749 140.6833 L 68.46191 139.1512 L 67.17634 137.6191 L 65.89076 136.087 L 64.15871 135.087 L 62.42666 134.087 L 60.45705 133.7397 L 58.48744 133.3925 M 62.42666 134.087 L 60.69462 133.087 L 58.96257 132.087 L 57.67699 130.555 L 56.39142 129.0229 M 58.96257 132.087 L 56.99296 131.7397 L 55.02334 131.3925 M 65.89076 136.087 L 64.60518 134.555 L 63.31961 133.0229 L 62.03403 131.4908 L 60.74846 129.9587 L 60.06441 128.0793 L 59.38037 126.2 L 58.0948 124.6679 L 56.80922 123.1358 M 59.38037 126.2 L 58.69633 124.3206 L 58.01228 122.4412 L 58.01228 120.4412 L 58.01228 118.4412 M 58.01228 122.4412 L 56.72672 120.9091 L 55.44113 119.377 M 60.74846 129.9587 L 59.01641 128.9587 L 57.28436 127.9587 L 55.31475 127.6115 L 53.34514 127.2642 M 57.28436 127.9587 L 55.55231 126.9587 L 53.82027 125.9587 L 52.53469 124.4267 L 51.24911 122.8946 M 53.82027 125.9587 L 51.85065 125.6115 L 49.88104 125.2642 M 71.03306 142.2153 L 69.06345 141.868 L 67.09384 141.5208 L 65.12423 141.1735 L 63.15462 140.8262 L 61.18501 141.1735 L 59.21539 141.5208 L 57.48335 142.5208 L 55.7513 143.5208 M 59.21539 141.5208 L 57.24578 141.868 L 55.27617 142.2153 L 53.30656 141.868 L 51.33694 141.5208 M 55.27617 142.2153 L 53.54412 143.2153 L 51.81207 144.2153 M 63.15462 140.8262 L 61.18501 140.4789 L 59.21539 140.1316 L 57.24578 139.7843 L 55.27617 139.437 L 53.54412 138.437 L 51.81207 137.437 L 49.84246 137.0897 L 47.87285 136.7424 M 51.81207 137.437 L 50.08002 136.437 L 48.34798 135.437 L 47.0624 133.9049 L 45.77682 132.3729 M 48.34798 135.437 L 46.37836 135.0897 L 44.40875 134.7424 M 55.27617 139.437 L 53.30656 139.7843 L 51.33694 140.1316 L 49.6049 141.1316 L 47.87285 142.1316 M 51.33694 140.1316 L 49.36733 140.4789 L 47.39772 140.8262 L 45.42811 140.4789 L 43.45849 140.1316 M 47.39772 140.8262 L 45.66567 141.8262 L 43.93362 142.8262 M 98.74588 158.2153 L 97.46031 156.6833 L 96.17473 155.1512 L 94.88915 153.6191 L 93.60358 152.087 L 92.318 150.555 L 91.03243 149.0229 L 89.74686 147.4908 L 88.46128 145.9587 L 87.1757 144.4267 L 85.89012 142.8946 L 84.60455 141.3625 L 83.31897 139.8304 L 82.0334 138.2984 L 80.74782 136.7663 L 79.46224 135.2342 L 78.17667 133.7021 L 77.49263 131.8228 L 76.80858 129.9434 L 76.12454 128.064 L 75.4405 126.1846 L 74.75645 124.3052 L 74.07241 122.4258 L 73.38837 120.5464 L 72.70432 118.667 L 71.41875 117.1349 L 70.13317 115.6028 L 68.8476 114.0708 L 67.56202 112.5387 L 65.82997 111.5387 L 64.09792 110.5387 L 62.12831 110.1914 L 60.1587 109.8441 M 64.09792 110.5387 L 62.36588 109.5387 L 60.63383 108.5387 L 59.34825 107.0066 L 58.06267 105.4745 M 60.63383 108.5387 L 58.66422 108.1914 L 56.6946 107.8441 M 67.56202 112.5387 L 66.27644 111.0066 L 64.99088 109.4745 L 63.70529 107.9425 L 62.41971 106.4104 L 61.73567 104.531 L 61.05163 102.6516 L 59.76605 101.1195 L 58.48047 99.58746 M 61.05163 102.6516 L 60.36758 100.7722 L 59.68354 98.89282 L 59.68354 96.89282 L 59.68354 94.89282 M 59.68354 98.89282 L 58.39796 97.36075 L 57.11239 95.82867 M 62.41971 106.4104 L 60.68767 105.4104 L 58.95562 104.4104 L 56.98601 104.0631 L 55.01639 103.7158 M 58.95562 104.4104 L 57.22357 103.4104 L 55.49152 102.4104 L 54.20595 100.8783 L 52.92037 99.34625 M 55.49152 102.4104 L 53.52191 102.0631 L 51.5523 101.7158 M 72.70432 118.667 L 72.02028 116.7876 L 71.33624 114.9082 L 70.65219 113.0288 L 69.96815 111.1494 L 69.2841 109.27 L 68.60006 107.3906 L 67.91601 105.5112 L 67.23197 103.6318 L 67.23197 101.6318 L 67.23197 99.63184 L 67.23197 97.63184 L 67.23197 95.63184 L 66.54793 93.75244 L 65.86388 91.87305 L 64.57831 90.34097 L 63.29273 88.8089 M 65.86388 91.87305 L 65.17984 89.99365 L 64.49579 88.11426 L 64.49579 86.11426 L 64.49579 84.11426 M 64.49579 88.11426 L 63.21022 86.58218 L 61.92464 85.05011 M 67.23197 95.63184 L 67.23197 93.63184 L 67.23197 91.63184 L 67.23197 89.63184 L 67.23197 87.63184 L 67.91601 85.75244 L 68.60006 83.87305 L 68.60006 81.87305 L 68.60006 79.87305 M 68.60006 83.87305 L 69.2841 81.99365 L 69.96815 80.11426 L 71.25372 78.58218 L 72.5393 77.05011 M 69.96815 80.11426 L 69.96815 78.11426 L 69.96815 76.11426 M 67.23197 87.63184 L 66.54793 85.75244 L 65.86388 83.87305 L 64.57831 82.34097 L 63.29273 80.8089 M 65.86388 83.87305 L 65.17984 81.99365 L 64.49579 80.11426 L 64.49579 78.11426 L 64.49579 76.11426 M 64.49579 80.11426 L 63.21022 78.58218 L 61.92464 77.05011 M 67.23197 103.6318 L 65.94639 102.0998 L 64.66082 100.5677 L 63.37524 99.03561 L 62.08967 97.50354 L 60.35762 96.50354 L 58.62557 95.50354 L 56.65596 95.15625 L 54.68635 94.80896 M 58.62557 95.50354 L 56.89352 94.50354 L 55.16147 93.50354 L 53.8759 91.97147 L 52.59032 90.43939 M 55.16147 93.50354 L 53.19186 93.15625 L 51.22225 92.80896 M 62.08967 97.50354 L 60.80409 95.97147 L 59.51852 94.43939 L 58.23294 92.90732 L 56.94736 91.37524 L 56.26332 89.49585 L 55.57928 87.61646 L 54.2937 86.08438 L 53.00812 84.55231 M 55.57928 87.61646 L 54.89523 85.73706 L 54.21119 83.85767 L 54.21119 81.85767 L 54.21119 79.85767 M 54.21119 83.85767 L 52.92561 82.32559 L 51.64005 80.79352 M 56.94736 91.37524 L 55.21532 90.37524 L 53.48327 89.37524 L 51.51366 89.02795 L 49.54404 88.68066 M 53.48327 89.37524 L 51.75122 88.37524 L 50.01917 87.37524 L 48.7336 85.84317 L 47.44802 84.3111 M 50.01917 87.37524 L 48.04956 87.02795 L 46.07995 86.68066 M 78.17667 133.7021 L 76.44462 132.7021 L 74.71257 131.7021 L 72.98052 130.7021 L 71.24847 129.7021 L 69.51642 128.7021 L 67.78438 127.7021 L 66.05233 126.7021 L 64.32028 125.7021 L 62.35067 125.3549 L 60.38106 125.0076 L 58.41144 124.6603 L 56.44183 124.313 L 54.47222 124.6603 L 52.50261 125.0076 L 50.77056 126.0076 L 49.03851 127.0076 M 52.50261 125.0076 L 50.533 125.3549 L 48.56339 125.7021 L 46.59377 125.3549 L 44.62416 125.0076 M 48.56339 125.7021 L 46.83134 126.7021 L 45.09929 127.7021 M 56.44183 124.313 L 54.47222 123.9657 L 52.50261 123.6184 L 50.533 123.2711 L 48.56339 122.9238 L 46.83134 121.9238 L 45.09929 120.9238 L 43.12968 120.5765 L 41.16006 120.2292 M 45.09929 120.9238 L 43.36724 119.9238 L 41.63519 118.9238 L 40.34962 117.3918 L 39.06404 115.8597 M 41.63519 118.9238 L 39.66558 118.5765 L 37.69597 118.2292 M 48.56339 122.9238 L 46.59377 123.2711 L 44.62416 123.6184 L 42.89211 124.6184 L 41.16006 125.6184 M 44.62416 123.6184 L 42.65455 123.9657 L 40.68494 124.313 L 38.71532 123.9657 L 36.74571 123.6184 M 40.68494 124.313 L 38.95289 125.313 L 37.22084 126.313 M 64.32028 125.7021 L 62.58823 124.7021 L 60.85618 123.7021 L 59.12414 122.7021 L 57.39209 121.7021 L 55.66004 120.7021 L 53.92799 119.7021 L 52.19594 118.7021 L 50.4639 117.7021 L 49.17832 116.1701 L 47.89274 114.638 L 46.60717 113.1059 L 45.32159 111.5739 L 43.58954 110.5739 L 41.8575 109.5739 L 39.88788 109.2266 L 37.91827 108.8793 M 41.8575 109.5739 L 40.12545 108.5739 L 38.3934 107.5739 L 37.10782 106.0418 L 35.82225 104.5097 M 38.3934 107.5739 L 36.42379 107.2266 L 34.45418 106.8793 M 45.32159 111.5739 L 44.03602 110.0418 L 42.75044 108.5097 L 41.46487 106.9776 L 40.17929 105.4456 L 39.49525 103.5662 L 38.8112 101.6868 L 37.52563 100.1547 L 36.24005 98.62262 M 38.8112 101.6868 L 38.12716 99.80737 L 37.44312 97.92798 L 37.44312 95.92798 L 37.44312 93.92798 M 37.44312 97.92798 L 36.15754 96.3959 L 34.87196 94.86383 M 40.17929 105.4456 L 38.44724 104.4456 L 36.71519 103.4456 L 34.74558 103.0983 L 32.77597 102.751 M 36.71519 103.4456 L 34.98315 102.4456 L 33.2511 101.4456 L 31.96552 99.91348 L 30.67995 98.38141 M 33.2511 101.4456 L 31.28149 101.0983 L 29.31187 100.751 M 50.4639 117.7021 L 48.49428 117.3549 L 46.52467 117.0076 L 44.55506 116.6603 L 42.58545 116.313 L 40.61584 116.6603 L 38.64622 117.0076 L 36.91418 118.0076 L 35.18213 119.0076 M 38.64622 117.0076 L 36.67661 117.3549 L 34.707 117.7021 L 32.73739 117.3549 L 30.76778 117.0076 M 34.707 117.7021 L 32.97495 118.7021 L 31.2429 119.7021 M 42.58545 116.313 L 40.61584 115.9657 L 38.64622 115.6184 L 36.67661 115.2711 L 34.707 114.9238 L 32.97495 113.9238 L 31.2429 112.9238 L 29.27329 112.5765 L 27.30368 112.2292 M 31.2429 112.9238 L 29.51086 111.9238 L 27.77881 110.9238 L 26.49323 109.3918 L 25.20766 107.8597 M 27.77881 110.9238 L 25.80919 110.5765 L 23.83958 110.2292 M 34.707 114.9238 L 32.73739 115.2711 L 30.76778 115.6184 L 29.03573 116.6184 L 27.30368 117.6184 M 30.76778 115.6184 L 28.79816 115.9657 L 26.82855 116.313 L 24.85894 115.9657 L 22.88933 115.6184 M 26.82855 116.313 L 25.0965 117.313 L 23.36445 118.313 M 119.3151 182.7285 L 118.6311 180.8491 L 117.947 178.9697 L 117.263 177.0903 L 116.5789 175.2109 L 115.8949 173.3315 L 115.2109 171.4521 L 114.5268 169.5728 L 113.8428 167.6934 L 113.1587 165.814 L 112.4747 163.9346 L 111.7906 162.0552 L 111.1066 160.1758 L 110.4226 158.2964 L 109.7385 156.417 L 109.0545 154.5376 L 108.3705 152.6582 L 107.6864 150.7788 L 107.0024 148.8994 L 106.3183 147.02 L 105.6343 145.1406 L 104.9503 143.2612 L 104.2662 141.3818 L 103.5822 139.5024 L 102.8981 137.623 L 102.2141 135.7437 L 101.5301 133.8643 L 100.846 131.9849 L 100.162 130.1055 L 99.47794 128.2261 L 98.79389 126.3467 L 98.10985 124.4673 L 97.42581 122.5879 L 97.42581 120.5879 L 97.42581 118.5879 L 97.42581 116.5879 L 97.42581 114.5879 L 97.42581 112.5879 L 97.42581 110.5879 L 97.42581 108.5879 L 97.42581 106.5879 L 97.42581 104.5879 L 97.42581 102.5879 L 97.42581 100.5879 L 97.42581 98.58789 L 97.42581 96.58789 L 97.42581 94.58789 L 97.42581 92.58789 L 97.42581 90.58789 L 96.74178 88.7085 L 96.05773 86.8291 L 95.37369 84.94971 L 94.68965 83.07031 L 94.00562 81.19092 L 93.32157 79.31152 L 92.63753 77.43213 L 91.95349 75.55273 L 90.66791 74.02066 L 89.38234 72.48859 L 88.09676 70.95651 L 86.81119 69.42444 L 85.07913 68.42444 L 83.34708 67.42444 L 81.37747 67.07715 L 79.40785 66.72986 M 83.34708 67.42444 L 81.61504 66.42444 L 79.88298 65.42444 L 78.5974 63.89236 L 77.31183 62.36029 M 79.88298 65.42444 L 77.91336 65.07715 L 75.94375 64.72986 M 86.81119 69.42444 L 85.52561 67.89236 L 84.24004 66.36029 L 82.95446 64.82822 L 81.66888 63.29614 L 80.98484 61.41675 L 80.3008 59.53735 L 79.01523 58.00528 L 77.72965 56.47321 M 80.3008 59.53735 L 79.61676 57.65796 L 78.93272 55.77856 L 78.93272 53.77856 L 78.93272 51.77856 M 78.93272 55.77856 L 77.64716 54.24649 L 76.36157 52.71442 M 81.66888 63.29614 L 79.93683 62.29614 L 78.20478 61.29614 L 76.23517 60.94885 L 74.26555 60.60156 M 78.20478 61.29614 L 76.47273 60.29614 L 74.74068 59.29614 L 73.45511 57.76407 L 72.16953 56.23199 M 74.74068 59.29614 L 72.77107 58.94885 L 70.80146 58.60156 M 91.95349 75.55273 L 91.26945 73.67334 L 90.58541 71.79395 L 89.90137 69.91455 L 89.21733 68.03516 L 88.53329 66.15576 L 87.84925 64.27637 L 87.16521 62.39697 L 86.48117 60.51758 L 86.48117 58.51758 L 86.48117 56.51758 L 86.48117 54.51758 L 86.48117 52.51758 L 85.79713 50.63818 L 85.11309 48.75879 L 83.82751 47.22672 L 82.54195 45.69464 M 85.11309 48.75879 L 84.42905 46.87939 L 83.74501 45 L 83.74501 43 L 83.74501 41 M 83.74501 45 L 82.45943 43.46793 L 81.17386 41.93585 M 86.48117 52.51758 L 86.48117 50.51758 L 86.48117 48.51758 L 86.48117 46.51758 L 86.48117 44.51758 L 87.16521 42.63818 L 87.84925 40.75879 L 87.84925 38.75879 L 87.84925 36.75879 M 87.84925 40.75879 L 88.53329 38.87939 L 89.21733 37 L 90.50291 35.46793 L 91.78848 33.93585 M 89.21733 37 L 89.21733 35 L 89.21733 33 M 86.48117 44.51758 L 85.79713 42.63818 L 85.11309 40.75879 L 83.82751 39.22672 L 82.54195 37.69464 M 85.11309 40.75879 L 84.42905 38.87939 L 83.74501 37 L 83.74501 35 L 83.74501 33 M 83.74501 37 L 82.45943 35.46793 L 81.17386 33.93585 M 86.48117 60.51758 L 85.19559 58.9855 L 83.91002 57.45343 L 82.62444 55.92136 L 81.33887 54.38928 L 79.60681 53.38928 L 77.87476 52.38928 L 75.90515 52.04199 L 73.93554 51.6947 M 77.87476 52.38928 L 76.14271 51.38928 L 74.41068 50.38928 L 73.12509 48.85721 L 71.83951 47.32513 M 74.41068 50.38928 L 72.44105 50.04199 L 70.47144 49.6947 M 81.33887 54.38928 L 80.05329 52.85721 L 78.76772 51.32513 L 77.48214 49.79306 L 76.19656 48.26099 L 75.51252 46.38159 L 74.82847 44.5022 L 73.5429 42.97012 L 72.25732 41.43805 M 74.82847 44.5022 L 74.14443 42.6228 L 73.46039 40.74341 L 73.46039 38.74341 L 73.46039 36.74341 M 73.46039 40.74341 L 72.17481 39.21133 L 70.88923 37.67926 M 76.19656 48.26099 L 74.46451 47.26099 L 72.73248 46.26099 L 70.76285 45.9137 L 68.79324 45.56641 M 72.73248 46.26099 L 71.00042 45.26099 L 69.26837 44.26099 L 67.98279 42.72891 L 66.69722 41.19684 M 69.26837 44.26099 L 67.29876 43.9137 L 65.32915 43.56641 M 97.42581 90.58789 L 97.42581 88.58789 L 97.42581 86.58789 L 97.42581 84.58789 L 97.42581 82.58789 L 97.42581 80.58789 L 97.42581 78.58789 L 97.42581 76.58789 L 97.42581 74.58789 L 97.42581 72.58789 L 97.42581 70.58789 L 97.42581 68.58789 L 97.42581 66.58789 L 97.42581 64.58789 L 97.42581 62.58789 L 97.42581 60.58789 L 97.42581 58.58789 L 98.10985 56.7085 L 98.79389 54.8291 L 99.47794 52.94971 L 100.162 51.07031 L 100.846 49.19092 L 101.5301 47.31152 L 102.2141 45.43213 L 102.8981 43.55273 L 102.8981 41.55273 L 102.8981 39.55273 L 102.8981 37.55273 L 102.8981 35.55273 L 102.2141 33.67334 L 101.5301 31.79395 L 100.2445 30.26187 L 98.9589 28.7298 M 101.5301 31.79395 L 100.846 29.91455 L 100.162 28.03516 L 100.162 26.03516 L 100.162 24.03516 M 100.162 28.03516 L 98.87639 26.50308 L 97.59082 24.97101 M 102.8981 35.55273 L 102.8981 33.55273 L 102.8981 31.55273 L 102.8981 29.55273 L 102.8981 27.55273 L 103.5822 25.67334 L 104.2662 23.79395 L 104.2662 21.79395 L 104.2662 19.79395 M 104.2662 23.79395 L 104.9503 21.91455 L 105.6343 20.03516 L 106.9199 18.50308 L 108.2054 16.97101 M 105.6343 20.03516 L 105.6343 18.03516 L 105.6343 16.03516 M 102.8981 27.55273 L 102.2141 25.67334 L 101.5301 23.79395 L 100.2445 22.26187 L 98.9589 20.7298 M 101.5301 23.79395 L 100.846 21.91455 L 100.162 20.03516 L 100.162 18.03516 L 100.162 16.03516 M 100.162 20.03516 L 98.87639 18.50308 L 97.59082 16.97101 M 102.8981 43.55273 L 103.5822 41.67334 L 104.2662 39.79395 L 104.9503 37.91455 L 105.6343 36.03516 L 106.3183 34.15576 L 107.0024 32.27637 L 107.6864 30.39697 L 108.3705 28.51758 L 109.656 26.9855 L 110.9416 25.45343 L 112.2272 23.92136 L 113.5127 22.38928 L 114.1968 20.50989 L 114.8808 18.63049 L 114.8808 16.63049 L 114.8808 14.63049 M 114.8808 18.63049 L 115.5649 16.7511 L 116.2489 14.8717 L 117.5345 13.33963 L 118.8201 11.80756 M 116.2489 14.8717 L 116.2489 12.8717 L 116.2489 10.8717 M 113.5127 22.38928 L 114.7983 20.85721 L 116.0839 19.32513 L 117.3695 17.79306 L 118.6551 16.26099 L 120.3871 15.26099 L 122.1192 14.26099 L 123.4047 12.72891 L 124.6903 11.19684 M 122.1192 14.26099 L 123.8512 13.26099 L 125.5833 12.26099 L 127.5529 11.9137 L 129.5225 11.56641 M 125.5833 12.26099 L 126.8688 10.72891 L 128.1544 9.196838 M 118.6551 16.26099 L 119.3391 14.38159 L 120.0231 12.5022 L 120.0231 10.5022 L 120.0231 8.502197 M 120.0231 12.5022 L 120.7072 10.6228 L 121.3912 8.743408 L 122.6768 7.211334 L 123.9624 5.67926 M 121.3912 8.743408 L 121.3912 6.743408 L 121.3912 4.743408 M 108.3705 28.51758 L 108.3705 26.51758 L 108.3705 24.51758 L 108.3705 22.51758 L 108.3705 20.51758 L 107.6864 18.63818 L 107.0024 16.75879 L 105.7168 15.22672 L 104.4312 13.69464 M 107.0024 16.75879 L 106.3183 14.87939 L 105.6343 13 L 105.6343 11 L 105.6343 9 M 105.6343 13 L 104.3487 11.46793 L 103.0631 9.935852 M 108.3705 20.51758 L 108.3705 18.51758 L 108.3705 16.51758 L 108.3705 14.51758 L 108.3705 12.51758 L 109.0545 10.63818 L 109.7385 8.758789 L 109.7385 6.758789 L 109.7385 4.758789 M 109.7385 8.758789 L 110.4226 6.879395 L 111.1066 5 L 112.3922 3.467926 L 113.6778 1.935852 M 111.1066 5 L 111.1066 3 L 111.1066 1 M 108.3705 12.51758 L 107.6864 10.63818 L 107.0024 8.758789 L 105.7168 7.226715 L 104.4312 5.694641 M 107.0024 8.758789 L 106.3183 6.879395 L 105.6343 5 L 105.6343 3 L 105.6343 1 M 105.6343 5 L 104.3487 3.467926 L 103.0631 1.935852 M 97.42581 58.58789 L 96.74178 56.7085 L 96.05773 54.8291 L 95.37369 52.94971 L 94.68965 51.07031 L 94.00562 49.19092 L 93.32157 47.31152 L 92.63753 45.43213 L 91.95349 43.55273 L 90.66791 42.02066 L 89.38234 40.48859 L 88.09676 38.95651 L 86.81119 37.42444 L 85.07913 36.42444 L 83.34708 35.42444 L 81.37747 35.07715 L 79.40785 34.72986 M 83.34708 35.42444 L 81.61504 34.42444 L 79.88298 33.42444 L 78.5974 31.89236 L 77.31183 30.36029 M 79.88298 33.42444 L 77.91336 33.07715 L 75.94375 32.72986 M 86.81119 37.42444 L 85.52561 35.89236 L 84.24004 34.36029 L 82.95446 32.82822 L 81.66888 31.29614 L 80.98484 29.41675 L 80.3008 27.53735 L 79.01523 26.00528 L 77.72965 24.47321 M 80.3008 27.53735 L 79.61676 25.65796 L 78.93272 23.77856 L 78.93272 21.77856 L 78.93272 19.77856 M 78.93272 23.77856 L 77.64716 22.24649 L 76.36157 20.71442 M 81.66888 31.29614 L 79.93683 30.29614 L 78.20478 29.29614 L 76.23517 28.94885 L 74.26555 28.60156 M 78.20478 29.29614 L 76.47273 28.29614 L 74.74068 27.29614 L 73.45511 25.76407 L 72.16953 24.23199 M 74.74068 27.29614 L 72.77107 26.94885 L 70.80146 26.60156 M 91.95349 43.55273 L 91.26945 41.67334 L 90.58541 39.79395 L 89.90137 37.91455 L 89.21733 36.03516 L 88.53329 34.15576 L 87.84925 32.27637 L 87.16521 30.39697 L 86.48117 28.51758 L 86.48117 26.51758 L 86.48117 24.51758 L 86.48117 22.51758 L 86.48117 20.51758 L 85.79713 18.63818 L 85.11309 16.75879 L 83.82751 15.22672 L 82.54195 13.69464 M 85.11309 16.75879 L 84.42905 14.87939 L 83.74501 13 L 83.74501 11 L 83.74501 9 M 83.74501 13 L 82.45943 11.46793 L 81.17386 9.935852 M 86.48117 20.51758 L 86.48117 18.51758 L 86.48117 16.51758 L 86.48117 14.51758 L 86.48117 12.51758 L 87.16521 10.63818 L 87.84925 8.758789 L 87.84925 6.758789 L 87.84925 4.758789 M 87.84925 8.758789 L 88.53329 6.879395 L 89.21733 5 L 90.50291 3.467926 L 91.78848 1.935852 M 89.21733 5 L 89.21733 3 L 89.21733 1 M 86.48117 12.51758 L 85.79713 10.63818 L 85.11309 8.758789 L 83.82751 7.226715 L 82.54195 5.694641 M 85.11309 8.758789 L 84.42905 6.879395 L 83.74501 5 L 83.74501 3 L 83.74501 1 M 83.74501 5 L 82.45943 3.467926 L 81.17386 1.935852 M 86.48117 28.51758 L 85.19559 26.9855 L 83.91002 25.45343 L 82.62444 23.92136 L 81.33887 22.38928 L 79.60681 21.38928 L 77.87476 20.38928 L 75.90515 20.04199 L 73.93554 19.6947 M 77.87476 20.38928 L 76.14271 19.38928 L 74.41068 18.38928 L 73.12509 16.85721 L 71.83951 15.32513 M 74.41068 18.38928 L 72.44105 18.04199 L 70.47144 17.6947 M 81.33887 22.38928 L 80.05329 20.85721 L 78.76772 19.32513 L 77.48214 17.79306 L 76.19656 16.26099 L 75.51252 14.38159 L 74.82847 12.5022 L 73.5429 10.97012 L 72.25732 9.438049 M 74.82847 12.5022 L 74.14443 10.6228 L 73.46039 8.743408 L 73.46039 6.743408 L 73.46039 4.743408 M 73.46039 8.743408 L 72.17481 7.211334 L 70.88923 5.67926 M 76.19656 16.26099 L 74.46451 15.26099 L 72.73248 14.26099 L 70.76285 13.9137 L 68.79324 13.56641 M 72.73248 14.26099 L 71.00042 13.26099 L 69.26837 12.26099 L 67.98279 10.72891 L 66.69722 9.196838 M 69.26837 12.26099 L 67.29876 11.9137 L 65.32915 11.56641 M 97.42581 122.5879 L 96.14023 121.0558 L 94.85466 119.5237 L 93.56908 117.9917 L 92.28351 116.4596 L 90.99793 114.9275 L 89.71236 113.3954 L 88.42678 111.8634 L 87.1412 110.3313 L 85.85564 108.7992 L 84.57005 107.2672 L 83.28448 105.7351 L 81.9989 104.203 L 80.71332 102.6709 L 79.42775 101.1389 L 78.14217 99.60678 L 76.8566 98.07471 L 75.12455 97.07471 L 73.3925 96.07471 L 71.66045 95.07471 L 69.9284 94.07471 L 68.19636 93.07471 L 66.46431 92.07471 L 64.73226 91.07471 L 63.00021 90.07471 L 61.0306 89.72742 L 59.06099 89.38013 L 57.09138 89.03284 L 55.12177 88.68555 L 53.15215 89.03284 L 51.18254 89.38013 L 49.45049 90.38013 L 47.71844 91.38013 M 51.18254 89.38013 L 49.21293 89.72742 L 47.24332 90.07471 L 45.2737 89.72742 L 43.30409 89.38013 M 47.24332 90.07471 L 45.51127 91.07471 L 43.77922 92.07471 M 55.12177 88.68555 L 53.15215 88.33826 L 51.18254 87.99097 L 49.21293 87.64368 L 47.24332 87.29639 L 45.51127 86.29639 L 43.77922 85.29639 L 41.80961 84.9491 L 39.83999 84.60181 M 43.77922 85.29639 L 42.04717 84.29639 L 40.31512 83.29639 L 39.02955 81.76431 L 37.74397 80.23224 M 40.31512 83.29639 L 38.34551 82.9491 L 36.3759 82.60181 M 47.24332 87.29639 L 45.2737 87.64368 L 43.30409 87.99097 L 41.57204 88.99097 L 39.83999 89.99097 M 43.30409 87.99097 L 41.33448 88.33826 L 39.36487 88.68555 L 37.39525 88.33826 L 35.42564 87.99097 M 39.36487 88.68555 L 37.63282 89.68555 L 35.90077 90.68555 M 63.00021 90.07471 L 61.26816 89.07471 L 59.53613 88.07471 L 57.80407 87.07471 L 56.07202 86.07471 L 54.33997 85.07471 L 52.60792 84.07471 L 50.87589 83.07471 L 49.14383 82.07471 L 47.85825 80.54263 L 46.57269 79.01056 L 45.2871 77.47849 L 44.00152 75.94641 L 42.26948 74.94641 L 40.53743 73.94641 L 38.56782 73.59912 L 36.5982 73.25183 M 40.53743 73.94641 L 38.80538 72.94641 L 37.07333 71.94641 L 35.78776 70.41434 L 34.50218 68.88226 M 37.07333 71.94641 L 35.10372 71.59912 L 33.13411 71.25183 M 44.00152 75.94641 L 42.71595 74.41434 L 41.43037 72.88226 L 40.1448 71.35019 L 38.85922 69.81812 L 38.17518 67.93872 L 37.49113 66.05933 L 36.20556 64.52725 L 34.91998 62.99518 M 37.49113 66.05933 L 36.80709 64.17993 L 36.12305 62.30054 L 36.12305 60.30054 L 36.12305 58.30054 M 36.12305 62.30054 L 34.83747 60.76846 L 33.5519 59.23639 M 38.85922 69.81812 L 37.12717 68.81812 L 35.39512 67.81812 L 33.42551 67.47083 L 31.4559 67.12354 M 35.39512 67.81812 L 33.66308 66.81812 L 31.93103 65.81812 L 30.64545 64.28604 L 29.35988 62.75397 M 31.93103 65.81812 L 29.96142 65.47083 L 27.9918 65.12354 M 49.14383 82.07471 L 47.17422 81.72742 L 45.20461 81.38013 L 43.23499 81.03284 L 41.26538 80.68555 L 39.29577 81.03284 L 37.32616 81.38013 L 35.59411 82.38013 L 33.86206 83.38013 M 37.32616 81.38013 L 35.35654 81.72742 L 33.38693 82.07471 L 31.41732 81.72742 L 29.44771 81.38013 M 33.38693 82.07471 L 31.65488 83.07471 L 29.92283 84.07471 M 41.26538 80.68555 L 39.29577 80.33826 L 37.32616 79.99097 L 35.35654 79.64368 L 33.38693 79.29639 L 31.65488 78.29639 L 29.92283 77.29639 L 27.95322 76.9491 L 25.98361 76.60181 M 29.92283 77.29639 L 28.19079 76.29639 L 26.45874 75.29639 L 25.17316 73.76431 L 23.88759 72.23224 M 26.45874 75.29639 L 24.48913 74.9491 L 22.51951 74.60181 M 33.38693 79.29639 L 31.41732 79.64368 L 29.44771 79.99097 L 27.71566 80.99097 L 25.98361 81.99097 M 29.44771 79.99097 L 27.47809 80.33826 L 25.50848 80.68555 L 23.53887 80.33826 L 21.56926 79.99097 M 25.50848 80.68555 L 23.77643 81.68555 L 22.04439 82.68555 M 76.8566 98.07471 L 75.57102 96.54263 L 74.28544 95.01056 L 72.99987 93.47849 L 71.71429 91.94641 L 70.42872 90.41434 L 69.14314 88.88226 L 67.85757 87.35019 L 66.57199 85.81812 L 65.28642 84.28604 L 64.00084 82.75397 L 62.71526 81.22189 L 61.4297 79.68982 L 60.14411 78.15775 L 58.85853 76.62567 L 57.57296 75.0936 L 56.28738 73.56152 L 55.60334 71.68213 L 54.91929 69.80273 L 54.23525 67.92334 L 53.55121 66.04395 L 52.86716 64.16455 L 52.18312 62.28516 L 51.49908 60.40576 L 50.81503 58.52637 L 49.52946 56.99429 L 48.24388 55.46222 L 46.9583 53.93015 L 45.67273 52.39807 L 43.94068 51.39807 L 42.20863 50.39807 L 40.23902 50.05078 L 38.26941 49.70349 M 42.20863 50.39807 L 40.47658 49.39807 L 38.74454 48.39807 L 37.45896 46.866 L 36.17338 45.33392 M 38.74454 48.39807 L 36.77493 48.05078 L 34.80531 47.70349 M 45.67273 52.39807 L 44.38715 50.866 L 43.10158 49.33392 L 41.816 47.80185 L 40.53042 46.26978 L 39.84638 44.39038 L 39.16234 42.51099 L 37.87676 40.97891 L 36.59119 39.44684 M 39.16234 42.51099 L 38.47829 40.63159 L 37.79425 38.7522 L 37.79425 36.7522 L 37.79425 34.7522 M 37.79425 38.7522 L 36.50867 37.22012 L 35.2231 35.68805 M 40.53042 46.26978 L 38.79838 45.26978 L 37.06633 44.26978 L 35.09672 43.92249 L 33.1271 43.5752 M 37.06633 44.26978 L 35.33428 43.26978 L 33.60223 42.26978 L 32.31666 40.7377 L 31.03108 39.20563 M 33.60223 42.26978 L 31.63262 41.92249 L 29.66301 41.5752 M 50.81503 58.52637 L 50.13099 56.64697 L 49.44695 54.76758 L 48.7629 52.88818 L 48.07887 51.00879 L 47.39481 49.12939 L 46.71077 47.25 L 46.02672 45.37061 L 45.34268 43.49121 L 45.34268 41.49121 L 45.34268 39.49121 L 45.34268 37.49121 L 45.34268 35.49121 L 44.65864 33.61182 L 43.97459 31.73242 L 42.68902 30.20035 L 41.40344 28.66827 M 43.97459 31.73242 L 43.29055 29.85303 L 42.6065 27.97363 L 42.6065 25.97363 L 42.6065 23.97363 M 42.6065 27.97363 L 41.32093 26.44156 L 40.03535 24.90948 M 45.34268 35.49121 L 45.34268 33.49121 L 45.34268 31.49121 L 45.34268 29.49121 L 45.34268 27.49121 L 46.02672 25.61182 L 46.71077 23.73242 L 46.71077 21.73242 L 46.71077 19.73242 M 46.71077 23.73242 L 47.39481 21.85303 L 48.07887 19.97363 L 49.36443 18.44156 L 50.65001 16.90948 M 48.07887 19.97363 L 48.07887 17.97363 L 48.07887 15.97363 M 45.34268 27.49121 L 44.65864 25.61182 L 43.97459 23.73242 L 42.68902 22.20035 L 41.40344 20.66827 M 43.97459 23.73242 L 43.29055 21.85303 L 42.6065 19.97363 L 42.6065 17.97363 L 42.6065 15.97363 M 42.6065 19.97363 L 41.32093 18.44156 L 40.03535 16.90948 M 45.34268 43.49121 L 44.0571 41.95914 L 42.77153 40.42706 L 41.48595 38.89499 L 40.20038 37.36292 L 38.46833 36.36292 L 36.73628 35.36292 L 34.76667 35.01563 L 32.79706 34.66833 M 36.73628 35.36292 L 35.00423 34.36292 L 33.27218 33.36292 L 31.98661 31.83084 L 30.70103 30.29877 M 33.27218 33.36292 L 31.30257 33.01563 L 29.33296 32.66833 M 40.20038 37.36292 L 38.9148 35.83084 L 37.62923 34.29877 L 36.34365 32.76669 L 35.05807 31.23462 L 34.37403 29.35522 L 33.68999 27.47583 L 32.40441 25.94376 L 31.11883 24.41168 M 33.68999 27.47583 L 33.00594 25.59644 L 32.3219 23.71704 L 32.3219 21.71704 L 32.3219 19.71704 M 32.3219 23.71704 L 31.03632 22.18497 L 29.75075 20.65289 M 35.05807 31.23462 L 33.32603 30.23462 L 31.59398 29.23462 L 29.62437 28.88733 L 27.65475 28.54004 M 31.59398 29.23462 L 29.86193 28.23462 L 28.12988 27.23462 L 26.84431 25.70255 L 25.55873 24.17047 M 28.12988 27.23462 L 26.16027 26.88733 L 24.19066 26.54004 M 56.28738 73.56152 L 54.55533 72.56152 L 52.82329 71.56152 L 51.09124 70.56152 L 49.35919 69.56152 L 47.62714 68.56152 L 45.89509 67.56152 L 44.16305 66.56152 L 42.431 65.56152 L 40.4614 65.21423 L 38.49177 64.86694 L 36.52216 64.51965 L 34.55255 64.17236 L 32.58294 64.51965 L 30.61333 64.86694 L 28.88128 65.86694 L 27.14923 66.86694 M 30.61333 64.86694 L 28.64371 65.21423 L 26.6741 65.56152 L 24.70449 65.21423 L 22.73488 64.86694 M 26.6741 65.56152 L 24.94205 66.56152 L 23.21001 67.56152 M 34.55255 64.17236 L 32.58294 63.82507 L 30.61333 63.47778 L 28.64371 63.13049 L 26.6741 62.7832 L 24.94205 61.7832 L 23.21001 60.7832 L 21.24039 60.43591 L 19.27078 60.08862 M 23.21001 60.7832 L 21.47796 59.7832 L 19.74591 58.7832 L 18.46033 57.25113 L 17.17476 55.71906 M 19.74591 58.7832 L 17.7763 58.43591 L 15.80668 58.08862 M 26.6741 62.7832 L 24.70449 63.13049 L 22.73488 63.47778 L 21.00283 64.47778 L 19.27078 65.47778 M 22.73488 63.47778 L 20.76526 63.82507 L 18.79565 64.17236 L 16.82604 63.82507 L 14.85643 63.47778 M 18.79565 64.17236 L 17.0636 65.17236 L 15.33156 66.17236 M 42.431 65.56152 L 40.69895 64.56152 L 38.9669 63.56152 L 37.23485 62.56152 L 35.50282 61.56152 L 33.77076 60.56152 L 32.03871 59.56152 L 30.30666 58.56152 L 28.57461 57.56152 L 27.28904 56.02945 L 26.00346 54.49738 L 24.71789 52.9653 L 23.43231 51.43323 L 21.70026 50.43323 L 19.96821 49.43323 L 17.9986 49.08594 L 16.02899 48.73865 M 19.96821 49.43323 L 18.23617 48.43323 L 16.50412 47.43323 L 15.21854 45.90115 L 13.93297 44.36908 M 16.50412 47.43323 L 14.53451 47.08594 L 12.5649 46.73865 M 23.43231 51.43323 L 22.14673 49.90115 L 20.86116 48.36908 L 19.57558 46.83701 L 18.29001 45.30493 L 17.60596 43.42554 L 16.92192 41.54614 L 15.63634 40.01407 L 14.35077 38.48199 M 16.92192 41.54614 L 16.23788 39.66675 L 15.55383 37.78735 L 15.55383 35.78735 L 15.55383 33.78735 M 15.55383 37.78735 L 14.26826 36.25528 L 12.98268 34.72321 M 18.29001 45.30493 L 16.55796 44.30493 L 14.82591 43.30493 L 12.85629 42.95764 L 10.88667 42.61035 M 14.82591 43.30493 L 13.09386 42.30493 L 11.3618 41.30493 L 10.07623 39.77286 L 8.790665 38.24078 M 11.3618 41.30493 L 9.392181 40.95764 L 7.422562 40.61035 M 28.57461 57.56152 L 26.605 57.21423 L 24.63539 56.86694 L 22.66578 56.51965 L 20.69617 56.17236 L 18.72655 56.51965 L 16.75694 56.86694 L 15.02489 57.86694 L 13.29285 58.86694 M 16.75694 56.86694 L 14.78733 57.21423 L 12.81772 57.56152 L 10.8481 57.21423 L 8.878479 56.86694 M 12.81772 57.56152 L 11.08566 58.56152 L 9.353607 59.56152 M 20.69617 56.17236 L 18.72655 55.82507 L 16.75694 55.47778 L 14.78733 55.13049 L 12.81772 54.7832 L 11.08566 53.7832 L 9.353607 52.7832 L 7.383987 52.43591 L 5.414368 52.08862 M 9.353607 52.7832 L 7.621552 51.7832 L 5.889496 50.7832 L 4.603928 49.25113 L 3.318359 47.71906 M 5.889496 50.7832 L 3.919876 50.43591 L 1.950256 50.08862 M 12.81772 54.7832 L 10.8481 55.13049 L 8.878479 55.47778 L 7.146423 56.47778 L 5.414368 57.47778 M 8.878479 55.47778 L 6.908859 55.82507 L 4.93924 56.17236 L 2.96962 55.82507 L 1 55.47778 M 4.93924 56.17236 L 3.207184 57.17236 L 1.475128 58.17236 " />
  </g>
</svg>
