<?xml version="1.0" encoding="UTF-8" standalone="no"?>
<!DOCTYPE svg PUBLIC "-//W3C//DTD SVG 1.1//EN"
    "http://www.w3.org/Graphics/SVG/1.1/DTD/svg11.dtd">
<svg xmlns="http://www.w3.org/2000/svg" width="150" height="317">
  <desc>plant_b LSystem</desc>
  <g stroke="black" fill="none" stroke-width="1">
    <path d="M 62.8899 316 L 62.8899 311 L 61.1798 306.3015 M 62.8899 311 L 62.8899 306 L 64.6 301.3015 M 62.8899 306 L 62.8899 301 M 62.8899 306 L 61.1798 301.3015 L 57.96586 297.4713 M 61.1798 301.3015 L 59.4697 296.6031 L 59.4697 291.6031 M 59.4697 296.6031 L 57.7596 291.9046 M 62.8899 306 L 62.8899 301 L 61.1798 296.3015 M 62.8899 301 L 62.8899 296 L 64.6 291.3015 M 62.8899 296 L 62.8899 291 M 62.8899 296 L 64.6 291.3015 L 64.6 286.3015 M 64.6 291.3015 L 66.3101 286.6031 L 69.52404 282.7729 M 66.3101 286.6031 L 68.0202 281.9046 M 62.8899 296 L 62.8899 291 L 61.1798 286.3015 M 62.8899 291 L 62.8899 286 L 64.6 281.3015 M 62.8899 286 L 62.8899 281 M 62.8899 296 L 61.1798 291.3015 L 57.96586 287.4713 M 61.1798 291.3015 L 59.4697 286.6031 L 59.4697 281.6031 M 59.4697 286.6031 L 57.7596 281.9046 M 59.4697 286.6031 L 56.25576 282.7729 L 51.92563 280.2729 M 56.25576 282.7729 L 53.04182 278.9426 L 51.33172 274.2442 M 53.04182 278.9426 L 49.82788 275.1124 M 59.4697 286.6031 L 57.7596 281.9046 L 54.54566 278.0744 M 57.7596 281.9046 L 56.0495 277.2062 L 56.0495 272.2062 M 56.0495 277.2062 L 54.3394 272.5077 M 56.0495 277.2062 L 56.0495 272.2062 L 54.3394 267.5077 M 56.0495 272.2062 L 56.0495 267.2062 L 57.7596 262.5077 M 56.0495 267.2062 L 56.0495 262.2062 M 56.0495 277.2062 L 54.3394 272.5077 L 51.12546 268.6775 M 54.3394 272.5077 L 52.6293 267.8092 L 52.6293 262.8092 M 52.6293 267.8092 L 50.9192 263.1108 M 62.8899 296 L 62.8899 291 L 61.1798 286.3015 M 62.8899 291 L 62.8899 286 L 64.6 281.3015 M 62.8899 286 L 62.8899 281 M 62.8899 286 L 61.1798 281.3015 L 57.96586 277.4713 M 61.1798 281.3015 L 59.4697 276.6031 L 59.4697 271.6031 M 59.4697 276.6031 L 57.7596 271.9046 M 62.8899 286 L 62.8899 281 L 61.1798 276.3015 M 62.8899 281 L 62.8899 276 L 64.6 271.3015 M 62.8899 276 L 62.8899 271 M 62.8899 276 L 64.6 271.3015 L 64.6 266.3015 M 64.6 271.3015 L 66.3101 266.6031 L 69.52404 262.7729 M 66.3101 266.6031 L 68.0202 261.9046 M 62.8899 276 L 62.8899 271 L 61.1798 266.3015 M 62.8899 271 L 62.8899 266 L 64.6 261.3015 M 62.8899 266 L 62.8899 261 M 62.8899 276 L 64.6 271.3015 L 64.6 266.3015 M 64.6 271.3015 L 66.3101 266.6031 L 69.52404 262.7729 M 66.3101 266.6031 L 68.0202 261.9046 M 66.3101 266.6031 L 66.3101 261.6031 L 64.6 256.9046 M 66.3101 261.6031 L 66.3101 256.6031 L 68.0202 251.9046 M 66.3101 256.6031 L 66.3101 251.6031 M 66.3101 266.6031 L 68.0202 261.9046 L 68.0202 256.9046 M 68.0202 261.9046 L 69.7303 257.2062 L 72.94424 253.3759 M 69.7303 257.2062 L 71.4404 252.5077 M 69.7303 257.2062 L 72.94424 253.3759 L 74.65434 248.6775 M 72.94424 253.3759 L 76.15818 249.5457 L 80.48831 247.0457 M 76.15818 249.5457 L 79.37212 245.7155 M 69.7303 257.2062 L 71.4404 252.5077 L 71.4404 247.5077 M 71.4404 252.5077 L 73.1505 247.8092 L 76.36444 243.979 M 73.1505 247.8092 L 74.8606 243.1108 M 62.8899 276 L 62.8899 271 L 61.1798 266.3015 M 62.8899 271 L 62.8899 266 L 64.6 261.3015 M 62.8899 266 L 62.8899 261 M 62.8899 266 L 61.1798 261.3015 L 57.96586 257.4713 M 61.1798 261.3015 L 59.4697 256.6031 L 59.4697 251.6031 M 59.4697 256.6031 L 57.7596 251.9046 M 62.8899 266 L 62.8899 261 L 61.1798 256.3015 M 62.8899 261 L 62.8899 256 L 64.6 251.3015 M 62.8899 256 L 62.8899 251 M 62.8899 256 L 64.6 251.3015 L 64.6 246.3015 M 64.6 251.3015 L 66.3101 246.6031 L 69.52404 242.7729 M 66.3101 246.6031 L 68.0202 241.9046 M 62.8899 256 L 62.8899 251 L 61.1798 246.3015 M 62.8899 251 L 62.8899 246 L 64.6 241.3015 M 62.8899 246 L 62.8899 241 M 62.8899 276 L 61.1798 271.3015 L 57.96586 267.4713 M 61.1798 271.3015 L 59.4697 266.6031 L 59.4697 261.6031 M 59.4697 266.6031 L 57.7596 261.9046 M 59.4697 266.6031 L 56.25576 262.7729 L 51.92563 260.2729 M 56.25576 262.7729 L 53.04182 258.9426 L 51.33172 254.2442 M 53.04182 258.9426 L 49.82788 255.1124 M 59.4697 266.6031 L 57.7596 261.9046 L 54.54566 258.0744 M 57.7596 261.9046 L 56.0495 257.2062 L 56.0495 252.2062 M 56.0495 257.2062 L 54.3394 252.5077 M 56.0495 257.2062 L 56.0495 252.2062 L 54.3394 247.5077 M 56.0495 252.2062 L 56.0495 247.2062 L 57.7596 242.5077 M 56.0495 247.2062 L 56.0495 242.2062 M 56.0495 257.2062 L 54.3394 252.5077 L 51.12546 248.6775 M 54.3394 252.5077 L 52.6293 247.8092 L 52.6293 242.8092 M 52.6293 247.8092 L 50.9192 243.1108 M 56.0495 257.2062 L 52.83556 253.3759 L 48.50543 250.8759 M 52.83556 253.3759 L 49.62162 249.5457 L 47.91152 244.8473 M 49.62162 249.5457 L 46.40768 245.7155 M 49.62162 249.5457 L 45.29149 247.0457 L 40.36745 246.1775 M 45.29149 247.0457 L 40.96136 244.5457 L 37.74742 240.7155 M 40.96136 244.5457 L 36.63123 242.0457 M 49.62162 249.5457 L 46.40768 245.7155 L 42.07755 243.2155 M 46.40768 245.7155 L 43.19374 241.8853 L 41.48364 237.1868 M 43.19374 241.8853 L 39.9798 238.0551 M 43.19374 241.8853 L 41.48364 237.1868 L 38.2697 233.3566 M 41.48364 237.1868 L 39.77354 232.4883 L 39.77354 227.4883 M 39.77354 232.4883 L 38.06344 227.7899 M 43.19374 241.8853 L 39.9798 238.0551 L 35.64967 235.5551 M 39.9798 238.0551 L 36.76586 234.2248 L 35.05576 229.5264 M 36.76586 234.2248 L 33.55192 230.3946 M 56.0495 257.2062 L 54.3394 252.5077 L 51.12546 248.6775 M 54.3394 252.5077 L 52.6293 247.8092 L 52.6293 242.8092 M 52.6293 247.8092 L 50.9192 243.1108 M 52.6293 247.8092 L 49.41536 243.979 L 45.08523 241.479 M 49.41536 243.979 L 46.20142 240.1488 L 44.49132 235.4503 M 46.20142 240.1488 L 42.98748 236.3186 M 52.6293 247.8092 L 50.9192 243.1108 L 47.70526 239.2806 M 50.9192 243.1108 L 49.2091 238.4123 L 49.2091 233.4123 M 49.2091 238.4123 L 47.499 233.7139 M 49.2091 238.4123 L 49.2091 233.4123 L 47.499 228.7139 M 49.2091 233.4123 L 49.2091 228.4123 L 50.9192 223.7139 M 49.2091 228.4123 L 49.2091 223.4123 M 49.2091 238.4123 L 47.499 233.7139 L 44.28506 229.8836 M 47.499 233.7139 L 45.7889 229.0154 L 45.7889 224.0154 M 45.7889 229.0154 L 44.0788 224.3169 M 49.2091 238.4123 L 49.2091 233.4123 L 47.499 228.7139 M 49.2091 233.4123 L 49.2091 228.4123 L 50.9192 223.7139 M 49.2091 228.4123 L 49.2091 223.4123 M 49.2091 228.4123 L 47.499 223.7139 L 44.28506 219.8836 M 47.499 223.7139 L 45.7889 219.0154 L 45.7889 214.0154 M 45.7889 219.0154 L 44.0788 214.3169 M 49.2091 228.4123 L 49.2091 223.4123 L 47.499 218.7139 M 49.2091 223.4123 L 49.2091 218.4123 L 50.9192 213.7139 M 49.2091 218.4123 L 49.2091 213.4123 M 49.2091 218.4123 L 50.9192 213.7139 L 50.9192 208.7139 M 50.9192 213.7139 L 52.6293 209.0154 L 55.84324 205.1852 M 52.6293 209.0154 L 54.3394 204.3169 M 49.2091 218.4123 L 49.2091 213.4123 L 47.499 208.7139 M 49.2091 213.4123 L 49.2091 208.4123 L 50.9192 203.7139 M 49.2091 208.4123 L 49.2091 203.4123 M 49.2091 238.4123 L 47.499 233.7139 L 44.28506 229.8836 M 47.499 233.7139 L 45.7889 229.0154 L 45.7889 224.0154 M 45.7889 229.0154 L 44.0788 224.3169 M 45.7889 229.0154 L 42.57496 225.1852 L 38.24483 222.6852 M 42.57496 225.1852 L 39.36102 221.3549 L 37.65092 216.6565 M 39.36102 221.3549 L 36.14708 217.5247 M 45.7889 229.0154 L 44.0788 224.3169 L 40.86486 220.4867 M 44.0788 224.3169 L 42.3687 219.6185 L 42.3687 214.6185 M 42.3687 219.6185 L 40.6586 214.92 M 42.3687 219.6185 L 42.3687 214.6185 L 40.6586 209.92 M 42.3687 214.6185 L 42.3687 209.6185 L 44.0788 204.92 M 42.3687 209.6185 L 42.3687 204.6185 M 42.3687 219.6185 L 40.6586 214.92 L 37.44466 211.0898 M 40.6586 214.92 L 38.9485 210.2216 L 38.9485 205.2216 M 38.9485 210.2216 L 37.2384 205.5231 M 62.8899 276 L 62.8899 271 L 61.1798 266.3015 M 62.8899 271 L 62.8899 266 L 64.6 261.3015 M 62.8899 266 L 62.8899 261 M 62.8899 266 L 61.1798 261.3015 L 57.96586 257.4713 M 61.1798 261.3015 L 59.4697 256.6031 L 59.4697 251.6031 M 59.4697 256.6031 L 57.7596 251.9046 M 62.8899 266 L 62.8899 261 L 61.1798 256.3015 M 62.8899 261 L 62.8899 256 L 64.6 251.3015 M 62.8899 256 L 62.8899 251 M 62.8899 256 L 64.6 251.3015 L 64.6 246.3015 M 64.6 251.3015 L 66.3101 246.6031 L 69.52404 242.7729 M 66.3101 246.6031 L 68.0202 241.9046 M 62.8899 256 L 62.8899 251 L 61.1798 246.3015 M 62.8899 251 L 62.8899 246 L 64.6 241.3015 M 62.8899 246 L 62.8899 241 M 62.8899 256 L 61.1798 251.3015 L 57.96586 247.4713 M 61.1798 251.3015 L 59.4697 246.6031 L 59.4697 241.6031 M 59.4697 246.6031 L 57.7596 241.9046 M 59.4697 246.6031 L 56.25576 242.7729 L 51.92563 240.2729 M 56.25576 242.7729 L 53.04182 238.9426 L 51.33172 234.2442 M 53.04182 238.9426 L 49.82788 235.1124 M 59.4697 246.6031 L 57.7596 241.9046 L 54.54566 238.0744 M 57.7596 241.9046 L 56.0495 237.2061 L 56.0495 232.2061 M 56.0495 237.2061 L 54.3394 232.5077 M 56.0495 237.2061 L 56.0495 232.2061 L 54.3394 227.5077 M 56.0495 232.2061 L 56.0495 227.2061 L 57.7596 222.5077 M 56.0495 227.2061 L 56.0495 222.2061 M 56.0495 237.2061 L 54.3394 232.5077 L 51.12546 228.6775 M 54.3394 232.5077 L 52.6293 227.8092 L 52.6293 222.8092 M 52.6293 227.8092 L 50.9192 223.1108 M 62.8899 256 L 62.8899 251 L 61.1798 246.3015 M 62.8899 251 L 62.8899 246 L 64.6 241.3015 M 62.8899 246 L 62.8899 241 M 62.8899 246 L 61.1798 241.3015 L 57.96586 237.4713 M 61.1798 241.3015 L 59.4697 236.6031 L 59.4697 231.6031 M 59.4697 236.6031 L 57.7596 231.9046 M 62.8899 246 L 62.8899 241 L 61.1798 236.3015 M 62.8899 241 L 62.8899 236 L 64.6 231.3015 M 62.8899 236 L 62.8899 231 M 62.8899 236 L 64.6 231.3015 L 64.6 226.3015 M 64.6 231.3015 L 66.3101 226.6031 L 69.52404 222.7729 M 66.3101 226.6031 L 68.0202 221.9046 M 62.8899 236 L 62.8899 231 L 61.1798 226.3015 M 62.8899 231 L 62.8899 226 L 64.6 221.3015 M 62.8899 226 L 62.8899 221 M 62.8899 236 L 64.6 231.3015 L 64.6 226.3015 M 64.6 231.3015 L 66.3101 226.6031 L 69.52404 222.7729 M 66.3101 226.6031 L 68.0202 221.9046 M 66.3101 226.6031 L 66.3101 221.6031 L 64.6 216.9046 M 66.3101 221.6031 L 66.3101 216.6031 L 68.0202 211.9046 M 66.3101 216.6031 L 66.3101 211.6031 M 66.3101 226.6031 L 68.0202 221.9046 L 68.0202 216.9046 M 68.0202 221.9046 L 69.7303 217.2061 L 72.94424 213.3759 M 69.7303 217.2061 L 71.4404 212.5077 M 69.7303 217.2061 L 72.94424 213.3759 L 74.65434 208.6775 M 72.94424 213.3759 L 76.15818 209.5457 L 80.48831 207.0457 M 76.15818 209.5457 L 79.37212 205.7155 M 69.7303 217.2061 L 71.4404 212.5077 L 71.4404 207.5077 M 71.4404 212.5077 L 73.1505 207.8092 L 76.36444 203.979 M 73.1505 207.8092 L 74.8606 203.1108 M 62.8899 236 L 62.8899 231 L 61.1798 226.3015 M 62.8899 231 L 62.8899 226 L 64.6 221.3015 M 62.8899 226 L 62.8899 221 M 62.8899 226 L 61.1798 221.3015 L 57.96586 217.4713 M 61.1798 221.3015 L 59.4697 216.6031 L 59.4697 211.6031 M 59.4697 216.6031 L 57.7596 211.9046 M 62.8899 226 L 62.8899 221 L 61.1798 216.3015 M 62.8899 221 L 62.8899 216 L 64.6 211.3015 M 62.8899 216 L 62.8899 211 M 62.8899 216 L 64.6 211.3015 L 64.6 206.3015 M 64.6 211.3015 L 66.3101 206.6031 L 69.52404 202.7729 M 66.3101 206.6031 L 68.0202 201.9046 M 62.8899 216 L 62.8899 211 L 61.1798 206.3015 M 62.8899 211 L 62.8899 206 L 64.6 201.3015 M 62.8899 206 L 62.8899 201 M 62.8899 236 L 64.6 231.3015 L 64.6 226.3015 M 64.6 231.3015 L 66.3101 226.6031 L 69.52404 222.7729 M 66.3101 226.6031 L 68.0202 221.9046 M 66.3101 226.6031 L 66.3101 221.6031 L 64.6 216.9046 M 66.3101 221.6031 L 66.3101 216.6031 L 68.0202 211.9046 M 66.3101 216.6031 L 66.3101 211.6031 M 66.3101 226.6031 L 68.0202 221.9046 L 68.0202 216.9046 M 68.0202 221.9046 L 69.7303 217.2061 L 72.94424 213.3759 M 69.7303 217.2061 L 71.4404 212.5077 M 69.7303 217.2061 L 72.94424 213.3759 L 74.65434 208.6775 M 72.94424 213.3759 L 76.15818 209.5457 L 80.48831 207.0457 M 76.15818 209.5457 L 79.37212 205.7155 M 69.7303 217.2061 L 71.4404 212.5077 L 71.4404 207.5077 M 71.4404 212.5077 L 73.1505 207.8092 L 76.36444 203.979 M 73.1505 207.8092 L 74.8606 203.1108 M 69.7303 217.2061 L 69.7303 212.2061 L 68.0202 207.5077 M 69.7303 212.2061 L 69.7303 207.2061 L 71.4404 202.5077 M 69.7303 207.2061 L 69.7303 202.2061 M 69.7303 207.2061 L 68.0202 202.5077 L 64.80626 198.6775 M 68.0202 202.5077 L 66.3101 197.8092 L 66.3101 192.8092 M 66.3101 197.8092 L 64.6 193.1108 M 69.7303 207.2061 L 69.7303 202.2061 L 68.0202 197.5077 M 69.7303 202.2061 L 69.7303 197.2061 L 71.4404 192.5077 M 69.7303 197.2061 L 69.7303 192.2061 M 69.7303 197.2061 L 71.4404 192.5077 L 71.4404 187.5077 M 71.4404 192.5077 L 73.1505 187.8092 L 76.36444 183.979 M 73.1505 187.8092 L 74.8606 183.1108 M 69.7303 197.2061 L 69.7303 192.2061 L 68.0202 187.5077 M 69.7303 192.2061 L 69.7303 187.2061 L 71.4404 182.5077 M 69.7303 187.2061 L 69.7303 182.2061 M 69.7303 217.2061 L 71.4404 212.5077 L 71.4404 207.5077 M 71.4404 212.5077 L 73.1505 207.8092 L 76.36444 203.979 M 73.1505 207.8092 L 74.8606 203.1108 M 73.1505 207.8092 L 73.1505 202.8092 L 71.4404 198.1108 M 73.1505 202.8092 L 73.1505 197.8092 L 74.8606 193.1108 M 73.1505 197.8092 L 73.1505 192.8092 M 73.1505 207.8092 L 74.8606 203.1108 L 74.8606 198.1108 M 74.8606 203.1108 L 76.5707 198.4123 L 79.78464 194.5821 M 76.5707 198.4123 L 78.2808 193.7138 M 76.5707 198.4123 L 79.78464 194.5821 L 81.49474 189.8836 M 79.78464 194.5821 L 82.99858 190.7518 L 87.32871 188.2518 M 82.99858 190.7518 L 86.21252 186.9216 M 76.5707 198.4123 L 78.2808 193.7138 L 78.2808 188.7138 M 78.2808 193.7138 L 79.9909 189.0154 L 83.20484 185.1852 M 79.9909 189.0154 L 81.701 184.3169 M 76.5707 198.4123 L 79.78464 194.5821 L 81.49474 189.8836 M 79.78464 194.5821 L 82.99858 190.7518 L 87.32871 188.2518 M 82.99858 190.7518 L 86.21252 186.9216 M 82.99858 190.7518 L 84.70868 186.0534 L 84.70868 181.0534 M 84.70868 186.0534 L 86.41878 181.3549 L 89.63272 177.5247 M 86.41878 181.3549 L 88.12888 176.6565 M 82.99858 190.7518 L 86.21252 186.9216 L 87.92262 182.2232 M 86.21252 186.9216 L 89.42646 183.0914 L 93.75659 180.5914 M 89.42646 183.0914 L 92.6404 179.2612 M 89.42646 183.0914 L 93.75659 180.5914 L 96.97054 176.7612 M 93.75659 180.5914 L 98.08672 178.0914 L 103.0108 177.2232 M 98.08672 178.0914 L 102.4169 175.5914 M 89.42646 183.0914 L 92.6404 179.2612 L 94.3505 174.5627 M 92.6404 179.2612 L 95.85434 175.431 L 100.1845 172.931 M 95.85434 175.431 L 99.06828 171.6008 M 76.5707 198.4123 L 78.2808 193.7138 L 78.2808 188.7138 M 78.2808 193.7138 L 79.9909 189.0154 L 83.20484 185.1852 M 79.9909 189.0154 L 81.701 184.3169 M 79.9909 189.0154 L 79.9909 184.0154 L 78.2808 179.3169 M 79.9909 184.0154 L 79.9909 179.0154 L 81.701 174.3169 M 79.9909 179.0154 L 79.9909 174.0154 M 79.9909 189.0154 L 81.701 184.3169 L 81.701 179.3169 M 81.701 184.3169 L 83.4111 179.6185 L 86.62504 175.7882 M 83.4111 179.6185 L 85.1212 174.92 M 83.4111 179.6185 L 86.62504 175.7882 L 88.33514 171.0898 M 86.62504 175.7882 L 89.83898 171.958 L 94.16911 169.458 M 89.83898 171.958 L 93.05292 168.1278 M 83.4111 179.6185 L 85.1212 174.92 L 85.1212 169.92 M 85.1212 174.92 L 86.8313 170.2215 L 90.04524 166.3913 M 86.8313 170.2215 L 88.5414 165.5231 M 62.8899 236 L 62.8899 231 L 61.1798 226.3015 M 62.8899 231 L 62.8899 226 L 64.6 221.3015 M 62.8899 226 L 62.8899 221 M 62.8899 226 L 61.1798 221.3015 L 57.96586 217.4713 M 61.1798 221.3015 L 59.4697 216.6031 L 59.4697 211.6031 M 59.4697 216.6031 L 57.7596 211.9046 M 62.8899 226 L 62.8899 221 L 61.1798 216.3015 M 62.8899 221 L 62.8899 216 L 64.6 211.3015 M 62.8899 216 L 62.8899 211 M 62.8899 216 L 64.6 211.3015 L 64.6 206.3015 M 64.6 211.3015 L 66.3101 206.6031 L 69.52404 202.7729 M 66.3101 206.6031 L 68.0202 201.9046 M 62.8899 216 L 62.8899 211 L 61.1798 206.3015 M 62.8899 211 L 62.8899 206 L 64.6 201.3015 M 62.8899 206 L 62.8899 201 M 62.8899 216 L 61.1798 211.3015 L 57.96586 207.4713 M 61.1798 211.3015 L 59.4697 206.6031 L 59.4697 201.6031 M 59.4697 206.6031 L 57.7596 201.9046 M 59.4697 206.6031 L 56.25576 202.7729 L 51.92563 200.2729 M 56.25576 202.7729 L 53.04182 198.9426 L 51.33172 194.2442 M 53.04182 198.9426 L 49.82788 195.1124 M 59.4697 206.6031 L 57.7596 201.9046 L 54.54566 198.0744 M 57.7596 201.9046 L 56.0495 197.2061 L 56.0495 192.2061 M 56.0495 197.2061 L 54.3394 192.5077 M 56.0495 197.2061 L 56.0495 192.2061 L 54.3394 187.5077 M 56.0495 192.2061 L 56.0495 187.2061 L 57.7596 182.5077 M 56.0495 187.2061 L 56.0495 182.2061 M 56.0495 197.2061 L 54.3394 192.5077 L 51.12546 188.6775 M 54.3394 192.5077 L 52.6293 187.8092 L 52.6293 182.8092 M 52.6293 187.8092 L 50.9192 183.1108 M 62.8899 216 L 62.8899 211 L 61.1798 206.3015 M 62.8899 211 L 62.8899 206 L 64.6 201.3015 M 62.8899 206 L 62.8899 201 M 62.8899 206 L 61.1798 201.3015 L 57.96586 197.4713 M 61.1798 201.3015 L 59.4697 196.6031 L 59.4697 191.6031 M 59.4697 196.6031 L 57.7596 191.9046 M 62.8899 206 L 62.8899 201 L 61.1798 196.3015 M 62.8899 201 L 62.8899 196 L 64.6 191.3015 M 62.8899 196 L 62.8899 191 M 62.8899 196 L 64.6 191.3015 L 64.6 186.3015 M 64.6 191.3015 L 66.3101 186.6031 L 69.52404 182.7729 M 66.3101 186.6031 L 68.0202 181.9046 M 62.8899 196 L 62.8899 191 L 61.1798 186.3015 M 62.8899 191 L 62.8899 186 L 64.6 181.3015 M 62.8899 186 L 62.8899 181 M 62.8899 196 L 64.6 191.3015 L 64.6 186.3015 M 64.6 191.3015 L 66.3101 186.6031 L 69.52404 182.7729 M 66.3101 186.6031 L 68.0202 181.9046 M 66.3101 186.6031 L 66.3101 181.6031 L 64.6 176.9046 M 66.3101 181.6031 L 66.3101 176.6031 L 68.0202 171.9046 M 66.3101 176.6031 L 66.3101 171.6031 M 66.3101 186.6031 L 68.0202 181.9046 L 68.0202 176.9046 M 68.0202 181.9046 L 69.7303 177.2062 L 72.94424 173.3759 M 69.7303 177.2062 L 71.4404 172.5077 M 69.7303 177.2062 L 72.94424 173.3759 L 74.65434 168.6775 M 72.94424 173.3759 L 76.15818 169.5457 L 80.48831 167.0457 M 76.15818 169.5457 L 79.37212 165.7155 M 69.7303 177.2062 L 71.4404 172.5077 L 71.4404 167.5077 M 71.4404 172.5077 L 73.1505 167.8092 L 76.36444 163.979 M 73.1505 167.8092 L 74.8606 163.1108 M 62.8899 196 L 62.8899 191 L 61.1798 186.3015 M 62.8899 191 L 62.8899 186 L 64.6 181.3015 M 62.8899 186 L 62.8899 181 M 62.8899 186 L 61.1798 181.3015 L 57.96586 177.4713 M 61.1798 181.3015 L 59.4697 176.6031 L 59.4697 171.6031 M 59.4697 176.6031 L 57.7596 171.9046 M 62.8899 186 L 62.8899 181 L 61.1798 176.3015 M 62.8899 181 L 62.8899 176 L 64.6 171.3015 M 62.8899 176 L 62.8899 171 M 62.8899 176 L 64.6 171.3015 L 64.6 166.3015 M 64.6 171.3015 L 66.3101 166.6031 L 69.52404 162.7729 M 66.3101 166.6031 L 68.0202 161.9046 M 62.8899 176 L 62.8899 171 L 61.1798 166.3015 M 62.8899 171 L 62.8899 166 L 64.6 161.3015 M 62.8899 166 L 62.8899 161 M 62.8899 236 L 61.1798 231.3015 L 57.96586 227.4713 M 61.1798 231.3015 L 59.4697 226.6031 L 59.4697 221.6031 M 59.4697 226.6031 L 57.7596 221.9046 M 59.4697 226.6031 L 56.25576 222.7729 L 51.92563 220.2729 M 56.25576 222.7729 L 53.04182 218.9426 L 51.33172 214.2442 M 53.04182 218.9426 L 49.82788 215.1124 M 59.4697 226.6031 L 57.7596 221.9046 L 54.54566 218.0744 M 57.7596 221.9046 L 56.0495 217.2061 L 56.0495 212.2061 M 56.0495 217.2061 L 54.3394 212.5077 M 56.0495 217.2061 L 56.0495 212.2061 L 54.3394 207.5077 M 56.0495 212.2061 L 56.0495 207.2061 L 57.7596 202.5077 M 56.0495 207.2061 L 56.0495 202.2061 M 56.0495 217.2061 L 54.3394 212.5077 L 51.12546 208.6775 M 54.3394 212.5077 L 52.6293 207.8092 L 52.6293 202.8092 M 52.6293 207.8092 L 50.9192 203.1108 M 56.0495 217.2061 L 52.83556 213.3759 L 48.50543 210.8759 M 52.83556 213.3759 L 49.62162 209.5457 L 47.91152 204.8472 M 49.62162 209.5457 L 46.40768 205.7155 M 49.62162 209.5457 L 45.29149 207.0457 L 40.36745 206.1775 M 45.29149 207.0457 L 40.96136 204.5457 L 37.74742 200.7155 M 40.96136 204.5457 L 36.63123 202.0457 M 49.62162 209.5457 L 46.40768 205.7155 L 42.07755 203.2155 M 46.40768 205.7155 L 43.19374 201.8853 L 41.48364 197.1868 M 43.19374 201.8853 L 39.9798 198.055 M 43.19374 201.8853 L 41.48364 197.1868 L 38.2697 193.3566 M 41.48364 197.1868 L 39.77354 192.4883 L 39.77354 187.4883 M 39.77354 192.4883 L 38.06344 187.7899 M 43.19374 201.8853 L 39.9798 198.055 L 35.64967 195.555 M 39.9798 198.055 L 36.76586 194.2248 L 35.05576 189.5263 M 36.76586 194.2248 L 33.55192 190.3946 M 56.0495 217.2061 L 54.3394 212.5077 L 51.12546 208.6775 M 54.3394 212.5077 L 52.6293 207.8092 L 52.6293 202.8092 M 52.6293 207.8092 L 50.9192 203.1108 M 52.6293 207.8092 L 49.41536 203.979 L 45.08523 201.479 M 49.41536 203.979 L 46.20142 200.1488 L 44.49132 195.4503 M 46.20142 200.1488 L 42.98748 196.3185 M 52.6293 207.8092 L 50.9192 203.1108 L 47.70526 199.2805 M 50.9192 203.1108 L 49.2091 198.4123 L 49.2091 193.4123 M 49.2091 198.4123 L 47.499 193.7138 M 49.2091 198.4123 L 49.2091 193.4123 L 47.499 188.7138 M 49.2091 193.4123 L 49.2091 188.4123 L 50.9192 183.7138 M 49.2091 188.4123 L 49.2091 183.4123 M 49.2091 198.4123 L 47.499 193.7138 L 44.28506 189.8836 M 47.499 193.7138 L 45.7889 189.0154 L 45.7889 184.0154 M 45.7889 189.0154 L 44.0788 184.3169 M 49.2091 198.4123 L 49.2091 193.4123 L 47.499 188.7138 M 49.2091 193.4123 L 49.2091 188.4123 L 50.9192 183.7138 M 49.2091 188.4123 L 49.2091 183.4123 M 49.2091 188.4123 L 47.499 183.7138 L 44.28506 179.8836 M 47.499 183.7138 L 45.7889 179.0154 L 45.7889 174.0154 M 45.7889 179.0154 L 44.0788 174.3169 M 49.2091 188.4123 L 49.2091 183.4123 L 47.499 178.7138 M 49.2091 183.4123 L 49.2091 178.4123 L 50.9192 173.7138 M 49.2091 178.4123 L 49.2091 173.4123 M 49.2091 178.4123 L 50.9192 173.7138 L 50.9192 168.7138 M 50.9192 173.7138 L 52.6293 169.0154 L 55.84324 165.1852 M 52.6293 169.0154 L 54.3394 164.3169 M 49.2091 178.4123 L 49.2091 173.4123 L 47.499 168.7138 M 49.2091 173.4123 L 49.2091 168.4123 L 50.9192 163.7138 M 49.2091 168.4123 L 49.2091 163.4123 M 49.2091 198.4123 L 47.499 193.7138 L 44.28506 189.8836 M 47.499 193.7138 L 45.7889 189.0154 L 45.7889 184.0154 M 45.7889 189.0154 L 44.0788 184.3169 M 45.7889 189.0154 L 42.57496 185.1852 L 38.24483 182.6852 M 42.57496 185.1852 L 39.36102 181.3549 L 37.65092 176.6565 M 39.36102 181.3549 L 36.14708 177.5247 M 45.7889 189.0154 L 44.0788 184.3169 L 40.86486 180.4867 M 44.0788 184.3169 L 42.3687 179.6185 L 42.3687 174.6185 M 42.3687 179.6185 L 40.6586 174.92 M 42.3687 179.6185 L 42.3687 174.6185 L 40.6586 169.92 M 42.3687 174.6185 L 42.3687 169.6185 L 44.0788 164.92 M 42.3687 169.6185 L 42.3687 164.6185 M 42.3687 179.6185 L 40.6586 174.92 L 37.44466 171.0898 M 40.6586 174.92 L 38.9485 170.2215 L 38.9485 165.2215 M 38.9485 170.2215 L 37.2384 165.5231 M 49.2091 198.4123 L 45.99516 194.5821 L 41.66504 192.0821 M 45.99516 194.5821 L 42.78122 190.7518 L 41.07112 186.0534 M 42.78122 190.7518 L 39.56728 186.9216 M 42.78122 190.7518 L 38.45109 188.2518 L 33.52705 187.3836 M 38.45109 188.2518 L 34.12096 185.7518 L 30.90702 181.9216 M 34.12096 185.7518 L 29.79083 183.2518 M 42.78122 190.7518 L 39.56728 186.9216 L 35.23715 184.4216 M 39.56728 186.9216 L 36.35334 183.0914 L 34.64324 178.393 M 36.35334 183.0914 L 33.1394 179.2612 M 36.35334 183.0914 L 34.64324 178.393 L 31.4293 174.5627 M 34.64324 178.393 L 32.93314 173.6945 L 32.93314 168.6945 M 32.93314 173.6945 L 31.22304 168.996 M 36.35334 183.0914 L 33.1394 179.2612 L 28.80927 176.7612 M 33.1394 179.2612 L 29.92546 175.431 L 28.21536 170.7325 M 29.92546 175.431 L 26.71152 171.6008 M 36.35334 183.0914 L 32.02321 180.5914 L 27.09917 179.7232 M 32.02321 180.5914 L 27.69308 178.0914 L 24.47914 174.2612 M 27.69308 178.0914 L 23.36295 175.5914 M 27.69308 178.0914 L 22.76904 177.2232 L 17.845 178.0914 M 22.76904 177.2232 L 17.845 176.3549 L 13.51487 173.8549 M 17.845 176.3549 L 12.92096 175.4867 M 27.69308 178.0914 L 23.36295 175.5914 L 18.43891 174.7232 M 23.36295 175.5914 L 19.03282 173.0914 L 15.81888 169.2612 M 19.03282 173.0914 L 14.70269 170.5914 M 19.03282 173.0914 L 15.81888 169.2612 L 11.48875 166.7612 M 15.81888 169.2612 L 12.60494 165.431 L 10.89484 160.7325 M 12.60494 165.431 L 9.390999 161.6008 M 19.03282 173.0914 L 14.70269 170.5914 L 9.778648 169.7232 M 14.70269 170.5914 L 10.37256 168.0914 L 7.158619 164.2612 M 10.37256 168.0914 L 6.042431 165.5914 M 36.35334 183.0914 L 33.1394 179.2612 L 28.80927 176.7612 M 33.1394 179.2612 L 29.92546 175.431 L 28.21536 170.7325 M 29.92546 175.431 L 26.71152 171.6008 M 29.92546 175.431 L 25.59533 172.931 L 20.67129 172.0627 M 25.59533 172.931 L 21.2652 170.431 L 18.05126 166.6008 M 21.2652 170.431 L 16.93507 167.931 M 29.92546 175.431 L 26.71152 171.6008 L 22.38139 169.1008 M 26.71152 171.6008 L 23.49758 167.7706 L 21.78748 163.0721 M 23.49758 167.7706 L 20.28364 163.9403 M 23.49758 167.7706 L 21.78748 163.0721 L 18.57354 159.2419 M 21.78748 163.0721 L 20.07738 158.3736 L 20.07738 153.3736 M 20.07738 158.3736 L 18.36728 153.6752 M 23.49758 167.7706 L 20.28364 163.9403 L 15.95351 161.4403 M 20.28364 163.9403 L 17.0697 160.1101 L 15.3596 155.4117 M 17.0697 160.1101 L 13.85576 156.2799 M 23.49758 167.7706 L 21.78748 163.0721 L 18.57354 159.2419 M 21.78748 163.0721 L 20.07738 158.3736 L 20.07738 153.3736 M 20.07738 158.3736 L 18.36728 153.6752 M 20.07738 158.3736 L 16.86344 154.5434 L 12.53331 152.0434 M 16.86344 154.5434 L 13.6495 150.7132 L 11.9394 146.0148 M 13.6495 150.7132 L 10.43556 146.883 M 20.07738 158.3736 L 18.36728 153.6752 L 15.15334 149.845 M 18.36728 153.6752 L 16.65718 148.9767 L 16.65718 143.9767 M 16.65718 148.9767 L 14.94708 144.2783 M 16.65718 148.9767 L 16.65718 143.9767 L 14.94708 139.2783 M 16.65718 143.9767 L 16.65718 138.9767 L 18.36728 134.2783 M 16.65718 138.9767 L 16.65718 133.9767 M 16.65718 148.9767 L 14.94708 144.2783 L 11.73314 140.4481 M 14.94708 144.2783 L 13.23698 139.5798 L 13.23698 134.5798 M 13.23698 139.5798 L 11.52688 134.8814 M 23.49758 167.7706 L 20.28364 163.9403 L 15.95351 161.4403 M 20.28364 163.9403 L 17.0697 160.1101 L 15.3596 155.4117 M 17.0697 160.1101 L 13.85576 156.2799 M 17.0697 160.1101 L 12.73957 157.6101 L 7.815529 156.7419 M 12.73957 157.6101 L 8.409439 155.1101 L 5.195499 151.2799 M 8.409439 155.1101 L 4.079311 152.6101 M 17.0697 160.1101 L 13.85576 156.2799 L 9.525631 153.7799 M 13.85576 156.2799 L 10.64182 152.4497 L 8.931721 147.7512 M 10.64182 152.4497 L 7.427879 148.6195 M 10.64182 152.4497 L 8.931721 147.7512 L 5.717781 143.921 M 8.931721 147.7512 L 7.221619 143.0528 L 7.221619 138.0528 M 7.221619 143.0528 L 5.51152 138.3543 M 10.64182 152.4497 L 7.427879 148.6195 L 3.097752 146.1195 M 7.427879 148.6195 L 4.21394 144.7893 L 2.503841 140.0908 M 4.21394 144.7893 L 1 140.959 M 49.2091 198.4123 L 47.499 193.7138 L 44.28506 189.8836 M 47.499 193.7138 L 45.7889 189.0154 L 45.7889 184.0154 M 45.7889 189.0154 L 44.0788 184.3169 M 45.7889 189.0154 L 42.57496 185.1852 L 38.24483 182.6852 M 42.57496 185.1852 L 39.36102 181.3549 L 37.65092 176.6565 M 39.36102 181.3549 L 36.14708 177.5247 M 45.7889 189.0154 L 44.0788 184.3169 L 40.86486 180.4867 M 44.0788 184.3169 L 42.3687 179.6185 L 42.3687 174.6185 M 42.3687 179.6185 L 40.6586 174.92 M 42.3687 179.6185 L 42.3687 174.6185 L 40.6586 169.92 M 42.3687 174.6185 L 42.3687 169.6185 L 44.0788 164.92 M 42.3687 169.6185 L 42.3687 164.6185 M 42.3687 179.6185 L 40.6586 174.92 L 37.44466 171.0898 M 40.6586 174.92 L 38.9485 170.2215 L 38.9485 165.2215 M 38.9485 170.2215 L 37.2384 165.5231 M 42.3687 179.6185 L 39.15476 175.7882 L 34.82463 173.2882 M 39.15476 175.7882 L 35.94082 171.958 L 34.23072 167.2596 M 35.94082 171.958 L 32.72688 168.1278 M 35.94082 171.958 L 31.61069 169.458 L 26.68665 168.5898 M 31.61069 169.458 L 27.28056 166.958 L 24.06662 163.1278 M 27.28056 166.958 L 22.95043 164.458 M 35.94082 171.958 L 32.72688 168.1278 L 28.39676 165.6278 M 32.72688 168.1278 L 29.51294 164.2976 L 27.80284 159.5991 M 29.51294 164.2976 L 26.299 160.4674 M 29.51294 164.2976 L 27.80284 159.5991 L 24.5889 155.7689 M 27.80284 159.5991 L 26.09274 154.9007 L 26.09274 149.9007 M 26.09274 154.9007 L 24.38264 150.2022 M 29.51294 164.2976 L 26.299 160.4674 L 21.96887 157.9674 M 26.299 160.4674 L 23.08506 156.6372 L 21.37496 151.9387 M 23.08506 156.6372 L 19.87112 152.8069 M 42.3687 179.6185 L 40.6586 174.92 L 37.44466 171.0898 M 40.6586 174.92 L 38.9485 170.2215 L 38.9485 165.2215 M 38.9485 170.2215 L 37.2384 165.5231 M 38.9485 170.2215 L 35.73456 166.3913 L 31.40443 163.8913 M 35.73456 166.3913 L 32.52062 162.5611 L 30.81052 157.8627 M 32.52062 162.5611 L 29.30668 158.7309 M 38.9485 170.2215 L 37.2384 165.5231 L 34.02446 161.6929 M 37.2384 165.5231 L 35.5283 160.8246 L 35.5283 155.8246 M 35.5283 160.8246 L 33.8182 156.1262 M 35.5283 160.8246 L 35.5283 155.8246 L 33.8182 151.1262 M 35.5283 155.8246 L 35.5283 150.8246 L 37.2384 146.1262 M 35.5283 150.8246 L 35.5283 145.8246 M 35.5283 160.8246 L 33.8182 156.1262 L 30.60426 152.296 M 33.8182 156.1262 L 32.1081 151.4277 L 32.1081 146.4277 M 32.1081 151.4277 L 30.398 146.7293 M 35.5283 160.8246 L 35.5283 155.8246 L 33.8182 151.1262 M 35.5283 155.8246 L 35.5283 150.8246 L 37.2384 146.1262 M 35.5283 150.8246 L 35.5283 145.8246 M 35.5283 150.8246 L 33.8182 146.1262 L 30.60426 142.296 M 33.8182 146.1262 L 32.1081 141.4277 L 32.1081 136.4277 M 32.1081 141.4277 L 30.398 136.7293 M 35.5283 150.8246 L 35.5283 145.8246 L 33.8182 141.1262 M 35.5283 145.8246 L 35.5283 140.8246 L 37.2384 136.1262 M 35.5283 140.8246 L 35.5283 135.8246 M 35.5283 140.8246 L 37.2384 136.1262 L 37.2384 131.1262 M 37.2384 136.1262 L 38.9485 131.4277 L 42.16244 127.5975 M 38.9485 131.4277 L 40.6586 126.7293 M 35.5283 140.8246 L 35.5283 135.8246 L 33.8182 131.1262 M 35.5283 135.8246 L 35.5283 130.8246 L 37.2384 126.1262 M 35.5283 130.8246 L 35.5283 125.8246 M 35.5283 160.8246 L 33.8182 156.1262 L 30.60426 152.296 M 33.8182 156.1262 L 32.1081 151.4277 L 32.1081 146.4277 M 32.1081 151.4277 L 30.398 146.7293 M 32.1081 151.4277 L 28.89416 147.5975 L 24.56403 145.0975 M 28.89416 147.5975 L 25.68022 143.7673 L 23.97012 139.0688 M 25.68022 143.7673 L 22.46628 139.9371 M 32.1081 151.4277 L 30.398 146.7293 L 27.18406 142.899 M 30.398 146.7293 L 28.6879 142.0308 L 28.6879 137.0308 M 28.6879 142.0308 L 26.9778 137.3324 M 28.6879 142.0308 L 28.6879 137.0308 L 26.9778 132.3324 M 28.6879 137.0308 L 28.6879 132.0308 L 30.398 127.3324 M 28.6879 132.0308 L 28.6879 127.0308 M 28.6879 142.0308 L 26.9778 137.3324 L 23.76386 133.5021 M 26.9778 137.3324 L 25.2677 132.6339 L 25.2677 127.6339 M 25.2677 132.6339 L 23.5576 127.9354 M 35.5283 160.8246 L 35.5283 155.8246 L 33.8182 151.1262 M 35.5283 155.8246 L 35.5283 150.8246 L 37.2384 146.1262 M 35.5283 150.8246 L 35.5283 145.8246 M 35.5283 150.8246 L 33.8182 146.1262 L 30.60426 142.296 M 33.8182 146.1262 L 32.1081 141.4277 L 32.1081 136.4277 M 32.1081 141.4277 L 30.398 136.7293 M 35.5283 150.8246 L 35.5283 145.8246 L 33.8182 141.1262 M 35.5283 145.8246 L 35.5283 140.8246 L 37.2384 136.1262 M 35.5283 140.8246 L 35.5283 135.8246 M 35.5283 140.8246 L 37.2384 136.1262 L 37.2384 131.1262 M 37.2384 136.1262 L 38.9485 131.4277 L 42.16244 127.5975 M 38.9485 131.4277 L 40.6586 126.7293 M 35.5283 140.8246 L 35.5283 135.8246 L 33.8182 131.1262 M 35.5283 135.8246 L 35.5283 130.8246 L 37.2384 126.1262 M 35.5283 130.8246 L 35.5283 125.8246 M 35.5283 140.8246 L 33.8182 136.1262 L 30.60426 132.296 M 33.8182 136.1262 L 32.1081 131.4277 L 32.1081 126.4277 M 32.1081 131.4277 L 30.398 126.7293 M 32.1081 131.4277 L 28.89416 127.5975 L 24.56403 125.0975 M 28.89416 127.5975 L 25.68022 123.7673 L 23.97012 119.0688 M 25.68022 123.7673 L 22.46628 119.9371 M 32.1081 131.4277 L 30.398 126.7293 L 27.18406 122.899 M 30.398 126.7293 L 28.6879 122.0308 L 28.6879 117.0308 M 28.6879 122.0308 L 26.9778 117.3324 M 28.6879 122.0308 L 28.6879 117.0308 L 26.9778 112.3324 M 28.6879 117.0308 L 28.6879 112.0308 L 30.398 107.3324 M 28.6879 112.0308 L 28.6879 107.0308 M 28.6879 122.0308 L 26.9778 117.3324 L 23.76386 113.5021 M 26.9778 117.3324 L 25.2677 112.6339 L 25.2677 107.6339 M 25.2677 112.6339 L 23.5576 107.9354 M 35.5283 140.8246 L 35.5283 135.8246 L 33.8182 131.1262 M 35.5283 135.8246 L 35.5283 130.8246 L 37.2384 126.1262 M 35.5283 130.8246 L 35.5283 125.8246 M 35.5283 130.8246 L 33.8182 126.1262 L 30.60426 122.296 M 33.8182 126.1262 L 32.1081 121.4277 L 32.1081 116.4277 M 32.1081 121.4277 L 30.398 116.7293 M 35.5283 130.8246 L 35.5283 125.8246 L 33.8182 121.1262 M 35.5283 125.8246 L 35.5283 120.8246 L 37.2384 116.1262 M 35.5283 120.8246 L 35.5283 115.8246 M 35.5283 120.8246 L 37.2384 116.1262 L 37.2384 111.1262 M 37.2384 116.1262 L 38.9485 111.4277 L 42.16244 107.5975 M 38.9485 111.4277 L 40.6586 106.7293 M 35.5283 120.8246 L 35.5283 115.8246 L 33.8182 111.1262 M 35.5283 115.8246 L 35.5283 110.8246 L 37.2384 106.1262 M 35.5283 110.8246 L 35.5283 105.8246 M 35.5283 120.8246 L 37.2384 116.1262 L 37.2384 111.1262 M 37.2384 116.1262 L 38.9485 111.4277 L 42.16244 107.5975 M 38.9485 111.4277 L 40.6586 106.7293 M 38.9485 111.4277 L 38.9485 106.4277 L 37.2384 101.7293 M 38.9485 106.4277 L 38.9485 101.4277 L 40.6586 96.72926 M 38.9485 101.4277 L 38.9485 96.42772 M 38.9485 111.4277 L 40.6586 106.7293 L 40.6586 101.7293 M 40.6586 106.7293 L 42.3687 102.0308 L 45.58264 98.20059 M 42.3687 102.0308 L 44.0788 97.33235 M 42.3687 102.0308 L 45.58264 98.20059 L 47.29274 93.50214 M 45.58264 98.20059 L 48.79658 94.37038 L 53.12671 91.87038 M 48.79658 94.37038 L 52.01052 90.54016 M 42.3687 102.0308 L 44.0788 97.33235 L 44.0788 92.33235 M 44.0788 97.33235 L 45.7889 92.6339 L 49.00284 88.80368 M 45.7889 92.6339 L 47.499 87.93544 M 35.5283 120.8246 L 35.5283 115.8246 L 33.8182 111.1262 M 35.5283 115.8246 L 35.5283 110.8246 L 37.2384 106.1262 M 35.5283 110.8246 L 35.5283 105.8246 M 35.5283 110.8246 L 33.8182 106.1262 L 30.60426 102.296 M 33.8182 106.1262 L 32.1081 101.4277 L 32.1081 96.42772 M 32.1081 101.4277 L 30.398 96.72926 M 35.5283 110.8246 L 35.5283 105.8246 L 33.8182 101.1262 M 35.5283 105.8246 L 35.5283 100.8246 L 37.2384 96.12617 M 35.5283 100.8246 L 35.5283 95.82463 M 35.5283 100.8246 L 37.2384 96.12617 L 37.2384 91.12617 M 37.2384 96.12617 L 38.9485 91.42772 L 42.16244 87.5975 M 38.9485 91.42772 L 40.6586 86.72926 M 35.5283 100.8246 L 35.5283 95.82463 L 33.8182 91.12617 M 35.5283 95.82463 L 35.5283 90.82463 L 37.2384 86.12617 M 35.5283 90.82463 L 35.5283 85.82463 M 35.5283 160.8246 L 33.8182 156.1262 L 30.60426 152.296 M 33.8182 156.1262 L 32.1081 151.4277 L 32.1081 146.4277 M 32.1081 151.4277 L 30.398 146.7293 M 32.1081 151.4277 L 28.89416 147.5975 L 24.56403 145.0975 M 28.89416 147.5975 L 25.68022 143.7673 L 23.97012 139.0688 M 25.68022 143.7673 L 22.46628 139.9371 M 32.1081 151.4277 L 30.398 146.7293 L 27.18406 142.899 M 30.398 146.7293 L 28.6879 142.0308 L 28.6879 137.0308 M 28.6879 142.0308 L 26.9778 137.3324 M 28.6879 142.0308 L 28.6879 137.0308 L 26.9778 132.3324 M 28.6879 137.0308 L 28.6879 132.0308 L 30.398 127.3324 M 28.6879 132.0308 L 28.6879 127.0308 M 28.6879 142.0308 L 26.9778 137.3324 L 23.76386 133.5021 M 26.9778 137.3324 L 25.2677 132.6339 L 25.2677 127.6339 M 25.2677 132.6339 L 23.5576 127.9354 M 28.6879 142.0308 L 25.47396 138.2006 L 21.14383 135.7006 M 25.47396 138.2006 L 22.26002 134.3704 L 20.54992 129.6719 M 22.26002 134.3704 L 19.04608 130.5402 M 22.26002 134.3704 L 17.92989 131.8704 L 13.00585 131.0021 M 17.92989 131.8704 L 13.59976 129.3704 L 10.38582 125.5402 M 13.59976 129.3704 L 9.26963 126.8704 M 22.26002 134.3704 L 19.04608 130.5402 L 14.71595 128.0402 M 19.04608 130.5402 L 15.83214 126.7099 L 14.12204 122.0115 M 15.83214 126.7099 L 12.6182 122.8797 M 15.83214 126.7099 L 14.12204 122.0115 L 10.9081 118.1813 M 14.12204 122.0115 L 12.41194 117.313 L 12.41194 112.313 M 12.41194 117.313 L 10.70184 112.6146 M 15.83214 126.7099 L 12.6182 122.8797 L 8.288071 120.3797 M 12.6182 122.8797 L 9.404259 119.0495 L 7.69416 114.3511 M 9.404259 119.0495 L 6.190319 115.2193 M 28.6879 142.0308 L 26.9778 137.3324 L 23.76386 133.5021 M 26.9778 137.3324 L 25.2677 132.6339 L 25.2677 127.6339 M 25.2677 132.6339 L 23.5576 127.9354 M 25.2677 132.6339 L 22.05376 128.8037 L 17.72363 126.3037 M 22.05376 128.8037 L 18.83982 124.9735 L 17.12972 120.275 M 18.83982 124.9735 L 15.62588 121.1432 M 25.2677 132.6339 L 23.5576 127.9354 L 20.34366 124.1052 M 23.5576 127.9354 L 21.8475 123.237 L 21.8475 118.237 M 21.8475 123.237 L 20.1374 118.5385 M 21.8475 123.237 L 21.8475 118.237 L 20.1374 113.5385 M 21.8475 118.237 L 21.8475 113.237 L 23.5576 108.5385 M 21.8475 113.237 L 21.8475 108.237 M 21.8475 123.237 L 20.1374 118.5385 L 16.92346 114.7083 M 20.1374 118.5385 L 18.4273 113.8401 L 18.4273 108.8401 M 18.4273 113.8401 L 16.7172 109.1416 M 21.8475 123.237 L 21.8475 118.237 L 20.1374 113.5385 M 21.8475 118.237 L 21.8475 113.237 L 23.5576 108.5385 M 21.8475 113.237 L 21.8475 108.237 M 21.8475 113.237 L 20.1374 108.5385 L 16.92346 104.7083 M 20.1374 108.5385 L 18.4273 103.8401 L 18.4273 98.84007 M 18.4273 103.8401 L 16.7172 99.14162 M 21.8475 113.237 L 21.8475 108.237 L 20.1374 103.5385 M 21.8475 108.237 L 21.8475 103.237 L 23.5576 98.53853 M 21.8475 103.237 L 21.8475 98.23698 M 21.8475 103.237 L 23.5576 98.53853 L 23.5576 93.53853 M 23.5576 98.53853 L 25.2677 93.84007 L 28.48164 90.00986 M 25.2677 93.84007 L 26.9778 89.14162 M 21.8475 103.237 L 21.8475 98.23698 L 20.1374 93.53853 M 21.8475 98.23698 L 21.8475 93.23698 L 23.5576 88.53853 M 21.8475 93.23698 L 21.8475 88.23698 M 21.8475 123.237 L 20.1374 118.5385 L 16.92346 114.7083 M 20.1374 118.5385 L 18.4273 113.8401 L 18.4273 108.8401 M 18.4273 113.8401 L 16.7172 109.1416 M 18.4273 113.8401 L 15.21336 110.0099 L 10.88323 107.5099 M 15.21336 110.0099 L 11.99942 106.1796 L 10.28932 101.4812 M 11.99942 106.1796 L 8.78548 102.3494 M 18.4273 113.8401 L 16.7172 109.1416 L 13.50326 105.3114 M 16.7172 109.1416 L 15.0071 104.4432 L 15.0071 99.44316 M 15.0071 104.4432 L 13.297 99.74471 M 15.0071 104.4432 L 15.0071 99.44316 L 13.297 94.74471 M 15.0071 99.44316 L 15.0071 94.44316 L 16.7172 89.74471 M 15.0071 94.44316 L 15.0071 89.44316 M 15.0071 104.4432 L 13.297 99.74471 L 10.08306 95.91449 M 13.297 99.74471 L 11.5869 95.04625 L 11.5869 90.04625 M 11.5869 95.04625 L 9.876801 90.34779 M 62.8899 236 L 62.8899 231 L 61.1798 226.3015 M 62.8899 231 L 62.8899 226 L 64.6 221.3015 M 62.8899 226 L 62.8899 221 M 62.8899 226 L 61.1798 221.3015 L 57.96586 217.4713 M 61.1798 221.3015 L 59.4697 216.6031 L 59.4697 211.6031 M 59.4697 216.6031 L 57.7596 211.9046 M 62.8899 226 L 62.8899 221 L 61.1798 216.3015 M 62.8899 221 L 62.8899 216 L 64.6 211.3015 M 62.8899 216 L 62.8899 211 M 62.8899 216 L 64.6 211.3015 L 64.6 206.3015 M 64.6 211.3015 L 66.3101 206.6031 L 69.52404 202.7729 M 66.3101 206.6031 L 68.0202 201.9046 M 62.8899 216 L 62.8899 211 L 61.1798 206.3015 M 62.8899 211 L 62.8899 206 L 64.6 201.3015 M 62.8899 206 L 62.8899 201 M 62.8899 216 L 61.1798 211.3015 L 57.96586 207.4713 M 61.1798 211.3015 L 59.4697 206.6031 L 59.4697 201.6031 M 59.4697 206.6031 L 57.7596 201.9046 M 59.4697 206.6031 L 56.25576 202.7729 L 51.92563 200.2729 M 56.25576 202.7729 L 53.04182 198.9426 L 51.33172 194.2442 M 53.04182 198.9426 L 49.82788 195.1124 M 59.4697 206.6031 L 57.7596 201.9046 L 54.54566 198.0744 M 57.7596 201.9046 L 56.0495 197.2061 L 56.0495 192.2061 M 56.0495 197.2061 L 54.3394 192.5077 M 56.0495 197.2061 L 56.0495 192.2061 L 54.3394 187.5077 M 56.0495 192.2061 L 56.0495 187.2061 L 57.7596 182.5077 M 56.0495 187.2061 L 56.0495 182.2061 M 56.0495 197.2061 L 54.3394 192.5077 L 51.12546 188.6775 M 54.3394 192.5077 L 52.6293 187.8092 L 52.6293 182.8092 M 52.6293 187.8092 L 50.9192 183.1108 M 62.8899 216 L 62.8899 211 L 61.1798 206.3015 M 62.8899 211 L 62.8899 206 L 64.6 201.3015 M 62.8899 206 L 62.8899 201 M 62.8899 206 L 61.1798 201.3015 L 57.96586 197.4713 M 61.1798 201.3015 L 59.4697 196.6031 L 59.4697 191.6031 M 59.4697 196.6031 L 57.7596 191.9046 M 62.8899 206 L 62.8899 201 L 61.1798 196.3015 M 62.8899 201 L 62.8899 196 L 64.6 191.3015 M 62.8899 196 L 62.8899 191 M 62.8899 196 L 64.6 191.3015 L 64.6 186.3015 M 64.6 191.3015 L 66.3101 186.6031 L 69.52404 182.7729 M 66.3101 186.6031 L 68.0202 181.9046 M 62.8899 196 L 62.8899 191 L 61.1798 186.3015 M 62.8899 191 L 62.8899 186 L 64.6 181.3015 M 62.8899 186 L 62.8899 181 M 62.8899 196 L 64.6 191.3015 L 64.6 186.3015 M 64.6 191.3015 L 66.3101 186.6031 L 69.52404 182.7729 M 66.3101 186.6031 L 68.0202 181.9046 M 66.3101 186.6031 L 66.3101 181.6031 L 64.6 176.9046 M 66.3101 181.6031 L 66.3101 176.6031 L 68.0202 171.9046 M 66.3101 176.6031 L 66.3101 171.6031 M 66.3101 186.6031 L 68.0202 181.9046 L 68.0202 176.9046 M 68.0202 181.9046 L 69.7303 177.2062 L 72.94424 173.3759 M 69.7303 177.2062 L 71.4404 172.5077 M 69.7303 177.2062 L 72.94424 173.3759 L 74.65434 168.6775 M 72.94424 173.3759 L 76.15818 169.5457 L 80.48831 167.0457 M 76.15818 169.5457 L 79.37212 165.7155 M 69.7303 177.2062 L 71.4404 172.5077 L 71.4404 167.5077 M 71.4404 172.5077 L 73.1505 167.8092 L 76.36444 163.979 M 73.1505 167.8092 L 74.8606 163.1108 M 62.8899 196 L 62.8899 191 L 61.1798 186.3015 M 62.8899 191 L 62.8899 186 L 64.6 181.3015 M 62.8899 186 L 62.8899 181 M 62.8899 186 L 61.1798 181.3015 L 57.96586 177.4713 M 61.1798 181.3015 L 59.4697 176.6031 L 59.4697 171.6031 M 59.4697 176.6031 L 57.7596 171.9046 M 62.8899 186 L 62.8899 181 L 61.1798 176.3015 M 62.8899 181 L 62.8899 176 L 64.6 171.3015 M 62.8899 176 L 62.8899 171 M 62.8899 176 L 64.6 171.3015 L 64.6 166.3015 M 64.6 171.3015 L 66.3101 166.6031 L 69.52404 162.7729 M 66.3101 166.6031 L 68.0202 161.9046 M 62.8899 176 L 62.8899 171 L 61.1798 166.3015 M 62.8899 171 L 62.8899 166 L 64.6 161.3015 M 62.8899 166 L 62.8899 161 M 62.8899 196 L 61.1798 191.3015 L 57.96586 187.4713 M 61.1798 191.3015 L 59.4697 186.6031 L 59.4697 181.6031 M 59.4697 186.6031 L 57.7596 181.9046 M 59.4697 186.6031 L 56.25576 182.7729 L 51.92563 180.2729 M 56.25576 182.7729 L 53.04182 178.9426 L 51.33172 174.2442 M 53.04182 178.9426 L 49.82788 175.1124 M 59.4697 186.6031 L 57.7596 181.9046 L 54.54566 178.0744 M 57.7596 181.9046 L 56.0495 177.2062 L 56.0495 172.2062 M 56.0495 177.2062 L 54.3394 172.5077 M 56.0495 177.2062 L 56.0495 172.2062 L 54.3394 167.5077 M 56.0495 172.2062 L 56.0495 167.2062 L 57.7596 162.5077 M 56.0495 167.2062 L 56.0495 162.2062 M 56.0495 177.2062 L 54.3394 172.5077 L 51.12546 168.6775 M 54.3394 172.5077 L 52.6293 167.8092 L 52.6293 162.8092 M 52.6293 167.8092 L 50.9192 163.1108 M 56.0495 177.2062 L 52.83556 173.3759 L 48.50543 170.8759 M 52.83556 173.3759 L 49.62162 169.5457 L 47.91152 164.8473 M 49.62162 169.5457 L 46.40768 165.7155 M 49.62162 169.5457 L 45.29149 167.0457 L 40.36745 166.1775 M 45.29149 167.0457 L 40.96136 164.5457 L 37.74742 160.7155 M 40.96136 164.5457 L 36.63123 162.0457 M 49.62162 169.5457 L 46.40768 165.7155 L 42.07755 163.2155 M 46.40768 165.7155 L 43.19374 161.8853 L 41.48364 157.1868 M 43.19374 161.8853 L 39.9798 158.0551 M 43.19374 161.8853 L 41.48364 157.1868 L 38.2697 153.3566 M 41.48364 157.1868 L 39.77354 152.4884 L 39.77354 147.4884 M 39.77354 152.4884 L 38.06344 147.7899 M 43.19374 161.8853 L 39.9798 158.0551 L 35.64967 155.5551 M 39.9798 158.0551 L 36.76586 154.2249 L 35.05576 149.5264 M 36.76586 154.2249 L 33.55192 150.3947 M 56.0495 177.2062 L 54.3394 172.5077 L 51.12546 168.6775 M 54.3394 172.5077 L 52.6293 167.8092 L 52.6293 162.8092 M 52.6293 167.8092 L 50.9192 163.1108 M 52.6293 167.8092 L 49.41536 163.979 L 45.08523 161.479 M 49.41536 163.979 L 46.20142 160.1488 L 44.49132 155.4504 M 46.20142 160.1488 L 42.98748 156.3186 M 52.6293 167.8092 L 50.9192 163.1108 L 47.70526 159.2806 M 50.9192 163.1108 L 49.2091 158.4123 L 49.2091 153.4123 M 49.2091 158.4123 L 47.499 153.7139 M 49.2091 158.4123 L 49.2091 153.4123 L 47.499 148.7139 M 49.2091 153.4123 L 49.2091 148.4123 L 50.9192 143.7139 M 49.2091 148.4123 L 49.2091 143.4123 M 49.2091 158.4123 L 47.499 153.7139 L 44.28506 149.8837 M 47.499 153.7139 L 45.7889 149.0154 L 45.7889 144.0154 M 45.7889 149.0154 L 44.0788 144.317 M 49.2091 158.4123 L 49.2091 153.4123 L 47.499 148.7139 M 49.2091 153.4123 L 49.2091 148.4123 L 50.9192 143.7139 M 49.2091 148.4123 L 49.2091 143.4123 M 49.2091 148.4123 L 47.499 143.7139 L 44.28506 139.8837 M 47.499 143.7139 L 45.7889 139.0154 L 45.7889 134.0154 M 45.7889 139.0154 L 44.0788 134.317 M 49.2091 148.4123 L 49.2091 143.4123 L 47.499 138.7139 M 49.2091 143.4123 L 49.2091 138.4123 L 50.9192 133.7139 M 49.2091 138.4123 L 49.2091 133.4123 M 49.2091 138.4123 L 50.9192 133.7139 L 50.9192 128.7139 M 50.9192 133.7139 L 52.6293 129.0154 L 55.84324 125.1852 M 52.6293 129.0154 L 54.3394 124.317 M 49.2091 138.4123 L 49.2091 133.4123 L 47.499 128.7139 M 49.2091 133.4123 L 49.2091 128.4123 L 50.9192 123.7139 M 49.2091 128.4123 L 49.2091 123.4123 M 49.2091 158.4123 L 47.499 153.7139 L 44.28506 149.8837 M 47.499 153.7139 L 45.7889 149.0154 L 45.7889 144.0154 M 45.7889 149.0154 L 44.0788 144.317 M 45.7889 149.0154 L 42.57496 145.1852 L 38.24483 142.6852 M 42.57496 145.1852 L 39.36102 141.355 L 37.65092 136.6565 M 39.36102 141.355 L 36.14708 137.5248 M 45.7889 149.0154 L 44.0788 144.317 L 40.86486 140.4868 M 44.0788 144.317 L 42.3687 139.6185 L 42.3687 134.6185 M 42.3687 139.6185 L 40.6586 134.9201 M 42.3687 139.6185 L 42.3687 134.6185 L 40.6586 129.9201 M 42.3687 134.6185 L 42.3687 129.6185 L 44.0788 124.9201 M 42.3687 129.6185 L 42.3687 124.6185 M 42.3687 139.6185 L 40.6586 134.9201 L 37.44466 131.0898 M 40.6586 134.9201 L 38.9485 130.2216 L 38.9485 125.2216 M 38.9485 130.2216 L 37.2384 125.5231 M 62.8899 196 L 62.8899 191 L 61.1798 186.3015 M 62.8899 191 L 62.8899 186 L 64.6 181.3015 M 62.8899 186 L 62.8899 181 M 62.8899 186 L 61.1798 181.3015 L 57.96586 177.4713 M 61.1798 181.3015 L 59.4697 176.6031 L 59.4697 171.6031 M 59.4697 176.6031 L 57.7596 171.9046 M 62.8899 186 L 62.8899 181 L 61.1798 176.3015 M 62.8899 181 L 62.8899 176 L 64.6 171.3015 M 62.8899 176 L 62.8899 171 M 62.8899 176 L 64.6 171.3015 L 64.6 166.3015 M 64.6 171.3015 L 66.3101 166.6031 L 69.52404 162.7729 M 66.3101 166.6031 L 68.0202 161.9046 M 62.8899 176 L 62.8899 171 L 61.1798 166.3015 M 62.8899 171 L 62.8899 166 L 64.6 161.3015 M 62.8899 166 L 62.8899 161 M 62.8899 176 L 61.1798 171.3015 L 57.96586 167.4713 M 61.1798 171.3015 L 59.4697 166.6031 L 59.4697 161.6031 M 59.4697 166.6031 L 57.7596 161.9046 M 59.4697 166.6031 L 56.25576 162.7729 L 51.92563 160.2729 M 56.25576 162.7729 L 53.04182 158.9427 L 51.33172 154.2442 M 53.04182 158.9427 L 49.82788 155.1124 M 59.4697 166.6031 L 57.7596 161.9046 L 54.54566 158.0744 M 57.7596 161.9046 L 56.0495 157.2062 L 56.0495 152.2062 M 56.0495 157.2062 L 54.3394 152.5077 M 56.0495 157.2062 L 56.0495 152.2062 L 54.3394 147.5077 M 56.0495 152.2062 L 56.0495 147.2062 L 57.7596 142.5077 M 56.0495 147.2062 L 56.0495 142.2062 M 56.0495 157.2062 L 54.3394 152.5077 L 51.12546 148.6775 M 54.3394 152.5077 L 52.6293 147.8093 L 52.6293 142.8093 M 52.6293 147.8093 L 50.9192 143.1108 M 62.8899 176 L 62.8899 171 L 61.1798 166.3015 M 62.8899 171 L 62.8899 166 L 64.6 161.3015 M 62.8899 166 L 62.8899 161 M 62.8899 166 L 61.1798 161.3015 L 57.96586 157.4713 M 61.1798 161.3015 L 59.4697 156.6031 L 59.4697 151.6031 M 59.4697 156.6031 L 57.7596 151.9046 M 62.8899 166 L 62.8899 161 L 61.1798 156.3015 M 62.8899 161 L 62.8899 156 L 64.6 151.3015 M 62.8899 156 L 62.8899 151 M 62.8899 156 L 64.6 151.3015 L 64.6 146.3015 M 64.6 151.3015 L 66.3101 146.6031 L 69.52404 142.7729 M 66.3101 146.6031 L 68.0202 141.9046 M 62.8899 156 L 62.8899 151 L 61.1798 146.3015 M 62.8899 151 L 62.8899 146 L 64.6 141.3015 M 62.8899 146 L 62.8899 141 M 62.8899 156 L 64.6 151.3015 L 64.6 146.3015 M 64.6 151.3015 L 66.3101 146.6031 L 69.52404 142.7729 M 66.3101 146.6031 L 68.0202 141.9046 M 66.3101 146.6031 L 66.3101 141.6031 L 64.6 136.9046 M 66.3101 141.6031 L 66.3101 136.6031 L 68.0202 131.9046 M 66.3101 136.6031 L 66.3101 131.6031 M 66.3101 146.6031 L 68.0202 141.9046 L 68.0202 136.9046 M 68.0202 141.9046 L 69.7303 137.2062 L 72.94424 133.376 M 69.7303 137.2062 L 71.4404 132.5077 M 69.7303 137.2062 L 72.94424 133.376 L 74.65434 128.6775 M 72.94424 133.376 L 76.15818 129.5457 L 80.48831 127.0457 M 76.15818 129.5457 L 79.37212 125.7155 M 69.7303 137.2062 L 71.4404 132.5077 L 71.4404 127.5077 M 71.4404 132.5077 L 73.1505 127.8093 L 76.36444 123.979 M 73.1505 127.8093 L 74.8606 123.1108 M 62.8899 156 L 62.8899 151 L 61.1798 146.3015 M 62.8899 151 L 62.8899 146 L 64.6 141.3015 M 62.8899 146 L 62.8899 141 M 62.8899 146 L 61.1798 141.3015 L 57.96586 137.4713 M 61.1798 141.3015 L 59.4697 136.6031 L 59.4697 131.6031 M 59.4697 136.6031 L 57.7596 131.9046 M 62.8899 146 L 62.8899 141 L 61.1798 136.3015 M 62.8899 141 L 62.8899 136 L 64.6 131.3015 M 62.8899 136 L 62.8899 131 M 62.8899 136 L 64.6 131.3015 L 64.6 126.3015 M 64.6 131.3015 L 66.3101 126.6031 L 69.52404 122.7729 M 66.3101 126.6031 L 68.0202 121.9046 M 62.8899 136 L 62.8899 131 L 61.1798 126.3015 M 62.8899 131 L 62.8899 126 L 64.6 121.3015 M 62.8899 126 L 62.8899 121 M 62.8899 156 L 64.6 151.3015 L 64.6 146.3015 M 64.6 151.3015 L 66.3101 146.6031 L 69.52404 142.7729 M 66.3101 146.6031 L 68.0202 141.9046 M 66.3101 146.6031 L 66.3101 141.6031 L 64.6 136.9046 M 66.3101 141.6031 L 66.3101 136.6031 L 68.0202 131.9046 M 66.3101 136.6031 L 66.3101 131.6031 M 66.3101 146.6031 L 68.0202 141.9046 L 68.0202 136.9046 M 68.0202 141.9046 L 69.7303 137.2062 L 72.94424 133.376 M 69.7303 137.2062 L 71.4404 132.5077 M 69.7303 137.2062 L 72.94424 133.376 L 74.65434 128.6775 M 72.94424 133.376 L 76.15818 129.5457 L 80.48831 127.0457 M 76.15818 129.5457 L 79.37212 125.7155 M 69.7303 137.2062 L 71.4404 132.5077 L 71.4404 127.5077 M 71.4404 132.5077 L 73.1505 127.8093 L 76.36444 123.979 M 73.1505 127.8093 L 74.8606 123.1108 M 69.7303 137.2062 L 69.7303 132.2062 L 68.0202 127.5077 M 69.7303 132.2062 L 69.7303 127.2062 L 71.4404 122.5077 M 69.7303 127.2062 L 69.7303 122.2062 M 69.7303 127.2062 L 68.0202 122.5077 L 64.80626 118.6775 M 68.0202 122.5077 L 66.3101 117.8093 L 66.3101 112.8093 M 66.3101 117.8093 L 64.6 113.1108 M 69.7303 127.2062 L 69.7303 122.2062 L 68.0202 117.5077 M 69.7303 122.2062 L 69.7303 117.2062 L 71.4404 112.5077 M 69.7303 117.2062 L 69.7303 112.2062 M 69.7303 117.2062 L 71.4404 112.5077 L 71.4404 107.5077 M 71.4404 112.5077 L 73.1505 107.8093 L 76.36444 103.979 M 73.1505 107.8093 L 74.8606 103.1108 M 69.7303 117.2062 L 69.7303 112.2062 L 68.0202 107.5077 M 69.7303 112.2062 L 69.7303 107.2062 L 71.4404 102.5077 M 69.7303 107.2062 L 69.7303 102.2062 M 69.7303 137.2062 L 71.4404 132.5077 L 71.4404 127.5077 M 71.4404 132.5077 L 73.1505 127.8093 L 76.36444 123.979 M 73.1505 127.8093 L 74.8606 123.1108 M 73.1505 127.8093 L 73.1505 122.8093 L 71.4404 118.1108 M 73.1505 122.8093 L 73.1505 117.8093 L 74.8606 113.1108 M 73.1505 117.8093 L 73.1505 112.8093 M 73.1505 127.8093 L 74.8606 123.1108 L 74.8606 118.1108 M 74.8606 123.1108 L 76.5707 118.4124 L 79.78464 114.5821 M 76.5707 118.4124 L 78.2808 113.7139 M 76.5707 118.4124 L 79.78464 114.5821 L 81.49474 109.8837 M 79.78464 114.5821 L 82.99858 110.7519 L 87.32871 108.2519 M 82.99858 110.7519 L 86.21252 106.9217 M 76.5707 118.4124 L 78.2808 113.7139 L 78.2808 108.7139 M 78.2808 113.7139 L 79.9909 109.0154 L 83.20484 105.1852 M 79.9909 109.0154 L 81.701 104.317 M 76.5707 118.4124 L 79.78464 114.5821 L 81.49474 109.8837 M 79.78464 114.5821 L 82.99858 110.7519 L 87.32871 108.2519 M 82.99858 110.7519 L 86.21252 106.9217 M 82.99858 110.7519 L 84.70868 106.0535 L 84.70868 101.0535 M 84.70868 106.0535 L 86.41878 101.355 L 89.63272 97.5248 M 86.41878 101.355 L 88.12888 96.65656 M 82.99858 110.7519 L 86.21252 106.9217 L 87.92262 102.2233 M 86.21252 106.9217 L 89.42646 103.0915 L 93.75659 100.5915 M 89.42646 103.0915 L 92.6404 99.26128 M 89.42646 103.0915 L 93.75659 100.5915 L 96.97054 96.76128 M 93.75659 100.5915 L 98.08672 98.09149 L 103.0108 97.22325 M 98.08672 98.09149 L 102.4169 95.59149 M 89.42646 103.0915 L 92.6404 99.26128 L 94.3505 94.56282 M 92.6404 99.26128 L 95.85434 95.43106 L 100.1845 92.93106 M 95.85434 95.43106 L 99.06828 91.60085 M 76.5707 118.4124 L 78.2808 113.7139 L 78.2808 108.7139 M 78.2808 113.7139 L 79.9909 109.0154 L 83.20484 105.1852 M 79.9909 109.0154 L 81.701 104.317 M 79.9909 109.0154 L 79.9909 104.0154 L 78.2808 99.31699 M 79.9909 104.0154 L 79.9909 99.01544 L 81.701 94.31699 M 79.9909 99.01544 L 79.9909 94.01544 M 79.9909 109.0154 L 81.701 104.317 L 81.701 99.31699 M 81.701 104.317 L 83.4111 99.61853 L 86.62504 95.78831 M 83.4111 99.61853 L 85.1212 94.92007 M 83.4111 99.61853 L 86.62504 95.78831 L 88.33514 91.08986 M 86.62504 95.78831 L 89.83898 91.9581 L 94.16911 89.4581 M 89.83898 91.9581 L 93.05292 88.12788 M 83.4111 99.61853 L 85.1212 94.92007 L 85.1212 89.92007 M 85.1212 94.92007 L 86.8313 90.22162 L 90.04524 86.3914 M 86.8313 90.22162 L 88.5414 85.52316 M 62.8899 156 L 62.8899 151 L 61.1798 146.3015 M 62.8899 151 L 62.8899 146 L 64.6 141.3015 M 62.8899 146 L 62.8899 141 M 62.8899 146 L 61.1798 141.3015 L 57.96586 137.4713 M 61.1798 141.3015 L 59.4697 136.6031 L 59.4697 131.6031 M 59.4697 136.6031 L 57.7596 131.9046 M 62.8899 146 L 62.8899 141 L 61.1798 136.3015 M 62.8899 141 L 62.8899 136 L 64.6 131.3015 M 62.8899 136 L 62.8899 131 M 62.8899 136 L 64.6 131.3015 L 64.6 126.3015 M 64.6 131.3015 L 66.3101 126.6031 L 69.52404 122.7729 M 66.3101 126.6031 L 68.0202 121.9046 M 62.8899 136 L 62.8899 131 L 61.1798 126.3015 M 62.8899 131 L 62.8899 126 L 64.6 121.3015 M 62.8899 126 L 62.8899 121 M 62.8899 136 L 61.1798 131.3015 L 57.96586 127.4713 M 61.1798 131.3015 L 59.4697 126.6031 L 59.4697 121.6031 M 59.4697 126.6031 L 57.7596 121.9046 M 59.4697 126.6031 L 56.25576 122.7729 L 51.92563 120.2729 M 56.25576 122.7729 L 53.04182 118.9427 L 51.33172 114.2442 M 53.04182 118.9427 L 49.82788 115.1124 M 59.4697 126.6031 L 57.7596 121.9046 L 54.54566 118.0744 M 57.7596 121.9046 L 56.0495 117.2062 L 56.0495 112.2062 M 56.0495 117.2062 L 54.3394 112.5077 M 56.0495 117.2062 L 56.0495 112.2062 L 54.3394 107.5077 M 56.0495 112.2062 L 56.0495 107.2062 L 57.7596 102.5077 M 56.0495 107.2062 L 56.0495 102.2062 M 56.0495 117.2062 L 54.3394 112.5077 L 51.12546 108.6775 M 54.3394 112.5077 L 52.6293 107.8093 L 52.6293 102.8093 M 52.6293 107.8093 L 50.9192 103.1108 M 62.8899 136 L 62.8899 131 L 61.1798 126.3015 M 62.8899 131 L 62.8899 126 L 64.6 121.3015 M 62.8899 126 L 62.8899 121 M 62.8899 126 L 61.1798 121.3015 L 57.96586 117.4713 M 61.1798 121.3015 L 59.4697 116.6031 L 59.4697 111.6031 M 59.4697 116.6031 L 57.7596 111.9046 M 62.8899 126 L 62.8899 121 L 61.1798 116.3015 M 62.8899 121 L 62.8899 116 L 64.6 111.3015 M 62.8899 116 L 62.8899 111 M 62.8899 116 L 64.6 111.3015 L 64.6 106.3015 M 64.6 111.3015 L 66.3101 106.6031 L 69.52404 102.7729 M 66.3101 106.6031 L 68.0202 101.9046 M 62.8899 116 L 62.8899 111 L 61.1798 106.3015 M 62.8899 111 L 62.8899 106 L 64.6 101.3015 M 62.8899 106 L 62.8899 101 M 62.8899 116 L 64.6 111.3015 L 64.6 106.3015 M 64.6 111.3015 L 66.3101 106.6031 L 69.52404 102.7729 M 66.3101 106.6031 L 68.0202 101.9046 M 66.3101 106.6031 L 66.3101 101.6031 L 64.6 96.90463 M 66.3101 101.6031 L 66.3101 96.60309 L 68.0202 91.90463 M 66.3101 96.60309 L 66.3101 91.60309 M 66.3101 106.6031 L 68.0202 101.9046 L 68.0202 96.90463 M 68.0202 101.9046 L 69.7303 97.20618 L 72.94424 93.37596 M 69.7303 97.20618 L 71.4404 92.50772 M 69.7303 97.20618 L 72.94424 93.37596 L 74.65434 88.67751 M 72.94424 93.37596 L 76.15818 89.54575 L 80.48831 87.04575 M 76.15818 89.54575 L 79.37212 85.71553 M 69.7303 97.20618 L 71.4404 92.50772 L 71.4404 87.50772 M 71.4404 92.50772 L 73.1505 87.80927 L 76.36444 83.97905 M 73.1505 87.80927 L 74.8606 83.11081 M 62.8899 116 L 62.8899 111 L 61.1798 106.3015 M 62.8899 111 L 62.8899 106 L 64.6 101.3015 M 62.8899 106 L 62.8899 101 M 62.8899 106 L 61.1798 101.3015 L 57.96586 97.47133 M 61.1798 101.3015 L 59.4697 96.60309 L 59.4697 91.60309 M 59.4697 96.60309 L 57.7596 91.90463 M 62.8899 106 L 62.8899 101 L 61.1798 96.30154 M 62.8899 101 L 62.8899 96 L 64.6 91.30154 M 62.8899 96 L 62.8899 91 M 62.8899 96 L 64.6 91.30154 L 64.6 86.30154 M 64.6 91.30154 L 66.3101 86.60309 L 69.52404 82.77287 M 66.3101 86.60309 L 68.0202 81.90463 M 62.8899 96 L 62.8899 91 L 61.1798 86.30154 M 62.8899 91 L 62.8899 86 L 64.6 81.30154 M 62.8899 86 L 62.8899 81 M 62.8899 156 L 64.6 151.3015 L 64.6 146.3015 M 64.6 151.3015 L 66.3101 146.6031 L 69.52404 142.7729 M 66.3101 146.6031 L 68.0202 141.9046 M 66.3101 146.6031 L 66.3101 141.6031 L 64.6 136.9046 M 66.3101 141.6031 L 66.3101 136.6031 L 68.0202 131.9046 M 66.3101 136.6031 L 66.3101 131.6031 M 66.3101 146.6031 L 68.0202 141.9046 L 68.0202 136.9046 M 68.0202 141.9046 L 69.7303 137.2062 L 72.94424 133.376 M 69.7303 137.2062 L 71.4404 132.5077 M 69.7303 137.2062 L 72.94424 133.376 L 74.65434 128.6775 M 72.94424 133.376 L 76.15818 129.5457 L 80.48831 127.0457 M 76.15818 129.5457 L 79.37212 125.7155 M 69.7303 137.2062 L 71.4404 132.5077 L 71.4404 127.5077 M 71.4404 132.5077 L 73.1505 127.8093 L 76.36444 123.979 M 73.1505 127.8093 L 74.8606 123.1108 M 69.7303 137.2062 L 69.7303 132.2062 L 68.0202 127.5077 M 69.7303 132.2062 L 69.7303 127.2062 L 71.4404 122.5077 M 69.7303 127.2062 L 69.7303 122.2062 M 69.7303 127.2062 L 68.0202 122.5077 L 64.80626 118.6775 M 68.0202 122.5077 L 66.3101 117.8093 L 66.3101 112.8093 M 66.3101 117.8093 L 64.6 113.1108 M 69.7303 127.2062 L 69.7303 122.2062 L 68.0202 117.5077 M 69.7303 122.2062 L 69.7303 117.2062 L 71.4404 112.5077 M 69.7303 117.2062 L 69.7303 112.2062 M 69.7303 117.2062 L 71.4404 112.5077 L 71.4404 107.5077 M 71.4404 112.5077 L 73.1505 107.8093 L 76.36444 103.979 M 73.1505 107.8093 L 74.8606 103.1108 M 69.7303 117.2062 L 69.7303 112.2062 L 68.0202 107.5077 M 69.7303 112.2062 L 69.7303 107.2062 L 71.4404 102.5077 M 69.7303 107.2062 L 69.7303 102.2062 M 69.7303 137.2062 L 71.4404 132.5077 L 71.4404 127.5077 M 71.4404 132.5077 L 73.1505 127.8093 L 76.36444 123.979 M 73.1505 127.8093 L 74.8606 123.1108 M 73.1505 127.8093 L 73.1505 122.8093 L 71.4404 118.1108 M 73.1505 122.8093 L 73.1505 117.8093 L 74.8606 113.1108 M 73.1505 117.8093 L 73.1505 112.8093 M 73.1505 127.8093 L 74.8606 123.1108 L 74.8606 118.1108 M 74.8606 123.1108 L 76.5707 118.4124 L 79.78464 114.5821 M 76.5707 118.4124 L 78.2808 113.7139 M 76.5707 118.4124 L 79.78464 114.5821 L 81.49474 109.8837 M 79.78464 114.5821 L 82.99858 110.7519 L 87.32871 108.2519 M 82.99858 110.7519 L 86.21252 106.9217 M 76.5707 118.4124 L 78.2808 113.7139 L 78.2808 108.7139 M 78.2808 113.7139 L 79.9909 109.0154 L 83.20484 105.1852 M 79.9909 109.0154 L 81.701 104.317 M 76.5707 118.4124 L 79.78464 114.5821 L 81.49474 109.8837 M 79.78464 114.5821 L 82.99858 110.7519 L 87.32871 108.2519 M 82.99858 110.7519 L 86.21252 106.9217 M 82.99858 110.7519 L 84.70868 106.0535 L 84.70868 101.0535 M 84.70868 106.0535 L 86.41878 101.355 L 89.63272 97.5248 M 86.41878 101.355 L 88.12888 96.65656 M 82.99858 110.7519 L 86.21252 106.9217 L 87.92262 102.2233 M 86.21252 106.9217 L 89.42646 103.0915 L 93.75659 100.5915 M 89.42646 103.0915 L 92.6404 99.26128 M 89.42646 103.0915 L 93.75659 100.5915 L 96.97054 96.76128 M 93.75659 100.5915 L 98.08672 98.09149 L 103.0108 97.22325 M 98.08672 98.09149 L 102.4169 95.59149 M 89.42646 103.0915 L 92.6404 99.26128 L 94.3505 94.56282 M 92.6404 99.26128 L 95.85434 95.43106 L 100.1845 92.93106 M 95.85434 95.43106 L 99.06828 91.60085 M 76.5707 118.4124 L 78.2808 113.7139 L 78.2808 108.7139 M 78.2808 113.7139 L 79.9909 109.0154 L 83.20484 105.1852 M 79.9909 109.0154 L 81.701 104.317 M 79.9909 109.0154 L 79.9909 104.0154 L 78.2808 99.31699 M 79.9909 104.0154 L 79.9909 99.01544 L 81.701 94.31699 M 79.9909 99.01544 L 79.9909 94.01544 M 79.9909 109.0154 L 81.701 104.317 L 81.701 99.31699 M 81.701 104.317 L 83.4111 99.61853 L 86.62504 95.78831 M 83.4111 99.61853 L 85.1212 94.92007 M 83.4111 99.61853 L 86.62504 95.78831 L 88.33514 91.08986 M 86.62504 95.78831 L 89.83898 91.9581 L 94.16911 89.4581 M 89.83898 91.9581 L 93.05292 88.12788 M 83.4111 99.61853 L 85.1212 94.92007 L 85.1212 89.92007 M 85.1212 94.92007 L 86.8313 90.22162 L 90.04524 86.3914 M 86.8313 90.22162 L 88.5414 85.52316 M 76.5707 118.4124 L 76.5707 113.4124 L 74.8606 108.7139 M 76.5707 113.4124 L 76.5707 108.4124 L 78.2808 103.7139 M 76.5707 108.4124 L 76.5707 103.4124 M 76.5707 108.4124 L 74.8606 103.7139 L 71.64666 99.88368 M 74.8606 103.7139 L 73.1505 99.01544 L 73.1505 94.01544 M 73.1505 99.01544 L 71.4404 94.31699 M 76.5707 108.4124 L 76.5707 103.4124 L 74.8606 98.7139 M 76.5707 103.4124 L 76.5707 98.41235 L 78.2808 93.7139 M 76.5707 98.41235 L 76.5707 93.41235 M 76.5707 98.41235 L 78.2808 93.7139 L 78.2808 88.7139 M 78.2808 93.7139 L 79.9909 89.01544 L 83.20484 85.18523 M 79.9909 89.01544 L 81.701 84.31699 M 76.5707 98.41235 L 76.5707 93.41235 L 74.8606 88.7139 M 76.5707 93.41235 L 76.5707 88.41235 L 78.2808 83.7139 M 76.5707 88.41235 L 76.5707 83.41235 M 76.5707 98.41235 L 74.8606 93.7139 L 71.64666 89.88368 M 74.8606 93.7139 L 73.1505 89.01544 L 73.1505 84.01544 M 73.1505 89.01544 L 71.4404 84.31699 M 73.1505 89.01544 L 69.93656 85.18523 L 65.60643 82.68523 M 69.93656 85.18523 L 66.72262 81.35501 L 65.01252 76.65656 M 66.72262 81.35501 L 63.50868 77.5248 M 73.1505 89.01544 L 71.4404 84.31699 L 68.22646 80.48677 M 71.4404 84.31699 L 69.7303 79.61853 L 69.7303 74.61853 M 69.7303 79.61853 L 68.0202 74.92007 M 69.7303 79.61853 L 69.7303 74.61853 L 68.0202 69.92007 M 69.7303 74.61853 L 69.7303 69.61853 L 71.4404 64.92007 M 69.7303 69.61853 L 69.7303 64.61853 M 69.7303 79.61853 L 68.0202 74.92007 L 64.80626 71.08986 M 68.0202 74.92007 L 66.3101 70.22162 L 66.3101 65.22162 M 66.3101 70.22162 L 64.6 65.52316 M 76.5707 98.41235 L 76.5707 93.41235 L 74.8606 88.7139 M 76.5707 93.41235 L 76.5707 88.41235 L 78.2808 83.7139 M 76.5707 88.41235 L 76.5707 83.41235 M 76.5707 88.41235 L 74.8606 83.7139 L 71.64666 79.88368 M 74.8606 83.7139 L 73.1505 79.01544 L 73.1505 74.01544 M 73.1505 79.01544 L 71.4404 74.31699 M 76.5707 88.41235 L 76.5707 83.41235 L 74.8606 78.7139 M 76.5707 83.41235 L 76.5707 78.41235 L 78.2808 73.7139 M 76.5707 78.41235 L 76.5707 73.41235 M 76.5707 78.41235 L 78.2808 73.7139 L 78.2808 68.7139 M 78.2808 73.7139 L 79.9909 69.01544 L 83.20484 65.18523 M 79.9909 69.01544 L 81.701 64.31699 M 76.5707 78.41235 L 76.5707 73.41235 L 74.8606 68.7139 M 76.5707 73.41235 L 76.5707 68.41235 L 78.2808 63.7139 M 76.5707 68.41235 L 76.5707 63.41235 M 76.5707 78.41235 L 78.2808 73.7139 L 78.2808 68.7139 M 78.2808 73.7139 L 79.9909 69.01544 L 83.20484 65.18523 M 79.9909 69.01544 L 81.701 64.31699 M 79.9909 69.01544 L 79.9909 64.01544 L 78.2808 59.31699 M 79.9909 64.01544 L 79.9909 59.01544 L 81.701 54.31699 M 79.9909 59.01544 L 79.9909 54.01544 M 79.9909 69.01544 L 81.701 64.31699 L 81.701 59.31699 M 81.701 64.31699 L 83.4111 59.61853 L 86.62504 55.7883 M 83.4111 59.61853 L 85.1212 54.92007 M 83.4111 59.61853 L 86.62504 55.7883 L 88.33514 51.08984 M 86.62504 55.7883 L 89.83898 51.95807 L 94.16911 49.45807 M 89.83898 51.95807 L 93.05292 48.12784 M 83.4111 59.61853 L 85.1212 54.92007 L 85.1212 49.92007 M 85.1212 54.92007 L 86.8313 50.22162 L 90.04524 46.39139 M 86.8313 50.22162 L 88.5414 45.52316 M 76.5707 78.41235 L 76.5707 73.41235 L 74.8606 68.7139 M 76.5707 73.41235 L 76.5707 68.41235 L 78.2808 63.7139 M 76.5707 68.41235 L 76.5707 63.41235 M 76.5707 68.41235 L 74.8606 63.7139 L 71.64666 59.88367 M 74.8606 63.7139 L 73.1505 59.01544 L 73.1505 54.01544 M 73.1505 59.01544 L 71.4404 54.31699 M 76.5707 68.41235 L 76.5707 63.41235 L 74.8606 58.7139 M 76.5707 63.41235 L 76.5707 58.41235 L 78.2808 53.7139 M 76.5707 58.41235 L 76.5707 53.41235 M 76.5707 58.41235 L 78.2808 53.7139 L 78.2808 48.7139 M 78.2808 53.7139 L 79.9909 49.01544 L 83.20484 45.18521 M 79.9909 49.01544 L 81.701 44.31699 M 76.5707 58.41235 L 76.5707 53.41235 L 74.8606 48.7139 M 76.5707 53.41235 L 76.5707 48.41235 L 78.2808 43.7139 M 76.5707 48.41235 L 76.5707 43.41235 M 76.5707 118.4124 L 78.2808 113.7139 L 78.2808 108.7139 M 78.2808 113.7139 L 79.9909 109.0154 L 83.20484 105.1852 M 79.9909 109.0154 L 81.701 104.317 M 79.9909 109.0154 L 79.9909 104.0154 L 78.2808 99.31699 M 79.9909 104.0154 L 79.9909 99.01544 L 81.701 94.31699 M 79.9909 99.01544 L 79.9909 94.01544 M 79.9909 109.0154 L 81.701 104.317 L 81.701 99.31699 M 81.701 104.317 L 83.4111 99.61853 L 86.62504 95.78831 M 83.4111 99.61853 L 85.1212 94.92007 M 83.4111 99.61853 L 86.62504 95.78831 L 88.33514 91.08986 M 86.62504 95.78831 L 89.83898 91.9581 L 94.16911 89.4581 M 89.83898 91.9581 L 93.05292 88.12788 M 83.4111 99.61853 L 85.1212 94.92007 L 85.1212 89.92007 M 85.1212 94.92007 L 86.8313 90.22162 L 90.04524 86.3914 M 86.8313 90.22162 L 88.5414 85.52316 M 83.4111 99.61853 L 83.4111 94.61853 L 81.701 89.92007 M 83.4111 94.61853 L 83.4111 89.61853 L 85.1212 84.92007 M 83.4111 89.61853 L 83.4111 84.61853 M 83.4111 89.61853 L 81.701 84.92007 L 78.48706 81.08986 M 81.701 84.92007 L 79.9909 80.22162 L 79.9909 75.22162 M 79.9909 80.22162 L 78.2808 75.52316 M 83.4111 89.61853 L 83.4111 84.61853 L 81.701 79.92007 M 83.4111 84.61853 L 83.4111 79.61853 L 85.1212 74.92007 M 83.4111 79.61853 L 83.4111 74.61853 M 83.4111 79.61853 L 85.1212 74.92007 L 85.1212 69.92007 M 85.1212 74.92007 L 86.8313 70.22162 L 90.04524 66.3914 M 86.8313 70.22162 L 88.5414 65.52316 M 83.4111 79.61853 L 83.4111 74.61853 L 81.701 69.92007 M 83.4111 74.61853 L 83.4111 69.61853 L 85.1212 64.92007 M 83.4111 69.61853 L 83.4111 64.61853 M 83.4111 99.61853 L 85.1212 94.92007 L 85.1212 89.92007 M 85.1212 94.92007 L 86.8313 90.22162 L 90.04524 86.3914 M 86.8313 90.22162 L 88.5414 85.52316 M 86.8313 90.22162 L 86.8313 85.22162 L 85.1212 80.52316 M 86.8313 85.22162 L 86.8313 80.22162 L 88.5414 75.52316 M 86.8313 80.22162 L 86.8313 75.22162 M 86.8313 90.22162 L 88.5414 85.52316 L 88.5414 80.52316 M 88.5414 85.52316 L 90.2515 80.82471 L 93.46544 76.99449 M 90.2515 80.82471 L 91.9616 76.12625 M 90.2515 80.82471 L 93.46544 76.99449 L 95.17554 72.29604 M 93.46544 76.99449 L 96.67938 73.16428 L 101.0095 70.66428 M 96.67938 73.16428 L 99.89333 69.33406 M 90.2515 80.82471 L 91.9616 76.12625 L 91.9616 71.12625 M 91.9616 76.12625 L 93.6717 71.4278 L 96.88564 67.59758 M 93.6717 71.4278 L 95.38181 66.72934 M 90.2515 80.82471 L 93.46544 76.99449 L 95.17554 72.29604 M 93.46544 76.99449 L 96.67938 73.16428 L 101.0095 70.66428 M 96.67938 73.16428 L 99.89333 69.33406 M 96.67938 73.16428 L 98.38948 68.46582 L 98.38948 63.46582 M 98.38948 68.46582 L 100.0996 63.76736 L 103.3135 59.93713 M 100.0996 63.76736 L 101.8097 59.06891 M 96.67938 73.16428 L 99.89333 69.33406 L 101.6034 64.6356 M 99.89333 69.33406 L 103.1073 65.50385 L 107.4374 63.00385 M 103.1073 65.50385 L 106.3212 61.67363 M 103.1073 65.50385 L 107.4374 63.00385 L 110.6513 59.17361 M 107.4374 63.00385 L 111.7675 60.50385 L 116.6916 59.63559 M 111.7675 60.50385 L 116.0976 58.00385 M 103.1073 65.50385 L 106.3212 61.67363 L 108.0313 56.97516 M 106.3212 61.67363 L 109.5351 57.84341 L 113.8653 55.34341 M 109.5351 57.84341 L 112.7491 54.01318 M 90.2515 80.82471 L 91.9616 76.12625 L 91.9616 71.12625 M 91.9616 76.12625 L 93.6717 71.4278 L 96.88564 67.59758 M 93.6717 71.4278 L 95.38181 66.72934 M 93.6717 71.4278 L 93.6717 66.4278 L 91.9616 61.72934 M 93.6717 66.4278 L 93.6717 61.4278 L 95.38181 56.72934 M 93.6717 61.4278 L 93.6717 56.4278 M 93.6717 71.4278 L 95.38181 66.72934 L 95.38181 61.72934 M 95.38181 66.72934 L 97.0919 62.03088 L 100.3058 58.20065 M 97.0919 62.03088 L 98.802 57.33243 M 97.0919 62.03088 L 100.3058 58.20065 L 102.0159 53.5022 M 100.3058 58.20065 L 103.5198 54.37042 L 107.8499 51.87042 M 103.5198 54.37042 L 106.7337 50.54019 M 97.0919 62.03088 L 98.802 57.33243 L 98.802 52.33243 M 98.802 57.33243 L 100.5121 52.63397 L 103.726 48.80374 M 100.5121 52.63397 L 102.2222 47.93552 M 90.2515 80.82471 L 93.46544 76.99449 L 95.17554 72.29604 M 93.46544 76.99449 L 96.67938 73.16428 L 101.0095 70.66428 M 96.67938 73.16428 L 99.89333 69.33406 M 96.67938 73.16428 L 98.38948 68.46582 L 98.38948 63.46582 M 98.38948 68.46582 L 100.0996 63.76736 L 103.3135 59.93713 M 100.0996 63.76736 L 101.8097 59.06891 M 96.67938 73.16428 L 99.89333 69.33406 L 101.6034 64.6356 M 99.89333 69.33406 L 103.1073 65.50385 L 107.4374 63.00385 M 103.1073 65.50385 L 106.3212 61.67363 M 103.1073 65.50385 L 107.4374 63.00385 L 110.6513 59.17361 M 107.4374 63.00385 L 111.7675 60.50385 L 116.6916 59.63559 M 111.7675 60.50385 L 116.0976 58.00385 M 103.1073 65.50385 L 106.3212 61.67363 L 108.0313 56.97516 M 106.3212 61.67363 L 109.5351 57.84341 L 113.8653 55.34341 M 109.5351 57.84341 L 112.7491 54.01318 M 103.1073 65.50385 L 104.8174 60.80539 L 104.8174 55.80539 M 104.8174 60.80539 L 106.5275 56.10693 L 109.7414 52.2767 M 106.5275 56.10693 L 108.2376 51.40848 M 106.5275 56.10693 L 106.5275 51.10693 L 104.8174 46.40848 M 106.5275 51.10693 L 106.5275 46.10693 L 108.2376 41.40848 M 106.5275 46.10693 L 106.5275 41.10693 M 106.5275 56.10693 L 108.2376 51.40848 L 108.2376 46.40848 M 108.2376 51.40848 L 109.9477 46.71002 L 113.1616 42.87979 M 109.9477 46.71002 L 111.6578 42.01157 M 109.9477 46.71002 L 113.1616 42.87979 L 114.8717 38.18134 M 113.1616 42.87979 L 116.3755 39.04956 L 120.7057 36.54956 M 116.3755 39.04956 L 119.5895 35.21933 M 109.9477 46.71002 L 111.6578 42.01157 L 111.6578 37.01157 M 111.6578 42.01157 L 113.3679 37.31311 L 116.5818 33.48288 M 113.3679 37.31311 L 115.078 32.61465 M 103.1073 65.50385 L 106.3212 61.67363 L 108.0313 56.97516 M 106.3212 61.67363 L 109.5351 57.84341 L 113.8653 55.34341 M 109.5351 57.84341 L 112.7491 54.01318 M 109.5351 57.84341 L 111.2452 53.14496 L 111.2452 48.14496 M 111.2452 53.14496 L 112.9553 48.4465 L 116.1693 44.61627 M 112.9553 48.4465 L 114.6654 43.74805 M 109.5351 57.84341 L 112.7491 54.01318 L 114.4592 49.31473 M 112.7491 54.01318 L 115.963 50.18295 L 120.2932 47.68295 M 115.963 50.18295 L 119.177 46.35272 M 115.963 50.18295 L 120.2932 47.68295 L 123.5071 43.85272 M 120.2932 47.68295 L 124.6233 45.18295 L 129.5473 44.3147 M 124.6233 45.18295 L 128.9534 42.68295 M 115.963 50.18295 L 119.177 46.35272 L 120.8871 41.65427 M 119.177 46.35272 L 122.3909 42.52249 L 126.721 40.02249 M 122.3909 42.52249 L 125.6048 38.69226 M 115.963 50.18295 L 120.2932 47.68295 L 123.5071 43.85272 M 120.2932 47.68295 L 124.6233 45.18295 L 129.5473 44.3147 M 124.6233 45.18295 L 128.9534 42.68295 M 124.6233 45.18295 L 127.8372 41.35272 L 129.5473 36.65427 M 127.8372 41.35272 L 131.0511 37.52249 L 135.3813 35.02249 M 131.0511 37.52249 L 134.2651 33.69226 M 124.6233 45.18295 L 128.9534 42.68295 L 132.1673 38.85272 M 128.9534 42.68295 L 133.2835 40.18295 L 138.2076 39.3147 M 133.2835 40.18295 L 137.6136 37.68295 M 133.2835 40.18295 L 138.2076 39.3147 L 142.5377 36.8147 M 138.2076 39.3147 L 143.1316 38.44644 L 148.0556 39.3147 M 143.1316 38.44644 L 148.0556 37.57819 M 133.2835 40.18295 L 137.6136 37.68295 L 140.8276 33.85272 M 137.6136 37.68295 L 141.9438 35.18295 L 146.8678 34.3147 M 141.9438 35.18295 L 146.2739 32.68295 M 115.963 50.18295 L 119.177 46.35272 L 120.8871 41.65427 M 119.177 46.35272 L 122.3909 42.52249 L 126.721 40.02249 M 122.3909 42.52249 L 125.6048 38.69226 M 122.3909 42.52249 L 124.101 37.82404 L 124.101 32.82404 M 124.101 37.82404 L 125.8111 33.12558 L 129.025 29.29535 M 125.8111 33.12558 L 127.5212 28.42712 M 122.3909 42.52249 L 125.6048 38.69226 L 127.3149 33.9938 M 125.6048 38.69226 L 128.8188 34.86203 L 133.1489 32.36203 M 128.8188 34.86203 L 132.0327 31.0318 M 128.8188 34.86203 L 133.1489 32.36203 L 136.3628 28.5318 M 133.1489 32.36203 L 137.479 29.86203 L 142.4031 28.99377 M 137.479 29.86203 L 141.8091 27.36203 M 128.8188 34.86203 L 132.0327 31.0318 L 133.7428 26.33334 M 132.0327 31.0318 L 135.2466 27.20157 L 139.5768 24.70157 M 135.2466 27.20157 L 138.4606 23.37134 M 90.2515 80.82471 L 91.9616 76.12625 L 91.9616 71.12625 M 91.9616 76.12625 L 93.6717 71.4278 L 96.88564 67.59758 M 93.6717 71.4278 L 95.38181 66.72934 M 93.6717 71.4278 L 93.6717 66.4278 L 91.9616 61.72934 M 93.6717 66.4278 L 93.6717 61.4278 L 95.38181 56.72934 M 93.6717 61.4278 L 93.6717 56.4278 M 93.6717 71.4278 L 95.38181 66.72934 L 95.38181 61.72934 M 95.38181 66.72934 L 97.0919 62.03088 L 100.3058 58.20065 M 97.0919 62.03088 L 98.802 57.33243 M 97.0919 62.03088 L 100.3058 58.20065 L 102.0159 53.5022 M 100.3058 58.20065 L 103.5198 54.37042 L 107.8499 51.87042 M 103.5198 54.37042 L 106.7337 50.54019 M 97.0919 62.03088 L 98.802 57.33243 L 98.802 52.33243 M 98.802 57.33243 L 100.5121 52.63397 L 103.726 48.80374 M 100.5121 52.63397 L 102.2222 47.93552 M 97.0919 62.03088 L 97.0919 57.03088 L 95.38181 52.33243 M 97.0919 57.03088 L 97.0919 52.03088 L 98.802 47.33243 M 97.0919 52.03088 L 97.0919 47.03088 M 97.0919 52.03088 L 95.38181 47.33243 L 92.16786 43.5022 M 95.38181 47.33243 L 93.6717 42.63397 L 93.6717 37.63397 M 93.6717 42.63397 L 91.9616 37.93552 M 97.0919 52.03088 L 97.0919 47.03088 L 95.38181 42.33243 M 97.0919 47.03088 L 97.0919 42.03088 L 98.802 37.33243 M 97.0919 42.03088 L 97.0919 37.03088 M 97.0919 42.03088 L 98.802 37.33243 L 98.802 32.33243 M 98.802 37.33243 L 100.5121 32.63397 L 103.726 28.80374 M 100.5121 32.63397 L 102.2222 27.93552 M 97.0919 42.03088 L 97.0919 37.03088 L 95.38181 32.33243 M 97.0919 37.03088 L 97.0919 32.03088 L 98.802 27.33243 M 97.0919 32.03088 L 97.0919 27.03088 M 97.0919 62.03088 L 98.802 57.33243 L 98.802 52.33243 M 98.802 57.33243 L 100.5121 52.63397 L 103.726 48.80374 M 100.5121 52.63397 L 102.2222 47.93552 M 100.5121 52.63397 L 100.5121 47.63397 L 98.802 42.93552 M 100.5121 47.63397 L 100.5121 42.63397 L 102.2222 37.93552 M 100.5121 42.63397 L 100.5121 37.63397 M 100.5121 52.63397 L 102.2222 47.93552 L 102.2222 42.93552 M 102.2222 47.93552 L 103.9323 43.23706 L 107.1462 39.40683 M 103.9323 43.23706 L 105.6424 38.5386 M 103.9323 43.23706 L 107.1462 39.40683 L 108.8563 34.70837 M 107.1462 39.40683 L 110.3602 35.5766 L 114.6903 33.0766 M 110.3602 35.5766 L 113.5741 31.74637 M 103.9323 43.23706 L 105.6424 38.5386 L 105.6424 33.5386 M 105.6424 38.5386 L 107.3525 33.84015 L 110.5664 30.00992 M 107.3525 33.84015 L 109.0626 29.14169 M 103.9323 43.23706 L 107.1462 39.40683 L 108.8563 34.70837 M 107.1462 39.40683 L 110.3602 35.5766 L 114.6903 33.0766 M 110.3602 35.5766 L 113.5741 31.74637 M 110.3602 35.5766 L 112.0703 30.87814 L 112.0703 25.87814 M 112.0703 30.87814 L 113.7804 26.17969 L 116.9943 22.34946 M 113.7804 26.17969 L 115.4905 21.48123 M 110.3602 35.5766 L 113.5741 31.74637 L 115.2842 27.04791 M 113.5741 31.74637 L 116.7881 27.91614 L 121.1182 25.41614 M 116.7881 27.91614 L 120.002 24.08591 M 116.7881 27.91614 L 121.1182 25.41614 L 124.3321 21.58591 M 121.1182 25.41614 L 125.4483 22.91614 L 130.3724 22.04788 M 125.4483 22.91614 L 129.7784 20.41614 M 116.7881 27.91614 L 120.002 24.08591 L 121.7121 19.38745 M 120.002 24.08591 L 123.2159 20.25568 L 127.5461 17.75568 M 123.2159 20.25568 L 126.4299 16.42545 M 103.9323 43.23706 L 105.6424 38.5386 L 105.6424 33.5386 M 105.6424 38.5386 L 107.3525 33.84015 L 110.5664 30.00992 M 107.3525 33.84015 L 109.0626 29.14169 M 107.3525 33.84015 L 107.3525 28.84015 L 105.6424 24.14169 M 107.3525 28.84015 L 107.3525 23.84015 L 109.0626 19.14169 M 107.3525 23.84015 L 107.3525 18.84015 M 107.3525 33.84015 L 109.0626 29.14169 L 109.0626 24.14169 M 109.0626 29.14169 L 110.7727 24.44324 L 113.9866 20.61301 M 110.7727 24.44324 L 112.4828 19.74478 M 110.7727 24.44324 L 113.9866 20.61301 L 115.6967 15.91455 M 113.9866 20.61301 L 117.2006 16.78278 L 121.5307 14.28278 M 117.2006 16.78278 L 120.4145 12.95255 M 110.7727 24.44324 L 112.4828 19.74478 L 112.4828 14.74478 M 112.4828 19.74478 L 114.1929 15.04633 L 117.4068 11.21609 M 114.1929 15.04633 L 115.903 10.34787 M 62.8899 156 L 62.8899 151 L 61.1798 146.3015 M 62.8899 151 L 62.8899 146 L 64.6 141.3015 M 62.8899 146 L 62.8899 141 M 62.8899 146 L 61.1798 141.3015 L 57.96586 137.4713 M 61.1798 141.3015 L 59.4697 136.6031 L 59.4697 131.6031 M 59.4697 136.6031 L 57.7596 131.9046 M 62.8899 146 L 62.8899 141 L 61.1798 136.3015 M 62.8899 141 L 62.8899 136 L 64.6 131.3015 M 62.8899 136 L 62.8899 131 M 62.8899 136 L 64.6 131.3015 L 64.6 126.3015 M 64.6 131.3015 L 66.3101 126.6031 L 69.52404 122.7729 M 66.3101 126.6031 L 68.0202 121.9046 M 62.8899 136 L 62.8899 131 L 61.1798 126.3015 M 62.8899 131 L 62.8899 126 L 64.6 121.3015 M 62.8899 126 L 62.8899 121 M 62.8899 136 L 61.1798 131.3015 L 57.96586 127.4713 M 61.1798 131.3015 L 59.4697 126.6031 L 59.4697 121.6031 M 59.4697 126.6031 L 57.7596 121.9046 M 59.4697 126.6031 L 56.25576 122.7729 L 51.92563 120.2729 M 56.25576 122.7729 L 53.04182 118.9427 L 51.33172 114.2442 M 53.04182 118.9427 L 49.82788 115.1124 M 59.4697 126.6031 L 57.7596 121.9046 L 54.54566 118.0744 M 57.7596 121.9046 L 56.0495 117.2062 L 56.0495 112.2062 M 56.0495 117.2062 L 54.3394 112.5077 M 56.0495 117.2062 L 56.0495 112.2062 L 54.3394 107.5077 M 56.0495 112.2062 L 56.0495 107.2062 L 57.7596 102.5077 M 56.0495 107.2062 L 56.0495 102.2062 M 56.0495 117.2062 L 54.3394 112.5077 L 51.12546 108.6775 M 54.3394 112.5077 L 52.6293 107.8093 L 52.6293 102.8093 M 52.6293 107.8093 L 50.9192 103.1108 M 62.8899 136 L 62.8899 131 L 61.1798 126.3015 M 62.8899 131 L 62.8899 126 L 64.6 121.3015 M 62.8899 126 L 62.8899 121 M 62.8899 126 L 61.1798 121.3015 L 57.96586 117.4713 M 61.1798 121.3015 L 59.4697 116.6031 L 59.4697 111.6031 M 59.4697 116.6031 L 57.7596 111.9046 M 62.8899 126 L 62.8899 121 L 61.1798 116.3015 M 62.8899 121 L 62.8899 116 L 64.6 111.3015 M 62.8899 116 L 62.8899 111 M 62.8899 116 L 64.6 111.3015 L 64.6 106.3015 M 64.6 111.3015 L 66.3101 106.6031 L 69.52404 102.7729 M 66.3101 106.6031 L 68.0202 101.9046 M 62.8899 116 L 62.8899 111 L 61.1798 106.3015 M 62.8899 111 L 62.8899 106 L 64.6 101.3015 M 62.8899 106 L 62.8899 101 M 62.8899 116 L 64.6 111.3015 L 64.6 106.3015 M 64.6 111.3015 L 66.3101 106.6031 L 69.52404 102.7729 M 66.3101 106.6031 L 68.0202 101.9046 M 66.3101 106.6031 L 66.3101 101.6031 L 64.6 96.90463 M 66.3101 101.6031 L 66.3101 96.60309 L 68.0202 91.90463 M 66.3101 96.60309 L 66.3101 91.60309 M 66.3101 106.6031 L 68.0202 101.9046 L 68.0202 96.90463 M 68.0202 101.9046 L 69.7303 97.20618 L 72.94424 93.37596 M 69.7303 97.20618 L 71.4404 92.50772 M 69.7303 97.20618 L 72.94424 93.37596 L 74.65434 88.67751 M 72.94424 93.37596 L 76.15818 89.54575 L 80.48831 87.04575 M 76.15818 89.54575 L 79.37212 85.71553 M 69.7303 97.20618 L 71.4404 92.50772 L 71.4404 87.50772 M 71.4404 92.50772 L 73.1505 87.80927 L 76.36444 83.97905 M 73.1505 87.80927 L 74.8606 83.11081 M 62.8899 116 L 62.8899 111 L 61.1798 106.3015 M 62.8899 111 L 62.8899 106 L 64.6 101.3015 M 62.8899 106 L 62.8899 101 M 62.8899 106 L 61.1798 101.3015 L 57.96586 97.47133 M 61.1798 101.3015 L 59.4697 96.60309 L 59.4697 91.60309 M 59.4697 96.60309 L 57.7596 91.90463 M 62.8899 106 L 62.8899 101 L 61.1798 96.30154 M 62.8899 101 L 62.8899 96 L 64.6 91.30154 M 62.8899 96 L 62.8899 91 M 62.8899 96 L 64.6 91.30154 L 64.6 86.30154 M 64.6 91.30154 L 66.3101 86.60309 L 69.52404 82.77287 M 66.3101 86.60309 L 68.0202 81.90463 M 62.8899 96 L 62.8899 91 L 61.1798 86.30154 M 62.8899 91 L 62.8899 86 L 64.6 81.30154 M 62.8899 86 L 62.8899 81 M 62.8899 116 L 61.1798 111.3015 L 57.96586 107.4713 M 61.1798 111.3015 L 59.4697 106.6031 L 59.4697 101.6031 M 59.4697 106.6031 L 57.7596 101.9046 M 59.4697 106.6031 L 56.25576 102.7729 L 51.92563 100.2729 M 56.25576 102.7729 L 53.04182 98.94266 L 51.33172 94.2442 M 53.04182 98.94266 L 49.82788 95.11244 M 59.4697 106.6031 L 57.7596 101.9046 L 54.54566 98.07442 M 57.7596 101.9046 L 56.0495 97.20618 L 56.0495 92.20618 M 56.0495 97.20618 L 54.3394 92.50772 M 56.0495 97.20618 L 56.0495 92.20618 L 54.3394 87.50772 M 56.0495 92.20618 L 56.0495 87.20618 L 57.7596 82.50772 M 56.0495 87.20618 L 56.0495 82.20618 M 56.0495 97.20618 L 54.3394 92.50772 L 51.12546 88.67751 M 54.3394 92.50772 L 52.6293 87.80927 L 52.6293 82.80927 M 52.6293 87.80927 L 50.9192 83.11081 M 56.0495 97.20618 L 52.83556 93.37596 L 48.50543 90.87596 M 52.83556 93.37596 L 49.62162 89.54575 L 47.91152 84.84729 M 49.62162 89.54575 L 46.40768 85.71553 M 49.62162 89.54575 L 45.29149 87.04575 L 40.36745 86.17751 M 45.29149 87.04575 L 40.96136 84.54575 L 37.74742 80.71553 M 40.96136 84.54575 L 36.63123 82.04575 M 49.62162 89.54575 L 46.40768 85.71553 L 42.07755 83.21553 M 46.40768 85.71553 L 43.19374 81.88531 L 41.48364 77.18686 M 43.19374 81.88531 L 39.9798 78.0551 M 43.19374 81.88531 L 41.48364 77.18686 L 38.2697 73.35664 M 41.48364 77.18686 L 39.77354 72.4884 L 39.77354 67.4884 M 39.77354 72.4884 L 38.06344 67.78995 M 43.19374 81.88531 L 39.9798 78.0551 L 35.64967 75.5551 M 39.9798 78.0551 L 36.76586 74.22488 L 35.05576 69.52643 M 36.76586 74.22488 L 33.55192 70.39467 M 56.0495 97.20618 L 54.3394 92.50772 L 51.12546 88.67751 M 54.3394 92.50772 L 52.6293 87.80927 L 52.6293 82.80927 M 52.6293 87.80927 L 50.9192 83.11081 M 52.6293 87.80927 L 49.41536 83.97905 L 45.08523 81.47905 M 49.41536 83.97905 L 46.20142 80.14883 L 44.49132 75.45038 M 46.20142 80.14883 L 42.98748 76.31862 M 52.6293 87.80927 L 50.9192 83.11081 L 47.70526 79.28059 M 50.9192 83.11081 L 49.2091 78.41235 L 49.2091 73.41235 M 49.2091 78.41235 L 47.499 73.7139 M 49.2091 78.41235 L 49.2091 73.41235 L 47.499 68.7139 M 49.2091 73.41235 L 49.2091 68.41235 L 50.9192 63.7139 M 49.2091 68.41235 L 49.2091 63.41235 M 49.2091 78.41235 L 47.499 73.7139 L 44.28506 69.88368 M 47.499 73.7139 L 45.7889 69.01544 L 45.7889 64.01544 M 45.7889 69.01544 L 44.0788 64.31699 M 49.2091 78.41235 L 49.2091 73.41235 L 47.499 68.7139 M 49.2091 73.41235 L 49.2091 68.41235 L 50.9192 63.7139 M 49.2091 68.41235 L 49.2091 63.41235 M 49.2091 68.41235 L 47.499 63.7139 L 44.28506 59.88367 M 47.499 63.7139 L 45.7889 59.01544 L 45.7889 54.01544 M 45.7889 59.01544 L 44.0788 54.31699 M 49.2091 68.41235 L 49.2091 63.41235 L 47.499 58.7139 M 49.2091 63.41235 L 49.2091 58.41235 L 50.9192 53.7139 M 49.2091 58.41235 L 49.2091 53.41235 M 49.2091 58.41235 L 50.9192 53.7139 L 50.9192 48.7139 M 50.9192 53.7139 L 52.6293 49.01544 L 55.84324 45.18521 M 52.6293 49.01544 L 54.3394 44.31699 M 49.2091 58.41235 L 49.2091 53.41235 L 47.499 48.7139 M 49.2091 53.41235 L 49.2091 48.41235 L 50.9192 43.7139 M 49.2091 48.41235 L 49.2091 43.41235 M 49.2091 78.41235 L 47.499 73.7139 L 44.28506 69.88368 M 47.499 73.7139 L 45.7889 69.01544 L 45.7889 64.01544 M 45.7889 69.01544 L 44.0788 64.31699 M 45.7889 69.01544 L 42.57496 65.18523 L 38.24483 62.68523 M 42.57496 65.18523 L 39.36102 61.35501 L 37.65092 56.65656 M 39.36102 61.35501 L 36.14708 57.52478 M 45.7889 69.01544 L 44.0788 64.31699 L 40.86486 60.48677 M 44.0788 64.31699 L 42.3687 59.61853 L 42.3687 54.61853 M 42.3687 59.61853 L 40.6586 54.92007 M 42.3687 59.61853 L 42.3687 54.61853 L 40.6586 49.92007 M 42.3687 54.61853 L 42.3687 49.61853 L 44.0788 44.92007 M 42.3687 49.61853 L 42.3687 44.61853 M 42.3687 59.61853 L 40.6586 54.92007 L 37.44466 51.08984 M 40.6586 54.92007 L 38.9485 50.22162 L 38.9485 45.22162 M 38.9485 50.22162 L 37.2384 45.52316 M 62.8899 116 L 62.8899 111 L 61.1798 106.3015 M 62.8899 111 L 62.8899 106 L 64.6 101.3015 M 62.8899 106 L 62.8899 101 M 62.8899 106 L 61.1798 101.3015 L 57.96586 97.47133 M 61.1798 101.3015 L 59.4697 96.60309 L 59.4697 91.60309 M 59.4697 96.60309 L 57.7596 91.90463 M 62.8899 106 L 62.8899 101 L 61.1798 96.30154 M 62.8899 101 L 62.8899 96 L 64.6 91.30154 M 62.8899 96 L 62.8899 91 M 62.8899 96 L 64.6 91.30154 L 64.6 86.30154 M 64.6 91.30154 L 66.3101 86.60309 L 69.52404 82.77287 M 66.3101 86.60309 L 68.0202 81.90463 M 62.8899 96 L 62.8899 91 L 61.1798 86.30154 M 62.8899 91 L 62.8899 86 L 64.6 81.30154 M 62.8899 86 L 62.8899 81 M 62.8899 96 L 61.1798 91.30154 L 57.96586 87.47133 M 61.1798 91.30154 L 59.4697 86.60309 L 59.4697 81.60309 M 59.4697 86.60309 L 57.7596 81.90463 M 59.4697 86.60309 L 56.25576 82.77287 L 51.92563 80.27287 M 56.25576 82.77287 L 53.04182 78.94266 L 51.33172 74.2442 M 53.04182 78.94266 L 49.82788 75.11244 M 59.4697 86.60309 L 57.7596 81.90463 L 54.54566 78.07442 M 57.7596 81.90463 L 56.0495 77.20618 L 56.0495 72.20618 M 56.0495 77.20618 L 54.3394 72.50772 M 56.0495 77.20618 L 56.0495 72.20618 L 54.3394 67.50772 M 56.0495 72.20618 L 56.0495 67.20618 L 57.7596 62.50772 M 56.0495 67.20618 L 56.0495 62.20618 M 56.0495 77.20618 L 54.3394 72.50772 L 51.12546 68.67751 M 54.3394 72.50772 L 52.6293 67.80927 L 52.6293 62.80927 M 52.6293 67.80927 L 50.9192 63.11081 M 62.8899 96 L 62.8899 91 L 61.1798 86.30154 M 62.8899 91 L 62.8899 86 L 64.6 81.30154 M 62.8899 86 L 62.8899 81 M 62.8899 86 L 61.1798 81.30154 L 57.96586 77.47133 M 61.1798 81.30154 L 59.4697 76.60309 L 59.4697 71.60309 M 59.4697 76.60309 L 57.7596 71.90463 M 62.8899 86 L 62.8899 81 L 61.1798 76.30154 M 62.8899 81 L 62.8899 76 L 64.6 71.30154 M 62.8899 76 L 62.8899 71 M 62.8899 76 L 64.6 71.30154 L 64.6 66.30154 M 64.6 71.30154 L 66.3101 66.60309 L 69.52404 62.77287 M 66.3101 66.60309 L 68.0202 61.90463 M 62.8899 76 L 62.8899 71 L 61.1798 66.30154 M 62.8899 71 L 62.8899 66 L 64.6 61.30154 M 62.8899 66 L 62.8899 61 M 62.8899 76 L 64.6 71.30154 L 64.6 66.30154 M 64.6 71.30154 L 66.3101 66.60309 L 69.52404 62.77287 M 66.3101 66.60309 L 68.0202 61.90463 M 66.3101 66.60309 L 66.3101 61.60309 L 64.6 56.90463 M 66.3101 61.60309 L 66.3101 56.60309 L 68.0202 51.90463 M 66.3101 56.60309 L 66.3101 51.60309 M 66.3101 66.60309 L 68.0202 61.90463 L 68.0202 56.90463 M 68.0202 61.90463 L 69.7303 57.20618 L 72.94424 53.37595 M 69.7303 57.20618 L 71.4404 52.50772 M 69.7303 57.20618 L 72.94424 53.37595 L 74.65434 48.67749 M 72.94424 53.37595 L 76.15818 49.54572 L 80.48831 47.04572 M 76.15818 49.54572 L 79.37212 45.71548 M 69.7303 57.20618 L 71.4404 52.50772 L 71.4404 47.50772 M 71.4404 52.50772 L 73.1505 47.80927 L 76.36444 43.97903 M 73.1505 47.80927 L 74.8606 43.11081 M 62.8899 76 L 62.8899 71 L 61.1798 66.30154 M 62.8899 71 L 62.8899 66 L 64.6 61.30154 M 62.8899 66 L 62.8899 61 M 62.8899 66 L 61.1798 61.30154 L 57.96586 57.47131 M 61.1798 61.30154 L 59.4697 56.60309 L 59.4697 51.60309 M 59.4697 56.60309 L 57.7596 51.90463 M 62.8899 66 L 62.8899 61 L 61.1798 56.30154 M 62.8899 61 L 62.8899 56 L 64.6 51.30154 M 62.8899 56 L 62.8899 51 M 62.8899 56 L 64.6 51.30154 L 64.6 46.30154 M 64.6 51.30154 L 66.3101 46.60309 L 69.52404 42.77286 M 66.3101 46.60309 L 68.0202 41.90463 M 62.8899 56 L 62.8899 51 L 61.1798 46.30154 M 62.8899 51 L 62.8899 46 L 64.6 41.30154 M 62.8899 46 L 62.8899 41 M 62.8899 76 L 64.6 71.30154 L 64.6 66.30154 M 64.6 71.30154 L 66.3101 66.60309 L 69.52404 62.77287 M 66.3101 66.60309 L 68.0202 61.90463 M 66.3101 66.60309 L 66.3101 61.60309 L 64.6 56.90463 M 66.3101 61.60309 L 66.3101 56.60309 L 68.0202 51.90463 M 66.3101 56.60309 L 66.3101 51.60309 M 66.3101 66.60309 L 68.0202 61.90463 L 68.0202 56.90463 M 68.0202 61.90463 L 69.7303 57.20618 L 72.94424 53.37595 M 69.7303 57.20618 L 71.4404 52.50772 M 69.7303 57.20618 L 72.94424 53.37595 L 74.65434 48.67749 M 72.94424 53.37595 L 76.15818 49.54572 L 80.48831 47.04572 M 76.15818 49.54572 L 79.37212 45.71548 M 69.7303 57.20618 L 71.4404 52.50772 L 71.4404 47.50772 M 71.4404 52.50772 L 73.1505 47.80927 L 76.36444 43.97903 M 73.1505 47.80927 L 74.8606 43.11081 M 69.7303 57.20618 L 69.7303 52.20618 L 68.0202 47.50772 M 69.7303 52.20618 L 69.7303 47.20618 L 71.4404 42.50772 M 69.7303 47.20618 L 69.7303 42.20618 M 69.7303 47.20618 L 68.0202 42.50772 L 64.80626 38.67749 M 68.0202 42.50772 L 66.3101 37.80927 L 66.3101 32.80927 M 66.3101 37.80927 L 64.6 33.11081 M 69.7303 47.20618 L 69.7303 42.20618 L 68.0202 37.50772 M 69.7303 42.20618 L 69.7303 37.20618 L 71.4404 32.50772 M 69.7303 37.20618 L 69.7303 32.20618 M 69.7303 37.20618 L 71.4404 32.50772 L 71.4404 27.50772 M 71.4404 32.50772 L 73.1505 27.80927 L 76.36444 23.97903 M 73.1505 27.80927 L 74.8606 23.11081 M 69.7303 37.20618 L 69.7303 32.20618 L 68.0202 27.50772 M 69.7303 32.20618 L 69.7303 27.20618 L 71.4404 22.50772 M 69.7303 27.20618 L 69.7303 22.20618 M 69.7303 57.20618 L 71.4404 52.50772 L 71.4404 47.50772 M 71.4404 52.50772 L 73.1505 47.80927 L 76.36444 43.97903 M 73.1505 47.80927 L 74.8606 43.11081 M 73.1505 47.80927 L 73.1505 42.80927 L 71.4404 38.11081 M 73.1505 42.80927 L 73.1505 37.80927 L 74.8606 33.11081 M 73.1505 37.80927 L 73.1505 32.80927 M 73.1505 47.80927 L 74.8606 43.11081 L 74.8606 38.11081 M 74.8606 43.11081 L 76.5707 38.41235 L 79.78464 34.58212 M 76.5707 38.41235 L 78.2808 33.7139 M 76.5707 38.41235 L 79.78464 34.58212 L 81.49474 29.88367 M 79.78464 34.58212 L 82.99858 30.75189 L 87.32871 28.25189 M 82.99858 30.75189 L 86.21252 26.92166 M 76.5707 38.41235 L 78.2808 33.7139 L 78.2808 28.7139 M 78.2808 33.7139 L 79.9909 29.01544 L 83.20484 25.18521 M 79.9909 29.01544 L 81.701 24.31699 M 76.5707 38.41235 L 79.78464 34.58212 L 81.49474 29.88367 M 79.78464 34.58212 L 82.99858 30.75189 L 87.32871 28.25189 M 82.99858 30.75189 L 86.21252 26.92166 M 82.99858 30.75189 L 84.70868 26.05344 L 84.70868 21.05344 M 84.70868 26.05344 L 86.41878 21.35498 L 89.63272 17.52475 M 86.41878 21.35498 L 88.12888 16.65652 M 82.99858 30.75189 L 86.21252 26.92166 L 87.92262 22.22321 M 86.21252 26.92166 L 89.42646 23.09143 L 93.75659 20.59143 M 89.42646 23.09143 L 92.6404 19.2612 M 89.42646 23.09143 L 93.75659 20.59143 L 96.97054 16.7612 M 93.75659 20.59143 L 98.08672 18.09143 L 103.0108 17.22318 M 98.08672 18.09143 L 102.4169 15.59143 M 89.42646 23.09143 L 92.6404 19.2612 L 94.3505 14.56274 M 92.6404 19.2612 L 95.85434 15.43097 L 100.1845 12.93097 M 95.85434 15.43097 L 99.06828 11.60074 M 76.5707 38.41235 L 78.2808 33.7139 L 78.2808 28.7139 M 78.2808 33.7139 L 79.9909 29.01544 L 83.20484 25.18521 M 79.9909 29.01544 L 81.701 24.31699 M 79.9909 29.01544 L 79.9909 24.01544 L 78.2808 19.31699 M 79.9909 24.01544 L 79.9909 19.01544 L 81.701 14.31699 M 79.9909 19.01544 L 79.9909 14.01544 M 79.9909 29.01544 L 81.701 24.31699 L 81.701 19.31699 M 81.701 24.31699 L 83.4111 19.61853 L 86.62504 15.7883 M 83.4111 19.61853 L 85.1212 14.92007 M 83.4111 19.61853 L 86.62504 15.7883 L 88.33514 11.08984 M 86.62504 15.7883 L 89.83898 11.95807 L 94.16911 9.458069 M 89.83898 11.95807 L 93.05292 8.127838 M 83.4111 19.61853 L 85.1212 14.92007 L 85.1212 9.920074 M 85.1212 14.92007 L 86.8313 10.22162 L 90.04524 6.391388 M 86.8313 10.22162 L 88.5414 5.523163 M 62.8899 76 L 62.8899 71 L 61.1798 66.30154 M 62.8899 71 L 62.8899 66 L 64.6 61.30154 M 62.8899 66 L 62.8899 61 M 62.8899 66 L 61.1798 61.30154 L 57.96586 57.47131 M 61.1798 61.30154 L 59.4697 56.60309 L 59.4697 51.60309 M 59.4697 56.60309 L 57.7596 51.90463 M 62.8899 66 L 62.8899 61 L 61.1798 56.30154 M 62.8899 61 L 62.8899 56 L 64.6 51.30154 M 62.8899 56 L 62.8899 51 M 62.8899 56 L 64.6 51.30154 L 64.6 46.30154 M 64.6 51.30154 L 66.3101 46.60309 L 69.52404 42.77286 M 66.3101 46.60309 L 68.0202 41.90463 M 62.8899 56 L 62.8899 51 L 61.1798 46.30154 M 62.8899 51 L 62.8899 46 L 64.6 41.30154 M 62.8899 46 L 62.8899 41 M 62.8899 56 L 61.1798 51.30154 L 57.96586 47.47131 M 61.1798 51.30154 L 59.4697 46.60309 L 59.4697 41.60309 M 59.4697 46.60309 L 57.7596 41.90463 M 59.4697 46.60309 L 56.25576 42.77286 L 51.92563 40.27286 M 56.25576 42.77286 L 53.04182 38.94263 L 51.33172 34.24417 M 53.04182 38.94263 L 49.82788 35.1124 M 59.4697 46.60309 L 57.7596 41.90463 L 54.54566 38.0744 M 57.7596 41.90463 L 56.0495 37.20618 L 56.0495 32.20618 M 56.0495 37.20618 L 54.3394 32.50772 M 56.0495 37.20618 L 56.0495 32.20618 L 54.3394 27.50772 M 56.0495 32.20618 L 56.0495 27.20618 L 57.7596 22.50772 M 56.0495 27.20618 L 56.0495 22.20618 M 56.0495 37.20618 L 54.3394 32.50772 L 51.12546 28.67749 M 54.3394 32.50772 L 52.6293 27.80927 L 52.6293 22.80927 M 52.6293 27.80927 L 50.9192 23.11081 M 62.8899 56 L 62.8899 51 L 61.1798 46.30154 M 62.8899 51 L 62.8899 46 L 64.6 41.30154 M 62.8899 46 L 62.8899 41 M 62.8899 46 L 61.1798 41.30154 L 57.96586 37.47131 M 61.1798 41.30154 L 59.4697 36.60309 L 59.4697 31.60309 M 59.4697 36.60309 L 57.7596 31.90463 M 62.8899 46 L 62.8899 41 L 61.1798 36.30154 M 62.8899 41 L 62.8899 36 L 64.6 31.30154 M 62.8899 36 L 62.8899 31 M 62.8899 36 L 64.6 31.30154 L 64.6 26.30154 M 64.6 31.30154 L 66.3101 26.60309 L 69.52404 22.77286 M 66.3101 26.60309 L 68.0202 21.90463 M 62.8899 36 L 62.8899 31 L 61.1798 26.30154 M 62.8899 31 L 62.8899 26 L 64.6 21.30154 M 62.8899 26 L 62.8899 21 M 62.8899 36 L 64.6 31.30154 L 64.6 26.30154 M 64.6 31.30154 L 66.3101 26.60309 L 69.52404 22.77286 M 66.3101 26.60309 L 68.0202 21.90463 M 66.3101 26.60309 L 66.3101 21.60309 L 64.6 16.90463 M 66.3101 21.60309 L 66.3101 16.60309 L 68.0202 11.90463 M 66.3101 16.60309 L 66.3101 11.60309 M 66.3101 26.60309 L 68.0202 21.90463 L 68.0202 16.90463 M 68.0202 21.90463 L 69.7303 17.20618 L 72.94424 13.37595 M 69.7303 17.20618 L 71.4404 12.50772 M 69.7303 17.20618 L 72.94424 13.37595 L 74.65434 8.67749 M 72.94424 13.37595 L 76.15818 9.545715 L 80.48831 7.045715 M 76.15818 9.545715 L 79.37212 5.715485 M 69.7303 17.20618 L 71.4404 12.50772 L 71.4404 7.507721 M 71.4404 12.50772 L 73.1505 7.809265 L 76.36444 3.979034 M 73.1505 7.809265 L 74.8606 3.110809 M 62.8899 36 L 62.8899 31 L 61.1798 26.30154 M 62.8899 31 L 62.8899 26 L 64.6 21.30154 M 62.8899 26 L 62.8899 21 M 62.8899 26 L 61.1798 21.30154 L 57.96586 17.47131 M 61.1798 21.30154 L 59.4697 16.60309 L 59.4697 11.60309 M 59.4697 16.60309 L 57.7596 11.90463 M 62.8899 26 L 62.8899 21 L 61.1798 16.30154 M 62.8899 21 L 62.8899 16 L 64.6 11.30154 M 62.8899 16 L 62.8899 11 M 62.8899 16 L 64.6 11.30154 L 64.6 6.301544 M 64.6 11.30154 L 66.3101 6.603088 L 69.52404 2.772858 M 66.3101 6.603088 L 68.0202 1.904633 M 62.8899 16 L 62.8899 11 L 61.1798 6.301544 M 62.8899 11 L 62.8899 6 L 64.6 1.301544 M 62.8899 6 L 62.8899 1 " />
  </g>
</svg>
