<?xml version="1.0" encoding="UTF-8" standalone="no"?>
<!DOCTYPE svg PUBLIC "-//W3C//DTD SVG 1.1//EN"
    "http://www.w3.org/Graphics/SVG/1.1/DTD/svg11.dtd">
<svg xmlns="http://www.w3.org/2000/svg" width="275" height="322">
  <desc>sierpinski LSystem</desc>
  <rect width="100%" height="100%" style="fill: white"/>
  <g stroke="black" fill="none" stroke-width="1">
    <path d="M 273.7979 321 L 273.7979 316 L 269.4678 313.5 L 265.1377 316 L 260.8075 313.5 L 260.8075 308.5 L 265.1377 306 L 269.4678 308.5 L 273.7979 306 L 273.7979 301 L 269.4678 298.5 L 269.4678 293.5 L 273.7979 291 L 273.7979 286 L 269.4678 283.5 L 265.1377 286 L 265.1377 291 L 260.8075 293.5 L 256.4774 291 L 252.1473 293.5 L 252.1473 298.5 L 256.4774 301 L 256.4774 306 L 252.1473 308.5 L 247.8171 306 L 247.8171 301 L 243.487 298.5 L 239.1569 301 L 234.8268 298.5 L 234.8268 293.5 L 239.1569 291 L 239.1569 286 L 234.8268 283.5 L 230.4966 286 L 230.4966 291 L 226.1665 293.5 L 221.8363 291 L 221.8363 286 L 217.5062 283.5 L 213.1761 286 L 208.846 283.5 L 208.846 278.5 L 213.1761 276 L 217.5062 278.5 L 221.8364 276 L 221.8364 271 L 226.1665 268.5 L 230.4966 271 L 230.4966 276 L 234.8268 278.5 L 239.1569 276 L 239.1569 271 L 234.8268 268.5 L 234.8268 263.5 L 239.1569 261 L 243.487 263.5 L 247.8171 261 L 247.8171 256 L 252.1473 253.5 L 256.4774 256 L 256.4774 261 L 252.1473 263.5 L 252.1473 268.5 L 256.4774 271 L 260.8075 268.5 L 265.1377 271 L 265.1377 276 L 269.4678 278.5 L 273.7979 276 L 273.7979 271 L 269.4678 268.5 L 269.4678 263.5 L 273.7979 261 L 273.7979 256 L 269.4678 253.5 L 265.1377 256 L 260.8075 253.5 L 260.8075 248.5 L 265.1377 246 L 269.4678 248.5 L 273.7979 246 L 273.7979 241 L 269.4678 238.5 L 269.4678 233.5 L 273.7979 231 L 273.7979 226 L 269.4678 223.5 L 265.1377 226 L 265.1377 231 L 260.8075 233.5 L 256.4774 231 L 256.4774 226 L 252.1473 223.5 L 247.8171 226 L 243.487 223.5 L 243.487 218.5 L 247.8171 216 L 252.1473 218.5 L 256.4774 216 L 256.4774 211 L 260.8075 208.5 L 265.1377 211 L 265.1377 216 L 269.4678 218.5 L 273.7979 216 L 273.7979 211 L 269.4678 208.5 L 269.4678 203.5 L 273.7979 201 L 273.7979 196 L 269.4678 193.5 L 265.1377 196 L 260.8075 193.5 L 260.8075 188.5 L 265.1377 186 L 269.4678 188.5 L 273.7979 186 L 273.7979 181 L 269.4678 178.5 L 269.4678 173.5 L 273.7979 171 L 273.7979 166 L 269.4678 163.5 L 265.1377 166 L 265.1377 171 L 260.8075 173.5 L 256.4774 171 L 252.1473 173.5 L 252.1473 178.5 L 256.4774 181 L 256.4774 186 L 252.1473 188.5 L 247.8171 186 L 247.8171 181 L 243.487 178.5 L 239.1569 181 L 239.1569 186 L 234.8268 188.5 L 230.4966 186 L 226.1665 188.5 L 226.1665 193.5 L 230.4966 196 L 234.8268 193.5 L 239.1569 196 L 239.1569 201 L 234.8268 203.5 L 234.8268 208.5 L 239.1569 211 L 239.1569 216 L 234.8268 218.5 L 230.4966 216 L 230.4966 211 L 226.1665 208.5 L 221.8364 211 L 217.5062 208.5 L 217.5062 203.5 L 221.8364 201 L 221.8364 196 L 217.5062 193.5 L 213.1761 196 L 213.1761 201 L 208.846 203.5 L 204.5159 201 L 200.1857 203.5 L 200.1857 208.5 L 204.5159 211 L 204.5159 216 L 200.1857 218.5 L 195.8556 216 L 195.8556 211 L 191.5255 208.5 L 187.1954 211 L 187.1954 216 L 182.8652 218.5 L 178.5351 216 L 174.205 218.5 L 174.205 223.5 L 178.5351 226 L 182.8652 223.5 L 187.1954 226 L 187.1954 231 L 191.5255 233.5 L 195.8556 231 L 195.8556 226 L 200.1857 223.5 L 204.5159 226 L 204.5159 231 L 200.1857 233.5 L 200.1857 238.5 L 204.5159 241 L 204.5159 246 L 200.1857 248.5 L 195.8556 246 L 191.5255 248.5 L 191.5255 253.5 L 195.8556 256 L 200.1857 253.5 L 204.5159 256 L 204.5159 261 L 200.1857 263.5 L 200.1857 268.5 L 204.5159 271 L 204.5159 276 L 200.1857 278.5 L 195.8556 276 L 195.8556 271 L 191.5255 268.5 L 187.1954 271 L 182.8652 268.5 L 182.8652 263.5 L 187.1954 261 L 187.1954 256 L 182.8652 253.5 L 178.5351 256 L 178.5351 261 L 174.205 263.5 L 169.8749 261 L 169.8749 256 L 165.5448 253.5 L 161.2146 256 L 156.8845 253.5 L 156.8845 248.5 L 161.2146 246 L 165.5448 248.5 L 169.8749 246 L 169.8749 241 L 165.5448 238.5 L 165.5448 233.5 L 169.8749 231 L 169.8749 226 L 165.5448 223.5 L 161.2146 226 L 161.2146 231 L 156.8845 233.5 L 152.5544 231 L 148.2243 233.5 L 148.2243 238.5 L 152.5544 241 L 152.5544 246 L 148.2243 248.5 L 143.8941 246 L 143.8941 241 L 139.564 238.5 L 135.2339 241 L 130.9038 238.5 L 130.9038 233.5 L 135.2339 231 L 135.2339 226 L 130.9038 223.5 L 126.5736 226 L 126.5736 231 L 122.2435 233.5 L 117.9134 231 L 117.9134 226 L 113.5833 223.5 L 109.2531 226 L 104.923 223.5 L 104.923 218.5 L 109.2531 216 L 113.5833 218.5 L 117.9134 216 L 117.9134 211 L 122.2435 208.5 L 126.5736 211 L 126.5736 216 L 130.9038 218.5 L 135.2339 216 L 135.2339 211 L 130.9038 208.5 L 130.9038 203.5 L 135.2339 201 L 135.2339 196 L 130.9038 193.5 L 126.5736 196 L 122.2435 193.5 L 122.2435 188.5 L 126.5736 186 L 130.9038 188.5 L 135.2339 186 L 135.2339 181 L 130.9038 178.5 L 130.9038 173.5 L 135.2339 171 L 135.2339 166 L 130.9038 163.5 L 126.5736 166 L 126.5736 171 L 122.2435 173.5 L 117.9134 171 L 113.5833 173.5 L 113.5833 178.5 L 117.9134 181 L 117.9134 186 L 113.5833 188.5 L 109.2531 186 L 109.2531 181 L 104.923 178.5 L 100.5929 181 L 100.5929 186 L 96.26277 188.5 L 91.93265 186 L 87.60252 188.5 L 87.60252 193.5 L 91.93265 196 L 96.26277 193.5 L 100.5929 196 L 100.5929 201 L 96.26277 203.5 L 96.26277 208.5 L 100.5929 211 L 100.5929 216 L 96.26277 218.5 L 91.93265 216 L 91.93265 211 L 87.60252 208.5 L 83.2724 211 L 78.94228 208.5 L 78.94228 203.5 L 83.2724 201 L 83.2724 196 L 78.94228 193.5 L 74.61215 196 L 74.61215 201 L 70.28203 203.5 L 65.9519 201 L 65.9519 196 L 61.62178 193.5 L 57.29166 196 L 52.96153 193.5 L 52.96153 188.5 L 57.29166 186 L 61.62178 188.5 L 65.9519 186 L 65.9519 181 L 61.62178 178.5 L 61.62178 173.5 L 65.9519 171 L 65.9519 166 L 61.62178 163.5 L 57.29166 166 L 57.29166 171 L 52.96153 173.5 L 48.63141 171 L 44.30128 173.5 L 44.30128 178.5 L 48.63141 181 L 48.63141 186 L 44.30128 188.5 L 39.97116 186 L 39.97116 181 L 35.64104 178.5 L 31.31091 181 L 26.98079 178.5 L 26.98079 173.5 L 31.31091 171 L 31.31091 166 L 26.98079 163.5 L 22.65067 166 L 22.65067 171 L 18.32054 173.5 L 13.99042 171 L 13.99042 166 L 9.660278 163.5 L 5.330139 166 L 1 163.5 L 1 158.5 L 5.330139 156 L 9.660278 158.5 L 13.99042 156 L 13.99042 151 L 18.32054 148.5 L 22.65067 151 L 22.65067 156 L 26.98079 158.5 L 31.31091 156 L 31.31091 151 L 26.98079 148.5 L 26.98079 143.5 L 31.31091 141 L 35.64104 143.5 L 39.97116 141 L 39.97116 136 L 44.30128 133.5 L 48.63141 136 L 48.63141 141 L 44.30128 143.5 L 44.30128 148.5 L 48.63141 151 L 52.96153 148.5 L 57.29166 151 L 57.29166 156 L 61.62178 158.5 L 65.9519 156 L 65.9519 151 L 61.62178 148.5 L 61.62178 143.5 L 65.9519 141 L 65.9519 136 L 61.62178 133.5 L 57.29166 136 L 52.96153 133.5 L 52.96153 128.5 L 57.29166 126 L 61.62178 128.5 L 65.9519 126 L 65.9519 121 L 70.28203 118.5 L 74.61215 121 L 74.61215 126 L 78.94228 128.5 L 83.2724 126 L 83.2724 121 L 78.94228 118.5 L 78.94228 113.5 L 83.2724 111 L 87.60252 113.5 L 91.93265 111 L 91.93265 106 L 96.26277 103.5 L 100.5929 106 L 100.5929 111 L 96.26277 113.5 L 96.26277 118.5 L 100.5929 121 L 100.5929 126 L 96.26277 128.5 L 91.93265 126 L 87.60252 128.5 L 87.60252 133.5 L 91.93265 136 L 96.26277 133.5 L 100.5929 136 L 100.5929 141 L 104.923 143.5 L 109.2531 141 L 109.2531 136 L 113.5833 133.5 L 117.9134 136 L 117.9134 141 L 113.5833 143.5 L 113.5833 148.5 L 117.9134 151 L 122.2435 148.5 L 126.5736 151 L 126.5736 156 L 130.9038 158.5 L 135.2339 156 L 135.2339 151 L 130.9038 148.5 L 130.9038 143.5 L 135.2339 141 L 135.2339 136 L 130.9038 133.5 L 126.5736 136 L 122.2435 133.5 L 122.2435 128.5 L 126.5736 126 L 130.9038 128.5 L 135.2339 126 L 135.2339 121 L 130.9038 118.5 L 130.9038 113.5 L 135.2339 111 L 135.2339 106 L 130.9038 103.5 L 126.5736 106 L 126.5736 111 L 122.2435 113.5 L 117.9134 111 L 117.9134 106 L 113.5833 103.5 L 109.2531 106 L 104.923 103.5 L 104.923 98.5 L 109.2531 96 L 113.5833 98.5 L 117.9134 96 L 117.9134 91 L 122.2435 88.5 L 126.5736 91 L 126.5736 96 L 130.9038 98.5 L 135.2339 96 L 135.2339 91 L 130.9038 88.5 L 130.9038 83.5 L 135.2339 81 L 139.564 83.5 L 143.8941 81 L 143.8941 76 L 148.2243 73.5 L 152.5544 76 L 152.5544 81 L 148.2243 83.5 L 148.2243 88.5 L 152.5544 91 L 156.8845 88.5 L 161.2146 91 L 161.2146 96 L 165.5448 98.5 L 169.8749 96 L 169.8749 91 L 165.5448 88.5 L 165.5448 83.5 L 169.8749 81 L 169.8749 76 L 165.5448 73.5 L 161.2146 76 L 156.8845 73.5 L 156.8845 68.5 L 161.2146 66 L 165.5448 68.5 L 169.8749 66 L 169.8749 61 L 174.205 58.5 L 178.5351 61 L 178.5351 66 L 182.8652 68.5 L 187.1954 66 L 187.1954 61 L 182.8652 58.5 L 182.8652 53.5 L 187.1954 51 L 191.5255 53.5 L 195.8556 51 L 195.8556 46 L 200.1857 43.5 L 204.5159 46 L 204.5159 51 L 200.1857 53.5 L 200.1857 58.5 L 204.5159 61 L 204.5159 66 L 200.1857 68.5 L 195.8556 66 L 191.5255 68.5 L 191.5255 73.5 L 195.8556 76 L 200.1857 73.5 L 204.5159 76 L 204.5159 81 L 200.1857 83.5 L 200.1857 88.5 L 204.5159 91 L 204.5159 96 L 200.1857 98.5 L 195.8556 96 L 195.8556 91 L 191.5255 88.5 L 187.1954 91 L 187.1954 96 L 182.8652 98.5 L 178.5351 96 L 174.205 98.5 L 174.205 103.5 L 178.5351 106 L 182.8652 103.5 L 187.1954 106 L 187.1954 111 L 191.5255 113.5 L 195.8556 111 L 195.8556 106 L 200.1857 103.5 L 204.5159 106 L 204.5159 111 L 200.1857 113.5 L 200.1857 118.5 L 204.5159 121 L 208.846 118.5 L 213.1761 121 L 213.1761 126 L 217.5063 128.5 L 221.8364 126 L 221.8364 121 L 217.5063 118.5 L 217.5063 113.5 L 221.8364 111 L 226.1665 113.5 L 230.4966 111 L 230.4966 106 L 234.8268 103.5 L 239.1569 106 L 239.1569 111 L 234.8268 113.5 L 234.8268 118.5 L 239.1569 121 L 239.1569 126 L 234.8268 128.5 L 230.4966 126 L 226.1665 128.5 L 226.1665 133.5 L 230.4966 136 L 234.8268 133.5 L 239.1569 136 L 239.1569 141 L 243.487 143.5 L 247.8172 141 L 247.8172 136 L 252.1473 133.5 L 256.4774 136 L 256.4774 141 L 252.1473 143.5 L 252.1473 148.5 L 256.4774 151 L 260.8076 148.5 L 265.1377 151 L 265.1377 156 L 269.4678 158.5 L 273.7979 156 L 273.7979 151 L 269.4678 148.5 L 269.4678 143.5 L 273.7979 141 L 273.7979 136 L 269.4678 133.5 L 265.1377 136 L 260.8076 133.5 L 260.8076 128.5 L 265.1377 126 L 269.4678 128.5 L 273.7979 126 L 273.7979 121 L 269.4678 118.5 L 269.4678 113.5 L 273.7979 111 L 273.7979 106 L 269.4678 103.5 L 265.1377 106 L 265.1377 111 L 260.8076 113.5 L 256.4774 111 L 256.4774 106 L 252.1473 103.5 L 247.8172 106 L 243.487 103.5 L 243.487 98.5 L 247.8172 96 L 252.1473 98.5 L 256.4774 96 L 256.4774 91 L 260.8076 88.5 L 265.1377 91 L 265.1377 96 L 269.4678 98.5 L 273.7979 96 L 273.7979 91 L 269.4678 88.5 L 269.4678 83.5 L 273.7979 81 L 273.7979 76 L 269.4678 73.5 L 265.1377 76 L 260.8076 73.5 L 260.8076 68.5 L 265.1377 66 L 269.4678 68.5 L 273.7979 66 L 273.7979 61 L 269.4678 58.5 L 269.4678 53.5 L 273.7979 51 L 273.7979 46 L 269.4678 43.5 L 265.1377 46 L 265.1377 51 L 260.8076 53.5 L 256.4774 51 L 252.1473 53.5 L 252.1473 58.5 L 256.4774 61 L 256.4774 66 L 252.1473 68.5 L 247.8172 66 L 247.8172 61 L 243.487 58.5 L 239.1569 61 L 234.8268 58.5 L 234.8268 53.5 L 239.1569 51 L 239.1569 46 L 234.8268 43.5 L 230.4966 46 L 230.4966 51 L 226.1665 53.5 L 221.8364 51 L 221.8364 46 L 217.5063 43.5 L 213.1761 46 L 208.846 43.5 L 208.846 38.5 L 213.1761 36 L 217.5063 38.5 L 221.8364 36 L 221.8364 31 L 226.1665 28.5 L 230.4967 31 L 230.4967 36 L 234.8268 38.5 L 239.1569 36 L 239.1569 31 L 234.8268 28.5 L 234.8268 23.5 L 239.1569 21 L 243.4871 23.5 L 247.8172 21 L 247.8172 16 L 252.1473 13.5 L 256.4774 16 L 256.4774 21 L 252.1473 23.5 L 252.1473 28.5 L 256.4774 31 L 260.8076 28.5 L 265.1377 31 L 265.1377 36 L 269.4678 38.5 L 273.798 36 L 273.798 31 L 269.4678 28.5 L 269.4678 23.5 L 273.798 21 L 273.798 16 L 269.4678 13.5 L 265.1377 16 L 260.8076 13.5 L 260.8076 8.5 L 265.1377 6 L 269.4678 8.5 L 273.798 6 L 273.798 1 " />
  </g>
</svg>
