<?xml version="1.0" encoding="UTF-8" standalone="no"?>
<!DOCTYPE svg PUBLIC "-//W3C//DTD SVG 1.1//EN"
    "http://www.w3.org/Graphics/SVG/1.1/DTD/svg11.dtd">
<svg xmlns="http://www.w3.org/2000/svg" width="275" height="323">
  <desc>sierpinski LSystem</desc>
  <rect width="100%" height="100%" style="fill: white"/>
  <g stroke="black" fill="none" stroke-width="1">
    <path d="M 273.7986 321.001 L 273.7986 316.001 L 269.4685 313.501 L 265.1384 316.001 L 260.8082 313.501 L 260.8082 308.501 L 265.1384 306.001 L 269.4685 308.501 L 273.7986 306.001 L 273.7986 301.001 L 269.4685 298.501 L 269.4685 293.501 L 273.7986 291.001 L 273.7986 286.001 L 269.4685 283.501 L 265.1384 286.001 L 265.1384 291.001 L 260.8082 293.501 L 256.4781 291.001 L 252.148 293.501 L 252.148 298.501 L 256.4781 301.001 L 256.4781 306.001 L 252.148 308.501 L 247.8179 306.001 L 247.8179 301.001 L 243.4877 298.501 L 239.1576 301.001 L 234.8275 298.501 L 234.8275 293.501 L 239.1576 291.001 L 239.1576 286.001 L 234.8275 283.501 L 230.4973 286.001 L 230.4973 291.001 L 226.1672 293.501 L 221.8371 291.001 L 221.8371 286.001 L 217.507 283.501 L 213.1768 286.001 L 208.8467 283.501 L 208.8467 278.501 L 213.1768 276.001 L 217.507 278.501 L 221.8371 276.001 L 221.8371 271.001 L 226.1672 268.501 L 230.4973 271.001 L 230.4973 276.001 L 234.8275 278.501 L 239.1576 276.001 L 239.1576 271.001 L 234.8275 268.501 L 234.8275 263.501 L 239.1576 261.001 L 243.4877 263.501 L 247.8179 261.001 L 247.8179 256.001 L 252.148 253.501 L 256.4781 256.001 L 256.4781 261.001 L 252.148 263.501 L 252.148 268.501 L 256.4781 271.001 L 260.8082 268.501 L 265.1384 271.001 L 265.1384 276.001 L 269.4685 278.501 L 273.7986 276.001 L 273.7986 271.001 L 269.4685 268.501 L 269.4685 263.501 L 273.7986 261.001 L 273.7986 256.001 L 269.4685 253.501 L 265.1384 256.001 L 260.8082 253.501 L 260.8082 248.501 L 265.1384 246.001 L 269.4685 248.501 L 273.7986 246.001 L 273.7986 241.001 L 269.4685 238.501 L 269.4685 233.501 L 273.7986 231.001 L 273.7986 226.001 L 269.4685 223.501 L 265.1384 226.001 L 265.1384 231.001 L 260.8082 233.501 L 256.4781 231.001 L 256.4781 226.001 L 252.148 223.501 L 247.8178 226.001 L 243.4877 223.501 L 243.4877 218.501 L 247.8178 216.001 L 252.148 218.501 L 256.4781 216.001 L 256.4781 211.001 L 260.8082 208.501 L 265.1384 211.001 L 265.1384 216.001 L 269.4685 218.501 L 273.7986 216.001 L 273.7986 211.001 L 269.4685 208.501 L 269.4685 203.501 L 273.7986 201.001 L 273.7986 196.001 L 269.4685 193.501 L 265.1384 196.001 L 260.8082 193.501 L 260.8082 188.501 L 265.1384 186.001 L 269.4685 188.501 L 273.7986 186.001 L 273.7986 181.001 L 269.4685 178.501 L 269.4685 173.501 L 273.7986 171.001 L 273.7986 166.001 L 269.4685 163.501 L 265.1384 166.001 L 265.1384 171.001 L 260.8082 173.501 L 256.4781 171.001 L 252.148 173.501 L 252.148 178.501 L 256.4781 181.001 L 256.4781 186.001 L 252.148 188.501 L 247.8178 186.001 L 247.8178 181.001 L 243.4877 178.501 L 239.1576 181.001 L 239.1576 186.001 L 234.8275 188.501 L 230.4973 186.001 L 226.1672 188.501 L 226.1672 193.501 L 230.4973 196.001 L 234.8275 193.501 L 239.1576 196.001 L 239.1576 201.001 L 234.8275 203.501 L 234.8275 208.501 L 239.1576 211.001 L 239.1576 216.001 L 234.8275 218.501 L 230.4973 216.001 L 230.4973 211.001 L 226.1672 208.501 L 221.8371 211.001 L 217.5069 208.501 L 217.5069 203.501 L 221.8371 201.001 L 221.8371 196.001 L 217.5069 193.501 L 213.1768 196.001 L 213.1768 201.001 L 208.8466 203.501 L 204.5165 201.001 L 200.1864 203.501 L 200.1864 208.501 L 204.5165 211.001 L 204.5165 216.001 L 200.1864 218.5011 L 195.8563 216.0011 L 195.8563 211.001 L 191.5261 208.501 L 187.196 211.0011 L 187.196 216.0011 L 182.8659 218.5011 L 178.5357 216.0011 L 174.2056 218.5011 L 174.2056 223.5011 L 178.5357 226.0011 L 182.8659 223.5011 L 187.196 226.0011 L 187.196 231.0011 L 191.5261 233.5011 L 195.8563 231.0011 L 195.8563 226.0011 L 200.1864 223.5011 L 204.5165 226.0011 L 204.5165 231.0011 L 200.1864 233.5011 L 200.1864 238.5011 L 204.5165 241.0011 L 204.5165 246.0011 L 200.1864 248.5011 L 195.8563 246.0011 L 191.5261 248.5011 L 191.5261 253.5011 L 195.8563 256.0011 L 200.1864 253.5011 L 204.5165 256.0011 L 204.5165 261.0011 L 200.1864 263.5011 L 200.1864 268.5011 L 204.5166 271.0012 L 204.5166 276.0012 L 200.1864 278.5012 L 195.8563 276.0012 L 195.8563 271.0012 L 191.5261 268.5011 L 187.196 271.0012 L 182.8659 268.5011 L 182.8659 263.5011 L 187.196 261.0011 L 187.196 256.0011 L 182.8659 253.5011 L 178.5357 256.0011 L 178.5357 261.0011 L 174.2056 263.5011 L 169.8754 261.0011 L 169.8754 256.0011 L 165.5453 253.5011 L 161.2152 256.0011 L 156.885 253.5011 L 156.885 248.5011 L 161.2152 246.0011 L 165.5453 248.5011 L 169.8754 246.0011 L 169.8754 241.0011 L 165.5453 238.5011 L 165.5453 233.5011 L 169.8754 231.0011 L 169.8754 226.0011 L 165.5453 223.501 L 161.2152 226.0011 L 161.2152 231.0011 L 156.885 233.5011 L 152.5549 231.0011 L 148.2247 233.5011 L 148.2247 238.5011 L 152.5549 241.0011 L 152.5549 246.0011 L 148.2247 248.5011 L 143.8946 246.0011 L 143.8946 241.0011 L 139.5645 238.5011 L 135.2343 241.0011 L 130.9042 238.5011 L 130.9042 233.5011 L 135.2343 231.0011 L 135.2343 226.001 L 130.9042 223.501 L 126.5741 226.001 L 126.5741 231.0011 L 122.2439 233.5011 L 117.9138 231.0011 L 117.9138 226.001 L 113.5836 223.501 L 109.2535 226.001 L 104.9234 223.501 L 104.9234 218.501 L 109.2535 216.001 L 113.5836 218.501 L 117.9138 216.001 L 117.9138 211.001 L 122.2439 208.501 L 126.5741 211.001 L 126.5741 216.001 L 130.9042 218.501 L 135.2343 216.001 L 135.2343 211.001 L 130.9042 208.501 L 130.9042 203.501 L 135.2343 201.0009 L 135.2343 196.0009 L 130.9042 193.5009 L 126.5741 196.0009 L 122.2439 193.5009 L 122.2439 188.5009 L 126.5741 186.0009 L 130.9042 188.5009 L 135.2343 186.0009 L 135.2343 181.0009 L 130.9042 178.5009 L 130.9042 173.5009 L 135.2343 171.0009 L 135.2343 166.0009 L 130.9042 163.5009 L 126.5741 166.0009 L 126.5741 171.0009 L 122.2439 173.5009 L 117.9138 171.0009 L 113.5836 173.5009 L 113.5836 178.5009 L 117.9138 181.0009 L 117.9138 186.0009 L 113.5836 188.5009 L 109.2535 186.0009 L 109.2535 181.0009 L 104.9234 178.5009 L 100.5932 181.0009 L 100.5932 186.001 L 96.26308 188.501 L 91.93294 186.001 L 87.6028 188.501 L 87.6028 193.501 L 91.93294 196.001 L 96.26308 193.501 L 100.5932 196.001 L 100.5932 201.001 L 96.26308 203.501 L 96.26308 208.5011 L 100.5932 211.0011 L 100.5932 216.0011 L 96.26308 218.5011 L 91.93294 216.0011 L 91.93294 211.0011 L 87.6028 208.5011 L 83.27266 211.0011 L 78.94252 208.5011 L 78.94252 203.501 L 83.27266 201.001 L 83.27266 196.001 L 78.94252 193.501 L 74.61238 196.001 L 74.61238 201.001 L 70.28224 203.501 L 65.9521 201.001 L 65.9521 196.001 L 61.62196 193.501 L 57.29182 196.001 L 52.96169 193.501 L 52.96169 188.501 L 57.29182 186.001 L 61.62196 188.501 L 65.9521 186.001 L 65.9521 181.001 L 61.62196 178.501 L 61.62196 173.501 L 65.9521 171.001 L 65.9521 166.0009 L 61.62196 163.5009 L 57.29182 166.001 L 57.29182 171.001 L 52.96169 173.501 L 48.63155 171.001 L 44.30141 173.501 L 44.30141 178.501 L 48.63155 181.001 L 48.63155 186.001 L 44.30141 188.501 L 39.97127 186.001 L 39.97127 181.001 L 35.64113 178.501 L 31.31099 181.001 L 26.98085 178.501 L 26.98085 173.501 L 31.31099 171.001 L 31.31099 166.001 L 26.98085 163.501 L 22.65071 166.001 L 22.65071 171.001 L 18.32057 173.501 L 13.99042 171.001 L 13.99042 166.001 L 9.660278 163.501 L 5.330139 166.001 L 1 163.501 L 1 158.501 L 5.330139 156.0009 L 9.660278 158.501 L 13.99042 156.0009 L 13.99042 151.0009 L 18.32056 148.5009 L 22.6507 151.0009 L 22.6507 156.0009 L 26.98083 158.501 L 31.31097 156.0009 L 31.31097 151.0009 L 26.98083 148.5009 L 26.98083 143.5009 L 31.31097 141.0009 L 35.64111 143.5009 L 39.97125 141.0009 L 39.97125 136.0009 L 44.30139 133.5009 L 48.63153 136.0009 L 48.63153 141.0009 L 44.30139 143.5009 L 44.30139 148.5009 L 48.63153 151.0009 L 52.96167 148.5009 L 57.29181 151.0009 L 57.29181 156.0009 L 61.62195 158.5009 L 65.95209 156.0009 L 65.95209 151.0009 L 61.62195 148.5009 L 61.62195 143.5009 L 65.95209 141.0009 L 65.95209 136.0009 L 61.62195 133.5008 L 57.29181 136.0009 L 52.96167 133.5008 L 52.96167 128.5008 L 57.29181 126.0008 L 61.62195 128.5008 L 65.95209 126.0008 L 65.95209 121.0008 L 70.28223 118.5008 L 74.61237 121.0008 L 74.61237 126.0008 L 78.9425 128.5008 L 83.27264 126.0008 L 83.27264 121.0008 L 78.9425 118.5008 L 78.9425 113.5008 L 83.27264 111.0007 L 87.60278 113.5008 L 91.93292 111.0007 L 91.93292 106.0007 L 96.26306 103.5007 L 100.5932 106.0007 L 100.5932 111.0007 L 96.26306 113.5008 L 96.26306 118.5008 L 100.5932 121.0008 L 100.5932 126.0008 L 96.26306 128.5008 L 91.93292 126.0008 L 87.60278 128.5008 L 87.60278 133.5008 L 91.93292 136.0009 L 96.26306 133.5008 L 100.5932 136.0009 L 100.5932 141.0009 L 104.9233 143.5009 L 109.2535 141.0009 L 109.2535 136.0009 L 113.5836 133.5008 L 117.9138 136.0009 L 117.9138 141.0009 L 113.5836 143.5009 L 113.5836 148.5009 L 117.9138 151.0009 L 122.2439 148.5009 L 126.574 151.0009 L 126.574 156.0009 L 130.9042 158.5009 L 135.2343 156.0009 L 135.2343 151.0009 L 130.9042 148.5009 L 130.9042 143.5009 L 135.2343 141.0009 L 135.2343 136.0009 L 130.9042 133.5008 L 126.574 136.0009 L 122.2439 133.5008 L 122.2439 128.5008 L 126.574 126.0008 L 130.9042 128.5008 L 135.2343 126.0008 L 135.2343 121.0008 L 130.9042 118.5008 L 130.9042 113.5008 L 135.2343 111.0007 L 135.2343 106.0007 L 130.9042 103.5007 L 126.574 106.0007 L 126.574 111.0007 L 122.2439 113.5008 L 117.9138 111.0007 L 117.9138 106.0007 L 113.5836 103.5007 L 109.2535 106.0007 L 104.9233 103.5007 L 104.9233 98.5007 L 109.2535 96.00069 L 113.5836 98.5007 L 117.9138 96.00069 L 117.9138 91.00066 L 122.2439 88.50064 L 126.5741 91.00066 L 126.5741 96.00069 L 130.9042 98.5007 L 135.2344 96.00069 L 135.2344 91.00066 L 130.9042 88.50064 L 130.9042 83.50061 L 135.2344 81.0006 L 139.5645 83.50061 L 143.8947 81.0006 L 143.8947 76.00056 L 148.2248 73.50055 L 152.555 76.00056 L 152.555 81.0006 L 148.2248 83.50061 L 148.2248 88.50064 L 152.555 91.00066 L 156.8851 88.50064 L 161.2153 91.00066 L 161.2153 96.00069 L 165.5454 98.5007 L 169.8755 96.00069 L 169.8755 91.00066 L 165.5454 88.50064 L 165.5454 83.50061 L 169.8755 81.0006 L 169.8755 76.00056 L 165.5454 73.50055 L 161.2153 76.00056 L 156.8851 73.50055 L 156.8851 68.50052 L 161.2153 66.0005 L 165.5454 68.50052 L 169.8755 66.0005 L 169.8755 61.00049 L 174.2057 58.50049 L 178.5358 61.00049 L 178.5358 66.00052 L 182.866 68.50053 L 187.1961 66.00052 L 187.1961 61.00049 L 182.866 58.50049 L 182.866 53.50046 L 187.1961 51.00046 L 191.5263 53.50046 L 195.8564 51.00046 L 195.8564 46.00043 L 200.1866 43.50043 L 204.5167 46.00043 L 204.5167 51.00046 L 200.1866 53.50046 L 200.1866 58.50049 L 204.5167 61.00049 L 204.5167 66.00052 L 200.1866 68.50053 L 195.8564 66.00052 L 191.5263 68.50053 L 191.5263 73.50056 L 195.8564 76.00058 L 200.1866 73.50056 L 204.5167 76.00058 L 204.5167 81.00061 L 200.1866 83.50063 L 200.1866 88.50066 L 204.5167 91.00067 L 204.5167 96.0007 L 200.1866 98.50072 L 195.8564 96.0007 L 195.8564 91.00067 L 191.5263 88.50066 L 187.1961 91.00067 L 187.1961 96.0007 L 182.866 98.50072 L 178.5358 96.0007 L 174.2056 98.50072 L 174.2056 103.5007 L 178.5358 106.0008 L 182.866 103.5007 L 187.1961 106.0008 L 187.1961 111.0008 L 191.5263 113.5008 L 195.8564 111.0008 L 195.8564 106.0008 L 200.1866 103.5007 L 204.5167 106.0008 L 204.5167 111.0008 L 200.1866 113.5008 L 200.1866 118.5008 L 204.5167 121.0009 L 208.8469 118.5008 L 213.177 121.0009 L 213.177 126.0009 L 217.5072 128.5009 L 221.8373 126.0009 L 221.8373 121.0009 L 217.5072 118.5008 L 217.5072 113.5008 L 221.8373 111.0008 L 226.1675 113.5008 L 230.4977 111.0008 L 230.4977 106.0008 L 234.8278 103.5007 L 239.158 106.0008 L 239.158 111.0008 L 234.8278 113.5008 L 234.8278 118.5008 L 239.158 121.0009 L 239.158 126.0009 L 234.8278 128.5009 L 230.4977 126.0009 L 226.1675 128.5009 L 226.1675 133.5009 L 230.4977 136.0009 L 234.8278 133.5009 L 239.158 136.0009 L 239.158 141.001 L 243.4881 143.501 L 247.8183 141.001 L 247.8183 136.0009 L 252.1484 133.5009 L 256.4786 136.0009 L 256.4786 141.001 L 252.1484 143.501 L 252.1484 148.501 L 256.4786 151.001 L 260.8087 148.501 L 265.1389 151.001 L 265.1389 156.0011 L 269.469 158.5011 L 273.7992 156.0011 L 273.7992 151.001 L 269.469 148.501 L 269.469 143.501 L 273.7992 141.001 L 273.7992 136.0009 L 269.469 133.5009 L 265.1389 136.0009 L 260.8087 133.5009 L 260.8087 128.5009 L 265.1389 126.0009 L 269.469 128.5009 L 273.7992 126.0009 L 273.7992 121.0009 L 269.469 118.5008 L 269.469 113.5008 L 273.7992 111.0008 L 273.7992 106.0008 L 269.469 103.5007 L 265.1389 106.0008 L 265.1389 111.0008 L 260.8087 113.5008 L 256.4785 111.0008 L 256.4785 106.0008 L 252.1484 103.5007 L 247.8182 106.0008 L 243.4881 103.5007 L 243.4881 98.50072 L 247.8182 96.0007 L 252.1484 98.50072 L 256.4785 96.0007 L 256.4785 91.00067 L 260.8087 88.50066 L 265.1389 91.00067 L 265.1389 96.0007 L 269.469 98.50072 L 273.7992 96.0007 L 273.7992 91.00067 L 269.469 88.50066 L 269.469 83.50063 L 273.7992 81.00061 L 273.7992 76.00058 L 269.469 73.50056 L 265.1389 76.00058 L 260.8087 73.50056 L 260.8087 68.50053 L 265.1389 66.00052 L 269.469 68.50053 L 273.7992 66.00052 L 273.7992 61.00049 L 269.469 58.50046 L 269.469 53.50043 L 273.7992 51.0004 L 273.7992 46.00037 L 269.469 43.50034 L 265.1389 46.00037 L 265.1389 51.0004 L 260.8087 53.50043 L 256.4785 51.0004 L 252.1484 53.50043 L 252.1484 58.50046 L 256.4785 61.00049 L 256.4785 66.00052 L 252.1484 68.50053 L 247.8182 66.00052 L 247.8182 61.00049 L 243.4881 58.50046 L 239.1579 61.00049 L 234.8278 58.50046 L 234.8278 53.50043 L 239.1579 51.0004 L 239.1579 46.00037 L 234.8278 43.50034 L 230.4976 46.00037 L 230.4976 51.0004 L 226.1674 53.50043 L 221.8373 51.0004 L 221.8373 46.00037 L 217.5071 43.50034 L 213.177 46.00037 L 208.8468 43.50034 L 208.8468 38.50031 L 213.177 36.00027 L 217.5071 38.50031 L 221.8373 36.00027 L 221.8373 31.00024 L 226.1674 28.50021 L 230.4976 31.00024 L 230.4976 36.00027 L 234.8278 38.50031 L 239.1579 36.00027 L 239.1579 31.00024 L 234.8278 28.50021 L 234.8278 23.50018 L 239.1579 21.00015 L 243.4881 23.50018 L 247.8182 21.00015 L 247.8182 16.00012 L 252.1484 13.50009 L 256.4786 16.00012 L 256.4786 21.00015 L 252.1484 23.50018 L 252.1484 28.50021 L 256.4786 31.00024 L 260.8087 28.50021 L 265.1389 31.00024 L 265.1389 36.00027 L 269.469 38.50031 L 273.7992 36.00027 L 273.7992 31.00024 L 269.469 28.50021 L 269.469 23.50018 L 273.7992 21.00015 L 273.7992 16.00012 L 269.469 13.50009 L 265.1389 16.00012 L 260.8087 13.50009 L 260.8087 8.500061 L 265.1389 6.000031 L 269.469 8.500061 L 273.7992 6.000031 L 273.7992 1 " />
  </g>
</svg>
