<?xml version="1.0" encoding="UTF-8" standalone="no"?>
<!DOCTYPE svg PUBLIC "-//W3C//DTD SVG 1.1//EN"
    "http://www.w3.org/Graphics/SVG/1.1/DTD/svg11.dtd">
<svg xmlns="http://www.w3.org/2000/svg" width="572" height="482">
  <desc>stochastic LSystem</desc>
  <rect width="100%" height="100%" style="fill: white"/>
  <g stroke="black" fill="none" stroke-width="1">
    <path d="M 70.01812 481 L 70.01812 475 L 67.72202 469.4567 M 70.01812 475 L 70.01812 469 L 72.31422 463.4567 M 70.01812 469 L 70.01812 463 L 67.72202 457.4567 L 67.72202 451.4567 M 67.72202 457.4567 L 65.42592 451.9135 M 70.01812 463 L 70.01812 457 L 72.31422 451.4567 M 70.01812 457 L 70.01812 451 L 67.72202 445.4567 L 63.47938 441.2141 M 67.72202 445.4567 L 65.42592 439.9135 L 65.42592 433.9135 M 65.42592 439.9135 L 63.12982 434.3701 L 58.88718 430.1275 L 53.3439 427.8314 M 58.88718 430.1275 L 54.64454 425.8849 M 63.12982 434.3701 L 60.83372 428.8269 L 56.59108 424.5842 M 60.83372 428.8269 L 58.53762 423.2836 M 70.01812 451 L 70.01812 445 L 67.72202 439.4567 M 70.01812 445 L 70.01812 439 L 72.31422 433.4567 M 70.01812 439 L 70.01812 433 L 67.72202 427.4567 L 63.47938 423.2141 M 67.72202 427.4567 L 65.42592 421.9135 M 70.01812 433 L 70.01812 427 L 72.31422 421.4567 M 70.01812 427 L 70.01812 421 L 72.31422 415.4567 L 76.55686 411.2141 M 72.31422 415.4567 L 74.61032 409.9135 L 78.85296 405.6708 L 81.14906 400.1276 M 78.85296 405.6708 L 83.0956 401.4282 L 88.63888 399.1321 M 83.0956 401.4282 L 87.33824 397.1855 M 74.61032 409.9135 L 76.90642 404.3702 L 76.90642 398.3702 M 76.90642 404.3702 L 79.20252 398.8269 L 83.44516 394.5843 M 79.20252 398.8269 L 81.49862 393.2837 M 70.01812 421 L 70.01812 415 L 67.72202 409.4567 M 70.01812 415 L 70.01812 409 L 72.31422 403.4567 M 70.01812 409 L 70.01812 403 L 67.72202 397.4567 L 63.47938 393.2141 M 67.72202 397.4567 L 65.42592 391.9135 M 70.01812 403 L 70.01812 397 L 67.72202 391.4567 M 70.01812 397 L 70.01812 391 L 72.31422 385.4567 L 76.55686 381.2141 M 72.31422 385.4567 L 74.61032 379.9135 M 70.01812 391 L 70.01812 385 L 67.72202 379.4567 M 70.01812 385 L 70.01812 379 L 72.31422 373.4567 M 70.01812 379 L 70.01812 373 L 72.31422 367.4567 L 72.31422 361.4567 M 72.31422 367.4567 L 74.61032 361.9135 L 74.61032 355.9135 L 72.31422 350.3702 M 74.61032 355.9135 L 74.61032 349.9135 L 76.90642 344.3702 M 74.61032 349.9135 L 74.61032 343.9135 M 74.61032 361.9135 L 76.90642 356.3702 L 81.14906 352.1276 M 76.90642 356.3702 L 79.20252 350.8269 L 79.20252 344.8269 L 76.90642 339.2836 M 79.20252 344.8269 L 79.20252 338.8269 L 76.90642 333.2836 L 72.66378 329.041 M 76.90642 333.2836 L 74.61032 327.7404 L 74.61032 321.7404 M 74.61032 327.7404 L 72.31422 322.1971 M 79.20252 338.8269 L 79.20252 332.8269 L 76.90642 327.2836 M 79.20252 332.8269 L 79.20252 326.8269 L 81.49862 321.2836 M 79.20252 326.8269 L 79.20252 320.8269 M 79.20252 350.8269 L 81.49862 345.2836 L 81.49862 339.2836 M 81.49862 345.2836 L 83.79472 339.7404 L 88.03736 335.4977 M 83.79472 339.7404 L 86.09082 334.1971 L 86.09082 328.1971 L 83.79472 322.6538 M 86.09082 328.1971 L 86.09082 322.1971 L 88.38692 316.6538 M 86.09082 322.1971 L 86.09082 316.1971 M 86.09082 334.1971 L 88.38692 328.6538 L 88.38692 322.6538 M 88.38692 328.6538 L 90.68302 323.1105 M 70.01812 373 L 70.01812 367 L 67.72202 361.4567 M 70.01812 367 L 70.01812 361 L 72.31422 355.4567 M 70.01812 361 L 70.01812 355 L 72.31422 349.4567 L 76.55686 345.2141 M 72.31422 349.4567 L 74.61032 343.9135 M 70.01812 355 L 70.01812 349 L 67.72202 343.4567 M 70.01812 349 L 70.01812 343 L 67.72202 337.4567 L 63.47938 333.2141 M 67.72202 337.4567 L 65.42592 331.9135 L 65.42592 325.9135 M 65.42592 331.9135 L 63.12982 326.3702 L 58.88718 322.1275 L 53.3439 319.8314 M 58.88718 322.1275 L 54.64454 317.8849 L 52.34844 312.3416 M 54.64454 317.8849 L 50.4019 313.6422 M 63.12982 326.3702 L 60.83372 320.8269 L 56.59108 316.5843 M 60.83372 320.8269 L 58.53762 315.2836 L 58.53762 309.2836 L 56.24152 303.7404 M 58.53762 309.2836 L 58.53762 303.2836 M 58.53762 315.2836 L 56.24152 309.7404 L 51.99888 305.4977 M 56.24152 309.7404 L 53.94542 304.1971 M 70.01812 343 L 70.01812 337 L 67.72202 331.4567 M 70.01812 337 L 70.01812 331 L 72.31422 325.4567 M 70.01812 331 L 70.01812 325 L 67.72202 319.4567 L 63.47938 315.2141 M 67.72202 319.4567 L 65.42592 313.9135 L 65.42592 307.9135 M 65.42592 313.9135 L 63.12982 308.3702 M 70.01812 325 L 70.01812 319 L 67.72202 313.4567 M 70.01812 319 L 70.01812 313 L 72.31422 307.4567 M 70.01812 313 L 70.01812 307 L 67.72202 301.4567 L 63.47938 297.2141 M 67.72202 301.4567 L 65.42592 295.9135 L 61.18328 291.6708 L 58.88718 286.1275 M 61.18328 291.6708 L 56.94064 287.4282 M 65.42592 295.9135 L 63.12982 290.3702 L 58.88718 286.1275 M 63.12982 290.3702 L 60.83372 284.8269 L 60.83372 278.8269 M 60.83372 284.8269 L 58.53762 279.2836 L 54.29498 275.041 L 48.7517 272.7449 M 54.29498 275.041 L 50.05234 270.7983 L 47.75624 265.2551 M 50.05234 270.7983 L 45.8097 266.5557 L 40.26642 264.2596 L 34.26642 264.2596 M 40.26642 264.2596 L 34.72314 261.9635 L 30.4805 257.7209 M 34.72314 261.9635 L 29.17986 259.6674 M 45.8097 266.5557 L 41.56706 262.313 L 36.02378 260.017 M 41.56706 262.313 L 37.32442 258.0704 M 58.53762 279.2836 L 56.24152 273.7404 L 51.99888 269.4977 M 56.24152 273.7404 L 53.94542 268.1971 L 53.94542 262.1971 L 51.64932 256.6538 M 53.94542 262.1971 L 53.94542 256.1971 L 56.24152 250.6538 M 53.94542 256.1971 L 53.94542 250.1971 M 53.94542 268.1971 L 51.64932 262.6538 L 47.40668 258.4112 M 51.64932 262.6538 L 49.35322 257.1105 L 49.35322 251.1105 M 49.35322 257.1105 L 47.05712 251.5673 L 42.81448 247.3246 L 37.2712 245.0285 M 42.81448 247.3246 L 38.57184 243.082 L 36.27574 237.5387 L 32.0331 233.2961 M 36.27574 237.5387 L 33.97964 231.9954 L 33.97964 225.9954 M 33.97964 231.9954 L 31.68354 226.4521 M 38.57184 243.082 L 34.3292 238.8393 L 28.78592 236.5432 M 34.3292 238.8393 L 30.08656 234.5967 L 24.54328 232.3006 L 20.30064 228.0579 M 24.54328 232.3006 L 19 230.0045 L 13 230.0045 L 7.456718 232.3006 M 13 230.0045 L 7 230.0045 L 1.456726 227.7084 M 7 230.0045 L 1 230.0045 M 19 230.0045 L 13.45672 227.7084 L 9.214081 223.4658 M 13.45672 227.7084 L 7.913441 225.4123 M 30.08656 234.5967 L 25.84392 230.354 L 20.30064 228.0579 M 25.84392 230.354 L 21.60128 226.1114 L 19.30518 220.5681 M 21.60128 226.1114 L 17.35864 221.8687 L 15.06254 216.3255 L 10.8199 212.0828 M 15.06254 216.3255 L 12.76644 210.7822 M 17.35864 221.8687 L 13.116 217.6261 L 7.57272 215.33 M 13.116 217.6261 L 8.87336 213.3835 L 6.577259 207.8402 M 8.87336 213.3835 L 4.630722 209.1408 M 47.05712 251.5673 L 44.76102 246.024 L 44.76102 240.024 M 44.76102 246.024 L 42.46492 240.4807 L 38.22228 236.2381 L 32.679 233.942 M 38.22228 236.2381 L 33.97964 231.9954 M 42.46492 240.4807 L 40.16882 234.9374 L 35.92618 230.6948 M 40.16882 234.9374 L 37.87272 229.3942 L 37.87272 223.3942 L 40.16882 217.8509 M 37.87272 223.3942 L 37.87272 217.3942 L 35.57662 211.8509 L 35.57662 205.8509 M 35.57662 211.8509 L 33.28052 206.3076 M 37.87272 217.3942 L 37.87272 211.3942 L 35.57662 205.8509 M 37.87272 211.3942 L 37.87272 205.3942 L 40.16882 199.8509 M 37.87272 205.3942 L 37.87272 199.3942 M 37.87272 229.3942 L 35.57662 223.8509 L 31.33398 219.6082 M 35.57662 223.8509 L 33.28052 218.3076 L 33.28052 212.3076 M 33.28052 218.3076 L 30.98442 212.7643 L 26.74178 208.5217 L 24.44568 202.9784 M 26.74178 208.5217 L 22.49914 204.2791 M 30.98442 212.7643 L 28.68832 207.2211 L 28.68832 201.2211 M 28.68832 207.2211 L 26.39222 201.6778 L 26.39222 195.6778 L 24.09612 190.1345 M 26.39222 195.6778 L 26.39222 189.6778 M 26.39222 201.6778 L 24.09612 196.1345 L 24.09612 190.1345 M 24.09612 196.1345 L 21.80002 190.5912 M 70.01812 307 L 70.01812 301 L 72.31422 295.4567 M 70.01812 301 L 70.01812 295 L 67.72202 289.4567 L 63.47938 285.2141 M 67.72202 289.4567 L 65.42592 283.9135 M 70.01812 295 L 70.01812 289 L 67.72202 283.4567 M 70.01812 289 L 70.01812 283 L 72.31422 277.4567 L 72.31422 271.4567 M 72.31422 277.4567 L 74.61032 271.9135 M 70.01812 283 L 70.01812 277 L 67.72202 271.4567 M 70.01812 277 L 70.01812 271 L 72.31422 265.4567 L 72.31422 259.4567 M 72.31422 265.4567 L 74.61032 259.9135 L 78.85296 255.6708 L 84.39624 253.3747 M 78.85296 255.6708 L 83.0956 251.4282 M 74.61032 259.9135 L 76.90642 254.3702 L 76.90642 248.3702 M 76.90642 254.3702 L 79.20252 248.8269 L 83.44516 244.5843 M 79.20252 248.8269 L 81.49862 243.2836 M 70.01812 271 L 70.01812 265 L 72.31422 259.4567 M 70.01812 265 L 70.01812 259 L 67.72202 253.4567 L 63.47938 249.2141 M 67.72202 253.4567 L 65.42592 247.9135 L 65.42592 241.9135 M 65.42592 247.9135 L 63.12982 242.3702 M 70.01812 259 L 70.01812 253 L 67.72202 247.4567 M 70.01812 253 L 70.01812 247 L 72.31422 241.4567 L 72.31422 235.4567 M 72.31422 241.4567 L 74.61032 235.9135 M 70.01812 247 L 70.01812 241 L 67.72202 235.4567 M 70.01812 241 L 70.01812 235 L 72.31422 229.4567 M 70.01812 235 L 70.01812 229 L 67.72202 223.4567 L 63.47938 219.2141 M 67.72202 223.4567 L 65.42592 217.9135 L 65.42592 211.9135 M 65.42592 217.9135 L 63.12982 212.3702 L 58.88718 208.1275 L 53.3439 205.8314 M 58.88718 208.1275 L 54.64454 203.8849 L 52.34844 198.3416 M 54.64454 203.8849 L 50.4019 199.6422 M 63.12982 212.3702 L 60.83372 206.8269 L 56.59108 202.5843 M 60.83372 206.8269 L 58.53762 201.2836 L 58.53762 195.2836 M 58.53762 201.2836 L 56.24152 195.7404 L 56.24152 189.7404 L 53.94542 184.1971 M 56.24152 189.7404 L 56.24152 183.7404 L 58.53762 178.1971 M 56.24152 183.7404 L 56.24152 177.7404 M 56.24152 195.7404 L 53.94542 190.1971 L 53.94542 184.1971 M 53.94542 190.1971 L 51.64932 184.6538 L 47.40668 180.4112 L 45.11058 174.8679 M 47.40668 180.4112 L 43.16404 176.1685 L 40.86794 170.6252 L 36.6253 166.3826 M 40.86794 170.6252 L 38.57184 165.082 L 38.57184 159.082 M 38.57184 165.082 L 36.27574 159.5387 M 43.16404 176.1685 L 38.9214 171.9259 L 33.37812 169.6298 M 38.9214 171.9259 L 34.67876 167.6832 M 51.64932 184.6538 L 49.35322 179.1105 L 45.11058 174.8679 M 49.35322 179.1105 L 47.05712 173.5673 L 47.05712 167.5673 M 47.05712 173.5673 L 44.76102 168.024 L 44.76102 162.024 L 42.46492 156.4807 M 44.76102 162.024 L 44.76102 156.024 M 44.76102 168.024 L 42.46492 162.4807 L 38.22228 158.2381 M 42.46492 162.4807 L 40.16882 156.9374 L 40.16882 150.9374 M 40.16882 156.9374 L 37.87272 151.3942 L 37.87272 145.3942 L 35.57662 139.8509 M 37.87272 145.3942 L 37.87272 139.3942 L 40.16882 133.8509 L 44.41146 129.6082 M 40.16882 133.8509 L 42.46492 128.3076 M 37.87272 139.3942 L 37.87272 133.3942 L 40.16882 127.8509 M 37.87272 133.3942 L 37.87272 127.3942 M 37.87272 151.3942 L 35.57662 145.8509 L 31.33398 141.6082 M 35.57662 145.8509 L 33.28052 140.3076 L 33.28052 134.3076 M 33.28052 140.3076 L 30.98442 134.7643 L 30.98442 128.7643 L 28.68832 123.2211 M 30.98442 128.7643 L 30.98442 122.7643 L 33.28052 117.2211 M 30.98442 122.7643 L 30.98442 116.7643 M 30.98442 134.7643 L 28.68832 129.2211 L 28.68832 123.2211 M 28.68832 129.2211 L 26.39222 123.6778 M 70.01812 229 L 70.01812 223 L 67.72202 217.4567 M 70.01812 223 L 70.01812 217 L 72.31422 211.4567 L 76.55686 207.2141 M 72.31422 211.4567 L 74.61032 205.9135 M 70.01812 217 L 70.01812 211 L 67.72202 205.4567 M 70.01812 211 L 70.01812 205 L 72.31422 199.4567 M 70.01812 205 L 70.01812 199 L 72.31422 193.4567 L 72.31422 187.4567 M 72.31422 193.4567 L 74.61032 187.9135 L 74.61032 181.9135 L 72.31422 176.3702 M 74.61032 181.9135 L 74.61032 175.9135 M 74.61032 187.9135 L 76.90642 182.3702 L 76.90642 176.3702 M 76.90642 182.3702 L 79.20252 176.8269 L 83.44516 172.5843 M 79.20252 176.8269 L 81.49862 171.2836 M 70.01812 199 L 70.01812 193 L 67.72202 187.4567 M 70.01812 193 L 70.01812 187 L 67.72202 181.4567 L 63.47938 177.2141 M 67.72202 181.4567 L 65.42592 175.9135 L 65.42592 169.9135 M 65.42592 175.9135 L 63.12982 170.3702 M 70.01812 187 L 70.01812 181 L 67.72202 175.4567 M 70.01812 181 L 70.01812 175 L 72.31422 169.4567 L 72.31422 163.4567 M 72.31422 169.4567 L 74.61032 163.9135 L 78.85296 159.6708 L 84.39624 157.3747 M 78.85296 159.6708 L 83.0956 155.4282 M 74.61032 163.9135 L 76.90642 158.3702 L 81.14906 154.1275 M 76.90642 158.3702 L 79.20252 152.8269 L 79.20252 146.8269 L 76.90642 141.2836 M 79.20252 146.8269 L 79.20252 140.8269 L 81.49862 135.2836 L 85.74126 131.041 M 81.49862 135.2836 L 83.79472 129.7404 M 79.20252 140.8269 L 79.20252 134.8269 L 76.90642 129.2836 M 79.20252 134.8269 L 79.20252 128.8269 L 81.49862 123.2836 M 79.20252 128.8269 L 79.20252 122.8269 M 79.20252 152.8269 L 81.49862 147.2836 L 81.49862 141.2836 M 81.49862 147.2836 L 83.79472 141.7404 L 88.03736 137.4977 M 83.79472 141.7404 L 86.09082 136.1971 L 90.33346 131.9544 L 92.62956 126.4112 M 90.33346 131.9544 L 94.5761 127.7118 M 86.09082 136.1971 L 88.38692 130.6538 L 88.38692 124.6538 M 88.38692 130.6538 L 90.68302 125.1105 L 90.68302 119.1105 L 88.38692 113.5673 M 90.68302 119.1105 L 90.68302 113.1105 L 92.97912 107.5673 L 97.22176 103.3246 M 92.97912 107.5673 L 95.27522 102.024 M 90.68302 113.1105 L 90.68302 107.1105 L 88.38692 101.5673 M 90.68302 107.1105 L 90.68302 101.1105 L 92.97912 95.56726 M 90.68302 101.1105 L 90.68302 95.11053 L 88.38692 89.56726 L 84.14428 85.32462 M 88.38692 89.56726 L 86.09082 84.02399 L 86.09082 78.02399 M 86.09082 84.02399 L 83.79472 78.48071 L 79.55208 74.23807 L 77.25598 68.69479 M 79.55208 74.23807 L 75.30944 69.99542 M 83.79472 78.48071 L 81.49862 72.93744 L 77.25598 68.69479 M 81.49862 72.93744 L 79.20252 67.39417 L 79.20252 61.39417 M 79.20252 67.39417 L 76.90642 61.85089 L 76.90642 55.85089 L 74.61032 50.30762 M 76.90642 55.85089 L 76.90642 49.85089 M 76.90642 61.85089 L 74.61032 56.30762 L 70.36768 52.06497 M 74.61032 56.30762 L 72.31422 50.76434 M 90.68302 95.11053 L 90.68302 89.11053 L 88.38692 83.56726 M 90.68302 89.11053 L 90.68302 83.11053 L 92.97912 77.56726 M 90.68302 83.11053 L 90.68302 77.11053 L 88.38692 71.56726 L 84.14428 67.32462 M 88.38692 71.56726 L 86.09082 66.02399 M 90.68302 77.11053 L 90.68302 71.11053 L 92.97912 65.56726 M 90.68302 71.11053 L 90.68302 65.11053 L 92.97912 59.56726 L 97.22176 55.32462 M 92.97912 59.56726 L 95.27522 54.02399 M 90.68302 65.11053 L 90.68302 59.11053 L 92.97912 53.56726 M 90.68302 59.11053 L 90.68302 53.11053 M 90.68302 125.1105 L 92.97912 119.5673 L 97.22176 115.3246 M 92.97912 119.5673 L 95.27522 114.024 L 95.27522 108.024 L 97.57132 102.4807 M 95.27522 108.024 L 95.27522 102.024 M 95.27522 114.024 L 97.57132 108.4807 L 97.57132 102.4807 M 97.57132 108.4807 L 99.86742 102.9374 L 104.1101 98.69479 M 99.86742 102.9374 L 102.1635 97.39417 L 106.4062 93.15152 L 111.9494 90.85541 M 106.4062 93.15152 L 110.6488 88.90887 M 102.1635 97.39417 L 104.4596 91.85089 L 108.7023 87.60825 M 104.4596 91.85089 L 106.7557 86.30762 L 106.7557 80.30762 L 104.4596 74.76434 M 106.7557 80.30762 L 106.7557 74.30762 L 109.0518 68.76434 L 109.0518 62.76434 M 109.0518 68.76434 L 111.3479 63.22107 M 106.7557 74.30762 L 106.7557 68.30762 L 109.0518 62.76434 M 106.7557 68.30762 L 106.7557 62.30762 M 106.7557 86.30762 L 109.0518 80.76434 L 113.2945 76.5217 M 109.0518 80.76434 L 111.3479 75.22107 L 111.3479 69.22107 L 113.644 63.6778 M 111.3479 69.22107 L 111.3479 63.22107 M 111.3479 75.22107 L 113.644 69.6778 L 113.644 63.6778 M 113.644 69.6778 L 115.9401 64.13452 L 120.1828 59.89188 M 115.9401 64.13452 L 118.2362 58.59125 L 122.4789 54.3486 L 124.775 48.80533 M 122.4789 54.3486 L 126.7215 50.10596 L 132.2648 47.80984 M 126.7215 50.10596 L 130.9641 45.86331 M 118.2362 58.59125 L 120.5323 53.04797 L 120.5323 47.04797 M 120.5323 53.04797 L 122.8284 47.5047 L 127.0711 43.26205 M 122.8284 47.5047 L 125.1245 41.96143 L 129.3672 37.71878 L 131.6633 32.17551 M 129.3672 37.71878 L 133.6098 33.47614 L 139.1531 31.18002 M 133.6098 33.47614 L 137.8524 29.23349 L 143.3957 26.93738 L 147.6383 22.69473 M 143.3957 26.93738 L 148.939 24.64127 M 137.8524 29.23349 L 142.0951 24.99084 L 147.6384 22.69473 M 142.0951 24.99084 L 146.3377 20.7482 M 125.1245 41.96143 L 127.4206 36.41815 L 127.4206 30.41815 M 127.4206 36.41815 L 129.7167 30.87488 L 129.7167 24.87488 L 132.0128 19.3316 M 129.7167 24.87488 L 129.7167 18.87488 M 129.7167 30.87488 L 132.0128 25.3316 L 132.0128 19.3316 M 132.0128 25.3316 L 134.3089 19.78833 L 138.5516 15.54568 L 140.8477 10.00241 M 138.5516 15.54568 L 142.7942 11.30304 L 148.3375 9.006927 M 142.7942 11.30304 L 147.0368 7.060394 M 134.3089 19.78833 L 136.605 14.24506 L 136.605 8.245056 M 136.605 14.24506 L 138.9011 8.701782 L 143.1438 4.459137 M 138.9011 8.701782 L 141.1972 3.158508 M 70.01812 175 L 70.01812 169 L 67.72202 163.4567 M 70.01812 169 L 70.01812 163 L 67.72202 157.4567 L 63.47938 153.2141 M 67.72202 157.4567 L 65.42592 151.9135 L 65.42592 145.9135 M 65.42592 151.9135 L 63.12982 146.3702 M 70.01812 163 L 70.01812 157 L 67.72202 151.4567 M 70.01812 157 L 70.01812 151 L 67.72202 145.4567 L 63.47938 141.2141 M 67.72202 145.4567 L 65.42592 139.9135 L 65.42592 133.9135 M 65.42592 139.9135 L 63.12982 134.3702 L 58.88718 130.1275 L 56.59108 124.5843 M 58.88718 130.1275 L 54.64454 125.8849 M 63.12982 134.3702 L 60.83372 128.8269 L 60.83372 122.8269 M 60.83372 128.8269 L 58.53762 123.2836 M 70.01812 151 L 70.01812 145 L 67.72202 139.4567 M 70.01812 145 L 70.01812 139 L 72.31422 133.4567 M 70.01812 139 L 70.01812 133 L 72.31422 127.4567 L 76.55686 123.2141 M 72.31422 127.4567 L 74.61032 121.9135 M 70.01812 133 L 70.01812 127 L 67.72202 121.4567 M 70.01812 127 L 70.01812 121 L 72.31422 115.4567 M 70.01812 121 L 70.01812 115 L 72.31422 109.4567 L 72.31422 103.4567 M 72.31422 109.4567 L 74.61032 103.9135 L 78.85296 99.67081 M 74.61032 103.9135 L 76.90642 98.37018 L 81.14906 94.12753 L 83.44516 88.58426 M 81.14906 94.12753 L 85.3917 89.88489 L 90.93498 87.58878 M 85.3917 89.88489 L 89.63434 85.64224 M 76.90642 98.37018 L 79.20252 92.8269 L 83.44516 88.58426 M 79.20252 92.8269 L 81.49862 87.28363 M 70.01812 115 L 70.01812 109 L 72.31422 103.4567 M 70.01812 109 L 70.01812 103 L 67.72202 97.45673 L 63.47938 93.21408 M 67.72202 97.45673 L 65.42592 91.91345 L 65.42592 85.91345 M 65.42592 91.91345 L 63.12982 86.37018 M 70.01812 103 L 70.01812 97 L 67.72202 91.45673 M 70.01812 97 L 70.01812 91 L 72.31422 85.45673 M 70.01812 91 L 70.01812 85 L 72.31422 79.45673 L 72.31422 73.45673 M 72.31422 79.45673 L 74.61032 73.91345 L 78.85296 69.67081 M 74.61032 73.91345 L 76.90642 68.37018 M 70.01812 85 L 70.01812 79 L 67.72202 73.45673 M 70.01812 79 L 70.01812 73 L 72.31422 67.45673 M 70.01812 73 L 70.01812 67 L 67.72202 61.45673 L 63.47938 57.21408 M 67.72202 61.45673 L 65.42592 55.91345 L 65.42592 49.91345 L 63.12982 44.37018 M 65.42592 49.91345 L 65.42592 43.91345 M 65.42592 55.91345 L 63.12982 50.37018 L 58.88718 46.12753 M 63.12982 50.37018 L 60.83372 44.8269 L 60.83372 38.8269 M 60.83372 44.8269 L 58.53762 39.28363 L 54.29498 35.04099 L 51.99888 29.49771 M 54.29498 35.04099 L 50.05234 30.79834 L 44.50906 28.50223 L 40.26642 24.25958 M 44.50906 28.50223 L 38.96578 26.20612 M 50.05234 30.79834 L 45.8097 26.55569 L 40.26642 24.25958 M 45.8097 26.55569 L 41.56706 22.31305 L 39.27096 16.76978 M 41.56706 22.31305 L 37.32442 18.0704 M 58.53762 39.28363 L 56.24152 33.74036 L 51.99888 29.49771 M 56.24152 33.74036 L 53.94542 28.19708 L 53.94542 22.19708 M 53.94542 28.19708 L 51.64932 22.65381 L 51.64932 16.65381 L 53.94542 11.11053 M 51.64932 16.65381 L 51.64932 10.65381 M 51.64932 22.65381 L 49.35322 17.11053 L 49.35322 11.11053 M 49.35322 17.11053 L 47.05712 11.56726 M 70.01812 67 L 70.01812 61 L 72.31422 55.45673 M 70.01812 61 L 70.01812 55 L 67.72202 49.45673 L 63.47938 45.21408 M 67.72202 49.45673 L 65.42592 43.91345 L 65.42592 37.91345 M 65.42592 43.91345 L 63.12982 38.37018 M 70.01812 55 L 70.01812 49 L 67.72202 43.45673 M 70.01812 49 L 70.01812 43 L 72.31422 37.45673 L 72.31422 31.45673 M 72.31422 37.45673 L 74.61032 31.91345 L 74.61032 25.91345 L 72.31422 20.37018 M 74.61032 25.91345 L 74.61032 19.91345 M 74.61032 31.91345 L 76.90642 26.37018 L 76.90642 20.37018 M 76.90642 26.37018 L 79.20252 20.8269 M 70.01812 43 L 70.01812 37 L 67.72202 31.45673 M 70.01812 37 L 70.01812 31 L 67.72202 25.45673 L 63.47938 21.21408 M 67.72202 25.45673 L 65.42592 19.91345 M 70.01812 31 L 70.01812 25 L 67.72202 19.45673 M 70.01812 25 L 70.01812 19 L 72.31422 13.45673 M 70.01812 19 L 70.01812 13 L 72.31422 7.456726 L 76.55686 3.214081 M 72.31422 7.456726 L 74.61032 1.913452 M 70.01812 13 L 70.01812 7 L 72.31422 1.456726 M 70.01812 7 L 70.01812 1 M 166.0181 481 L 166.0181 475 L 163.722 469.4567 M 166.0181 475 L 166.0181 469 L 163.722 463.4567 L 159.4794 459.2141 M 163.722 463.4567 L 161.4259 457.9135 L 161.4259 451.9135 M 161.4259 457.9135 L 159.1298 452.3701 M 166.0181 469 L 166.0181 463 L 168.3142 457.4567 M 166.0181 463 L 166.0181 457 L 163.722 451.4567 L 159.4794 447.2141 M 163.722 451.4567 L 161.4259 445.9135 L 157.1833 441.6708 L 154.8872 436.1275 M 157.1833 441.6708 L 152.9406 437.4282 M 161.4259 445.9135 L 159.1298 440.3701 L 159.1298 434.3701 M 159.1298 440.3701 L 156.8337 434.8269 L 156.8337 428.8269 L 159.1298 423.2836 M 156.8337 428.8269 L 156.8337 422.8269 M 156.8337 434.8269 L 154.5376 429.2836 L 154.5376 423.2836 M 154.5376 429.2836 L 152.2415 423.7403 M 166.0181 457 L 166.0181 451 L 163.722 445.4567 M 166.0181 451 L 166.0181 445 L 168.3142 439.4567 L 168.3142 433.4567 M 168.3142 439.4567 L 170.6103 433.9135 M 166.0181 445 L 166.0181 439 L 163.722 433.4567 M 166.0181 439 L 166.0181 433 L 168.3142 427.4567 M 166.0181 433 L 166.0181 427 L 163.722 421.4567 L 159.4794 417.2141 M 163.722 421.4567 L 161.4259 415.9135 L 157.1833 411.6708 L 151.64 409.3747 M 157.1833 411.6708 L 152.9406 407.4282 M 161.4259 415.9135 L 159.1298 410.3702 L 154.8872 406.1275 M 159.1298 410.3702 L 156.8337 404.8269 L 156.8337 398.8269 L 154.5376 393.2836 M 156.8337 398.8269 L 156.8337 392.8269 M 156.8337 404.8269 L 154.5376 399.2836 L 150.295 395.041 M 154.5376 399.2836 L 152.2415 393.7404 L 152.2415 387.7404 M 152.2415 393.7404 L 149.9454 388.1971 L 145.7028 383.9544 L 140.1595 381.6583 M 145.7028 383.9544 L 141.4602 379.7118 L 139.1641 374.1685 M 141.4602 379.7118 L 137.2175 375.4691 L 131.6742 373.173 L 125.6742 373.173 M 131.6742 373.173 L 126.131 370.877 M 137.2175 375.4691 L 132.9749 371.2265 L 127.4316 368.9304 M 132.9749 371.2265 L 128.7322 366.9839 L 126.4361 361.4406 L 126.4361 355.4406 M 126.4361 361.4406 L 124.14 355.8973 M 128.7322 366.9839 L 124.4896 362.7412 L 118.9463 360.4451 M 124.4896 362.7412 L 120.247 358.4986 M 149.9454 388.1971 L 147.6494 382.6538 L 143.4067 378.4112 M 147.6494 382.6538 L 145.3532 377.1105 L 141.1106 372.8679 L 135.5673 370.5718 M 141.1106 372.8679 L 136.868 368.6252 L 134.5719 363.082 M 136.868 368.6252 L 132.6253 364.3826 M 145.3532 377.1105 L 143.0572 371.5673 L 143.0572 365.5673 M 143.0572 371.5673 L 140.7611 366.024 L 140.7611 360.024 L 138.465 354.4807 M 140.7611 360.024 L 140.7611 354.024 L 143.0572 348.4807 M 140.7611 354.024 L 140.7611 348.024 M 140.7611 366.024 L 138.465 360.4807 L 134.2223 356.2381 M 138.465 360.4807 L 136.1689 354.9374 L 136.1689 348.9374 M 136.1689 354.9374 L 133.8728 349.3942 M 166.0181 427 L 166.0181 421 L 163.722 415.4567 M 166.0181 421 L 166.0181 415 L 163.722 409.4567 L 163.722 403.4567 M 163.722 409.4567 L 161.4259 403.9135 M 166.0181 415 L 166.0181 409 L 168.3142 403.4567 M 166.0181 409 L 166.0181 403 L 168.3142 397.4567 L 168.3142 391.4567 M 168.3142 397.4567 L 170.6103 391.9135 L 174.853 387.6708 M 170.6103 391.9135 L 172.9064 386.3702 M 166.0181 403 L 166.0181 397 L 163.722 391.4567 M 166.0181 397 L 166.0181 391 L 163.722 385.4567 L 159.4794 381.2141 M 163.722 385.4567 L 161.4259 379.9135 L 161.4259 373.9135 M 161.4259 379.9135 L 159.1298 374.3702 L 154.8872 370.1276 L 149.3439 367.8315 M 154.8872 370.1276 L 150.6445 365.8849 L 148.3484 360.3417 M 150.6445 365.8849 L 146.4019 361.6423 M 159.1298 374.3702 L 156.8337 368.8269 L 152.5911 364.5843 M 156.8337 368.8269 L 154.5376 363.2837 M 166.0181 391 L 166.0181 385 L 163.722 379.4567 M 166.0181 385 L 166.0181 379 L 168.3142 373.4567 L 168.3142 367.4567 M 168.3142 373.4567 L 170.6103 367.9135 L 174.853 363.6708 M 170.6103 367.9135 L 172.9064 362.3702 M 166.0181 379 L 166.0181 373 L 168.3142 367.4567 M 166.0181 373 L 166.0181 367 L 168.3142 361.4567 L 168.3142 355.4567 M 168.3142 361.4567 L 170.6103 355.9135 L 174.853 351.6708 L 180.3962 349.3747 M 174.853 351.6708 L 179.0956 347.4282 M 170.6103 355.9135 L 172.9064 350.3702 L 177.149 346.1275 M 172.9064 350.3702 L 175.2025 344.8269 L 179.4451 340.5843 L 181.7412 335.041 M 179.4451 340.5843 L 183.6878 336.3416 L 185.9839 330.7983 L 185.9839 324.7983 M 185.9839 330.7983 L 188.28 325.2551 L 192.5226 321.0124 M 188.28 325.2551 L 190.576 319.7118 M 183.6878 336.3416 L 187.9304 332.099 L 190.2265 326.5557 M 187.9304 332.099 L 192.173 327.8563 L 197.7163 325.5602 M 192.173 327.8563 L 196.4156 323.6137 L 201.9589 321.3176 L 206.2016 317.075 M 201.9589 321.3176 L 207.5022 319.0215 L 213.5022 319.0215 M 207.5022 319.0215 L 213.0455 316.7254 M 196.4156 323.6137 L 200.6583 319.371 L 206.2016 317.075 M 200.6583 319.371 L 204.9009 315.1284 M 175.2025 344.8269 L 177.4986 339.2836 L 177.4986 333.2836 M 177.4986 339.2836 L 179.7947 333.7404 L 184.0373 329.4977 L 186.3334 323.9544 M 184.0373 329.4977 L 188.28 325.2551 L 193.8233 322.959 M 188.28 325.2551 L 192.5226 321.0124 M 179.7947 333.7404 L 182.0908 328.1971 L 182.0908 322.1971 M 182.0908 328.1971 L 184.3869 322.6538 L 188.6295 318.4112 M 184.3869 322.6538 L 186.683 317.1105 L 190.9256 312.8679 L 196.4689 310.5718 M 190.9256 312.8679 L 195.1683 308.6252 L 200.7115 306.3292 L 204.9542 302.0865 M 200.7115 306.3292 L 206.2548 304.0331 M 195.1683 308.6252 L 199.4109 304.3826 L 201.707 298.8393 M 199.4109 304.3826 L 203.6536 300.14 L 209.1968 297.8439 M 203.6536 300.14 L 207.8962 295.8973 L 210.1923 290.354 L 214.4349 286.1114 M 210.1923 290.354 L 212.4884 284.8108 L 216.731 280.5681 L 219.0271 275.0248 M 216.731 280.5681 L 220.9737 276.3255 M 212.4884 284.8108 L 214.7845 279.2675 L 219.0271 275.0248 M 214.7845 279.2675 L 217.0806 273.7242 M 207.8962 295.8973 L 212.1389 291.6547 L 214.4349 286.1114 M 212.1389 291.6547 L 216.3815 287.412 L 221.9248 285.1159 M 216.3815 287.412 L 220.6241 283.1694 L 222.9202 277.6261 L 222.9202 271.6261 M 222.9202 277.6261 L 225.2163 272.0828 L 229.459 267.8402 M 225.2163 272.0828 L 227.5124 266.5396 M 220.6241 283.1694 L 224.8668 278.9267 L 230.4101 276.6306 M 224.8668 278.9267 L 229.1094 274.6841 L 234.6527 272.388 L 238.8954 268.1453 M 234.6527 272.388 L 240.196 270.0919 L 246.196 270.0919 M 240.196 270.0919 L 245.7393 267.7958 L 251.7393 267.7958 L 257.2825 265.4997 M 251.7393 267.7958 L 257.7393 267.7958 M 245.7393 267.7958 L 251.2825 265.4997 L 255.5252 261.257 M 251.2825 265.4997 L 256.8258 263.2036 M 229.1094 274.6841 L 233.3521 270.4414 L 235.6482 264.8982 M 233.3521 270.4414 L 237.5947 266.1988 L 243.138 263.9027 M 237.5947 266.1988 L 241.8374 261.9561 L 244.1335 256.4129 L 244.1335 250.4129 M 244.1335 256.4129 L 246.4296 250.8696 L 250.6722 246.627 M 246.4296 250.8696 L 248.7256 245.3263 M 241.8374 261.9561 L 246.08 257.7135 L 248.3761 252.1702 M 246.08 257.7135 L 250.3227 253.4709 L 255.8659 251.1748 M 250.3227 253.4709 L 254.5653 249.2282 M 186.683 317.1105 L 188.9791 311.5673 L 188.9791 305.5673 M 188.9791 311.5673 L 191.2752 306.024 L 195.5178 301.7813 M 191.2752 306.024 L 193.5713 300.4807 L 193.5713 294.4807 L 195.8674 288.9374 M 193.5713 294.4807 L 193.5713 288.4807 M 193.5713 300.4807 L 195.8674 294.9374 L 200.11 290.6948 M 195.8674 294.9374 L 198.1635 289.3942 L 202.4061 285.1515 L 204.7022 279.6082 M 202.4061 285.1515 L 206.6488 280.9089 L 212.192 278.6128 M 206.6488 280.9089 L 210.8914 276.6662 M 198.1635 289.3942 L 200.4596 283.8509 L 200.4596 277.8509 M 200.4596 283.8509 L 202.7557 278.3076 L 206.9983 274.065 M 202.7557 278.3076 L 205.0518 272.7643 L 205.0518 266.7643 L 207.3479 261.2211 M 205.0518 266.7643 L 205.0518 260.7643 L 207.3479 255.2211 L 207.3479 249.2211 M 207.3479 255.2211 L 209.644 249.6778 M 205.0518 260.7643 L 205.0518 254.7643 L 202.7557 249.2211 M 205.0518 254.7643 L 205.0518 248.7643 L 207.3479 243.2211 M 205.0518 248.7643 L 205.0518 242.7643 M 205.0518 272.7643 L 207.3479 267.2211 L 211.5905 262.9784 M 207.3479 267.2211 L 209.644 261.6778 L 209.644 255.6778 L 207.3479 250.1345 M 209.644 255.6778 L 209.644 249.6778 M 209.644 261.6778 L 211.9401 256.1345 L 211.9401 250.1345 M 211.9401 256.1345 L 214.2361 250.5912 L 218.4788 246.3486 L 220.7749 240.8053 M 218.4788 246.3486 L 222.7214 242.106 L 225.0175 236.5627 L 225.0175 230.5627 M 225.0175 236.5627 L 227.3136 231.0194 M 222.7214 242.106 L 226.9641 237.8633 L 229.2602 232.32 M 226.9641 237.8633 L 231.2067 233.6207 L 236.75 231.3246 M 231.2067 233.6207 L 235.4494 229.378 M 214.2361 250.5912 L 216.5323 245.048 L 220.7749 240.8053 M 216.5323 245.048 L 218.8283 239.5047 L 218.8283 233.5047 L 221.1245 227.9614 M 218.8283 233.5047 L 218.8283 227.5047 M 218.8283 239.5047 L 221.1245 233.9614 L 221.1245 227.9614 M 221.1245 233.9614 L 223.4205 228.4182 M 166.0181 367 L 166.0181 361 L 163.722 355.4567 M 166.0181 361 L 166.0181 355 L 168.3142 349.4567 M 166.0181 355 L 166.0181 349 L 168.3142 343.4567 L 168.3142 337.4567 M 168.3142 343.4567 L 170.6103 337.9135 M 166.0181 349 L 166.0181 343 L 163.722 337.4567 M 166.0181 343 L 166.0181 337 L 168.3142 331.4567 M 166.0181 337 L 166.0181 331 L 163.722 325.4567 L 159.4794 321.2141 M 163.722 325.4567 L 161.4259 319.9135 L 161.4259 313.9135 M 161.4259 319.9135 L 159.1298 314.3702 L 154.8872 310.1275 L 149.3439 307.8314 M 154.8872 310.1275 L 150.6445 305.8849 L 148.3484 300.3416 M 150.6445 305.8849 L 146.4019 301.6422 M 159.1298 314.3702 L 156.8337 308.8269 L 152.5911 304.5843 M 156.8337 308.8269 L 154.5376 303.2836 M 166.0181 331 L 166.0181 325 L 163.722 319.4567 M 166.0181 325 L 166.0181 319 L 168.3142 313.4567 L 168.3142 307.4567 M 168.3142 313.4567 L 170.6103 307.9135 L 174.853 303.6708 M 170.6103 307.9135 L 172.9064 302.3702 M 166.0181 319 L 166.0181 313 L 163.722 307.4567 M 166.0181 313 L 166.0181 307 L 168.3142 301.4567 M 166.0181 307 L 166.0181 301 L 168.3142 295.4567 L 168.3142 289.4567 M 168.3142 295.4567 L 170.6103 289.9135 L 170.6103 283.9135 L 168.3142 278.3702 M 170.6103 283.9135 L 170.6103 277.9135 M 170.6103 289.9135 L 172.9064 284.3702 L 172.9064 278.3702 M 172.9064 284.3702 L 175.2025 278.8269 L 179.4451 274.5843 L 181.7412 269.041 M 179.4451 274.5843 L 183.6878 270.3416 L 189.231 268.0455 M 183.6878 270.3416 L 187.9304 266.099 L 190.2265 260.5557 L 190.2265 254.5557 M 190.2265 260.5557 L 192.5226 255.0124 M 187.9304 266.099 L 192.173 261.8563 L 197.7163 259.5602 M 192.173 261.8563 L 196.4156 257.6137 L 201.9589 255.3176 L 206.2016 251.0749 M 201.9589 255.3176 L 207.5022 253.0215 M 196.4156 257.6137 L 200.6583 253.371 L 206.2016 251.0749 M 200.6583 253.371 L 204.9009 249.1284 M 175.2025 278.8269 L 177.4986 273.2836 L 181.7412 269.041 M 177.4986 273.2836 L 179.7947 267.7404 L 184.0373 263.4977 L 186.3334 257.9544 M 184.0373 263.4977 L 188.28 259.2551 L 193.8233 256.959 M 188.28 259.2551 L 192.5226 255.0124 M 179.7947 267.7404 L 182.0908 262.1971 L 182.0908 256.1971 M 182.0908 262.1971 L 184.3869 256.6538 L 188.6295 252.4112 M 184.3869 256.6538 L 186.683 251.1105 M 166.0181 301 L 166.0181 295 L 163.722 289.4567 M 166.0181 295 L 166.0181 289 L 163.722 283.4567 L 163.722 277.4567 M 163.722 283.4567 L 161.4259 277.9135 M 166.0181 289 L 166.0181 283 L 163.722 277.4567 M 166.0181 283 L 166.0181 277 L 168.3142 271.4567 M 166.0181 277 L 166.0181 271 L 168.3142 265.4567 L 168.3142 259.4567 M 168.3142 265.4567 L 170.6103 259.9135 M 166.0181 271 L 166.0181 265 L 163.722 259.4567 M 166.0181 265 L 166.0181 259 L 168.3142 253.4567 M 166.0181 259 L 166.0181 253 L 163.722 247.4567 L 159.4794 243.2141 M 163.722 247.4567 L 161.4259 241.9135 L 157.1833 237.6708 L 151.64 235.3747 M 157.1833 237.6708 L 152.9406 233.4282 L 150.6445 227.8849 M 152.9406 233.4282 L 148.698 229.1855 M 161.4259 241.9135 L 159.1298 236.3702 L 159.1298 230.3702 M 159.1298 236.3702 L 156.8337 230.8269 M 166.0181 253 L 166.0181 247 L 163.722 241.4567 M 166.0181 247 L 166.0181 241 L 168.3142 235.4567 L 172.5569 231.2141 M 168.3142 235.4567 L 170.6103 229.9135 M 166.0181 241 L 166.0181 235 L 168.3142 229.4567 M 166.0181 235 L 166.0181 229 M 262.0181 481 L 262.0181 475 L 264.3142 469.4567 M 262.0181 475 L 262.0181 469 L 264.3142 463.4567 L 264.3142 457.4567 M 264.3142 463.4567 L 266.6103 457.9135 L 270.853 453.6708 M 266.6103 457.9135 L 268.9064 452.3701 M 262.0181 469 L 262.0181 463 L 259.722 457.4567 M 262.0181 463 L 262.0181 457 L 264.3142 451.4567 M 262.0181 457 L 262.0181 451 L 259.722 445.4567 L 255.4794 441.2141 M 259.722 445.4567 L 257.4259 439.9135 L 257.4259 433.9135 M 257.4259 439.9135 L 255.1298 434.3701 L 250.8872 430.1275 L 245.3439 427.8314 M 250.8872 430.1275 L 246.6445 425.8849 M 255.1298 434.3701 L 252.8337 428.8269 L 248.5911 424.5842 M 252.8337 428.8269 L 250.5376 423.2836 L 250.5376 417.2836 M 250.5376 423.2836 L 248.2415 417.7403 L 248.2415 411.7403 L 245.9454 406.197 M 248.2415 411.7403 L 248.2415 405.7403 L 250.5376 400.197 M 248.2415 405.7403 L 248.2415 399.7403 M 248.2415 417.7403 L 245.9454 412.197 L 241.7028 407.9544 M 245.9454 412.197 L 243.6494 406.6537 L 243.6494 400.6537 M 243.6494 406.6537 L 241.3532 401.1105 M 262.0181 451 L 262.0181 445 L 259.722 439.4567 M 262.0181 445 L 262.0181 439 L 259.722 433.4567 L 255.4794 429.2141 M 259.722 433.4567 L 257.4259 427.9135 M 262.0181 439 L 262.0181 433 L 259.722 427.4567 M 262.0181 433 L 262.0181 427 L 264.3142 421.4567 M 262.0181 427 L 262.0181 421 L 264.3142 415.4567 L 268.5569 411.2141 M 264.3142 415.4567 L 266.6103 409.9135 L 266.6103 403.9135 L 264.3142 398.3702 M 266.6103 403.9135 L 266.6103 397.9135 M 266.6103 409.9135 L 268.9064 404.3702 L 273.149 400.1276 M 268.9064 404.3702 L 271.2025 398.8269 M 262.0181 421 L 262.0181 415 L 264.3142 409.4567 M 262.0181 415 L 262.0181 409 L 264.3142 403.4567 L 264.3142 397.4567 M 264.3142 403.4567 L 266.6103 397.9135 M 262.0181 409 L 262.0181 403 L 259.722 397.4567 M 262.0181 403 L 262.0181 397 L 264.3142 391.4567 M 262.0181 397 L 262.0181 391 L 259.722 385.4567 L 259.722 379.4567 M 259.722 385.4567 L 257.4259 379.9135 L 253.1833 375.6708 L 247.64 373.3747 M 253.1833 375.6708 L 248.9406 371.4282 L 246.6445 365.8849 M 248.9406 371.4282 L 244.698 367.1855 M 257.4259 379.9135 L 255.1298 374.3702 L 250.8872 370.1276 M 255.1298 374.3702 L 252.8337 368.8269 L 252.8337 362.8269 L 250.5376 357.2837 M 252.8337 362.8269 L 252.8337 356.8269 L 255.1298 351.2836 M 252.8337 356.8269 L 252.8337 350.8269 M 252.8337 368.8269 L 250.5376 363.2837 L 246.295 359.041 M 250.5376 363.2837 L 248.2415 357.7404 L 248.2415 351.7404 L 250.5376 346.1971 M 248.2415 351.7404 L 248.2415 345.7404 L 250.5376 340.1971 L 254.7803 335.9545 M 250.5376 340.1971 L 252.8337 334.6538 M 248.2415 345.7404 L 248.2415 339.7404 L 245.9454 334.1971 M 248.2415 339.7404 L 248.2415 333.7404 L 250.5376 328.1971 M 248.2415 333.7404 L 248.2415 327.7404 M 248.2415 357.7404 L 245.9454 352.1971 L 241.7028 347.9545 M 245.9454 352.1971 L 243.6494 346.6538 L 243.6494 340.6538 M 243.6494 346.6538 L 241.3532 341.1105 L 237.1106 336.8679 L 231.5673 334.5718 M 237.1106 336.8679 L 232.868 332.6252 M 241.3532 341.1105 L 239.0572 335.5673 L 234.8145 331.3246 M 239.0572 335.5673 L 236.761 330.024 L 236.761 324.024 M 236.761 330.024 L 234.465 324.4807 L 234.465 318.4807 L 232.1689 312.9374 M 234.465 318.4807 L 234.465 312.4807 M 234.465 324.4807 L 232.1689 318.9374 L 227.9262 314.6948 M 232.1689 318.9374 L 229.8728 313.3942 L 229.8728 307.3942 M 229.8728 313.3942 L 227.5767 307.8509 M 262.0181 391 L 262.0181 385 L 259.722 379.4567 M 262.0181 385 L 262.0181 379 L 259.722 373.4567 L 259.722 367.4567 M 259.722 373.4567 L 257.4259 367.9135 M 262.0181 379 L 262.0181 373 L 259.722 367.4567 M 262.0181 373 L 262.0181 367 L 264.3142 361.4567 L 264.3142 355.4567 M 264.3142 361.4567 L 266.6103 355.9135 M 262.0181 367 L 262.0181 361 L 259.722 355.4567 M 262.0181 361 L 262.0181 355 L 259.722 349.4567 L 255.4794 345.2141 M 259.722 349.4567 L 257.4259 343.9135 L 257.4259 337.9135 L 255.1298 332.3702 M 257.4259 337.9135 L 257.4259 331.9135 L 259.722 326.3702 M 257.4259 331.9135 L 257.4259 325.9135 M 257.4259 343.9135 L 255.1298 338.3702 L 250.8872 334.1275 M 255.1298 338.3702 L 252.8337 332.8269 L 252.8337 326.8269 M 252.8337 332.8269 L 250.5376 327.2836 M 262.0181 355 L 262.0181 349 L 259.722 343.4567 M 262.0181 349 L 262.0181 343 L 264.3142 337.4567 M 262.0181 343 L 262.0181 337 L 259.722 331.4567 L 255.4794 327.2141 M 259.722 331.4567 L 257.4259 325.9135 M 262.0181 337 L 262.0181 331 L 264.3142 325.4567 M 262.0181 331 L 262.0181 325 L 259.722 319.4567 L 259.722 313.4567 M 259.722 319.4567 L 257.4259 313.9135 L 253.1833 309.6708 L 250.8872 304.1275 M 253.1833 309.6708 L 248.9406 305.4282 M 257.4259 313.9135 L 255.1298 308.3702 L 250.8872 304.1275 M 255.1298 308.3702 L 252.8337 302.8269 L 252.8337 296.8269 L 250.5376 291.2836 M 252.8337 296.8269 L 252.8337 290.8269 M 252.8337 302.8269 L 250.5376 297.2836 L 246.295 293.041 M 250.5376 297.2836 L 248.2415 291.7404 L 248.2415 285.7404 M 248.2415 291.7404 L 245.9454 286.1971 L 241.7028 281.9544 L 239.4067 276.4112 M 241.7028 281.9544 L 237.4601 277.7118 L 231.9169 275.4157 L 225.9169 275.4157 M 231.9169 275.4157 L 226.3736 273.1196 M 237.4601 277.7118 L 233.2175 273.4691 L 227.6742 271.173 M 233.2175 273.4691 L 228.9749 269.2265 M 245.9454 286.1971 L 243.6494 280.6538 L 243.6494 274.6538 M 243.6494 280.6538 L 241.3532 275.1105 L 237.1106 270.8679 L 231.5673 268.5718 M 237.1106 270.8679 L 232.868 266.6252 L 230.5719 261.082 M 232.868 266.6252 L 228.6253 262.3826 M 241.3532 275.1105 L 239.0572 269.5673 L 234.8145 265.3246 M 239.0572 269.5673 L 236.761 264.024 L 236.761 258.024 M 236.761 264.024 L 234.465 258.4807 L 234.465 252.4807 L 232.1689 246.9374 M 234.465 252.4807 L 234.465 246.4807 M 234.465 258.4807 L 232.1689 252.9374 L 227.9262 248.6948 M 232.1689 252.9374 L 229.8728 247.3942 L 229.8728 241.3942 M 229.8728 247.3942 L 227.5767 241.8509 L 227.5767 235.8509 L 229.8728 230.3076 M 227.5767 235.8509 L 227.5767 229.8509 L 229.8728 224.3076 L 229.8728 218.3076 M 229.8728 224.3076 L 232.1689 218.7643 L 236.4115 214.5217 M 232.1689 218.7643 L 234.465 213.2211 M 227.5767 229.8509 L 227.5767 223.8509 L 225.2806 218.3076 M 227.5767 223.8509 L 227.5767 217.8509 M 227.5767 241.8509 L 225.2806 236.3076 L 221.0379 232.065 M 225.2806 236.3076 L 222.9845 230.7643 L 222.9845 224.7643 M 222.9845 230.7643 L 220.6884 225.2211 L 216.4457 220.9784 L 214.1496 215.4352 M 216.4457 220.9784 L 212.2031 216.7358 M 220.6884 225.2211 L 218.3923 219.6778 L 214.1496 215.4352 M 218.3923 219.6778 L 216.0962 214.1345 L 216.0962 208.1345 L 213.8001 202.5912 M 216.0962 208.1345 L 216.0962 202.1345 M 216.0962 214.1345 L 213.8001 208.5912 L 213.8001 202.5912 M 213.8001 208.5912 L 211.504 203.048 L 207.2614 198.8053 L 201.7181 196.5092 M 207.2614 198.8053 L 203.0187 194.5627 L 197.4754 192.2666 L 191.4754 192.2666 M 197.4754 192.2666 L 191.9322 189.9705 L 187.6895 185.7278 M 191.9322 189.9705 L 186.3889 187.6743 M 203.0187 194.5627 L 198.7761 190.32 L 193.2328 188.0239 M 198.7761 190.32 L 194.5334 186.0774 L 192.2373 180.5341 M 194.5334 186.0774 L 190.2908 181.8347 L 187.9947 176.2915 L 183.752 172.0488 M 187.9947 176.2915 L 185.6986 170.7482 L 185.6986 164.7482 M 185.6986 170.7482 L 183.4025 165.2049 M 190.2908 181.8347 L 186.0481 177.5921 L 180.5049 175.296 M 186.0481 177.5921 L 181.8055 173.3495 L 176.2622 171.0533 L 172.0196 166.8107 M 176.2622 171.0533 L 170.7189 168.7572 L 166.4763 164.5146 L 160.933 162.2185 M 166.4763 164.5146 L 162.2337 160.2719 L 159.9376 154.7287 M 162.2337 160.2719 L 157.991 156.0293 M 170.7189 168.7572 L 165.1757 166.4611 L 159.1757 166.4611 M 165.1757 166.4611 L 159.6324 164.165 L 155.3898 159.9224 M 159.6324 164.165 L 154.0891 161.8689 M 181.8055 173.3495 L 177.5629 169.1068 L 172.0196 166.8107 M 177.5629 169.1068 L 173.3202 164.8642 L 171.0241 159.3209 L 166.7815 155.0782 M 171.0241 159.3209 L 168.728 153.7776 L 168.728 147.7776 M 168.728 153.7776 L 166.4319 148.2343 M 173.3202 164.8642 L 169.0776 160.6215 L 163.5343 158.3254 M 169.0776 160.6215 L 164.835 156.3789 M 211.504 203.048 L 209.2079 197.5047 L 204.9652 193.2621 M 209.2079 197.5047 L 206.9118 191.9614 L 206.9118 185.9614 L 209.2079 180.4182 M 206.9118 185.9614 L 206.9118 179.9614 M 206.9118 191.9614 L 204.6157 186.4182 L 200.373 182.1755 M 204.6157 186.4182 L 202.3196 180.8749 L 202.3196 174.8749 L 204.6157 169.3316 M 202.3196 174.8749 L 202.3196 168.8749 L 200.0235 163.3316 L 195.7809 159.089 M 200.0235 163.3316 L 197.7274 157.7883 L 197.7274 151.7883 M 197.7274 157.7883 L 195.4313 152.2451 M 202.3196 168.8749 L 202.3196 162.8749 L 200.0235 157.3316 M 202.3196 162.8749 L 202.3196 156.8749 M 202.3196 180.8749 L 200.0235 175.3316 L 195.7809 171.089 M 200.0235 175.3316 L 197.7274 169.7883 L 197.7274 163.7883 M 197.7274 169.7883 L 195.4313 164.2451 L 191.1887 160.0024 L 185.6454 157.7063 M 191.1887 160.0024 L 186.946 155.7598 L 184.65 150.2165 M 186.946 155.7598 L 182.7034 151.5171 M 195.4313 164.2451 L 193.1352 158.7018 L 188.8926 154.4591 M 193.1352 158.7018 L 190.8391 153.1585 L 190.8391 147.1585 M 190.8391 153.1585 L 188.543 147.6152 L 188.543 141.6152 L 190.8391 136.072 M 188.543 141.6152 L 188.543 135.6152 L 190.8391 130.072 L 195.0818 125.8293 M 190.8391 130.072 L 193.1352 124.5287 M 188.543 135.6152 L 188.543 129.6152 L 186.2469 124.072 M 188.543 129.6152 L 188.543 123.6152 L 190.8391 118.072 M 188.543 123.6152 L 188.543 117.6152 L 190.8391 112.072 L 190.8391 106.072 M 190.8391 112.072 L 193.1352 106.5287 L 197.3779 102.286 M 193.1352 106.5287 L 195.4313 100.9854 L 199.674 96.74277 L 201.9701 91.19949 M 199.674 96.74277 L 203.9166 92.50012 M 195.4313 100.9854 L 197.7274 95.44214 L 197.7274 89.44214 M 197.7274 95.44214 L 200.0235 89.89886 L 204.2662 85.65622 M 200.0235 89.89886 L 202.3196 84.35559 M 188.543 117.6152 L 188.543 111.6152 L 190.8391 106.072 M 188.543 111.6152 L 188.543 105.6152 L 190.8391 100.072 L 190.8391 94.07196 M 190.8391 100.072 L 193.1352 94.52869 M 188.543 105.6152 L 188.543 99.61523 L 190.8391 94.07196 M 188.543 99.61523 L 188.543 93.61523 M 188.543 147.6152 L 186.2469 142.072 L 186.2469 136.072 M 186.2469 142.072 L 183.9508 136.5287 L 179.7082 132.286 L 174.1649 129.9899 M 179.7082 132.286 L 175.4655 128.0434 L 173.1695 122.5001 M 175.4655 128.0434 L 171.2229 123.8008 M 183.9508 136.5287 L 181.6547 130.9854 L 181.6547 124.9854 M 181.6547 130.9854 L 179.3586 125.4421 L 179.3586 119.4421 L 177.0625 113.8989 M 179.3586 119.4421 L 179.3586 113.4421 L 181.6548 107.8989 M 179.3586 113.4421 L 179.3586 107.4421 M 179.3586 125.4421 L 177.0625 119.8989 L 177.0625 113.8989 M 177.0625 119.8989 L 174.7664 114.3556 L 174.7664 108.3556 L 172.4703 102.8123 M 174.7664 108.3556 L 174.7664 102.3556 L 177.0625 96.81232 M 174.7664 102.3556 L 174.7664 96.35559 L 172.4703 90.81232 L 172.4703 84.81232 M 172.4703 90.81232 L 170.1742 85.26904 M 174.7664 96.35559 L 174.7664 90.35559 L 172.4703 84.81232 M 174.7664 90.35559 L 174.7664 84.35559 L 177.0625 78.81232 M 174.7664 84.35559 L 174.7664 78.35559 L 177.0625 72.81232 L 177.0625 66.81232 M 177.0625 72.81232 L 179.3586 67.26904 L 183.6013 63.0264 M 179.3586 67.26904 L 181.6548 61.72577 M 174.7664 78.35559 L 174.7664 72.35559 L 177.0625 66.81232 M 174.7664 72.35559 L 174.7664 66.35559 M 174.7664 114.3556 L 172.4703 108.8123 L 168.2277 104.5697 M 172.4703 108.8123 L 170.1742 103.269 L 170.1742 97.26904 M 170.1742 103.269 L 167.8781 97.72577 L 163.6355 93.48312 L 158.0922 91.18701 M 163.6355 93.48312 L 159.3929 89.24048 L 157.0968 83.6972 M 159.3929 89.24048 L 155.1503 84.99783 M 167.8781 97.72577 L 165.582 92.1825 L 161.3394 87.93985 M 165.582 92.1825 L 163.2859 86.63922 L 163.2859 80.63922 M 163.2859 86.63922 L 160.9899 81.09595 M 262.0181 325 L 262.0181 319 L 259.722 313.4567 M 262.0181 319 L 262.0181 313 L 264.3142 307.4567 L 264.3142 301.4567 M 264.3142 307.4567 L 266.6103 301.9135 L 270.853 297.6708 M 266.6103 301.9135 L 268.9064 296.3702 M 262.0181 313 L 262.0181 307 L 259.722 301.4567 M 262.0181 307 L 262.0181 301 L 264.3142 295.4567 L 268.5569 291.2141 M 264.3142 295.4567 L 266.6103 289.9135 L 270.853 285.6708 L 273.149 280.1275 M 270.853 285.6708 L 275.0956 281.4282 M 266.6103 289.9135 L 268.9064 284.3702 L 268.9064 278.3702 M 268.9064 284.3702 L 271.2025 278.8269 L 275.4452 274.5843 M 271.2025 278.8269 L 273.4986 273.2836 M 262.0181 301 L 262.0181 295 L 259.722 289.4567 M 262.0181 295 L 262.0181 289 L 259.722 283.4567 L 255.4794 279.2141 M 259.722 283.4567 L 257.4259 277.9135 L 257.4259 271.9135 M 257.4259 277.9135 L 255.1298 272.3702 M 262.0181 289 L 262.0181 283 L 259.722 277.4567 M 262.0181 283 L 262.0181 277 L 264.3142 271.4567 L 268.5569 267.2141 M 264.3142 271.4567 L 266.6103 265.9135 L 266.6103 259.9135 L 264.3142 254.3702 M 266.6103 259.9135 L 266.6103 253.9135 L 268.9064 248.3702 M 266.6103 253.9135 L 266.6103 247.9135 M 266.6103 265.9135 L 268.9064 260.3702 L 268.9064 254.3702 M 268.9064 260.3702 L 271.2025 254.8269 L 275.4452 250.5843 M 271.2025 254.8269 L 273.4986 249.2836 L 273.4986 243.2836 L 271.2025 237.7404 M 273.4986 243.2836 L 273.4986 237.2836 L 275.7947 231.7404 M 273.4986 237.2836 L 273.4986 231.2836 L 271.2025 225.7404 L 271.2025 219.7404 M 271.2025 225.7404 L 268.9064 220.1971 M 273.4986 231.2836 L 273.4986 225.2836 L 275.7947 219.7404 M 273.4986 225.2836 L 273.4986 219.2836 L 275.7947 213.7404 L 280.0374 209.4977 M 275.7947 213.7404 L 278.0908 208.1971 M 273.4986 219.2836 L 273.4986 213.2836 L 275.7947 207.7404 M 273.4986 213.2836 L 273.4986 207.2836 M 273.4986 249.2836 L 275.7947 243.7404 L 275.7947 237.7404 M 275.7947 243.7404 L 278.0908 238.1971 L 282.3334 233.9544 M 278.0908 238.1971 L 280.3869 232.6538 L 284.6295 228.4112 L 290.1728 226.1151 M 284.6295 228.4112 L 288.8722 224.1685 M 280.3869 232.6538 L 282.683 227.1105 L 286.9256 222.8679 M 282.683 227.1105 L 284.9791 221.5673 L 289.2217 217.3246 L 291.5178 211.7813 M 289.2217 217.3246 L 293.4644 213.082 L 295.7605 207.5387 L 295.7605 201.5387 M 295.7605 207.5387 L 298.0566 201.9954 M 293.4644 213.082 L 297.707 208.8393 L 303.2503 206.5432 M 297.707 208.8393 L 301.9497 204.5967 L 307.493 202.3006 L 313.493 202.3006 M 307.493 202.3006 L 313.0362 200.0045 M 301.9497 204.5967 L 306.1923 200.354 L 308.4884 194.8108 M 306.1923 200.354 L 310.435 196.1114 M 284.9791 221.5673 L 287.2752 216.024 L 291.5178 211.7813 M 287.2752 216.024 L 289.5713 210.4807 L 289.5713 204.4807 L 287.2752 198.9374 M 289.5713 204.4807 L 289.5713 198.4807 M 289.5713 210.4807 L 291.8674 204.9374 L 291.8674 198.9374 M 291.8674 204.9374 L 294.1635 199.3942 L 298.4061 195.1515 M 294.1635 199.3942 L 296.4596 193.8509 M 262.0181 277 L 262.0181 271 L 264.3142 265.4567 M 262.0181 271 L 262.0181 265 L 259.722 259.4567 L 255.4794 255.2141 M 259.722 259.4567 L 257.4259 253.9135 M 262.0181 265 L 262.0181 259 L 259.722 253.4567 M 262.0181 259 L 262.0181 253 L 264.3142 247.4567 L 264.3142 241.4567 M 264.3142 247.4567 L 266.6103 241.9135 L 270.853 237.6708 M 266.6103 241.9135 L 268.9064 236.3702 M 262.0181 253 L 262.0181 247 L 264.3142 241.4567 M 262.0181 247 L 262.0181 241 L 259.722 235.4567 L 255.4794 231.2141 M 259.722 235.4567 L 257.4259 229.9135 L 253.1833 225.6708 L 247.64 223.3747 M 253.1833 225.6708 L 248.9406 221.4282 M 257.4259 229.9135 L 255.1298 224.3702 L 250.8872 220.1275 M 255.1298 224.3702 L 252.8337 218.8269 L 252.8337 212.8269 M 252.8337 218.8269 L 250.5376 213.2836 L 250.5376 207.2836 L 252.8337 201.7404 M 250.5376 207.2836 L 250.5376 201.2836 M 250.5376 213.2836 L 248.2415 207.7404 L 243.9989 203.4977 M 248.2415 207.7404 L 245.9454 202.1971 M 262.0181 241 L 262.0181 235 L 259.722 229.4567 M 262.0181 235 L 262.0181 229 L 259.722 223.4567 L 259.722 217.4567 M 259.722 223.4567 L 257.4259 217.9135 M 262.0181 229 L 262.0181 223 L 264.3142 217.4567 M 262.0181 223 L 262.0181 217 M 358.0181 481 L 358.0181 475 L 355.722 469.4567 M 358.0181 475 L 358.0181 469 L 360.3142 463.4567 L 360.3142 457.4567 M 360.3142 463.4567 L 362.6104 457.9135 M 358.0181 469 L 358.0181 463 L 355.722 457.4567 M 358.0181 463 L 358.0181 457 L 360.3142 451.4567 M 358.0181 457 L 358.0181 451 L 355.722 445.4567 L 351.4794 441.2141 M 355.722 445.4567 L 353.4259 439.9135 L 353.4259 433.9135 L 355.722 428.3701 M 353.4259 433.9135 L 353.4259 427.9135 M 353.4259 439.9135 L 351.1298 434.3701 L 351.1298 428.3701 M 351.1298 434.3701 L 348.8337 428.8269 M 358.0181 451 L 358.0181 445 L 355.722 439.4567 M 358.0181 445 L 358.0181 439 L 360.3142 433.4567 M 358.0181 439 L 358.0181 433 L 355.722 427.4567 L 355.722 421.4567 M 355.722 427.4567 L 353.4259 421.9135 M 358.0181 433 L 358.0181 427 L 355.722 421.4567 M 358.0181 427 L 358.0181 421 L 360.3142 415.4567 L 360.3142 409.4567 M 360.3142 415.4567 L 362.6104 409.9135 L 366.853 405.6708 M 362.6104 409.9135 L 364.9065 404.3702 M 358.0181 421 L 358.0181 415 L 355.722 409.4567 M 358.0181 415 L 358.0181 409 L 355.722 403.4567 L 351.4794 399.2141 M 355.722 403.4567 L 353.4259 397.9135 L 353.4259 391.9135 M 353.4259 397.9135 L 351.1298 392.3702 L 351.1298 386.3702 L 348.8337 380.8269 M 351.1298 386.3702 L 351.1298 380.3702 L 353.4259 374.8269 M 351.1298 380.3702 L 351.1298 374.3702 M 351.1298 392.3702 L 348.8337 386.8269 L 344.591 382.5843 M 348.8337 386.8269 L 346.5376 381.2837 L 346.5376 375.2837 L 348.8337 369.7404 M 346.5376 375.2837 L 346.5376 369.2837 L 348.8337 363.7404 L 348.8337 357.7404 M 348.8337 363.7404 L 351.1298 358.1971 L 355.3724 353.9545 M 351.1298 358.1971 L 353.4259 352.6538 M 346.5376 369.2837 L 346.5376 363.2837 L 344.2415 357.7404 M 346.5376 363.2837 L 346.5376 357.2837 M 346.5376 381.2837 L 344.2415 375.7404 L 339.9988 371.4977 M 344.2415 375.7404 L 341.9453 370.1971 L 341.9453 364.1971 M 341.9453 370.1971 L 339.6492 364.6538 L 339.6492 358.6538 L 337.3531 353.1106 M 339.6492 358.6538 L 339.6492 352.6538 M 339.6492 364.6538 L 337.3531 359.1106 L 337.3531 353.1106 M 337.3531 359.1106 L 335.057 353.5673 M 358.0181 409 L 358.0181 403 L 355.722 397.4567 M 358.0181 403 L 358.0181 397 L 360.3142 391.4567 M 358.0181 397 L 358.0181 391 L 355.722 385.4567 L 351.4794 381.2141 M 355.722 385.4567 L 353.4259 379.9135 L 353.4259 373.9135 M 353.4259 379.9135 L 351.1298 374.3702 M 358.0181 391 L 358.0181 385 L 360.3142 379.4567 M 358.0181 385 L 358.0181 379 L 355.722 373.4567 L 351.4794 369.2141 M 355.722 373.4567 L 353.4259 367.9135 L 349.1833 363.6708 L 343.64 361.3747 M 349.1833 363.6708 L 344.9406 359.4282 L 342.6445 353.8849 M 344.9406 359.4282 L 340.698 355.1855 M 353.4259 367.9135 L 351.1298 362.3702 L 346.8871 358.1276 M 351.1298 362.3702 L 348.8337 356.8269 L 348.8337 350.8269 M 348.8337 356.8269 L 346.5376 351.2836 L 346.5376 345.2836 L 344.2415 339.7404 M 346.5376 345.2836 L 346.5376 339.2836 M 346.5376 351.2836 L 344.2415 345.7404 L 339.9988 341.4977 M 344.2415 345.7404 L 341.9453 340.1971 M 358.0181 379 L 358.0181 373 L 360.3142 367.4567 M 358.0181 373 L 358.0181 367 L 355.722 361.4567 L 351.4794 357.2141 M 355.722 361.4567 L 353.4259 355.9135 L 353.4259 349.9135 M 353.4259 355.9135 L 351.1298 350.3702 M 358.0181 367 L 358.0181 361 L 355.722 355.4567 M 358.0181 361 L 358.0181 355 L 360.3142 349.4567 M 358.0181 355 L 358.0181 349 L 360.3142 343.4567 L 360.3142 337.4567 M 360.3142 343.4567 L 362.6104 337.9135 M 358.0181 349 L 358.0181 343 L 355.722 337.4567 M 358.0181 343 L 358.0181 337 L 360.3142 331.4567 M 358.0181 337 L 358.0181 331 L 360.3142 325.4567 L 364.5569 321.2141 M 360.3142 325.4567 L 362.6104 319.9135 L 362.6104 313.9135 L 364.9065 308.3702 M 362.6104 313.9135 L 362.6104 307.9135 M 362.6104 319.9135 L 364.9065 314.3702 L 364.9065 308.3702 M 364.9065 314.3702 L 367.2026 308.8269 L 371.4452 304.5843 M 367.2026 308.8269 L 369.4987 303.2836 L 373.7413 299.041 L 376.0374 293.4977 M 373.7413 299.041 L 377.984 294.7983 M 369.4987 303.2836 L 371.7948 297.7404 L 371.7948 291.7404 M 371.7948 297.7404 L 374.0909 292.1971 M 358.0181 331 L 358.0181 325 L 360.3142 319.4567 M 358.0181 325 L 358.0181 319 L 355.722 313.4567 L 351.4794 309.2141 M 355.722 313.4567 L 353.4259 307.9135 L 353.4259 301.9135 M 353.4259 307.9135 L 351.1298 302.3702 M 358.0181 319 L 358.0181 313 L 355.722 307.4567 M 358.0181 313 L 358.0181 307 L 360.3142 301.4567 M 358.0181 307 L 358.0181 301 L 360.3142 295.4567 L 360.3142 289.4567 M 360.3142 295.4567 L 362.6104 289.9135 L 366.853 285.6708 M 362.6104 289.9135 L 364.9065 284.3702 M 358.0181 301 L 358.0181 295 L 355.722 289.4567 M 358.0181 295 L 358.0181 289 L 360.3142 283.4567 L 360.3142 277.4567 M 360.3142 283.4567 L 362.6104 277.9135 L 362.6104 271.9135 L 364.9065 266.3702 M 362.6104 271.9135 L 362.6104 265.9135 M 362.6104 277.9135 L 364.9065 272.3702 L 369.1491 268.1275 M 364.9065 272.3702 L 367.2026 266.8269 L 371.4452 262.5843 L 373.7413 257.041 M 371.4452 262.5843 L 375.6879 258.3416 M 367.2026 266.8269 L 369.4987 261.2836 L 369.4987 255.2836 M 369.4987 261.2836 L 371.7948 255.7404 L 376.0374 251.4977 M 371.7948 255.7404 L 374.0909 250.1971 L 378.3336 245.9544 L 380.6297 240.4112 M 378.3336 245.9544 L 382.5762 241.7118 L 388.1195 239.4157 L 394.1195 239.4157 M 388.1195 239.4157 L 393.6628 237.1196 M 382.5762 241.7118 L 386.8188 237.4691 L 389.115 231.9259 M 386.8188 237.4691 L 391.0615 233.2265 L 396.6048 230.9304 M 391.0615 233.2265 L 395.3041 228.9839 M 374.0909 250.1971 L 376.387 244.6538 L 376.387 238.6538 M 376.387 244.6538 L 378.6831 239.1105 L 378.6831 233.1105 L 376.387 227.5673 M 378.6831 233.1105 L 378.6831 227.1105 L 380.9792 221.5673 M 378.6831 227.1105 L 378.6831 221.1105 M 378.6831 239.1105 L 380.9792 233.5673 L 385.2219 229.3246 M 380.9792 233.5673 L 383.2754 228.024 L 387.518 223.7813 L 389.8141 218.2381 M 387.518 223.7813 L 391.7607 219.5387 M 383.2754 228.024 L 385.5715 222.4807 L 385.5715 216.4807 M 385.5715 222.4807 L 387.8676 216.9374 L 392.1102 212.6948 M 387.8676 216.9374 L 390.1637 211.3942 M 358.0181 289 L 358.0181 283 L 360.3142 277.4567 M 358.0181 283 L 358.0181 277 L 360.3142 271.4567 L 364.5569 267.2141 M 360.3142 271.4567 L 362.6104 265.9135 M 358.0181 277 L 358.0181 271 L 355.722 265.4567 M 358.0181 271 L 358.0181 265 L 355.722 259.4567 L 351.4794 255.2141 M 355.722 259.4567 L 353.4259 253.9135 L 349.1833 249.6708 L 343.64 247.3747 M 349.1833 249.6708 L 344.9406 245.4282 L 342.6445 239.8849 M 344.9406 245.4282 L 340.698 241.1855 M 353.4259 253.9135 L 351.1298 248.3702 L 351.1298 242.3702 M 351.1298 248.3702 L 348.8337 242.8269 M 358.0181 265 L 358.0181 259 L 360.3142 253.4567 M 358.0181 259 L 358.0181 253 L 355.722 247.4567 L 351.4794 243.2141 M 355.722 247.4567 L 353.4259 241.9135 L 353.4259 235.9135 M 353.4259 241.9135 L 351.1298 236.3702 M 358.0181 253 L 358.0181 247 L 360.3142 241.4567 M 358.0181 247 L 358.0181 241 L 355.722 235.4567 L 355.722 229.4567 M 355.722 235.4567 L 353.4259 229.9135 L 349.1833 225.6708 L 346.8871 220.1275 M 349.1833 225.6708 L 344.9406 221.4282 M 353.4259 229.9135 L 351.1298 224.3702 L 346.8871 220.1275 M 351.1298 224.3702 L 348.8337 218.8269 L 348.8337 212.8269 M 348.8337 218.8269 L 346.5376 213.2836 L 346.5376 207.2836 L 344.2415 201.7404 M 346.5376 207.2836 L 346.5376 201.2836 M 346.5376 213.2836 L 344.2415 207.7404 L 344.2415 201.7404 M 344.2415 207.7404 L 341.9453 202.1971 L 337.7027 197.9544 L 335.4066 192.4112 M 337.7027 197.9544 L 333.4601 193.7118 L 331.1639 188.1685 L 326.9213 183.9259 M 331.1639 188.1685 L 328.8678 182.6252 L 328.8678 176.6252 M 328.8678 182.6252 L 326.5717 177.082 M 333.4601 193.7118 L 329.2174 189.4691 L 323.6741 187.173 M 329.2174 189.4691 L 324.9748 185.2265 M 341.9453 202.1971 L 339.6492 196.6538 L 335.4066 192.4112 M 339.6492 196.6538 L 337.3531 191.1105 L 337.3531 185.1105 M 337.3531 191.1105 L 335.057 185.5673 L 330.8144 181.3246 L 328.5182 175.7813 M 330.8144 181.3246 L 326.5717 177.082 M 335.057 185.5673 L 332.7609 180.024 L 328.5182 175.7813 M 332.7609 180.024 L 330.4648 174.4807 L 330.4648 168.4807 M 330.4648 174.4807 L 328.1687 168.9374 L 323.926 164.6948 L 321.6299 159.1515 M 323.926 164.6948 L 319.6834 160.4521 L 317.3873 154.9089 L 313.1446 150.6662 M 317.3873 154.9089 L 315.0912 149.3656 M 319.6834 160.4521 L 315.4407 156.2095 L 309.8975 153.9134 M 315.4407 156.2095 L 311.1981 151.9669 L 305.6548 149.6707 L 299.6548 149.6707 M 305.6548 149.6707 L 300.1115 147.3746 L 295.8689 143.132 M 300.1115 147.3746 L 294.5683 145.0785 L 290.3256 140.8359 L 288.0295 135.2926 M 290.3256 140.8359 L 286.083 136.5932 M 294.5683 145.0785 L 289.025 142.7824 L 283.025 142.7824 M 289.025 142.7824 L 283.4817 140.4863 M 311.1981 151.9669 L 306.9554 147.7242 L 304.6593 142.1809 M 306.9554 147.7242 L 302.7128 143.4816 L 297.1695 141.1855 L 292.9269 136.9428 M 297.1695 141.1855 L 291.6263 138.8893 M 302.7128 143.4816 L 298.4702 139.2389 L 296.174 133.6956 M 298.4702 139.2389 L 294.2275 134.9963 L 291.9314 129.453 L 291.9314 123.453 M 291.9314 129.453 L 289.6353 123.9097 M 294.2275 134.9963 L 289.9849 130.7536 L 284.4416 128.4575 M 289.9849 130.7536 L 285.7422 126.511 M 328.1687 168.9374 L 325.8726 163.3942 L 321.6299 159.1515 M 325.8726 163.3942 L 323.5765 157.8509 L 319.3338 153.6082 L 313.7906 151.3121 M 319.3338 153.6082 L 315.0912 149.3656 M 323.5765 157.8509 L 321.2804 152.3076 L 317.0377 148.065 M 321.2804 152.3076 L 318.9843 146.7643 L 318.9843 140.7643 L 316.6882 135.2211 M 318.9843 140.7643 L 318.9843 134.7643 L 321.2804 129.2211 M 318.9843 134.7643 L 318.9843 128.7643 M 318.9843 146.7643 L 316.6882 141.2211 L 316.6882 135.2211 M 316.6882 141.2211 L 314.3921 135.6778 L 310.1494 131.4352 L 307.8533 125.8919 M 310.1494 131.4352 L 305.9068 127.1925 L 300.3635 124.8964 L 294.3635 124.8964 M 300.3635 124.8964 L 294.8203 122.6003 L 290.5776 118.3576 M 294.8203 122.6003 L 289.277 120.3042 M 305.9068 127.1925 L 301.6642 122.9499 L 296.1209 120.6537 M 301.6642 122.9499 L 297.4215 118.7072 L 295.1254 113.1639 M 297.4215 118.7072 L 293.1789 114.4646 L 290.8828 108.9213 L 286.6401 104.6786 M 290.8828 108.9213 L 288.5867 103.378 M 293.1789 114.4646 L 288.9362 110.2219 L 283.3929 107.9258 M 288.9362 110.2219 L 284.6936 105.9793 L 282.3975 100.436 M 284.6936 105.9793 L 280.4509 101.7366 M 314.3921 135.6778 L 312.096 130.1345 L 307.8533 125.8919 M 312.096 130.1345 L 309.7999 124.5912 L 309.7999 118.5912 M 309.7999 124.5912 L 307.5038 119.048 L 303.2611 114.8053 L 297.7179 112.5092 M 303.2611 114.8053 L 299.0185 110.5627 M 307.5038 119.048 L 305.2077 113.5047 L 300.9651 109.2621 M 305.2077 113.5047 L 302.9116 107.9614 L 302.9116 101.9614 M 302.9116 107.9614 L 300.6155 102.4182 L 300.6155 96.41815 L 302.9116 90.87488 M 300.6155 96.41815 L 300.6155 90.41815 L 298.3194 84.87488 L 294.0768 80.63223 M 298.3194 84.87488 L 296.0233 79.3316 L 296.0233 73.3316 M 296.0233 79.3316 L 293.7272 73.78833 M 300.6155 90.41815 L 300.6155 84.41815 L 298.3194 78.87488 M 300.6155 84.41815 L 300.6155 78.41815 L 302.9116 72.87488 L 307.1542 68.63223 M 302.9116 72.87488 L 305.2077 67.3316 M 300.6155 78.41815 L 300.6155 72.41815 L 298.3194 66.87488 M 300.6155 72.41815 L 300.6155 66.41815 L 302.9116 60.87488 M 300.6155 66.41815 L 300.6155 60.41815 M 300.6155 102.4182 L 298.3194 96.87488 L 298.3194 90.87488 M 298.3194 96.87488 L 296.0233 91.3316 L 296.0233 85.3316 L 293.7272 79.78833 M 296.0233 85.3316 L 296.0233 79.3316 L 298.3194 73.78833 M 296.0233 79.3316 L 296.0233 73.3316 M 296.0233 91.3316 L 293.7272 85.78833 L 293.7272 79.78833 M 293.7272 85.78833 L 291.4311 80.24506 M 358.0181 241 L 358.0181 235 L 355.722 229.4567 M 358.0181 235 L 358.0181 229 L 360.3142 223.4567 M 358.0181 229 L 358.0181 223 L 360.3142 217.4567 L 360.3142 211.4567 M 360.3142 217.4567 L 362.6104 211.9135 M 358.0181 223 L 358.0181 217 L 355.722 211.4567 M 358.0181 217 L 358.0181 211 L 355.722 205.4567 L 351.4794 201.2141 M 355.722 205.4567 L 353.4259 199.9135 L 353.4259 193.9135 M 353.4259 199.9135 L 351.1298 194.3702 L 346.8871 190.1275 L 341.3439 187.8314 M 346.8871 190.1275 L 342.6445 185.8849 L 340.3484 180.3416 M 342.6445 185.8849 L 338.4019 181.6422 M 351.1298 194.3702 L 348.8337 188.8269 L 344.591 184.5843 M 348.8337 188.8269 L 346.5376 183.2836 L 346.5376 177.2836 M 346.5376 183.2836 L 344.2415 177.7404 L 344.2415 171.7404 L 346.5376 166.1971 M 344.2415 171.7404 L 344.2415 165.7404 M 344.2415 177.7404 L 341.9453 172.1971 L 337.7027 167.9544 M 341.9453 172.1971 L 339.6492 166.6538 M 358.0181 211 L 358.0181 205 L 360.3142 199.4567 M 358.0181 205 L 358.0181 199 L 355.722 193.4567 L 351.4794 189.2141 M 355.722 193.4567 L 353.4259 187.9135 L 353.4259 181.9135 M 353.4259 187.9135 L 351.1298 182.3702 M 358.0181 199 L 358.0181 193 L 355.722 187.4567 M 358.0181 193 L 358.0181 187 L 360.3142 181.4567 L 360.3142 175.4567 M 360.3142 181.4567 L 362.6104 175.9135 L 366.853 171.6708 M 362.6104 175.9135 L 364.9065 170.3702 M 358.0181 187 L 358.0181 181 L 355.722 175.4567 M 358.0181 181 L 358.0181 175 L 360.3142 169.4567 L 360.3142 163.4567 M 360.3142 169.4567 L 362.6104 163.9135 L 362.6104 157.9135 L 364.9065 152.3702 M 362.6104 157.9135 L 362.6104 151.9135 M 362.6104 163.9135 L 364.9065 158.3702 L 369.1491 154.1275 M 364.9065 158.3702 L 367.2026 152.8269 L 371.4452 148.5843 L 373.7413 143.041 M 371.4452 148.5843 L 375.6879 144.3416 M 367.2026 152.8269 L 369.4987 147.2836 L 369.4987 141.2836 M 369.4987 147.2836 L 371.7948 141.7404 L 376.0374 137.4977 M 371.7948 141.7404 L 374.0909 136.1971 M 358.0181 175 L 358.0181 169 L 355.722 163.4567 M 358.0181 169 L 358.0181 163 L 360.3142 157.4567 M 358.0181 163 L 358.0181 157 L 360.3142 151.4567 L 360.3142 145.4567 M 360.3142 151.4567 L 362.6104 145.9135 L 366.853 141.6708 M 362.6104 145.9135 L 364.9065 140.3702 M 358.0181 157 L 358.0181 151 L 355.722 145.4567 M 358.0181 151 L 358.0181 145 L 360.3142 139.4567 M 358.0181 145 L 358.0181 139 L 355.722 133.4567 L 351.4794 129.2141 M 355.722 133.4567 L 353.4259 127.9135 L 349.1833 123.6708 L 346.8871 118.1275 M 349.1833 123.6708 L 344.9406 119.4282 M 353.4259 127.9135 L 351.1298 122.3702 L 346.8871 118.1275 M 351.1298 122.3702 L 348.8337 116.8269 L 348.8337 110.8269 L 351.1298 105.2836 M 348.8337 110.8269 L 348.8337 104.8269 M 348.8337 116.8269 L 346.5376 111.2836 L 342.2949 107.041 M 346.5376 111.2836 L 344.2415 105.7404 L 339.9988 101.4977 L 334.4555 99.2016 M 339.9988 101.4977 L 335.7562 97.25507 L 333.4601 91.71179 L 329.2174 87.46915 M 333.4601 91.71179 L 331.1639 86.16852 M 335.7562 97.25507 L 331.5135 93.01242 L 325.9702 90.71631 M 331.5135 93.01242 L 327.2709 88.76978 L 324.9748 83.2265 M 327.2709 88.76978 L 323.0282 84.52713 M 344.2415 105.7404 L 341.9453 100.1971 L 337.7027 95.95444 M 341.9453 100.1971 L 339.6492 94.65381 L 339.6492 88.65381 M 339.6492 94.65381 L 337.3531 89.11053 L 337.3531 83.11053 L 339.6492 77.56726 M 337.3531 83.11053 L 337.3531 77.11053 M 337.3531 89.11053 L 335.057 83.56726 L 335.057 77.56726 M 335.057 83.56726 L 332.7609 78.02399 M 358.0181 139 L 358.0181 133 L 360.3142 127.4567 M 358.0181 133 L 358.0181 127 L 355.722 121.4567 L 351.4794 117.2141 M 355.722 121.4567 L 353.4259 115.9135 M 358.0181 127 L 358.0181 121 L 355.722 115.4567 M 358.0181 121 L 358.0181 115 L 360.3142 109.4567 L 364.5569 105.2141 M 360.3142 109.4567 L 362.6104 103.9135 L 366.853 99.67081 L 369.1491 94.12753 M 366.853 99.67081 L 371.0956 95.42816 L 376.6389 93.13205 M 371.0956 95.42816 L 375.3383 91.18552 M 362.6104 103.9135 L 364.9065 98.37018 L 364.9065 92.37018 M 364.9065 98.37018 L 367.2026 92.8269 L 371.4452 88.58426 M 367.2026 92.8269 L 369.4987 87.28363 M 358.0181 115 L 358.0181 109 L 355.722 103.4567 M 358.0181 109 L 358.0181 103 L 355.722 97.45673 L 355.722 91.45673 M 355.722 97.45673 L 353.4259 91.91345 M 358.0181 103 L 358.0181 97 L 355.722 91.45673 M 358.0181 97 L 358.0181 91 L 360.3142 85.45673 L 360.3142 79.45673 M 360.3142 85.45673 L 362.6104 79.91345 M 358.0181 91 L 358.0181 85 L 355.722 79.45673 M 358.0181 85 L 358.0181 79 M 454.0181 481 L 454.0181 475 L 451.722 469.4567 M 454.0181 475 L 454.0181 469 L 456.3142 463.4567 M 454.0181 469 L 454.0181 463 L 456.3142 457.4567 L 460.5569 453.2141 M 456.3142 457.4567 L 458.6104 451.9135 M 454.0181 463 L 454.0181 457 L 451.722 451.4567 M 454.0181 457 L 454.0181 451 L 451.722 445.4567 L 451.722 439.4567 M 451.722 445.4567 L 449.4259 439.9135 L 445.1833 435.6708 L 439.64 433.3747 M 445.1833 435.6708 L 440.9406 431.4282 L 438.6445 425.8849 M 440.9406 431.4282 L 436.698 427.1855 M 449.4259 439.9135 L 447.1298 434.3701 L 442.8871 430.1275 M 447.1298 434.3701 L 444.8337 428.8269 M 454.0181 451 L 454.0181 445 L 451.722 439.4567 M 454.0181 445 L 454.0181 439 L 456.3142 433.4567 L 456.3142 427.4567 M 456.3142 433.4567 L 458.6104 427.9135 L 462.853 423.6708 M 458.6104 427.9135 L 460.9065 422.3701 M 454.0181 439 L 454.0181 433 L 456.3142 427.4567 M 454.0181 433 L 454.0181 427 L 456.3142 421.4567 L 460.5569 417.2141 M 456.3142 421.4567 L 458.6104 415.9135 L 458.6104 409.9135 L 460.9065 404.3702 M 458.6104 409.9135 L 458.6104 403.9135 M 458.6104 415.9135 L 460.9065 410.3702 L 465.1491 406.1275 M 460.9065 410.3702 L 463.2026 404.8269 L 467.4452 400.5843 L 472.9885 398.2881 M 467.4452 400.5843 L 471.6879 396.3416 M 463.2026 404.8269 L 465.4987 399.2836 L 469.7413 395.041 M 465.4987 399.2836 L 467.7948 393.7404 M 454.0181 427 L 454.0181 421 L 451.722 415.4567 M 454.0181 421 L 454.0181 415 L 456.3142 409.4567 M 454.0181 415 L 454.0181 409 L 451.722 403.4567 L 447.4794 399.2141 M 451.722 403.4567 L 449.4259 397.9135 M 454.0181 409 L 454.0181 403 L 451.722 397.4567 M 454.0181 403 L 454.0181 397 L 451.722 391.4567 L 451.722 385.4567 M 451.722 391.4567 L 449.4259 385.9135 L 445.1833 381.6708 L 439.64 379.3747 M 445.1833 381.6708 L 440.9406 377.4282 M 449.4259 385.9135 L 447.1298 380.3702 L 442.8871 376.1276 M 447.1298 380.3702 L 444.8337 374.8269 L 440.591 370.5843 L 435.0478 368.2882 M 440.591 370.5843 L 436.3484 366.3416 L 434.0523 360.7984 L 429.8096 356.5557 M 434.0523 360.7984 L 431.7562 355.2551 L 431.7562 349.2551 M 431.7562 355.2551 L 429.4601 349.7118 M 436.3484 366.3416 L 432.1057 362.099 L 426.5625 359.8029 M 432.1057 362.099 L 427.8631 357.8564 M 444.8337 374.8269 L 442.5376 369.2837 L 438.2949 365.041 M 442.5376 369.2837 L 440.2415 363.7404 L 435.9988 359.4977 L 433.7027 353.9545 M 435.9988 359.4977 L 431.7562 355.2551 M 440.2415 363.7404 L 437.9453 358.1971 L 433.7027 353.9545 M 437.9453 358.1971 L 435.6492 352.6538 L 435.6492 346.6538 M 435.6492 352.6538 L 433.3531 347.1106 L 433.3531 341.1106 L 431.057 335.5673 M 433.3531 341.1106 L 433.3531 335.1106 L 435.6492 329.5673 M 433.3531 335.1106 L 433.3531 329.1106 L 431.057 323.5673 L 431.057 317.5673 M 431.057 323.5673 L 428.7609 318.024 M 433.3531 329.1106 L 433.3531 323.1106 L 431.057 317.5673 M 433.3531 323.1106 L 433.3531 317.1106 L 435.6492 311.5673 L 435.6492 305.5673 M 435.6492 311.5673 L 437.9453 306.024 M 433.3531 317.1106 L 433.3531 311.1106 L 431.057 305.5673 M 433.3531 311.1106 L 433.3531 305.1106 M 433.3531 347.1106 L 431.057 341.5673 L 426.8144 337.3246 M 431.057 341.5673 L 428.7609 336.024 L 424.5182 331.7814 L 418.975 329.4853 M 424.5182 331.7814 L 420.2756 327.5387 M 428.7609 336.024 L 426.4648 330.4807 L 426.4648 324.4807 M 426.4648 330.4807 L 424.1687 324.9375 M 454.0181 397 L 454.0181 391 L 451.722 385.4567 M 454.0181 391 L 454.0181 385 L 451.722 379.4567 L 447.4794 375.2141 M 451.722 379.4567 L 449.4259 373.9135 M 454.0181 385 L 454.0181 379 L 451.722 373.4567 M 454.0181 379 L 454.0181 373 L 456.3142 367.4567 L 460.5569 363.2141 M 456.3142 367.4567 L 458.6104 361.9135 M 454.0181 373 L 454.0181 367 L 451.722 361.4567 M 454.0181 367 L 454.0181 361 L 456.3142 355.4567 M 454.0181 361 L 454.0181 355 L 451.722 349.4567 L 447.4794 345.2141 M 451.722 349.4567 L 449.4259 343.9135 L 449.4259 337.9135 M 449.4259 343.9135 L 447.1298 338.3702 L 447.1298 332.3702 L 449.4259 326.8269 M 447.1298 332.3702 L 447.1298 326.3702 M 447.1298 338.3702 L 444.8337 332.8269 L 444.8337 326.8269 M 444.8337 332.8269 L 442.5376 327.2836 M 454.0181 355 L 454.0181 349 L 456.3142 343.4567 M 454.0181 349 L 454.0181 343 L 451.722 337.4567 L 447.4794 333.2141 M 451.722 337.4567 L 449.4259 331.9135 L 449.4259 325.9135 M 449.4259 331.9135 L 447.1298 326.3702 M 454.0181 343 L 454.0181 337 L 456.3142 331.4567 M 454.0181 337 L 454.0181 331 L 456.3142 325.4567 L 460.5569 321.2141 M 456.3142 325.4567 L 458.6104 319.9135 L 458.6104 313.9135 L 460.9065 308.3702 M 458.6104 313.9135 L 458.6104 307.9135 M 458.6104 319.9135 L 460.9065 314.3702 L 465.1491 310.1275 M 460.9065 314.3702 L 463.2026 308.8269 L 467.4452 304.5843 L 469.7413 299.041 M 467.4452 304.5843 L 471.6879 300.3416 L 477.2311 298.0455 M 471.6879 300.3416 L 475.9305 296.099 M 463.2026 308.8269 L 465.4987 303.2836 L 469.7413 299.041 M 465.4987 303.2836 L 467.7948 297.7404 L 467.7948 291.7404 L 470.0909 286.1971 M 467.7948 291.7404 L 467.7948 285.7404 L 470.0909 280.1971 L 474.3336 275.9544 M 470.0909 280.1971 L 472.387 274.6538 M 467.7948 285.7404 L 467.7948 279.7404 L 465.4987 274.1971 M 467.7948 279.7404 L 467.7948 273.7404 L 470.0909 268.1971 M 467.7948 273.7404 L 467.7948 267.7404 M 467.7948 297.7404 L 470.0909 292.1971 L 470.0909 286.1971 M 470.0909 292.1971 L 472.387 286.6538 L 476.6297 282.4112 M 472.387 286.6538 L 474.6831 281.1105 L 478.9258 276.8679 L 481.2219 271.3246 M 478.9258 276.8679 L 483.1684 272.6252 L 488.7117 270.3292 M 483.1684 272.6252 L 487.4111 268.3826 M 474.6831 281.1105 L 476.9792 275.5673 L 476.9792 269.5673 M 476.9792 275.5673 L 479.2754 270.024 L 483.518 265.7813 M 479.2754 270.024 L 481.5715 264.4807 L 485.8141 260.2381 L 488.1102 254.6948 M 485.8141 260.2381 L 490.0568 255.9954 L 492.3529 250.4521 L 492.3529 244.4521 M 492.3529 250.4521 L 494.649 244.9089 L 498.8916 240.6662 M 494.649 244.9089 L 496.9451 239.3656 M 490.0568 255.9954 L 494.2994 251.7528 L 499.8427 249.4567 M 494.2994 251.7528 L 498.5421 247.5101 L 504.0853 245.214 L 508.328 240.9714 M 504.0853 245.214 L 509.6286 242.9179 L 515.6286 242.9179 M 509.6286 242.9179 L 515.1719 240.6218 M 498.5421 247.5101 L 502.7847 243.2675 L 505.0808 237.7242 M 502.7847 243.2675 L 507.0273 239.0248 L 512.5706 236.7287 M 507.0273 239.0248 L 511.27 234.7822 M 481.5715 264.4807 L 483.8676 258.9374 L 483.8676 252.9374 M 483.8676 258.9374 L 486.1637 253.3942 L 486.1637 247.3942 L 488.4598 241.8509 M 486.1637 247.3942 L 486.1637 241.3942 M 486.1637 253.3942 L 488.4598 247.8509 L 488.4598 241.8509 M 488.4598 247.8509 L 490.7559 242.3076 L 490.7559 236.3076 L 488.4598 230.7643 M 490.7559 236.3076 L 490.7559 230.3076 L 493.052 224.7643 M 490.7559 230.3076 L 490.7559 224.3076 L 493.052 218.7643 L 493.052 212.7643 M 493.052 218.7643 L 495.3481 213.2211 M 490.7559 224.3076 L 490.7559 218.3076 L 488.4598 212.7643 M 490.7559 218.3076 L 490.7559 212.3076 L 493.052 206.7643 L 497.2947 202.5217 M 493.052 206.7643 L 495.3481 201.2211 L 499.5908 196.9784 L 501.8869 191.4352 M 499.5908 196.9784 L 503.8334 192.7358 M 495.3481 201.2211 L 497.6443 195.6778 L 497.6443 189.6778 M 497.6443 195.6778 L 499.9404 190.1345 M 490.7559 212.3076 L 490.7559 206.3076 L 488.4598 200.7643 M 490.7559 206.3076 L 490.7559 200.3076 L 493.052 194.7643 M 490.7559 200.3076 L 490.7559 194.3076 L 488.4598 188.7643 L 484.2172 184.5217 M 488.4598 188.7643 L 486.1637 183.2211 M 490.7559 194.3076 L 490.7559 188.3076 L 493.052 182.7643 M 490.7559 188.3076 L 490.7559 182.3076 M 490.7559 242.3076 L 493.052 236.7643 L 493.052 230.7643 M 493.052 236.7643 L 495.3481 231.2211 L 499.5908 226.9784 M 495.3481 231.2211 L 497.6443 225.6778 L 501.8869 221.4352 L 504.183 215.8919 M 501.8869 221.4352 L 506.1295 217.1925 M 497.6443 225.6778 L 499.9404 220.1345 L 499.9404 214.1345 M 499.9404 220.1345 L 502.2365 214.5912 L 502.2365 208.5912 L 499.9404 203.048 M 502.2365 208.5912 L 502.2365 202.5912 L 504.5326 197.048 M 502.2365 202.5912 L 502.2365 196.5912 L 504.5326 191.048 L 504.5326 185.048 M 504.5326 191.048 L 506.8287 185.5047 L 511.0714 181.2621 M 506.8287 185.5047 L 509.1248 179.9614 M 502.2365 196.5912 L 502.2365 190.5912 L 499.9404 185.048 M 502.2365 190.5912 L 502.2365 184.5912 M 502.2365 214.5912 L 504.5326 209.048 L 508.7752 204.8053 M 504.5326 209.048 L 506.8287 203.5047 L 506.8287 197.5047 L 504.5326 191.9614 M 506.8287 197.5047 L 506.8287 191.5047 M 506.8287 203.5047 L 509.1248 197.9614 L 509.1248 191.9614 M 509.1248 197.9614 L 511.4209 192.4182 L 515.6636 188.1755 M 511.4209 192.4182 L 513.717 186.8749 L 517.9597 182.6322 L 523.5029 180.3361 M 517.9597 182.6322 L 522.2023 178.3896 L 527.7456 176.0935 L 533.7456 176.0935 M 527.7456 176.0935 L 533.2889 173.7974 M 522.2023 178.3896 L 526.4449 174.1469 L 528.7411 168.6037 M 526.4449 174.1469 L 530.6876 169.9043 M 513.717 186.8749 L 516.0131 181.3316 L 516.0131 175.3316 M 516.0131 181.3316 L 518.3093 175.7883 L 522.5519 171.5457 L 524.848 166.0024 M 522.5519 171.5457 L 526.7946 167.303 M 518.3093 175.7883 L 520.6053 170.2451 L 520.6053 164.2451 M 520.6053 170.2451 L 522.9015 164.7018 L 527.1441 160.4591 M 522.9015 164.7018 L 525.1976 159.1585 M 454.0181 331 L 454.0181 325 L 456.3142 319.4567 M 454.0181 325 L 454.0181 319 L 451.722 313.4567 L 447.4794 309.2141 M 451.722 313.4567 L 449.4259 307.9135 L 449.4259 301.9135 M 449.4259 307.9135 L 447.1298 302.3702 M 454.0181 319 L 454.0181 313 L 451.722 307.4567 M 454.0181 313 L 454.0181 307 L 456.3142 301.4567 M 454.0181 307 L 454.0181 301 L 456.3142 295.4567 L 456.3142 289.4567 M 456.3142 295.4567 L 458.6104 289.9135 L 462.853 285.6708 M 458.6104 289.9135 L 460.9065 284.3702 M 454.0181 301 L 454.0181 295 L 456.3142 289.4567 M 454.0181 295 L 454.0181 289 L 451.722 283.4567 L 447.4794 279.2141 M 451.722 283.4567 L 449.4259 277.9135 L 449.4259 271.9135 M 449.4259 277.9135 L 447.1298 272.3702 L 442.8871 268.1275 L 440.591 262.5843 M 442.8871 268.1275 L 438.6445 263.8849 M 447.1298 272.3702 L 444.8337 266.8269 L 440.591 262.5843 M 444.8337 266.8269 L 442.5376 261.2836 L 442.5376 255.2836 M 442.5376 261.2836 L 440.2415 255.7404 L 440.2415 249.7404 L 437.9453 244.1971 M 440.2415 249.7404 L 440.2415 243.7404 L 442.5376 238.1971 M 440.2415 243.7404 L 440.2415 237.7404 M 440.2415 255.7404 L 437.9453 250.1971 L 433.7027 245.9544 M 437.9453 250.1971 L 435.6492 244.6538 M 454.0181 289 L 454.0181 283 L 451.722 277.4567 M 454.0181 283 L 454.0181 277 L 456.3142 271.4567 M 454.0181 277 L 454.0181 271 L 456.3142 265.4567 L 456.3142 259.4567 M 456.3142 265.4567 L 458.6104 259.9135 M 454.0181 271 L 454.0181 265 L 451.722 259.4567 M 454.0181 265 L 454.0181 259 L 456.3142 253.4567 L 460.5569 249.2141 M 456.3142 253.4567 L 458.6104 247.9135 L 458.6104 241.9135 L 456.3142 236.3702 M 458.6104 241.9135 L 458.6104 235.9135 M 458.6104 247.9135 L 460.9065 242.3702 L 460.9065 236.3702 M 460.9065 242.3702 L 463.2026 236.8269 L 467.4452 232.5843 L 469.7413 227.041 M 467.4452 232.5843 L 471.6879 228.3416 M 463.2026 236.8269 L 465.4987 231.2836 L 465.4987 225.2836 M 465.4987 231.2836 L 467.7948 225.7404 L 467.7948 219.7404 L 465.4987 214.1971 M 467.7948 219.7404 L 467.7948 213.7404 L 470.0909 208.1971 M 467.7948 213.7404 L 467.7948 207.7404 L 470.0909 202.1971 L 474.3336 197.9544 M 470.0909 202.1971 L 472.387 196.6538 M 467.7948 207.7404 L 467.7948 201.7404 L 465.4987 196.1971 M 467.7948 201.7404 L 467.7948 195.7404 M 467.7948 225.7404 L 470.0909 220.1971 L 470.0909 214.1971 M 470.0909 220.1971 L 472.387 214.6538 L 476.6297 210.4112 L 478.9258 204.8679 M 476.6297 210.4112 L 480.8723 206.1685 L 486.4156 203.8724 M 480.8723 206.1685 L 485.115 201.9259 M 472.387 214.6538 L 474.6831 209.1105 L 474.6831 203.1105 M 474.6831 209.1105 L 476.9792 203.5673 M 454.0181 259 L 454.0181 253 L 451.722 247.4567 M 454.0181 253 L 454.0181 247 L 451.722 241.4567 L 447.4794 237.2141 M 451.722 241.4567 L 449.4259 235.9135 L 449.4259 229.9135 M 449.4259 235.9135 L 447.1298 230.3702 M 454.0181 247 L 454.0181 241 L 451.722 235.4567 M 454.0181 241 L 454.0181 235 L 451.722 229.4567 L 447.4794 225.2141 M 451.722 229.4567 L 449.4259 223.9135 L 449.4259 217.9135 M 449.4259 223.9135 L 447.1298 218.3702 L 442.8871 214.1275 L 440.591 208.5843 M 442.8871 214.1275 L 438.6445 209.8849 M 447.1298 218.3702 L 444.8337 212.8269 L 440.591 208.5843 M 444.8337 212.8269 L 442.5376 207.2836 L 442.5376 201.2836 M 442.5376 207.2836 L 440.2415 201.7404 L 440.2415 195.7404 L 442.5376 190.1971 M 440.2415 195.7404 L 440.2415 189.7404 M 440.2415 201.7404 L 437.9453 196.1971 L 433.7027 191.9544 M 437.9453 196.1971 L 435.6492 190.6538 M 454.0181 235 L 454.0181 229 L 456.3142 223.4567 M 454.0181 229 L 454.0181 223 L 456.3142 217.4567 L 456.3142 211.4567 M 456.3142 217.4567 L 458.6104 211.9135 L 462.853 207.6708 M 458.6104 211.9135 L 460.9065 206.3702 M 454.0181 223 L 454.0181 217 L 451.722 211.4567 M 454.0181 217 L 454.0181 211 L 456.3142 205.4567 M 454.0181 211 L 454.0181 205 M 550.0181 481 L 550.0181 475 L 547.722 469.4567 M 550.0181 475 L 550.0181 469 L 552.3142 463.4567 M 550.0181 469 L 550.0181 463 L 547.722 457.4567 L 543.4794 453.2141 M 547.722 457.4567 L 545.4259 451.9135 L 545.4259 445.9135 M 545.4259 451.9135 L 543.1298 446.3701 M 550.0181 463 L 550.0181 457 L 552.3142 451.4567 M 550.0181 457 L 550.0181 451 L 552.3142 445.4567 L 552.3142 439.4567 M 552.3142 445.4567 L 554.6104 439.9135 M 550.0181 451 L 550.0181 445 L 547.722 439.4567 M 550.0181 445 L 550.0181 439 L 547.722 433.4567 L 543.4794 429.2141 M 547.722 433.4567 L 545.4259 427.9135 L 545.4259 421.9135 L 543.1298 416.3702 M 545.4259 421.9135 L 545.4259 415.9135 M 545.4259 427.9135 L 543.1298 422.3701 L 538.8871 418.1275 M 543.1298 422.3701 L 540.8337 416.8269 M 550.0181 439 L 550.0181 433 L 547.722 427.4567 M 550.0181 433 L 550.0181 427 L 547.722 421.4567 L 543.4794 417.2141 M 547.722 421.4567 L 545.4259 415.9135 L 545.4259 409.9135 M 545.4259 415.9135 L 543.1298 410.3702 M 550.0181 427 L 550.0181 421 L 547.722 415.4567 M 550.0181 421 L 550.0181 415 L 552.3142 409.4567 M 550.0181 415 L 550.0181 409 L 547.722 403.4567 L 543.4794 399.2141 M 547.722 403.4567 L 545.4259 397.9135 L 545.4259 391.9135 M 545.4259 397.9135 L 543.1298 392.3702 L 543.1298 386.3702 L 545.4259 380.8269 M 543.1298 386.3702 L 543.1298 380.3702 M 543.1298 392.3702 L 540.8337 386.8269 L 536.591 382.5843 M 540.8337 386.8269 L 538.5375 381.2837 L 534.2949 377.041 L 528.7516 374.7449 M 534.2949 377.041 L 530.0522 372.7984 L 527.7562 367.2551 M 530.0522 372.7984 L 525.8096 368.5558 L 523.5135 363.0125 L 519.2709 358.7698 M 523.5135 363.0125 L 521.2174 357.4692 L 521.2174 351.4692 M 521.2174 357.4692 L 518.9213 351.926 M 525.8096 368.5558 L 521.567 364.3131 L 516.0237 362.017 M 521.567 364.3131 L 517.3243 360.0705 L 515.0282 354.5272 M 517.3243 360.0705 L 513.0817 355.8279 M 538.5375 381.2837 L 536.2415 375.7404 L 531.9988 371.4977 M 536.2415 375.7404 L 533.9453 370.1971 L 529.7027 365.9545 L 527.4066 360.4112 M 529.7027 365.9545 L 525.46 361.7119 M 533.9453 370.1971 L 531.6492 364.6538 L 527.4066 360.4112 M 531.6492 364.6538 L 529.3531 359.1106 L 529.3531 353.1106 L 527.057 347.5673 M 529.3531 353.1106 L 529.3531 347.1106 L 531.6492 341.5673 M 529.3531 347.1106 L 529.3531 341.1106 M 529.3531 359.1106 L 527.057 353.5673 L 522.8143 349.3246 M 527.057 353.5673 L 524.7609 348.024 L 524.7609 342.024 M 524.7609 348.024 L 522.4648 342.4807 M 550.0181 409 L 550.0181 403 L 552.3142 397.4567 M 550.0181 403 L 550.0181 397 L 552.3142 391.4567 L 552.3142 385.4567 M 552.3142 391.4567 L 554.6104 385.9135 M 550.0181 397 L 550.0181 391 L 552.3142 385.4567 M 550.0181 391 L 550.0181 385 L 547.722 379.4567 L 543.4794 375.2141 M 547.722 379.4567 L 545.4259 373.9135 L 545.4259 367.9135 L 547.722 362.3702 M 545.4259 367.9135 L 545.4259 361.9135 M 545.4259 373.9135 L 543.1298 368.3702 L 538.8871 364.1276 M 543.1298 368.3702 L 540.8337 362.8269 M 550.0181 385 L 550.0181 379 L 552.3142 373.4567 M 550.0181 379 L 550.0181 373 L 547.722 367.4567 L 547.722 361.4567 M 547.722 367.4567 L 545.4259 361.9135 M 550.0181 373 L 550.0181 367 L 547.722 361.4567 M 550.0181 367 L 550.0181 361 L 552.3142 355.4567 L 552.3142 349.4567 M 552.3142 355.4567 L 554.6104 349.9135 M 550.0181 361 L 550.0181 355 L 547.722 349.4567 M 550.0181 355 L 550.0181 349 L 552.3142 343.4567 L 552.3142 337.4567 M 552.3142 343.4567 L 554.6104 337.9135 L 554.6104 331.9135 L 552.3142 326.3702 M 554.6104 331.9135 L 554.6104 325.9135 L 556.9064 320.3702 M 554.6104 325.9135 L 554.6104 319.9135 M 554.6104 337.9135 L 556.9064 332.3702 L 556.9064 326.3702 M 556.9064 332.3702 L 559.2026 326.8269 M 550.0181 349 L 550.0181 343 L 552.3142 337.4567 M 550.0181 343 L 550.0181 337 L 547.722 331.4567 L 547.722 325.4567 M 547.722 331.4567 L 545.4259 325.9135 M 550.0181 337 L 550.0181 331 L 547.722 325.4567 M 550.0181 331 L 550.0181 325 L 552.3142 319.4567 L 552.3142 313.4567 M 552.3142 319.4567 L 554.6104 313.9135 L 558.853 309.6708 M 554.6104 313.9135 L 556.9064 308.3702 M 550.0181 325 L 550.0181 319 L 547.722 313.4567 M 550.0181 319 L 550.0181 313 L 552.3142 307.4567 M 550.0181 313 L 550.0181 307 L 547.722 301.4567 L 547.722 295.4567 M 547.722 301.4567 L 545.4259 295.9135 L 545.4259 289.9135 L 543.1298 284.3702 M 545.4259 289.9135 L 545.4259 283.9135 M 545.4259 295.9135 L 543.1298 290.3702 L 538.8871 286.1275 M 543.1298 290.3702 L 540.8337 284.8269 L 540.8337 278.8269 M 540.8337 284.8269 L 538.5375 279.2836 L 534.2949 275.041 L 528.7516 272.7449 M 534.2949 275.041 L 530.0522 270.7983 L 527.7562 265.2551 M 530.0522 270.7983 L 525.8096 266.5557 L 523.5135 261.0124 L 523.5135 255.0124 M 523.5135 261.0124 L 521.2174 255.4691 M 525.8096 266.5557 L 521.567 262.313 L 519.2709 256.7698 M 521.567 262.313 L 517.3243 258.0704 M 538.5375 279.2836 L 536.2415 273.7404 L 531.9988 269.4977 M 536.2415 273.7404 L 533.9453 268.1971 L 529.7027 263.9544 L 524.1594 261.6583 M 529.7027 263.9544 L 525.46 259.7118 M 533.9453 268.1971 L 531.6492 262.6538 L 527.4066 258.4112 M 531.6492 262.6538 L 529.3531 257.1105 L 529.3531 251.1105 M 529.3531 257.1105 L 527.057 251.5673 L 527.057 245.5673 L 524.7609 240.024 M 527.057 245.5673 L 527.057 239.5673 M 527.057 251.5673 L 524.7609 246.024 L 520.5182 241.7813 M 524.7609 246.024 L 522.4648 240.4807 L 522.4648 234.4807 M 522.4648 240.4807 L 520.1686 234.9374 L 520.1686 228.9374 L 517.8726 223.3942 M 520.1686 228.9374 L 520.1686 222.9374 L 522.4648 217.3942 M 520.1686 222.9374 L 520.1686 216.9374 L 517.8726 211.3942 L 513.6299 207.1515 M 517.8726 211.3942 L 515.5764 205.8509 M 520.1686 216.9374 L 520.1686 210.9374 L 522.4648 205.3942 M 520.1686 210.9374 L 520.1686 204.9374 L 522.4648 199.3942 L 522.4648 193.3942 M 522.4648 199.3942 L 524.7609 193.8509 L 529.0035 189.6082 M 524.7609 193.8509 L 527.057 188.3076 M 520.1686 204.9374 L 520.1686 198.9374 L 517.8726 193.3942 M 520.1686 198.9374 L 520.1686 192.9374 M 520.1686 234.9374 L 517.8726 229.3942 L 513.6299 225.1515 M 517.8726 229.3942 L 515.5764 223.8509 L 515.5764 217.8509 M 515.5764 223.8509 L 513.2803 218.3076 L 513.2803 212.3076 L 515.5764 206.7643 M 513.2803 212.3076 L 513.2803 206.3076 M 513.2803 218.3076 L 510.9842 212.7643 L 506.7416 208.5217 M 510.9842 212.7643 L 508.6881 207.2211 L 508.6881 201.2211 M 508.6881 207.2211 L 506.392 201.6778 L 506.392 195.6778 L 508.6881 190.1345 M 506.392 195.6778 L 506.392 189.6778 L 504.0959 184.1345 L 504.0959 178.1345 M 504.0959 184.1345 L 501.7998 178.5912 M 506.392 189.6778 L 506.392 183.6778 L 504.0959 178.1345 M 506.392 183.6778 L 506.392 177.6778 L 508.6881 172.1345 L 508.6881 166.1345 M 508.6881 172.1345 L 510.9842 166.5912 M 506.392 177.6778 L 506.392 171.6778 L 504.0959 166.1345 M 506.392 171.6778 L 506.392 165.6778 L 504.0959 160.1345 L 504.0959 154.1345 M 504.0959 160.1345 L 501.7998 154.5912 L 501.7998 148.5912 L 504.0959 143.048 M 501.7998 148.5912 L 501.7998 142.5912 M 501.7998 154.5912 L 499.5037 149.048 L 495.261 144.8053 M 499.5037 149.048 L 497.2076 143.5047 L 497.2076 137.5047 M 497.2076 143.5047 L 494.9114 137.9614 M 506.392 165.6778 L 506.392 159.6778 L 504.0959 154.1345 M 506.392 159.6778 L 506.392 153.6778 L 508.6881 148.1345 M 506.392 153.6778 L 506.392 147.6778 L 504.0959 142.1345 L 504.0959 136.1345 M 504.0959 142.1345 L 501.7998 136.5912 M 506.392 147.6778 L 506.392 141.6778 L 504.0959 136.1345 M 506.392 141.6778 L 506.392 135.6778 L 508.6881 130.1345 M 506.392 135.6778 L 506.392 129.6778 L 508.6881 124.1345 L 508.6881 118.1345 M 508.6881 124.1345 L 510.9842 118.5912 M 506.392 129.6778 L 506.392 123.6778 L 508.6881 118.1345 M 506.392 123.6778 L 506.392 117.6778 M 506.392 201.6778 L 504.0959 196.1345 L 499.8532 191.8919 M 504.0959 196.1345 L 501.7998 190.5912 L 501.7998 184.5912 L 499.5037 179.048 M 501.7998 184.5912 L 501.7998 178.5912 M 501.7998 190.5912 L 499.5037 185.048 L 495.261 180.8053 M 499.5037 185.048 L 497.2076 179.5047 L 492.9649 175.2621 L 487.4216 172.9659 M 492.9649 175.2621 L 488.7223 171.0194 L 483.179 168.7233 L 477.179 168.7233 M 483.179 168.7233 L 477.6357 166.4272 M 488.7223 171.0194 L 484.4796 166.7768 L 478.9363 164.4807 M 484.4796 166.7768 L 480.237 162.5341 L 477.9409 156.9908 M 480.237 162.5341 L 475.9943 158.2915 L 473.6982 152.7482 L 473.6982 146.7482 M 473.6982 152.7482 L 471.4021 147.2049 M 475.9943 158.2915 L 471.7517 154.0488 L 469.4556 148.5056 M 471.7517 154.0488 L 467.509 149.8062 M 497.2076 179.5047 L 494.9114 173.9614 L 490.6688 169.7188 M 494.9114 173.9614 L 492.6153 168.4182 L 492.6153 162.4182 M 492.6153 168.4182 L 490.3192 162.8749 L 490.3192 156.8749 L 488.0231 151.3316 M 490.3192 156.8749 L 490.3192 150.8749 L 492.6153 145.3316 M 490.3192 150.8749 L 490.3192 144.8749 M 490.3192 162.8749 L 488.0231 157.3316 L 488.0231 151.3316 M 488.0231 157.3316 L 485.727 151.7883 L 485.727 145.7883 L 483.4309 140.2451 M 485.727 145.7883 L 485.727 139.7883 L 488.0231 134.2451 M 485.727 139.7883 L 485.727 133.7883 L 483.4309 128.2451 L 479.1882 124.0024 M 483.4309 128.2451 L 481.1348 122.7018 M 485.727 133.7883 L 485.727 127.7883 L 483.4309 122.2451 M 485.727 127.7883 L 485.727 121.7883 M 485.727 151.7883 L 483.4309 146.2451 L 483.4309 140.2451 M 483.4309 146.2451 L 481.1348 140.7018 L 476.8921 136.4591 L 474.596 130.9159 M 476.8921 136.4591 L 472.6495 132.2165 M 481.1348 140.7018 L 478.8387 135.1585 L 474.596 130.9159 M 478.8387 135.1585 L 476.5425 129.6152 L 476.5425 123.6152 M 476.5425 129.6152 L 474.2464 124.072 L 474.2464 118.072 L 471.9503 112.5287 M 474.2464 118.072 L 474.2464 112.072 L 476.5425 106.5287 M 474.2464 112.072 L 474.2464 106.072 M 474.2464 124.072 L 471.9503 118.5287 L 467.7077 114.286 M 471.9503 118.5287 L 469.6542 112.9854 M 550.0181 307 L 550.0181 301 L 552.3142 295.4567 M 550.0181 301 L 550.0181 295 L 547.722 289.4567 L 543.4794 285.2141 M 547.722 289.4567 L 545.4259 283.9135 M 550.0181 295 L 550.0181 289 L 547.722 283.4567 M 550.0181 289 L 550.0181 283 L 552.3142 277.4567 L 552.3142 271.4567 M 552.3142 277.4567 L 554.6104 271.9135 L 558.853 267.6708 M 554.6104 271.9135 L 556.9064 266.3702 L 556.9064 260.3702 L 554.6104 254.8269 M 556.9064 260.3702 L 556.9064 254.3702 L 559.2026 248.8269 M 556.9064 254.3702 L 556.9064 248.3702 M 556.9064 266.3702 L 559.2026 260.8269 L 559.2026 254.8269 M 559.2026 260.8269 L 561.4987 255.2836 L 565.7413 251.041 M 561.4987 255.2836 L 563.7948 249.7404 M 550.0181 283 L 550.0181 277 L 552.3142 271.4567 M 550.0181 277 L 550.0181 271 L 552.3142 265.4567 L 552.3142 259.4567 M 552.3142 265.4567 L 554.6104 259.9135 M 550.0181 271 L 550.0181 265 L 552.3142 259.4567 M 550.0181 265 L 550.0181 259 L 547.722 253.4567 L 543.4794 249.2141 M 547.722 253.4567 L 545.4259 247.9135 L 541.1832 243.6708 L 535.64 241.3747 M 541.1832 243.6708 L 536.9406 239.4282 L 534.6445 233.8849 M 536.9406 239.4282 L 532.6979 235.1855 M 545.4259 247.9135 L 543.1298 242.3702 L 538.8871 238.1275 M 543.1298 242.3702 L 540.8337 236.8269 L 540.8337 230.8269 L 543.1298 225.2836 M 540.8337 230.8269 L 540.8337 224.8269 L 538.5375 219.2836 L 534.2949 215.041 M 538.5375 219.2836 L 536.2415 213.7404 L 536.2415 207.7404 M 536.2415 213.7404 L 533.9453 208.1971 M 540.8337 224.8269 L 540.8337 218.8269 L 538.5375 213.2836 M 540.8337 218.8269 L 540.8337 212.8269 L 543.1298 207.2836 M 540.8337 212.8269 L 540.8337 206.8269 L 543.1298 201.2836 L 543.1298 195.2836 M 543.1298 201.2836 L 545.4259 195.7404 M 540.8337 206.8269 L 540.8337 200.8269 L 538.5375 195.2836 M 540.8337 200.8269 L 540.8337 194.8269 L 543.1298 189.2836 M 540.8337 194.8269 L 540.8337 188.8269 M 540.8337 236.8269 L 538.5375 231.2836 L 534.2949 227.041 M 538.5375 231.2836 L 536.2415 225.7404 L 531.9988 221.4977 L 526.4555 219.2016 M 531.9988 221.4977 L 527.7562 217.2551 M 536.2415 225.7404 L 533.9453 220.1971 L 533.9453 214.1971 M 533.9453 220.1971 L 531.6492 214.6538 M 550.0181 259 L 550.0181 253 L 552.3142 247.4567 M 550.0181 253 L 550.0181 247 L 547.722 241.4567 L 547.722 235.4567 M 547.722 241.4567 L 545.4259 235.9135 M 550.0181 247 L 550.0181 241 L 547.722 235.4567 M 550.0181 241 L 550.0181 235 L 552.3142 229.4567 M 550.0181 235 L 550.0181 229 L 547.722 223.4567 L 547.722 217.4567 M 547.722 223.4567 L 545.4259 217.9135 L 541.1832 213.6708 L 538.8871 208.1275 M 541.1832 213.6708 L 536.9406 209.4282 M 545.4259 217.9135 L 543.1298 212.3702 L 543.1298 206.3702 M 543.1298 212.3702 L 540.8337 206.8269 L 540.8337 200.8269 L 538.5375 195.2836 M 540.8337 200.8269 L 540.8337 194.8269 L 543.1298 189.2836 M 540.8337 194.8269 L 540.8337 188.8269 M 540.8337 206.8269 L 538.5375 201.2836 L 534.2949 197.041 M 538.5375 201.2836 L 536.2415 195.7404 L 536.2415 189.7404 M 536.2415 195.7404 L 533.9453 190.1971 M 550.0181 229 L 550.0181 223 L 547.722 217.4567 M 550.0181 223 L 550.0181 217 L 552.3142 211.4567 M 550.0181 217 L 550.0181 211 L 547.722 205.4567 L 543.4794 201.2141 M 547.722 205.4567 L 545.4259 199.9135 L 545.4259 193.9135 M 545.4259 199.9135 L 543.1298 194.3702 M 550.0181 211 L 550.0181 205 L 547.722 199.4567 M 550.0181 205 L 550.0181 199 L 552.3142 193.4567 M 550.0181 199 L 550.0181 193 L 552.3142 187.4567 L 552.3142 181.4567 M 552.3142 187.4567 L 554.6104 181.9135 L 558.853 177.6708 M 554.6104 181.9135 L 556.9064 176.3702 L 556.9064 170.3702 L 559.2026 164.8269 M 556.9064 170.3702 L 556.9064 164.3702 M 556.9064 176.3702 L 559.2026 170.8269 L 559.2026 164.8269 M 559.2026 170.8269 L 561.4987 165.2836 L 565.7413 161.041 L 568.0374 155.4977 M 565.7413 161.041 L 569.9839 156.7983 M 561.4987 165.2836 L 563.7948 159.7404 L 563.7948 153.7404 M 563.7948 159.7404 L 566.0909 154.1971 L 570.3336 149.9544 M 566.0909 154.1971 L 568.387 148.6538 M 550.0181 193 L 550.0181 187 L 547.722 181.4567 M 550.0181 187 L 550.0181 181 L 552.3142 175.4567 M 550.0181 181 L 550.0181 175 L 547.722 169.4567 L 543.4794 165.2141 M 547.722 169.4567 L 545.4259 163.9135 L 545.4259 157.9135 M 545.4259 163.9135 L 543.1298 158.3702 M 550.0181 175 L 550.0181 169 L 547.722 163.4567 M 550.0181 169 L 550.0181 163 L 552.3142 157.4567 M 550.0181 163 L 550.0181 157 " />
  </g>
</svg>
