<?xml version="1.0" encoding="UTF-8" standalone="no"?>
<!DOCTYPE svg PUBLIC "-//W3C//DTD SVG 1.1//EN"
    "http://www.w3.org/Graphics/SVG/1.1/DTD/svg11.dtd">
<svg xmlns="http://www.w3.org/2000/svg" width="538" height="452">
  <desc>stochastic LSystem</desc>
  <rect width="100%" height="100%" style="fill: white"/>
  <g stroke="black" fill="none" stroke-width="1">
    <path d="M 14.42706 450.9999 L 14.42706 444.9999 L 16.72316 439.4567 M 14.42706 444.9999 L 14.42706 438.9999 L 16.72316 433.4567 L 16.72316 427.4567 M 16.72316 433.4567 L 19.01926 427.9134 M 14.42706 438.9999 L 14.42706 432.9999 L 12.13096 427.4567 M 14.42706 432.9999 L 14.42706 426.9999 L 16.72316 421.4567 L 20.9658 417.214 M 16.72316 421.4567 L 19.01926 415.9134 L 19.01926 409.9134 L 16.72316 404.3701 M 19.01926 409.9134 L 19.01926 403.9134 L 21.31536 398.3701 M 19.01926 403.9134 L 19.01926 397.9134 M 19.01926 415.9134 L 21.31536 410.3701 L 25.558 406.1275 M 21.31536 410.3701 L 23.61146 404.8268 L 27.8541 400.5842 L 30.1502 395.0409 M 27.8541 400.5842 L 32.09674 396.3416 M 23.61146 404.8268 L 25.90756 399.2835 L 30.1502 395.0409 M 25.90756 399.2835 L 28.20366 393.7403 M 14.42706 426.9999 L 14.42706 420.9999 L 16.72316 415.4567 M 14.42706 420.9999 L 14.42706 414.9999 L 12.13096 409.4567 L 7.88832 405.214 M 12.13096 409.4567 L 9.83486 403.9134 L 9.83486 397.9134 M 9.83486 403.9134 L 7.53876 398.3701 M 14.42706 414.9999 L 14.42706 408.9999 L 12.13096 403.4567 M 14.42706 408.9999 L 14.42706 402.9999 L 16.72316 397.4567 L 16.72316 391.4567 M 16.72316 397.4567 L 19.01926 391.9134 L 23.2619 387.6707 M 19.01926 391.9134 L 21.31536 386.3701 M 14.42706 402.9999 L 14.42706 396.9999 L 12.13096 391.4567 M 14.42706 396.9999 L 14.42706 390.9999 L 16.72316 385.4567 M 14.42706 390.9999 L 14.42706 384.9999 L 16.72316 379.4567 L 16.72316 373.4567 M 16.72316 379.4567 L 19.01926 373.9134 L 23.2619 369.6707 M 19.01926 373.9134 L 21.31536 368.3701 L 21.31536 362.3701 L 19.01926 356.8268 M 21.31536 362.3701 L 21.31536 356.3701 M 21.31536 368.3701 L 23.61146 362.8268 L 23.61146 356.8268 M 23.61146 362.8268 L 25.90756 357.2836 L 30.1502 353.0409 L 35.69348 350.7448 M 30.1502 353.0409 L 34.39284 348.7983 M 25.90756 357.2836 L 28.20366 351.7403 L 28.20366 345.7403 M 28.20366 351.7403 L 30.49976 346.197 L 34.7424 341.9544 L 40.28568 339.6583 M 34.7424 341.9544 L 38.98504 337.7117 L 41.28114 332.1685 L 45.52379 327.9258 M 41.28114 332.1685 L 43.57724 326.6252 M 38.98504 337.7117 L 43.22768 333.4691 L 45.52379 327.9258 M 43.22768 333.4691 L 47.47033 329.2265 L 53.0136 326.9304 M 47.47033 329.2265 L 51.71297 324.9838 M 30.49976 346.197 L 32.79586 340.6537 L 32.79586 334.6537 M 32.79586 340.6537 L 35.09196 335.1105 L 39.3346 330.8678 M 35.09196 335.1105 L 37.38806 329.5672 L 41.6307 325.3246 L 43.9268 319.7813 M 41.6307 325.3246 L 45.87335 321.0819 M 37.38806 329.5672 L 39.68416 324.0239 L 39.68416 318.0239 M 39.68416 324.0239 L 41.98026 318.4807 M 14.42706 384.9999 L 14.42706 378.9999 L 12.13096 373.4567 M 14.42706 378.9999 L 14.42706 372.9999 L 12.13096 367.4567 L 12.13096 361.4567 M 12.13096 367.4567 L 9.83485 361.9134 M 14.42706 372.9999 L 14.42706 366.9999 L 16.72316 361.4567 M 14.42706 366.9999 L 14.42706 360.9999 L 12.13096 355.4567 L 7.88831 351.214 M 12.13096 355.4567 L 9.83485 349.9134 L 9.83485 343.9134 M 9.83485 349.9134 L 7.53875 344.3701 L 7.53875 338.3701 L 5.24265 332.8268 M 7.53875 338.3701 L 7.53875 332.3701 M 7.53875 344.3701 L 5.24265 338.8268 L 1.00001 334.5842 M 5.24265 338.8268 L 2.94655 333.2836 M 14.42706 360.9999 L 14.42706 354.9999 L 12.13095 349.4567 M 14.42706 354.9999 L 14.42706 348.9999 L 12.13095 343.4567 L 7.88831 339.214 M 12.13095 343.4567 L 9.83485 337.9134 L 9.83485 331.9134 M 9.83485 337.9134 L 7.53875 332.3701 M 14.42706 348.9999 L 14.42706 342.9999 L 12.13095 337.4567 M 14.42706 342.9999 L 14.42706 336.9999 L 16.72316 331.4567 L 20.9658 327.214 M 16.72316 331.4567 L 19.01926 325.9134 M 14.42706 336.9999 L 14.42705 330.9999 L 12.13095 325.4567 M 14.42705 330.9999 L 14.42705 324.9999 L 16.72316 319.4567 M 14.42705 324.9999 L 14.42705 318.9999 L 16.72315 313.4567 L 16.72315 307.4567 M 16.72315 313.4567 L 19.01926 307.9134 L 23.2619 303.6707 L 25.558 298.1275 M 23.2619 303.6707 L 27.50454 299.4281 L 33.04782 297.132 M 27.50454 299.4281 L 31.74718 295.1855 M 19.01926 307.9134 L 21.31536 302.3701 L 21.31536 296.3701 M 21.31536 302.3701 L 23.61146 296.8268 L 27.8541 292.5842 M 23.61146 296.8268 L 25.90756 291.2836 L 25.90756 285.2836 L 28.20366 279.7403 M 25.90756 285.2836 L 25.90756 279.2836 L 23.61146 273.7403 L 19.36882 269.4977 M 23.61146 273.7403 L 21.31536 268.197 L 21.31536 262.197 M 21.31536 268.197 L 19.01926 262.6537 M 25.90756 279.2836 L 25.90756 273.2836 L 23.61146 267.7403 M 25.90756 273.2836 L 25.90756 267.2836 L 28.20366 261.7403 M 25.90756 267.2836 L 25.90756 261.2836 L 28.20366 255.7403 L 28.20366 249.7403 M 28.20366 255.7403 L 30.49976 250.197 L 34.7424 245.9544 M 30.49976 250.197 L 32.79586 244.6537 M 25.90756 261.2836 L 25.90756 255.2836 L 23.61146 249.7403 M 25.90756 255.2836 L 25.90756 249.2836 M 25.90756 291.2836 L 28.20366 285.7403 L 28.20366 279.7403 M 28.20366 285.7403 L 30.49976 280.197 L 34.7424 275.9544 L 40.28568 273.6583 M 34.7424 275.9544 L 38.98504 271.7117 M 30.49976 280.197 L 32.79586 274.6537 L 32.79586 268.6537 M 32.79586 274.6537 L 35.09196 269.1105 L 39.3346 264.8678 M 35.09196 269.1105 L 37.38806 263.5672 L 41.6307 259.3246 L 43.9268 253.7813 M 41.6307 259.3246 L 45.87334 255.0819 L 51.41662 252.7858 M 45.87334 255.0819 L 50.11598 250.8393 L 55.65926 248.5432 L 59.9019 244.3005 M 55.65926 248.5432 L 61.20254 246.2471 L 67.20254 246.2471 M 61.20254 246.2471 L 66.74582 243.951 M 50.11598 250.8393 L 54.35862 246.5966 L 59.9019 244.3005 M 54.35862 246.5966 L 58.60127 242.354 M 37.38806 263.5672 L 39.68416 258.0239 L 43.9268 253.7813 M 39.68416 258.0239 L 41.98026 252.4807 L 41.98026 246.4807 L 44.27636 240.9374 M 41.98026 246.4807 L 41.98026 240.4807 M 41.98026 252.4807 L 44.27636 246.9374 L 44.27636 240.9374 M 44.27636 246.9374 L 46.57246 241.3941 L 50.8151 237.1515 M 46.57246 241.3941 L 48.86856 235.8508 L 53.1112 231.6082 L 55.4073 226.0649 M 53.1112 231.6082 L 57.35384 227.3655 L 62.89712 225.0694 M 57.35384 227.3655 L 61.59649 223.1229 M 48.86856 235.8508 L 51.16466 230.3076 L 51.16466 224.3076 M 51.16466 230.3076 L 53.46076 224.7643 L 57.7034 220.5216 M 53.46076 224.7643 L 55.75686 219.221 L 55.75686 213.221 L 53.46076 207.6777 M 55.75686 213.221 L 55.75686 207.221 L 58.05296 201.6777 M 55.75686 207.221 L 55.75686 201.221 L 53.46076 195.6777 L 49.21812 191.4351 M 53.46076 195.6777 L 51.16466 190.1345 M 55.75686 201.221 L 55.75686 195.221 L 58.05296 189.6777 M 55.75686 195.221 L 55.75686 189.221 L 58.05296 183.6777 L 62.29561 179.4351 M 58.05296 183.6777 L 60.34906 178.1345 M 55.75686 189.221 L 55.75686 183.221 L 53.46076 177.6777 M 55.75686 183.221 L 55.75686 177.221 L 58.05296 171.6777 M 55.75686 177.221 L 55.75686 171.221 L 53.46076 165.6777 L 49.21812 161.4351 M 53.46076 165.6777 L 51.16466 160.1345 L 46.92202 155.8918 L 41.37874 153.5957 M 46.92202 155.8918 L 42.67938 151.6492 L 40.38328 146.1059 M 42.67938 151.6492 L 38.43674 147.4065 M 51.16466 160.1345 L 48.86856 154.5912 L 44.62592 150.3485 M 48.86856 154.5912 L 46.57246 149.0479 L 46.57246 143.0479 M 46.57246 149.0479 L 44.27636 143.5046 L 44.27636 137.5046 L 41.98026 131.9614 M 44.27636 137.5046 L 44.27636 131.5046 M 44.27636 143.5046 L 41.98026 137.9614 L 37.73762 133.7187 M 41.98026 137.9614 L 39.68416 132.4181 M 55.75686 171.221 L 55.75686 165.221 L 53.46076 159.6777 M 55.75686 165.221 L 55.75686 159.221 L 53.46076 153.6777 L 49.21812 149.4351 M 53.46076 153.6777 L 51.16466 148.1345 M 55.75686 159.221 L 55.75686 153.221 L 58.05296 147.6777 M 55.75686 153.221 L 55.75686 147.221 L 58.05296 141.6777 L 58.05296 135.6777 M 58.05296 141.6777 L 60.34906 136.1345 L 64.59171 131.8918 M 60.34906 136.1345 L 62.64517 130.5912 L 66.88781 126.3485 L 69.18391 120.8053 M 66.88781 126.3485 L 71.13045 122.1059 L 76.67373 119.8098 M 71.13045 122.1059 L 75.37309 117.8633 M 62.64517 130.5912 L 64.94127 125.0479 L 64.94127 119.0479 M 64.94127 125.0479 L 67.23737 119.5046 L 71.48001 115.262 M 67.23737 119.5046 L 69.53347 113.9614 M 55.75686 147.221 L 55.75686 141.221 L 53.46076 135.6777 M 55.75686 141.221 L 55.75686 135.221 L 53.46076 129.6777 L 53.46076 123.6777 M 53.46076 129.6777 L 51.16466 124.1345 M 55.75686 135.221 L 55.75686 129.221 L 53.46076 123.6777 M 55.75686 129.221 L 55.75686 123.221 M 55.75686 219.221 L 58.05296 213.6777 L 62.29561 209.4351 M 58.05296 213.6777 L 60.34906 208.1345 L 60.34906 202.1345 L 58.05296 196.5912 M 60.34906 202.1345 L 60.34906 196.1345 M 60.34906 208.1345 L 62.64517 202.5912 L 62.64517 196.5912 M 62.64517 202.5912 L 64.94127 197.0479 L 69.18391 192.8053 M 64.94127 197.0479 L 67.23737 191.5046 L 71.48001 187.262 L 73.77611 181.7187 M 71.48001 187.262 L 75.72265 183.0193 M 67.23737 191.5046 L 69.53347 185.9614 L 69.53347 179.9614 M 69.53347 185.9614 L 71.82957 180.4181 L 76.07221 176.1754 M 71.82957 180.4181 L 74.12567 174.8748 L 74.12567 168.8748 L 76.42177 163.3315 M 74.12567 168.8748 L 74.12567 162.8748 L 76.42177 157.3315 L 76.42177 151.3315 M 76.42177 157.3315 L 78.71787 151.7883 M 74.12567 162.8748 L 74.12567 156.8748 L 76.42177 151.3315 M 74.12567 156.8748 L 74.12567 150.8748 M 74.12567 174.8748 L 76.42177 169.3315 L 80.66441 165.0889 M 76.42177 169.3315 L 78.71787 163.7883 L 78.71787 157.7883 L 76.42177 152.245 M 78.71787 157.7883 L 78.71787 151.7883 M 78.71787 163.7883 L 81.01397 158.245 L 81.01397 152.245 M 81.01397 158.245 L 83.31007 152.7017 M 14.42705 318.9999 L 14.42705 312.9999 L 16.72315 307.4567 M 14.42705 312.9999 L 14.42705 306.9999 L 12.13095 301.4567 L 7.88831 297.214 M 12.13095 301.4567 L 9.83485 295.9134 M 14.42705 306.9999 L 14.42705 300.9999 L 16.72315 295.4567 M 14.42705 300.9999 L 14.42705 294.9999 L 16.72315 289.4567 L 16.72315 283.4567 M 16.72315 289.4567 L 19.01925 283.9134 M 14.42705 294.9999 L 14.42705 288.9999 L 16.72315 283.4567 M 14.42705 288.9999 L 14.42705 282.9999 L 12.13095 277.4567 L 7.88831 273.214 M 12.13095 277.4567 L 9.83485 271.9134 L 5.59221 267.6707 L 3.29611 262.1275 M 5.59221 267.6707 L 1.34957 263.4281 M 9.83485 271.9134 L 7.53875 266.3701 L 3.29611 262.1275 M 7.53875 266.3701 L 5.24265 260.8268 L 5.24265 254.8268 M 5.24265 260.8268 L 2.94655 255.2836 M 14.42705 282.9999 L 14.42705 276.9999 L 16.72315 271.4567 M 14.42705 276.9999 L 14.42705 270.9999 L 12.13095 265.4567 L 7.88831 261.214 M 12.13095 265.4567 L 9.83485 259.9134 M 14.42705 270.9999 L 14.42705 264.9999 L 16.72315 259.4567 M 14.42705 264.9999 L 14.42705 258.9999 L 16.72315 253.4567 L 16.72315 247.4567 M 16.72315 253.4567 L 19.01925 247.9134 L 23.26189 243.6707 M 19.01925 247.9134 L 21.31535 242.3701 M 14.42705 258.9999 L 14.42705 252.9999 L 12.13095 247.4567 M 14.42705 252.9999 L 14.42705 246.9999 L 16.72315 241.4567 L 16.72315 235.4567 M 16.72315 241.4567 L 19.01925 235.9134 L 23.26189 231.6707 M 19.01925 235.9134 L 21.31535 230.3701 L 21.31535 224.3701 L 23.61145 218.8268 M 21.31535 224.3701 L 21.31535 218.3701 M 21.31535 230.3701 L 23.61145 224.8268 L 23.61145 218.8268 M 23.61145 224.8268 L 25.90755 219.2836 M 14.42705 246.9999 L 14.42705 240.9999 L 12.13095 235.4567 M 14.42705 240.9999 L 14.42705 234.9999 L 16.72315 229.4567 L 20.96579 225.214 M 16.72315 229.4567 L 19.01925 223.9134 M 14.42705 234.9999 L 14.42705 228.9999 L 12.13095 223.4567 M 14.42705 228.9999 L 14.42705 222.9999 L 16.72315 217.4567 M 14.42705 222.9999 L 14.42705 216.9999 L 16.72315 211.4567 L 16.72315 205.4567 M 16.72315 211.4567 L 19.01925 205.9134 L 19.01925 199.9134 L 16.72315 194.3701 M 19.01925 199.9134 L 19.01925 193.9134 L 21.31535 188.3701 M 19.01925 193.9134 L 19.01925 187.9134 M 19.01925 205.9134 L 21.31535 200.3701 L 25.55799 196.1275 M 21.31535 200.3701 L 23.61145 194.8268 L 27.85409 190.5842 L 33.39737 188.2881 M 27.85409 190.5842 L 32.09673 186.3416 M 23.61145 194.8268 L 25.90755 189.2836 L 25.90755 183.2836 M 25.90755 189.2836 L 28.20365 183.7403 L 32.44629 179.4977 L 37.98957 177.2015 M 32.44629 179.4977 L 36.68894 175.255 L 38.98504 169.7117 L 38.98504 163.7117 M 38.98504 169.7117 L 41.28114 164.1685 L 45.52378 159.9258 M 41.28114 164.1685 L 43.57724 158.6252 M 36.68894 175.255 L 40.93158 171.0124 L 46.47485 168.7162 M 40.93158 171.0124 L 45.17422 166.7697 L 50.7175 164.4736 L 56.7175 164.4736 M 50.7175 164.4736 L 56.26077 162.1775 M 45.17422 166.7697 L 49.41686 162.5271 L 51.71296 156.9838 M 49.41686 162.5271 L 53.6595 158.2844 L 59.20278 155.9883 M 53.6595 158.2844 L 57.90214 154.0418 M 28.20365 183.7403 L 30.49975 178.197 L 34.74239 173.9544 M 30.49975 178.197 L 32.79585 172.6537 L 37.03849 168.4111 L 42.58177 166.115 M 37.03849 168.4111 L 41.28114 164.1685 M 32.79585 172.6537 L 35.09195 167.1105 L 35.09195 161.1105 M 35.09195 167.1105 L 37.38805 161.5672 M 14.42705 216.9999 L 14.42705 210.9999 L 16.72315 205.4567 M 14.42705 210.9999 L 14.42705 204.9999 L 16.72315 199.4567 L 20.96579 195.214 M 16.72315 199.4567 L 19.01925 193.9134 M 14.42705 204.9999 L 14.42705 198.9999 L 12.13095 193.4567 M 14.42705 198.9999 L 14.42705 192.9999 L 12.13095 187.4567 L 7.88831 183.214 M 12.13095 187.4567 L 9.83485 181.9134 L 9.83485 175.9134 M 9.83485 181.9134 L 7.53875 176.3701 L 7.53875 170.3701 L 5.24265 164.8268 M 7.53875 170.3701 L 7.53875 164.3701 M 7.53875 176.3701 L 5.24265 170.8268 L 1 166.5842 M 5.24265 170.8268 L 2.94655 165.2836 M 14.42705 192.9999 L 14.42705 186.9999 L 12.13095 181.4567 M 14.42705 186.9999 L 14.42705 180.9999 L 12.13095 175.4567 L 7.88831 171.214 M 12.13095 175.4567 L 9.83485 169.9134 M 14.42705 180.9999 L 14.42705 174.9999 L 12.13095 169.4567 M 14.42705 174.9999 L 14.42705 168.9999 M 110.4271 450.9999 L 110.4271 444.9999 L 108.131 439.4567 M 110.4271 444.9999 L 110.4271 438.9999 L 112.7232 433.4567 M 110.4271 438.9999 L 110.4271 433 L 108.131 427.4567 L 108.131 421.4567 M 108.131 427.4567 L 105.8349 421.9134 M 110.4271 433 L 110.4271 427 L 112.7232 421.4567 M 110.4271 427 L 110.4271 421 L 112.7232 415.4567 L 116.9658 411.2141 M 112.7232 415.4567 L 115.0193 409.9134 L 115.0193 403.9134 L 112.7232 398.3701 M 115.0193 403.9134 L 115.0193 397.9134 M 115.0193 409.9134 L 117.3154 404.3701 L 117.3154 398.3701 M 117.3154 404.3701 L 119.6115 398.8268 L 123.8541 394.5842 L 126.1502 389.0409 M 123.8541 394.5842 L 128.0967 390.3416 M 119.6115 398.8268 L 121.9075 393.2836 L 121.9075 387.2836 M 121.9075 393.2836 L 124.2036 387.7403 L 128.4463 383.4977 M 124.2036 387.7403 L 126.4997 382.197 M 110.4271 421 L 110.4271 415 L 108.131 409.4567 M 110.4271 415 L 110.4271 409 L 108.131 403.4567 L 108.131 397.4567 M 108.131 403.4567 L 105.8349 397.9134 M 110.4271 409 L 110.4271 403 L 112.7232 397.4567 M 110.4271 403 L 110.4271 397 L 108.131 391.4567 L 103.8883 387.2141 M 108.131 391.4567 L 105.8349 385.9134 L 101.5922 381.6708 L 99.29612 376.1275 M 101.5922 381.6708 L 97.34959 377.4281 M 105.8349 385.9134 L 103.5388 380.3701 L 99.29613 376.1275 M 103.5388 380.3701 L 101.2427 374.8268 L 101.2427 368.8268 M 101.2427 374.8268 L 98.94659 369.2836 L 94.70394 365.041 L 92.40783 359.4977 M 94.70394 365.041 L 90.4613 360.7983 L 84.91803 358.5022 L 78.91803 358.5022 M 84.91803 358.5022 L 79.37476 356.2061 M 90.4613 360.7983 L 86.21867 356.5557 L 80.67539 354.2596 M 86.21867 356.5557 L 81.97604 352.313 L 79.67993 346.7697 L 79.67993 340.7697 M 79.67993 346.7697 L 77.38383 341.2265 M 81.97604 352.313 L 77.73338 348.0704 L 75.43728 342.5271 M 77.73338 348.0704 L 73.49074 343.8278 M 98.94659 369.2836 L 96.65048 363.7403 L 92.40784 359.4977 M 96.65048 363.7403 L 94.35439 358.197 L 90.11174 353.9544 L 84.56847 351.6583 M 90.11174 353.9544 L 85.86911 349.7117 L 83.57301 344.1685 M 85.86911 349.7117 L 81.62647 345.4691 M 94.35439 358.197 L 92.0583 352.6537 L 87.81565 348.4111 M 92.0583 352.6537 L 89.76219 347.1105 L 89.76219 341.1105 M 89.76219 347.1105 L 87.46609 341.5672 L 87.46609 335.5672 L 85.17001 330.0239 M 87.46609 335.5672 L 87.46609 329.5672 L 89.76219 324.0239 M 87.46609 329.5672 L 87.46609 323.5672 M 87.46609 341.5672 L 85.17001 336.0239 L 85.17001 330.0239 M 85.17001 336.0239 L 82.8739 330.4807 L 82.8739 324.4807 L 80.5778 318.9374 M 82.8739 324.4807 L 82.8739 318.4807 L 80.5778 312.9374 L 76.33516 308.6947 M 80.5778 312.9374 L 78.2817 307.3941 L 78.2817 301.3941 M 78.2817 307.3941 L 75.9856 301.8508 M 82.8739 318.4807 L 82.8739 312.4807 L 80.5778 306.9374 M 82.8739 312.4807 L 82.8739 306.4807 M 82.8739 330.4807 L 80.5778 324.9374 L 76.33516 320.6948 M 80.5778 324.9374 L 78.2817 319.3941 L 78.2817 313.3941 L 80.5778 307.8508 M 78.2817 313.3941 L 78.2817 307.3941 M 78.2817 319.3941 L 75.9856 313.8508 L 75.9856 307.8508 M 75.9856 313.8508 L 73.6895 308.3076 M 110.4271 397 L 110.4271 391 L 108.131 385.4567 M 110.4271 391 L 110.4271 385 L 112.7232 379.4567 M 110.4271 385 L 110.4271 379 L 108.131 373.4567 L 103.8883 369.2141 M 108.131 373.4567 L 105.8349 367.9134 M 110.4271 379 L 110.4271 373 L 108.131 367.4567 M 110.4271 373 L 110.4271 367 L 108.131 361.4567 L 103.8883 357.2141 M 108.131 361.4567 L 105.8349 355.9134 L 105.8349 349.9134 M 105.8349 355.9134 L 103.5388 350.3701 L 99.29613 346.1275 L 93.75286 343.8314 M 99.29613 346.1275 L 95.05349 341.8849 L 92.7574 336.3416 M 95.05349 341.8849 L 90.81086 337.6422 M 103.5388 350.3701 L 101.2427 344.8268 L 97.00005 340.5842 M 101.2427 344.8268 L 98.94659 339.2836 L 98.94659 333.2836 M 98.94659 339.2836 L 96.65048 333.7403 L 96.65048 327.7403 L 94.35439 322.197 M 96.65048 327.7403 L 96.65048 321.7403 L 98.94659 316.197 M 96.65048 321.7403 L 96.65048 315.7403 M 96.65048 333.7403 L 94.35439 328.197 L 94.35439 322.197 M 94.35439 328.197 L 92.0583 322.6537 M 110.4271 367 L 110.4271 361 L 108.131 355.4567 M 110.4271 361 L 110.4271 355 L 112.7232 349.4567 M 110.4271 355 L 110.4271 349 L 112.7232 343.4567 L 112.7232 337.4567 M 112.7232 343.4567 L 115.0193 337.9134 M 110.4271 349 L 110.4271 343 L 108.131 337.4567 M 110.4271 343 L 110.4271 337 L 112.7232 331.4567 L 112.7232 325.4567 M 112.7232 331.4567 L 115.0193 325.9134 L 115.0193 319.9134 L 117.3154 314.3701 M 115.0193 319.9134 L 115.0193 313.9134 M 115.0193 325.9134 L 117.3154 320.3701 L 121.558 316.1275 M 117.3154 320.3701 L 119.6115 314.8268 L 119.6115 308.8268 L 121.9075 303.2836 M 119.6115 308.8268 L 119.6115 302.8268 L 121.9075 297.2836 L 126.1502 293.041 M 121.9075 297.2836 L 124.2036 291.7403 M 119.6115 302.8268 L 119.6115 296.8268 L 121.9075 291.2836 M 119.6115 296.8268 L 119.6115 290.8268 M 119.6115 314.8268 L 121.9075 309.2836 L 126.1502 305.041 M 121.9075 309.2836 L 124.2036 303.7403 L 124.2036 297.7403 L 126.4997 292.197 M 124.2036 297.7403 L 124.2036 291.7403 M 124.2036 303.7403 L 126.4997 298.197 L 126.4997 292.197 M 126.4997 298.197 L 128.7958 292.6537 L 133.0385 288.4111 L 135.3346 282.8679 M 133.0385 288.4111 L 137.2811 284.1685 L 142.8244 281.8724 M 137.2811 284.1685 L 141.5237 279.9258 M 128.7958 292.6537 L 131.0919 287.1105 L 131.0919 281.1105 M 131.0919 287.1105 L 133.388 281.5672 M 110.4271 337 L 110.4271 331 L 108.131 325.4567 M 110.4271 331 L 110.4271 325 L 112.7232 319.4567 L 116.9658 315.2141 M 112.7232 319.4567 L 115.0193 313.9134 M 110.4271 325 L 110.4271 318.9999 L 108.131 313.4567 M 110.4271 318.9999 L 110.4271 312.9999 L 112.7232 307.4567 M 110.4271 312.9999 L 110.4271 306.9999 L 112.7232 301.4567 L 112.7232 295.4567 M 112.7232 301.4567 L 115.0193 295.9134 L 119.2619 291.6708 M 115.0193 295.9134 L 117.3154 290.3701 L 117.3154 284.3701 L 119.6115 278.8268 M 117.3154 284.3701 L 117.3154 278.3701 M 117.3154 290.3701 L 119.6115 284.8268 L 123.8541 280.5842 M 119.6115 284.8268 L 121.9075 279.2836 M 110.4271 306.9999 L 110.4271 300.9999 L 108.131 295.4567 M 110.4271 300.9999 L 110.4271 294.9999 L 112.7232 289.4567 M 110.4271 294.9999 L 110.4271 288.9999 L 112.7232 283.4567 L 112.7232 277.4567 M 112.7232 283.4567 L 115.0193 277.9134 L 119.2619 273.6708 M 115.0193 277.9134 L 117.3154 272.3701 M 110.4271 288.9999 L 110.4271 282.9999 L 112.7232 277.4567 M 110.4271 282.9999 L 110.4271 276.9999 L 112.7232 271.4567 L 116.9658 267.2141 M 112.7232 271.4567 L 115.0193 265.9134 L 119.2619 261.6708 L 121.558 256.1275 M 119.2619 261.6708 L 123.5045 257.4281 L 129.0478 255.132 M 123.5045 257.4281 L 127.7472 253.1855 M 115.0193 265.9134 L 117.3154 260.3701 L 117.3154 254.3701 M 117.3154 260.3701 L 119.6115 254.8269 L 119.6115 248.8269 L 121.9075 243.2836 M 119.6115 248.8269 L 119.6115 242.8269 L 117.3154 237.2836 L 113.0727 233.0409 M 117.3154 237.2836 L 115.0193 231.7403 L 115.0193 225.7403 M 115.0193 231.7403 L 112.7232 226.197 M 119.6115 242.8269 L 119.6115 236.8269 L 117.3154 231.2836 M 119.6115 236.8269 L 119.6115 230.8269 L 121.9075 225.2836 M 119.6115 230.8269 L 119.6115 224.8269 M 119.6115 254.8269 L 121.9075 249.2836 L 121.9075 243.2836 M 121.9075 249.2836 L 124.2036 243.7403 L 124.2036 237.7403 L 121.9075 232.197 M 124.2036 237.7403 L 124.2036 231.7403 L 126.4997 226.197 M 124.2036 231.7403 L 124.2036 225.7403 M 124.2036 243.7403 L 126.4997 238.197 L 130.7424 233.9544 M 126.4997 238.197 L 128.7958 232.6538 L 133.0385 228.4111 L 135.3346 222.8678 M 133.0385 228.4111 L 137.2811 224.1685 M 128.7958 232.6538 L 131.0919 227.1105 L 135.3346 222.8678 M 131.0919 227.1105 L 133.388 221.5672 L 133.388 215.5672 L 131.0919 210.0239 M 133.388 215.5672 L 133.388 209.5672 L 131.0919 204.0239 L 126.8493 199.7813 M 131.0919 204.0239 L 128.7958 198.4807 L 128.7958 192.4807 M 128.7958 198.4807 L 126.4997 192.9374 M 133.388 209.5672 L 133.388 203.5672 L 131.0919 198.0239 M 133.388 203.5672 L 133.388 197.5672 L 135.6841 192.0239 M 133.388 197.5672 L 133.388 191.5672 L 135.6841 186.0239 L 135.6841 180.0239 M 135.6841 186.0239 L 137.9802 180.4807 M 133.388 191.5672 L 133.388 185.5672 L 131.0919 180.0239 M 133.388 185.5672 L 133.388 179.5672 L 135.6841 174.0239 L 135.6841 168.0239 M 135.6841 174.0239 L 137.9802 168.4807 L 142.2229 164.238 M 137.9802 168.4807 L 140.2763 162.9374 L 140.2763 156.9374 L 142.5724 151.3941 M 140.2763 156.9374 L 140.2763 150.9374 M 140.2763 162.9374 L 142.5724 157.3941 L 146.8151 153.1515 M 142.5724 157.3941 L 144.8685 151.8508 M 133.388 179.5672 L 133.388 173.5672 L 131.0919 168.0239 M 133.388 173.5672 L 133.388 167.5672 L 135.6841 162.0239 M 133.388 167.5672 L 133.388 161.5672 L 131.0919 156.0239 L 131.0919 150.0239 M 131.0919 156.0239 L 128.7958 150.4807 M 133.388 161.5672 L 133.388 155.5672 L 135.6841 150.0239 M 133.388 155.5672 L 133.388 149.5672 L 135.6841 144.0239 L 135.6841 138.0239 M 135.6841 144.0239 L 137.9802 138.4807 L 142.2229 134.238 M 137.9802 138.4807 L 140.2763 132.9374 M 133.388 149.5672 L 133.388 143.5672 L 135.6841 138.0239 M 133.388 143.5672 L 133.388 137.5672 M 133.388 221.5672 L 135.6841 216.0239 L 135.6841 210.0239 M 135.6841 216.0239 L 137.9802 210.4807 L 142.2229 206.238 L 147.7661 203.9419 M 142.2229 206.238 L 146.4655 201.9954 M 137.9802 210.4807 L 140.2763 204.9374 L 140.2763 198.9374 M 140.2763 204.9374 L 142.5724 199.3941 L 142.5724 193.3941 L 144.8685 187.8508 M 142.5724 193.3941 L 142.5724 187.3941 L 140.2763 181.8508 L 140.2763 175.8508 M 140.2763 181.8508 L 137.9802 176.3076 M 142.5724 187.3941 L 142.5724 181.3941 L 140.2763 175.8508 M 142.5724 181.3941 L 142.5724 175.3941 M 142.5724 199.3941 L 144.8685 193.8508 L 144.8685 187.8508 M 144.8685 193.8508 L 147.1646 188.3076 L 151.4073 184.0649 M 147.1646 188.3076 L 149.4607 182.7643 L 149.4607 176.7643 L 147.1646 171.221 M 149.4607 176.7643 L 149.4607 170.7643 M 149.4607 182.7643 L 151.7568 177.221 L 151.7568 171.221 M 151.7568 177.221 L 154.0529 171.6777 L 158.2955 167.4351 M 154.0529 171.6777 L 156.349 166.1345 L 160.5916 161.8918 L 162.8877 156.3485 M 160.5916 161.8918 L 164.8343 157.6492 M 156.349 166.1345 L 158.6451 160.5912 L 162.8877 156.3485 M 158.6451 160.5912 L 160.9412 155.0479 L 165.1838 150.8053 L 167.4799 145.262 M 165.1838 150.8053 L 169.4265 146.5626 L 174.9698 144.2665 M 169.4265 146.5626 L 173.6691 142.32 L 175.9652 136.7767 L 175.9652 130.7767 M 175.9652 136.7767 L 178.2613 131.2334 L 182.504 126.9908 M 178.2613 131.2334 L 180.5574 125.6902 M 173.6691 142.32 L 177.9118 138.0773 L 180.2079 132.5341 M 177.9118 138.0773 L 182.1544 133.8347 L 187.6977 131.5386 M 182.1544 133.8347 L 186.3971 129.592 L 191.9403 127.2959 L 197.9403 127.2959 M 191.9403 127.2959 L 197.4836 124.9998 M 186.3971 129.592 L 190.6397 125.3494 L 192.9358 119.8061 M 190.6397 125.3494 L 194.8824 121.1068 M 160.9412 155.0479 L 163.2373 149.5046 L 163.2373 143.5046 M 163.2373 149.5046 L 165.5334 143.9614 L 169.776 139.7187 L 172.0721 134.1754 M 169.776 139.7187 L 174.0187 135.4761 M 165.5334 143.9614 L 167.8295 138.4181 L 167.8295 132.4181 M 167.8295 138.4181 L 170.1256 132.8748 L 174.3682 128.6322 M 170.1256 132.8748 L 172.4217 127.3315 L 176.6643 123.0889 L 178.9604 117.5456 M 176.6643 123.0889 L 180.907 118.8463 L 186.4502 116.5501 M 180.907 118.8463 L 185.1496 114.6036 L 187.4457 109.0603 L 187.4457 103.0603 M 187.4457 109.0603 L 189.7418 103.5171 M 185.1496 114.6036 L 189.3923 110.361 L 191.6884 104.8177 M 189.3923 110.361 L 193.6349 106.1183 L 199.1782 103.8222 M 193.6349 106.1183 L 197.8775 101.8757 L 200.1736 96.3324 L 200.1736 90.3324 M 200.1736 96.3324 L 202.4697 90.78912 L 202.4697 84.78912 L 204.7658 79.24585 M 202.4697 84.78912 L 202.4697 78.78912 M 202.4697 90.78912 L 204.7658 85.24585 L 209.0085 81.0032 M 204.7658 85.24585 L 207.0619 79.70258 M 197.8775 101.8757 L 202.1202 97.63303 L 204.4163 92.08975 M 202.1202 97.63303 L 206.3628 93.39038 L 208.6589 87.84711 L 212.9016 83.60446 M 208.6589 87.84711 L 210.955 82.30383 M 206.3628 93.39038 L 210.6055 89.14774 L 216.1488 86.85162 M 210.6055 89.14774 L 214.8481 84.90509 L 220.3914 82.60898 L 224.634 78.36633 M 220.3914 82.60898 L 225.9347 80.31287 L 231.9347 80.31287 M 225.9347 80.31287 L 231.478 78.01675 L 237.478 78.01675 L 243.0212 80.31287 M 237.478 78.01675 L 243.478 78.01675 M 231.478 78.01675 L 237.0212 75.72064 L 241.2639 71.478 M 237.0212 75.72064 L 242.5645 73.42453 L 248.5645 73.42453 M 242.5645 73.42453 L 248.1078 71.12842 M 214.8481 84.90509 L 219.0908 80.66245 L 224.634 78.36633 M 219.0908 80.66245 L 223.3334 76.4198 L 225.6295 70.87653 L 225.6295 64.87653 M 225.6295 70.87653 L 227.9256 65.33325 L 232.1683 61.09061 M 227.9256 65.33325 L 230.2217 59.78998 M 223.3334 76.4198 L 227.5761 72.17715 L 229.8722 66.63388 M 227.5761 72.17715 L 231.8187 67.93451 L 237.362 65.6384 L 241.6046 61.39575 M 237.362 65.6384 L 242.9053 63.34229 M 231.8187 67.93451 L 236.0614 63.69186 L 238.3575 58.14859 M 236.0614 63.69186 L 240.304 59.44922 M 172.4217 127.3315 L 174.7178 121.7883 L 174.7178 115.7883 M 174.7178 121.7883 L 177.0139 116.245 L 177.0139 110.245 L 174.7178 104.7017 M 177.0139 110.245 L 177.0139 104.245 M 177.0139 116.245 L 179.31 110.7017 L 179.31 104.7017 M 179.31 110.7017 L 181.6061 105.1584 L 185.8487 100.9158 M 181.6061 105.1584 L 183.9022 99.61517 L 188.1448 95.37253 L 190.4409 89.82925 M 188.1448 95.37253 L 192.3875 91.12988 L 197.9307 88.83377 M 192.3875 91.12988 L 196.6301 86.88724 L 198.9262 81.34396 L 198.9262 75.34396 M 198.9262 81.34396 L 201.2223 75.80069 L 205.4649 71.55804 M 201.2223 75.80069 L 203.5184 70.25742 M 196.6301 86.88724 L 200.8727 82.64459 L 203.1688 77.10132 M 200.8727 82.64459 L 205.1154 78.40195 L 210.6587 76.10583 M 205.1154 78.40195 L 209.358 74.1593 L 214.9013 71.86319 L 219.144 67.62054 M 214.9013 71.86319 L 220.4446 69.56708 M 209.358 74.1593 L 213.6007 69.91666 L 215.8968 64.37338 M 213.6007 69.91666 L 217.8433 65.67401 M 183.9022 99.61517 L 186.1983 94.0719 L 186.1983 88.0719 M 186.1983 94.0719 L 188.4944 88.52863 L 192.737 84.28598 M 188.4944 88.52863 L 190.7905 82.98535 L 195.0331 78.74271 L 197.3292 73.19943 M 195.0331 78.74271 L 199.2757 74.50006 L 204.819 72.20395 M 199.2757 74.50006 L 203.5184 70.25742 M 190.7905 82.98535 L 193.0865 77.44208 L 193.0865 71.44208 M 193.0865 77.44208 L 195.3826 71.8988 L 199.6253 67.65616 M 195.3826 71.8988 L 197.6787 66.35553 M 110.4271 276.9999 L 110.4271 270.9999 L 112.7232 265.4567 M 110.4271 270.9999 L 110.4271 264.9999 L 108.131 259.4567 L 103.8883 255.214 M 108.131 259.4567 L 105.8349 253.9134 L 105.8349 247.9134 M 105.8349 253.9134 L 103.5388 248.3701 M 110.4271 264.9999 L 110.4271 258.9999 L 108.131 253.4567 M 110.4271 258.9999 L 110.4271 253 L 112.7232 247.4567 L 116.9658 243.214 M 112.7232 247.4567 L 115.0193 241.9134 L 115.0193 235.9134 L 112.7232 230.3701 M 115.0193 235.9134 L 115.0193 229.9134 M 115.0193 241.9134 L 117.3154 236.3701 L 121.558 232.1275 M 117.3154 236.3701 L 119.6115 230.8269 M 110.4271 253 L 110.4271 247 L 108.131 241.4567 M 110.4271 247 L 110.4271 241 L 112.7232 235.4567 M 110.4271 241 L 110.4271 235 L 108.131 229.4567 L 103.8883 225.214 M 108.131 229.4567 L 105.8349 223.9134 M 110.4271 235 L 110.4271 229 L 108.131 223.4567 M 110.4271 229 L 110.4271 223 L 112.7232 217.4567 M 110.4271 223 L 110.4271 217 L 108.131 211.4567 L 103.8883 207.214 M 108.131 211.4567 L 105.8349 205.9134 L 105.8349 199.9134 L 108.131 194.3701 M 105.8349 199.9134 L 105.8349 193.9134 M 105.8349 205.9134 L 103.5388 200.3701 L 99.29613 196.1275 M 103.5388 200.3701 L 101.2427 194.8268 L 101.2427 188.8268 M 101.2427 194.8268 L 98.94659 189.2836 L 94.70394 185.0409 L 89.16066 182.7448 M 94.70394 185.0409 L 90.4613 180.7983 L 88.1652 175.255 M 90.4613 180.7983 L 86.21867 176.5556 L 83.92256 171.0124 L 79.67992 166.7697 M 83.92256 171.0124 L 81.62646 165.4691 M 86.21867 176.5556 L 81.97604 172.313 L 76.43275 170.0169 M 81.97604 172.313 L 77.73338 168.0703 L 75.43728 162.5271 M 77.73338 168.0703 L 73.49074 163.8277 M 98.94659 189.2836 L 96.65048 183.7403 L 92.40784 179.4977 M 96.65048 183.7403 L 94.35439 178.197 L 90.11174 173.9544 L 84.56847 171.6583 M 90.11174 173.9544 L 85.86911 169.7117 L 83.57301 164.1685 M 85.86911 169.7117 L 81.62647 165.4691 M 94.35439 178.197 L 92.0583 172.6537 L 87.81565 168.4111 M 92.0583 172.6537 L 89.76219 167.1105 L 89.76219 161.1105 L 92.0583 155.5672 M 89.76219 161.1105 L 89.76219 155.1105 M 89.76219 167.1105 L 87.46609 161.5672 L 83.22345 157.3246 M 87.46609 161.5672 L 85.17001 156.0239 L 85.17001 150.0239 M 85.17001 156.0239 L 82.8739 150.4807 M 110.4271 217 L 110.4271 211 L 112.7232 205.4567 M 110.4271 211 L 110.4271 205 L 108.131 199.4567 L 103.8883 195.214 M 108.131 199.4567 L 105.8349 193.9134 M 110.4271 205 L 110.4271 199 L 108.131 193.4567 M 110.4271 199 L 110.4271 192.9999 L 112.7232 187.4567 L 112.7232 181.4567 M 112.7232 187.4567 L 115.0193 181.9134 L 119.2619 177.6707 M 115.0193 181.9134 L 117.3154 176.3701 M 110.4271 192.9999 L 110.4271 186.9999 L 112.7232 181.4567 M 110.4271 186.9999 L 110.4271 180.9999 L 108.131 175.4567 L 103.8883 171.214 M 108.131 175.4567 L 105.8349 169.9134 L 105.8349 163.9134 M 105.8349 169.9134 L 103.5388 164.3701 L 99.29613 160.1275 L 97.00003 154.5842 M 99.29613 160.1275 L 95.05349 155.8848 M 103.5388 164.3701 L 101.2427 158.8268 L 101.2427 152.8268 M 101.2427 158.8268 L 98.94659 153.2836 M 110.4271 180.9999 L 110.4271 174.9999 L 108.131 169.4567 M 110.4271 174.9999 L 110.4271 168.9999 L 112.7232 163.4567 M 110.4271 168.9999 L 110.4271 162.9999 L 108.131 157.4567 L 108.131 151.4567 M 108.131 157.4567 L 105.8349 151.9134 M 110.4271 162.9999 L 110.4271 156.9999 L 112.7232 151.4567 M 110.4271 156.9999 L 110.4271 150.9999 M 206.4271 451 L 206.4271 445 L 208.7232 439.4567 M 206.4271 445 L 206.4271 439 L 204.131 433.4567 L 204.131 427.4567 M 204.131 433.4567 L 201.8349 427.9134 M 206.4271 439 L 206.4271 433 L 204.131 427.4567 M 206.4271 433 L 206.4271 427 L 208.7232 421.4567 L 212.9658 417.2141 M 208.7232 421.4567 L 211.0193 415.9134 M 206.4271 427 L 206.4271 421 L 208.7232 415.4567 M 206.4271 421 L 206.4271 415 L 204.131 409.4567 L 204.131 403.4567 M 204.131 409.4567 L 201.8349 403.9134 L 197.5922 399.6708 L 192.049 397.3747 M 197.5922 399.6708 L 193.3496 395.4281 L 191.0535 389.8849 M 193.3496 395.4281 L 189.1069 391.1855 M 201.8349 403.9134 L 199.5388 398.3701 L 195.2961 394.1275 M 199.5388 398.3701 L 197.2427 392.8268 L 197.2427 386.8268 L 199.5388 381.2836 M 197.2427 386.8268 L 197.2427 380.8268 M 197.2427 392.8268 L 194.9466 387.2836 L 190.7039 383.041 M 194.9466 387.2836 L 192.6505 381.7403 L 192.6505 375.7403 M 192.6505 381.7403 L 190.3544 376.197 M 206.4271 415 L 206.4271 409 L 208.7232 403.4567 M 206.4271 409 L 206.4271 403 L 204.131 397.4567 L 199.8883 393.2141 M 204.131 397.4567 L 201.8349 391.9134 L 201.8349 385.9134 M 201.8349 391.9134 L 199.5388 386.3701 M 206.4271 403 L 206.4271 397 L 208.7232 391.4567 M 206.4271 397 L 206.4271 391 L 208.7232 385.4567 L 212.9658 381.2141 M 208.7232 385.4567 L 211.0193 379.9134 M 206.4271 391 L 206.4271 385 L 204.131 379.4567 M 206.4271 385 L 206.4271 379 L 208.7232 373.4567 L 208.7232 367.4567 M 208.7232 373.4567 L 211.0193 367.9134 L 215.2619 363.6708 M 211.0193 367.9134 L 213.3154 362.3701 L 213.3154 356.3701 L 211.0193 350.8269 M 213.3154 356.3701 L 213.3154 350.3701 M 213.3154 362.3701 L 215.6115 356.8269 L 215.6115 350.8269 M 215.6115 356.8269 L 217.9075 351.2836 L 222.1502 347.041 M 217.9075 351.2836 L 220.2036 345.7403 L 224.4463 341.4977 L 226.7424 335.9544 M 224.4463 341.4977 L 228.6889 337.2551 M 220.2036 345.7403 L 222.4997 340.1971 L 222.4997 334.1971 M 222.4997 340.1971 L 224.7958 334.6538 L 229.0385 330.4111 M 224.7958 334.6538 L 227.0919 329.1105 M 206.4271 379 L 206.4271 373 L 208.7232 367.4567 M 206.4271 373 L 206.4271 367 L 204.131 361.4567 L 199.8883 357.2141 M 204.131 361.4567 L 201.8349 355.9134 L 201.8349 349.9134 M 201.8349 355.9134 L 199.5388 350.3701 M 206.4271 367 L 206.4271 361 L 208.7232 355.4567 M 206.4271 361 L 206.4271 355 L 204.131 349.4567 L 199.8883 345.2141 M 204.131 349.4567 L 201.8349 343.9134 L 197.5922 339.6708 L 192.049 337.3747 M 197.5922 339.6708 L 193.3496 335.4282 M 201.8349 343.9134 L 199.5388 338.3701 L 199.5388 332.3701 M 199.5388 338.3701 L 197.2427 332.8269 L 193 328.5842 L 187.4568 326.2881 M 193 328.5842 L 188.7574 324.3416 L 183.2141 322.0455 L 177.2141 322.0455 M 183.2141 322.0455 L 177.6708 319.7494 L 173.4282 315.5068 M 177.6708 319.7494 L 172.1276 317.4533 M 188.7574 324.3416 L 184.5147 320.0989 L 178.9715 317.8029 M 184.5147 320.0989 L 180.2721 315.8563 L 177.976 310.313 M 180.2721 315.8563 L 176.0294 311.6136 L 173.7334 306.0704 L 169.4907 301.8278 M 173.7334 306.0704 L 171.4373 300.5271 L 171.4373 294.5271 M 171.4373 300.5271 L 169.1412 294.9838 M 176.0294 311.6136 L 171.7868 307.371 L 166.2435 305.0749 M 171.7868 307.371 L 167.5442 303.1284 L 165.2481 297.5851 M 167.5442 303.1284 L 163.3015 298.8857 M 197.2427 332.8269 L 194.9466 327.2836 L 190.7039 323.041 M 194.9466 327.2836 L 192.6505 321.7403 L 192.6505 315.7403 M 192.6505 321.7403 L 190.3544 316.1971 L 186.1117 311.9544 L 180.5685 309.6583 M 186.1117 311.9544 L 181.8691 307.7118 M 190.3544 316.1971 L 188.0583 310.6538 L 183.8156 306.4111 M 188.0583 310.6538 L 185.7622 305.1105 L 185.7622 299.1105 L 183.4661 293.5672 M 185.7622 299.1105 L 185.7622 293.1105 L 188.0583 287.5672 M 185.7622 293.1105 L 185.7622 287.1105 L 188.0583 281.5672 L 188.0583 275.5672 M 188.0583 281.5672 L 190.3544 276.024 L 194.597 271.7813 M 190.3544 276.024 L 192.6505 270.4807 M 185.7622 287.1105 L 185.7622 281.1105 L 188.0583 275.5672 M 185.7622 281.1105 L 185.7622 275.1105 M 185.7622 305.1105 L 183.4661 299.5672 L 183.4661 293.5672 M 183.4661 299.5672 L 181.17 294.024 L 176.9274 289.7813 L 171.3841 287.4852 M 176.9274 289.7813 L 172.6847 285.5387 M 181.17 294.024 L 178.8739 288.4807 L 178.8739 282.4807 M 178.8739 288.4807 L 176.5778 282.9374 L 176.5778 276.9374 L 174.2817 271.3941 M 176.5778 276.9374 L 176.5778 270.9374 L 178.8739 265.3941 M 176.5778 270.9374 L 176.5778 264.9374 M 176.5778 282.9374 L 174.2817 277.3941 L 170.0391 273.1515 M 174.2817 277.3941 L 171.9856 271.8509 L 171.9856 265.8509 M 171.9856 271.8509 L 169.6895 266.3076 M 206.4271 355 L 206.4271 349 L 204.131 343.4567 M 206.4271 349 L 206.4271 343 L 208.7232 337.4567 M 206.4271 343 L 206.4271 337 L 208.7232 331.4567 L 208.7232 325.4567 M 208.7232 331.4567 L 211.0193 325.9134 L 215.2619 321.6708 M 211.0193 325.9134 L 213.3154 320.3701 M 206.4271 337 L 206.4271 331 L 208.7232 325.4567 M 206.4271 331 L 206.4271 325 L 204.131 319.4567 L 199.8883 315.2141 M 204.131 319.4567 L 201.8349 313.9134 L 197.5922 309.6708 L 192.049 307.3747 M 197.5922 309.6708 L 193.3496 305.4281 M 201.8349 313.9134 L 199.5388 308.3701 L 195.2961 304.1275 M 199.5388 308.3701 L 197.2427 302.8269 L 197.2427 296.8269 M 197.2427 302.8269 L 194.9466 297.2836 L 194.9466 291.2836 L 192.6505 285.7403 M 194.9466 291.2836 L 194.9466 285.2836 L 197.2427 279.7403 M 194.9466 285.2836 L 194.9466 279.2836 M 194.9466 297.2836 L 192.6505 291.7403 L 188.4078 287.4977 M 192.6505 291.7403 L 190.3544 286.1971 L 190.3544 280.1971 M 190.3544 286.1971 L 188.0583 280.6538 M 206.4271 325 L 206.4271 319 L 204.131 313.4567 M 206.4271 319 L 206.4271 313 L 208.7232 307.4567 M 206.4271 313 L 206.4271 307 L 204.131 301.4567 L 204.131 295.4567 M 204.131 301.4567 L 201.8349 295.9134 M 206.4271 307 L 206.4271 301 L 208.7232 295.4567 M 206.4271 301 L 206.4271 295 L 208.7232 289.4567 L 208.7232 283.4567 M 208.7232 289.4567 L 211.0193 283.9134 L 215.2619 279.6708 L 217.558 274.1275 M 215.2619 279.6708 L 219.5045 275.4281 L 225.0478 273.132 M 219.5045 275.4281 L 223.7472 271.1855 M 211.0193 283.9134 L 213.3154 278.3701 L 213.3154 272.3701 M 213.3154 278.3701 L 215.6115 272.8269 L 219.8541 268.5842 L 225.3974 266.2881 M 219.8541 268.5842 L 224.0967 264.3416 L 229.64 262.0455 L 233.8827 257.8029 M 229.64 262.0455 L 235.1833 259.7494 L 241.1833 259.7494 M 235.1833 259.7494 L 240.7266 257.4533 M 224.0967 264.3416 L 228.3394 260.0989 L 230.6355 254.5557 M 228.3394 260.0989 L 232.582 255.8563 M 215.6115 272.8269 L 217.9075 267.2836 L 222.1502 263.041 M 217.9075 267.2836 L 220.2036 261.7403 L 220.2036 255.7403 L 217.9075 250.1971 M 220.2036 255.7403 L 220.2036 249.7403 M 220.2036 261.7403 L 222.4997 256.1971 L 222.4997 250.1971 M 222.4997 256.1971 L 224.7958 250.6538 L 229.0385 246.4111 M 224.7958 250.6538 L 227.0919 245.1105 L 231.3346 240.8679 L 233.6307 235.3246 M 231.3346 240.8679 L 235.5772 236.6252 M 227.0919 245.1105 L 229.388 239.5672 L 229.388 233.5672 M 229.388 239.5672 L 231.6841 234.024 L 231.6841 228.024 L 233.9802 222.4807 M 231.6841 228.024 L 231.6841 222.024 L 229.388 216.4807 L 229.388 210.4807 M 229.388 216.4807 L 227.0919 210.9374 M 231.6841 222.024 L 231.6841 216.024 L 233.9802 210.4807 M 231.6841 216.024 L 231.6841 210.024 L 229.388 204.4807 L 225.1454 200.238 M 229.388 204.4807 L 227.0919 198.9374 L 222.8493 194.6948 L 220.5532 189.1515 M 222.8493 194.6948 L 218.6066 190.4521 M 227.0919 198.9374 L 224.7958 193.3941 L 220.5532 189.1515 M 224.7958 193.3941 L 222.4997 187.8509 L 222.4997 181.8509 M 222.4997 187.8509 L 220.2036 182.3076 L 220.2036 176.3076 L 217.9075 170.7643 M 220.2036 176.3076 L 220.2036 170.3076 L 222.4997 164.7643 M 220.2036 170.3076 L 220.2036 164.3076 M 220.2036 182.3076 L 217.9075 176.7643 L 217.9075 170.7643 M 217.9075 176.7643 L 215.6115 171.221 M 231.6841 210.024 L 231.6841 204.024 L 229.388 198.4807 M 231.6841 204.024 L 231.6841 198.024 L 233.9802 192.4807 L 238.2229 188.238 M 233.9802 192.4807 L 236.2763 186.9374 M 231.6841 198.024 L 231.6841 192.024 L 229.388 186.4807 M 231.6841 192.024 L 231.6841 186.024 L 233.9802 180.4807 M 231.6841 186.024 L 231.6841 180.024 M 231.6841 234.024 L 233.9802 228.4807 L 238.2229 224.238 M 233.9802 228.4807 L 236.2763 222.9374 L 236.2763 216.9374 L 233.9802 211.3941 M 236.2763 216.9374 L 236.2763 210.9374 L 238.5724 205.3941 M 236.2763 210.9374 L 236.2763 204.9374 M 236.2763 222.9374 L 238.5724 217.3941 L 242.8151 213.1515 M 238.5724 217.3941 L 240.8685 211.8509 L 240.8685 205.8509 L 238.5724 200.3076 M 240.8685 205.8509 L 240.8685 199.8509 L 243.1646 194.3076 L 247.4073 190.0649 M 243.1646 194.3076 L 245.4607 188.7643 M 240.8685 199.8509 L 240.8685 193.8509 L 238.5724 188.3076 M 240.8685 193.8509 L 240.8685 187.8509 M 240.8685 211.8509 L 243.1646 206.3076 L 243.1646 200.3076 M 243.1646 206.3076 L 245.4607 200.7643 L 249.7034 196.5217 M 245.4607 200.7643 L 247.7568 195.221 L 247.7568 189.221 L 250.0529 183.6778 M 247.7568 189.221 L 247.7568 183.221 M 247.7568 195.221 L 250.0529 189.6778 L 250.0529 183.6778 M 250.0529 189.6778 L 252.349 184.1345 L 256.5916 179.8918 M 252.349 184.1345 L 254.6451 178.5912 L 258.8877 174.3486 L 261.1838 168.8053 M 258.8877 174.3486 L 263.1304 170.1059 L 268.6736 167.8098 M 263.1304 170.1059 L 267.373 165.8633 M 254.6451 178.5912 L 256.9412 173.0479 L 256.9412 167.0479 M 256.9412 173.0479 L 259.2373 167.5047 M 206.4271 295 L 206.4271 289 L 204.131 283.4567 M 206.4271 289 L 206.4271 283 L 204.131 277.4567 L 204.131 271.4567 M 204.131 277.4567 L 201.8349 271.9134 M 206.4271 283 L 206.4271 277 L 204.131 271.4567 M 206.4271 277 L 206.4271 271 L 204.131 265.4567 L 199.8883 261.2141 M 204.131 265.4567 L 201.8349 259.9134 L 201.8349 253.9134 L 199.5388 248.3701 M 201.8349 253.9134 L 201.8349 247.9134 M 201.8349 259.9134 L 199.5388 254.3701 L 195.2961 250.1275 M 199.5388 254.3701 L 197.2427 248.8269 M 206.4271 271 L 206.4271 265 L 204.131 259.4567 M 206.4271 265 L 206.4271 259 L 208.7232 253.4567 L 212.9658 249.2141 M 208.7232 253.4567 L 211.0193 247.9134 M 206.4271 259 L 206.4271 253 L 204.131 247.4567 M 206.4271 253 L 206.4271 247 L 208.7232 241.4567 L 212.9658 237.2141 M 208.7232 241.4567 L 211.0193 235.9134 L 215.2619 231.6708 L 220.8052 229.3747 M 215.2619 231.6708 L 219.5045 227.4281 M 211.0193 235.9134 L 213.3154 230.3701 L 213.3154 224.3701 M 213.3154 230.3701 L 215.6115 224.8269 M 206.4271 247 L 206.4271 241 L 204.131 235.4567 M 206.4271 241 L 206.4271 235 L 208.7232 229.4567 M 206.4271 235 L 206.4271 229 L 204.131 223.4567 L 199.8883 219.2141 M 204.131 223.4567 L 201.8349 217.9134 L 201.8349 211.9134 M 201.8349 217.9134 L 199.5388 212.3701 M 206.4271 229 L 206.4271 223 L 204.131 217.4567 M 206.4271 223 L 206.4271 217 L 208.7232 211.4567 L 212.9658 207.2141 M 208.7232 211.4567 L 211.0193 205.9134 M 206.4271 217 L 206.4271 211 L 204.131 205.4567 M 206.4271 211 L 206.4271 205 L 208.7232 199.4567 L 212.9658 195.2141 M 208.7232 199.4567 L 211.0193 193.9134 L 211.0193 187.9134 L 213.3154 182.3701 M 211.0193 187.9134 L 211.0193 181.9134 M 211.0193 193.9134 L 213.3154 188.3701 L 213.3154 182.3701 M 213.3154 188.3701 L 215.6115 182.8269 L 219.8541 178.5842 L 222.1502 173.041 M 219.8541 178.5842 L 224.0967 174.3416 L 229.64 172.0455 M 224.0967 174.3416 L 228.3394 170.0989 M 215.6115 182.8269 L 217.9075 177.2836 L 217.9075 171.2836 M 217.9075 177.2836 L 220.2036 171.7403 L 224.4463 167.4977 M 220.2036 171.7403 L 222.4997 166.1971 L 226.7424 161.9544 L 229.0385 156.4111 M 226.7424 161.9544 L 230.985 157.7118 L 236.5283 155.4156 L 240.771 151.173 M 236.5283 155.4156 L 242.0716 153.1195 L 248.0716 153.1195 M 242.0716 153.1195 L 247.6149 150.8234 M 230.985 157.7118 L 235.2277 153.4691 L 237.5238 147.9258 M 235.2277 153.4691 L 239.4703 149.2265 L 245.0136 146.9304 M 239.4703 149.2265 L 243.713 144.9838 M 222.4997 166.1971 L 224.7958 160.6538 L 229.0385 156.4111 M 224.7958 160.6538 L 227.0919 155.1105 L 227.0919 149.1105 L 224.7958 143.5672 M 227.0919 149.1105 L 227.0919 143.1105 M 227.0919 155.1105 L 229.388 149.5672 L 229.388 143.5672 M 229.388 149.5672 L 231.6841 144.024 L 235.9268 139.7813 L 238.2229 134.238 M 235.9268 139.7813 L 240.1694 135.5387 L 245.7127 133.2426 M 240.1694 135.5387 L 244.4121 131.296 M 231.6841 144.024 L 233.9802 138.4807 L 233.9802 132.4807 M 233.9802 138.4807 L 236.2763 132.9374 L 240.519 128.6948 M 236.2763 132.9374 L 238.5724 127.3941 M 206.4271 205 L 206.4271 199 L 204.131 193.4567 M 206.4271 199 L 206.4271 193 L 208.7232 187.4567 M 206.4271 193 L 206.4271 187 L 208.7232 181.4567 L 208.7232 175.4567 M 208.7232 181.4567 L 211.0193 175.9134 L 215.2619 171.6708 M 211.0193 175.9134 L 213.3154 170.3701 M 206.4271 187 L 206.4271 181 L 204.131 175.4567 M 206.4271 181 L 206.4271 175 L 208.7232 169.4567 L 208.7232 163.4567 M 208.7232 169.4567 L 211.0193 163.9134 L 211.0193 157.9134 L 208.7232 152.3701 M 211.0193 157.9134 L 211.0193 151.9134 L 213.3154 146.3701 M 211.0193 151.9134 L 211.0193 145.9134 M 211.0193 163.9134 L 213.3154 158.3701 L 217.558 154.1275 M 213.3154 158.3701 L 215.6115 152.8269 M 206.4271 175 L 206.4271 169 L 204.131 163.4567 M 206.4271 169 L 206.4271 163 L 208.7232 157.4567 M 206.4271 163 L 206.4271 157 L 208.7232 151.4567 L 208.7232 145.4567 M 208.7232 151.4567 L 211.0193 145.9134 L 215.2619 141.6708 M 211.0193 145.9134 L 213.3154 140.3701 M 206.4271 157 L 206.4271 151 L 208.7232 145.4567 M 206.4271 151 L 206.4271 145 M 302.4271 451 L 302.4271 445 L 300.131 439.4567 M 302.4271 445 L 302.4271 439 L 300.131 433.4567 L 295.8883 429.2141 M 300.131 433.4567 L 297.8348 427.9134 L 297.8348 421.9134 M 297.8348 427.9134 L 295.5387 422.3701 M 302.4271 439 L 302.4271 433 L 304.7232 427.4567 M 302.4271 433 L 302.4271 427 L 304.7232 421.4567 L 304.7232 415.4567 M 304.7232 421.4567 L 307.0193 415.9134 L 311.2619 411.6708 M 307.0193 415.9134 L 309.3154 410.3701 L 309.3154 404.3701 L 307.0193 398.8269 M 309.3154 404.3701 L 309.3154 398.3701 L 311.6115 392.8269 M 309.3154 398.3701 L 309.3154 392.3701 M 309.3154 410.3701 L 311.6115 404.8269 L 311.6115 398.8269 M 311.6115 404.8269 L 313.9076 399.2836 L 318.1503 395.041 M 313.9076 399.2836 L 316.2037 393.7403 M 302.4271 427 L 302.4271 421 L 304.7232 415.4567 M 302.4271 421 L 302.4271 415 L 304.7232 409.4567 L 308.9658 405.2141 M 304.7232 409.4567 L 307.0193 403.9134 M 302.4271 415 L 302.4271 409 L 300.131 403.4567 M 302.4271 409 L 302.4271 403 L 300.131 397.4567 L 295.8883 393.2141 M 300.131 397.4567 L 297.8348 391.9134 L 297.8348 385.9134 M 297.8348 391.9134 L 295.5387 386.3701 L 291.2961 382.1275 L 285.7528 379.8314 M 291.2961 382.1275 L 287.0534 377.8849 M 295.5387 386.3701 L 293.2426 380.8269 L 293.2426 374.8269 M 293.2426 380.8269 L 290.9465 375.2836 L 290.9465 369.2836 L 293.2426 363.7403 M 290.9465 369.2836 L 290.9465 363.2836 M 290.9465 375.2836 L 288.6504 369.7403 L 284.4077 365.4977 M 288.6504 369.7403 L 286.3543 364.1971 L 286.3543 358.1971 M 286.3543 364.1971 L 284.0582 358.6538 L 284.0582 352.6538 L 286.3543 347.1105 M 284.0582 352.6538 L 284.0582 346.6538 L 286.3543 341.1105 L 286.3543 335.1105 M 286.3543 341.1105 L 288.6504 335.5672 L 292.893 331.3246 M 288.6504 335.5672 L 290.9465 330.024 M 284.0582 346.6538 L 284.0582 340.6538 L 281.7621 335.1105 M 284.0582 340.6538 L 284.0582 334.6538 M 284.0582 358.6538 L 281.7621 353.1105 L 277.5194 348.8679 M 281.7621 353.1105 L 279.4659 347.5672 L 275.2233 343.3246 L 269.68 341.0285 M 275.2233 343.3246 L 270.9807 339.082 L 268.6845 333.5387 M 270.9807 339.082 L 266.738 334.8393 M 279.4659 347.5672 L 277.1698 342.024 L 272.9272 337.7813 M 277.1698 342.024 L 274.8737 336.4807 L 274.8737 330.4807 L 272.5776 324.9374 M 274.8737 330.4807 L 274.8737 324.4807 M 274.8737 336.4807 L 272.5776 330.9374 L 268.335 326.6948 M 272.5776 330.9374 L 270.2815 325.3941 L 270.2815 319.3941 M 270.2815 325.3941 L 267.9854 319.8509 M 302.4271 403 L 302.4271 397 L 300.131 391.4567 M 302.4271 397 L 302.4271 391 L 304.7232 385.4567 M 302.4271 391 L 302.4271 385 L 300.131 379.4567 L 295.8883 375.2141 M 300.131 379.4567 L 297.8348 373.9135 M 302.4271 385 L 302.4271 379 L 300.131 373.4567 M 302.4271 379 L 302.4271 373 L 304.7232 367.4567 M 302.4271 373 L 302.4271 367 L 304.7232 361.4567 L 308.9658 357.2141 M 304.7232 361.4567 L 307.0193 355.9135 M 302.4271 367 L 302.4271 361 L 300.131 355.4567 M 302.4271 361 L 302.4271 355 L 304.7232 349.4567 L 304.7232 343.4567 M 304.7232 349.4567 L 307.0193 343.9135 L 311.2619 339.6708 M 307.0193 343.9135 L 309.3154 338.3701 L 309.3154 332.3701 L 307.0193 326.8269 M 309.3154 332.3701 L 309.3154 326.3701 M 309.3154 338.3701 L 311.6115 332.8269 L 315.8542 328.5843 M 311.6115 332.8269 L 313.9076 327.2836 M 302.4271 355 L 302.4271 349 L 304.7232 343.4567 M 302.4271 349 L 302.4271 343 L 300.131 337.4567 L 300.131 331.4567 M 300.131 337.4567 L 297.8348 331.9135 M 302.4271 343 L 302.4271 337 L 300.131 331.4567 M 302.4271 337 L 302.4271 331 L 304.7232 325.4567 M 302.4271 331 L 302.4271 325 L 304.7232 319.4567 L 304.7232 313.4567 M 304.7232 319.4567 L 307.0193 313.9135 L 311.2619 309.6708 M 307.0193 313.9135 L 309.3154 308.3702 L 309.3154 302.3702 L 307.0193 296.8269 M 309.3154 302.3702 L 309.3154 296.3702 L 311.6115 290.8269 M 309.3154 296.3702 L 309.3154 290.3702 M 309.3154 308.3702 L 311.6115 302.8269 L 311.6115 296.8269 M 311.6115 302.8269 L 313.9076 297.2836 L 318.1503 293.041 M 313.9076 297.2836 L 316.2037 291.7404 L 320.4464 287.4977 L 322.7425 281.9544 M 320.4464 287.4977 L 324.689 283.2551 M 316.2037 291.7404 L 318.4998 286.1971 L 322.7425 281.9544 M 318.4998 286.1971 L 320.796 280.6538 L 320.796 274.6538 L 318.4998 269.1105 M 320.796 274.6538 L 320.796 268.6538 L 323.0921 263.1105 M 320.796 268.6538 L 320.796 262.6538 L 318.4998 257.1105 L 318.4998 251.1105 M 318.4998 257.1105 L 316.2037 251.5672 M 320.796 262.6538 L 320.796 256.6538 L 318.4998 251.1105 M 320.796 256.6538 L 320.796 250.6538 L 323.0921 245.1105 L 323.0921 239.1105 M 323.0921 245.1105 L 325.3882 239.5672 L 329.6308 235.3246 M 325.3882 239.5672 L 327.6843 234.024 M 320.796 250.6538 L 320.796 244.6538 L 318.4998 239.1105 M 320.796 244.6538 L 320.796 238.6538 L 323.0921 233.1105 M 320.796 238.6538 L 320.796 232.6538 M 320.796 280.6538 L 323.0921 275.1105 L 323.0921 269.1105 M 323.0921 275.1105 L 325.3882 269.5673 L 329.6308 265.3246 M 325.3882 269.5673 L 327.6843 264.024 L 327.6843 258.024 L 325.3882 252.4807 M 327.6843 258.024 L 327.6843 252.024 M 327.6843 264.024 L 329.9804 258.4807 L 329.9804 252.4807 M 329.9804 258.4807 L 332.2765 252.9374 L 336.5192 248.6948 L 338.8153 243.1515 M 336.5192 248.6948 L 340.7618 244.4521 M 332.2765 252.9374 L 334.5726 247.3941 L 338.8153 243.1515 M 334.5726 247.3941 L 336.8687 241.8509 M 302.4271 325 L 302.4271 319 L 300.131 313.4567 M 302.4271 319 L 302.4271 313 L 304.7232 307.4567 L 304.7232 301.4567 M 304.7232 307.4567 L 307.0193 301.9135 L 311.2619 297.6708 M 307.0193 301.9135 L 309.3154 296.3702 M 302.4271 313 L 302.4271 307 L 304.7232 301.4567 M 302.4271 307 L 302.4271 301 L 300.131 295.4567 L 295.8883 291.2141 M 300.131 295.4567 L 297.8348 289.9135 L 297.8348 283.9135 M 297.8348 289.9135 L 295.5387 284.3702 L 291.2961 280.1275 L 289 274.5842 M 291.2961 280.1275 L 287.0534 275.8849 M 295.5387 284.3702 L 293.2426 278.8269 L 293.2426 272.8269 M 293.2426 278.8269 L 290.9465 273.2836 L 290.9465 267.2836 L 288.6504 261.7404 M 290.9465 267.2836 L 290.9465 261.2836 L 293.2426 255.7403 M 290.9465 261.2836 L 290.9465 255.2836 M 290.9465 273.2836 L 288.6504 267.7404 L 284.4077 263.4977 M 288.6504 267.7404 L 286.3543 262.1971 M 302.4271 301 L 302.4271 295 L 300.131 289.4567 M 302.4271 295 L 302.4271 289 L 304.7232 283.4567 M 302.4271 289 L 302.4271 283 L 300.131 277.4567 L 295.8883 273.2141 M 300.131 277.4567 L 297.8348 271.9135 L 297.8348 265.9135 M 297.8348 271.9135 L 295.5387 266.3702 M 302.4271 283 L 302.4271 277 L 304.7232 271.4567 M 302.4271 277 L 302.4271 271 L 304.7232 265.4567 L 304.7232 259.4567 M 304.7232 265.4567 L 307.0193 259.9135 L 307.0193 253.9134 L 309.3154 248.3702 M 307.0193 253.9134 L 307.0193 247.9134 M 307.0193 259.9135 L 309.3154 254.3702 L 313.558 250.1275 M 309.3154 254.3702 L 311.6115 248.8269 M 302.4271 271 L 302.4271 265 L 300.131 259.4567 M 302.4271 265 L 302.4271 259 L 304.7232 253.4567 M 302.4271 259 L 302.4271 253 L 300.131 247.4567 L 295.8883 243.2141 M 300.131 247.4567 L 297.8348 241.9134 M 302.4271 253 L 302.4271 247 L 300.131 241.4567 M 302.4271 247 L 302.4271 241 L 300.131 235.4567 L 300.131 229.4567 M 300.131 235.4567 L 297.8348 229.9134 L 293.5922 225.6708 L 288.0489 223.3747 M 293.5922 225.6708 L 289.3495 221.4281 M 297.8348 229.9134 L 295.5387 224.3702 L 291.2961 220.1275 M 295.5387 224.3702 L 293.2426 218.8269 L 293.2426 212.8269 L 290.9465 207.2836 M 293.2426 212.8269 L 293.2426 206.8269 L 295.5387 201.2836 M 293.2426 206.8269 L 293.2426 200.8269 L 290.9465 195.2836 L 286.7039 191.041 M 290.9465 195.2836 L 288.6504 189.7403 M 293.2426 200.8269 L 293.2426 194.8269 L 295.5387 189.2836 M 293.2426 194.8269 L 293.2426 188.8269 L 295.5387 183.2836 L 295.5387 177.2836 M 295.5387 183.2836 L 297.8348 177.7404 M 293.2426 188.8269 L 293.2426 182.8269 L 290.9465 177.2836 M 293.2426 182.8269 L 293.2426 176.8269 L 295.5387 171.2836 M 293.2426 176.8269 L 293.2426 170.8269 M 293.2426 218.8269 L 290.9465 213.2836 L 286.7039 209.041 M 290.9465 213.2836 L 288.6504 207.7403 L 284.4077 203.4977 L 282.1116 197.9544 M 284.4077 203.4977 L 280.1651 199.2551 M 288.6504 207.7403 L 286.3543 202.1971 L 282.1116 197.9544 M 286.3543 202.1971 L 284.0582 196.6538 L 284.0582 190.6538 L 281.7621 185.1105 M 284.0582 190.6538 L 284.0582 184.6538 L 286.3543 179.1105 M 284.0582 184.6538 L 284.0582 178.6538 M 284.0582 196.6538 L 281.7621 191.1105 L 281.7621 185.1105 M 281.7621 191.1105 L 279.4659 185.5672 L 279.4659 179.5672 L 281.7621 174.024 M 279.4659 179.5672 L 279.4659 173.5672 L 281.7621 168.024 L 286.0047 163.7813 M 281.7621 168.024 L 284.0582 162.4807 M 279.4659 173.5672 L 279.4659 167.5672 L 277.1698 162.024 M 279.4659 167.5672 L 279.4659 161.5672 L 281.7621 156.024 M 279.4659 161.5672 L 279.4659 155.5672 L 281.7621 150.024 L 281.7621 144.024 M 281.7621 150.024 L 284.0582 144.4807 L 288.3008 140.238 L 290.5969 134.6948 M 288.3008 140.238 L 292.5435 135.9954 M 284.0582 144.4807 L 286.3543 138.9374 L 286.3543 132.9374 M 286.3543 138.9374 L 288.6504 133.3941 M 279.4659 155.5672 L 279.4659 149.5672 L 277.1698 144.024 M 279.4659 149.5672 L 279.4659 143.5672 L 281.7621 138.024 M 279.4659 143.5672 L 279.4659 137.5672 L 281.7621 132.024 L 281.7621 126.024 M 281.7621 132.024 L 284.0582 126.4807 M 279.4659 137.5672 L 279.4659 131.5672 L 281.7621 126.024 M 279.4659 131.5672 L 279.4659 125.5672 M 279.4659 185.5672 L 277.1698 180.024 L 272.9272 175.7813 M 277.1698 180.024 L 274.8737 174.4807 L 270.6311 170.238 L 265.0878 167.9419 M 270.6311 170.238 L 266.3884 165.9954 L 264.0923 160.4521 M 266.3884 165.9954 L 262.1458 161.7527 M 274.8737 174.4807 L 272.5776 168.9374 L 272.5776 162.9374 M 272.5776 168.9374 L 270.2815 163.3941 L 266.0388 159.1515 L 260.4956 156.8554 M 266.0388 159.1515 L 261.7962 154.9088 L 259.5001 149.3656 M 261.7962 154.9088 L 257.5536 150.6662 L 252.0103 148.3701 L 246.0103 148.3701 M 252.0103 148.3701 L 246.467 146.074 L 242.2244 141.8313 M 246.467 146.074 L 240.9238 143.7779 M 257.5536 150.6662 L 253.3109 146.4236 L 251.0148 140.8803 M 253.3109 146.4236 L 249.0683 142.1809 L 246.7722 136.6376 L 246.7722 130.6376 M 246.7722 136.6376 L 244.4761 131.0944 M 249.0683 142.1809 L 244.8256 137.9383 L 239.2824 135.6422 M 244.8256 137.9383 L 240.583 133.6956 L 238.2869 128.1523 M 240.583 133.6956 L 236.3403 129.453 M 270.2815 163.3941 L 267.9854 157.8509 L 267.9854 151.8509 M 267.9854 157.8509 L 265.6893 152.3076 L 261.4467 148.0649 L 255.9034 145.7688 M 261.4467 148.0649 L 257.204 143.8223 L 254.9079 138.279 M 257.204 143.8223 L 252.9614 139.5797 M 265.6893 152.3076 L 263.3932 146.7643 L 259.1506 142.5217 M 263.3932 146.7643 L 261.0971 141.221 L 261.0971 135.221 L 258.801 129.6778 M 261.0971 135.221 L 261.0971 129.221 M 261.0971 141.221 L 258.801 135.6778 L 258.801 129.6778 M 258.801 135.6778 L 256.5049 130.1345 L 256.5049 124.1345 L 254.2088 118.5912 M 256.5049 124.1345 L 256.5049 118.1345 L 258.801 112.5912 M 256.5049 118.1345 L 256.5049 112.1345 L 254.2088 106.5912 L 254.2088 100.5912 M 254.2088 106.5912 L 251.9127 101.0479 M 256.5049 112.1345 L 256.5049 106.1345 L 258.801 100.5912 M 256.5049 106.1345 L 256.5049 100.1345 M 256.5049 130.1345 L 254.2088 124.5912 L 249.9662 120.3486 M 254.2088 124.5912 L 251.9127 119.0479 L 251.9127 113.0479 M 251.9127 119.0479 L 249.6166 113.5047 L 245.374 109.262 L 239.8307 106.9659 M 245.374 109.262 L 241.1313 105.0194 M 249.6166 113.5047 L 247.3205 107.9614 L 243.0779 103.7188 M 247.3205 107.9614 L 245.0244 102.4181 L 245.0244 96.41812 M 245.0244 102.4181 L 242.7283 96.87485 L 242.7283 90.87485 L 240.4323 85.33157 M 242.7283 90.87485 L 242.7283 84.87485 L 245.0244 79.33157 M 242.7283 84.87485 L 242.7283 78.87485 M 242.7283 96.87485 L 240.4323 91.33157 L 236.1896 87.08893 M 240.4323 91.33157 L 238.1362 85.7883 M 302.4271 241 L 302.4271 235 L 304.7232 229.4567 M 302.4271 235 L 302.4271 229 L 304.7232 223.4567 L 308.9658 219.2141 M 304.7232 223.4567 L 307.0193 217.9134 M 302.4271 229 L 302.4271 223 L 300.131 217.4567 M 302.4271 223 L 302.4271 217 L 304.7232 211.4567 L 304.7232 205.4567 M 304.7232 211.4567 L 307.0193 205.9134 L 311.2619 201.6708 M 307.0193 205.9134 L 309.3154 200.3702 L 309.3154 194.3702 L 307.0193 188.8269 M 309.3154 194.3702 L 309.3154 188.3702 M 309.3154 200.3702 L 311.6115 194.8269 L 311.6115 188.8269 M 311.6115 194.8269 L 313.9076 189.2836 L 318.1503 185.041 M 313.9076 189.2836 L 316.2037 183.7403 M 302.4271 217 L 302.4271 211 L 300.131 205.4567 M 302.4271 211 L 302.4271 205 L 304.7232 199.4567 M 302.4271 205 L 302.4271 199 L 300.131 193.4567 L 295.8883 189.2141 M 300.131 193.4567 L 297.8348 187.9134 L 297.8348 181.9134 M 297.8348 187.9134 L 295.5387 182.3701 M 302.4271 199 L 302.4271 193 L 300.131 187.4567 M 302.4271 193 L 302.4271 187 L 304.7232 181.4567 L 308.9658 177.2141 M 304.7232 181.4567 L 307.0193 175.9135 L 307.0193 169.9135 L 304.7232 164.3702 M 307.0193 169.9135 L 307.0193 163.9135 L 309.3154 158.3702 M 307.0193 163.9135 L 307.0193 157.9135 M 307.0193 175.9135 L 309.3154 170.3702 L 309.3154 164.3702 M 309.3154 170.3702 L 311.6115 164.8269 L 315.8542 160.5843 M 311.6115 164.8269 L 313.9076 159.2836 L 318.1503 155.041 L 323.6935 152.7449 M 318.1503 155.041 L 322.3929 150.7983 M 313.9076 159.2836 L 316.2037 153.7404 L 316.2037 147.7404 M 316.2037 153.7404 L 318.4998 148.1971 L 322.7425 143.9544 M 318.4998 148.1971 L 320.796 142.6538 L 320.796 136.6538 L 318.4998 131.1105 M 320.796 136.6538 L 320.796 130.6538 L 318.4998 125.1105 L 314.2572 120.8679 M 318.4998 125.1105 L 316.2037 119.5673 L 316.2037 113.5673 M 316.2037 119.5673 L 313.9076 114.024 M 320.796 130.6538 L 320.796 124.6538 L 318.4998 119.1105 M 320.796 124.6538 L 320.796 118.6538 M 320.796 142.6538 L 323.0921 137.1105 L 327.3347 132.8679 M 323.0921 137.1105 L 325.3882 131.5673 L 325.3882 125.5673 L 327.6843 120.024 M 325.3882 125.5673 L 325.3882 119.5673 M 325.3882 131.5673 L 327.6843 126.024 L 327.6843 120.024 M 327.6843 126.024 L 329.9804 120.4807 L 334.2231 116.2381 L 336.5192 110.6948 M 334.2231 116.2381 L 338.4657 111.9954 L 344.009 109.6993 M 338.4657 111.9954 L 342.7083 107.7528 M 329.9804 120.4807 L 332.2765 114.9374 L 332.2765 108.9374 M 332.2765 114.9374 L 334.5726 109.3942 L 338.8153 105.1515 M 334.5726 109.3942 L 336.8687 103.8509 L 341.1114 99.60825 L 343.4075 94.06497 M 341.1114 99.60825 L 345.354 95.3656 L 350.8973 93.06949 L 355.14 88.82684 M 350.8973 93.06949 L 356.4406 90.77338 M 345.354 95.3656 L 349.5967 91.12296 L 351.8928 85.57968 M 349.5967 91.12296 L 353.8393 86.88031 L 359.3826 84.5842 M 353.8393 86.88031 L 358.082 82.63766 M 336.8687 103.8509 L 339.1649 98.30762 L 339.1649 92.30762 M 339.1649 98.30762 L 341.461 92.76434 L 345.7036 88.5217 M 341.461 92.76434 L 343.7571 87.22107 L 343.7571 81.22107 L 346.0532 75.6778 M 343.7571 81.22107 L 343.7571 75.22107 M 343.7571 87.22107 L 346.0532 81.6778 L 346.0532 75.6778 M 346.0532 81.6778 L 348.3493 76.13452 L 352.5919 71.89188 M 348.3493 76.13452 L 350.6454 70.59125 M 302.4271 187 L 302.4271 181 L 300.131 175.4567 M 302.4271 181 L 302.4271 175 L 300.131 169.4567 L 295.8883 165.2141 M 300.131 169.4567 L 297.8348 163.9135 L 297.8348 157.9135 M 297.8348 163.9135 L 295.5387 158.3702 M 302.4271 175 L 302.4271 169 L 300.131 163.4567 M 302.4271 169 L 302.4271 163 L 304.7232 157.4567 M 302.4271 163 L 302.4271 157 L 304.7232 151.4567 L 304.7232 145.4567 M 304.7232 151.4567 L 307.0193 145.9135 L 311.2619 141.6708 M 307.0193 145.9135 L 309.3154 140.3702 M 302.4271 157 L 302.4271 151 L 300.131 145.4567 M 302.4271 151 L 302.4271 145 L 300.131 139.4567 L 295.8883 135.2141 M 300.131 139.4567 L 297.8348 133.9135 L 297.8348 127.9135 L 295.5387 122.3702 M 297.8348 127.9135 L 297.8348 121.9135 M 297.8348 133.9135 L 295.5387 128.3702 L 291.2961 124.1275 M 295.5387 128.3702 L 293.2426 122.8269 M 302.4271 145 L 302.4271 139 L 300.131 133.4567 M 302.4271 139 L 302.4271 133 L 304.7232 127.4567 M 302.4271 133 L 302.4271 127 L 304.7232 121.4567 L 304.7232 115.4567 M 304.7232 121.4567 L 307.0193 115.9135 L 311.2619 111.6708 M 307.0193 115.9135 L 309.3154 110.3702 M 302.4271 127 L 302.4271 121 L 304.7232 115.4567 M 302.4271 121 L 302.4271 115 M 398.4271 451 L 398.4271 445 L 400.7232 439.4567 M 398.4271 445 L 398.4271 439 L 396.131 433.4567 L 391.8883 429.2141 M 396.131 433.4567 L 393.8348 427.9135 M 398.4271 439 L 398.4271 433 L 400.7232 427.4567 M 398.4271 433 L 398.4271 427 L 400.7232 421.4567 L 400.7232 415.4567 M 400.7232 421.4567 L 403.0193 415.9135 M 398.4271 427 L 398.4271 421 L 396.131 415.4567 M 398.4271 421 L 398.4271 415 L 400.7232 409.4567 M 398.4271 415 L 398.4271 409 L 400.7232 403.4567 L 400.7232 397.4567 M 400.7232 403.4567 L 403.0193 397.9135 L 407.2619 393.6708 M 403.0193 397.9135 L 405.3154 392.3701 L 409.558 388.1275 L 411.8542 382.5842 M 409.558 388.1275 L 413.8007 383.8849 M 405.3154 392.3701 L 407.6115 386.8269 L 411.8542 382.5843 M 407.6115 386.8269 L 409.9076 381.2836 M 398.4271 409 L 398.4271 403 L 400.7232 397.4567 M 398.4271 403 L 398.4271 397 L 396.131 391.4567 L 391.8883 387.2141 M 396.131 391.4567 L 393.8348 385.9135 M 398.4271 397 L 398.4271 391 L 396.131 385.4567 M 398.4271 391 L 398.4271 385 L 400.7232 379.4567 L 400.7232 373.4567 M 400.7232 379.4567 L 403.0193 373.9135 M 398.4271 385 L 398.4271 379 L 396.131 373.4567 M 398.4271 379 L 398.4271 373 L 400.7232 367.4567 L 400.7232 361.4567 M 400.7232 367.4567 L 403.0193 361.9135 L 407.2619 357.6708 M 403.0193 361.9135 L 405.3154 356.3702 L 405.3154 350.3702 L 403.0193 344.8269 M 405.3154 350.3702 L 405.3154 344.3702 M 405.3154 356.3702 L 407.6115 350.8269 L 407.6115 344.8269 M 407.6115 350.8269 L 409.9076 345.2836 L 414.1503 341.041 M 409.9076 345.2836 L 412.2037 339.7404 L 416.4464 335.4977 L 421.9897 333.2016 M 416.4464 335.4977 L 420.689 331.2551 M 412.2037 339.7404 L 414.4998 334.1971 L 414.4998 328.1971 M 414.4998 334.1971 L 416.796 328.6538 L 421.0386 324.4112 M 416.796 328.6538 L 419.0921 323.1105 L 419.0921 317.1105 L 416.796 311.5673 M 419.0921 317.1105 L 419.0921 311.1105 L 421.3882 305.5673 M 419.0921 311.1105 L 419.0921 305.1105 L 416.796 299.5673 L 416.796 293.5673 M 416.796 299.5673 L 414.4998 294.024 M 419.0921 305.1105 L 419.0921 299.1105 L 416.796 293.5673 M 419.0921 299.1105 L 419.0921 293.1105 L 421.3882 287.5673 L 421.3882 281.5673 M 421.3882 287.5673 L 423.6843 282.024 M 419.0921 293.1105 L 419.0921 287.1105 L 416.796 281.5673 M 419.0921 287.1105 L 419.0921 281.1105 L 421.3882 275.5673 M 419.0921 281.1105 L 419.0921 275.1105 M 419.0921 323.1105 L 421.3882 317.5673 L 425.6308 313.3246 M 421.3882 317.5673 L 423.6843 312.024 L 423.6843 306.024 L 421.3882 300.4807 M 423.6843 306.024 L 423.6843 300.024 L 425.9804 294.4807 M 423.6843 300.024 L 423.6843 294.024 M 423.6843 312.024 L 425.9804 306.4807 L 430.2231 302.2381 M 425.9804 306.4807 L 428.2765 300.9374 L 432.5192 296.6948 L 434.8153 291.1515 M 432.5192 296.6948 L 436.7618 292.4521 L 442.3051 290.1561 M 436.7618 292.4521 L 441.0045 288.2095 M 428.2765 300.9374 L 430.5726 295.3942 L 430.5726 289.3942 M 430.5726 295.3942 L 432.8687 289.8509 L 437.1114 285.6082 L 439.4075 280.065 M 437.1114 285.6082 L 441.354 281.3656 L 446.8973 279.0695 L 451.14 274.8268 M 446.8973 279.0695 L 452.4406 276.7734 M 441.354 281.3656 L 445.5967 277.123 L 447.8928 271.5797 M 445.5967 277.123 L 449.8393 272.8803 L 455.3826 270.5842 M 449.8393 272.8803 L 454.082 268.6377 M 432.8687 289.8509 L 435.1649 284.3076 L 435.1649 278.3076 M 435.1649 284.3076 L 437.461 278.7643 L 441.7036 274.5217 M 437.461 278.7643 L 439.7571 273.2211 L 439.7571 267.2211 L 437.461 261.6778 M 439.7571 267.2211 L 439.7571 261.2211 M 439.7571 273.2211 L 442.0532 267.6778 L 442.0532 261.6778 M 442.0532 267.6778 L 444.3493 262.1345 L 448.5919 257.8919 M 444.3493 262.1345 L 446.6454 256.5912 L 450.8881 252.3486 L 453.1842 246.8053 M 450.8881 252.3486 L 455.1307 248.106 L 460.674 245.8099 M 455.1307 248.106 L 459.3734 243.8633 M 446.6454 256.5912 L 448.9415 251.048 L 448.9415 245.048 M 448.9415 251.048 L 451.2376 245.5047 L 455.4803 241.2621 M 451.2376 245.5047 L 453.5338 239.9614 M 398.4271 373 L 398.4271 367 L 396.131 361.4567 M 398.4271 367 L 398.4271 361 L 400.7232 355.4567 L 404.9658 351.2141 M 400.7232 355.4567 L 403.0193 349.9135 M 398.4271 361 L 398.4271 355 L 396.131 349.4567 M 398.4271 355 L 398.4271 349 L 400.7232 343.4567 M 398.4271 349 L 398.4271 343 L 400.7232 337.4567 L 400.7232 331.4567 M 400.7232 337.4567 L 403.0193 331.9135 L 407.2619 327.6708 M 403.0193 331.9135 L 405.3154 326.3702 L 405.3154 320.3702 L 407.6115 314.8269 M 405.3154 320.3702 L 405.3154 314.3702 M 405.3154 326.3702 L 407.6115 320.8269 L 407.6115 314.8269 M 407.6115 320.8269 L 409.9076 315.2836 L 414.1503 311.041 M 409.9076 315.2836 L 412.2037 309.7404 M 398.4271 343 L 398.4271 337 L 400.7232 331.4567 M 398.4271 337 L 398.4271 331 L 396.131 325.4567 L 396.131 319.4567 M 396.131 325.4567 L 393.8348 319.9135 M 398.4271 331 L 398.4271 325 L 400.7232 319.4567 M 398.4271 325 L 398.4271 319 L 396.131 313.4567 L 396.131 307.4567 M 396.131 313.4567 L 393.8348 307.9135 L 389.5922 303.6708 L 384.0489 301.3747 M 389.5922 303.6708 L 385.3495 299.4282 M 393.8348 307.9135 L 391.5387 302.3702 L 391.5387 296.3702 M 391.5387 302.3702 L 389.2426 296.8269 L 389.2426 290.8269 L 386.9465 285.2836 M 389.2426 290.8269 L 389.2426 284.8269 L 391.5387 279.2836 M 389.2426 284.8269 L 389.2426 278.8269 M 389.2426 296.8269 L 386.9465 291.2836 L 382.7039 287.041 M 386.9465 291.2836 L 384.6504 285.7404 L 384.6504 279.7404 M 384.6504 285.7404 L 382.3543 280.1971 L 378.1116 275.9544 L 375.8155 270.4112 M 378.1116 275.9544 L 373.869 271.7118 L 371.5729 266.1685 L 367.3302 261.9259 M 371.5729 266.1685 L 369.2768 260.6252 L 369.2768 254.6252 M 369.2768 260.6252 L 366.9807 255.082 M 373.869 271.7118 L 369.6263 267.4691 L 364.0831 265.173 M 369.6263 267.4691 L 365.3837 263.2265 L 363.0876 257.6832 M 365.3837 263.2265 L 361.1411 258.9839 M 382.3543 280.1971 L 380.0582 274.6538 L 375.8155 270.4112 M 380.0582 274.6538 L 377.7621 269.1105 L 377.7621 263.1105 M 377.7621 269.1105 L 375.4659 263.5673 L 375.4659 257.5673 L 373.1698 252.024 M 375.4659 257.5673 L 375.4659 251.5673 L 377.7621 246.024 M 375.4659 251.5673 L 375.4659 245.5673 M 375.4659 263.5673 L 373.1698 258.024 L 368.9272 253.7813 M 373.1698 258.024 L 370.8737 252.4807 L 370.8737 246.4807 M 370.8737 252.4807 L 368.5776 246.9374 L 364.335 242.6948 L 358.7917 240.3987 M 364.335 242.6948 L 360.0923 238.4521 L 354.549 236.1561 L 348.549 236.1561 M 354.549 236.1561 L 349.0058 233.86 L 344.7631 229.6173 M 349.0058 233.86 L 343.4625 231.5639 M 360.0923 238.4521 L 355.8497 234.2095 L 350.3064 231.9134 M 355.8497 234.2095 L 351.607 229.9669 L 349.3109 224.4236 M 351.607 229.9669 L 347.3644 225.7242 L 341.8211 223.4281 L 335.8211 223.4281 M 341.8211 223.4281 L 336.2778 221.132 L 332.0352 216.8894 L 326.4919 214.5933 M 332.0352 216.8894 L 327.7925 212.6467 L 325.4964 207.1035 M 327.7925 212.6467 L 323.5499 208.4041 M 336.2778 221.132 L 330.7346 218.8359 L 324.7346 218.8359 M 330.7346 218.8359 L 325.1913 216.5398 L 320.9486 212.2972 M 325.1913 216.5398 L 319.648 214.2437 M 347.3644 225.7242 L 343.1217 221.4816 L 337.5785 219.1855 M 343.1217 221.4816 L 338.8791 217.2389 L 336.583 211.6956 L 332.3403 207.453 M 336.583 211.6956 L 334.2869 206.1524 M 338.8791 217.2389 L 334.6364 212.9963 L 329.0932 210.7002 M 334.6364 212.9963 L 330.3938 208.7536 L 328.0977 203.2104 M 330.3938 208.7536 L 326.1512 204.511 M 368.5776 246.9374 L 366.2815 241.3942 L 362.0388 237.1515 M 366.2815 241.3942 L 363.9854 235.8509 L 359.7427 231.6082 L 354.1995 229.3121 M 359.7427 231.6082 L 355.5001 227.3656 L 353.204 221.8223 M 355.5001 227.3656 L 351.2574 223.123 M 363.9854 235.8509 L 361.6893 230.3076 L 357.4466 226.065 M 361.6893 230.3076 L 359.3932 224.7643 L 359.3932 218.7643 L 357.097 213.2211 M 359.3932 218.7643 L 359.3932 212.7643 L 361.6893 207.2211 M 359.3932 212.7643 L 359.3932 206.7643 L 357.097 201.2211 L 352.8544 196.9784 M 357.097 201.2211 L 354.8009 195.6778 L 354.8009 189.6778 M 354.8009 195.6778 L 352.5048 190.1345 M 359.3932 206.7643 L 359.3932 200.7643 L 361.6893 195.2211 M 359.3932 200.7643 L 359.3932 194.7643 M 359.3932 224.7643 L 357.097 219.2211 L 352.8544 214.9784 M 357.097 219.2211 L 354.8009 213.6778 L 354.8009 207.6778 M 354.8009 213.6778 L 352.5048 208.1345 L 352.5048 202.1345 L 350.2087 196.5912 M 352.5048 202.1345 L 352.5048 196.1345 L 354.8009 190.5912 M 352.5048 196.1345 L 352.5048 190.1345 M 352.5048 208.1345 L 350.2087 202.5912 L 350.2087 196.5912 M 350.2087 202.5912 L 347.9126 197.048 L 347.9126 191.048 L 345.6165 185.5047 M 347.9126 191.048 L 347.9126 185.048 L 350.2087 179.5047 M 347.9126 185.048 L 347.9126 179.048 L 345.6165 173.5047 L 341.3738 169.2621 M 345.6165 173.5047 L 343.3204 167.9614 M 347.9126 179.048 L 347.9126 173.048 L 350.2087 167.5047 M 347.9126 173.048 L 347.9126 167.048 L 350.2087 161.5047 L 350.2087 155.5047 M 350.2087 161.5047 L 352.5048 155.9614 L 356.7475 151.7188 M 352.5048 155.9614 L 354.8009 150.4182 L 354.8009 144.4182 L 357.097 138.8749 M 354.8009 144.4182 L 354.8009 138.4182 M 354.8009 150.4182 L 357.097 144.8749 L 357.097 138.8749 M 357.097 144.8749 L 359.3932 139.3316 M 347.9126 167.048 L 347.9126 161.048 L 345.6165 155.5047 M 347.9126 161.048 L 347.9126 155.048 L 350.2087 149.5047 M 347.9126 155.048 L 347.9126 149.048 L 350.2087 143.5047 L 350.2087 137.5047 M 350.2087 143.5047 L 352.5048 137.9614 L 356.7475 133.7188 M 352.5048 137.9614 L 354.8009 132.4182 M 347.9126 149.048 L 347.9126 143.048 L 345.6165 137.5047 M 347.9126 143.048 L 347.9126 137.048 M 347.9126 197.048 L 345.6165 191.5047 L 341.3738 187.2621 M 345.6165 191.5047 L 343.3204 185.9614 L 339.0777 181.7188 L 336.7816 176.1755 M 339.0777 181.7188 L 334.8351 177.4761 M 343.3204 185.9614 L 341.0243 180.4182 L 336.7816 176.1755 M 341.0243 180.4182 L 338.7281 174.8749 L 338.7281 168.8749 M 338.7281 174.8749 L 336.432 169.3316 L 332.1894 165.089 L 326.6461 162.7928 M 332.1894 165.089 L 327.9467 160.8463 L 325.6506 155.303 M 327.9467 160.8463 L 323.7041 156.6037 L 318.1608 154.3076 L 312.1608 154.3076 M 318.1608 154.3076 L 312.6176 152.0114 L 308.3749 147.7688 M 312.6176 152.0114 L 307.0743 149.7153 M 323.7041 156.6037 L 319.4615 152.361 L 317.1653 146.8177 M 319.4615 152.361 L 315.2188 148.1184 L 312.9227 142.5751 L 312.9227 136.5751 M 312.9227 142.5751 L 310.6266 137.0318 M 315.2188 148.1184 L 310.9762 143.8757 L 308.6801 138.3325 M 310.9762 143.8757 L 306.7335 139.6331 M 336.432 169.3316 L 334.1359 163.7883 L 329.8933 159.5457 M 334.1359 163.7883 L 331.8398 158.2451 L 327.5972 154.0024 L 322.0539 151.7063 M 327.5972 154.0024 L 323.3545 149.7598 M 331.8398 158.2451 L 329.5437 152.7018 L 325.3011 148.4591 M 329.5437 152.7018 L 327.2476 147.1585 L 327.2476 141.1585 L 324.9515 135.6152 M 327.2476 141.1585 L 327.2476 135.1585 L 329.5437 129.6152 M 327.2476 135.1585 L 327.2476 129.1585 L 329.5437 123.6152 L 329.5437 117.6152 M 329.5437 123.6152 L 331.8398 118.072 M 327.2476 129.1585 L 327.2476 123.1585 L 329.5437 117.6152 M 327.2476 123.1585 L 327.2476 117.1585 M 327.2476 147.1585 L 324.9515 141.6152 L 320.7088 137.3726 M 324.9515 141.6152 L 322.6554 136.072 L 322.6554 130.072 M 322.6554 136.072 L 320.3593 130.5287 L 320.3593 124.5287 L 318.0631 118.9854 M 320.3593 124.5287 L 320.3593 118.5287 M 320.3593 130.5287 L 318.0631 124.9854 L 313.8205 120.7428 M 318.0631 124.9854 L 315.767 119.4421 M 398.4271 319 L 398.4271 313 L 396.131 307.4567 M 398.4271 313 L 398.4271 307 L 396.131 301.4567 L 396.131 295.4567 M 396.131 301.4567 L 393.8348 295.9135 M 398.4271 307 L 398.4271 301 L 396.131 295.4567 M 398.4271 301 L 398.4271 295 L 400.7232 289.4567 L 404.9658 285.2141 M 400.7232 289.4567 L 403.0193 283.9135 L 403.0193 277.9135 L 400.7232 272.3702 M 403.0193 277.9135 L 403.0193 271.9135 L 405.3154 266.3702 M 403.0193 271.9135 L 403.0193 265.9135 M 403.0193 283.9135 L 405.3154 278.3702 L 409.558 274.1275 M 405.3154 278.3702 L 407.6115 272.8269 L 411.8542 268.5843 L 417.3974 266.2881 M 411.8542 268.5843 L 416.0968 264.3416 M 407.6115 272.8269 L 409.9076 267.2836 L 409.9076 261.2836 M 409.9076 267.2836 L 412.2037 261.7404 L 416.4464 257.4977 M 412.2037 261.7404 L 414.4998 256.1971 M 398.4271 295 L 398.4271 289 L 396.131 283.4567 M 398.4271 289 L 398.4271 283 L 400.7232 277.4567 M 398.4271 283 L 398.4271 277 L 396.131 271.4567 L 396.131 265.4567 M 396.131 271.4567 L 393.8348 265.9135 M 398.4271 277 L 398.4271 271 L 396.131 265.4567 M 398.4271 271 L 398.4271 265 L 400.7232 259.4567 L 400.7232 253.4567 M 400.7232 259.4567 L 403.0193 253.9135 L 407.2619 249.6708 M 403.0193 253.9135 L 405.3154 248.3702 M 398.4271 265 L 398.4271 259 L 396.131 253.4567 M 398.4271 259 L 398.4271 253 L 400.7232 247.4567 M 398.4271 253 L 398.4271 247 L 400.7232 241.4567 L 404.9658 237.2141 M 400.7232 241.4567 L 403.0193 235.9135 L 403.0193 229.9135 L 400.7232 224.3702 M 403.0193 229.9135 L 403.0193 223.9135 L 405.3154 218.3702 M 403.0193 223.9135 L 403.0193 217.9135 M 403.0193 235.9135 L 405.3154 230.3702 L 405.3154 224.3702 M 405.3154 230.3702 L 407.6115 224.8269 L 411.8542 220.5843 M 407.6115 224.8269 L 409.9076 219.2836 L 414.1503 215.041 L 416.4464 209.4977 M 414.1503 215.041 L 418.3929 210.7983 L 423.9362 208.5022 L 429.9362 208.5022 M 423.9362 208.5022 L 429.4795 206.2061 M 418.3929 210.7983 L 422.6356 206.5557 L 428.1788 204.2596 M 422.6356 206.5557 L 426.8782 202.313 M 409.9076 219.2836 L 412.2037 213.7404 L 412.2037 207.7404 M 412.2037 213.7404 L 414.4998 208.1971 L 418.7425 203.9544 M 414.4998 208.1971 L 416.796 202.6538 L 416.796 196.6538 L 414.4998 191.1105 M 416.796 196.6538 L 416.796 190.6538 M 416.796 202.6538 L 419.0921 197.1105 L 423.3347 192.8679 M 419.0921 197.1105 L 421.3882 191.5673 M 398.4271 247 L 398.4271 241 L 400.7232 235.4567 M 398.4271 241 L 398.4271 235 L 400.7232 229.4567 L 400.7232 223.4567 M 400.7232 229.4567 L 403.0193 223.9135 M 398.4271 235 L 398.4271 229 L 396.131 223.4567 M 398.4271 229 L 398.4271 223 L 396.131 217.4567 L 391.8883 213.2141 M 396.131 217.4567 L 393.8348 211.9135 L 389.5922 207.6708 L 384.0489 205.3747 M 389.5922 207.6708 L 385.3495 203.4282 M 393.8348 211.9135 L 391.5387 206.3702 L 387.2961 202.1275 M 391.5387 206.3702 L 389.2426 200.8269 L 389.2426 194.8269 L 391.5387 189.2836 M 389.2426 194.8269 L 389.2426 188.8269 M 389.2426 200.8269 L 386.9465 195.2836 L 382.7039 191.041 M 386.9465 195.2836 L 384.6504 189.7404 M 398.4271 223 L 398.4271 217 L 396.131 211.4567 M 398.4271 217 L 398.4271 211 L 400.7232 205.4567 L 400.7232 199.4567 M 400.7232 205.4567 L 403.0193 199.9135 M 398.4271 211 L 398.4271 205 L 396.131 199.4567 M 398.4271 205 L 398.4271 199 L 400.7232 193.4567 L 400.7232 187.4567 M 400.7232 193.4567 L 403.0193 187.9135 L 403.0193 181.9135 L 405.3154 176.3702 M 403.0193 181.9135 L 403.0193 175.9135 M 403.0193 187.9135 L 405.3154 182.3702 L 405.3154 176.3702 M 405.3154 182.3702 L 407.6115 176.8269 M 398.4271 199 L 398.4271 193 L 396.131 187.4567 M 398.4271 193 L 398.4271 187 L 400.7232 181.4567 L 404.9658 177.2141 M 400.7232 181.4567 L 403.0193 175.9135 M 398.4271 187 L 398.4271 181 L 396.131 175.4567 M 398.4271 181 L 398.4271 175 L 400.7232 169.4567 L 400.7232 163.4567 M 400.7232 169.4567 L 403.0193 163.9135 L 407.2619 159.6708 M 403.0193 163.9135 L 405.3154 158.3702 L 405.3154 152.3702 L 403.0193 146.8269 M 405.3154 152.3702 L 405.3154 146.3702 L 407.6115 140.8269 M 405.3154 146.3702 L 405.3154 140.3702 M 405.3154 158.3702 L 407.6115 152.8269 L 411.8542 148.5843 M 407.6115 152.8269 L 409.9076 147.2836 L 414.1503 143.041 L 416.4464 137.4977 M 414.1503 143.041 L 418.3929 138.7983 L 423.9362 136.5022 M 418.3929 138.7983 L 422.6356 134.5557 L 424.9317 129.0124 L 429.1743 124.7698 M 424.9317 129.0124 L 427.2278 123.4691 M 422.6356 134.5557 L 426.8782 130.313 L 429.1743 124.7698 M 426.8782 130.313 L 431.1208 126.0704 M 409.9076 147.2836 L 412.2037 141.7404 L 412.2037 135.7404 M 412.2037 141.7404 L 414.4998 136.1971 L 414.4998 130.1971 L 412.2037 124.6538 M 414.4998 130.1971 L 414.4998 124.1971 L 416.796 118.6538 M 414.4998 124.1971 L 414.4998 118.1971 M 414.4998 136.1971 L 416.796 130.6538 L 416.796 124.6538 M 416.796 130.6538 L 419.0921 125.1105 L 423.3347 120.8679 L 425.6308 115.3246 M 423.3347 120.8679 L 427.5774 116.6252 M 419.0921 125.1105 L 421.3882 119.5673 L 425.6308 115.3246 M 421.3882 119.5673 L 423.6843 114.024 L 427.9269 109.7813 L 430.2231 104.2381 M 427.9269 109.7813 L 432.1696 105.5387 L 437.7129 103.2426 M 432.1696 105.5387 L 436.4122 101.2961 L 438.7083 95.75278 L 442.951 91.51013 M 438.7083 95.75278 L 441.0045 90.2095 M 436.4122 101.2961 L 440.6549 97.05341 L 442.951 91.51013 M 440.6549 97.05341 L 444.8975 92.81076 L 447.1936 87.26749 L 447.1936 81.26749 M 447.1936 87.26749 L 449.4897 81.72421 L 453.7324 77.48157 M 449.4897 81.72421 L 451.7859 76.18094 L 451.7859 70.18094 L 454.082 64.63766 M 451.7859 70.18094 L 451.7859 64.18094 M 451.7859 76.18094 L 454.082 70.63766 L 458.3246 66.39502 M 454.082 70.63766 L 456.3781 65.09439 M 444.8975 92.81076 L 449.1402 88.56812 L 451.4363 83.02484 M 449.1402 88.56812 L 453.3828 84.32547 L 458.9261 82.02936 M 453.3828 84.32547 L 457.6255 80.08282 L 459.9216 74.53955 L 459.9216 68.53955 M 459.9216 74.53955 L 462.2177 68.99628 L 466.4603 64.75363 M 462.2177 68.99628 L 464.5138 63.453 M 457.6255 80.08282 L 461.8681 75.84018 L 464.1642 70.29691 M 461.8681 75.84018 L 466.1107 71.59753 L 471.654 69.30142 M 466.1107 71.59753 L 470.3534 67.35489 L 475.8967 65.05878 L 481.8967 65.05878 M 475.8967 65.05878 L 481.4399 62.76266 M 470.3534 67.35489 L 474.596 63.11224 L 476.8922 57.56897 M 474.596 63.11224 L 478.8387 58.8696 L 484.382 56.57349 M 478.8387 58.8696 L 483.0813 54.62695 L 488.6246 52.33084 L 492.8672 48.0882 M 488.6246 52.33084 L 494.1679 50.03473 L 500.1679 50.03473 M 494.1679 50.03473 L 499.7112 47.73862 L 503.9538 43.49597 L 506.2499 37.9527 M 503.9538 43.49597 L 508.1964 39.25333 M 499.7112 47.73862 L 505.2544 45.4425 L 511.2544 45.4425 M 505.2544 45.4425 L 510.7977 43.14639 L 516.7977 43.14639 L 522.3409 40.85028 M 516.7977 43.14639 L 522.7977 43.14639 L 528.341 45.4425 M 522.7977 43.14639 L 528.7977 43.14639 M 510.7977 43.14639 L 516.3409 40.85028 L 522.3409 40.85028 M 516.3409 40.85028 L 521.8842 38.55417 M 483.0813 54.62695 L 487.324 50.38431 L 492.8672 48.0882 M 487.324 50.38431 L 491.5666 46.14166 L 497.1099 43.84555 L 501.3525 39.60291 M 497.1099 43.84555 L 502.6532 41.54944 M 491.5666 46.14166 L 495.8093 41.89902 L 498.1054 36.35574 M 495.8093 41.89902 L 500.0519 37.65637 L 505.5952 35.36026 M 500.0519 37.65637 L 504.2946 33.41373 M 423.6843 114.024 L 425.9804 108.4807 L 430.2231 104.2381 M 425.9804 108.4807 L 428.2765 102.9374 L 428.2765 96.93744 L 425.9804 91.39417 M 428.2765 96.93744 L 428.2765 90.93744 M 428.2765 102.9374 L 430.5726 97.39417 L 434.8153 93.15152 M 430.5726 97.39417 L 432.8687 91.85089 L 432.8687 85.85089 L 430.5726 80.30762 M 432.8687 85.85089 L 432.8687 79.85089 L 435.1649 74.30762 L 439.4075 70.06497 M 435.1649 74.30762 L 437.461 68.76434 M 432.8687 79.85089 L 432.8687 73.85089 L 430.5726 68.30762 M 432.8687 73.85089 L 432.8687 67.85089 L 435.1649 62.30762 M 432.8687 67.85089 L 432.8687 61.85089 M 432.8687 91.85089 L 435.1649 86.30762 L 439.4075 82.06497 M 435.1649 86.30762 L 437.461 80.76434 L 437.461 74.76434 L 439.7571 69.22107 M 437.461 74.76434 L 437.461 68.76434 M 437.461 80.76434 L 439.7571 75.22107 L 443.9997 70.97842 M 439.7571 75.22107 L 442.0532 69.6778 M 398.4271 175 L 398.4271 169 L 396.131 163.4567 M 398.4271 169 L 398.4271 163 L 400.7232 157.4567 M 398.4271 163 L 398.4271 157 L 396.131 151.4567 L 396.131 145.4567 M 396.131 151.4567 L 393.8348 145.9135 M 398.4271 157 L 398.4271 151 L 396.131 145.4567 M 398.4271 151 L 398.4271 145 L 400.7232 139.4567 M 398.4271 145 L 398.4271 139 L 400.7232 133.4567 L 400.7232 127.4567 M 400.7232 133.4567 L 403.0193 127.9135 L 407.2619 123.6708 M 403.0193 127.9135 L 405.3154 122.3702 M 398.4271 139 L 398.4271 133 L 396.131 127.4567 M 398.4271 133 L 398.4271 127 L 400.7232 121.4567 M 398.4271 127 L 398.4271 121 L 396.131 115.4567 L 396.131 109.4567 M 396.131 115.4567 L 393.8348 109.9135 L 389.5922 105.6708 L 384.0489 103.3747 M 389.5922 105.6708 L 385.3495 101.4282 M 393.8348 109.9135 L 391.5387 104.3702 L 391.5387 98.37018 M 391.5387 104.3702 L 389.2426 98.8269 L 389.2426 92.8269 L 386.9465 87.28363 M 389.2426 92.8269 L 389.2426 86.8269 L 391.5387 81.28363 M 389.2426 86.8269 L 389.2426 80.8269 M 389.2426 98.8269 L 386.9465 93.28363 L 382.7039 89.04099 M 386.9465 93.28363 L 384.6504 87.74036 L 384.6504 81.74036 M 384.6504 87.74036 L 382.3543 82.19708 M 398.4271 121 L 398.4271 115 L 400.7232 109.4567 M 398.4271 115 L 398.4271 109 L 396.131 103.4567 L 396.131 97.45673 M 396.131 103.4567 L 393.8348 97.91345 M 398.4271 109 L 398.4271 103 L 396.131 97.45673 M 398.4271 103 L 398.4271 97 L 400.7232 91.45673 M 398.4271 97 L 398.4271 91 L 400.7232 85.45673 L 400.7232 79.45673 M 400.7232 85.45673 L 403.0193 79.91345 L 407.2619 75.67081 M 403.0193 79.91345 L 405.3154 74.37018 L 405.3154 68.37018 L 403.0193 62.8269 M 405.3154 68.37018 L 405.3154 62.37018 M 405.3154 74.37018 L 407.6115 68.8269 L 411.8542 64.58426 M 407.6115 68.8269 L 409.9076 63.28363 L 414.1503 59.04099 L 419.6935 56.74487 M 414.1503 59.04099 L 418.3929 54.79834 M 409.9076 63.28363 L 412.2037 57.74036 L 416.4464 53.49771 M 412.2037 57.74036 L 414.4998 52.19708 L 414.4998 46.19708 L 412.2037 40.65381 M 414.4998 46.19708 L 414.4998 40.19708 L 416.796 34.65381 M 414.4998 40.19708 L 414.4998 34.19708 L 412.2037 28.65381 L 407.9611 24.41116 M 412.2037 28.65381 L 409.9076 23.11053 L 409.9076 17.11053 M 409.9076 23.11053 L 407.6115 17.56726 M 414.4998 34.19708 L 414.4998 28.19708 L 416.796 22.65381 M 414.4998 28.19708 L 414.4998 22.19708 M 414.4998 52.19708 L 416.796 46.65381 L 416.796 40.65381 M 416.796 46.65381 L 419.0921 41.11053 L 419.0921 35.11053 L 421.3882 29.56726 M 419.0921 35.11053 L 419.0921 29.11053 M 419.0921 41.11053 L 421.3882 35.56726 L 425.6308 31.32462 M 421.3882 35.56726 L 423.6843 30.02399 L 427.9269 25.78134 L 430.2231 20.23807 M 427.9269 25.78134 L 432.1696 21.5387 L 437.7129 19.24258 M 432.1696 21.5387 L 436.4122 17.29605 L 441.9555 14.99994 L 446.1982 10.75729 M 441.9555 14.99994 L 447.4988 12.70383 M 436.4122 17.29605 L 440.6549 13.05341 L 442.951 7.510132 M 440.6549 13.05341 L 444.8975 8.81076 L 450.4408 6.514648 M 444.8975 8.81076 L 449.1402 4.568115 M 423.6843 30.02399 L 425.9804 24.48071 L 425.9804 18.48071 M 425.9804 24.48071 L 428.2765 18.93744 L 432.5192 14.69479 M 428.2765 18.93744 L 430.5726 13.39417 L 430.5726 7.394165 L 428.2765 1.850891 M 430.5726 7.394165 L 430.5726 1.394165 M 430.5726 13.39417 L 432.8687 7.850891 L 437.1114 3.608246 M 432.8687 7.850891 L 435.1649 2.307617 M 398.4271 91 L 398.4271 85 L 396.131 79.45673 M 398.4271 85 L 398.4271 79 L 400.7232 73.45673 M 398.4271 79 L 398.4271 73 L 396.131 67.45673 L 391.8883 63.21408 M 396.131 67.45673 L 393.8348 61.91345 L 393.8348 55.91345 M 393.8348 61.91345 L 391.5387 56.37018 M 398.4271 73 L 398.4271 67 L 400.7232 61.45673 M 398.4271 67 L 398.4271 61 L 400.7232 55.45673 L 400.7232 49.45673 M 400.7232 55.45673 L 403.0193 49.91345 M 398.4271 61 L 398.4271 55 L 396.131 49.45673 M 398.4271 55 L 398.4271 49 L 400.7232 43.45673 M 398.4271 49 L 398.4271 43 L 400.7232 37.45673 L 400.7232 31.45673 M 400.7232 37.45673 L 403.0193 31.91345 L 403.0193 25.91345 L 400.7232 20.37018 M 403.0193 25.91345 L 403.0193 19.91345 M 403.0193 31.91345 L 405.3154 26.37018 L 409.558 22.12753 M 405.3154 26.37018 L 407.6115 20.8269 M 398.4271 43 L 398.4271 37 L 396.131 31.45673 M 398.4271 37 L 398.4271 31 L 400.7232 25.45673 M 398.4271 31 L 398.4271 25 L 396.131 19.45673 L 391.8883 15.21408 M 396.131 19.45673 L 393.8348 13.91345 M 398.4271 25 L 398.4271 19 L 396.131 13.45673 M 398.4271 19 L 398.4271 13 L 400.7232 7.456726 L 400.7232 1.456726 M 400.7232 7.456726 L 403.0193 1.913452 M 398.4271 13 L 398.4271 7 L 400.7232 1.456726 M 398.4271 7 L 398.4271 1 M 494.4271 451 L 494.4271 445 L 492.131 439.4567 M 494.4271 445 L 494.4271 439 L 496.7232 433.4567 L 500.9658 429.2141 M 496.7232 433.4567 L 499.0193 427.9135 M 494.4271 439 L 494.4271 433 L 492.131 427.4567 M 494.4271 433 L 494.4271 427 L 492.131 421.4567 L 492.131 415.4567 M 492.131 421.4567 L 489.8348 415.9135 L 485.5922 411.6708 L 480.0489 409.3747 M 485.5922 411.6708 L 481.3495 407.4282 M 489.8348 415.9135 L 487.5387 410.3702 L 483.2961 406.1275 M 487.5387 410.3702 L 485.2426 404.8269 M 494.4271 427 L 494.4271 421 L 496.7232 415.4567 M 494.4271 421 L 494.4271 415 L 496.7232 409.4567 L 500.9658 405.2141 M 496.7232 409.4567 L 499.0193 403.9135 M 494.4271 415 L 494.4271 409 L 492.131 403.4567 M 494.4271 409 L 494.4271 403 L 496.7232 397.4567 M 494.4271 403 L 494.4271 397 L 492.131 391.4567 L 487.8883 387.2141 M 492.131 391.4567 L 489.8348 385.9135 L 485.5922 381.6708 L 480.0489 379.3747 M 485.5922 381.6708 L 481.3495 377.4282 M 489.8348 385.9135 L 487.5387 380.3702 L 487.5387 374.3702 M 487.5387 380.3702 L 485.2426 374.8269 L 485.2426 368.8269 L 482.9465 363.2836 M 485.2426 368.8269 L 485.2426 362.8269 L 482.9465 357.2836 L 478.7039 353.041 M 482.9465 357.2836 L 480.6504 351.7404 L 480.6504 345.7404 M 480.6504 351.7404 L 478.3543 346.1971 M 485.2426 362.8269 L 485.2426 356.8269 L 482.9465 351.2836 M 485.2426 356.8269 L 485.2426 350.8269 L 487.5387 345.2836 L 487.5387 339.2836 M 487.5387 345.2836 L 489.8348 339.7404 L 494.0775 335.4977 M 489.8348 339.7404 L 492.131 334.1971 M 485.2426 350.8269 L 485.2426 344.8269 L 487.5387 339.2836 M 485.2426 344.8269 L 485.2426 338.8269 M 485.2426 374.8269 L 482.9465 369.2836 L 478.7039 365.041 M 482.9465 369.2836 L 480.6504 363.7404 L 476.4077 359.4977 L 470.8645 357.2016 M 476.4077 359.4977 L 472.1651 355.2551 L 469.869 349.7118 M 472.1651 355.2551 L 467.9225 351.0125 M 480.6504 363.7404 L 478.3543 358.1971 L 474.1116 353.9545 M 478.3543 358.1971 L 476.0582 352.6538 L 476.0582 346.6538 M 476.0582 352.6538 L 473.7621 347.1105 M 494.4271 397 L 494.4271 391 L 492.131 385.4567 M 494.4271 391 L 494.4271 385 L 496.7232 379.4567 M 494.4271 385 L 494.4271 379 L 492.131 373.4567 L 492.131 367.4567 M 492.131 373.4567 L 489.8348 367.9135 M 494.4271 379 L 494.4271 373 L 492.131 367.4567 M 494.4271 373 L 494.4271 367 L 496.7232 361.4567 L 500.9658 357.2141 M 496.7232 361.4567 L 499.0193 355.9135 L 503.2619 351.6708 L 505.558 346.1276 M 503.2619 351.6708 L 507.5046 347.4282 M 499.0193 355.9135 L 501.3154 350.3702 L 501.3154 344.3702 M 501.3154 350.3702 L 503.6115 344.8269 L 507.8542 340.5843 M 503.6115 344.8269 L 505.9076 339.2836 M 494.4271 367 L 494.4271 361 L 492.131 355.4567 M 494.4271 361 L 494.4271 355 L 496.7232 349.4567 M 494.4271 355 L 494.4271 349 L 492.131 343.4567 L 487.8883 339.2141 M 492.131 343.4567 L 489.8348 337.9135 L 489.8348 331.9135 M 489.8348 337.9135 L 487.5387 332.3702 M 494.4271 349 L 494.4271 343 L 492.131 337.4567 M 494.4271 343 L 494.4271 337 L 496.7232 331.4567 M 494.4271 337 L 494.4271 331 L 496.7232 325.4567 L 500.9658 321.2141 M 496.7232 325.4567 L 499.0193 319.9135 M 494.4271 331 L 494.4271 325 L 496.7232 319.4567 M 494.4271 325 L 494.4271 319 L 496.7232 313.4567 L 500.9658 309.2141 M 496.7232 313.4567 L 499.0193 307.9135 L 499.0193 301.9135 L 496.7232 296.3702 M 499.0193 301.9135 L 499.0193 295.9135 L 501.3154 290.3702 M 499.0193 295.9135 L 499.0193 289.9135 M 499.0193 307.9135 L 501.3154 302.3702 L 501.3154 296.3702 M 501.3154 302.3702 L 503.6115 296.8269 L 507.8542 292.5843 L 510.1503 287.041 M 507.8542 292.5843 L 512.0968 288.3416 M 503.6115 296.8269 L 505.9076 291.2836 L 510.1503 287.041 M 505.9076 291.2836 L 508.2037 285.7404 L 512.4464 281.4977 L 517.9896 279.2016 M 512.4464 281.4977 L 516.689 277.2551 L 518.9851 271.7118 L 523.2278 267.4692 M 518.9851 271.7118 L 521.2813 266.1685 M 516.689 277.2551 L 520.9316 273.0125 L 526.475 270.7163 M 520.9316 273.0125 L 525.1743 268.7698 L 530.7176 266.4737 L 536.7176 266.4737 M 530.7176 266.4737 L 536.2609 264.1776 M 525.1743 268.7698 L 529.4169 264.5272 L 534.9602 262.231 M 529.4169 264.5272 L 533.6595 260.2845 M 508.2037 285.7404 L 510.4998 280.1971 L 514.7425 275.9545 M 510.4998 280.1971 L 512.796 274.6538 L 512.796 268.6538 L 510.4998 263.1105 M 512.796 268.6538 L 512.796 262.6538 L 515.092 257.1105 M 512.796 262.6538 L 512.796 256.6538 M 512.796 274.6538 L 515.092 269.1105 L 515.092 263.1105 M 515.092 269.1105 L 517.3882 263.5673 M 494.4271 319 L 494.4271 313 L 492.131 307.4567 M 494.4271 313 L 494.4271 307 L 496.7232 301.4567 L 496.7232 295.4567 M 496.7232 301.4567 L 499.0193 295.9135 M 494.4271 307 L 494.4271 301 L 492.131 295.4567 M 494.4271 301 L 494.4271 295 L 496.7232 289.4567 L 496.7232 283.4567 M 496.7232 289.4567 L 499.0193 283.9135 L 503.2619 279.6708 M 499.0193 283.9135 L 501.3154 278.3702 L 501.3154 272.3702 L 499.0193 266.8269 M 501.3154 272.3702 L 501.3154 266.3702 L 503.6115 260.8269 M 501.3154 266.3702 L 501.3154 260.3702 M 501.3154 278.3702 L 503.6115 272.8269 L 507.8542 268.5843 M 503.6115 272.8269 L 505.9076 267.2836 L 510.1503 263.041 L 512.4464 257.4977 M 510.1503 263.041 L 514.3929 258.7983 M 505.9076 267.2836 L 508.2037 261.7404 L 512.4464 257.4977 M 508.2037 261.7404 L 510.4998 256.1971 M 494.4271 295 L 494.4271 289 L 492.131 283.4567 M 494.4271 289 L 494.4271 283 L 496.7232 277.4567 M 494.4271 283 L 494.4271 277 L 492.131 271.4567 L 487.8883 267.2141 M 492.131 271.4567 L 489.8348 265.9135 M 494.4271 277 L 494.4271 271 L 492.131 265.4567 M 494.4271 271 L 494.4271 265 L 496.7232 259.4567 L 496.7232 253.4567 M 496.7232 259.4567 L 499.0193 253.9135 M 494.4271 265 L 494.4271 259 L 492.131 253.4567 M 494.4271 259 L 494.4271 253 L 496.7232 247.4567 M 494.4271 253 L 494.4271 247 L 492.131 241.4567 L 487.8883 237.2141 M 492.131 241.4567 L 489.8348 235.9135 L 485.5922 231.6708 L 480.0489 229.3747 M 485.5922 231.6708 L 481.3495 227.4282 L 479.0534 221.8849 M 481.3495 227.4282 L 477.1069 223.1855 M 489.8348 235.9135 L 487.5387 230.3702 L 483.2961 226.1275 M 487.5387 230.3702 L 485.2426 224.8269 L 485.2426 218.8269 M 485.2426 224.8269 L 482.9465 219.2836 L 482.9465 213.2836 L 480.6504 207.7404 M 482.9465 213.2836 L 482.9465 207.2836 M 482.9465 219.2836 L 480.6504 213.7404 L 476.4077 209.4977 M 480.6504 213.7404 L 478.3543 208.1971 L 478.3543 202.1971 L 480.6504 196.6538 M 478.3543 202.1971 L 478.3543 196.1971 L 476.0582 190.6538 L 471.8155 186.4112 M 476.0582 190.6538 L 473.7621 185.1105 M 478.3543 196.1971 L 478.3543 190.1971 L 476.0582 184.6538 M 478.3543 190.1971 L 478.3543 184.1971 M 478.3543 208.1971 L 476.0582 202.6538 L 476.0582 196.6538 M 476.0582 202.6538 L 473.7621 197.1105 L 469.5194 192.8679 L 467.2233 187.3246 M 469.5194 192.8679 L 465.2768 188.6253 M 473.7621 197.1105 L 471.4659 191.5673 L 467.2233 187.3246 M 471.4659 191.5673 L 469.1698 186.024 L 469.1698 180.024 M 469.1698 186.024 L 466.8737 180.4807 L 466.8737 174.4807 L 469.1698 168.9374 M 466.8737 174.4807 L 466.8737 168.4807 M 466.8737 180.4807 L 464.5776 174.9374 L 460.335 170.6948 M 464.5776 174.9374 L 462.2815 169.3942 L 462.2815 163.3942 L 459.9854 157.8509 M 462.2815 163.3942 L 462.2815 157.3942 L 464.5776 151.8509 M 462.2815 157.3942 L 462.2815 151.3942 L 464.5776 145.8509 L 468.8203 141.6082 M 464.5776 145.8509 L 466.8737 140.3076 M 462.2815 151.3942 L 462.2815 145.3942 L 459.9854 139.8509 M 462.2815 145.3942 L 462.2815 139.3942 L 459.9854 133.8509 L 455.7427 129.6082 M 459.9854 133.8509 L 457.6893 128.3076 L 457.6893 122.3076 M 457.6893 128.3076 L 455.3932 122.7643 L 455.3932 116.7643 L 453.097 111.2211 M 455.3932 116.7643 L 455.3932 110.7643 M 455.3932 122.7643 L 453.097 117.2211 L 448.8544 112.9784 M 453.097 117.2211 L 450.8009 111.6778 M 462.2815 139.3942 L 462.2815 133.3942 L 464.5776 127.8509 M 462.2815 133.3942 L 462.2815 127.3942 L 459.9854 121.8509 L 455.7427 117.6082 M 459.9854 121.8509 L 457.6893 116.3076 L 457.6893 110.3076 M 457.6893 116.3076 L 455.3932 110.7643 M 462.2815 127.3942 L 462.2815 121.3942 L 459.9854 115.8509 M 462.2815 121.3942 L 462.2815 115.3942 L 464.5776 109.8509 L 464.5776 103.8509 M 464.5776 109.8509 L 466.8737 104.3076 L 471.1164 100.065 M 466.8737 104.3076 L 469.1698 98.76434 L 473.4125 94.5217 L 478.9557 92.22559 M 473.4125 94.5217 L 477.6551 90.27905 M 469.1698 98.76434 L 471.4659 93.22107 L 475.7086 88.97842 M 471.4659 93.22107 L 473.7621 87.6778 M 462.2815 115.3942 L 462.2815 109.3942 L 464.5776 103.8509 M 462.2815 109.3942 L 462.2815 103.3942 L 459.9854 97.85089 L 455.7427 93.60825 M 459.9854 97.85089 L 457.6893 92.30762 L 457.6893 86.30762 M 457.6893 92.30762 L 455.3932 86.76434 M 462.2815 103.3942 L 462.2815 97.39417 L 459.9854 91.85089 M 462.2815 97.39417 L 462.2815 91.39417 L 464.5776 85.85089 M 462.2815 91.39417 L 462.2815 85.39417 L 464.5776 79.85089 L 468.8203 75.60825 M 464.5776 79.85089 L 466.8737 74.30762 M 462.2815 85.39417 L 462.2815 79.39417 L 459.9854 73.85089 M 462.2815 79.39417 L 462.2815 73.39417 M 462.2815 169.3942 L 459.9854 163.8509 L 459.9854 157.8509 M 459.9854 163.8509 L 457.6893 158.3076 L 457.6893 152.3076 L 455.3932 146.7643 M 457.6893 152.3076 L 457.6893 146.3076 L 459.9854 140.7643 M 457.6893 146.3076 L 457.6893 140.3076 M 457.6893 158.3076 L 455.3932 152.7643 L 455.3932 146.7643 M 455.3932 152.7643 L 453.097 147.2211 L 448.8544 142.9784 L 446.5583 137.4352 M 448.8544 142.9784 L 444.6118 138.7358 L 442.3156 133.1925 L 438.073 128.9499 M 442.3156 133.1925 L 440.0195 127.6492 M 444.6118 138.7358 L 440.3691 134.4931 L 438.073 128.9499 M 440.3691 134.4931 L 436.1265 130.2505 M 453.097 147.2211 L 450.8009 141.6778 L 450.8009 135.6778 M 450.8009 141.6778 L 448.5048 136.1345 L 448.5048 130.1345 L 446.2087 124.5912 M 448.5048 130.1345 L 448.5048 124.1345 M 448.5048 136.1345 L 446.2087 130.5912 L 441.9661 126.3486 M 446.2087 130.5912 L 443.9126 125.048 L 443.9126 119.048 M 443.9126 125.048 L 441.6165 119.5047 M 494.4271 247 L 494.4271 241 L 492.131 235.4567 M 494.4271 241 L 494.4271 235 L 496.7232 229.4567 M 494.4271 235 L 494.4271 229 L 492.131 223.4567 L 492.131 217.4567 M 492.131 223.4567 L 489.8348 217.9135 M 494.4271 229 L 494.4271 223 L 496.7232 217.4567 M 494.4271 223 L 494.4271 217 L 492.131 211.4567 L 492.131 205.4567 M 492.131 211.4567 L 489.8348 205.9135 L 489.8348 199.9135 L 487.5387 194.3702 M 489.8348 199.9135 L 489.8348 193.9135 M 489.8348 205.9135 L 487.5387 200.3702 L 483.2961 196.1275 M 487.5387 200.3702 L 485.2426 194.8269 M 494.4271 217 L 494.4271 211 L 492.131 205.4567 M 494.4271 211 L 494.4271 205 L 492.131 199.4567 L 492.131 193.4567 M 492.131 199.4567 L 489.8348 193.9135 M 494.4271 205 L 494.4271 199 L 492.131 193.4567 M 494.4271 199 L 494.4271 193 L 492.131 187.4567 L 487.8883 183.2141 M 492.131 187.4567 L 489.8348 181.9135 L 485.5922 177.6708 L 480.0489 175.3747 M 485.5922 177.6708 L 481.3495 173.4282 L 479.0534 167.8849 M 481.3495 173.4282 L 477.1069 169.1855 M 489.8348 181.9135 L 487.5387 176.3702 L 483.2961 172.1275 M 487.5387 176.3702 L 485.2426 170.8269 L 485.2426 164.8269 M 485.2426 170.8269 L 482.9465 165.2836 L 478.7039 161.041 L 476.4077 155.4977 M 478.7039 161.041 L 474.4612 156.7983 L 468.9179 154.5022 L 462.9179 154.5022 M 468.9179 154.5022 L 463.3747 152.2061 L 459.132 147.9635 M 463.3747 152.2061 L 457.8314 149.91 M 474.4612 156.7983 L 470.2186 152.5557 L 464.6753 150.2596 M 470.2186 152.5557 L 465.9759 148.313 L 463.6798 142.7698 L 459.4372 138.5271 M 463.6798 142.7698 L 461.3837 137.2265 L 461.3837 131.2265 M 461.3837 137.2265 L 459.0876 131.6832 M 465.9759 148.313 L 461.7333 144.0704 L 459.4372 138.5271 M 461.7333 144.0704 L 457.4906 139.8278 M 482.9465 165.2836 L 480.6504 159.7404 L 480.6504 153.7404 M 480.6504 159.7404 L 478.3543 154.1971 L 474.1116 149.9544 L 468.5684 147.6583 M 474.1116 149.9544 L 469.869 145.7118 M 478.3543 154.1971 L 476.0582 148.6538 L 471.8155 144.4112 M 476.0582 148.6538 L 473.7621 143.1105 L 473.7621 137.1105 L 476.0582 131.5673 M 473.7621 137.1105 L 473.7621 131.1105 L 471.4659 125.5673 L 467.2233 121.3246 M 471.4659 125.5673 L 469.1698 120.024 M 473.7621 131.1105 L 473.7621 125.1105 L 471.4659 119.5673 M 473.7621 125.1105 L 473.7621 119.1105 L 476.0582 113.5673 M 473.7621 119.1105 L 473.7621 113.1105 M 473.7621 143.1105 L 471.4659 137.5673 L 471.4659 131.5673 M 471.4659 137.5673 L 469.1698 132.024 L 464.9272 127.7813 L 459.3839 125.4852 M 464.9272 127.7813 L 460.6845 123.5387 L 458.3884 117.9954 M 460.6845 123.5387 L 456.4419 119.2961 M 469.1698 132.024 L 466.8737 126.4807 L 462.6311 122.2381 M 466.8737 126.4807 L 464.5776 120.9374 L 464.5776 114.9374 M 464.5776 120.9374 L 462.2815 115.3942 M 494.4271 193 L 494.4271 187 L 496.7232 181.4567 M 494.4271 187 L 494.4271 181 L 492.131 175.4567 L 492.131 169.4567 M 492.131 175.4567 L 489.8348 169.9135 M 494.4271 181 L 494.4271 175 L 492.131 169.4567 M 494.4271 175 L 494.4271 169 L 492.131 163.4567 L 492.131 157.4567 M 492.131 163.4567 L 489.8348 157.9135 L 485.5922 153.6708 L 480.0489 151.3747 M 485.5922 153.6708 L 481.3495 149.4282 L 479.0534 143.8849 M 481.3495 149.4282 L 477.1069 145.1855 M 489.8348 157.9135 L 487.5387 152.3702 L 487.5387 146.3702 M 487.5387 152.3702 L 485.2426 146.8269 M 494.4271 169 L 494.4271 163 L 496.7232 157.4567 M 494.4271 163 L 494.4271 157 L 496.7232 151.4567 L 496.7232 145.4567 M 496.7232 151.4567 L 499.0193 145.9135 M 494.4271 157 L 494.4271 151 L 492.131 145.4567 M 494.4271 151 L 494.4271 145 L 496.7232 139.4567 M 494.4271 145 L 494.4271 139 L 496.7232 133.4567 L 496.7232 127.4567 M 496.7232 133.4567 L 499.0193 127.9135 L 503.2619 123.6708 M 499.0193 127.9135 L 501.3154 122.3702 L 505.558 118.1275 L 507.8542 112.5843 M 505.558 118.1275 L 509.8007 113.8849 L 515.3439 111.5888 M 509.8007 113.8849 L 514.0433 109.6422 M 501.3154 122.3702 L 503.6115 116.8269 L 507.8542 112.5843 M 503.6115 116.8269 L 505.9076 111.2836 M 494.4271 139 L 494.4271 133 L 492.131 127.4567 M 494.4271 133 L 494.4271 127 L 492.131 121.4567 L 487.8883 117.2141 M 492.131 121.4567 L 489.8348 115.9135 M 494.4271 127 L 494.4271 121 L 492.131 115.4567 M 494.4271 121 L 494.4271 115 L 496.7232 109.4567 M 494.4271 115 L 494.4271 109 L 496.7232 103.4567 L 496.7232 97.45673 M 496.7232 103.4567 L 499.0193 97.91345 L 503.2619 93.67081 M 499.0193 97.91345 L 501.3154 92.37018 M 494.4271 109 L 494.4271 103 L 496.7232 97.45673 M 494.4271 103 L 494.4271 97 " />
  </g>
</svg>
