<?xml version="1.0" encoding="UTF-8" standalone="no"?>
<!DOCTYPE svg PUBLIC "-//W3C//DTD SVG 1.1//EN"
    "http://www.w3.org/Graphics/SVG/1.1/DTD/svg11.dtd">
<svg xmlns="http://www.w3.org/2000/svg" width="538" height="452">
  <desc>stochastic LSystem</desc>
  <rect width="100%" height="100%" style="fill: white"/>
  <g stroke="black" fill="none" stroke-width="1">
    <path d="M 14.42704 451 L 14.42704 445 L 16.72314 439.4567 M 14.42704 445 L 14.42704 439 L 16.72314 433.4567 L 16.72314 427.4567 M 16.72314 433.4567 L 19.01924 427.9135 M 14.42704 439 L 14.42704 433 L 12.13094 427.4567 M 14.42704 433 L 14.42704 427 L 16.72314 421.4567 L 20.96578 417.2141 M 16.72314 421.4567 L 19.01924 415.9135 L 19.01924 409.9135 L 16.72314 404.3701 M 19.01924 409.9135 L 19.01924 403.9135 L 21.31534 398.3701 M 19.01924 403.9135 L 19.01924 397.9135 M 19.01924 415.9135 L 21.31534 410.3701 L 25.55798 406.1275 M 21.31534 410.3701 L 23.61144 404.8269 L 27.85408 400.5842 L 30.15018 395.041 M 27.85408 400.5842 L 32.09672 396.3416 M 23.61144 404.8269 L 25.90754 399.2836 L 30.15018 395.041 M 25.90754 399.2836 L 28.20364 393.7403 M 14.42704 427 L 14.42704 421 L 16.72314 415.4567 M 14.42704 421 L 14.42704 415 L 12.13094 409.4567 L 7.8883 405.2141 M 12.13094 409.4567 L 9.834841 403.9135 L 9.834841 397.9135 M 9.834841 403.9135 L 7.53874 398.3701 M 14.42704 415 L 14.42704 409 L 12.13094 403.4567 M 14.42704 409 L 14.42704 403 L 16.72314 397.4567 L 16.72314 391.4567 M 16.72314 397.4567 L 19.01924 391.9135 L 23.26188 387.6708 M 19.01924 391.9135 L 21.31534 386.3702 M 14.42704 403 L 14.42704 397 L 12.13094 391.4567 M 14.42704 397 L 14.42704 391 L 16.72314 385.4567 M 14.42704 391 L 14.42704 385 L 16.72314 379.4567 L 16.72314 373.4567 M 16.72314 379.4567 L 19.01924 373.9135 L 23.26188 369.6708 M 19.01924 373.9135 L 21.31534 368.3702 L 21.31534 362.3702 L 19.01924 356.8269 M 21.31534 362.3702 L 21.31534 356.3702 M 21.31534 368.3702 L 23.61144 362.8269 L 23.61144 356.8269 M 23.61144 362.8269 L 25.90754 357.2837 L 30.15018 353.041 L 35.69346 350.7449 M 30.15018 353.041 L 34.39282 348.7984 M 25.90754 357.2837 L 28.20364 351.7404 L 28.20364 345.7404 M 28.20364 351.7404 L 30.49974 346.1971 L 34.74238 341.9545 L 40.28566 339.6584 M 34.74238 341.9545 L 38.98502 337.7119 L 41.28112 332.1686 L 45.52376 327.9259 M 41.28112 332.1686 L 43.57722 326.6253 M 38.98502 337.7119 L 43.22766 333.4692 L 45.52376 327.926 M 43.22766 333.4692 L 47.4703 329.2266 L 53.01358 326.9305 M 47.4703 329.2266 L 51.71294 324.9839 M 30.49974 346.1971 L 32.79584 340.6538 L 32.79584 334.6538 M 32.79584 340.6538 L 35.09194 335.1106 L 39.33458 330.868 M 35.09194 335.1106 L 37.38804 329.5673 L 41.63068 325.3246 L 43.92678 319.7814 M 41.63068 325.3246 L 45.87332 321.082 M 37.38804 329.5673 L 39.68414 324.024 L 39.68414 318.024 M 39.68414 324.024 L 41.98024 318.4807 M 14.42704 385 L 14.42704 379 L 12.13094 373.4567 M 14.42704 379 L 14.42704 373 L 12.13094 367.4567 L 12.13094 361.4567 M 12.13094 367.4567 L 9.834841 361.9135 M 14.42704 373 L 14.42704 367 L 16.72314 361.4567 M 14.42704 367 L 14.42704 361 L 12.13094 355.4567 L 7.8883 351.2141 M 12.13094 355.4567 L 9.834841 349.9135 L 9.834841 343.9135 M 9.834841 349.9135 L 7.53874 344.3702 L 7.53874 338.3702 L 5.24264 332.8269 M 7.53874 338.3702 L 7.53874 332.3702 M 7.53874 344.3702 L 5.24264 338.8269 L 1 334.5843 M 5.24264 338.8269 L 2.94654 333.2837 M 14.42704 361 L 14.42704 355 L 12.13094 349.4567 M 14.42704 355 L 14.42704 349 L 12.13094 343.4567 L 7.8883 339.2141 M 12.13094 343.4567 L 9.834841 337.9135 L 9.834841 331.9135 M 9.834841 337.9135 L 7.53874 332.3702 M 14.42704 349 L 14.42704 343 L 12.13094 337.4567 M 14.42704 343 L 14.42704 337 L 16.72314 331.4567 L 20.96578 327.2141 M 16.72314 331.4567 L 19.01924 325.9135 M 14.42704 337 L 14.42704 331 L 12.13094 325.4567 M 14.42704 331 L 14.42704 325 L 16.72314 319.4567 M 14.42704 325 L 14.42704 319 L 16.72314 313.4567 L 16.72314 307.4567 M 16.72314 313.4567 L 19.01924 307.9135 L 23.26188 303.6708 L 25.55798 298.1275 M 23.26188 303.6708 L 27.50452 299.4282 L 33.0478 297.1321 M 27.50452 299.4282 L 31.74716 295.1855 M 19.01924 307.9135 L 21.31534 302.3702 L 21.31534 296.3702 M 21.31534 302.3702 L 23.61144 296.8269 L 27.85408 292.5843 M 23.61144 296.8269 L 25.90754 291.2836 L 25.90754 285.2836 L 28.20364 279.7404 M 25.90754 285.2836 L 25.90754 279.2836 L 23.61144 273.7404 L 19.3688 269.4977 M 23.61144 273.7404 L 21.31534 268.1971 L 21.31534 262.1971 M 21.31534 268.1971 L 19.01924 262.6538 M 25.90754 279.2836 L 25.90754 273.2836 L 23.61144 267.7404 M 25.90754 273.2836 L 25.90754 267.2836 L 28.20364 261.7404 M 25.90754 267.2836 L 25.90754 261.2836 L 28.20364 255.7404 L 28.20364 249.7404 M 28.20364 255.7404 L 30.49974 250.1971 L 34.74238 245.9544 M 30.49974 250.1971 L 32.79584 244.6538 M 25.90754 261.2836 L 25.90754 255.2836 L 23.61144 249.7404 M 25.90754 255.2836 L 25.90754 249.2836 M 25.90754 291.2836 L 28.20364 285.7404 L 28.20364 279.7404 M 28.20364 285.7404 L 30.49974 280.1971 L 34.74238 275.9544 L 40.28566 273.6583 M 34.74238 275.9544 L 38.98502 271.7118 M 30.49974 280.1971 L 32.79584 274.6538 L 32.79584 268.6538 M 32.79584 274.6538 L 35.09194 269.1105 L 39.33458 264.8679 M 35.09194 269.1105 L 37.38804 263.5673 L 41.63068 259.3246 L 43.92678 253.7813 M 41.63068 259.3246 L 45.87332 255.082 L 51.4166 252.7859 M 45.87332 255.082 L 50.11596 250.8393 L 55.65924 248.5432 L 59.90188 244.3006 M 55.65924 248.5432 L 61.20252 246.2471 L 67.20251 246.2471 M 61.20252 246.2471 L 66.7458 243.951 M 50.11596 250.8393 L 54.3586 246.5967 L 59.90188 244.3006 M 54.3586 246.5967 L 58.60124 242.354 M 37.38804 263.5673 L 39.68414 258.024 L 43.92678 253.7813 M 39.68414 258.024 L 41.98024 252.4807 L 41.98024 246.4807 L 44.27634 240.9374 M 41.98024 246.4807 L 41.98024 240.4807 M 41.98024 252.4807 L 44.27634 246.9374 L 44.27634 240.9374 M 44.27634 246.9374 L 46.57244 241.3942 L 50.81508 237.1515 M 46.57244 241.3942 L 48.86854 235.8509 L 53.11118 231.6082 L 55.40728 226.065 M 53.11118 231.6082 L 57.35382 227.3656 L 62.8971 225.0695 M 57.35382 227.3656 L 61.59646 223.123 M 48.86854 235.8509 L 51.16464 230.3076 L 51.16464 224.3076 M 51.16464 230.3076 L 53.46074 224.7643 L 57.70338 220.5217 M 53.46074 224.7643 L 55.75684 219.2211 L 55.75684 213.2211 L 53.46074 207.6778 M 55.75684 213.2211 L 55.75684 207.2211 L 58.05294 201.6778 M 55.75684 207.2211 L 55.75684 201.2211 L 53.46074 195.6778 L 49.2181 191.4352 M 53.46074 195.6778 L 51.16464 190.1345 M 55.75684 201.2211 L 55.75684 195.2211 L 58.05294 189.6778 M 55.75684 195.2211 L 55.75684 189.2211 L 58.05294 183.6778 L 62.29558 179.4352 M 58.05294 183.6778 L 60.34904 178.1345 M 55.75684 189.2211 L 55.75684 183.2211 L 53.46074 177.6778 M 55.75684 183.2211 L 55.75684 177.2211 L 58.05294 171.6778 M 55.75684 177.2211 L 55.75684 171.2211 L 53.46074 165.6778 L 49.2181 161.4352 M 53.46074 165.6778 L 51.16464 160.1345 L 46.922 155.8919 L 41.37872 153.5958 M 46.922 155.8919 L 42.67936 151.6492 L 40.38326 146.106 M 42.67936 151.6492 L 38.43672 147.4066 M 51.16464 160.1345 L 48.86854 154.5912 L 44.6259 150.3486 M 48.86854 154.5912 L 46.57244 149.048 L 46.57244 143.048 M 46.57244 149.048 L 44.27634 143.5047 L 44.27634 137.5047 L 41.98024 131.9614 M 44.27634 137.5047 L 44.27634 131.5047 M 44.27634 143.5047 L 41.98024 137.9614 L 37.7376 133.7188 M 41.98024 137.9614 L 39.68414 132.4182 M 55.75684 171.2211 L 55.75684 165.2211 L 53.46074 159.6778 M 55.75684 165.2211 L 55.75684 159.2211 L 53.46074 153.6778 L 49.2181 149.4352 M 53.46074 153.6778 L 51.16464 148.1345 M 55.75684 159.2211 L 55.75684 153.2211 L 58.05294 147.6778 M 55.75684 153.2211 L 55.75684 147.2211 L 58.05294 141.6778 L 58.05294 135.6778 M 58.05294 141.6778 L 60.34904 136.1345 L 64.59167 131.8919 M 60.34904 136.1345 L 62.64514 130.5912 L 66.88778 126.3486 L 69.18388 120.8053 M 66.88778 126.3486 L 71.13042 122.106 L 76.6737 119.8098 M 71.13042 122.106 L 75.37306 117.8633 M 62.64514 130.5912 L 64.94124 125.048 L 64.94124 119.048 M 64.94124 125.048 L 67.23734 119.5047 L 71.47998 115.2621 M 67.23734 119.5047 L 69.53344 113.9614 M 55.75684 147.2211 L 55.75684 141.2211 L 53.46074 135.6778 M 55.75684 141.2211 L 55.75684 135.2211 L 53.46074 129.6778 L 53.46074 123.6778 M 53.46074 129.6778 L 51.16464 124.1345 M 55.75684 135.2211 L 55.75684 129.2211 L 53.46074 123.6778 M 55.75684 129.2211 L 55.75684 123.2211 M 55.75684 219.2211 L 58.05294 213.6778 L 62.29558 209.4352 M 58.05294 213.6778 L 60.34904 208.1345 L 60.34904 202.1345 L 58.05294 196.5912 M 60.34904 202.1345 L 60.34904 196.1345 M 60.34904 208.1345 L 62.64514 202.5912 L 62.64514 196.5912 M 62.64514 202.5912 L 64.94124 197.048 L 69.18388 192.8053 M 64.94124 197.048 L 67.23734 191.5047 L 71.47998 187.2621 L 73.77608 181.7188 M 71.47998 187.2621 L 75.72263 183.0194 M 67.23734 191.5047 L 69.53344 185.9614 L 69.53344 179.9614 M 69.53344 185.9614 L 71.82954 180.4182 L 76.07218 176.1755 M 71.82954 180.4182 L 74.12564 174.8749 L 74.12564 168.8749 L 76.42174 163.3316 M 74.12564 168.8749 L 74.12564 162.8749 L 76.42174 157.3316 L 76.42174 151.3316 M 76.42174 157.3316 L 78.71784 151.7883 M 74.12564 162.8749 L 74.12564 156.8749 L 76.42174 151.3316 M 74.12564 156.8749 L 74.12564 150.8749 M 74.12564 174.8749 L 76.42174 169.3316 L 80.66438 165.089 M 76.42174 169.3316 L 78.71784 163.7883 L 78.71784 157.7883 L 76.42174 152.2451 M 78.71784 157.7883 L 78.71784 151.7883 M 78.71784 163.7883 L 81.01394 158.2451 L 81.01394 152.2451 M 81.01394 158.2451 L 83.31004 152.7018 M 14.42704 319 L 14.42704 313 L 16.72314 307.4567 M 14.42704 313 L 14.42704 307 L 12.13094 301.4567 L 7.8883 297.2141 M 12.13094 301.4567 L 9.834841 295.9135 M 14.42704 307 L 14.42704 301 L 16.72314 295.4567 M 14.42704 301 L 14.42704 295 L 16.72314 289.4567 L 16.72314 283.4567 M 16.72314 289.4567 L 19.01924 283.9135 M 14.42704 295 L 14.42704 289 L 16.72314 283.4567 M 14.42704 289 L 14.42704 283 L 12.13094 277.4567 L 7.8883 273.2141 M 12.13094 277.4567 L 9.834841 271.9135 L 5.5922 267.6708 L 3.2961 262.1275 M 5.5922 267.6708 L 1.34956 263.4282 M 9.834841 271.9135 L 7.53874 266.3702 L 3.2961 262.1275 M 7.53874 266.3702 L 5.24264 260.8269 L 5.24264 254.8269 M 5.24264 260.8269 L 2.94654 255.2836 M 14.42704 283 L 14.42704 277 L 16.72314 271.4567 M 14.42704 277 L 14.42704 271 L 12.13094 265.4567 L 7.8883 261.2141 M 12.13094 265.4567 L 9.834841 259.9135 M 14.42704 271 L 14.42704 265 L 16.72314 259.4567 M 14.42704 265 L 14.42704 259 L 16.72314 253.4567 L 16.72314 247.4567 M 16.72314 253.4567 L 19.01924 247.9135 L 23.26188 243.6708 M 19.01924 247.9135 L 21.31534 242.3702 M 14.42704 259 L 14.42704 253 L 12.13094 247.4567 M 14.42704 253 L 14.42704 247 L 16.72314 241.4567 L 16.72314 235.4567 M 16.72314 241.4567 L 19.01924 235.9135 L 23.26188 231.6708 M 19.01924 235.9135 L 21.31534 230.3702 L 21.31534 224.3702 L 23.61144 218.8269 M 21.31534 224.3702 L 21.31534 218.3702 M 21.31534 230.3702 L 23.61144 224.8269 L 23.61144 218.8269 M 23.61144 224.8269 L 25.90754 219.2836 M 14.42704 247 L 14.42704 241 L 12.13094 235.4567 M 14.42704 241 L 14.42704 235 L 16.72314 229.4567 L 20.96578 225.2141 M 16.72314 229.4567 L 19.01924 223.9135 M 14.42704 235 L 14.42704 229 L 12.13094 223.4567 M 14.42704 229 L 14.42704 223 L 16.72314 217.4567 M 14.42704 223 L 14.42704 217 L 16.72314 211.4567 L 16.72314 205.4567 M 16.72314 211.4567 L 19.01924 205.9135 L 19.01924 199.9135 L 16.72314 194.3702 M 19.01924 199.9135 L 19.01924 193.9135 L 21.31534 188.3702 M 19.01924 193.9135 L 19.01924 187.9135 M 19.01924 205.9135 L 21.31534 200.3702 L 25.55798 196.1275 M 21.31534 200.3702 L 23.61144 194.8269 L 27.85408 190.5843 L 33.39736 188.2881 M 27.85408 190.5843 L 32.09672 186.3416 M 23.61144 194.8269 L 25.90754 189.2836 L 25.90754 183.2836 M 25.90754 189.2836 L 28.20364 183.7404 L 32.44628 179.4977 L 37.98956 177.2016 M 32.44628 179.4977 L 36.68892 175.2551 L 38.98502 169.7118 L 38.98502 163.7118 M 38.98502 169.7118 L 41.28112 164.1685 L 45.52376 159.9259 M 41.28112 164.1685 L 43.57722 158.6252 M 36.68892 175.2551 L 40.93156 171.0124 L 46.47484 168.7163 M 40.93156 171.0124 L 45.1742 166.7698 L 50.71748 164.4737 L 56.71748 164.4737 M 50.71748 164.4737 L 56.26076 162.1776 M 45.1742 166.7698 L 49.41684 162.5271 L 51.71294 156.9839 M 49.41684 162.5271 L 53.65948 158.2845 L 59.20276 155.9884 M 53.65948 158.2845 L 57.90212 154.0418 M 28.20364 183.7404 L 30.49974 178.1971 L 34.74238 173.9544 M 30.49974 178.1971 L 32.79584 172.6538 L 37.03848 168.4112 L 42.58176 166.1151 M 37.03848 168.4112 L 41.28112 164.1685 M 32.79584 172.6538 L 35.09194 167.1105 L 35.09194 161.1105 M 35.09194 167.1105 L 37.38804 161.5673 M 14.42704 217 L 14.42704 211 L 16.72314 205.4567 M 14.42704 211 L 14.42704 205 L 16.72314 199.4567 L 20.96578 195.2141 M 16.72314 199.4567 L 19.01924 193.9135 M 14.42704 205 L 14.42704 199 L 12.13094 193.4567 M 14.42704 199 L 14.42704 193 L 12.13094 187.4567 L 7.8883 183.2141 M 12.13094 187.4567 L 9.834841 181.9135 L 9.834841 175.9135 M 9.834841 181.9135 L 7.53874 176.3702 L 7.53874 170.3702 L 5.24264 164.8269 M 7.53874 170.3702 L 7.53874 164.3702 M 7.53874 176.3702 L 5.24264 170.8269 L 1 166.5843 M 5.24264 170.8269 L 2.94654 165.2836 M 14.42704 193 L 14.42704 187 L 12.13094 181.4567 M 14.42704 187 L 14.42704 181 L 12.13094 175.4567 L 7.8883 171.2141 M 12.13094 175.4567 L 9.834841 169.9135 M 14.42704 181 L 14.42704 175 L 12.13094 169.4567 M 14.42704 175 L 14.42704 169 M 110.427 451 L 110.427 445 L 108.1309 439.4567 M 110.427 445 L 110.427 439 L 112.7231 433.4567 M 110.427 439 L 110.427 433 L 108.1309 427.4567 L 108.1309 421.4567 M 108.1309 427.4567 L 105.8348 421.9135 M 110.427 433 L 110.427 427 L 112.7231 421.4567 M 110.427 427 L 110.427 421 L 112.7231 415.4567 L 116.9658 411.2141 M 112.7231 415.4567 L 115.0192 409.9135 L 115.0192 403.9135 L 112.7231 398.3701 M 115.0192 403.9135 L 115.0192 397.9135 M 115.0192 409.9135 L 117.3153 404.3701 L 117.3153 398.3701 M 117.3153 404.3701 L 119.6114 398.8269 L 123.8541 394.5842 L 126.1501 389.041 M 123.8541 394.5842 L 128.0967 390.3416 M 119.6114 398.8269 L 121.9075 393.2836 L 121.9075 387.2836 M 121.9075 393.2836 L 124.2036 387.7403 L 128.4463 383.4977 M 124.2036 387.7403 L 126.4997 382.197 M 110.427 421 L 110.427 415 L 108.1309 409.4567 M 110.427 415 L 110.427 409 L 108.1309 403.4567 L 108.1309 397.4567 M 108.1309 403.4567 L 105.8348 397.9135 M 110.427 409 L 110.427 403 L 112.7231 397.4567 M 110.427 403 L 110.427 397 L 108.1309 391.4567 L 103.8883 387.2141 M 108.1309 391.4567 L 105.8348 385.9135 L 101.5922 381.6708 L 99.2961 376.1275 M 101.5922 381.6708 L 97.34957 377.4282 M 105.8348 385.9135 L 103.5387 380.3702 L 99.29611 376.1275 M 103.5387 380.3702 L 101.2427 374.8269 L 101.2427 368.8269 M 101.2427 374.8269 L 98.94656 369.2836 L 94.70393 365.041 L 92.40783 359.4977 M 94.70393 365.041 L 90.4613 360.7984 L 84.91803 358.5023 L 78.91803 358.5023 M 84.91803 358.5023 L 79.37476 356.2062 M 90.4613 360.7984 L 86.21867 356.5557 L 80.6754 354.2596 M 86.21867 356.5557 L 81.97604 352.3131 L 79.67994 346.7698 L 79.67994 340.7698 M 79.67994 346.7698 L 77.38383 341.2266 M 81.97604 352.3131 L 77.7334 348.0705 L 75.4373 342.5272 M 77.7334 348.0705 L 73.49076 343.8279 M 98.94656 369.2836 L 96.65046 363.7404 L 92.40782 359.4977 M 96.65046 363.7404 L 94.35436 358.1971 L 90.11172 353.9544 L 84.56844 351.6583 M 90.11172 353.9544 L 85.86908 349.7118 L 83.57298 344.1685 M 85.86908 349.7118 L 81.62644 345.4691 M 94.35436 358.1971 L 92.05827 352.6538 L 87.81564 348.4112 M 92.05827 352.6538 L 89.76217 347.1105 L 89.76217 341.1105 M 89.76217 347.1105 L 87.46607 341.5673 L 87.46607 335.5673 L 85.16998 330.024 M 87.46607 335.5673 L 87.46607 329.5673 L 89.76217 324.024 M 87.46607 329.5673 L 87.46607 323.5673 M 87.46607 341.5673 L 85.16998 336.024 L 85.16998 330.024 M 85.16998 336.024 L 82.87388 330.4807 L 82.87388 324.4807 L 80.57778 318.9374 M 82.87388 324.4807 L 82.87388 318.4807 L 80.57778 312.9374 L 76.33514 308.6948 M 80.57778 312.9374 L 78.28168 307.3942 L 78.28168 301.3942 M 78.28168 307.3942 L 75.98558 301.8509 M 82.87388 318.4807 L 82.87388 312.4807 L 80.57778 306.9374 M 82.87388 312.4807 L 82.87388 306.4807 M 82.87388 330.4807 L 80.57778 324.9374 L 76.33514 320.6948 M 80.57778 324.9374 L 78.28168 319.3942 L 78.28168 313.3942 L 80.57778 307.8509 M 78.28168 313.3942 L 78.28168 307.3942 M 78.28168 319.3942 L 75.98558 313.8509 L 75.98558 307.8509 M 75.98558 313.8509 L 73.68948 308.3076 M 110.427 397 L 110.427 391 L 108.1309 385.4567 M 110.427 391 L 110.427 385 L 112.7231 379.4567 M 110.427 385 L 110.427 379 L 108.1309 373.4567 L 103.8883 369.2141 M 108.1309 373.4567 L 105.8348 367.9135 M 110.427 379 L 110.427 373 L 108.1309 367.4567 M 110.427 373 L 110.427 367 L 108.1309 361.4567 L 103.8883 357.2141 M 108.1309 361.4567 L 105.8348 355.9135 L 105.8348 349.9135 M 105.8348 355.9135 L 103.5387 350.3702 L 99.29611 346.1276 L 93.75284 343.8315 M 99.29611 346.1276 L 95.05347 341.8849 L 92.75736 336.3417 M 95.05347 341.8849 L 90.81083 337.6423 M 103.5387 350.3702 L 101.2427 344.8269 L 97.00002 340.5843 M 101.2427 344.8269 L 98.94656 339.2837 L 98.94656 333.2837 M 98.94656 339.2837 L 96.65046 333.7404 L 96.65046 327.7404 L 94.35436 322.1971 M 96.65046 327.7404 L 96.65046 321.7404 L 98.94656 316.1971 M 96.65046 321.7404 L 96.65046 315.7404 M 96.65046 333.7404 L 94.35436 328.1971 L 94.35436 322.1971 M 94.35436 328.1971 L 92.05827 322.6538 M 110.427 367 L 110.427 361 L 108.1309 355.4567 M 110.427 361 L 110.427 355 L 112.7231 349.4567 M 110.427 355 L 110.427 349 L 112.7231 343.4567 L 112.7231 337.4567 M 112.7231 343.4567 L 115.0192 337.9135 M 110.427 349 L 110.427 343 L 108.1309 337.4567 M 110.427 343 L 110.427 337 L 112.7231 331.4567 L 112.7231 325.4567 M 112.7231 331.4567 L 115.0192 325.9135 L 115.0192 319.9135 L 117.3153 314.3702 M 115.0192 319.9135 L 115.0192 313.9135 M 115.0192 325.9135 L 117.3153 320.3702 L 121.558 316.1275 M 117.3153 320.3702 L 119.6114 314.8269 L 119.6114 308.8269 L 121.9075 303.2836 M 119.6114 308.8269 L 119.6114 302.8269 L 121.9075 297.2836 L 126.1501 293.041 M 121.9075 297.2836 L 124.2036 291.7404 M 119.6114 302.8269 L 119.6114 296.8269 L 121.9075 291.2836 M 119.6114 296.8269 L 119.6114 290.8269 M 119.6114 314.8269 L 121.9075 309.2836 L 126.1501 305.041 M 121.9075 309.2836 L 124.2036 303.7404 L 124.2036 297.7404 L 126.4997 292.1971 M 124.2036 297.7404 L 124.2036 291.7404 M 124.2036 303.7404 L 126.4997 298.1971 L 126.4997 292.1971 M 126.4997 298.1971 L 128.7958 292.6538 L 133.0384 288.4112 L 135.3345 282.8679 M 133.0384 288.4112 L 137.2811 284.1685 L 142.8243 281.8724 M 137.2811 284.1685 L 141.5237 279.9259 M 128.7958 292.6538 L 131.0919 287.1105 L 131.0919 281.1105 M 131.0919 287.1105 L 133.388 281.5673 M 110.427 337 L 110.427 331 L 108.1309 325.4567 M 110.427 331 L 110.427 325 L 112.7231 319.4567 L 116.9658 315.2141 M 112.7231 319.4567 L 115.0192 313.9135 M 110.427 325 L 110.427 319 L 108.1309 313.4567 M 110.427 319 L 110.427 313 L 112.7231 307.4567 M 110.427 313 L 110.427 307 L 112.7231 301.4567 L 112.7231 295.4567 M 112.7231 301.4567 L 115.0192 295.9135 L 119.2619 291.6708 M 115.0192 295.9135 L 117.3153 290.3702 L 117.3153 284.3702 L 119.6114 278.8269 M 117.3153 284.3702 L 117.3153 278.3702 M 117.3153 290.3702 L 119.6114 284.8269 L 123.8541 280.5843 M 119.6114 284.8269 L 121.9075 279.2836 M 110.427 307 L 110.427 301 L 108.1309 295.4567 M 110.427 301 L 110.427 295 L 112.7231 289.4567 M 110.427 295 L 110.427 289 L 112.7231 283.4567 L 112.7231 277.4567 M 112.7231 283.4567 L 115.0192 277.9135 L 119.2619 273.6708 M 115.0192 277.9135 L 117.3153 272.3702 M 110.427 289 L 110.427 283 L 112.7231 277.4567 M 110.427 283 L 110.427 277 L 112.7231 271.4567 L 116.9658 267.2141 M 112.7231 271.4567 L 115.0192 265.9135 L 119.2619 261.6708 L 121.558 256.1275 M 119.2619 261.6708 L 123.5045 257.4282 L 129.0478 255.1321 M 123.5045 257.4282 L 127.7471 253.1855 M 115.0192 265.9135 L 117.3153 260.3702 L 117.3153 254.3702 M 117.3153 260.3702 L 119.6114 254.8269 L 119.6114 248.8269 L 121.9075 243.2836 M 119.6114 248.8269 L 119.6114 242.8269 L 117.3153 237.2836 L 113.0727 233.041 M 117.3153 237.2836 L 115.0192 231.7404 L 115.0192 225.7404 M 115.0192 231.7404 L 112.7231 226.1971 M 119.6114 242.8269 L 119.6114 236.8269 L 117.3153 231.2836 M 119.6114 236.8269 L 119.6114 230.8269 L 121.9075 225.2836 M 119.6114 230.8269 L 119.6114 224.8269 M 119.6114 254.8269 L 121.9075 249.2836 L 121.9075 243.2836 M 121.9075 249.2836 L 124.2036 243.7404 L 124.2036 237.7404 L 121.9075 232.1971 M 124.2036 237.7404 L 124.2036 231.7404 L 126.4997 226.1971 M 124.2036 231.7404 L 124.2036 225.7404 M 124.2036 243.7404 L 126.4997 238.1971 L 130.7424 233.9544 M 126.4997 238.1971 L 128.7958 232.6538 L 133.0384 228.4112 L 135.3345 222.8679 M 133.0384 228.4112 L 137.2811 224.1685 M 128.7958 232.6538 L 131.0919 227.1105 L 135.3345 222.8679 M 131.0919 227.1105 L 133.388 221.5673 L 133.388 215.5673 L 131.0919 210.024 M 133.388 215.5673 L 133.388 209.5673 L 131.0919 204.024 L 126.8493 199.7813 M 131.0919 204.024 L 128.7958 198.4807 L 128.7958 192.4807 M 128.7958 198.4807 L 126.4997 192.9374 M 133.388 209.5673 L 133.388 203.5673 L 131.0919 198.024 M 133.388 203.5673 L 133.388 197.5673 L 135.6841 192.024 M 133.388 197.5673 L 133.388 191.5673 L 135.6841 186.024 L 135.6841 180.024 M 135.6841 186.024 L 137.9802 180.4807 M 133.388 191.5673 L 133.388 185.5673 L 131.0919 180.024 M 133.388 185.5673 L 133.388 179.5673 L 135.6841 174.024 L 135.6841 168.024 M 135.6841 174.024 L 137.9802 168.4807 L 142.2228 164.2381 M 137.9802 168.4807 L 140.2763 162.9374 L 140.2763 156.9374 L 142.5724 151.3942 M 140.2763 156.9374 L 140.2763 150.9374 M 140.2763 162.9374 L 142.5724 157.3942 L 146.815 153.1515 M 142.5724 157.3942 L 144.8685 151.8509 M 133.388 179.5673 L 133.388 173.5673 L 131.0919 168.024 M 133.388 173.5673 L 133.388 167.5673 L 135.6841 162.024 M 133.388 167.5673 L 133.388 161.5673 L 131.0919 156.024 L 131.0919 150.024 M 131.0919 156.024 L 128.7958 150.4807 M 133.388 161.5673 L 133.388 155.5673 L 135.6841 150.024 M 133.388 155.5673 L 133.388 149.5673 L 135.6841 144.024 L 135.6841 138.024 M 135.6841 144.024 L 137.9802 138.4807 L 142.2228 134.2381 M 137.9802 138.4807 L 140.2763 132.9374 M 133.388 149.5673 L 133.388 143.5673 L 135.6841 138.024 M 133.388 143.5673 L 133.388 137.5673 M 133.388 221.5673 L 135.6841 216.024 L 135.6841 210.024 M 135.6841 216.024 L 137.9802 210.4807 L 142.2228 206.2381 L 147.7661 203.942 M 142.2228 206.2381 L 146.4655 201.9954 M 137.9802 210.4807 L 140.2763 204.9374 L 140.2763 198.9374 M 140.2763 204.9374 L 142.5724 199.3942 L 142.5724 193.3942 L 144.8685 187.8509 M 142.5724 193.3942 L 142.5724 187.3942 L 140.2763 181.8509 L 140.2763 175.8509 M 140.2763 181.8509 L 137.9802 176.3076 M 142.5724 187.3942 L 142.5724 181.3942 L 140.2763 175.8509 M 142.5724 181.3942 L 142.5724 175.3942 M 142.5724 199.3942 L 144.8685 193.8509 L 144.8685 187.8509 M 144.8685 193.8509 L 147.1646 188.3076 L 151.4072 184.065 M 147.1646 188.3076 L 149.4607 182.7643 L 149.4607 176.7643 L 147.1646 171.2211 M 149.4607 176.7643 L 149.4607 170.7643 M 149.4607 182.7643 L 151.7568 177.2211 L 151.7568 171.2211 M 151.7568 177.2211 L 154.0529 171.6778 L 158.2955 167.4352 M 154.0529 171.6778 L 156.349 166.1345 L 160.5916 161.8919 L 162.8877 156.3486 M 160.5916 161.8919 L 164.8343 157.6492 M 156.349 166.1345 L 158.6451 160.5912 L 162.8877 156.3486 M 158.6451 160.5912 L 160.9412 155.048 L 165.1838 150.8053 L 167.4799 145.2621 M 165.1838 150.8053 L 169.4265 146.5627 L 174.9697 144.2666 M 169.4265 146.5627 L 173.6691 142.32 L 175.9652 136.7768 L 175.9652 130.7768 M 175.9652 136.7768 L 178.2613 131.2335 L 182.5039 126.9908 M 178.2613 131.2335 L 180.5574 125.6902 M 173.6691 142.32 L 177.9117 138.0774 L 180.2079 132.5341 M 177.9117 138.0774 L 182.1544 133.8347 L 187.6977 131.5386 M 182.1544 133.8347 L 186.397 129.5921 L 191.9403 127.296 L 197.9403 127.296 M 191.9403 127.296 L 197.4836 124.9999 M 186.397 129.5921 L 190.6397 125.3495 L 192.9358 119.8062 M 190.6397 125.3495 L 194.8823 121.1068 M 160.9412 155.048 L 163.2373 149.5047 L 163.2373 143.5047 M 163.2373 149.5047 L 165.5334 143.9614 L 169.776 139.7188 L 172.0721 134.1755 M 169.776 139.7188 L 174.0186 135.4761 M 165.5334 143.9614 L 167.8295 138.4182 L 167.8295 132.4182 M 167.8295 138.4182 L 170.1255 132.8749 L 174.3682 128.6322 M 170.1255 132.8749 L 172.4217 127.3316 L 176.6643 123.089 L 178.9604 117.5457 M 176.6643 123.089 L 180.907 118.8463 L 186.4502 116.5502 M 180.907 118.8463 L 185.1496 114.6037 L 187.4457 109.0604 L 187.4457 103.0604 M 187.4457 109.0604 L 189.7418 103.5171 M 185.1496 114.6037 L 189.3922 110.361 L 191.6883 104.8177 M 189.3922 110.361 L 193.6349 106.1184 L 199.1782 103.8223 M 193.6349 106.1184 L 197.8775 101.8757 L 200.1736 96.33246 L 200.1736 90.33246 M 200.1736 96.33246 L 202.4697 90.78918 L 202.4697 84.78918 L 204.7658 79.24591 M 202.4697 84.78918 L 202.4697 78.78918 M 202.4697 90.78918 L 204.7658 85.24591 L 209.0085 81.00327 M 204.7658 85.24591 L 207.0619 79.70264 M 197.8775 101.8757 L 202.1202 97.63309 L 204.4163 92.08981 M 202.1202 97.63309 L 206.3628 93.39044 L 208.6589 87.84717 L 212.9016 83.60452 M 208.6589 87.84717 L 210.955 82.30389 M 206.3628 93.39044 L 210.6055 89.1478 L 216.1487 86.85168 M 210.6055 89.1478 L 214.8481 84.90515 L 220.3914 82.60904 L 224.634 78.36639 M 220.3914 82.60904 L 225.9347 80.31293 L 231.9347 80.31293 M 225.9347 80.31293 L 231.4779 78.01682 L 237.4779 78.01682 L 243.0212 80.31293 M 237.4779 78.01682 L 243.4779 78.01682 M 231.4779 78.01682 L 237.0212 75.7207 L 241.2639 71.47806 M 237.0212 75.7207 L 242.5645 73.42459 L 248.5645 73.42459 M 242.5645 73.42459 L 248.1078 71.12848 M 214.8481 84.90515 L 219.0908 80.66251 L 224.634 78.36639 M 219.0908 80.66251 L 223.3334 76.41986 L 225.6295 70.87659 L 225.6295 64.87659 M 225.6295 70.87659 L 227.9256 65.33331 L 232.1682 61.09067 M 227.9256 65.33331 L 230.2217 59.79004 M 223.3334 76.41986 L 227.576 72.17722 L 229.8721 66.63394 M 227.576 72.17722 L 231.8187 67.93457 L 237.362 65.63846 L 241.6046 61.39581 M 237.362 65.63846 L 242.9052 63.34235 M 231.8187 67.93457 L 236.0613 63.69193 L 238.3574 58.14865 M 236.0613 63.69193 L 240.304 59.44928 M 172.4217 127.3316 L 174.7177 121.7883 L 174.7177 115.7883 M 174.7177 121.7883 L 177.0139 116.2451 L 177.0139 110.2451 L 174.7177 104.7018 M 177.0139 110.2451 L 177.0139 104.2451 M 177.0139 116.2451 L 179.3099 110.7018 L 179.3099 104.7018 M 179.3099 110.7018 L 181.606 105.1585 L 185.8487 100.9159 M 181.606 105.1585 L 183.9021 99.61523 L 188.1448 95.37259 L 190.4409 89.82932 M 188.1448 95.37259 L 192.3874 91.12994 L 197.9307 88.83383 M 192.3874 91.12994 L 196.6301 86.8873 L 198.9262 81.34402 L 198.9262 75.34402 M 198.9262 81.34402 L 201.2223 75.80075 L 205.4649 71.55811 M 201.2223 75.80075 L 203.5184 70.25748 M 196.6301 86.8873 L 200.8727 82.64465 L 203.1688 77.10138 M 200.8727 82.64465 L 205.1154 78.40201 L 210.6586 76.1059 M 205.1154 78.40201 L 209.358 74.15936 L 214.9013 71.86325 L 219.1439 67.62061 M 214.9013 71.86325 L 220.4445 69.56714 M 209.358 74.15936 L 213.6006 69.91672 L 215.8968 64.37344 M 213.6006 69.91672 L 217.8433 65.67407 M 183.9021 99.61523 L 186.1982 94.07196 L 186.1982 88.07196 M 186.1982 94.07196 L 188.4943 88.52869 L 192.737 84.28604 M 188.4943 88.52869 L 190.7904 82.98541 L 195.0331 78.74277 L 197.3292 73.19949 M 195.0331 78.74277 L 199.2757 74.50012 L 204.819 72.20401 M 199.2757 74.50012 L 203.5184 70.25748 M 190.7904 82.98541 L 193.0865 77.44214 L 193.0865 71.44214 M 193.0865 77.44214 L 195.3826 71.89886 L 199.6253 67.65622 M 195.3826 71.89886 L 197.6787 66.35559 M 110.427 277 L 110.427 271 L 112.7231 265.4567 M 110.427 271 L 110.427 265 L 108.1309 259.4567 L 103.8883 255.2141 M 108.1309 259.4567 L 105.8348 253.9135 L 105.8348 247.9135 M 105.8348 253.9135 L 103.5387 248.3702 M 110.427 265 L 110.427 259 L 108.1309 253.4567 M 110.427 259 L 110.427 253 L 112.7231 247.4567 L 116.9658 243.2141 M 112.7231 247.4567 L 115.0192 241.9135 L 115.0192 235.9135 L 112.7231 230.3702 M 115.0192 235.9135 L 115.0192 229.9135 M 115.0192 241.9135 L 117.3153 236.3702 L 121.558 232.1275 M 117.3153 236.3702 L 119.6114 230.8269 M 110.427 253 L 110.427 247 L 108.1309 241.4567 M 110.427 247 L 110.427 241 L 112.7231 235.4567 M 110.427 241 L 110.427 235 L 108.1309 229.4567 L 103.8883 225.2141 M 108.1309 229.4567 L 105.8348 223.9135 M 110.427 235 L 110.427 229 L 108.1309 223.4567 M 110.427 229 L 110.427 223 L 112.7231 217.4567 M 110.427 223 L 110.427 217 L 108.1309 211.4567 L 103.8883 207.2141 M 108.1309 211.4567 L 105.8348 205.9135 L 105.8348 199.9135 L 108.1309 194.3702 M 105.8348 199.9135 L 105.8348 193.9135 M 105.8348 205.9135 L 103.5387 200.3702 L 99.29611 196.1275 M 103.5387 200.3702 L 101.2427 194.8269 L 101.2427 188.8269 M 101.2427 194.8269 L 98.94656 189.2836 L 94.70393 185.041 L 89.16066 182.7449 M 94.70393 185.041 L 90.4613 180.7983 L 88.1652 175.2551 M 90.4613 180.7983 L 86.21867 176.5557 L 83.92257 171.0124 L 79.67993 166.7698 M 83.92257 171.0124 L 81.62647 165.4691 M 86.21867 176.5557 L 81.97604 172.313 L 76.43277 170.0169 M 81.97604 172.313 L 77.7334 168.0704 L 75.4373 162.5271 M 77.7334 168.0704 L 73.49076 163.8278 M 98.94656 189.2836 L 96.65046 183.7404 L 92.40782 179.4977 M 96.65046 183.7404 L 94.35436 178.1971 L 90.11172 173.9544 L 84.56844 171.6583 M 90.11172 173.9544 L 85.86908 169.7118 L 83.57298 164.1685 M 85.86908 169.7118 L 81.62644 165.4691 M 94.35436 178.1971 L 92.05827 172.6538 L 87.81564 168.4112 M 92.05827 172.6538 L 89.76217 167.1105 L 89.76217 161.1105 L 92.05827 155.5673 M 89.76217 161.1105 L 89.76217 155.1105 M 89.76217 167.1105 L 87.46607 161.5673 L 83.22343 157.3246 M 87.46607 161.5673 L 85.16998 156.024 L 85.16998 150.024 M 85.16998 156.024 L 82.87388 150.4807 M 110.427 217 L 110.427 211 L 112.7231 205.4567 M 110.427 211 L 110.427 205 L 108.1309 199.4567 L 103.8883 195.2141 M 108.1309 199.4567 L 105.8348 193.9135 M 110.427 205 L 110.427 199 L 108.1309 193.4567 M 110.427 199 L 110.427 193 L 112.7231 187.4567 L 112.7231 181.4567 M 112.7231 187.4567 L 115.0192 181.9135 L 119.2619 177.6708 M 115.0192 181.9135 L 117.3153 176.3702 M 110.427 193 L 110.427 187 L 112.7231 181.4567 M 110.427 187 L 110.427 181 L 108.1309 175.4567 L 103.8883 171.2141 M 108.1309 175.4567 L 105.8348 169.9135 L 105.8348 163.9135 M 105.8348 169.9135 L 103.5387 164.3702 L 99.29611 160.1275 L 97.00001 154.5843 M 99.29611 160.1275 L 95.05347 155.8849 M 103.5387 164.3702 L 101.2427 158.8269 L 101.2427 152.8269 M 101.2427 158.8269 L 98.94656 153.2836 M 110.427 181 L 110.427 175 L 108.1309 169.4567 M 110.427 175 L 110.427 169 L 112.7231 163.4567 M 110.427 169 L 110.427 163 L 108.1309 157.4567 L 108.1309 151.4567 M 108.1309 157.4567 L 105.8348 151.9135 M 110.427 163 L 110.427 157 L 112.7231 151.4567 M 110.427 157 L 110.427 151 M 206.427 451 L 206.427 445 L 208.7231 439.4567 M 206.427 445 L 206.427 439 L 204.131 433.4567 L 204.131 427.4567 M 204.131 433.4567 L 201.8348 427.9135 M 206.427 439 L 206.427 433 L 204.131 427.4567 M 206.427 433 L 206.427 427 L 208.7231 421.4567 L 212.9658 417.2141 M 208.7231 421.4567 L 211.0192 415.9135 M 206.427 427 L 206.427 421 L 208.7231 415.4567 M 206.427 421 L 206.427 415 L 204.131 409.4567 L 204.131 403.4567 M 204.131 409.4567 L 201.8348 403.9135 L 197.5922 399.6708 L 192.0489 397.3747 M 197.5922 399.6708 L 193.3495 395.4282 L 191.0535 389.8849 M 193.3495 395.4282 L 189.1069 391.1855 M 201.8348 403.9135 L 199.5388 398.3701 L 195.2961 394.1275 M 199.5388 398.3701 L 197.2426 392.8269 L 197.2426 386.8269 L 199.5388 381.2836 M 197.2426 386.8269 L 197.2426 380.8269 M 197.2426 392.8269 L 194.9466 387.2836 L 190.7039 383.041 M 194.9466 387.2836 L 192.6505 381.7403 L 192.6505 375.7403 M 192.6505 381.7403 L 190.3544 376.1971 M 206.427 415 L 206.427 409 L 208.7231 403.4567 M 206.427 409 L 206.427 403 L 204.131 397.4567 L 199.8883 393.2141 M 204.131 397.4567 L 201.8348 391.9135 L 201.8348 385.9135 M 201.8348 391.9135 L 199.5388 386.3702 M 206.427 403 L 206.427 397 L 208.7231 391.4567 M 206.427 397 L 206.427 391 L 208.7231 385.4567 L 212.9658 381.2141 M 208.7231 385.4567 L 211.0192 379.9135 M 206.427 391 L 206.427 385 L 204.131 379.4567 M 206.427 385 L 206.427 379 L 208.7231 373.4567 L 208.7231 367.4567 M 208.7231 373.4567 L 211.0192 367.9135 L 215.2619 363.6708 M 211.0192 367.9135 L 213.3153 362.3702 L 213.3153 356.3702 L 211.0192 350.8269 M 213.3153 356.3702 L 213.3153 350.3702 M 213.3153 362.3702 L 215.6114 356.8269 L 215.6114 350.8269 M 215.6114 356.8269 L 217.9075 351.2837 L 222.1502 347.041 M 217.9075 351.2837 L 220.2036 345.7404 L 224.4463 341.4977 L 226.7424 335.9545 M 224.4463 341.4977 L 228.6889 337.2551 M 220.2036 345.7404 L 222.4997 340.1971 L 222.4997 334.1971 M 222.4997 340.1971 L 224.7958 334.6538 L 229.0385 330.4112 M 224.7958 334.6538 L 227.0919 329.1106 M 206.427 379 L 206.427 373 L 208.7231 367.4567 M 206.427 373 L 206.427 367 L 204.131 361.4567 L 199.8883 357.2141 M 204.131 361.4567 L 201.8348 355.9135 L 201.8348 349.9135 M 201.8348 355.9135 L 199.5388 350.3702 M 206.427 367 L 206.427 361 L 208.7231 355.4567 M 206.427 361 L 206.427 355 L 204.131 349.4567 L 199.8883 345.2141 M 204.131 349.4567 L 201.8348 343.9135 L 197.5922 339.6708 L 192.0489 337.3747 M 197.5922 339.6708 L 193.3495 335.4282 M 201.8348 343.9135 L 199.5388 338.3702 L 199.5388 332.3702 M 199.5388 338.3702 L 197.2426 332.8269 L 193 328.5843 L 187.4567 326.2882 M 193 328.5843 L 188.7574 324.3416 L 183.2141 322.0455 L 177.2141 322.0455 M 183.2141 322.0455 L 177.6708 319.7495 L 173.4282 315.5068 M 177.6708 319.7495 L 172.1275 317.4533 M 188.7574 324.3416 L 184.5147 320.099 L 178.9714 317.8029 M 184.5147 320.099 L 180.2721 315.8564 L 177.976 310.3131 M 180.2721 315.8564 L 176.0294 311.6137 L 173.7333 306.0704 L 169.4907 301.8278 M 173.7333 306.0704 L 171.4372 300.5272 L 171.4372 294.5272 M 171.4372 300.5272 L 169.1411 294.9839 M 176.0294 311.6137 L 171.7868 307.3711 L 166.2435 305.075 M 171.7868 307.3711 L 167.5441 303.1284 L 165.248 297.5851 M 167.5441 303.1284 L 163.3015 298.8858 M 197.2426 332.8269 L 194.9466 327.2837 L 190.7039 323.041 M 194.9466 327.2837 L 192.6505 321.7404 L 192.6505 315.7404 M 192.6505 321.7404 L 190.3544 316.1971 L 186.1117 311.9545 L 180.5685 309.6584 M 186.1117 311.9545 L 181.8691 307.7118 M 190.3544 316.1971 L 188.0583 310.6538 L 183.8156 306.4112 M 188.0583 310.6538 L 185.7622 305.1105 L 185.7622 299.1105 L 183.4661 293.5673 M 185.7622 299.1105 L 185.7622 293.1105 L 188.0583 287.5673 M 185.7622 293.1105 L 185.7622 287.1105 L 188.0583 281.5673 L 188.0583 275.5673 M 188.0583 281.5673 L 190.3544 276.024 L 194.597 271.7814 M 190.3544 276.024 L 192.6505 270.4807 M 185.7622 287.1105 L 185.7622 281.1105 L 188.0583 275.5673 M 185.7622 281.1105 L 185.7622 275.1105 M 185.7622 305.1105 L 183.4661 299.5673 L 183.4661 293.5673 M 183.4661 299.5673 L 181.17 294.024 L 176.9273 289.7814 L 171.3841 287.4853 M 176.9273 289.7814 L 172.6847 285.5387 M 181.17 294.024 L 178.8739 288.4807 L 178.8739 282.4807 M 178.8739 288.4807 L 176.5778 282.9374 L 176.5778 276.9374 L 174.2817 271.3942 M 176.5778 276.9374 L 176.5778 270.9374 L 178.8739 265.3942 M 176.5778 270.9374 L 176.5778 264.9374 M 176.5778 282.9374 L 174.2817 277.3942 L 170.039 273.1516 M 174.2817 277.3942 L 171.9856 271.8509 L 171.9856 265.8509 M 171.9856 271.8509 L 169.6895 266.3076 M 206.427 355 L 206.427 349 L 204.131 343.4567 M 206.427 349 L 206.427 343 L 208.7231 337.4567 M 206.427 343 L 206.427 337 L 208.7231 331.4567 L 208.7231 325.4567 M 208.7231 331.4567 L 211.0192 325.9135 L 215.2619 321.6708 M 211.0192 325.9135 L 213.3153 320.3702 M 206.427 337 L 206.427 331 L 208.7231 325.4567 M 206.427 331 L 206.427 325 L 204.131 319.4567 L 199.8883 315.2141 M 204.131 319.4567 L 201.8348 313.9135 L 197.5922 309.6708 L 192.0489 307.3747 M 197.5922 309.6708 L 193.3495 305.4282 M 201.8348 313.9135 L 199.5388 308.3702 L 195.2961 304.1275 M 199.5388 308.3702 L 197.2426 302.8269 L 197.2426 296.8269 M 197.2426 302.8269 L 194.9466 297.2836 L 194.9466 291.2836 L 192.6505 285.7404 M 194.9466 291.2836 L 194.9466 285.2836 L 197.2426 279.7404 M 194.9466 285.2836 L 194.9466 279.2836 M 194.9466 297.2836 L 192.6505 291.7404 L 188.4078 287.4977 M 192.6505 291.7404 L 190.3544 286.1971 L 190.3544 280.1971 M 190.3544 286.1971 L 188.0583 280.6538 M 206.427 325 L 206.427 319 L 204.131 313.4567 M 206.427 319 L 206.427 313 L 208.7231 307.4567 M 206.427 313 L 206.427 307 L 204.131 301.4567 L 204.131 295.4567 M 204.131 301.4567 L 201.8348 295.9135 M 206.427 307 L 206.427 301 L 208.7231 295.4567 M 206.427 301 L 206.427 295 L 208.7231 289.4567 L 208.7231 283.4567 M 208.7231 289.4567 L 211.0192 283.9135 L 215.2619 279.6708 L 217.558 274.1275 M 215.2619 279.6708 L 219.5045 275.4282 L 225.0478 273.1321 M 219.5045 275.4282 L 223.7472 271.1855 M 211.0192 283.9135 L 213.3153 278.3702 L 213.3153 272.3702 M 213.3153 278.3702 L 215.6114 272.8269 L 219.8541 268.5843 L 225.3973 266.2881 M 219.8541 268.5843 L 224.0967 264.3416 L 229.64 262.0455 L 233.8826 257.8029 M 229.64 262.0455 L 235.1833 259.7494 L 241.1833 259.7494 M 235.1833 259.7494 L 240.7265 257.4533 M 224.0967 264.3416 L 228.3394 260.099 L 230.6355 254.5557 M 228.3394 260.099 L 232.582 255.8563 M 215.6114 272.8269 L 217.9075 267.2836 L 222.1502 263.041 M 217.9075 267.2836 L 220.2036 261.7404 L 220.2036 255.7404 L 217.9075 250.1971 M 220.2036 255.7404 L 220.2036 249.7404 M 220.2036 261.7404 L 222.4997 256.1971 L 222.4997 250.1971 M 222.4997 256.1971 L 224.7958 250.6538 L 229.0385 246.4112 M 224.7958 250.6538 L 227.0919 245.1105 L 231.3346 240.8679 L 233.6306 235.3246 M 231.3346 240.8679 L 235.5772 236.6252 M 227.0919 245.1105 L 229.388 239.5673 L 229.388 233.5673 M 229.388 239.5673 L 231.6841 234.024 L 231.6841 228.024 L 233.9802 222.4807 M 231.6841 228.024 L 231.6841 222.024 L 229.388 216.4807 L 229.388 210.4807 M 229.388 216.4807 L 227.0919 210.9374 M 231.6841 222.024 L 231.6841 216.024 L 233.9802 210.4807 M 231.6841 216.024 L 231.6841 210.024 L 229.388 204.4807 L 225.1454 200.2381 M 229.388 204.4807 L 227.0919 198.9374 L 222.8493 194.6948 L 220.5532 189.1515 M 222.8493 194.6948 L 218.6066 190.4521 M 227.0919 198.9374 L 224.7958 193.3942 L 220.5532 189.1515 M 224.7958 193.3942 L 222.4997 187.8509 L 222.4997 181.8509 M 222.4997 187.8509 L 220.2036 182.3076 L 220.2036 176.3076 L 217.9075 170.7643 M 220.2036 176.3076 L 220.2036 170.3076 L 222.4997 164.7643 M 220.2036 170.3076 L 220.2036 164.3076 M 220.2036 182.3076 L 217.9075 176.7643 L 217.9075 170.7643 M 217.9075 176.7643 L 215.6114 171.2211 M 231.6841 210.024 L 231.6841 204.024 L 229.388 198.4807 M 231.6841 204.024 L 231.6841 198.024 L 233.9802 192.4807 L 238.2228 188.2381 M 233.9802 192.4807 L 236.2763 186.9374 M 231.6841 198.024 L 231.6841 192.024 L 229.388 186.4807 M 231.6841 192.024 L 231.6841 186.024 L 233.9802 180.4807 M 231.6841 186.024 L 231.6841 180.024 M 231.6841 234.024 L 233.9802 228.4807 L 238.2228 224.2381 M 233.9802 228.4807 L 236.2763 222.9374 L 236.2763 216.9374 L 233.9802 211.3942 M 236.2763 216.9374 L 236.2763 210.9374 L 238.5724 205.3942 M 236.2763 210.9374 L 236.2763 204.9374 M 236.2763 222.9374 L 238.5724 217.3942 L 242.815 213.1515 M 238.5724 217.3942 L 240.8685 211.8509 L 240.8685 205.8509 L 238.5724 200.3076 M 240.8685 205.8509 L 240.8685 199.8509 L 243.1646 194.3076 L 247.4072 190.065 M 243.1646 194.3076 L 245.4607 188.7643 M 240.8685 199.8509 L 240.8685 193.8509 L 238.5724 188.3076 M 240.8685 193.8509 L 240.8685 187.8509 M 240.8685 211.8509 L 243.1646 206.3076 L 243.1646 200.3076 M 243.1646 206.3076 L 245.4607 200.7643 L 249.7033 196.5217 M 245.4607 200.7643 L 247.7568 195.2211 L 247.7568 189.2211 L 250.0529 183.6778 M 247.7568 189.2211 L 247.7568 183.2211 M 247.7568 195.2211 L 250.0529 189.6778 L 250.0529 183.6778 M 250.0529 189.6778 L 252.349 184.1345 L 256.5916 179.8919 M 252.349 184.1345 L 254.6451 178.5912 L 258.8877 174.3486 L 261.1838 168.8053 M 258.8877 174.3486 L 263.1304 170.106 L 268.6736 167.8098 M 263.1304 170.106 L 267.373 165.8633 M 254.6451 178.5912 L 256.9412 173.048 L 256.9412 167.048 M 256.9412 173.048 L 259.2373 167.5047 M 206.427 295 L 206.427 289 L 204.131 283.4567 M 206.427 289 L 206.427 283 L 204.131 277.4567 L 204.131 271.4567 M 204.131 277.4567 L 201.8348 271.9135 M 206.427 283 L 206.427 277 L 204.131 271.4567 M 206.427 277 L 206.427 271 L 204.131 265.4567 L 199.8883 261.2141 M 204.131 265.4567 L 201.8348 259.9135 L 201.8348 253.9135 L 199.5388 248.3702 M 201.8348 253.9135 L 201.8348 247.9135 M 201.8348 259.9135 L 199.5388 254.3702 L 195.2961 250.1275 M 199.5388 254.3702 L 197.2426 248.8269 M 206.427 271 L 206.427 265 L 204.131 259.4567 M 206.427 265 L 206.427 259 L 208.7231 253.4567 L 212.9658 249.2141 M 208.7231 253.4567 L 211.0192 247.9135 M 206.427 259 L 206.427 253 L 204.131 247.4567 M 206.427 253 L 206.427 247 L 208.7231 241.4567 L 212.9658 237.2141 M 208.7231 241.4567 L 211.0192 235.9135 L 215.2619 231.6708 L 220.8051 229.3747 M 215.2619 231.6708 L 219.5045 227.4282 M 211.0192 235.9135 L 213.3153 230.3702 L 213.3153 224.3702 M 213.3153 230.3702 L 215.6114 224.8269 M 206.427 247 L 206.427 241 L 204.131 235.4567 M 206.427 241 L 206.427 235 L 208.7231 229.4567 M 206.427 235 L 206.427 229 L 204.131 223.4567 L 199.8883 219.2141 M 204.131 223.4567 L 201.8348 217.9135 L 201.8348 211.9135 M 201.8348 217.9135 L 199.5388 212.3702 M 206.427 229 L 206.427 223 L 204.131 217.4567 M 206.427 223 L 206.427 217 L 208.7231 211.4567 L 212.9658 207.2141 M 208.7231 211.4567 L 211.0192 205.9135 M 206.427 217 L 206.427 211 L 204.131 205.4567 M 206.427 211 L 206.427 205 L 208.7231 199.4567 L 212.9658 195.2141 M 208.7231 199.4567 L 211.0192 193.9135 L 211.0192 187.9135 L 213.3153 182.3702 M 211.0192 187.9135 L 211.0192 181.9135 M 211.0192 193.9135 L 213.3153 188.3702 L 213.3153 182.3702 M 213.3153 188.3702 L 215.6114 182.8269 L 219.8541 178.5843 L 222.1502 173.041 M 219.8541 178.5843 L 224.0967 174.3416 L 229.64 172.0455 M 224.0967 174.3416 L 228.3394 170.099 M 215.6114 182.8269 L 217.9075 177.2836 L 217.9075 171.2836 M 217.9075 177.2836 L 220.2036 171.7404 L 224.4463 167.4977 M 220.2036 171.7404 L 222.4997 166.1971 L 226.7424 161.9544 L 229.0385 156.4112 M 226.7424 161.9544 L 230.985 157.7118 L 236.5283 155.4157 L 240.7709 151.173 M 236.5283 155.4157 L 242.0716 153.1196 L 248.0716 153.1196 M 242.0716 153.1196 L 247.6148 150.8235 M 230.985 157.7118 L 235.2277 153.4691 L 237.5237 147.9259 M 235.2277 153.4691 L 239.4703 149.2265 L 245.0136 146.9304 M 239.4703 149.2265 L 243.713 144.9839 M 222.4997 166.1971 L 224.7958 160.6538 L 229.0385 156.4112 M 224.7958 160.6538 L 227.0919 155.1105 L 227.0919 149.1105 L 224.7958 143.5673 M 227.0919 149.1105 L 227.0919 143.1105 M 227.0919 155.1105 L 229.388 149.5673 L 229.388 143.5673 M 229.388 149.5673 L 231.6841 144.024 L 235.9268 139.7813 L 238.2228 134.2381 M 235.9268 139.7813 L 240.1694 135.5387 L 245.7127 133.2426 M 240.1694 135.5387 L 244.412 131.2961 M 231.6841 144.024 L 233.9802 138.4807 L 233.9802 132.4807 M 233.9802 138.4807 L 236.2763 132.9374 L 240.519 128.6948 M 236.2763 132.9374 L 238.5724 127.3942 M 206.427 205 L 206.427 199 L 204.131 193.4567 M 206.427 199 L 206.427 193 L 208.7231 187.4567 M 206.427 193 L 206.427 187 L 208.7231 181.4567 L 208.7231 175.4567 M 208.7231 181.4567 L 211.0192 175.9135 L 215.2619 171.6708 M 211.0192 175.9135 L 213.3153 170.3702 M 206.427 187 L 206.427 181 L 204.131 175.4567 M 206.427 181 L 206.427 175 L 208.7231 169.4567 L 208.7231 163.4567 M 208.7231 169.4567 L 211.0192 163.9135 L 211.0192 157.9135 L 208.7231 152.3702 M 211.0192 157.9135 L 211.0192 151.9135 L 213.3153 146.3702 M 211.0192 151.9135 L 211.0192 145.9135 M 211.0192 163.9135 L 213.3153 158.3702 L 217.558 154.1275 M 213.3153 158.3702 L 215.6114 152.8269 M 206.427 175 L 206.427 169 L 204.131 163.4567 M 206.427 169 L 206.427 163 L 208.7231 157.4567 M 206.427 163 L 206.427 157 L 208.7231 151.4567 L 208.7231 145.4567 M 208.7231 151.4567 L 211.0192 145.9135 L 215.2619 141.6708 M 211.0192 145.9135 L 213.3153 140.3702 M 206.427 157 L 206.427 151 L 208.7231 145.4567 M 206.427 151 L 206.427 145 M 302.427 451 L 302.427 445 L 300.1309 439.4567 M 302.427 445 L 302.427 439 L 300.1309 433.4567 L 295.8883 429.2141 M 300.1309 433.4567 L 297.8348 427.9135 L 297.8348 421.9135 M 297.8348 427.9135 L 295.5387 422.3701 M 302.427 439 L 302.427 433 L 304.7231 427.4567 M 302.427 433 L 302.427 427 L 304.7231 421.4567 L 304.7231 415.4567 M 304.7231 421.4567 L 307.0193 415.9135 L 311.2619 411.6708 M 307.0193 415.9135 L 309.3154 410.3701 L 309.3154 404.3701 L 307.0193 398.8269 M 309.3154 404.3701 L 309.3154 398.3701 L 311.6115 392.8269 M 309.3154 398.3701 L 309.3154 392.3701 M 309.3154 410.3701 L 311.6115 404.8269 L 311.6115 398.8269 M 311.6115 404.8269 L 313.9076 399.2836 L 318.1502 395.041 M 313.9076 399.2836 L 316.2037 393.7403 M 302.427 427 L 302.427 421 L 304.7231 415.4567 M 302.427 421 L 302.427 415 L 304.7231 409.4567 L 308.9658 405.2141 M 304.7231 409.4567 L 307.0193 403.9135 M 302.427 415 L 302.427 409 L 300.1309 403.4567 M 302.427 409 L 302.427 403 L 300.1309 397.4567 L 295.8883 393.2141 M 300.1309 397.4567 L 297.8348 391.9135 L 297.8348 385.9135 M 297.8348 391.9135 L 295.5387 386.3702 L 291.2961 382.1275 L 285.7528 379.8315 M 291.2961 382.1275 L 287.0534 377.8849 M 295.5387 386.3702 L 293.2426 380.8269 L 293.2426 374.8269 M 293.2426 380.8269 L 290.9465 375.2836 L 290.9465 369.2836 L 293.2426 363.7404 M 290.9465 369.2836 L 290.9465 363.2836 M 290.9465 375.2836 L 288.6504 369.7404 L 284.4077 365.4977 M 288.6504 369.7404 L 286.3542 364.1971 L 286.3542 358.1971 M 286.3542 364.1971 L 284.0581 358.6538 L 284.0581 352.6538 L 286.3542 347.1105 M 284.0581 352.6538 L 284.0581 346.6538 L 286.3542 341.1105 L 286.3542 335.1105 M 286.3542 341.1105 L 288.6504 335.5673 L 292.893 331.3246 M 288.6504 335.5673 L 290.9465 330.024 M 284.0581 346.6538 L 284.0581 340.6538 L 281.762 335.1105 M 284.0581 340.6538 L 284.0581 334.6538 M 284.0581 358.6538 L 281.762 353.1105 L 277.5194 348.8679 M 281.762 353.1105 L 279.4659 347.5673 L 275.2233 343.3246 L 269.68 341.0285 M 275.2233 343.3246 L 270.9806 339.082 L 268.6845 333.5387 M 270.9806 339.082 L 266.738 334.8394 M 279.4659 347.5673 L 277.1698 342.024 L 272.9272 337.7813 M 277.1698 342.024 L 274.8737 336.4807 L 274.8737 330.4807 L 272.5776 324.9374 M 274.8737 330.4807 L 274.8737 324.4807 M 274.8737 336.4807 L 272.5776 330.9374 L 268.3349 326.6948 M 272.5776 330.9374 L 270.2815 325.3942 L 270.2815 319.3942 M 270.2815 325.3942 L 267.9854 319.8509 M 302.427 403 L 302.427 397 L 300.1309 391.4567 M 302.427 397 L 302.427 391 L 304.7231 385.4567 M 302.427 391 L 302.427 385 L 300.1309 379.4567 L 295.8883 375.2141 M 300.1309 379.4567 L 297.8348 373.9135 M 302.427 385 L 302.427 379 L 300.1309 373.4567 M 302.427 379 L 302.427 373 L 304.7231 367.4567 M 302.427 373 L 302.427 367 L 304.7231 361.4567 L 308.9658 357.2141 M 304.7231 361.4567 L 307.0193 355.9135 M 302.427 367 L 302.427 361 L 300.1309 355.4567 M 302.427 361 L 302.427 355 L 304.7231 349.4567 L 304.7231 343.4567 M 304.7231 349.4567 L 307.0193 343.9135 L 311.2619 339.6708 M 307.0193 343.9135 L 309.3154 338.3702 L 309.3154 332.3702 L 307.0193 326.8269 M 309.3154 332.3702 L 309.3154 326.3702 M 309.3154 338.3702 L 311.6115 332.8269 L 315.8541 328.5843 M 311.6115 332.8269 L 313.9076 327.2837 M 302.427 355 L 302.427 349 L 304.7231 343.4567 M 302.427 349 L 302.427 343 L 300.1309 337.4567 L 300.1309 331.4567 M 300.1309 337.4567 L 297.8348 331.9135 M 302.427 343 L 302.427 337 L 300.1309 331.4567 M 302.427 337 L 302.427 331 L 304.7231 325.4567 M 302.427 331 L 302.427 325 L 304.7231 319.4567 L 304.7231 313.4567 M 304.7231 319.4567 L 307.0193 313.9135 L 311.2619 309.6708 M 307.0193 313.9135 L 309.3154 308.3702 L 309.3154 302.3702 L 307.0193 296.8269 M 309.3154 302.3702 L 309.3154 296.3702 L 311.6115 290.8269 M 309.3154 296.3702 L 309.3154 290.3702 M 309.3154 308.3702 L 311.6115 302.8269 L 311.6115 296.8269 M 311.6115 302.8269 L 313.9076 297.2836 L 318.1502 293.041 M 313.9076 297.2836 L 316.2037 291.7404 L 320.4464 287.4977 L 322.7425 281.9544 M 320.4464 287.4977 L 324.689 283.2551 M 316.2037 291.7404 L 318.4998 286.1971 L 322.7425 281.9544 M 318.4998 286.1971 L 320.7959 280.6538 L 320.7959 274.6538 L 318.4998 269.1105 M 320.7959 274.6538 L 320.7959 268.6538 L 323.092 263.1105 M 320.7959 268.6538 L 320.7959 262.6538 L 318.4998 257.1105 L 318.4998 251.1105 M 318.4998 257.1105 L 316.2037 251.5673 M 320.7959 262.6538 L 320.7959 256.6538 L 318.4998 251.1105 M 320.7959 256.6538 L 320.7959 250.6538 L 323.092 245.1105 L 323.092 239.1105 M 323.092 245.1105 L 325.3882 239.5673 L 329.6308 235.3246 M 325.3882 239.5673 L 327.6843 234.024 M 320.7959 250.6538 L 320.7959 244.6538 L 318.4998 239.1105 M 320.7959 244.6538 L 320.7959 238.6538 L 323.092 233.1105 M 320.7959 238.6538 L 320.7959 232.6538 M 320.7959 280.6538 L 323.092 275.1105 L 323.092 269.1105 M 323.092 275.1105 L 325.3882 269.5673 L 329.6308 265.3246 M 325.3882 269.5673 L 327.6843 264.024 L 327.6843 258.024 L 325.3882 252.4807 M 327.6843 258.024 L 327.6843 252.024 M 327.6843 264.024 L 329.9804 258.4807 L 329.9804 252.4807 M 329.9804 258.4807 L 332.2765 252.9374 L 336.5191 248.6948 L 338.8152 243.1515 M 336.5191 248.6948 L 340.7618 244.4521 M 332.2765 252.9374 L 334.5726 247.3942 L 338.8152 243.1515 M 334.5726 247.3942 L 336.8687 241.8509 M 302.427 325 L 302.427 319 L 300.1309 313.4567 M 302.427 319 L 302.427 313 L 304.7231 307.4567 L 304.7231 301.4567 M 304.7231 307.4567 L 307.0193 301.9135 L 311.2619 297.6708 M 307.0193 301.9135 L 309.3154 296.3702 M 302.427 313 L 302.427 307 L 304.7231 301.4567 M 302.427 307 L 302.427 301 L 300.1309 295.4567 L 295.8883 291.2141 M 300.1309 295.4567 L 297.8348 289.9135 L 297.8348 283.9135 M 297.8348 289.9135 L 295.5387 284.3702 L 291.2961 280.1275 L 288.9999 274.5843 M 291.2961 280.1275 L 287.0534 275.8849 M 295.5387 284.3702 L 293.2426 278.8269 L 293.2426 272.8269 M 293.2426 278.8269 L 290.9465 273.2836 L 290.9465 267.2836 L 288.6504 261.7404 M 290.9465 267.2836 L 290.9465 261.2836 L 293.2426 255.7404 M 290.9465 261.2836 L 290.9465 255.2836 M 290.9465 273.2836 L 288.6504 267.7404 L 284.4077 263.4977 M 288.6504 267.7404 L 286.3542 262.1971 M 302.427 301 L 302.427 295 L 300.1309 289.4567 M 302.427 295 L 302.427 289 L 304.7231 283.4567 M 302.427 289 L 302.427 283 L 300.1309 277.4567 L 295.8883 273.2141 M 300.1309 277.4567 L 297.8348 271.9135 L 297.8348 265.9135 M 297.8348 271.9135 L 295.5387 266.3702 M 302.427 283 L 302.427 277 L 304.7231 271.4567 M 302.427 277 L 302.427 271 L 304.7231 265.4567 L 304.7231 259.4567 M 304.7231 265.4567 L 307.0193 259.9135 L 307.0193 253.9135 L 309.3154 248.3702 M 307.0193 253.9135 L 307.0193 247.9135 M 307.0193 259.9135 L 309.3154 254.3702 L 313.558 250.1275 M 309.3154 254.3702 L 311.6115 248.8269 M 302.427 271 L 302.427 265 L 300.1309 259.4567 M 302.427 265 L 302.427 259 L 304.7231 253.4567 M 302.427 259 L 302.427 253 L 300.1309 247.4567 L 295.8883 243.2141 M 300.1309 247.4567 L 297.8348 241.9135 M 302.427 253 L 302.427 247 L 300.1309 241.4567 M 302.427 247 L 302.427 241 L 300.1309 235.4567 L 300.1309 229.4567 M 300.1309 235.4567 L 297.8348 229.9135 L 293.5922 225.6708 L 288.0489 223.3747 M 293.5922 225.6708 L 289.3495 221.4282 M 297.8348 229.9135 L 295.5387 224.3702 L 291.2961 220.1275 M 295.5387 224.3702 L 293.2426 218.8269 L 293.2426 212.8269 L 290.9465 207.2836 M 293.2426 212.8269 L 293.2426 206.8269 L 295.5387 201.2836 M 293.2426 206.8269 L 293.2426 200.8269 L 290.9465 195.2836 L 286.7038 191.041 M 290.9465 195.2836 L 288.6504 189.7404 M 293.2426 200.8269 L 293.2426 194.8269 L 295.5387 189.2836 M 293.2426 194.8269 L 293.2426 188.8269 L 295.5387 183.2836 L 295.5387 177.2836 M 295.5387 183.2836 L 297.8348 177.7404 M 293.2426 188.8269 L 293.2426 182.8269 L 290.9465 177.2836 M 293.2426 182.8269 L 293.2426 176.8269 L 295.5387 171.2836 M 293.2426 176.8269 L 293.2426 170.8269 M 293.2426 218.8269 L 290.9465 213.2836 L 286.7038 209.041 M 290.9465 213.2836 L 288.6504 207.7404 L 284.4077 203.4977 L 282.1116 197.9544 M 284.4077 203.4977 L 280.1651 199.2551 M 288.6504 207.7404 L 286.3542 202.1971 L 282.1116 197.9544 M 286.3542 202.1971 L 284.0581 196.6538 L 284.0581 190.6538 L 281.762 185.1105 M 284.0581 190.6538 L 284.0581 184.6538 L 286.3542 179.1105 M 284.0581 184.6538 L 284.0581 178.6538 M 284.0581 196.6538 L 281.762 191.1105 L 281.762 185.1105 M 281.762 191.1105 L 279.4659 185.5673 L 279.4659 179.5673 L 281.762 174.024 M 279.4659 179.5673 L 279.4659 173.5673 L 281.762 168.024 L 286.0047 163.7813 M 281.762 168.024 L 284.0581 162.4807 M 279.4659 173.5673 L 279.4659 167.5673 L 277.1698 162.024 M 279.4659 167.5673 L 279.4659 161.5673 L 281.762 156.024 M 279.4659 161.5673 L 279.4659 155.5673 L 281.762 150.024 L 281.762 144.024 M 281.762 150.024 L 284.0581 144.4807 L 288.3008 140.2381 L 290.5969 134.6948 M 288.3008 140.2381 L 292.5434 135.9954 M 284.0581 144.4807 L 286.3542 138.9374 L 286.3542 132.9374 M 286.3542 138.9374 L 288.6504 133.3942 M 279.4659 155.5673 L 279.4659 149.5673 L 277.1698 144.024 M 279.4659 149.5673 L 279.4659 143.5673 L 281.762 138.024 M 279.4659 143.5673 L 279.4659 137.5673 L 281.762 132.024 L 281.762 126.024 M 281.762 132.024 L 284.0581 126.4807 M 279.4659 137.5673 L 279.4659 131.5673 L 281.762 126.024 M 279.4659 131.5673 L 279.4659 125.5673 M 279.4659 185.5673 L 277.1698 180.024 L 272.9272 175.7813 M 277.1698 180.024 L 274.8737 174.4807 L 270.631 170.2381 L 265.0878 167.942 M 270.631 170.2381 L 266.3884 165.9954 L 264.0923 160.4521 M 266.3884 165.9954 L 262.1458 161.7528 M 274.8737 174.4807 L 272.5776 168.9374 L 272.5776 162.9374 M 272.5776 168.9374 L 270.2815 163.3942 L 266.0388 159.1515 L 260.4956 156.8554 M 266.0388 159.1515 L 261.7962 154.9089 L 259.5001 149.3656 M 261.7962 154.9089 L 257.5536 150.6662 L 252.0103 148.3701 L 246.0103 148.3701 M 252.0103 148.3701 L 246.467 146.074 L 242.2244 141.8314 M 246.467 146.074 L 240.9237 143.7779 M 257.5536 150.6662 L 253.3109 146.4236 L 251.0148 140.8803 M 253.3109 146.4236 L 249.0683 142.1809 L 246.7722 136.6377 L 246.7722 130.6377 M 246.7722 136.6377 L 244.4761 131.0944 M 249.0683 142.1809 L 244.8256 137.9383 L 239.2823 135.6422 M 244.8256 137.9383 L 240.583 133.6956 L 238.2869 128.1524 M 240.583 133.6956 L 236.3403 129.453 M 270.2815 163.3942 L 267.9854 157.8509 L 267.9854 151.8509 M 267.9854 157.8509 L 265.6893 152.3076 L 261.4467 148.065 L 255.9034 145.7689 M 261.4467 148.065 L 257.204 143.8223 L 254.9079 138.2791 M 257.204 143.8223 L 252.9614 139.5797 M 265.6893 152.3076 L 263.3932 146.7643 L 259.1505 142.5217 M 263.3932 146.7643 L 261.0971 141.2211 L 261.0971 135.2211 L 258.801 129.6778 M 261.0971 135.2211 L 261.0971 129.2211 M 261.0971 141.2211 L 258.801 135.6778 L 258.801 129.6778 M 258.801 135.6778 L 256.5049 130.1345 L 256.5049 124.1345 L 254.2088 118.5912 M 256.5049 124.1345 L 256.5049 118.1345 L 258.801 112.5912 M 256.5049 118.1345 L 256.5049 112.1345 L 254.2088 106.5912 L 254.2088 100.5912 M 254.2088 106.5912 L 251.9127 101.048 M 256.5049 112.1345 L 256.5049 106.1345 L 258.801 100.5912 M 256.5049 106.1345 L 256.5049 100.1345 M 256.5049 130.1345 L 254.2088 124.5912 L 249.9662 120.3486 M 254.2088 124.5912 L 251.9127 119.048 L 251.9127 113.048 M 251.9127 119.048 L 249.6166 113.5047 L 245.374 109.2621 L 239.8307 106.9659 M 245.374 109.2621 L 241.1313 105.0194 M 249.6166 113.5047 L 247.3205 107.9614 L 243.0779 103.7188 M 247.3205 107.9614 L 245.0244 102.4182 L 245.0244 96.41815 M 245.0244 102.4182 L 242.7283 96.87488 L 242.7283 90.87488 L 240.4322 85.3316 M 242.7283 90.87488 L 242.7283 84.87488 L 245.0244 79.3316 M 242.7283 84.87488 L 242.7283 78.87488 M 242.7283 96.87488 L 240.4322 91.3316 L 236.1896 87.08896 M 240.4322 91.3316 L 238.1361 85.78833 M 302.427 241 L 302.427 235 L 304.7231 229.4567 M 302.427 235 L 302.427 229 L 304.7231 223.4567 L 308.9658 219.2141 M 304.7231 223.4567 L 307.0193 217.9135 M 302.427 229 L 302.427 223 L 300.1309 217.4567 M 302.427 223 L 302.427 217 L 304.7231 211.4567 L 304.7231 205.4567 M 304.7231 211.4567 L 307.0193 205.9135 L 311.2619 201.6708 M 307.0193 205.9135 L 309.3154 200.3702 L 309.3154 194.3702 L 307.0193 188.8269 M 309.3154 194.3702 L 309.3154 188.3702 M 309.3154 200.3702 L 311.6115 194.8269 L 311.6115 188.8269 M 311.6115 194.8269 L 313.9076 189.2836 L 318.1502 185.041 M 313.9076 189.2836 L 316.2037 183.7404 M 302.427 217 L 302.427 211 L 300.1309 205.4567 M 302.427 211 L 302.427 205 L 304.7231 199.4567 M 302.427 205 L 302.427 199 L 300.1309 193.4567 L 295.8883 189.2141 M 300.1309 193.4567 L 297.8348 187.9135 L 297.8348 181.9135 M 297.8348 187.9135 L 295.5387 182.3702 M 302.427 199 L 302.427 193 L 300.1309 187.4567 M 302.427 193 L 302.427 187 L 304.7231 181.4567 L 308.9658 177.2141 M 304.7231 181.4567 L 307.0193 175.9135 L 307.0193 169.9135 L 304.7231 164.3702 M 307.0193 169.9135 L 307.0193 163.9135 L 309.3154 158.3702 M 307.0193 163.9135 L 307.0193 157.9135 M 307.0193 175.9135 L 309.3154 170.3702 L 309.3154 164.3702 M 309.3154 170.3702 L 311.6115 164.8269 L 315.8541 160.5843 M 311.6115 164.8269 L 313.9076 159.2836 L 318.1502 155.041 L 323.6935 152.7449 M 318.1502 155.041 L 322.3929 150.7983 M 313.9076 159.2836 L 316.2037 153.7404 L 316.2037 147.7404 M 316.2037 153.7404 L 318.4998 148.1971 L 322.7425 143.9544 M 318.4998 148.1971 L 320.7959 142.6538 L 320.7959 136.6538 L 318.4998 131.1105 M 320.7959 136.6538 L 320.7959 130.6538 L 318.4998 125.1105 L 314.2572 120.8679 M 318.4998 125.1105 L 316.2037 119.5673 L 316.2037 113.5673 M 316.2037 119.5673 L 313.9076 114.024 M 320.7959 130.6538 L 320.7959 124.6538 L 318.4998 119.1105 M 320.7959 124.6538 L 320.7959 118.6538 M 320.7959 142.6538 L 323.092 137.1105 L 327.3347 132.8679 M 323.092 137.1105 L 325.3882 131.5673 L 325.3882 125.5673 L 327.6843 120.024 M 325.3882 125.5673 L 325.3882 119.5673 M 325.3882 131.5673 L 327.6843 126.024 L 327.6843 120.024 M 327.6843 126.024 L 329.9804 120.4807 L 334.223 116.2381 L 336.5191 110.6948 M 334.223 116.2381 L 338.4657 111.9954 L 344.0089 109.6993 M 338.4657 111.9954 L 342.7083 107.7528 M 329.9804 120.4807 L 332.2765 114.9374 L 332.2765 108.9374 M 332.2765 114.9374 L 334.5726 109.3942 L 338.8152 105.1515 M 334.5726 109.3942 L 336.8687 103.8509 L 341.1114 99.60825 L 343.4075 94.06497 M 341.1114 99.60825 L 345.354 95.3656 L 350.8973 93.06949 L 355.1399 88.82684 M 350.8973 93.06949 L 356.4406 90.77338 M 345.354 95.3656 L 349.5966 91.12296 L 351.8928 85.57968 M 349.5966 91.12296 L 353.8393 86.88031 L 359.3826 84.5842 M 353.8393 86.88031 L 358.0819 82.63766 M 336.8687 103.8509 L 339.1648 98.30762 L 339.1648 92.30762 M 339.1648 98.30762 L 341.4609 92.76434 L 345.7036 88.5217 M 341.4609 92.76434 L 343.757 87.22107 L 343.757 81.22107 L 346.0532 75.6778 M 343.757 81.22107 L 343.757 75.22107 M 343.757 87.22107 L 346.0532 81.6778 L 346.0532 75.6778 M 346.0532 81.6778 L 348.3493 76.13452 L 352.5919 71.89188 M 348.3493 76.13452 L 350.6454 70.59125 M 302.427 187 L 302.427 181 L 300.1309 175.4567 M 302.427 181 L 302.427 175 L 300.1309 169.4567 L 295.8883 165.2141 M 300.1309 169.4567 L 297.8348 163.9135 L 297.8348 157.9135 M 297.8348 163.9135 L 295.5387 158.3702 M 302.427 175 L 302.427 169 L 300.1309 163.4567 M 302.427 169 L 302.427 163 L 304.7231 157.4567 M 302.427 163 L 302.427 157 L 304.7231 151.4567 L 304.7231 145.4567 M 304.7231 151.4567 L 307.0193 145.9135 L 311.2619 141.6708 M 307.0193 145.9135 L 309.3154 140.3702 M 302.427 157 L 302.427 151 L 300.1309 145.4567 M 302.427 151 L 302.427 145 L 300.1309 139.4567 L 295.8883 135.2141 M 300.1309 139.4567 L 297.8348 133.9135 L 297.8348 127.9135 L 295.5387 122.3702 M 297.8348 127.9135 L 297.8348 121.9135 M 297.8348 133.9135 L 295.5387 128.3702 L 291.2961 124.1275 M 295.5387 128.3702 L 293.2426 122.8269 M 302.427 145 L 302.427 139 L 300.1309 133.4567 M 302.427 139 L 302.427 133 L 304.7231 127.4567 M 302.427 133 L 302.427 127 L 304.7231 121.4567 L 304.7231 115.4567 M 304.7231 121.4567 L 307.0193 115.9135 L 311.2619 111.6708 M 307.0193 115.9135 L 309.3154 110.3702 M 302.427 127 L 302.427 121 L 304.7231 115.4567 M 302.427 121 L 302.427 115 M 398.427 451 L 398.427 445 L 400.7231 439.4567 M 398.427 445 L 398.427 439 L 396.1309 433.4567 L 391.8883 429.2141 M 396.1309 433.4567 L 393.8348 427.9135 M 398.427 439 L 398.427 433 L 400.7231 427.4567 M 398.427 433 L 398.427 427 L 400.7231 421.4567 L 400.7231 415.4567 M 400.7231 421.4567 L 403.0193 415.9135 M 398.427 427 L 398.427 421 L 396.1309 415.4567 M 398.427 421 L 398.427 415 L 400.7231 409.4567 M 398.427 415 L 398.427 409 L 400.7231 403.4567 L 400.7231 397.4567 M 400.7231 403.4567 L 403.0193 397.9135 L 407.2619 393.6708 M 403.0193 397.9135 L 405.3154 392.3701 L 409.558 388.1275 L 411.8541 382.5842 M 409.558 388.1275 L 413.8007 383.8849 M 405.3154 392.3701 L 407.6115 386.8269 L 411.8541 382.5842 M 407.6115 386.8269 L 409.9076 381.2836 M 398.427 409 L 398.427 403 L 400.7231 397.4567 M 398.427 403 L 398.427 397 L 396.1309 391.4567 L 391.8883 387.2141 M 396.1309 391.4567 L 393.8348 385.9135 M 398.427 397 L 398.427 391 L 396.1309 385.4567 M 398.427 391 L 398.427 385 L 400.7231 379.4567 L 400.7231 373.4567 M 400.7231 379.4567 L 403.0193 373.9135 M 398.427 385 L 398.427 379 L 396.1309 373.4567 M 398.427 379 L 398.427 373 L 400.7231 367.4567 L 400.7231 361.4567 M 400.7231 367.4567 L 403.0193 361.9135 L 407.2619 357.6708 M 403.0193 361.9135 L 405.3154 356.3702 L 405.3154 350.3702 L 403.0193 344.8269 M 405.3154 350.3702 L 405.3154 344.3702 M 405.3154 356.3702 L 407.6115 350.8269 L 407.6115 344.8269 M 407.6115 350.8269 L 409.9076 345.2837 L 414.1502 341.041 M 409.9076 345.2837 L 412.2037 339.7404 L 416.4464 335.4977 L 421.9896 333.2016 M 416.4464 335.4977 L 420.689 331.2551 M 412.2037 339.7404 L 414.4998 334.1971 L 414.4998 328.1971 M 414.4998 334.1971 L 416.7959 328.6538 L 421.0386 324.4112 M 416.7959 328.6538 L 419.092 323.1106 L 419.092 317.1106 L 416.7959 311.5673 M 419.092 317.1106 L 419.092 311.1106 L 421.3882 305.5673 M 419.092 311.1106 L 419.092 305.1106 L 416.7959 299.5673 L 416.7959 293.5673 M 416.7959 299.5673 L 414.4998 294.024 M 419.092 305.1106 L 419.092 299.1106 L 416.7959 293.5673 M 419.092 299.1106 L 419.092 293.1106 L 421.3882 287.5673 L 421.3882 281.5673 M 421.3882 287.5673 L 423.6843 282.024 M 419.092 293.1106 L 419.092 287.1106 L 416.7959 281.5673 M 419.092 287.1106 L 419.092 281.1106 L 421.3882 275.5673 M 419.092 281.1106 L 419.092 275.1106 M 419.092 323.1106 L 421.3882 317.5673 L 425.6308 313.3246 M 421.3882 317.5673 L 423.6843 312.024 L 423.6843 306.024 L 421.3882 300.4807 M 423.6843 306.024 L 423.6843 300.024 L 425.9804 294.4807 M 423.6843 300.024 L 423.6843 294.024 M 423.6843 312.024 L 425.9804 306.4807 L 430.223 302.2381 M 425.9804 306.4807 L 428.2765 300.9375 L 432.5191 296.6948 L 434.8152 291.1516 M 432.5191 296.6948 L 436.7618 292.4522 L 442.3051 290.1561 M 436.7618 292.4522 L 441.0044 288.2095 M 428.2765 300.9375 L 430.5726 295.3942 L 430.5726 289.3942 M 430.5726 295.3942 L 432.8687 289.8509 L 437.1114 285.6083 L 439.4075 280.065 M 437.1114 285.6083 L 441.354 281.3656 L 446.8973 279.0695 L 451.1399 274.8269 M 446.8973 279.0695 L 452.4406 276.7734 M 441.354 281.3656 L 445.5966 277.123 L 447.8928 271.5797 M 445.5966 277.123 L 449.8393 272.8803 L 455.3826 270.5842 M 449.8393 272.8803 L 454.0819 268.6377 M 432.8687 289.8509 L 435.1648 284.3076 L 435.1648 278.3076 M 435.1648 284.3076 L 437.4609 278.7644 L 441.7036 274.5217 M 437.4609 278.7644 L 439.757 273.2211 L 439.757 267.2211 L 437.4609 261.6778 M 439.757 267.2211 L 439.757 261.2211 M 439.757 273.2211 L 442.0532 267.6778 L 442.0532 261.6778 M 442.0532 267.6778 L 444.3493 262.1346 L 448.5919 257.8919 M 444.3493 262.1346 L 446.6454 256.5913 L 450.888 252.3486 L 453.1841 246.8054 M 450.888 252.3486 L 455.1307 248.106 L 460.674 245.8099 M 455.1307 248.106 L 459.3733 243.8633 M 446.6454 256.5913 L 448.9415 251.048 L 448.9415 245.048 M 448.9415 251.048 L 451.2376 245.5047 L 455.4803 241.2621 M 451.2376 245.5047 L 453.5337 239.9615 M 398.427 373 L 398.427 367 L 396.1309 361.4567 M 398.427 367 L 398.427 361 L 400.7231 355.4567 L 404.9658 351.2141 M 400.7231 355.4567 L 403.0193 349.9135 M 398.427 361 L 398.427 355 L 396.1309 349.4567 M 398.427 355 L 398.427 349 L 400.7231 343.4567 M 398.427 349 L 398.427 343 L 400.7231 337.4567 L 400.7231 331.4567 M 400.7231 337.4567 L 403.0193 331.9135 L 407.2619 327.6708 M 403.0193 331.9135 L 405.3154 326.3702 L 405.3154 320.3702 L 407.6115 314.8269 M 405.3154 320.3702 L 405.3154 314.3702 M 405.3154 326.3702 L 407.6115 320.8269 L 407.6115 314.8269 M 407.6115 320.8269 L 409.9076 315.2836 L 414.1502 311.041 M 409.9076 315.2836 L 412.2037 309.7404 M 398.427 343 L 398.427 337 L 400.7231 331.4567 M 398.427 337 L 398.427 331 L 396.1309 325.4567 L 396.1309 319.4567 M 396.1309 325.4567 L 393.8348 319.9135 M 398.427 331 L 398.427 325 L 400.7231 319.4567 M 398.427 325 L 398.427 319 L 396.1309 313.4567 L 396.1309 307.4567 M 396.1309 313.4567 L 393.8348 307.9135 L 389.5922 303.6708 L 384.0489 301.3747 M 389.5922 303.6708 L 385.3495 299.4282 M 393.8348 307.9135 L 391.5387 302.3702 L 391.5387 296.3702 M 391.5387 302.3702 L 389.2426 296.8269 L 389.2426 290.8269 L 386.9465 285.2836 M 389.2426 290.8269 L 389.2426 284.8269 L 391.5387 279.2836 M 389.2426 284.8269 L 389.2426 278.8269 M 389.2426 296.8269 L 386.9465 291.2836 L 382.7038 287.041 M 386.9465 291.2836 L 384.6504 285.7404 L 384.6504 279.7404 M 384.6504 285.7404 L 382.3542 280.1971 L 378.1116 275.9544 L 375.8155 270.4112 M 378.1116 275.9544 L 373.869 271.7118 L 371.5728 266.1685 L 367.3302 261.9259 M 371.5728 266.1685 L 369.2767 260.6252 L 369.2767 254.6252 M 369.2767 260.6252 L 366.9806 255.082 M 373.869 271.7118 L 369.6263 267.4691 L 364.083 265.173 M 369.6263 267.4691 L 365.3837 263.2265 L 363.0876 257.6832 M 365.3837 263.2265 L 361.141 258.9839 M 382.3542 280.1971 L 380.0581 274.6538 L 375.8155 270.4112 M 380.0581 274.6538 L 377.762 269.1105 L 377.762 263.1105 M 377.762 269.1105 L 375.4659 263.5673 L 375.4659 257.5673 L 373.1698 252.024 M 375.4659 257.5673 L 375.4659 251.5673 L 377.762 246.024 M 375.4659 251.5673 L 375.4659 245.5673 M 375.4659 263.5673 L 373.1698 258.024 L 368.9272 253.7813 M 373.1698 258.024 L 370.8737 252.4807 L 370.8737 246.4807 M 370.8737 252.4807 L 368.5776 246.9374 L 364.3349 242.6948 L 358.7917 240.3987 M 364.3349 242.6948 L 360.0923 238.4521 L 354.549 236.1561 L 348.549 236.1561 M 354.549 236.1561 L 349.0057 233.86 L 344.7631 229.6173 M 349.0057 233.86 L 343.4625 231.5639 M 360.0923 238.4521 L 355.8496 234.2095 L 350.3064 231.9134 M 355.8496 234.2095 L 351.607 229.9669 L 349.3109 224.4236 M 351.607 229.9669 L 347.3643 225.7242 L 341.8211 223.4281 L 335.8211 223.4281 M 341.8211 223.4281 L 336.2778 221.132 L 332.0352 216.8894 L 326.4919 214.5933 M 332.0352 216.8894 L 327.7925 212.6467 L 325.4964 207.1035 M 327.7925 212.6467 L 323.5499 208.4041 M 336.2778 221.132 L 330.7345 218.8359 L 324.7345 218.8359 M 330.7345 218.8359 L 325.1913 216.5398 L 320.9486 212.2972 M 325.1913 216.5398 L 319.648 214.2437 M 347.3643 225.7242 L 343.1217 221.4816 L 337.5784 219.1855 M 343.1217 221.4816 L 338.8791 217.2389 L 336.5829 211.6956 L 332.3403 207.453 M 336.5829 211.6956 L 334.2868 206.1524 M 338.8791 217.2389 L 334.6364 212.9963 L 329.0931 210.7002 M 334.6364 212.9963 L 330.3938 208.7536 L 328.0977 203.2104 M 330.3938 208.7536 L 326.1511 204.511 M 368.5776 246.9374 L 366.2815 241.3942 L 362.0388 237.1515 M 366.2815 241.3942 L 363.9854 235.8509 L 359.7427 231.6082 L 354.1994 229.3121 M 359.7427 231.6082 L 355.5001 227.3656 L 353.2039 221.8223 M 355.5001 227.3656 L 351.2574 223.123 M 363.9854 235.8509 L 361.6892 230.3076 L 357.4466 226.065 M 361.6892 230.3076 L 359.3931 224.7643 L 359.3931 218.7643 L 357.097 213.2211 M 359.3931 218.7643 L 359.3931 212.7643 L 361.6892 207.2211 M 359.3931 212.7643 L 359.3931 206.7643 L 357.097 201.2211 L 352.8544 196.9784 M 357.097 201.2211 L 354.8009 195.6778 L 354.8009 189.6778 M 354.8009 195.6778 L 352.5048 190.1345 M 359.3931 206.7643 L 359.3931 200.7643 L 361.6892 195.2211 M 359.3931 200.7643 L 359.3931 194.7643 M 359.3931 224.7643 L 357.097 219.2211 L 352.8544 214.9784 M 357.097 219.2211 L 354.8009 213.6778 L 354.8009 207.6778 M 354.8009 213.6778 L 352.5048 208.1345 L 352.5048 202.1345 L 350.2087 196.5912 M 352.5048 202.1345 L 352.5048 196.1345 L 354.8009 190.5912 M 352.5048 196.1345 L 352.5048 190.1345 M 352.5048 208.1345 L 350.2087 202.5912 L 350.2087 196.5912 M 350.2087 202.5912 L 347.9126 197.048 L 347.9126 191.048 L 345.6165 185.5047 M 347.9126 191.048 L 347.9126 185.048 L 350.2087 179.5047 M 347.9126 185.048 L 347.9126 179.048 L 345.6165 173.5047 L 341.3738 169.2621 M 345.6165 173.5047 L 343.3203 167.9614 M 347.9126 179.048 L 347.9126 173.048 L 350.2087 167.5047 M 347.9126 173.048 L 347.9126 167.048 L 350.2087 161.5047 L 350.2087 155.5047 M 350.2087 161.5047 L 352.5048 155.9614 L 356.7474 151.7188 M 352.5048 155.9614 L 354.8009 150.4182 L 354.8009 144.4182 L 357.097 138.8749 M 354.8009 144.4182 L 354.8009 138.4182 M 354.8009 150.4182 L 357.097 144.8749 L 357.097 138.8749 M 357.097 144.8749 L 359.3931 139.3316 M 347.9126 167.048 L 347.9126 161.048 L 345.6165 155.5047 M 347.9126 161.048 L 347.9126 155.048 L 350.2087 149.5047 M 347.9126 155.048 L 347.9126 149.048 L 350.2087 143.5047 L 350.2087 137.5047 M 350.2087 143.5047 L 352.5048 137.9614 L 356.7474 133.7188 M 352.5048 137.9614 L 354.8009 132.4182 M 347.9126 149.048 L 347.9126 143.048 L 345.6165 137.5047 M 347.9126 143.048 L 347.9126 137.048 M 347.9126 197.048 L 345.6165 191.5047 L 341.3738 187.2621 M 345.6165 191.5047 L 343.3203 185.9614 L 339.0777 181.7188 L 336.7816 176.1755 M 339.0777 181.7188 L 334.8351 177.4761 M 343.3203 185.9614 L 341.0242 180.4182 L 336.7816 176.1755 M 341.0242 180.4182 L 338.7281 174.8749 L 338.7281 168.8749 M 338.7281 174.8749 L 336.432 169.3316 L 332.1894 165.089 L 326.6461 162.7928 M 332.1894 165.089 L 327.9467 160.8463 L 325.6506 155.303 M 327.9467 160.8463 L 323.7041 156.6037 L 318.1608 154.3076 L 312.1608 154.3076 M 318.1608 154.3076 L 312.6175 152.0114 L 308.3749 147.7688 M 312.6175 152.0114 L 307.0742 149.7153 M 323.7041 156.6037 L 319.4614 152.361 L 317.1653 146.8177 M 319.4614 152.361 L 315.2188 148.1184 L 312.9227 142.5751 L 312.9227 136.5751 M 312.9227 142.5751 L 310.6266 137.0318 M 315.2188 148.1184 L 310.9761 143.8757 L 308.68 138.3325 M 310.9761 143.8757 L 306.7335 139.6331 M 336.432 169.3316 L 334.1359 163.7883 L 329.8932 159.5457 M 334.1359 163.7883 L 331.8398 158.2451 L 327.5971 154.0024 L 322.0539 151.7063 M 327.5971 154.0024 L 323.3545 149.7598 M 331.8398 158.2451 L 329.5437 152.7018 L 325.301 148.4591 M 329.5437 152.7018 L 327.2476 147.1585 L 327.2476 141.1585 L 324.9514 135.6152 M 327.2476 141.1585 L 327.2476 135.1585 L 329.5437 129.6152 M 327.2476 135.1585 L 327.2476 129.1585 L 329.5437 123.6152 L 329.5437 117.6152 M 329.5437 123.6152 L 331.8398 118.072 M 327.2476 129.1585 L 327.2476 123.1585 L 329.5437 117.6152 M 327.2476 123.1585 L 327.2476 117.1585 M 327.2476 147.1585 L 324.9514 141.6152 L 320.7088 137.3726 M 324.9514 141.6152 L 322.6553 136.072 L 322.6553 130.072 M 322.6553 136.072 L 320.3592 130.5287 L 320.3592 124.5287 L 318.0631 118.9854 M 320.3592 124.5287 L 320.3592 118.5287 M 320.3592 130.5287 L 318.0631 124.9854 L 313.8205 120.7428 M 318.0631 124.9854 L 315.767 119.4421 M 398.427 319 L 398.427 313 L 396.1309 307.4567 M 398.427 313 L 398.427 307 L 396.1309 301.4567 L 396.1309 295.4567 M 396.1309 301.4567 L 393.8348 295.9135 M 398.427 307 L 398.427 301 L 396.1309 295.4567 M 398.427 301 L 398.427 295 L 400.7231 289.4567 L 404.9658 285.2141 M 400.7231 289.4567 L 403.0193 283.9135 L 403.0193 277.9135 L 400.7231 272.3702 M 403.0193 277.9135 L 403.0193 271.9135 L 405.3154 266.3702 M 403.0193 271.9135 L 403.0193 265.9135 M 403.0193 283.9135 L 405.3154 278.3702 L 409.558 274.1275 M 405.3154 278.3702 L 407.6115 272.8269 L 411.8541 268.5843 L 417.3974 266.2881 M 411.8541 268.5843 L 416.0968 264.3416 M 407.6115 272.8269 L 409.9076 267.2836 L 409.9076 261.2836 M 409.9076 267.2836 L 412.2037 261.7404 L 416.4464 257.4977 M 412.2037 261.7404 L 414.4998 256.1971 M 398.427 295 L 398.427 289 L 396.1309 283.4567 M 398.427 289 L 398.427 283 L 400.7231 277.4567 M 398.427 283 L 398.427 277 L 396.1309 271.4567 L 396.1309 265.4567 M 396.1309 271.4567 L 393.8348 265.9135 M 398.427 277 L 398.427 271 L 396.1309 265.4567 M 398.427 271 L 398.427 265 L 400.7231 259.4567 L 400.7231 253.4567 M 400.7231 259.4567 L 403.0193 253.9135 L 407.2619 249.6708 M 403.0193 253.9135 L 405.3154 248.3702 M 398.427 265 L 398.427 259 L 396.1309 253.4567 M 398.427 259 L 398.427 253 L 400.7231 247.4567 M 398.427 253 L 398.427 247 L 400.7231 241.4567 L 404.9658 237.2141 M 400.7231 241.4567 L 403.0193 235.9135 L 403.0193 229.9135 L 400.7231 224.3702 M 403.0193 229.9135 L 403.0193 223.9135 L 405.3154 218.3702 M 403.0193 223.9135 L 403.0193 217.9135 M 403.0193 235.9135 L 405.3154 230.3702 L 405.3154 224.3702 M 405.3154 230.3702 L 407.6115 224.8269 L 411.8541 220.5843 M 407.6115 224.8269 L 409.9076 219.2836 L 414.1502 215.041 L 416.4464 209.4977 M 414.1502 215.041 L 418.3929 210.7983 L 423.9362 208.5022 L 429.9362 208.5022 M 423.9362 208.5022 L 429.4794 206.2061 M 418.3929 210.7983 L 422.6355 206.5557 L 428.1788 204.2596 M 422.6355 206.5557 L 426.8782 202.313 M 409.9076 219.2836 L 412.2037 213.7404 L 412.2037 207.7404 M 412.2037 213.7404 L 414.4998 208.1971 L 418.7425 203.9544 M 414.4998 208.1971 L 416.7959 202.6538 L 416.7959 196.6538 L 414.4998 191.1105 M 416.7959 196.6538 L 416.7959 190.6538 M 416.7959 202.6538 L 419.092 197.1105 L 423.3347 192.8679 M 419.092 197.1105 L 421.3882 191.5673 M 398.427 247 L 398.427 241 L 400.7231 235.4567 M 398.427 241 L 398.427 235 L 400.7231 229.4567 L 400.7231 223.4567 M 400.7231 229.4567 L 403.0193 223.9135 M 398.427 235 L 398.427 229 L 396.1309 223.4567 M 398.427 229 L 398.427 223 L 396.1309 217.4567 L 391.8883 213.2141 M 396.1309 217.4567 L 393.8348 211.9135 L 389.5922 207.6708 L 384.0489 205.3747 M 389.5922 207.6708 L 385.3495 203.4282 M 393.8348 211.9135 L 391.5387 206.3702 L 387.2961 202.1275 M 391.5387 206.3702 L 389.2426 200.8269 L 389.2426 194.8269 L 391.5387 189.2836 M 389.2426 194.8269 L 389.2426 188.8269 M 389.2426 200.8269 L 386.9465 195.2836 L 382.7038 191.041 M 386.9465 195.2836 L 384.6504 189.7404 M 398.427 223 L 398.427 217 L 396.1309 211.4567 M 398.427 217 L 398.427 211 L 400.7231 205.4567 L 400.7231 199.4567 M 400.7231 205.4567 L 403.0193 199.9135 M 398.427 211 L 398.427 205 L 396.1309 199.4567 M 398.427 205 L 398.427 199 L 400.7231 193.4567 L 400.7231 187.4567 M 400.7231 193.4567 L 403.0193 187.9135 L 403.0193 181.9135 L 405.3154 176.3702 M 403.0193 181.9135 L 403.0193 175.9135 M 403.0193 187.9135 L 405.3154 182.3702 L 405.3154 176.3702 M 405.3154 182.3702 L 407.6115 176.8269 M 398.427 199 L 398.427 193 L 396.1309 187.4567 M 398.427 193 L 398.427 187 L 400.7231 181.4567 L 404.9658 177.2141 M 400.7231 181.4567 L 403.0193 175.9135 M 398.427 187 L 398.427 181 L 396.1309 175.4567 M 398.427 181 L 398.427 175 L 400.7231 169.4567 L 400.7231 163.4567 M 400.7231 169.4567 L 403.0193 163.9135 L 407.2619 159.6708 M 403.0193 163.9135 L 405.3154 158.3702 L 405.3154 152.3702 L 403.0193 146.8269 M 405.3154 152.3702 L 405.3154 146.3702 L 407.6115 140.8269 M 405.3154 146.3702 L 405.3154 140.3702 M 405.3154 158.3702 L 407.6115 152.8269 L 411.8541 148.5843 M 407.6115 152.8269 L 409.9076 147.2836 L 414.1502 143.041 L 416.4464 137.4977 M 414.1502 143.041 L 418.3929 138.7983 L 423.9362 136.5022 M 418.3929 138.7983 L 422.6355 134.5557 L 424.9316 129.0124 L 429.1743 124.7698 M 424.9316 129.0124 L 427.2278 123.4691 M 422.6355 134.5557 L 426.8782 130.313 L 429.1743 124.7698 M 426.8782 130.313 L 431.1208 126.0704 M 409.9076 147.2836 L 412.2037 141.7404 L 412.2037 135.7404 M 412.2037 141.7404 L 414.4998 136.1971 L 414.4998 130.1971 L 412.2037 124.6538 M 414.4998 130.1971 L 414.4998 124.1971 L 416.7959 118.6538 M 414.4998 124.1971 L 414.4998 118.1971 M 414.4998 136.1971 L 416.7959 130.6538 L 416.7959 124.6538 M 416.7959 130.6538 L 419.092 125.1105 L 423.3347 120.8679 L 425.6308 115.3246 M 423.3347 120.8679 L 427.5773 116.6252 M 419.092 125.1105 L 421.3882 119.5673 L 425.6308 115.3246 M 421.3882 119.5673 L 423.6843 114.024 L 427.9269 109.7813 L 430.223 104.2381 M 427.9269 109.7813 L 432.1696 105.5387 L 437.7128 103.2426 M 432.1696 105.5387 L 436.4122 101.2961 L 438.7083 95.75278 L 442.951 91.51013 M 438.7083 95.75278 L 441.0044 90.2095 M 436.4122 101.2961 L 440.6548 97.05341 L 442.951 91.51013 M 440.6548 97.05341 L 444.8975 92.81076 L 447.1936 87.26749 L 447.1936 81.26749 M 447.1936 87.26749 L 449.4897 81.72421 L 453.7324 77.48157 M 449.4897 81.72421 L 451.7858 76.18094 L 451.7858 70.18094 L 454.0819 64.63766 M 451.7858 70.18094 L 451.7858 64.18094 M 451.7858 76.18094 L 454.0819 70.63766 L 458.3246 66.39502 M 454.0819 70.63766 L 456.3781 65.09439 M 444.8975 92.81076 L 449.1401 88.56812 L 451.4362 83.02484 M 449.1401 88.56812 L 453.3828 84.32547 L 458.9261 82.02936 M 453.3828 84.32547 L 457.6254 80.08282 L 459.9215 74.53955 L 459.9215 68.53955 M 459.9215 74.53955 L 462.2177 68.99628 L 466.4603 64.75363 M 462.2177 68.99628 L 464.5138 63.453 M 457.6254 80.08282 L 461.8681 75.84018 L 464.1642 70.29691 M 461.8681 75.84018 L 466.1107 71.59753 L 471.654 69.30142 M 466.1107 71.59753 L 470.3534 67.35489 L 475.8966 65.05878 L 481.8966 65.05878 M 475.8966 65.05878 L 481.4399 62.76266 M 470.3534 67.35489 L 474.596 63.11224 L 476.8921 57.56897 M 474.596 63.11224 L 478.8387 58.8696 L 484.3819 56.57349 M 478.8387 58.8696 L 483.0813 54.62695 L 488.6246 52.33084 L 492.8672 48.0882 M 488.6246 52.33084 L 494.1678 50.03473 L 500.1678 50.03473 M 494.1678 50.03473 L 499.7111 47.73862 L 503.9538 43.49597 L 506.2499 37.9527 M 503.9538 43.49597 L 508.1964 39.25333 M 499.7111 47.73862 L 505.2544 45.4425 L 511.2544 45.4425 M 505.2544 45.4425 L 510.7977 43.14639 L 516.7977 43.14639 L 522.3409 40.85028 M 516.7977 43.14639 L 522.7977 43.14639 L 528.341 45.4425 M 522.7977 43.14639 L 528.7977 43.14639 M 510.7977 43.14639 L 516.3409 40.85028 L 522.3409 40.85028 M 516.3409 40.85028 L 521.8842 38.55417 M 483.0813 54.62695 L 487.3239 50.38431 L 492.8672 48.0882 M 487.3239 50.38431 L 491.5666 46.14166 L 497.1099 43.84555 L 501.3525 39.60291 M 497.1099 43.84555 L 502.6531 41.54944 M 491.5666 46.14166 L 495.8092 41.89902 L 498.1053 36.35574 M 495.8092 41.89902 L 500.0519 37.65637 L 505.5952 35.36026 M 500.0519 37.65637 L 504.2945 33.41373 M 423.6843 114.024 L 425.9804 108.4807 L 430.223 104.2381 M 425.9804 108.4807 L 428.2765 102.9374 L 428.2765 96.93744 L 425.9804 91.39417 M 428.2765 96.93744 L 428.2765 90.93744 M 428.2765 102.9374 L 430.5726 97.39417 L 434.8152 93.15152 M 430.5726 97.39417 L 432.8687 91.85089 L 432.8687 85.85089 L 430.5726 80.30762 M 432.8687 85.85089 L 432.8687 79.85089 L 435.1648 74.30762 L 439.4075 70.06497 M 435.1648 74.30762 L 437.4609 68.76434 M 432.8687 79.85089 L 432.8687 73.85089 L 430.5726 68.30762 M 432.8687 73.85089 L 432.8687 67.85089 L 435.1648 62.30762 M 432.8687 67.85089 L 432.8687 61.85089 M 432.8687 91.85089 L 435.1648 86.30762 L 439.4075 82.06497 M 435.1648 86.30762 L 437.4609 80.76434 L 437.4609 74.76434 L 439.757 69.22107 M 437.4609 74.76434 L 437.4609 68.76434 M 437.4609 80.76434 L 439.757 75.22107 L 443.9997 70.97842 M 439.757 75.22107 L 442.0532 69.6778 M 398.427 175 L 398.427 169 L 396.1309 163.4567 M 398.427 169 L 398.427 163 L 400.7231 157.4567 M 398.427 163 L 398.427 157 L 396.1309 151.4567 L 396.1309 145.4567 M 396.1309 151.4567 L 393.8348 145.9135 M 398.427 157 L 398.427 151 L 396.1309 145.4567 M 398.427 151 L 398.427 145 L 400.7231 139.4567 M 398.427 145 L 398.427 139 L 400.7231 133.4567 L 400.7231 127.4567 M 400.7231 133.4567 L 403.0193 127.9135 L 407.2619 123.6708 M 403.0193 127.9135 L 405.3154 122.3702 M 398.427 139 L 398.427 133 L 396.1309 127.4567 M 398.427 133 L 398.427 127 L 400.7231 121.4567 M 398.427 127 L 398.427 121 L 396.1309 115.4567 L 396.1309 109.4567 M 396.1309 115.4567 L 393.8348 109.9135 L 389.5922 105.6708 L 384.0489 103.3747 M 389.5922 105.6708 L 385.3495 101.4282 M 393.8348 109.9135 L 391.5387 104.3702 L 391.5387 98.37018 M 391.5387 104.3702 L 389.2426 98.8269 L 389.2426 92.8269 L 386.9465 87.28363 M 389.2426 92.8269 L 389.2426 86.8269 L 391.5387 81.28363 M 389.2426 86.8269 L 389.2426 80.8269 M 389.2426 98.8269 L 386.9465 93.28363 L 382.7038 89.04099 M 386.9465 93.28363 L 384.6504 87.74036 L 384.6504 81.74036 M 384.6504 87.74036 L 382.3542 82.19708 M 398.427 121 L 398.427 115 L 400.7231 109.4567 M 398.427 115 L 398.427 109 L 396.1309 103.4567 L 396.1309 97.45673 M 396.1309 103.4567 L 393.8348 97.91345 M 398.427 109 L 398.427 103 L 396.1309 97.45673 M 398.427 103 L 398.427 97 L 400.7231 91.45673 M 398.427 97 L 398.427 91 L 400.7231 85.45673 L 400.7231 79.45673 M 400.7231 85.45673 L 403.0193 79.91345 L 407.2619 75.67081 M 403.0193 79.91345 L 405.3154 74.37018 L 405.3154 68.37018 L 403.0193 62.8269 M 405.3154 68.37018 L 405.3154 62.37018 M 405.3154 74.37018 L 407.6115 68.8269 L 411.8541 64.58426 M 407.6115 68.8269 L 409.9076 63.28363 L 414.1502 59.04099 L 419.6935 56.74487 M 414.1502 59.04099 L 418.3929 54.79834 M 409.9076 63.28363 L 412.2037 57.74036 L 416.4464 53.49771 M 412.2037 57.74036 L 414.4998 52.19708 L 414.4998 46.19708 L 412.2037 40.65381 M 414.4998 46.19708 L 414.4998 40.19708 L 416.7959 34.65381 M 414.4998 40.19708 L 414.4998 34.19708 L 412.2037 28.65381 L 407.9611 24.41116 M 412.2037 28.65381 L 409.9076 23.11053 L 409.9076 17.11053 M 409.9076 23.11053 L 407.6115 17.56726 M 414.4998 34.19708 L 414.4998 28.19708 L 416.7959 22.65381 M 414.4998 28.19708 L 414.4998 22.19708 M 414.4998 52.19708 L 416.7959 46.65381 L 416.7959 40.65381 M 416.7959 46.65381 L 419.092 41.11053 L 419.092 35.11053 L 421.3882 29.56726 M 419.092 35.11053 L 419.092 29.11053 M 419.092 41.11053 L 421.3882 35.56726 L 425.6308 31.32462 M 421.3882 35.56726 L 423.6843 30.02399 L 427.9269 25.78134 L 430.223 20.23807 M 427.9269 25.78134 L 432.1696 21.5387 L 437.7128 19.24258 M 432.1696 21.5387 L 436.4122 17.29605 L 441.9555 14.99994 L 446.1981 10.75729 M 441.9555 14.99994 L 447.4987 12.70383 M 436.4122 17.29605 L 440.6548 13.05341 L 442.951 7.510132 M 440.6548 13.05341 L 444.8975 8.81076 L 450.4408 6.514648 M 444.8975 8.81076 L 449.1401 4.568115 M 423.6843 30.02399 L 425.9804 24.48071 L 425.9804 18.48071 M 425.9804 24.48071 L 428.2765 18.93744 L 432.5191 14.69479 M 428.2765 18.93744 L 430.5726 13.39417 L 430.5726 7.394165 L 428.2765 1.850891 M 430.5726 7.394165 L 430.5726 1.394165 M 430.5726 13.39417 L 432.8687 7.850891 L 437.1114 3.608246 M 432.8687 7.850891 L 435.1648 2.307617 M 398.427 91 L 398.427 85 L 396.1309 79.45673 M 398.427 85 L 398.427 79 L 400.7231 73.45673 M 398.427 79 L 398.427 73 L 396.1309 67.45673 L 391.8883 63.21408 M 396.1309 67.45673 L 393.8348 61.91345 L 393.8348 55.91345 M 393.8348 61.91345 L 391.5387 56.37018 M 398.427 73 L 398.427 67 L 400.7231 61.45673 M 398.427 67 L 398.427 61 L 400.7231 55.45673 L 400.7231 49.45673 M 400.7231 55.45673 L 403.0193 49.91345 M 398.427 61 L 398.427 55 L 396.1309 49.45673 M 398.427 55 L 398.427 49 L 400.7231 43.45673 M 398.427 49 L 398.427 43 L 400.7231 37.45673 L 400.7231 31.45673 M 400.7231 37.45673 L 403.0193 31.91345 L 403.0193 25.91345 L 400.7231 20.37018 M 403.0193 25.91345 L 403.0193 19.91345 M 403.0193 31.91345 L 405.3154 26.37018 L 409.558 22.12753 M 405.3154 26.37018 L 407.6115 20.8269 M 398.427 43 L 398.427 37 L 396.1309 31.45673 M 398.427 37 L 398.427 31 L 400.7231 25.45673 M 398.427 31 L 398.427 25 L 396.1309 19.45673 L 391.8883 15.21408 M 396.1309 19.45673 L 393.8348 13.91345 M 398.427 25 L 398.427 19 L 396.1309 13.45673 M 398.427 19 L 398.427 13 L 400.7231 7.456726 L 400.7231 1.456726 M 400.7231 7.456726 L 403.0193 1.913452 M 398.427 13 L 398.427 7 L 400.7231 1.456726 M 398.427 7 L 398.427 1 M 494.427 451 L 494.427 445 L 492.1309 439.4567 M 494.427 445 L 494.427 439 L 496.7231 433.4567 L 500.9658 429.2141 M 496.7231 433.4567 L 499.0193 427.9135 M 494.427 439 L 494.427 433 L 492.1309 427.4567 M 494.427 433 L 494.427 427 L 492.1309 421.4567 L 492.1309 415.4567 M 492.1309 421.4567 L 489.8348 415.9135 L 485.5922 411.6708 L 480.0489 409.3747 M 485.5922 411.6708 L 481.3495 407.4282 M 489.8348 415.9135 L 487.5387 410.3701 L 483.2961 406.1275 M 487.5387 410.3701 L 485.2426 404.8269 M 494.427 427 L 494.427 421 L 496.7231 415.4567 M 494.427 421 L 494.427 415 L 496.7231 409.4567 L 500.9658 405.2141 M 496.7231 409.4567 L 499.0193 403.9135 M 494.427 415 L 494.427 409 L 492.1309 403.4567 M 494.427 409 L 494.427 403 L 496.7231 397.4567 M 494.427 403 L 494.427 397 L 492.1309 391.4567 L 487.8883 387.2141 M 492.1309 391.4567 L 489.8348 385.9135 L 485.5922 381.6708 L 480.0489 379.3747 M 485.5922 381.6708 L 481.3495 377.4282 M 489.8348 385.9135 L 487.5387 380.3702 L 487.5387 374.3702 M 487.5387 380.3702 L 485.2426 374.8269 L 485.2426 368.8269 L 482.9465 363.2836 M 485.2426 368.8269 L 485.2426 362.8269 L 482.9465 357.2836 L 478.7038 353.041 M 482.9465 357.2836 L 480.6504 351.7404 L 480.6504 345.7404 M 480.6504 351.7404 L 478.3542 346.1971 M 485.2426 362.8269 L 485.2426 356.8269 L 482.9465 351.2836 M 485.2426 356.8269 L 485.2426 350.8269 L 487.5387 345.2836 L 487.5387 339.2836 M 487.5387 345.2836 L 489.8348 339.7404 L 494.0775 335.4977 M 489.8348 339.7404 L 492.1309 334.1971 M 485.2426 350.8269 L 485.2426 344.8269 L 487.5387 339.2836 M 485.2426 344.8269 L 485.2426 338.8269 M 485.2426 374.8269 L 482.9465 369.2836 L 478.7038 365.041 M 482.9465 369.2836 L 480.6504 363.7404 L 476.4077 359.4977 L 470.8644 357.2016 M 476.4077 359.4977 L 472.1651 355.2551 L 469.869 349.7118 M 472.1651 355.2551 L 467.9224 351.0125 M 480.6504 363.7404 L 478.3542 358.1971 L 474.1116 353.9544 M 478.3542 358.1971 L 476.0581 352.6538 L 476.0581 346.6538 M 476.0581 352.6538 L 473.762 347.1105 M 494.427 397 L 494.427 391 L 492.1309 385.4567 M 494.427 391 L 494.427 385 L 496.7231 379.4567 M 494.427 385 L 494.427 379 L 492.1309 373.4567 L 492.1309 367.4567 M 492.1309 373.4567 L 489.8348 367.9135 M 494.427 379 L 494.427 373 L 492.1309 367.4567 M 494.427 373 L 494.427 367 L 496.7231 361.4567 L 500.9658 357.2141 M 496.7231 361.4567 L 499.0193 355.9135 L 503.2619 351.6708 L 505.558 346.1276 M 503.2619 351.6708 L 507.5045 347.4282 M 499.0193 355.9135 L 501.3154 350.3702 L 501.3154 344.3702 M 501.3154 350.3702 L 503.6115 344.8269 L 507.8541 340.5843 M 503.6115 344.8269 L 505.9076 339.2837 M 494.427 367 L 494.427 361 L 492.1309 355.4567 M 494.427 361 L 494.427 355 L 496.7231 349.4567 M 494.427 355 L 494.427 349 L 492.1309 343.4567 L 487.8883 339.2141 M 492.1309 343.4567 L 489.8348 337.9135 L 489.8348 331.9135 M 489.8348 337.9135 L 487.5387 332.3702 M 494.427 349 L 494.427 343 L 492.1309 337.4567 M 494.427 343 L 494.427 337 L 496.7231 331.4567 M 494.427 337 L 494.427 331 L 496.7231 325.4567 L 500.9658 321.2141 M 496.7231 325.4567 L 499.0193 319.9135 M 494.427 331 L 494.427 325 L 496.7231 319.4567 M 494.427 325 L 494.427 319 L 496.7231 313.4567 L 500.9658 309.2141 M 496.7231 313.4567 L 499.0193 307.9135 L 499.0193 301.9135 L 496.7231 296.3702 M 499.0193 301.9135 L 499.0193 295.9135 L 501.3154 290.3702 M 499.0193 295.9135 L 499.0193 289.9135 M 499.0193 307.9135 L 501.3154 302.3702 L 501.3154 296.3702 M 501.3154 302.3702 L 503.6115 296.8269 L 507.8541 292.5843 L 510.1502 287.041 M 507.8541 292.5843 L 512.0968 288.3416 M 503.6115 296.8269 L 505.9076 291.2836 L 510.1502 287.041 M 505.9076 291.2836 L 508.2037 285.7404 L 512.4464 281.4977 L 517.9896 279.2016 M 512.4464 281.4977 L 516.689 277.2551 L 518.9851 271.7118 L 523.2278 267.4691 M 518.9851 271.7118 L 521.2813 266.1685 M 516.689 277.2551 L 520.9316 273.0124 L 526.475 270.7163 M 520.9316 273.0124 L 525.1743 268.7698 L 530.7176 266.4737 L 536.7176 266.4737 M 530.7176 266.4737 L 536.2609 264.1776 M 525.1743 268.7698 L 529.4169 264.5271 L 534.9602 262.231 M 529.4169 264.5271 L 533.6595 260.2845 M 508.2037 285.7404 L 510.4998 280.1971 L 514.7425 275.9544 M 510.4998 280.1971 L 512.796 274.6538 L 512.796 268.6538 L 510.4998 263.1105 M 512.796 268.6538 L 512.796 262.6538 L 515.092 257.1105 M 512.796 262.6538 L 512.796 256.6538 M 512.796 274.6538 L 515.092 269.1105 L 515.092 263.1105 M 515.092 269.1105 L 517.3882 263.5673 M 494.427 319 L 494.427 313 L 492.1309 307.4567 M 494.427 313 L 494.427 307 L 496.7231 301.4567 L 496.7231 295.4567 M 496.7231 301.4567 L 499.0193 295.9135 M 494.427 307 L 494.427 301 L 492.1309 295.4567 M 494.427 301 L 494.427 295 L 496.7231 289.4567 L 496.7231 283.4567 M 496.7231 289.4567 L 499.0193 283.9135 L 503.2619 279.6708 M 499.0193 283.9135 L 501.3154 278.3702 L 501.3154 272.3702 L 499.0193 266.8269 M 501.3154 272.3702 L 501.3154 266.3702 L 503.6115 260.8269 M 501.3154 266.3702 L 501.3154 260.3702 M 501.3154 278.3702 L 503.6115 272.8269 L 507.8541 268.5843 M 503.6115 272.8269 L 505.9076 267.2836 L 510.1502 263.041 L 512.4464 257.4977 M 510.1502 263.041 L 514.3929 258.7983 M 505.9076 267.2836 L 508.2037 261.7404 L 512.4464 257.4977 M 508.2037 261.7404 L 510.4998 256.1971 M 494.427 295 L 494.427 289 L 492.1309 283.4567 M 494.427 289 L 494.427 283 L 496.7231 277.4567 M 494.427 283 L 494.427 277 L 492.1309 271.4567 L 487.8883 267.2141 M 492.1309 271.4567 L 489.8348 265.9135 M 494.427 277 L 494.427 271 L 492.1309 265.4567 M 494.427 271 L 494.427 265 L 496.7231 259.4567 L 496.7231 253.4567 M 496.7231 259.4567 L 499.0193 253.9135 M 494.427 265 L 494.427 259 L 492.1309 253.4567 M 494.427 259 L 494.427 253 L 496.7231 247.4567 M 494.427 253 L 494.427 247 L 492.1309 241.4567 L 487.8883 237.2141 M 492.1309 241.4567 L 489.8348 235.9135 L 485.5922 231.6708 L 480.0489 229.3747 M 485.5922 231.6708 L 481.3495 227.4282 L 479.0534 221.8849 M 481.3495 227.4282 L 477.1069 223.1855 M 489.8348 235.9135 L 487.5387 230.3702 L 483.2961 226.1275 M 487.5387 230.3702 L 485.2426 224.8269 L 485.2426 218.8269 M 485.2426 224.8269 L 482.9465 219.2836 L 482.9465 213.2836 L 480.6504 207.7404 M 482.9465 213.2836 L 482.9465 207.2836 M 482.9465 219.2836 L 480.6504 213.7404 L 476.4077 209.4977 M 480.6504 213.7404 L 478.3542 208.1971 L 478.3542 202.1971 L 480.6504 196.6538 M 478.3542 202.1971 L 478.3542 196.1971 L 476.0581 190.6538 L 471.8155 186.4112 M 476.0581 190.6538 L 473.762 185.1105 M 478.3542 196.1971 L 478.3542 190.1971 L 476.0581 184.6538 M 478.3542 190.1971 L 478.3542 184.1971 M 478.3542 208.1971 L 476.0581 202.6538 L 476.0581 196.6538 M 476.0581 202.6538 L 473.762 197.1105 L 469.5194 192.8679 L 467.2233 187.3246 M 469.5194 192.8679 L 465.2767 188.6252 M 473.762 197.1105 L 471.4659 191.5673 L 467.2233 187.3246 M 471.4659 191.5673 L 469.1698 186.024 L 469.1698 180.024 M 469.1698 186.024 L 466.8737 180.4807 L 466.8737 174.4807 L 469.1698 168.9374 M 466.8737 174.4807 L 466.8737 168.4807 M 466.8737 180.4807 L 464.5776 174.9374 L 460.3349 170.6948 M 464.5776 174.9374 L 462.2815 169.3942 L 462.2815 163.3942 L 459.9854 157.8509 M 462.2815 163.3942 L 462.2815 157.3942 L 464.5776 151.8509 M 462.2815 157.3942 L 462.2815 151.3942 L 464.5776 145.8509 L 468.8202 141.6082 M 464.5776 145.8509 L 466.8737 140.3076 M 462.2815 151.3942 L 462.2815 145.3942 L 459.9854 139.8509 M 462.2815 145.3942 L 462.2815 139.3942 L 459.9854 133.8509 L 455.7427 129.6082 M 459.9854 133.8509 L 457.6892 128.3076 L 457.6892 122.3076 M 457.6892 128.3076 L 455.3931 122.7643 L 455.3931 116.7643 L 453.097 111.2211 M 455.3931 116.7643 L 455.3931 110.7643 M 455.3931 122.7643 L 453.097 117.2211 L 448.8544 112.9784 M 453.097 117.2211 L 450.8009 111.6778 M 462.2815 139.3942 L 462.2815 133.3942 L 464.5776 127.8509 M 462.2815 133.3942 L 462.2815 127.3942 L 459.9854 121.8509 L 455.7427 117.6082 M 459.9854 121.8509 L 457.6892 116.3076 L 457.6892 110.3076 M 457.6892 116.3076 L 455.3931 110.7643 M 462.2815 127.3942 L 462.2815 121.3942 L 459.9854 115.8509 M 462.2815 121.3942 L 462.2815 115.3942 L 464.5776 109.8509 L 464.5776 103.8509 M 464.5776 109.8509 L 466.8737 104.3076 L 471.1163 100.065 M 466.8737 104.3076 L 469.1698 98.76434 L 473.4124 94.5217 L 478.9557 92.22559 M 473.4124 94.5217 L 477.6551 90.27905 M 469.1698 98.76434 L 471.4659 93.22107 L 475.7086 88.97842 M 471.4659 93.22107 L 473.762 87.6778 M 462.2815 115.3942 L 462.2815 109.3942 L 464.5776 103.8509 M 462.2815 109.3942 L 462.2815 103.3942 L 459.9854 97.85089 L 455.7427 93.60825 M 459.9854 97.85089 L 457.6892 92.30762 L 457.6892 86.30762 M 457.6892 92.30762 L 455.3931 86.76434 M 462.2815 103.3942 L 462.2815 97.39417 L 459.9854 91.85089 M 462.2815 97.39417 L 462.2815 91.39417 L 464.5776 85.85089 M 462.2815 91.39417 L 462.2815 85.39417 L 464.5776 79.85089 L 468.8202 75.60825 M 464.5776 79.85089 L 466.8737 74.30762 M 462.2815 85.39417 L 462.2815 79.39417 L 459.9854 73.85089 M 462.2815 79.39417 L 462.2815 73.39417 M 462.2815 169.3942 L 459.9854 163.8509 L 459.9854 157.8509 M 459.9854 163.8509 L 457.6892 158.3076 L 457.6892 152.3076 L 455.3931 146.7643 M 457.6892 152.3076 L 457.6892 146.3076 L 459.9854 140.7643 M 457.6892 146.3076 L 457.6892 140.3076 M 457.6892 158.3076 L 455.3931 152.7643 L 455.3931 146.7643 M 455.3931 152.7643 L 453.097 147.2211 L 448.8544 142.9784 L 446.5583 137.4352 M 448.8544 142.9784 L 444.6117 138.7358 L 442.3156 133.1925 L 438.073 128.9499 M 442.3156 133.1925 L 440.0195 127.6492 M 444.6117 138.7358 L 440.3691 134.4931 L 438.073 128.9499 M 440.3691 134.4931 L 436.1264 130.2505 M 453.097 147.2211 L 450.8009 141.6778 L 450.8009 135.6778 M 450.8009 141.6778 L 448.5048 136.1345 L 448.5048 130.1345 L 446.2087 124.5912 M 448.5048 130.1345 L 448.5048 124.1345 M 448.5048 136.1345 L 446.2087 130.5912 L 441.966 126.3486 M 446.2087 130.5912 L 443.9126 125.048 L 443.9126 119.048 M 443.9126 125.048 L 441.6165 119.5047 M 494.427 247 L 494.427 241 L 492.1309 235.4567 M 494.427 241 L 494.427 235 L 496.7231 229.4567 M 494.427 235 L 494.427 229 L 492.1309 223.4567 L 492.1309 217.4567 M 492.1309 223.4567 L 489.8348 217.9135 M 494.427 229 L 494.427 223 L 496.7231 217.4567 M 494.427 223 L 494.427 217 L 492.1309 211.4567 L 492.1309 205.4567 M 492.1309 211.4567 L 489.8348 205.9135 L 489.8348 199.9135 L 487.5387 194.3702 M 489.8348 199.9135 L 489.8348 193.9135 M 489.8348 205.9135 L 487.5387 200.3702 L 483.2961 196.1275 M 487.5387 200.3702 L 485.2426 194.8269 M 494.427 217 L 494.427 211 L 492.1309 205.4567 M 494.427 211 L 494.427 205 L 492.1309 199.4567 L 492.1309 193.4567 M 492.1309 199.4567 L 489.8348 193.9135 M 494.427 205 L 494.427 199 L 492.1309 193.4567 M 494.427 199 L 494.427 193 L 492.1309 187.4567 L 487.8883 183.2141 M 492.1309 187.4567 L 489.8348 181.9135 L 485.5922 177.6708 L 480.0489 175.3747 M 485.5922 177.6708 L 481.3495 173.4282 L 479.0534 167.8849 M 481.3495 173.4282 L 477.1069 169.1855 M 489.8348 181.9135 L 487.5387 176.3702 L 483.2961 172.1275 M 487.5387 176.3702 L 485.2426 170.8269 L 485.2426 164.8269 M 485.2426 170.8269 L 482.9465 165.2836 L 478.7038 161.041 L 476.4077 155.4977 M 478.7038 161.041 L 474.4612 156.7983 L 468.9179 154.5022 L 462.9179 154.5022 M 468.9179 154.5022 L 463.3746 152.2061 L 459.132 147.9635 M 463.3746 152.2061 L 457.8314 149.91 M 474.4612 156.7983 L 470.2185 152.5557 L 464.6753 150.2596 M 470.2185 152.5557 L 465.9759 148.313 L 463.6798 142.7698 L 459.4371 138.5271 M 463.6798 142.7698 L 461.3837 137.2265 L 461.3837 131.2265 M 461.3837 137.2265 L 459.0876 131.6832 M 465.9759 148.313 L 461.7332 144.0704 L 459.4371 138.5271 M 461.7332 144.0704 L 457.4906 139.8278 M 482.9465 165.2836 L 480.6504 159.7404 L 480.6504 153.7404 M 480.6504 159.7404 L 478.3542 154.1971 L 474.1116 149.9544 L 468.5683 147.6583 M 474.1116 149.9544 L 469.869 145.7118 M 478.3542 154.1971 L 476.0581 148.6538 L 471.8155 144.4112 M 476.0581 148.6538 L 473.762 143.1105 L 473.762 137.1105 L 476.0581 131.5673 M 473.762 137.1105 L 473.762 131.1105 L 471.4659 125.5673 L 467.2233 121.3246 M 471.4659 125.5673 L 469.1698 120.024 M 473.762 131.1105 L 473.762 125.1105 L 471.4659 119.5673 M 473.762 125.1105 L 473.762 119.1105 L 476.0581 113.5673 M 473.762 119.1105 L 473.762 113.1105 M 473.762 143.1105 L 471.4659 137.5673 L 471.4659 131.5673 M 471.4659 137.5673 L 469.1698 132.024 L 464.9272 127.7813 L 459.3839 125.4852 M 464.9272 127.7813 L 460.6845 123.5387 L 458.3884 117.9954 M 460.6845 123.5387 L 456.4419 119.2961 M 469.1698 132.024 L 466.8737 126.4807 L 462.631 122.2381 M 466.8737 126.4807 L 464.5776 120.9374 L 464.5776 114.9374 M 464.5776 120.9374 L 462.2815 115.3942 M 494.427 193 L 494.427 187 L 496.7231 181.4567 M 494.427 187 L 494.427 181 L 492.1309 175.4567 L 492.1309 169.4567 M 492.1309 175.4567 L 489.8348 169.9135 M 494.427 181 L 494.427 175 L 492.1309 169.4567 M 494.427 175 L 494.427 169 L 492.1309 163.4567 L 492.1309 157.4567 M 492.1309 163.4567 L 489.8348 157.9135 L 485.5922 153.6708 L 480.0489 151.3747 M 485.5922 153.6708 L 481.3495 149.4282 L 479.0534 143.8849 M 481.3495 149.4282 L 477.1069 145.1855 M 489.8348 157.9135 L 487.5387 152.3702 L 487.5387 146.3702 M 487.5387 152.3702 L 485.2426 146.8269 M 494.427 169 L 494.427 163 L 496.7231 157.4567 M 494.427 163 L 494.427 157 L 496.7231 151.4567 L 496.7231 145.4567 M 496.7231 151.4567 L 499.0193 145.9135 M 494.427 157 L 494.427 151 L 492.1309 145.4567 M 494.427 151 L 494.427 145 L 496.7231 139.4567 M 494.427 145 L 494.427 139 L 496.7231 133.4567 L 496.7231 127.4567 M 496.7231 133.4567 L 499.0193 127.9135 L 503.2619 123.6708 M 499.0193 127.9135 L 501.3154 122.3702 L 505.558 118.1275 L 507.8541 112.5843 M 505.558 118.1275 L 509.8007 113.8849 L 515.3439 111.5888 M 509.8007 113.8849 L 514.0433 109.6422 M 501.3154 122.3702 L 503.6115 116.8269 L 507.8541 112.5843 M 503.6115 116.8269 L 505.9076 111.2836 M 494.427 139 L 494.427 133 L 492.1309 127.4567 M 494.427 133 L 494.427 127 L 492.1309 121.4567 L 487.8883 117.2141 M 492.1309 121.4567 L 489.8348 115.9135 M 494.427 127 L 494.427 121 L 492.1309 115.4567 M 494.427 121 L 494.427 115 L 496.7231 109.4567 M 494.427 115 L 494.427 109 L 496.7231 103.4567 L 496.7231 97.45673 M 496.7231 103.4567 L 499.0193 97.91345 L 503.2619 93.67081 M 499.0193 97.91345 L 501.3154 92.37018 M 494.427 109 L 494.427 103 L 496.7231 97.45673 M 494.427 103 L 494.427 97 " />
  </g>
</svg>
